<?xml version="1.0" encoding="UTF-8"?>
<!-- Do not edit this file with editors other than draw.io -->
<!DOCTYPE svg PUBLIC "-//W3C//DTD SVG 1.1//EN" "http://www.w3.org/Graphics/SVG/1.1/DTD/svg11.dtd">
<svg xmlns="http://www.w3.org/2000/svg" style="background: transparent; background-color: transparent; color-scheme: light dark;" xmlns:xlink="http://www.w3.org/1999/xlink" version="1.1" width="320px" height="151px" viewBox="0 0 320 151" content="&lt;mxfile host=&quot;app.diagrams.net&quot; agent=&quot;Mozilla/5.0 (Windows NT 10.0; Win64; x64) AppleWebKit/537.36 (KHTML, like Gecko) Chrome/130.0.0.0 Safari/537.36&quot; version=&quot;28.2.7&quot;&gt;&#10;  &lt;diagram name=&quot;第 1 页&quot; id=&quot;mWEZ4SxHingLeuTg5hQE&quot;&gt;&#10;    &lt;mxGraphModel dx=&quot;1369&quot; dy=&quot;780&quot; grid=&quot;1&quot; gridSize=&quot;10&quot; guides=&quot;1&quot; tooltips=&quot;1&quot; connect=&quot;1&quot; arrows=&quot;1&quot; fold=&quot;1&quot; page=&quot;1&quot; pageScale=&quot;1&quot; pageWidth=&quot;827&quot; pageHeight=&quot;1169&quot; math=&quot;1&quot; shadow=&quot;0&quot;&gt;&#10;      &lt;root&gt;&#10;        &lt;mxCell id=&quot;0&quot; /&gt;&#10;        &lt;mxCell id=&quot;1&quot; parent=&quot;0&quot; /&gt;&#10;        &lt;mxCell id=&quot;UWbIK9uMcAFfPkvOS2NT-1&quot; style=&quot;edgeStyle=orthogonalEdgeStyle;rounded=0;orthogonalLoop=1;jettySize=auto;html=1;exitX=1;exitY=0.5;exitDx=0;exitDy=0;endArrow=open;endFill=0;strokeWidth=1.5;&quot; edge=&quot;1&quot; parent=&quot;1&quot; source=&quot;UWbIK9uMcAFfPkvOS2NT-2&quot; target=&quot;UWbIK9uMcAFfPkvOS2NT-6&quot;&gt;&#10;          &lt;mxGeometry relative=&quot;1&quot; as=&quot;geometry&quot; /&gt;&#10;        &lt;/mxCell&gt;&#10;        &lt;mxCell id=&quot;UWbIK9uMcAFfPkvOS2NT-2&quot; value=&quot;&quot; style=&quot;rounded=1;whiteSpace=wrap;html=1;strokeColor=#2F4976;strokeWidth=2;fillColor=#FFFFFF4D;&quot; vertex=&quot;1&quot; parent=&quot;1&quot;&gt;&#10;          &lt;mxGeometry x=&quot;270&quot; y=&quot;120&quot; width=&quot;110&quot; height=&quot;80&quot; as=&quot;geometry&quot; /&gt;&#10;        &lt;/mxCell&gt;&#10;        &lt;mxCell id=&quot;UWbIK9uMcAFfPkvOS2NT-3&quot; value=&quot;模拟器&quot; style=&quot;text;html=1;align=center;verticalAlign=middle;whiteSpace=wrap;rounded=0;fontSize=16;fontFamily=LXGW WenKai GB Screen;&quot; vertex=&quot;1&quot; parent=&quot;1&quot;&gt;&#10;          &lt;mxGeometry x=&quot;295&quot; y=&quot;145&quot; width=&quot;60&quot; height=&quot;30&quot; as=&quot;geometry&quot; /&gt;&#10;        &lt;/mxCell&gt;&#10;        &lt;mxCell id=&quot;UWbIK9uMcAFfPkvOS2NT-4&quot; style=&quot;edgeStyle=orthogonalEdgeStyle;rounded=0;orthogonalLoop=1;jettySize=auto;html=1;entryX=0;entryY=0.5;entryDx=0;entryDy=0;endArrow=open;endFill=0;strokeWidth=1.5;&quot; edge=&quot;1&quot; parent=&quot;1&quot; source=&quot;UWbIK9uMcAFfPkvOS2NT-5&quot; target=&quot;UWbIK9uMcAFfPkvOS2NT-2&quot;&gt;&#10;          &lt;mxGeometry relative=&quot;1&quot; as=&quot;geometry&quot; /&gt;&#10;        &lt;/mxCell&gt;&#10;        &lt;mxCell id=&quot;UWbIK9uMcAFfPkvOS2NT-5&quot; value=&quot;\(s_t\)&quot; style=&quot;text;html=1;align=center;verticalAlign=middle;whiteSpace=wrap;rounded=0;fontSize=16;&quot; vertex=&quot;1&quot; parent=&quot;1&quot;&gt;&#10;          &lt;mxGeometry x=&quot;210&quot; y=&quot;145&quot; width=&quot;30&quot; height=&quot;30&quot; as=&quot;geometry&quot; /&gt;&#10;        &lt;/mxCell&gt;&#10;        &lt;mxCell id=&quot;UWbIK9uMcAFfPkvOS2NT-6&quot; value=&quot;\(s_{t+1} \sim P_{s a}\)&quot; style=&quot;text;html=1;align=center;verticalAlign=middle;whiteSpace=wrap;rounded=0;fontSize=16;&quot; vertex=&quot;1&quot; parent=&quot;1&quot;&gt;&#10;          &lt;mxGeometry x=&quot;410&quot; y=&quot;145&quot; width=&quot;90&quot; height=&quot;30&quot; as=&quot;geometry&quot; /&gt;&#10;        &lt;/mxCell&gt;&#10;        &lt;mxCell id=&quot;UWbIK9uMcAFfPkvOS2NT-7&quot; style=&quot;edgeStyle=orthogonalEdgeStyle;rounded=0;orthogonalLoop=1;jettySize=auto;html=1;exitX=0.5;exitY=0;exitDx=0;exitDy=0;entryX=0.5;entryY=1;entryDx=0;entryDy=0;strokeColor=default;strokeWidth=1.5;align=center;verticalAlign=middle;fontFamily=Helvetica;fontSize=11;fontColor=default;labelBackgroundColor=default;endArrow=open;endFill=0;&quot; edge=&quot;1&quot; parent=&quot;1&quot; source=&quot;UWbIK9uMcAFfPkvOS2NT-8&quot; target=&quot;UWbIK9uMcAFfPkvOS2NT-2&quot;&gt;&#10;          &lt;mxGeometry relative=&quot;1&quot; as=&quot;geometry&quot; /&gt;&#10;        &lt;/mxCell&gt;&#10;        &lt;mxCell id=&quot;UWbIK9uMcAFfPkvOS2NT-8&quot; value=&quot;\(a_t\)&quot; style=&quot;text;html=1;align=center;verticalAlign=middle;whiteSpace=wrap;rounded=0;fontSize=16;&quot; vertex=&quot;1&quot; parent=&quot;1&quot;&gt;&#10;          &lt;mxGeometry x=&quot;310&quot; y=&quot;230&quot; width=&quot;30&quot; height=&quot;30&quot; as=&quot;geometry&quot; /&gt;&#10;        &lt;/mxCell&gt;&#10;        &lt;mxCell id=&quot;UWbIK9uMcAFfPkvOS2NT-9&quot; value=&quot;\([t]\)&quot; style=&quot;text;html=1;align=center;verticalAlign=middle;whiteSpace=wrap;rounded=0;&quot; vertex=&quot;1&quot; parent=&quot;1&quot;&gt;&#10;          &lt;mxGeometry x=&quot;180&quot; y=&quot;240&quot; width=&quot;60&quot; height=&quot;30&quot; as=&quot;geometry&quot; /&gt;&#10;        &lt;/mxCell&gt;&#10;      &lt;/root&gt;&#10;    &lt;/mxGraphModel&gt;&#10;  &lt;/diagram&gt;&#10;&lt;/mxfile&gt;&#10;"><defs><style xmlns="http://www.w3.org/1999/xhtml" id="MJX-SVG-styles">&#xa;mjx-container[jax="SVG"] {&#xa;  direction: ltr;&#xa;}&#xa;&#xa;mjx-container[jax="SVG"] &gt; svg {&#xa;  overflow: visible;&#xa;  min-height: 1px;&#xa;  min-width: 1px;&#xa;}&#xa;&#xa;mjx-container[jax="SVG"] &gt; svg a {&#xa;  fill: blue;&#xa;  stroke: blue;&#xa;}&#xa;&#xa;mjx-container[jax="SVG"][display="true"] {&#xa;  display: block;&#xa;  text-align: center;&#xa;  margin: 1em 0;&#xa;}&#xa;&#xa;mjx-container[jax="SVG"][display="true"][width="full"] {&#xa;  display: flex;&#xa;}&#xa;&#xa;mjx-container[jax="SVG"][justify="left"] {&#xa;  text-align: left;&#xa;}&#xa;&#xa;mjx-container[jax="SVG"][justify="right"] {&#xa;  text-align: right;&#xa;}&#xa;&#xa;g[data-mml-node="merror"] &gt; g {&#xa;  fill: red;&#xa;  stroke: red;&#xa;}&#xa;&#xa;g[data-mml-node="merror"] &gt; rect[data-background] {&#xa;  fill: yellow;&#xa;  stroke: none;&#xa;}&#xa;&#xa;g[data-mml-node="mtable"] &gt; line[data-line], svg[data-table] &gt; g &gt; line[data-line] {&#xa;  stroke-width: 70px;&#xa;  fill: none;&#xa;}&#xa;&#xa;g[data-mml-node="mtable"] &gt; rect[data-frame], svg[data-table] &gt; g &gt; rect[data-frame] {&#xa;  stroke-width: 70px;&#xa;  fill: none;&#xa;}&#xa;&#xa;g[data-mml-node="mtable"] &gt; .mjx-dashed, svg[data-table] &gt; g &gt; .mjx-dashed {&#xa;  stroke-dasharray: 140;&#xa;}&#xa;&#xa;g[data-mml-node="mtable"] &gt; .mjx-dotted, svg[data-table] &gt; g &gt; .mjx-dotted {&#xa;  stroke-linecap: round;&#xa;  stroke-dasharray: 0,140;&#xa;}&#xa;&#xa;g[data-mml-node="mtable"] &gt; g &gt; svg {&#xa;  overflow: visible;&#xa;}&#xa;&#xa;[jax="SVG"] mjx-tool {&#xa;  display: inline-block;&#xa;  position: relative;&#xa;  width: 0;&#xa;  height: 0;&#xa;}&#xa;&#xa;[jax="SVG"] mjx-tool &gt; mjx-tip {&#xa;  position: absolute;&#xa;  top: 0;&#xa;  left: 0;&#xa;}&#xa;&#xa;mjx-tool &gt; mjx-tip {&#xa;  display: inline-block;&#xa;  padding: .2em;&#xa;  border: 1px solid #888;&#xa;  font-size: 70%;&#xa;  background-color: #F8F8F8;&#xa;  color: black;&#xa;  box-shadow: 2px 2px 5px #AAAAAA;&#xa;}&#xa;&#xa;g[data-mml-node="maction"][data-toggle] {&#xa;  cursor: pointer;&#xa;}&#xa;&#xa;mjx-status {&#xa;  display: block;&#xa;  position: fixed;&#xa;  left: 1em;&#xa;  bottom: 1em;&#xa;  min-width: 25%;&#xa;  padding: .2em .4em;&#xa;  border: 1px solid #888;&#xa;  font-size: 90%;&#xa;  background-color: #F8F8F8;&#xa;  color: black;&#xa;}&#xa;&#xa;foreignObject[data-mjx-xml] {&#xa;  font-family: initial;&#xa;  line-height: normal;&#xa;  overflow: visible;&#xa;}&#xa;&#xa;mjx-container[jax="SVG"] path[data-c], mjx-container[jax="SVG"] use[data-c] {&#xa;  stroke-width: 3;&#xa;}&#xa;</style></defs><g><g data-cell-id="0"><g data-cell-id="1"><g data-cell-id="UWbIK9uMcAFfPkvOS2NT-1"><g><path d="M 200 41 L 220 41 L 210 41 L 226.65 41" fill="none" stroke="#000000" stroke-width="1.5" stroke-miterlimit="10" pointer-events="stroke" style="stroke: light-dark(rgb(0, 0, 0), rgb(255, 255, 255));"/><path d="M 220.82 44.75 L 228.32 41 L 220.82 37.25" fill="none" stroke="#000000" stroke-width="1.5" stroke-miterlimit="10" pointer-events="all" style="stroke: light-dark(rgb(0, 0, 0), rgb(255, 255, 255));"/></g></g><g data-cell-id="UWbIK9uMcAFfPkvOS2NT-2"><g><rect x="90" y="1" width="110" height="80" rx="12" ry="12" fill="#ffffff4d" stroke="#2f4976" stroke-width="2" pointer-events="all" style="fill: light-dark(rgba(255, 255, 255, 0.3), rgba(18, 18, 18, 0.3)); stroke: light-dark(rgb(47, 73, 118), rgb(155, 178, 216));"/></g></g><g data-cell-id="UWbIK9uMcAFfPkvOS2NT-3"><g transform="translate(0.5,0.5)"><rect x="115" y="26" width="60" height="30" fill="none" stroke="none" pointer-events="all"/></g><g><g><switch><foreignObject style="overflow: visible; text-align: left;" pointer-events="none" width="100%" height="100%" requiredFeatures="http://www.w3.org/TR/SVG11/feature#Extensibility"><div xmlns="http://www.w3.org/1999/xhtml" style="display: flex; align-items: unsafe center; justify-content: unsafe center; width: 58px; height: 1px; padding-top: 41px; margin-left: 116px;"><div style="box-sizing: border-box; font-size: 0; text-align: center; color: #000000; "><div style="display: inline-block; font-size: 16px; font-family: 'LXGW WenKai GB Screen'; color: light-dark(#000000, #ffffff); line-height: 1.2; pointer-events: all; white-space: normal; word-wrap: normal; ">模拟器</div></div></div></foreignObject><text x="145" y="46" fill="light-dark(#000000, #ffffff)" font-family="'LXGW WenKai GB Screen'" font-size="16px" text-anchor="middle">模拟器</text></switch></g></g></g><g data-cell-id="UWbIK9uMcAFfPkvOS2NT-4"><g><path d="M 60 41 L 80 41 L 70 41 L 86.65 41" fill="none" stroke="#000000" stroke-width="1.5" stroke-miterlimit="10" pointer-events="stroke" style="stroke: light-dark(rgb(0, 0, 0), rgb(255, 255, 255));"/><path d="M 80.82 44.75 L 88.32 41 L 80.82 37.25" fill="none" stroke="#000000" stroke-width="1.5" stroke-miterlimit="10" pointer-events="all" style="stroke: light-dark(rgb(0, 0, 0), rgb(255, 255, 255));"/></g></g><g data-cell-id="UWbIK9uMcAFfPkvOS2NT-5"><g transform="translate(0.5,0.5)"><rect x="30" y="26" width="30" height="30" fill="none" stroke="none" pointer-events="all"/></g><g><g><switch><foreignObject style="overflow: visible; text-align: left;" pointer-events="none" width="100%" height="100%" requiredFeatures="http://www.w3.org/TR/SVG11/feature#Extensibility"><div xmlns="http://www.w3.org/1999/xhtml" style="display: flex; align-items: unsafe center; justify-content: unsafe center; width: 28px; height: 1px; padding-top: 41px; margin-left: 31px;"><div style="box-sizing: border-box; font-size: 0; text-align: center; color: #000000; "><div style="display: inline-block; font-size: 16px; font-family: Helvetica; color: light-dark(#000000, #ffffff); line-height: 1.2; pointer-events: all; white-space: normal; word-wrap: normal; "><mjx-container class="MathJax" jax="SVG"><svg xmlns="http://www.w3.org/2000/svg" width="1.826ex" height="1.357ex" role="img" focusable="false" viewBox="0 -442 807.3 599.8" xmlns:xlink="http://www.w3.org/1999/xlink" style="vertical-align: -0.357ex;"><defs><path id="MJX-5-TEX-I-1D460" d="M131 289Q131 321 147 354T203 415T300 442Q362 442 390 415T419 355Q419 323 402 308T364 292Q351 292 340 300T328 326Q328 342 337 354T354 372T367 378Q368 378 368 379Q368 382 361 388T336 399T297 405Q249 405 227 379T204 326Q204 301 223 291T278 274T330 259Q396 230 396 163Q396 135 385 107T352 51T289 7T195 -10Q118 -10 86 19T53 87Q53 126 74 143T118 160Q133 160 146 151T160 120Q160 94 142 76T111 58Q109 57 108 57T107 55Q108 52 115 47T146 34T201 27Q237 27 263 38T301 66T318 97T323 122Q323 150 302 164T254 181T195 196T148 231Q131 256 131 289Z"/><path id="MJX-5-TEX-I-1D461" d="M26 385Q19 392 19 395Q19 399 22 411T27 425Q29 430 36 430T87 431H140L159 511Q162 522 166 540T173 566T179 586T187 603T197 615T211 624T229 626Q247 625 254 615T261 596Q261 589 252 549T232 470L222 433Q222 431 272 431H323Q330 424 330 420Q330 398 317 385H210L174 240Q135 80 135 68Q135 26 162 26Q197 26 230 60T283 144Q285 150 288 151T303 153H307Q322 153 322 145Q322 142 319 133Q314 117 301 95T267 48T216 6T155 -11Q125 -11 98 4T59 56Q57 64 57 83V101L92 241Q127 382 128 383Q128 385 77 385H26Z"/></defs><g stroke="currentColor" fill="currentColor" stroke-width="0" transform="scale(1,-1)"><g data-mml-node="math"><g data-mml-node="msub"><g data-mml-node="mi"><use data-c="1D460" xlink:href="#MJX-5-TEX-I-1D460"/></g><g data-mml-node="mi" transform="translate(502,-150) scale(0.707)"><use data-c="1D461" xlink:href="#MJX-5-TEX-I-1D461"/></g></g></g></g></svg></mjx-container></div></div></div></foreignObject><text x="45" y="46" fill="light-dark(#000000, #ffffff)" font-family="Helvetica" font-size="16px" text-anchor="middle">\(s_...</text></switch></g></g></g><g data-cell-id="UWbIK9uMcAFfPkvOS2NT-6"><g transform="translate(0.5,0.5)"><rect x="230" y="26" width="90" height="30" fill="none" stroke="none" pointer-events="all"/></g><g><g><switch><foreignObject style="overflow: visible; text-align: left;" pointer-events="none" width="100%" height="100%" requiredFeatures="http://www.w3.org/TR/SVG11/feature#Extensibility"><div xmlns="http://www.w3.org/1999/xhtml" style="display: flex; align-items: unsafe center; justify-content: unsafe center; width: 88px; height: 1px; padding-top: 41px; margin-left: 231px;"><div style="box-sizing: border-box; font-size: 0; text-align: center; color: #000000; "><div style="display: inline-block; font-size: 16px; font-family: Helvetica; color: light-dark(#000000, #ffffff); line-height: 1.2; pointer-events: all; white-space: normal; word-wrap: normal; "><mjx-container class="MathJax" jax="SVG"><svg xmlns="http://www.w3.org/2000/svg" width="10.125ex" height="2.016ex" role="img" focusable="false" viewBox="0 -683 4475.2 891" xmlns:xlink="http://www.w3.org/1999/xlink" style="vertical-align: -0.471ex;"><defs><path id="MJX-6-TEX-I-1D460" d="M131 289Q131 321 147 354T203 415T300 442Q362 442 390 415T419 355Q419 323 402 308T364 292Q351 292 340 300T328 326Q328 342 337 354T354 372T367 378Q368 378 368 379Q368 382 361 388T336 399T297 405Q249 405 227 379T204 326Q204 301 223 291T278 274T330 259Q396 230 396 163Q396 135 385 107T352 51T289 7T195 -10Q118 -10 86 19T53 87Q53 126 74 143T118 160Q133 160 146 151T160 120Q160 94 142 76T111 58Q109 57 108 57T107 55Q108 52 115 47T146 34T201 27Q237 27 263 38T301 66T318 97T323 122Q323 150 302 164T254 181T195 196T148 231Q131 256 131 289Z"/><path id="MJX-6-TEX-I-1D461" d="M26 385Q19 392 19 395Q19 399 22 411T27 425Q29 430 36 430T87 431H140L159 511Q162 522 166 540T173 566T179 586T187 603T197 615T211 624T229 626Q247 625 254 615T261 596Q261 589 252 549T232 470L222 433Q222 431 272 431H323Q330 424 330 420Q330 398 317 385H210L174 240Q135 80 135 68Q135 26 162 26Q197 26 230 60T283 144Q285 150 288 151T303 153H307Q322 153 322 145Q322 142 319 133Q314 117 301 95T267 48T216 6T155 -11Q125 -11 98 4T59 56Q57 64 57 83V101L92 241Q127 382 128 383Q128 385 77 385H26Z"/><path id="MJX-6-TEX-N-2B" d="M56 237T56 250T70 270H369V420L370 570Q380 583 389 583Q402 583 409 568V270H707Q722 262 722 250T707 230H409V-68Q401 -82 391 -82H389H387Q375 -82 369 -68V230H70Q56 237 56 250Z"/><path id="MJX-6-TEX-N-31" d="M213 578L200 573Q186 568 160 563T102 556H83V602H102Q149 604 189 617T245 641T273 663Q275 666 285 666Q294 666 302 660V361L303 61Q310 54 315 52T339 48T401 46H427V0H416Q395 3 257 3Q121 3 100 0H88V46H114Q136 46 152 46T177 47T193 50T201 52T207 57T213 61V578Z"/><path id="MJX-6-TEX-N-223C" d="M55 166Q55 241 101 304T222 367Q260 367 296 349T362 304T421 252T484 208T554 189Q616 189 655 236T694 338Q694 350 698 358T708 367Q722 367 722 334Q722 260 677 197T562 134H554Q517 134 481 152T414 196T355 248T292 293T223 311Q179 311 145 286Q109 257 96 218T80 156T69 133Q55 133 55 166Z"/><path id="MJX-6-TEX-I-1D443" d="M287 628Q287 635 230 637Q206 637 199 638T192 648Q192 649 194 659Q200 679 203 681T397 683Q587 682 600 680Q664 669 707 631T751 530Q751 453 685 389Q616 321 507 303Q500 302 402 301H307L277 182Q247 66 247 59Q247 55 248 54T255 50T272 48T305 46H336Q342 37 342 35Q342 19 335 5Q330 0 319 0Q316 0 282 1T182 2Q120 2 87 2T51 1Q33 1 33 11Q33 13 36 25Q40 41 44 43T67 46Q94 46 127 49Q141 52 146 61Q149 65 218 339T287 628ZM645 554Q645 567 643 575T634 597T609 619T560 635Q553 636 480 637Q463 637 445 637T416 636T404 636Q391 635 386 627Q384 621 367 550T332 412T314 344Q314 342 395 342H407H430Q542 342 590 392Q617 419 631 471T645 554Z"/><path id="MJX-6-TEX-I-1D44E" d="M33 157Q33 258 109 349T280 441Q331 441 370 392Q386 422 416 422Q429 422 439 414T449 394Q449 381 412 234T374 68Q374 43 381 35T402 26Q411 27 422 35Q443 55 463 131Q469 151 473 152Q475 153 483 153H487Q506 153 506 144Q506 138 501 117T481 63T449 13Q436 0 417 -8Q409 -10 393 -10Q359 -10 336 5T306 36L300 51Q299 52 296 50Q294 48 292 46Q233 -10 172 -10Q117 -10 75 30T33 157ZM351 328Q351 334 346 350T323 385T277 405Q242 405 210 374T160 293Q131 214 119 129Q119 126 119 118T118 106Q118 61 136 44T179 26Q217 26 254 59T298 110Q300 114 325 217T351 328Z"/></defs><g stroke="currentColor" fill="currentColor" stroke-width="0" transform="scale(1,-1)"><g data-mml-node="math"><g data-mml-node="msub"><g data-mml-node="mi"><use data-c="1D460" xlink:href="#MJX-6-TEX-I-1D460"/></g><g data-mml-node="TeXAtom" transform="translate(502,-150) scale(0.707)" data-mjx-texclass="ORD"><g data-mml-node="mi"><use data-c="1D461" xlink:href="#MJX-6-TEX-I-1D461"/></g><g data-mml-node="mo" transform="translate(361,0)"><use data-c="2B" xlink:href="#MJX-6-TEX-N-2B"/></g><g data-mml-node="mn" transform="translate(1139,0)"><use data-c="31" xlink:href="#MJX-6-TEX-N-31"/></g></g></g><g data-mml-node="mo" transform="translate(1988.7,0)"><use data-c="223C" xlink:href="#MJX-6-TEX-N-223C"/></g><g data-mml-node="msub" transform="translate(3044.5,0)"><g data-mml-node="mi"><use data-c="1D443" xlink:href="#MJX-6-TEX-I-1D443"/></g><g data-mml-node="TeXAtom" transform="translate(675,-150) scale(0.707)" data-mjx-texclass="ORD"><g data-mml-node="mi"><use data-c="1D460" xlink:href="#MJX-6-TEX-I-1D460"/></g><g data-mml-node="mi" transform="translate(469,0)"><use data-c="1D44E" xlink:href="#MJX-6-TEX-I-1D44E"/></g></g></g></g></g></svg></mjx-container></div></div></div></foreignObject><text x="275" y="46" fill="light-dark(#000000, #ffffff)" font-family="Helvetica" font-size="16px" text-anchor="middle">\(s_{t+1} \...</text></switch></g></g></g><g data-cell-id="UWbIK9uMcAFfPkvOS2NT-7"><g><path d="M 145 111 L 145 84.35" fill="none" stroke="#000000" stroke-width="1.5" stroke-miterlimit="10" pointer-events="stroke" style="stroke: light-dark(rgb(0, 0, 0), rgb(255, 255, 255));"/><path d="M 148.75 90.18 L 145 82.68 L 141.25 90.18" fill="none" stroke="#000000" stroke-width="1.5" stroke-miterlimit="10" pointer-events="all" style="stroke: light-dark(rgb(0, 0, 0), rgb(255, 255, 255));"/></g></g><g data-cell-id="UWbIK9uMcAFfPkvOS2NT-8"><g transform="translate(0.5,0.5)"><rect x="130" y="111" width="30" height="30" fill="none" stroke="none" pointer-events="all"/></g><g><g><switch><foreignObject style="overflow: visible; text-align: left;" pointer-events="none" width="100%" height="100%" requiredFeatures="http://www.w3.org/TR/SVG11/feature#Extensibility"><div xmlns="http://www.w3.org/1999/xhtml" style="display: flex; align-items: unsafe center; justify-content: unsafe center; width: 28px; height: 1px; padding-top: 126px; margin-left: 131px;"><div style="box-sizing: border-box; font-size: 0; text-align: center; color: #000000; "><div style="display: inline-block; font-size: 16px; font-family: Helvetica; color: light-dark(#000000, #ffffff); line-height: 1.2; pointer-events: all; white-space: normal; word-wrap: normal; "><mjx-container class="MathJax" jax="SVG"><svg xmlns="http://www.w3.org/2000/svg" width="1.962ex" height="1.355ex" role="img" focusable="false" viewBox="0 -441 867.3 598.8" xmlns:xlink="http://www.w3.org/1999/xlink" style="vertical-align: -0.357ex;"><defs><path id="MJX-7-TEX-I-1D44E" d="M33 157Q33 258 109 349T280 441Q331 441 370 392Q386 422 416 422Q429 422 439 414T449 394Q449 381 412 234T374 68Q374 43 381 35T402 26Q411 27 422 35Q443 55 463 131Q469 151 473 152Q475 153 483 153H487Q506 153 506 144Q506 138 501 117T481 63T449 13Q436 0 417 -8Q409 -10 393 -10Q359 -10 336 5T306 36L300 51Q299 52 296 50Q294 48 292 46Q233 -10 172 -10Q117 -10 75 30T33 157ZM351 328Q351 334 346 350T323 385T277 405Q242 405 210 374T160 293Q131 214 119 129Q119 126 119 118T118 106Q118 61 136 44T179 26Q217 26 254 59T298 110Q300 114 325 217T351 328Z"/><path id="MJX-7-TEX-I-1D461" d="M26 385Q19 392 19 395Q19 399 22 411T27 425Q29 430 36 430T87 431H140L159 511Q162 522 166 540T173 566T179 586T187 603T197 615T211 624T229 626Q247 625 254 615T261 596Q261 589 252 549T232 470L222 433Q222 431 272 431H323Q330 424 330 420Q330 398 317 385H210L174 240Q135 80 135 68Q135 26 162 26Q197 26 230 60T283 144Q285 150 288 151T303 153H307Q322 153 322 145Q322 142 319 133Q314 117 301 95T267 48T216 6T155 -11Q125 -11 98 4T59 56Q57 64 57 83V101L92 241Q127 382 128 383Q128 385 77 385H26Z"/></defs><g stroke="currentColor" fill="currentColor" stroke-width="0" transform="scale(1,-1)"><g data-mml-node="math"><g data-mml-node="msub"><g data-mml-node="mi"><use data-c="1D44E" xlink:href="#MJX-7-TEX-I-1D44E"/></g><g data-mml-node="mi" transform="translate(562,-150) scale(0.707)"><use data-c="1D461" xlink:href="#MJX-7-TEX-I-1D461"/></g></g></g></g></svg></mjx-container></div></div></div></foreignObject><text x="145" y="131" fill="light-dark(#000000, #ffffff)" font-family="Helvetica" font-size="16px" text-anchor="middle">\(a_...</text></switch></g></g></g><g data-cell-id="UWbIK9uMcAFfPkvOS2NT-9"><g transform="translate(0.5,0.5)"><rect x="0" y="121" width="60" height="30" fill="none" stroke="none" pointer-events="all"/></g><g><g><switch><foreignObject style="overflow: visible; text-align: left;" pointer-events="none" width="100%" height="100%" requiredFeatures="http://www.w3.org/TR/SVG11/feature#Extensibility"><div xmlns="http://www.w3.org/1999/xhtml" style="display: flex; align-items: unsafe center; justify-content: unsafe center; width: 58px; height: 1px; padding-top: 136px; margin-left: 1px;"><div style="box-sizing: border-box; font-size: 0; text-align: center; color: #000000; "><div style="display: inline-block; font-size: 12px; font-family: Helvetica; color: light-dark(#000000, #ffffff); line-height: 1.2; pointer-events: all; white-space: normal; word-wrap: normal; "><mjx-container class="MathJax" jax="SVG"><svg xmlns="http://www.w3.org/2000/svg" width="2.075ex" height="2.262ex" role="img" focusable="false" viewBox="0 -750 917 1000" xmlns:xlink="http://www.w3.org/1999/xlink" style="vertical-align: -0.566ex;"><defs><path id="MJX-8-TEX-N-5B" d="M118 -250V750H255V710H158V-210H255V-250H118Z"/><path id="MJX-8-TEX-I-1D461" d="M26 385Q19 392 19 395Q19 399 22 411T27 425Q29 430 36 430T87 431H140L159 511Q162 522 166 540T173 566T179 586T187 603T197 615T211 624T229 626Q247 625 254 615T261 596Q261 589 252 549T232 470L222 433Q222 431 272 431H323Q330 424 330 420Q330 398 317 385H210L174 240Q135 80 135 68Q135 26 162 26Q197 26 230 60T283 144Q285 150 288 151T303 153H307Q322 153 322 145Q322 142 319 133Q314 117 301 95T267 48T216 6T155 -11Q125 -11 98 4T59 56Q57 64 57 83V101L92 241Q127 382 128 383Q128 385 77 385H26Z"/><path id="MJX-8-TEX-N-5D" d="M22 710V750H159V-250H22V-210H119V710H22Z"/></defs><g stroke="currentColor" fill="currentColor" stroke-width="0" transform="scale(1,-1)"><g data-mml-node="math"><g data-mml-node="mo"><use data-c="5B" xlink:href="#MJX-8-TEX-N-5B"/></g><g data-mml-node="mi" transform="translate(278,0)"><use data-c="1D461" xlink:href="#MJX-8-TEX-I-1D461"/></g><g data-mml-node="mo" transform="translate(639,0)"><use data-c="5D" xlink:href="#MJX-8-TEX-N-5D"/></g></g></g></svg></mjx-container></div></div></div></foreignObject><text x="30" y="140" fill="light-dark(#000000, #ffffff)" font-family="Helvetica" font-size="12px" text-anchor="middle">\([t]\)</text></switch></g></g></g></g></g></g><switch><g requiredFeatures="http://www.w3.org/TR/SVG11/feature#Extensibility"/><a transform="translate(0,-5)" xlink:href="https://www.drawio.com/doc/faq/svg-export-text-problems" target="_blank"><text text-anchor="middle" font-size="10px" x="50%" y="100%">Text is not SVG - cannot display</text></a></switch></svg>