<?xml version="1.0" encoding="utf-8" standalone="no"?>
<!DOCTYPE svg PUBLIC "-//W3C//DTD SVG 1.1//EN"
  "http://www.w3.org/Graphics/SVG/1.1/DTD/svg11.dtd">
<svg xmlns:xlink="http://www.w3.org/1999/xlink" width="460.8pt" height="345.6pt" viewBox="0 0 460.8 345.6" xmlns="http://www.w3.org/2000/svg" version="1.1">
 <metadata>
  <rdf:RDF xmlns:dc="http://purl.org/dc/elements/1.1/" xmlns:cc="http://creativecommons.org/ns#" xmlns:rdf="http://www.w3.org/1999/02/22-rdf-syntax-ns#">
   <cc:Work>
    <dc:type rdf:resource="http://purl.org/dc/dcmitype/StillImage"/>
    <dc:date>2025-10-07T22:38:29.193940</dc:date>
    <dc:format>image/svg+xml</dc:format>
    <dc:creator>
     <cc:Agent>
      <dc:title>Matplotlib v3.10.0, https://matplotlib.org/</dc:title>
     </cc:Agent>
    </dc:creator>
   </cc:Work>
  </rdf:RDF>
 </metadata>
 <defs>
  <style type="text/css">*{stroke-linejoin: round; stroke-linecap: butt}</style>
 </defs>
 <g id="figure_1">
  <g id="patch_1">
   <path d="M 0 345.6 
L 460.8 345.6 
L 460.8 0 
L 0 0 
z
" style="fill: #ffffff"/>
  </g>
  <g id="axes_1">
   <g id="patch_2">
    <path d="M 57.6 307.584 
L 414.72 307.584 
L 414.72 41.472 
L 57.6 41.472 
z
" style="fill: #ffffff"/>
   </g>
   <g id="PathCollection_1">
    <defs>
     <path id="md660e478d0" d="M 0 3 
C 0.795609 3 1.55874 2.683901 2.12132 2.12132 
C 2.683901 1.55874 3 0.795609 3 0 
C 3 -0.795609 2.683901 -1.55874 2.12132 -2.12132 
C 1.55874 -2.683901 0.795609 -3 0 -3 
C -0.795609 -3 -1.55874 -2.683901 -2.12132 -2.12132 
C -2.683901 -1.55874 -3 -0.795609 -3 0 
C -3 0.795609 -2.683901 1.55874 -2.12132 2.12132 
C -1.55874 2.683901 -0.795609 3 0 3 
z
" style="stroke: #1f77b4"/>
    </defs>
    <g clip-path="url(#pe294dc9bf5)">
     <use xlink:href="#md660e478d0" x="191.888926" y="262.589101" style="fill: #1f77b4; stroke: #1f77b4"/>
     <use xlink:href="#md660e478d0" x="385.369917" y="215.897516" style="fill: #1f77b4; stroke: #1f77b4"/>
     <use xlink:href="#md660e478d0" x="300.107107" y="125.034427" style="fill: #1f77b4; stroke: #1f77b4"/>
     <use xlink:href="#md660e478d0" x="316.503802" y="153.57152" style="fill: #1f77b4; stroke: #1f77b4"/>
     <use xlink:href="#md660e478d0" x="352.576529" y="230.133581" style="fill: #1f77b4; stroke: #1f77b4"/>
     <use xlink:href="#md660e478d0" x="113.184793" y="99.497175" style="fill: #1f77b4; stroke: #1f77b4"/>
     <use xlink:href="#md660e478d0" x="375.531901" y="215.568677" style="fill: #1f77b4; stroke: #1f77b4"/>
     <use xlink:href="#md660e478d0" x="93.50876" y="82.989124" style="fill: #1f77b4; stroke: #1f77b4"/>
     <use xlink:href="#md660e478d0" x="73.832727" y="157.105197" style="fill: #1f77b4; stroke: #1f77b4"/>
     <use xlink:href="#md660e478d0" x="165.654215" y="210.940592" style="fill: #1f77b4; stroke: #1f77b4"/>
     <use xlink:href="#md660e478d0" x="398.487273" y="200.023583" style="fill: #1f77b4; stroke: #1f77b4"/>
     <use xlink:href="#md660e478d0" x="182.050909" y="235.618889" style="fill: #1f77b4; stroke: #1f77b4"/>
     <use xlink:href="#md660e478d0" x="90.229421" y="133.208395" style="fill: #1f77b4; stroke: #1f77b4"/>
     <use xlink:href="#md660e478d0" x="96.788099" y="122.390173" style="fill: #1f77b4; stroke: #1f77b4"/>
     <use xlink:href="#md660e478d0" x="132.860826" y="175.904193" style="fill: #1f77b4; stroke: #1f77b4"/>
     <use xlink:href="#md660e478d0" x="237.799669" y="157.60209" style="fill: #1f77b4; stroke: #1f77b4"/>
     <use xlink:href="#md660e478d0" x="139.419504" y="196.270932" style="fill: #1f77b4; stroke: #1f77b4"/>
     <use xlink:href="#md660e478d0" x="391.928595" y="229.971063" style="fill: #1f77b4; stroke: #1f77b4"/>
     <use xlink:href="#md660e478d0" x="205.006281" y="221.789781" style="fill: #1f77b4; stroke: #1f77b4"/>
     <use xlink:href="#md660e478d0" x="244.358347" y="131.69485" style="fill: #1f77b4; stroke: #1f77b4"/>
     <use xlink:href="#md660e478d0" x="136.140165" y="144.613708" style="fill: #1f77b4; stroke: #1f77b4"/>
     <use xlink:href="#md660e478d0" x="77.112066" y="160.135979" style="fill: #1f77b4; stroke: #1f77b4"/>
     <use xlink:href="#md660e478d0" x="260.755041" y="133.514487" style="fill: #1f77b4; stroke: #1f77b4"/>
     <use xlink:href="#md660e478d0" x="100.067438" y="101.283336" style="fill: #1f77b4; stroke: #1f77b4"/>
     <use xlink:href="#md660e478d0" x="254.196364" y="137.747725" style="fill: #1f77b4; stroke: #1f77b4"/>
     <use xlink:href="#md660e478d0" x="149.257521" y="168.760339" style="fill: #1f77b4; stroke: #1f77b4"/>
     <use xlink:href="#md660e478d0" x="286.989752" y="98.057766" style="fill: #1f77b4; stroke: #1f77b4"/>
     <use xlink:href="#md660e478d0" x="188.609587" y="256.19162" style="fill: #1f77b4; stroke: #1f77b4"/>
     <use xlink:href="#md660e478d0" x="362.414545" y="269.896148" style="fill: #1f77b4; stroke: #1f77b4"/>
     <use xlink:href="#md660e478d0" x="218.123636" y="235.979652" style="fill: #1f77b4; stroke: #1f77b4"/>
     <use xlink:href="#md660e478d0" x="349.29719" y="247.916243" style="fill: #1f77b4; stroke: #1f77b4"/>
     <use xlink:href="#md660e478d0" x="293.54843" y="102.801989" style="fill: #1f77b4; stroke: #1f77b4"/>
     <use xlink:href="#md660e478d0" x="257.475702" y="127.932783" style="fill: #1f77b4; stroke: #1f77b4"/>
     <use xlink:href="#md660e478d0" x="159.095537" y="181.941926" style="fill: #1f77b4; stroke: #1f77b4"/>
     <use xlink:href="#md660e478d0" x="162.374876" y="156.210402" style="fill: #1f77b4; stroke: #1f77b4"/>
     <use xlink:href="#md660e478d0" x="168.933554" y="203.180598" style="fill: #1f77b4; stroke: #1f77b4"/>
     <use xlink:href="#md660e478d0" x="119.743471" y="107.155004" style="fill: #1f77b4; stroke: #1f77b4"/>
     <use xlink:href="#md660e478d0" x="83.670744" y="172.061072" style="fill: #1f77b4; stroke: #1f77b4"/>
     <use xlink:href="#md660e478d0" x="103.346777" y="89.068798" style="fill: #1f77b4; stroke: #1f77b4"/>
     <use xlink:href="#md660e478d0" x="211.564959" y="212.586785" style="fill: #1f77b4; stroke: #1f77b4"/>
     <use xlink:href="#md660e478d0" x="198.447603" y="237.85221" style="fill: #1f77b4; stroke: #1f77b4"/>
     <use xlink:href="#md660e478d0" x="264.03438" y="127.166264" style="fill: #1f77b4; stroke: #1f77b4"/>
     <use xlink:href="#md660e478d0" x="86.950083" y="137.602482" style="fill: #1f77b4; stroke: #1f77b4"/>
     <use xlink:href="#md660e478d0" x="267.313719" y="118.37982" style="fill: #1f77b4; stroke: #1f77b4"/>
     <use xlink:href="#md660e478d0" x="346.017851" y="214.55558" style="fill: #1f77b4; stroke: #1f77b4"/>
     <use xlink:href="#md660e478d0" x="395.207934" y="182.716494" style="fill: #1f77b4; stroke: #1f77b4"/>
     <use xlink:href="#md660e478d0" x="290.269091" y="123.17099" style="fill: #1f77b4; stroke: #1f77b4"/>
     <use xlink:href="#md660e478d0" x="323.062479" y="182.33405" style="fill: #1f77b4; stroke: #1f77b4"/>
     <use xlink:href="#md660e478d0" x="332.900496" y="193.201291" style="fill: #1f77b4; stroke: #1f77b4"/>
     <use xlink:href="#md660e478d0" x="277.151736" y="126.057325" style="fill: #1f77b4; stroke: #1f77b4"/>
     <use xlink:href="#md660e478d0" x="145.978182" y="159.03185" style="fill: #1f77b4; stroke: #1f77b4"/>
     <use xlink:href="#md660e478d0" x="388.649256" y="223.393899" style="fill: #1f77b4; stroke: #1f77b4"/>
     <use xlink:href="#md660e478d0" x="273.872397" y="112.447056" style="fill: #1f77b4; stroke: #1f77b4"/>
     <use xlink:href="#md660e478d0" x="195.168264" y="210.535541" style="fill: #1f77b4; stroke: #1f77b4"/>
     <use xlink:href="#md660e478d0" x="185.330248" y="260.849148" style="fill: #1f77b4; stroke: #1f77b4"/>
     <use xlink:href="#md660e478d0" x="382.090579" y="221.218813" style="fill: #1f77b4; stroke: #1f77b4"/>
     <use xlink:href="#md660e478d0" x="234.520331" y="183.399432" style="fill: #1f77b4; stroke: #1f77b4"/>
     <use xlink:href="#md660e478d0" x="280.431074" y="99.910825" style="fill: #1f77b4; stroke: #1f77b4"/>
     <use xlink:href="#md660e478d0" x="319.78314" y="174.974531" style="fill: #1f77b4; stroke: #1f77b4"/>
     <use xlink:href="#md660e478d0" x="329.621157" y="229.349356" style="fill: #1f77b4; stroke: #1f77b4"/>
     <use xlink:href="#md660e478d0" x="201.726942" y="234.855895" style="fill: #1f77b4; stroke: #1f77b4"/>
     <use xlink:href="#md660e478d0" x="309.945124" y="150.224474" style="fill: #1f77b4; stroke: #1f77b4"/>
     <use xlink:href="#md660e478d0" x="126.302149" y="118.045057" style="fill: #1f77b4; stroke: #1f77b4"/>
     <use xlink:href="#md660e478d0" x="372.252562" y="217.983333" style="fill: #1f77b4; stroke: #1f77b4"/>
     <use xlink:href="#md660e478d0" x="109.905455" y="79.923556" style="fill: #1f77b4; stroke: #1f77b4"/>
     <use xlink:href="#md660e478d0" x="208.28562" y="229.348147" style="fill: #1f77b4; stroke: #1f77b4"/>
     <use xlink:href="#md660e478d0" x="283.710413" y="128.526735" style="fill: #1f77b4; stroke: #1f77b4"/>
     <use xlink:href="#md660e478d0" x="116.464132" y="91.80245" style="fill: #1f77b4; stroke: #1f77b4"/>
     <use xlink:href="#md660e478d0" x="365.693884" y="240.268874" style="fill: #1f77b4; stroke: #1f77b4"/>
     <use xlink:href="#md660e478d0" x="172.212893" y="214.400929" style="fill: #1f77b4; stroke: #1f77b4"/>
    </g>
   </g>
   <g id="matplotlib.axis_1">
    <g id="xtick_1">
     <g id="line2d_1">
      <defs>
       <path id="m713a7d2e7e" d="M 0 0 
L 0 3.5 
" style="stroke: #000000; stroke-width: 0.8"/>
      </defs>
      <g>
       <use xlink:href="#m713a7d2e7e" x="81.148873" y="307.584" style="stroke: #000000; stroke-width: 0.8"/>
      </g>
     </g>
     <g id="text_1">
      <!-- −6 -->
      <g transform="translate(75.829342 321.52775) scale(0.1 -0.1)">
       <defs>
        <path id="TimesNewRomanPSMT-2212" d="M 3484 2000 
L 116 2000 
L 116 2256 
L 3484 2256 
L 3484 2000 
z
" transform="scale(0.015625)"/>
        <path id="TimesNewRomanPSMT-36" d="M 2869 4325 
L 2869 4209 
Q 2456 4169 2195 4045 
Q 1934 3922 1679 3669 
Q 1425 3416 1258 3105 
Q 1091 2794 978 2366 
Q 1428 2675 1881 2675 
Q 2316 2675 2634 2325 
Q 2953 1975 2953 1425 
Q 2953 894 2631 456 
Q 2244 -75 1606 -75 
Q 1172 -75 869 213 
Q 275 772 275 1663 
Q 275 2231 503 2743 
Q 731 3256 1154 3653 
Q 1578 4050 1965 4187 
Q 2353 4325 2688 4325 
L 2869 4325 
z
M 925 2138 
Q 869 1716 869 1456 
Q 869 1156 980 804 
Q 1091 453 1309 247 
Q 1469 100 1697 100 
Q 1969 100 2183 356 
Q 2397 613 2397 1088 
Q 2397 1622 2184 2012 
Q 1972 2403 1581 2403 
Q 1463 2403 1327 2353 
Q 1191 2303 925 2138 
z
" transform="scale(0.015625)"/>
       </defs>
       <use xlink:href="#TimesNewRomanPSMT-2212"/>
       <use xlink:href="#TimesNewRomanPSMT-36" transform="translate(56.396484 0)"/>
      </g>
     </g>
    </g>
    <g id="xtick_2">
     <g id="line2d_2">
      <g>
       <use xlink:href="#m713a7d2e7e" x="132.819249" y="307.584" style="stroke: #000000; stroke-width: 0.8"/>
      </g>
     </g>
     <g id="text_2">
      <!-- −4 -->
      <g transform="translate(127.499717 321.52775) scale(0.1 -0.1)">
       <defs>
        <path id="TimesNewRomanPSMT-34" d="M 2978 1563 
L 2978 1119 
L 2409 1119 
L 2409 0 
L 1894 0 
L 1894 1119 
L 100 1119 
L 100 1519 
L 2066 4325 
L 2409 4325 
L 2409 1563 
L 2978 1563 
z
M 1894 1563 
L 1894 3666 
L 406 1563 
L 1894 1563 
z
" transform="scale(0.015625)"/>
       </defs>
       <use xlink:href="#TimesNewRomanPSMT-2212"/>
       <use xlink:href="#TimesNewRomanPSMT-34" transform="translate(56.396484 0)"/>
      </g>
     </g>
    </g>
    <g id="xtick_3">
     <g id="line2d_3">
      <g>
       <use xlink:href="#m713a7d2e7e" x="184.489624" y="307.584" style="stroke: #000000; stroke-width: 0.8"/>
      </g>
     </g>
     <g id="text_3">
      <!-- −2 -->
      <g transform="translate(179.170093 321.52775) scale(0.1 -0.1)">
       <defs>
        <path id="TimesNewRomanPSMT-32" d="M 2934 816 
L 2638 0 
L 138 0 
L 138 116 
Q 1241 1122 1691 1759 
Q 2141 2397 2141 2925 
Q 2141 3328 1894 3587 
Q 1647 3847 1303 3847 
Q 991 3847 742 3664 
Q 494 3481 375 3128 
L 259 3128 
Q 338 3706 661 4015 
Q 984 4325 1469 4325 
Q 1984 4325 2329 3994 
Q 2675 3663 2675 3213 
Q 2675 2891 2525 2569 
Q 2294 2063 1775 1497 
Q 997 647 803 472 
L 1909 472 
Q 2247 472 2383 497 
Q 2519 522 2628 598 
Q 2738 675 2819 816 
L 2934 816 
z
" transform="scale(0.015625)"/>
       </defs>
       <use xlink:href="#TimesNewRomanPSMT-2212"/>
       <use xlink:href="#TimesNewRomanPSMT-32" transform="translate(56.396484 0)"/>
      </g>
     </g>
    </g>
    <g id="xtick_4">
     <g id="line2d_4">
      <g>
       <use xlink:href="#m713a7d2e7e" x="236.16" y="307.584" style="stroke: #000000; stroke-width: 0.8"/>
      </g>
     </g>
     <g id="text_4">
      <!-- 0 -->
      <g transform="translate(233.66 321.52775) scale(0.1 -0.1)">
       <defs>
        <path id="TimesNewRomanPSMT-30" d="M 231 2094 
Q 231 2819 450 3342 
Q 669 3866 1031 4122 
Q 1313 4325 1613 4325 
Q 2100 4325 2488 3828 
Q 2972 3213 2972 2159 
Q 2972 1422 2759 906 
Q 2547 391 2217 158 
Q 1888 -75 1581 -75 
Q 975 -75 572 641 
Q 231 1244 231 2094 
z
M 844 2016 
Q 844 1141 1059 588 
Q 1238 122 1591 122 
Q 1759 122 1940 273 
Q 2122 425 2216 781 
Q 2359 1319 2359 2297 
Q 2359 3022 2209 3506 
Q 2097 3866 1919 4016 
Q 1791 4119 1609 4119 
Q 1397 4119 1231 3928 
Q 1006 3669 925 3112 
Q 844 2556 844 2016 
z
" transform="scale(0.015625)"/>
       </defs>
       <use xlink:href="#TimesNewRomanPSMT-30"/>
      </g>
     </g>
    </g>
    <g id="xtick_5">
     <g id="line2d_5">
      <g>
       <use xlink:href="#m713a7d2e7e" x="287.830376" y="307.584" style="stroke: #000000; stroke-width: 0.8"/>
      </g>
     </g>
     <g id="text_5">
      <!-- 2 -->
      <g transform="translate(285.330376 321.52775) scale(0.1 -0.1)">
       <use xlink:href="#TimesNewRomanPSMT-32"/>
      </g>
     </g>
    </g>
    <g id="xtick_6">
     <g id="line2d_6">
      <g>
       <use xlink:href="#m713a7d2e7e" x="339.500751" y="307.584" style="stroke: #000000; stroke-width: 0.8"/>
      </g>
     </g>
     <g id="text_6">
      <!-- 4 -->
      <g transform="translate(337.000751 321.52775) scale(0.1 -0.1)">
       <use xlink:href="#TimesNewRomanPSMT-34"/>
      </g>
     </g>
    </g>
    <g id="xtick_7">
     <g id="line2d_7">
      <g>
       <use xlink:href="#m713a7d2e7e" x="391.171127" y="307.584" style="stroke: #000000; stroke-width: 0.8"/>
      </g>
     </g>
     <g id="text_7">
      <!-- 6 -->
      <g transform="translate(388.671127 321.52775) scale(0.1 -0.1)">
       <use xlink:href="#TimesNewRomanPSMT-36"/>
      </g>
     </g>
    </g>
   </g>
   <g id="matplotlib.axis_2">
    <g id="ytick_1">
     <g id="line2d_8">
      <defs>
       <path id="mb62abfadce" d="M 0 0 
L -3.5 0 
" style="stroke: #000000; stroke-width: 0.8"/>
      </defs>
      <g>
       <use xlink:href="#mb62abfadce" x="57.6" y="307.584" style="stroke: #000000; stroke-width: 0.8"/>
      </g>
     </g>
     <g id="text_8">
      <!-- −2.0 -->
      <g transform="translate(32.460938 311.055875) scale(0.1 -0.1)">
       <defs>
        <path id="TimesNewRomanPSMT-2e" d="M 800 606 
Q 947 606 1047 504 
Q 1147 403 1147 259 
Q 1147 116 1045 14 
Q 944 -88 800 -88 
Q 656 -88 554 14 
Q 453 116 453 259 
Q 453 406 554 506 
Q 656 606 800 606 
z
" transform="scale(0.015625)"/>
       </defs>
       <use xlink:href="#TimesNewRomanPSMT-2212"/>
       <use xlink:href="#TimesNewRomanPSMT-32" transform="translate(56.396484 0)"/>
       <use xlink:href="#TimesNewRomanPSMT-2e" transform="translate(106.396484 0)"/>
       <use xlink:href="#TimesNewRomanPSMT-30" transform="translate(131.396484 0)"/>
      </g>
     </g>
    </g>
    <g id="ytick_2">
     <g id="line2d_9">
      <g>
       <use xlink:href="#mb62abfadce" x="57.6" y="274.32" style="stroke: #000000; stroke-width: 0.8"/>
      </g>
     </g>
     <g id="text_9">
      <!-- −1.5 -->
      <g transform="translate(32.460938 277.791875) scale(0.1 -0.1)">
       <defs>
        <path id="TimesNewRomanPSMT-31" d="M 750 3822 
L 1781 4325 
L 1884 4325 
L 1884 747 
Q 1884 391 1914 303 
Q 1944 216 2037 169 
Q 2131 122 2419 116 
L 2419 0 
L 825 0 
L 825 116 
Q 1125 122 1212 167 
Q 1300 213 1334 289 
Q 1369 366 1369 747 
L 1369 3034 
Q 1369 3497 1338 3628 
Q 1316 3728 1258 3775 
Q 1200 3822 1119 3822 
Q 1003 3822 797 3725 
L 750 3822 
z
" transform="scale(0.015625)"/>
        <path id="TimesNewRomanPSMT-35" d="M 2778 4238 
L 2534 3706 
L 1259 3706 
L 981 3138 
Q 1809 3016 2294 2522 
Q 2709 2097 2709 1522 
Q 2709 1188 2573 903 
Q 2438 619 2231 419 
Q 2025 219 1772 97 
Q 1413 -75 1034 -75 
Q 653 -75 479 54 
Q 306 184 306 341 
Q 306 428 378 495 
Q 450 563 559 563 
Q 641 563 702 538 
Q 763 513 909 409 
Q 1144 247 1384 247 
Q 1750 247 2026 523 
Q 2303 800 2303 1197 
Q 2303 1581 2056 1914 
Q 1809 2247 1375 2428 
Q 1034 2569 447 2591 
L 1259 4238 
L 2778 4238 
z
" transform="scale(0.015625)"/>
       </defs>
       <use xlink:href="#TimesNewRomanPSMT-2212"/>
       <use xlink:href="#TimesNewRomanPSMT-31" transform="translate(56.396484 0)"/>
       <use xlink:href="#TimesNewRomanPSMT-2e" transform="translate(106.396484 0)"/>
       <use xlink:href="#TimesNewRomanPSMT-35" transform="translate(131.396484 0)"/>
      </g>
     </g>
    </g>
    <g id="ytick_3">
     <g id="line2d_10">
      <g>
       <use xlink:href="#mb62abfadce" x="57.6" y="241.056" style="stroke: #000000; stroke-width: 0.8"/>
      </g>
     </g>
     <g id="text_10">
      <!-- −1.0 -->
      <g transform="translate(32.460938 244.527875) scale(0.1 -0.1)">
       <use xlink:href="#TimesNewRomanPSMT-2212"/>
       <use xlink:href="#TimesNewRomanPSMT-31" transform="translate(56.396484 0)"/>
       <use xlink:href="#TimesNewRomanPSMT-2e" transform="translate(106.396484 0)"/>
       <use xlink:href="#TimesNewRomanPSMT-30" transform="translate(131.396484 0)"/>
      </g>
     </g>
    </g>
    <g id="ytick_4">
     <g id="line2d_11">
      <g>
       <use xlink:href="#mb62abfadce" x="57.6" y="207.792" style="stroke: #000000; stroke-width: 0.8"/>
      </g>
     </g>
     <g id="text_11">
      <!-- −0.5 -->
      <g transform="translate(32.460938 211.263875) scale(0.1 -0.1)">
       <use xlink:href="#TimesNewRomanPSMT-2212"/>
       <use xlink:href="#TimesNewRomanPSMT-30" transform="translate(56.396484 0)"/>
       <use xlink:href="#TimesNewRomanPSMT-2e" transform="translate(106.396484 0)"/>
       <use xlink:href="#TimesNewRomanPSMT-35" transform="translate(131.396484 0)"/>
      </g>
     </g>
    </g>
    <g id="ytick_5">
     <g id="line2d_12">
      <g>
       <use xlink:href="#mb62abfadce" x="57.6" y="174.528" style="stroke: #000000; stroke-width: 0.8"/>
      </g>
     </g>
     <g id="text_12">
      <!-- 0.0 -->
      <g transform="translate(38.1 177.999875) scale(0.1 -0.1)">
       <use xlink:href="#TimesNewRomanPSMT-30"/>
       <use xlink:href="#TimesNewRomanPSMT-2e" transform="translate(50 0)"/>
       <use xlink:href="#TimesNewRomanPSMT-30" transform="translate(75 0)"/>
      </g>
     </g>
    </g>
    <g id="ytick_6">
     <g id="line2d_13">
      <g>
       <use xlink:href="#mb62abfadce" x="57.6" y="141.264" style="stroke: #000000; stroke-width: 0.8"/>
      </g>
     </g>
     <g id="text_13">
      <!-- 0.5 -->
      <g transform="translate(38.1 144.735875) scale(0.1 -0.1)">
       <use xlink:href="#TimesNewRomanPSMT-30"/>
       <use xlink:href="#TimesNewRomanPSMT-2e" transform="translate(50 0)"/>
       <use xlink:href="#TimesNewRomanPSMT-35" transform="translate(75 0)"/>
      </g>
     </g>
    </g>
    <g id="ytick_7">
     <g id="line2d_14">
      <g>
       <use xlink:href="#mb62abfadce" x="57.6" y="108" style="stroke: #000000; stroke-width: 0.8"/>
      </g>
     </g>
     <g id="text_14">
      <!-- 1.0 -->
      <g transform="translate(38.1 111.471875) scale(0.1 -0.1)">
       <use xlink:href="#TimesNewRomanPSMT-31"/>
       <use xlink:href="#TimesNewRomanPSMT-2e" transform="translate(50 0)"/>
       <use xlink:href="#TimesNewRomanPSMT-30" transform="translate(75 0)"/>
      </g>
     </g>
    </g>
    <g id="ytick_8">
     <g id="line2d_15">
      <g>
       <use xlink:href="#mb62abfadce" x="57.6" y="74.736" style="stroke: #000000; stroke-width: 0.8"/>
      </g>
     </g>
     <g id="text_15">
      <!-- 1.5 -->
      <g transform="translate(38.1 78.207875) scale(0.1 -0.1)">
       <use xlink:href="#TimesNewRomanPSMT-31"/>
       <use xlink:href="#TimesNewRomanPSMT-2e" transform="translate(50 0)"/>
       <use xlink:href="#TimesNewRomanPSMT-35" transform="translate(75 0)"/>
      </g>
     </g>
    </g>
    <g id="ytick_9">
     <g id="line2d_16">
      <g>
       <use xlink:href="#mb62abfadce" x="57.6" y="41.472" style="stroke: #000000; stroke-width: 0.8"/>
      </g>
     </g>
     <g id="text_16">
      <!-- 2.0 -->
      <g transform="translate(38.1 44.943875) scale(0.1 -0.1)">
       <use xlink:href="#TimesNewRomanPSMT-32"/>
       <use xlink:href="#TimesNewRomanPSMT-2e" transform="translate(50 0)"/>
       <use xlink:href="#TimesNewRomanPSMT-30" transform="translate(75 0)"/>
      </g>
     </g>
    </g>
   </g>
   <g id="line2d_17">
    <path d="M 73.832727 88.811489 
L 78.057461 98.05292 
L 82.282195 106.741497 
L 86.506929 114.891847 
L 90.406683 121.950179 
L 94.306437 128.573869 
L 98.206192 134.774422 
L 102.105946 140.563342 
L 106.0057 145.952133 
L 109.905455 150.952298 
L 113.805209 155.575343 
L 117.704963 159.83277 
L 121.604717 163.736084 
L 125.179492 167.012869 
L 128.754267 170.010629 
L 132.329042 172.738223 
L 135.903817 175.204515 
L 139.478591 177.418363 
L 143.053366 179.388631 
L 146.628141 181.124178 
L 150.527895 182.760217 
L 154.427649 184.138968 
L 158.327404 185.271937 
L 162.227158 186.170626 
L 166.126912 186.846541 
L 170.351646 187.340729 
L 174.57638 187.601593 
L 178.801114 187.643761 
L 183.350827 187.46137 
L 187.900541 187.060574 
L 192.775233 186.409541 
L 197.974906 185.487186 
L 203.499558 184.279274 
L 209.674169 182.690842 
L 216.498739 180.695545 
L 224.623227 178.075023 
L 235.99751 174.147333 
L 253.221425 168.209331 
L 261.345913 165.656914 
L 268.170483 163.742113 
L 274.345094 162.244833 
L 279.869746 161.133232 
L 285.069419 160.314252 
L 289.944111 159.771342 
L 294.493825 159.481249 
L 299.043538 159.419012 
L 303.268272 159.581213 
L 307.493006 159.970259 
L 311.39276 160.54337 
L 315.292514 161.333736 
L 319.192269 162.352861 
L 323.092023 163.61225 
L 326.991777 165.123406 
L 330.566552 166.739629 
L 334.141327 168.585934 
L 337.716102 170.671182 
L 341.290876 173.004235 
L 344.865651 175.593953 
L 348.440426 178.449198 
L 352.015201 181.57883 
L 355.589975 184.991711 
L 359.16475 188.696701 
L 362.739525 192.702663 
L 366.3143 197.018456 
L 370.214054 202.090367 
L 374.113808 207.553054 
L 378.013563 213.41802 
L 381.913317 219.696769 
L 385.813071 226.400805 
L 389.712826 233.541631 
L 393.61258 241.130754 
L 397.512334 249.179675 
L 398.487273 251.265097 
L 398.487273 251.265097 
" clip-path="url(#pe294dc9bf5)" style="fill: none; stroke: #1f77b4; stroke-width: 1.5; stroke-linecap: square"/>
   </g>
   <g id="line2d_18">
    <path d="M 73.832727 192.459577 
L 75.782604 177.617863 
L 77.732482 164.284718 
L 79.682359 152.382444 
L 81.632236 141.835519 
L 83.582113 132.570565 
L 85.53199 124.516327 
L 87.156888 118.679357 
L 88.781785 113.59617 
L 90.406683 109.228827 
L 92.031581 105.540363 
L 93.331499 103.054161 
L 94.631417 100.961393 
L 95.931335 99.244453 
L 97.231253 97.886121 
L 98.531171 96.869557 
L 99.831089 96.178297 
L 101.131007 95.796251 
L 102.430925 95.707698 
L 103.730844 95.897283 
L 105.030762 96.350015 
L 106.33068 97.051261 
L 107.630598 97.986745 
L 109.255495 99.464314 
L 110.880393 101.259715 
L 112.83027 103.79776 
L 114.780147 106.714028 
L 117.055004 110.539828 
L 119.65484 115.394761 
L 122.579656 121.367107 
L 126.154431 129.236082 
L 130.704144 139.863874 
L 147.2781 179.186742 
L 151.177854 187.604793 
L 154.752629 194.797776 
L 158.002424 200.834427 
L 160.92724 205.815864 
L 163.852056 210.338138 
L 166.451892 213.952249 
L 169.051728 217.169735 
L 171.326585 219.650894 
L 173.601441 221.814279 
L 175.876298 223.65596 
L 177.826175 224.976687 
L 179.776052 226.058759 
L 181.72593 226.902417 
L 183.675807 227.508679 
L 185.625684 227.879314 
L 187.575561 228.016816 
L 189.525438 227.924375 
L 191.475315 227.605854 
L 193.425192 227.06576 
L 195.37507 226.309216 
L 197.649926 225.160672 
L 199.924783 223.735363 
L 202.19964 222.044318 
L 204.799476 219.801692 
L 207.399312 217.246879 
L 210.324128 214.025277 
L 213.248943 210.465957 
L 216.498739 206.155359 
L 220.073514 201.036358 
L 224.298247 194.565482 
L 229.17294 186.674458 
L 236.647469 174.092213 
L 245.746896 158.85166 
L 250.621589 151.111784 
L 254.846323 144.825483 
L 258.421097 139.900125 
L 261.670893 135.794137 
L 264.595708 132.441189 
L 267.195545 129.760142 
L 269.795381 127.383003 
L 272.395217 125.32969 
L 274.670074 123.813247 
L 276.94493 122.570324 
L 278.894808 121.73061 
L 280.844685 121.105529 
L 282.794562 120.700489 
L 284.744439 120.520293 
L 286.694316 120.569112 
L 288.644193 120.850457 
L 290.59407 121.367156 
L 292.543948 122.121324 
L 294.493825 123.114337 
L 296.443702 124.346809 
L 298.393579 125.818558 
L 300.668436 127.836639 
L 302.943292 130.175965 
L 305.218149 132.83187 
L 307.817985 136.246613 
L 310.417821 140.054231 
L 313.017658 144.239383 
L 315.942473 149.375744 
L 319.192269 155.577219 
L 322.767043 162.940489 
L 326.666798 171.528231 
L 331.216511 182.119074 
L 338.041081 198.668739 
L 345.84059 217.459735 
L 349.740344 226.303675 
L 352.990139 233.154365 
L 355.589975 238.181808 
L 358.189812 242.712811 
L 360.464668 246.198063 
L 362.414545 248.77785 
L 364.039443 250.607778 
L 365.664341 252.119612 
L 367.289238 253.286892 
L 368.589156 253.954315 
L 369.889075 254.36938 
L 371.188993 254.517354 
L 372.488911 254.383138 
L 373.788829 253.951273 
L 375.088747 253.205931 
L 376.388665 252.130914 
L 377.688583 250.70965 
L 378.988501 248.925187 
L 380.288419 246.760195 
L 381.588337 244.196958 
L 382.888256 241.21737 
L 384.513153 236.879176 
L 386.138051 231.824511 
L 387.762948 226.015401 
L 389.387846 219.412891 
L 391.012744 211.977023 
L 392.962621 201.896204 
L 394.912498 190.483587 
L 396.862375 177.664311 
L 398.487273 165.851544 
L 398.487273 165.851544 
" clip-path="url(#pe294dc9bf5)" style="fill: none; stroke: #ff7f0e; stroke-width: 1.5; stroke-linecap: square"/>
   </g>
   <g id="line2d_19">
    <path d="M 73.832727 163.871078 
L 74.482686 164.205341 
L 75.132645 164.236109 
L 75.782604 163.988657 
L 76.432563 163.487025 
L 77.082523 162.754066 
L 78.057461 161.268066 
L 79.0324 159.378786 
L 80.332318 156.341151 
L 81.957215 151.899776 
L 84.232072 144.890173 
L 92.35656 118.979339 
L 94.631417 112.823882 
L 96.581294 108.214034 
L 98.206192 104.893509 
L 99.831089 102.073436 
L 101.131007 100.187707 
L 102.430925 98.634971 
L 103.730844 97.415354 
L 105.030762 96.526198 
L 106.33068 95.96241 
L 107.305618 95.748831 
L 108.280557 95.710541 
L 109.255495 95.843318 
L 110.555414 96.278338 
L 111.855332 96.99704 
L 113.15525 97.98633 
L 114.455168 99.232326 
L 116.080066 101.128703 
L 117.704963 103.374311 
L 119.65484 106.488021 
L 121.604717 110.009794 
L 123.879574 114.565619 
L 126.47941 120.264264 
L 129.729206 127.959275 
L 133.953939 138.596178 
L 149.227977 177.657357 
L 153.127731 186.766754 
L 156.702506 194.570735 
L 159.952301 201.153286 
L 162.877117 206.627049 
L 165.801933 211.65055 
L 168.726749 216.205664 
L 171.326585 219.849404 
L 173.926421 223.102573 
L 176.201278 225.62271 
L 178.476134 227.83344 
L 180.750991 229.730611 
L 183.025848 231.310387 
L 184.975725 232.409166 
L 186.925602 233.270085 
L 188.875479 233.891251 
L 190.825356 234.270968 
L 192.775233 234.407777 
L 194.725111 234.300499 
L 196.674988 233.948294 
L 198.624865 233.350719 
L 200.574742 232.507799 
L 202.524619 231.420096 
L 204.474496 230.088786 
L 206.424373 228.515733 
L 208.69923 226.378517 
L 210.974087 223.921494 
L 213.248943 221.151993 
L 215.84878 217.616084 
L 218.448616 213.700966 
L 221.373432 208.868804 
L 224.298247 203.61752 
L 227.548043 197.3413 
L 231.447797 189.286553 
L 235.99751 179.335205 
L 243.14706 163.057198 
L 250.296609 146.950695 
L 254.521343 137.993167 
L 257.771138 131.583661 
L 260.695954 126.276245 
L 263.29579 121.992617 
L 265.570647 118.623693 
L 267.845504 115.644304 
L 269.795381 113.424569 
L 271.745258 111.532538 
L 273.695135 109.984841 
L 275.320033 108.968863 
L 276.94493 108.209827 
L 278.569828 107.714213 
L 280.194726 107.487408 
L 281.819623 107.533654 
L 283.444521 107.85599 
L 285.069419 108.45621 
L 286.694316 109.334819 
L 288.319214 110.490996 
L 289.944111 111.92257 
L 291.569009 113.625991 
L 293.518886 116.021885 
L 295.468763 118.790867 
L 297.41864 121.918857 
L 299.693497 125.999168 
L 301.968354 130.513245 
L 304.56819 136.156013 
L 307.493006 143.045882 
L 311.067781 152.103767 
L 315.617494 164.339076 
L 327.966716 197.97827 
L 331.541491 206.835289 
L 334.466306 213.499168 
L 337.066143 218.891995 
L 339.340999 223.149454 
L 341.615856 226.939639 
L 343.565733 229.795317 
L 345.51561 232.274506 
L 347.465487 234.368986 
L 349.090385 235.817877 
L 350.715283 236.997733 
L 352.34018 237.911563 
L 353.965078 238.564777 
L 355.589975 238.96515 
L 357.214873 239.122755 
L 358.839771 239.049846 
L 360.464668 238.760697 
L 362.089566 238.271395 
L 364.039443 237.444944 
L 365.98932 236.388427 
L 368.264177 234.910723 
L 370.864013 232.965504 
L 374.438788 229.977891 
L 378.988501 225.863418 
L 383.538215 221.464511 
L 386.46303 218.339702 
L 388.737887 215.578486 
L 390.687764 212.834826 
L 392.312662 210.165927 
L 393.937559 207.028847 
L 395.237477 204.089924 
L 396.537396 200.679834 
L 397.837314 196.702841 
L 398.487273 194.468198 
L 398.487273 194.468198 
" clip-path="url(#pe294dc9bf5)" style="fill: none; stroke: #2ca02c; stroke-width: 1.5; stroke-linecap: square"/>
   </g>
   <g id="line2d_20">
    <path d="M 73.832727 155.422196 
L 74.157707 155.382319 
L 74.482686 155.788401 
L 75.132645 157.54448 
L 76.107584 161.374234 
L 77.407502 166.463207 
L 78.057461 168.407138 
L 78.70742 169.762908 
L 79.357379 170.470368 
L 79.682359 170.575204 
L 80.007338 170.515704 
L 80.332318 170.295383 
L 80.982277 169.393554 
L 81.632236 167.923163 
L 82.282195 165.950299 
L 83.257133 162.20924 
L 84.557052 156.154295 
L 86.831908 144.140717 
L 89.756724 128.977301 
L 91.706601 120.141777 
L 93.331499 113.743442 
L 94.956396 108.183553 
L 96.581294 103.36685 
L 98.206192 99.19074 
L 99.831089 95.576472 
L 101.455987 92.485599 
L 103.080885 89.924051 
L 104.380803 88.285161 
L 105.680721 87.049831 
L 106.655659 86.414015 
L 107.630598 86.048444 
L 108.605536 85.971434 
L 109.580475 86.199501 
L 110.555414 86.74637 
L 111.530352 87.622129 
L 112.505291 88.832549 
L 113.480229 90.37858 
L 114.780147 92.954012 
L 116.080066 96.093477 
L 117.704963 100.747112 
L 119.329861 106.103815 
L 121.604717 114.504565 
L 125.504472 130.076018 
L 128.754267 142.631034 
L 130.704144 149.394298 
L 132.329042 154.397053 
L 133.953939 158.735191 
L 135.578837 162.362765 
L 136.878755 164.745519 
L 138.178673 166.677931 
L 139.478591 168.184761 
L 140.778509 169.302959 
L 142.078428 170.080061 
L 143.378346 170.572349 
L 144.678264 170.842821 
L 146.628141 170.981177 
L 150.527895 171.158673 
L 152.152793 171.531279 
L 153.452711 172.070277 
L 154.752629 172.874157 
L 156.052547 173.980294 
L 157.352465 175.416362 
L 158.652383 177.199859 
L 159.952301 179.337937 
L 161.577199 182.503503 
L 163.202097 186.189954 
L 165.151974 191.22983 
L 167.42683 197.800875 
L 170.676626 207.996975 
L 175.876298 224.336769 
L 178.151155 230.741676 
L 180.101032 235.590832 
L 181.72593 239.084307 
L 183.350827 242.02142 
L 184.650745 243.944601 
L 185.950663 245.475647 
L 187.250581 246.609786 
L 188.22552 247.200769 
L 189.200459 247.572449 
L 190.175397 247.729744 
L 191.150336 247.679279 
L 192.125274 247.429236 
L 193.100213 246.989176 
L 194.400131 246.125601 
L 195.700049 244.971684 
L 197.324947 243.16771 
L 198.949844 241.020701 
L 200.899722 238.081342 
L 203.499558 233.721365 
L 207.724292 226.092964 
L 214.873841 213.201595 
L 227.223063 191.426243 
L 230.472858 184.992959 
L 233.722654 178.031972 
L 237.297428 169.801927 
L 243.14706 155.61306 
L 247.371794 145.608247 
L 250.296609 139.241577 
L 252.571466 134.774638 
L 254.846323 130.823553 
L 256.7962 127.890064 
L 258.746077 125.392826 
L 260.370975 123.644202 
L 261.995872 122.186731 
L 263.62077 121.001302 
L 265.245667 120.061312 
L 267.195545 119.210632 
L 269.145422 118.600187 
L 271.745258 118.037216 
L 280.519705 116.370255 
L 283.7695 115.400076 
L 289.294152 113.691335 
L 291.244029 113.34046 
L 292.868927 113.273289 
L 294.168845 113.416386 
L 295.468763 113.772972 
L 296.768681 114.377698 
L 298.0686 115.263197 
L 299.368518 116.458975 
L 300.668436 117.990323 
L 301.968354 119.877292 
L 303.268272 122.133758 
L 304.89317 125.48372 
L 306.518067 129.417769 
L 308.142965 133.91251 
L 310.092842 139.983177 
L 312.367699 147.851344 
L 315.292514 158.825199 
L 321.792105 183.472158 
L 324.066962 191.108512 
L 326.016839 196.905312 
L 327.641736 201.126995 
L 329.266634 204.763771 
L 330.891532 207.819144 
L 332.516429 210.329203 
L 334.141327 212.361996 
L 335.766224 214.014839 
L 337.716102 215.669504 
L 341.615856 218.848216 
L 343.240753 220.498234 
L 344.865651 222.523684 
L 346.165569 224.473061 
L 347.790467 227.359491 
L 349.415364 230.74097 
L 351.365242 235.359805 
L 357.539853 250.695057 
L 358.839771 253.119304 
L 359.814709 254.525681 
L 360.789648 255.50455 
L 361.439607 255.889028 
L 362.089566 256.039817 
L 362.739525 255.942653 
L 363.389484 255.585641 
L 364.039443 254.959629 
L 364.689402 254.05857 
L 365.664341 252.186607 
L 366.639279 249.698298 
L 367.614218 246.622332 
L 368.914136 241.699456 
L 370.539034 234.503608 
L 375.413726 211.880953 
L 376.388665 208.460912 
L 377.363604 205.822716 
L 378.013563 204.574707 
L 378.663522 203.780183 
L 379.313481 203.468657 
L 379.63846 203.500589 
L 379.96344 203.659765 
L 380.613399 204.361489 
L 381.263358 205.568391 
L 381.913317 207.259932 
L 382.888256 210.619703 
L 384.188174 216.294982 
L 387.112989 229.844856 
L 387.762948 231.984645 
L 388.412907 233.427916 
L 388.737887 233.831301 
L 389.062867 233.992966 
L 389.387846 233.891857 
L 389.712826 233.50826 
L 390.037805 232.824229 
L 390.687764 230.494822 
L 391.337723 226.814817 
L 391.987682 221.759831 
L 392.962621 211.769884 
L 394.262539 195.306246 
L 395.562457 179.376887 
L 396.212416 174.077736 
L 396.537396 172.732373 
L 396.862375 172.570795 
L 397.187355 173.867949 
L 397.512334 176.933603 
L 397.837314 182.115456 
L 398.162293 189.802473 
L 398.487273 200.428431 
L 398.487273 200.428431 
" clip-path="url(#pe294dc9bf5)" style="fill: none; stroke: #d62728; stroke-width: 1.5; stroke-linecap: square"/>
   </g>
   <g id="patch_3">
    <path d="M 57.6 307.584 
L 57.6 41.472 
" style="fill: none; stroke: #000000; stroke-width: 0.8; stroke-linejoin: miter; stroke-linecap: square"/>
   </g>
   <g id="patch_4">
    <path d="M 414.72 307.584 
L 414.72 41.472 
" style="fill: none; stroke: #000000; stroke-width: 0.8; stroke-linejoin: miter; stroke-linecap: square"/>
   </g>
   <g id="patch_5">
    <path d="M 57.6 307.584 
L 414.72 307.584 
" style="fill: none; stroke: #000000; stroke-width: 0.8; stroke-linejoin: miter; stroke-linecap: square"/>
   </g>
   <g id="patch_6">
    <path d="M 57.6 41.472 
L 414.72 41.472 
" style="fill: none; stroke: #000000; stroke-width: 0.8; stroke-linejoin: miter; stroke-linecap: square"/>
   </g>
   <g id="legend_1">
    <g id="patch_7">
     <path d="M 355.080938 106.02825 
L 407.72 106.02825 
Q 409.72 106.02825 409.72 104.02825 
L 409.72 48.472 
Q 409.72 46.472 407.72 46.472 
L 355.080938 46.472 
Q 353.080938 46.472 353.080938 48.472 
L 353.080938 104.02825 
Q 353.080938 106.02825 355.080938 106.02825 
z
" style="fill: #ffffff; opacity: 0.8; stroke: #cccccc; stroke-linejoin: miter"/>
    </g>
    <g id="line2d_21">
     <path d="M 357.080938 53.972 
L 367.080938 53.972 
L 377.080938 53.972 
" style="fill: none; stroke: #1f77b4; stroke-width: 1.5; stroke-linecap: square"/>
    </g>
    <g id="text_17">
     <!-- k=3 -->
     <g transform="translate(385.080938 57.472) scale(0.1 -0.1)">
      <defs>
       <path id="TimesNewRomanPSMT-6b" d="M 1047 4444 
L 1047 1597 
L 1775 2259 
Q 2006 2472 2044 2528 
Q 2069 2566 2069 2603 
Q 2069 2666 2017 2711 
Q 1966 2756 1847 2763 
L 1847 2863 
L 3091 2863 
L 3091 2763 
Q 2834 2756 2664 2684 
Q 2494 2613 2291 2428 
L 1556 1750 
L 2291 822 
Q 2597 438 2703 334 
Q 2853 188 2966 144 
Q 3044 113 3238 113 
L 3238 0 
L 1847 0 
L 1847 113 
Q 1966 116 2008 148 
Q 2050 181 2050 241 
Q 2050 313 1925 472 
L 1047 1594 
L 1047 644 
Q 1047 366 1086 278 
Q 1125 191 1197 153 
Q 1269 116 1509 113 
L 1509 0 
L 53 0 
L 53 113 
Q 272 113 381 166 
Q 447 200 481 272 
Q 528 375 528 628 
L 528 3234 
Q 528 3731 506 3842 
Q 484 3953 434 3995 
Q 384 4038 303 4038 
Q 238 4038 106 3984 
L 53 4094 
L 903 4444 
L 1047 4444 
z
" transform="scale(0.015625)"/>
       <path id="TimesNewRomanPSMT-3d" d="M 116 2759 
L 3488 2759 
L 3488 2503 
L 116 2503 
L 116 2759 
z
M 116 1741 
L 3488 1741 
L 3488 1484 
L 116 1484 
L 116 1741 
z
" transform="scale(0.015625)"/>
       <path id="TimesNewRomanPSMT-33" d="M 325 3431 
Q 506 3859 782 4092 
Q 1059 4325 1472 4325 
Q 1981 4325 2253 3994 
Q 2459 3747 2459 3466 
Q 2459 3003 1878 2509 
Q 2269 2356 2469 2072 
Q 2669 1788 2669 1403 
Q 2669 853 2319 450 
Q 1863 -75 997 -75 
Q 569 -75 414 31 
Q 259 138 259 259 
Q 259 350 332 419 
Q 406 488 509 488 
Q 588 488 669 463 
Q 722 447 909 348 
Q 1097 250 1169 231 
Q 1284 197 1416 197 
Q 1734 197 1970 444 
Q 2206 691 2206 1028 
Q 2206 1275 2097 1509 
Q 2016 1684 1919 1775 
Q 1784 1900 1550 2001 
Q 1316 2103 1072 2103 
L 972 2103 
L 972 2197 
Q 1219 2228 1467 2375 
Q 1716 2522 1828 2728 
Q 1941 2934 1941 3181 
Q 1941 3503 1739 3701 
Q 1538 3900 1238 3900 
Q 753 3900 428 3381 
L 325 3431 
z
" transform="scale(0.015625)"/>
      </defs>
      <use xlink:href="#TimesNewRomanPSMT-6b"/>
      <use xlink:href="#TimesNewRomanPSMT-3d" transform="translate(50 0)"/>
      <use xlink:href="#TimesNewRomanPSMT-33" transform="translate(106.396484 0)"/>
     </g>
    </g>
    <g id="line2d_22">
     <path d="M 357.080938 68.111063 
L 367.080938 68.111063 
L 377.080938 68.111063 
" style="fill: none; stroke: #ff7f0e; stroke-width: 1.5; stroke-linecap: square"/>
    </g>
    <g id="text_18">
     <!-- k=5 -->
     <g transform="translate(385.080938 71.611063) scale(0.1 -0.1)">
      <use xlink:href="#TimesNewRomanPSMT-6b"/>
      <use xlink:href="#TimesNewRomanPSMT-3d" transform="translate(50 0)"/>
      <use xlink:href="#TimesNewRomanPSMT-35" transform="translate(106.396484 0)"/>
     </g>
    </g>
    <g id="line2d_23">
     <path d="M 357.080938 82.250125 
L 367.080938 82.250125 
L 377.080938 82.250125 
" style="fill: none; stroke: #2ca02c; stroke-width: 1.5; stroke-linecap: square"/>
    </g>
    <g id="text_19">
     <!-- k=10 -->
     <g transform="translate(385.080938 85.750125) scale(0.1 -0.1)">
      <use xlink:href="#TimesNewRomanPSMT-6b"/>
      <use xlink:href="#TimesNewRomanPSMT-3d" transform="translate(50 0)"/>
      <use xlink:href="#TimesNewRomanPSMT-31" transform="translate(106.396484 0)"/>
      <use xlink:href="#TimesNewRomanPSMT-30" transform="translate(156.396484 0)"/>
     </g>
    </g>
    <g id="line2d_24">
     <path d="M 357.080938 96.389188 
L 367.080938 96.389188 
L 377.080938 96.389188 
" style="fill: none; stroke: #d62728; stroke-width: 1.5; stroke-linecap: square"/>
    </g>
    <g id="text_20">
     <!-- k=20 -->
     <g transform="translate(385.080938 99.889188) scale(0.1 -0.1)">
      <use xlink:href="#TimesNewRomanPSMT-6b"/>
      <use xlink:href="#TimesNewRomanPSMT-3d" transform="translate(50 0)"/>
      <use xlink:href="#TimesNewRomanPSMT-32" transform="translate(106.396484 0)"/>
      <use xlink:href="#TimesNewRomanPSMT-30" transform="translate(156.396484 0)"/>
     </g>
    </g>
   </g>
  </g>
 </g>
 <defs>
  <clipPath id="pe294dc9bf5">
   <rect x="57.6" y="41.472" width="357.12" height="266.112"/>
  </clipPath>
 </defs>
</svg>
