<?xml version="1.0" encoding="utf-8" standalone="no"?>
<!DOCTYPE svg PUBLIC "-//W3C//DTD SVG 1.1//EN"
  "http://www.w3.org/Graphics/SVG/1.1/DTD/svg11.dtd">
<svg xmlns:xlink="http://www.w3.org/1999/xlink" width="460.8pt" height="345.6pt" viewBox="0 0 460.8 345.6" xmlns="http://www.w3.org/2000/svg" version="1.1">
 <metadata>
  <rdf:RDF xmlns:dc="http://purl.org/dc/elements/1.1/" xmlns:cc="http://creativecommons.org/ns#" xmlns:rdf="http://www.w3.org/1999/02/22-rdf-syntax-ns#">
   <cc:Work>
    <dc:type rdf:resource="http://purl.org/dc/dcmitype/StillImage"/>
    <dc:date>2025-10-07T22:38:29.245831</dc:date>
    <dc:format>image/svg+xml</dc:format>
    <dc:creator>
     <cc:Agent>
      <dc:title>Matplotlib v3.10.0, https://matplotlib.org/</dc:title>
     </cc:Agent>
    </dc:creator>
   </cc:Work>
  </rdf:RDF>
 </metadata>
 <defs>
  <style type="text/css">*{stroke-linejoin: round; stroke-linecap: butt}</style>
 </defs>
 <g id="figure_1">
  <g id="patch_1">
   <path d="M 0 345.6 
L 460.8 345.6 
L 460.8 0 
L 0 0 
z
" style="fill: #ffffff"/>
  </g>
  <g id="axes_1">
   <g id="patch_2">
    <path d="M 57.6 307.584 
L 414.72 307.584 
L 414.72 41.472 
L 57.6 41.472 
z
" style="fill: #ffffff"/>
   </g>
   <g id="PathCollection_1">
    <defs>
     <path id="m66085bded5" d="M 0 3 
C 0.795609 3 1.55874 2.683901 2.12132 2.12132 
C 2.683901 1.55874 3 0.795609 3 0 
C 3 -0.795609 2.683901 -1.55874 2.12132 -2.12132 
C 1.55874 -2.683901 0.795609 -3 0 -3 
C -0.795609 -3 -1.55874 -2.683901 -2.12132 -2.12132 
C -2.683901 -1.55874 -3 -0.795609 -3 0 
C -3 0.795609 -2.683901 1.55874 -2.12132 2.12132 
C -1.55874 2.683901 -0.795609 3 0 3 
z
" style="stroke: #1f77b4"/>
    </defs>
    <g clip-path="url(#p311ff73689)">
     <use xlink:href="#m66085bded5" x="191.888926" y="262.589101" style="fill: #1f77b4; stroke: #1f77b4"/>
     <use xlink:href="#m66085bded5" x="385.369917" y="215.897516" style="fill: #1f77b4; stroke: #1f77b4"/>
     <use xlink:href="#m66085bded5" x="300.107107" y="125.034427" style="fill: #1f77b4; stroke: #1f77b4"/>
     <use xlink:href="#m66085bded5" x="316.503802" y="153.57152" style="fill: #1f77b4; stroke: #1f77b4"/>
     <use xlink:href="#m66085bded5" x="352.576529" y="230.133581" style="fill: #1f77b4; stroke: #1f77b4"/>
     <use xlink:href="#m66085bded5" x="113.184793" y="99.497175" style="fill: #1f77b4; stroke: #1f77b4"/>
     <use xlink:href="#m66085bded5" x="375.531901" y="215.568677" style="fill: #1f77b4; stroke: #1f77b4"/>
     <use xlink:href="#m66085bded5" x="93.50876" y="82.989124" style="fill: #1f77b4; stroke: #1f77b4"/>
     <use xlink:href="#m66085bded5" x="73.832727" y="157.105197" style="fill: #1f77b4; stroke: #1f77b4"/>
     <use xlink:href="#m66085bded5" x="165.654215" y="210.940592" style="fill: #1f77b4; stroke: #1f77b4"/>
     <use xlink:href="#m66085bded5" x="398.487273" y="200.023583" style="fill: #1f77b4; stroke: #1f77b4"/>
     <use xlink:href="#m66085bded5" x="182.050909" y="235.618889" style="fill: #1f77b4; stroke: #1f77b4"/>
     <use xlink:href="#m66085bded5" x="90.229421" y="133.208395" style="fill: #1f77b4; stroke: #1f77b4"/>
     <use xlink:href="#m66085bded5" x="96.788099" y="122.390173" style="fill: #1f77b4; stroke: #1f77b4"/>
     <use xlink:href="#m66085bded5" x="132.860826" y="175.904193" style="fill: #1f77b4; stroke: #1f77b4"/>
     <use xlink:href="#m66085bded5" x="237.799669" y="157.60209" style="fill: #1f77b4; stroke: #1f77b4"/>
     <use xlink:href="#m66085bded5" x="139.419504" y="196.270932" style="fill: #1f77b4; stroke: #1f77b4"/>
     <use xlink:href="#m66085bded5" x="391.928595" y="229.971063" style="fill: #1f77b4; stroke: #1f77b4"/>
     <use xlink:href="#m66085bded5" x="205.006281" y="221.789781" style="fill: #1f77b4; stroke: #1f77b4"/>
     <use xlink:href="#m66085bded5" x="244.358347" y="131.69485" style="fill: #1f77b4; stroke: #1f77b4"/>
     <use xlink:href="#m66085bded5" x="136.140165" y="144.613708" style="fill: #1f77b4; stroke: #1f77b4"/>
     <use xlink:href="#m66085bded5" x="77.112066" y="160.135979" style="fill: #1f77b4; stroke: #1f77b4"/>
     <use xlink:href="#m66085bded5" x="260.755041" y="133.514487" style="fill: #1f77b4; stroke: #1f77b4"/>
     <use xlink:href="#m66085bded5" x="100.067438" y="101.283336" style="fill: #1f77b4; stroke: #1f77b4"/>
     <use xlink:href="#m66085bded5" x="254.196364" y="137.747725" style="fill: #1f77b4; stroke: #1f77b4"/>
     <use xlink:href="#m66085bded5" x="149.257521" y="168.760339" style="fill: #1f77b4; stroke: #1f77b4"/>
     <use xlink:href="#m66085bded5" x="286.989752" y="98.057766" style="fill: #1f77b4; stroke: #1f77b4"/>
     <use xlink:href="#m66085bded5" x="188.609587" y="256.19162" style="fill: #1f77b4; stroke: #1f77b4"/>
     <use xlink:href="#m66085bded5" x="362.414545" y="269.896148" style="fill: #1f77b4; stroke: #1f77b4"/>
     <use xlink:href="#m66085bded5" x="218.123636" y="235.979652" style="fill: #1f77b4; stroke: #1f77b4"/>
     <use xlink:href="#m66085bded5" x="349.29719" y="247.916243" style="fill: #1f77b4; stroke: #1f77b4"/>
     <use xlink:href="#m66085bded5" x="293.54843" y="102.801989" style="fill: #1f77b4; stroke: #1f77b4"/>
     <use xlink:href="#m66085bded5" x="257.475702" y="127.932783" style="fill: #1f77b4; stroke: #1f77b4"/>
     <use xlink:href="#m66085bded5" x="159.095537" y="181.941926" style="fill: #1f77b4; stroke: #1f77b4"/>
     <use xlink:href="#m66085bded5" x="162.374876" y="156.210402" style="fill: #1f77b4; stroke: #1f77b4"/>
     <use xlink:href="#m66085bded5" x="168.933554" y="203.180598" style="fill: #1f77b4; stroke: #1f77b4"/>
     <use xlink:href="#m66085bded5" x="119.743471" y="107.155004" style="fill: #1f77b4; stroke: #1f77b4"/>
     <use xlink:href="#m66085bded5" x="83.670744" y="172.061072" style="fill: #1f77b4; stroke: #1f77b4"/>
     <use xlink:href="#m66085bded5" x="103.346777" y="89.068798" style="fill: #1f77b4; stroke: #1f77b4"/>
     <use xlink:href="#m66085bded5" x="211.564959" y="212.586785" style="fill: #1f77b4; stroke: #1f77b4"/>
     <use xlink:href="#m66085bded5" x="198.447603" y="237.85221" style="fill: #1f77b4; stroke: #1f77b4"/>
     <use xlink:href="#m66085bded5" x="264.03438" y="127.166264" style="fill: #1f77b4; stroke: #1f77b4"/>
     <use xlink:href="#m66085bded5" x="86.950083" y="137.602482" style="fill: #1f77b4; stroke: #1f77b4"/>
     <use xlink:href="#m66085bded5" x="267.313719" y="118.37982" style="fill: #1f77b4; stroke: #1f77b4"/>
     <use xlink:href="#m66085bded5" x="346.017851" y="214.55558" style="fill: #1f77b4; stroke: #1f77b4"/>
     <use xlink:href="#m66085bded5" x="395.207934" y="182.716494" style="fill: #1f77b4; stroke: #1f77b4"/>
     <use xlink:href="#m66085bded5" x="290.269091" y="123.17099" style="fill: #1f77b4; stroke: #1f77b4"/>
     <use xlink:href="#m66085bded5" x="323.062479" y="182.33405" style="fill: #1f77b4; stroke: #1f77b4"/>
     <use xlink:href="#m66085bded5" x="332.900496" y="193.201291" style="fill: #1f77b4; stroke: #1f77b4"/>
     <use xlink:href="#m66085bded5" x="277.151736" y="126.057325" style="fill: #1f77b4; stroke: #1f77b4"/>
     <use xlink:href="#m66085bded5" x="145.978182" y="159.03185" style="fill: #1f77b4; stroke: #1f77b4"/>
     <use xlink:href="#m66085bded5" x="388.649256" y="223.393899" style="fill: #1f77b4; stroke: #1f77b4"/>
     <use xlink:href="#m66085bded5" x="273.872397" y="112.447056" style="fill: #1f77b4; stroke: #1f77b4"/>
     <use xlink:href="#m66085bded5" x="195.168264" y="210.535541" style="fill: #1f77b4; stroke: #1f77b4"/>
     <use xlink:href="#m66085bded5" x="185.330248" y="260.849148" style="fill: #1f77b4; stroke: #1f77b4"/>
     <use xlink:href="#m66085bded5" x="382.090579" y="221.218813" style="fill: #1f77b4; stroke: #1f77b4"/>
     <use xlink:href="#m66085bded5" x="234.520331" y="183.399432" style="fill: #1f77b4; stroke: #1f77b4"/>
     <use xlink:href="#m66085bded5" x="280.431074" y="99.910825" style="fill: #1f77b4; stroke: #1f77b4"/>
     <use xlink:href="#m66085bded5" x="319.78314" y="174.974531" style="fill: #1f77b4; stroke: #1f77b4"/>
     <use xlink:href="#m66085bded5" x="329.621157" y="229.349356" style="fill: #1f77b4; stroke: #1f77b4"/>
     <use xlink:href="#m66085bded5" x="201.726942" y="234.855895" style="fill: #1f77b4; stroke: #1f77b4"/>
     <use xlink:href="#m66085bded5" x="309.945124" y="150.224474" style="fill: #1f77b4; stroke: #1f77b4"/>
     <use xlink:href="#m66085bded5" x="126.302149" y="118.045057" style="fill: #1f77b4; stroke: #1f77b4"/>
     <use xlink:href="#m66085bded5" x="372.252562" y="217.983333" style="fill: #1f77b4; stroke: #1f77b4"/>
     <use xlink:href="#m66085bded5" x="109.905455" y="79.923556" style="fill: #1f77b4; stroke: #1f77b4"/>
     <use xlink:href="#m66085bded5" x="208.28562" y="229.348147" style="fill: #1f77b4; stroke: #1f77b4"/>
     <use xlink:href="#m66085bded5" x="283.710413" y="128.526735" style="fill: #1f77b4; stroke: #1f77b4"/>
     <use xlink:href="#m66085bded5" x="116.464132" y="91.80245" style="fill: #1f77b4; stroke: #1f77b4"/>
     <use xlink:href="#m66085bded5" x="365.693884" y="240.268874" style="fill: #1f77b4; stroke: #1f77b4"/>
     <use xlink:href="#m66085bded5" x="172.212893" y="214.400929" style="fill: #1f77b4; stroke: #1f77b4"/>
    </g>
   </g>
   <g id="matplotlib.axis_1">
    <g id="xtick_1">
     <g id="line2d_1">
      <defs>
       <path id="m8341021465" d="M 0 0 
L 0 3.5 
" style="stroke: #000000; stroke-width: 0.8"/>
      </defs>
      <g>
       <use xlink:href="#m8341021465" x="81.148873" y="307.584" style="stroke: #000000; stroke-width: 0.8"/>
      </g>
     </g>
     <g id="text_1">
      <!-- −6 -->
      <g transform="translate(75.829342 321.52775) scale(0.1 -0.1)">
       <defs>
        <path id="TimesNewRomanPSMT-2212" d="M 3484 2000 
L 116 2000 
L 116 2256 
L 3484 2256 
L 3484 2000 
z
" transform="scale(0.015625)"/>
        <path id="TimesNewRomanPSMT-36" d="M 2869 4325 
L 2869 4209 
Q 2456 4169 2195 4045 
Q 1934 3922 1679 3669 
Q 1425 3416 1258 3105 
Q 1091 2794 978 2366 
Q 1428 2675 1881 2675 
Q 2316 2675 2634 2325 
Q 2953 1975 2953 1425 
Q 2953 894 2631 456 
Q 2244 -75 1606 -75 
Q 1172 -75 869 213 
Q 275 772 275 1663 
Q 275 2231 503 2743 
Q 731 3256 1154 3653 
Q 1578 4050 1965 4187 
Q 2353 4325 2688 4325 
L 2869 4325 
z
M 925 2138 
Q 869 1716 869 1456 
Q 869 1156 980 804 
Q 1091 453 1309 247 
Q 1469 100 1697 100 
Q 1969 100 2183 356 
Q 2397 613 2397 1088 
Q 2397 1622 2184 2012 
Q 1972 2403 1581 2403 
Q 1463 2403 1327 2353 
Q 1191 2303 925 2138 
z
" transform="scale(0.015625)"/>
       </defs>
       <use xlink:href="#TimesNewRomanPSMT-2212"/>
       <use xlink:href="#TimesNewRomanPSMT-36" transform="translate(56.396484 0)"/>
      </g>
     </g>
    </g>
    <g id="xtick_2">
     <g id="line2d_2">
      <g>
       <use xlink:href="#m8341021465" x="132.819249" y="307.584" style="stroke: #000000; stroke-width: 0.8"/>
      </g>
     </g>
     <g id="text_2">
      <!-- −4 -->
      <g transform="translate(127.499717 321.52775) scale(0.1 -0.1)">
       <defs>
        <path id="TimesNewRomanPSMT-34" d="M 2978 1563 
L 2978 1119 
L 2409 1119 
L 2409 0 
L 1894 0 
L 1894 1119 
L 100 1119 
L 100 1519 
L 2066 4325 
L 2409 4325 
L 2409 1563 
L 2978 1563 
z
M 1894 1563 
L 1894 3666 
L 406 1563 
L 1894 1563 
z
" transform="scale(0.015625)"/>
       </defs>
       <use xlink:href="#TimesNewRomanPSMT-2212"/>
       <use xlink:href="#TimesNewRomanPSMT-34" transform="translate(56.396484 0)"/>
      </g>
     </g>
    </g>
    <g id="xtick_3">
     <g id="line2d_3">
      <g>
       <use xlink:href="#m8341021465" x="184.489624" y="307.584" style="stroke: #000000; stroke-width: 0.8"/>
      </g>
     </g>
     <g id="text_3">
      <!-- −2 -->
      <g transform="translate(179.170093 321.52775) scale(0.1 -0.1)">
       <defs>
        <path id="TimesNewRomanPSMT-32" d="M 2934 816 
L 2638 0 
L 138 0 
L 138 116 
Q 1241 1122 1691 1759 
Q 2141 2397 2141 2925 
Q 2141 3328 1894 3587 
Q 1647 3847 1303 3847 
Q 991 3847 742 3664 
Q 494 3481 375 3128 
L 259 3128 
Q 338 3706 661 4015 
Q 984 4325 1469 4325 
Q 1984 4325 2329 3994 
Q 2675 3663 2675 3213 
Q 2675 2891 2525 2569 
Q 2294 2063 1775 1497 
Q 997 647 803 472 
L 1909 472 
Q 2247 472 2383 497 
Q 2519 522 2628 598 
Q 2738 675 2819 816 
L 2934 816 
z
" transform="scale(0.015625)"/>
       </defs>
       <use xlink:href="#TimesNewRomanPSMT-2212"/>
       <use xlink:href="#TimesNewRomanPSMT-32" transform="translate(56.396484 0)"/>
      </g>
     </g>
    </g>
    <g id="xtick_4">
     <g id="line2d_4">
      <g>
       <use xlink:href="#m8341021465" x="236.16" y="307.584" style="stroke: #000000; stroke-width: 0.8"/>
      </g>
     </g>
     <g id="text_4">
      <!-- 0 -->
      <g transform="translate(233.66 321.52775) scale(0.1 -0.1)">
       <defs>
        <path id="TimesNewRomanPSMT-30" d="M 231 2094 
Q 231 2819 450 3342 
Q 669 3866 1031 4122 
Q 1313 4325 1613 4325 
Q 2100 4325 2488 3828 
Q 2972 3213 2972 2159 
Q 2972 1422 2759 906 
Q 2547 391 2217 158 
Q 1888 -75 1581 -75 
Q 975 -75 572 641 
Q 231 1244 231 2094 
z
M 844 2016 
Q 844 1141 1059 588 
Q 1238 122 1591 122 
Q 1759 122 1940 273 
Q 2122 425 2216 781 
Q 2359 1319 2359 2297 
Q 2359 3022 2209 3506 
Q 2097 3866 1919 4016 
Q 1791 4119 1609 4119 
Q 1397 4119 1231 3928 
Q 1006 3669 925 3112 
Q 844 2556 844 2016 
z
" transform="scale(0.015625)"/>
       </defs>
       <use xlink:href="#TimesNewRomanPSMT-30"/>
      </g>
     </g>
    </g>
    <g id="xtick_5">
     <g id="line2d_5">
      <g>
       <use xlink:href="#m8341021465" x="287.830376" y="307.584" style="stroke: #000000; stroke-width: 0.8"/>
      </g>
     </g>
     <g id="text_5">
      <!-- 2 -->
      <g transform="translate(285.330376 321.52775) scale(0.1 -0.1)">
       <use xlink:href="#TimesNewRomanPSMT-32"/>
      </g>
     </g>
    </g>
    <g id="xtick_6">
     <g id="line2d_6">
      <g>
       <use xlink:href="#m8341021465" x="339.500751" y="307.584" style="stroke: #000000; stroke-width: 0.8"/>
      </g>
     </g>
     <g id="text_6">
      <!-- 4 -->
      <g transform="translate(337.000751 321.52775) scale(0.1 -0.1)">
       <use xlink:href="#TimesNewRomanPSMT-34"/>
      </g>
     </g>
    </g>
    <g id="xtick_7">
     <g id="line2d_7">
      <g>
       <use xlink:href="#m8341021465" x="391.171127" y="307.584" style="stroke: #000000; stroke-width: 0.8"/>
      </g>
     </g>
     <g id="text_7">
      <!-- 6 -->
      <g transform="translate(388.671127 321.52775) scale(0.1 -0.1)">
       <use xlink:href="#TimesNewRomanPSMT-36"/>
      </g>
     </g>
    </g>
   </g>
   <g id="matplotlib.axis_2">
    <g id="ytick_1">
     <g id="line2d_8">
      <defs>
       <path id="m57d2fb8c85" d="M 0 0 
L -3.5 0 
" style="stroke: #000000; stroke-width: 0.8"/>
      </defs>
      <g>
       <use xlink:href="#m57d2fb8c85" x="57.6" y="307.584" style="stroke: #000000; stroke-width: 0.8"/>
      </g>
     </g>
     <g id="text_8">
      <!-- −2.0 -->
      <g transform="translate(32.460938 311.055875) scale(0.1 -0.1)">
       <defs>
        <path id="TimesNewRomanPSMT-2e" d="M 800 606 
Q 947 606 1047 504 
Q 1147 403 1147 259 
Q 1147 116 1045 14 
Q 944 -88 800 -88 
Q 656 -88 554 14 
Q 453 116 453 259 
Q 453 406 554 506 
Q 656 606 800 606 
z
" transform="scale(0.015625)"/>
       </defs>
       <use xlink:href="#TimesNewRomanPSMT-2212"/>
       <use xlink:href="#TimesNewRomanPSMT-32" transform="translate(56.396484 0)"/>
       <use xlink:href="#TimesNewRomanPSMT-2e" transform="translate(106.396484 0)"/>
       <use xlink:href="#TimesNewRomanPSMT-30" transform="translate(131.396484 0)"/>
      </g>
     </g>
    </g>
    <g id="ytick_2">
     <g id="line2d_9">
      <g>
       <use xlink:href="#m57d2fb8c85" x="57.6" y="274.32" style="stroke: #000000; stroke-width: 0.8"/>
      </g>
     </g>
     <g id="text_9">
      <!-- −1.5 -->
      <g transform="translate(32.460938 277.791875) scale(0.1 -0.1)">
       <defs>
        <path id="TimesNewRomanPSMT-31" d="M 750 3822 
L 1781 4325 
L 1884 4325 
L 1884 747 
Q 1884 391 1914 303 
Q 1944 216 2037 169 
Q 2131 122 2419 116 
L 2419 0 
L 825 0 
L 825 116 
Q 1125 122 1212 167 
Q 1300 213 1334 289 
Q 1369 366 1369 747 
L 1369 3034 
Q 1369 3497 1338 3628 
Q 1316 3728 1258 3775 
Q 1200 3822 1119 3822 
Q 1003 3822 797 3725 
L 750 3822 
z
" transform="scale(0.015625)"/>
        <path id="TimesNewRomanPSMT-35" d="M 2778 4238 
L 2534 3706 
L 1259 3706 
L 981 3138 
Q 1809 3016 2294 2522 
Q 2709 2097 2709 1522 
Q 2709 1188 2573 903 
Q 2438 619 2231 419 
Q 2025 219 1772 97 
Q 1413 -75 1034 -75 
Q 653 -75 479 54 
Q 306 184 306 341 
Q 306 428 378 495 
Q 450 563 559 563 
Q 641 563 702 538 
Q 763 513 909 409 
Q 1144 247 1384 247 
Q 1750 247 2026 523 
Q 2303 800 2303 1197 
Q 2303 1581 2056 1914 
Q 1809 2247 1375 2428 
Q 1034 2569 447 2591 
L 1259 4238 
L 2778 4238 
z
" transform="scale(0.015625)"/>
       </defs>
       <use xlink:href="#TimesNewRomanPSMT-2212"/>
       <use xlink:href="#TimesNewRomanPSMT-31" transform="translate(56.396484 0)"/>
       <use xlink:href="#TimesNewRomanPSMT-2e" transform="translate(106.396484 0)"/>
       <use xlink:href="#TimesNewRomanPSMT-35" transform="translate(131.396484 0)"/>
      </g>
     </g>
    </g>
    <g id="ytick_3">
     <g id="line2d_10">
      <g>
       <use xlink:href="#m57d2fb8c85" x="57.6" y="241.056" style="stroke: #000000; stroke-width: 0.8"/>
      </g>
     </g>
     <g id="text_10">
      <!-- −1.0 -->
      <g transform="translate(32.460938 244.527875) scale(0.1 -0.1)">
       <use xlink:href="#TimesNewRomanPSMT-2212"/>
       <use xlink:href="#TimesNewRomanPSMT-31" transform="translate(56.396484 0)"/>
       <use xlink:href="#TimesNewRomanPSMT-2e" transform="translate(106.396484 0)"/>
       <use xlink:href="#TimesNewRomanPSMT-30" transform="translate(131.396484 0)"/>
      </g>
     </g>
    </g>
    <g id="ytick_4">
     <g id="line2d_11">
      <g>
       <use xlink:href="#m57d2fb8c85" x="57.6" y="207.792" style="stroke: #000000; stroke-width: 0.8"/>
      </g>
     </g>
     <g id="text_11">
      <!-- −0.5 -->
      <g transform="translate(32.460938 211.263875) scale(0.1 -0.1)">
       <use xlink:href="#TimesNewRomanPSMT-2212"/>
       <use xlink:href="#TimesNewRomanPSMT-30" transform="translate(56.396484 0)"/>
       <use xlink:href="#TimesNewRomanPSMT-2e" transform="translate(106.396484 0)"/>
       <use xlink:href="#TimesNewRomanPSMT-35" transform="translate(131.396484 0)"/>
      </g>
     </g>
    </g>
    <g id="ytick_5">
     <g id="line2d_12">
      <g>
       <use xlink:href="#m57d2fb8c85" x="57.6" y="174.528" style="stroke: #000000; stroke-width: 0.8"/>
      </g>
     </g>
     <g id="text_12">
      <!-- 0.0 -->
      <g transform="translate(38.1 177.999875) scale(0.1 -0.1)">
       <use xlink:href="#TimesNewRomanPSMT-30"/>
       <use xlink:href="#TimesNewRomanPSMT-2e" transform="translate(50 0)"/>
       <use xlink:href="#TimesNewRomanPSMT-30" transform="translate(75 0)"/>
      </g>
     </g>
    </g>
    <g id="ytick_6">
     <g id="line2d_13">
      <g>
       <use xlink:href="#m57d2fb8c85" x="57.6" y="141.264" style="stroke: #000000; stroke-width: 0.8"/>
      </g>
     </g>
     <g id="text_13">
      <!-- 0.5 -->
      <g transform="translate(38.1 144.735875) scale(0.1 -0.1)">
       <use xlink:href="#TimesNewRomanPSMT-30"/>
       <use xlink:href="#TimesNewRomanPSMT-2e" transform="translate(50 0)"/>
       <use xlink:href="#TimesNewRomanPSMT-35" transform="translate(75 0)"/>
      </g>
     </g>
    </g>
    <g id="ytick_7">
     <g id="line2d_14">
      <g>
       <use xlink:href="#m57d2fb8c85" x="57.6" y="108" style="stroke: #000000; stroke-width: 0.8"/>
      </g>
     </g>
     <g id="text_14">
      <!-- 1.0 -->
      <g transform="translate(38.1 111.471875) scale(0.1 -0.1)">
       <use xlink:href="#TimesNewRomanPSMT-31"/>
       <use xlink:href="#TimesNewRomanPSMT-2e" transform="translate(50 0)"/>
       <use xlink:href="#TimesNewRomanPSMT-30" transform="translate(75 0)"/>
      </g>
     </g>
    </g>
    <g id="ytick_8">
     <g id="line2d_15">
      <g>
       <use xlink:href="#m57d2fb8c85" x="57.6" y="74.736" style="stroke: #000000; stroke-width: 0.8"/>
      </g>
     </g>
     <g id="text_15">
      <!-- 1.5 -->
      <g transform="translate(38.1 78.207875) scale(0.1 -0.1)">
       <use xlink:href="#TimesNewRomanPSMT-31"/>
       <use xlink:href="#TimesNewRomanPSMT-2e" transform="translate(50 0)"/>
       <use xlink:href="#TimesNewRomanPSMT-35" transform="translate(75 0)"/>
      </g>
     </g>
    </g>
    <g id="ytick_9">
     <g id="line2d_16">
      <g>
       <use xlink:href="#m57d2fb8c85" x="57.6" y="41.472" style="stroke: #000000; stroke-width: 0.8"/>
      </g>
     </g>
     <g id="text_16">
      <!-- 2.0 -->
      <g transform="translate(38.1 44.943875) scale(0.1 -0.1)">
       <use xlink:href="#TimesNewRomanPSMT-32"/>
       <use xlink:href="#TimesNewRomanPSMT-2e" transform="translate(50 0)"/>
       <use xlink:href="#TimesNewRomanPSMT-30" transform="translate(75 0)"/>
      </g>
     </g>
    </g>
   </g>
   <g id="line2d_17">
    <path d="M 73.832727 175.079475 
L 81.632236 155.076745 
L 85.85697 144.886714 
L 89.106765 137.582892 
L 92.031581 131.512959 
L 94.631417 126.583461 
L 97.231253 122.144655 
L 99.50611 118.698657 
L 101.780966 115.689513 
L 103.730844 113.475715 
L 105.680721 111.612663 
L 107.305618 110.335764 
L 108.930516 109.314891 
L 110.555414 108.554081 
L 112.180311 108.056341 
L 113.805209 107.823641 
L 115.430106 107.8569 
L 117.055004 108.155988 
L 118.679902 108.71972 
L 120.304799 109.545869 
L 121.929697 110.631167 
L 123.554595 111.971322 
L 125.504472 113.908388 
L 127.454349 116.193736 
L 129.404226 118.814355 
L 131.679083 122.27548 
L 133.953939 126.145744 
L 136.553776 131.031285 
L 139.478591 137.057613 
L 142.728387 144.320894 
L 146.303161 152.867233 
L 150.852875 164.336071 
L 165.151974 200.848758 
L 168.726749 209.173745 
L 171.976544 216.180329 
L 174.90136 221.933899 
L 177.501196 226.546707 
L 179.776052 230.157201 
L 182.050909 233.340939 
L 184.000786 235.711401 
L 185.950663 237.73665 
L 187.900541 239.405156 
L 189.525438 240.516149 
L 191.150336 241.368377 
L 192.775233 241.958469 
L 194.400131 242.284091 
L 196.025029 242.343956 
L 197.649926 242.137828 
L 199.274824 241.666521 
L 200.899722 240.931899 
L 202.524619 239.936868 
L 204.149517 238.685361 
L 205.774414 237.182329 
L 207.724292 235.055112 
L 209.674169 232.58642 
L 211.949025 229.293548 
L 214.223882 225.580612 
L 216.823718 220.859936 
L 219.423554 215.676045 
L 222.34837 209.355956 
L 225.923145 201.044055 
L 230.147879 190.594052 
L 236.647469 173.810185 
L 243.797019 155.481124 
L 248.021753 145.265424 
L 251.271548 137.934935 
L 254.196364 131.836231 
L 256.7962 126.877672 
L 259.396036 122.406828 
L 261.670893 118.93061 
L 263.945749 115.889447 
L 265.895627 113.646963 
L 267.845504 111.754248 
L 269.470401 110.452009 
L 271.095299 109.405335 
L 272.720197 108.618365 
L 274.345094 108.094213 
L 275.969992 107.83495 
L 277.594889 107.841602 
L 279.219787 108.114142 
L 280.844685 108.651494 
L 282.469582 109.451531 
L 284.09448 110.51109 
L 285.719378 111.825981 
L 287.669255 113.733498 
L 289.619132 115.990293 
L 291.569009 118.583517 
L 293.843866 122.014352 
L 296.118722 125.856351 
L 298.718559 130.712345 
L 301.643374 136.709304 
L 304.89317 143.945197 
L 308.467944 152.468282 
L 313.017658 163.918595 
L 327.641736 201.239096 
L 331.216511 209.537828 
L 334.466306 216.514489 
L 337.391122 222.236598 
L 339.990958 226.818174 
L 342.265815 230.399075 
L 344.540672 233.551346 
L 346.490549 235.893529 
L 348.440426 237.889462 
L 350.390303 239.527782 
L 352.015201 240.61308 
L 353.640098 241.439229 
L 355.264996 242.002961 
L 356.889894 242.302049 
L 358.514791 242.335308 
L 360.139689 242.102608 
L 361.764586 241.604868 
L 363.389484 240.844058 
L 365.014382 239.823185 
L 366.639279 238.546286 
L 368.264177 237.018412 
L 370.214054 234.862249 
L 372.163931 232.365709 
L 374.438788 229.041947 
L 376.713645 225.300069 
L 379.313481 220.548992 
L 381.913317 215.337846 
L 384.838133 208.991197 
L 388.412907 200.653206 
L 392.637641 190.182032 
L 398.487273 175.079475 
L 398.487273 175.079475 
" clip-path="url(#p311ff73689)" style="fill: none; stroke: #1f77b4; stroke-width: 1.5; stroke-linecap: square"/>
   </g>
   <g id="line2d_18">
    <path d="M 73.832727 169.937519 
L 81.632236 150.62855 
L 85.85697 140.800052 
L 89.106765 133.762513 
L 92.031581 127.921103 
L 94.631417 123.184435 
L 97.231253 118.927612 
L 99.50611 115.631167 
L 101.455987 113.144755 
L 103.405864 110.98677 
L 105.355741 109.169856 
L 106.980639 107.924084 
L 108.605536 106.927767 
L 110.230434 106.185055 
L 111.855332 105.699091 
L 113.480229 105.472004 
L 115.105127 105.504899 
L 116.730025 105.797853 
L 118.354922 106.349916 
L 119.97982 107.159111 
L 121.604717 108.222446 
L 123.229615 109.535923 
L 125.179492 111.435193 
L 127.129369 113.67698 
L 129.079247 116.248877 
L 131.354103 119.64749 
L 133.62896 123.450138 
L 136.228796 128.253557 
L 139.153612 134.183329 
L 142.403407 141.337018 
L 145.978182 149.763916 
L 150.527895 161.089289 
L 165.476953 198.855437 
L 169.051728 207.060017 
L 172.301523 213.957735 
L 175.226339 219.616698 
L 177.826175 224.150127 
L 180.101032 227.696163 
L 182.375889 230.821227 
L 184.325766 233.14678 
L 186.275643 235.132736 
L 188.22552 236.768148 
L 189.850418 237.856694 
L 191.475315 238.691454 
L 193.100213 239.269336 
L 194.725111 239.588261 
L 196.350008 239.647175 
L 197.974906 239.446054 
L 199.599803 238.985898 
L 201.224701 238.268736 
L 202.849599 237.29761 
L 204.474496 236.076568 
L 206.099394 234.610646 
L 208.049271 232.536817 
L 209.999148 230.131223 
L 212.274005 226.924233 
L 214.548862 223.310293 
L 217.148698 218.718556 
L 219.748534 213.680015 
L 222.67335 207.54228 
L 226.248124 199.478726 
L 230.472858 189.355001 
L 237.297428 172.31449 
L 244.121998 155.474848 
L 248.021753 146.400872 
L 251.271548 139.337255 
L 254.196364 133.46771 
L 256.7962 128.702624 
L 259.396036 124.414471 
L 261.670893 121.088474 
L 263.945749 118.187915 
L 265.895627 116.057896 
L 267.845504 114.269915 
L 269.470401 113.048873 
L 271.095299 112.077747 
L 272.720197 111.360585 
L 274.345094 110.900429 
L 275.969992 110.699307 
L 277.594889 110.758222 
L 279.219787 111.077147 
L 280.844685 111.655029 
L 282.469582 112.489789 
L 284.09448 113.578334 
L 285.719378 114.916568 
L 287.669255 116.844807 
L 289.619132 119.114603 
L 291.569009 121.713391 
L 293.843866 125.141756 
L 296.118722 128.972194 
L 298.718559 133.804693 
L 301.643374 139.763417 
L 304.89317 146.944168 
L 308.467944 155.394136 
L 313.017658 166.738068 
L 327.641736 203.705222 
L 331.216511 211.935798 
L 334.466306 218.863047 
L 337.391122 224.552997 
L 339.990958 229.117145 
L 342.265815 232.692258 
L 344.540672 235.848215 
L 346.490549 238.201512 
L 348.440426 240.216213 
L 350.390303 241.881207 
L 352.015201 242.994922 
L 353.640098 243.855217 
L 355.264996 244.458897 
L 356.889894 244.803782 
L 358.514791 244.888716 
L 360.139689 244.71357 
L 361.764586 244.279243 
L 363.389484 243.587661 
L 365.014382 242.641766 
L 366.639279 241.445505 
L 368.264177 240.003816 
L 370.214054 237.958211 
L 372.163931 235.579753 
L 374.438788 232.402841 
L 376.713645 228.817058 
L 379.313481 224.254866 
L 381.913317 219.242777 
L 384.838133 213.130769 
L 388.412907 205.092405 
L 392.637641 194.988979 
L 398.487273 180.408964 
L 398.487273 180.408964 
" clip-path="url(#p311ff73689)" style="fill: none; stroke: #ff7f0e; stroke-width: 1.5; stroke-linecap: square"/>
   </g>
   <g id="line2d_19">
    <path d="M 73.832727 170.84879 
L 81.307256 152.187445 
L 85.53199 142.236498 
L 88.781785 135.09266 
L 91.706601 129.147338 
L 94.306437 124.312362 
L 96.906274 119.952246 
L 99.18113 116.561837 
L 101.455987 113.595765 
L 103.405864 111.408902 
L 105.355741 109.563612 
L 106.980639 108.294578 
L 108.605536 107.275352 
L 110.230434 106.510083 
L 111.855332 106.001916 
L 113.480229 105.75298 
L 115.105127 105.764381 
L 116.730025 106.036195 
L 118.354922 106.567473 
L 119.97982 107.356237 
L 121.604717 108.399493 
L 123.229615 109.693244 
L 125.179492 111.569305 
L 127.129369 113.788385 
L 129.079247 116.338074 
L 131.354103 119.711403 
L 133.62896 123.489434 
L 136.228796 128.265527 
L 139.153612 134.165571 
L 142.403407 141.287465 
L 145.978182 149.680856 
L 150.527895 160.965744 
L 165.801933 199.381292 
L 169.376708 207.508403 
L 172.626503 214.325013 
L 175.226339 219.311722 
L 177.826175 223.829467 
L 180.101032 227.362269 
L 182.375889 230.474549 
L 184.325766 232.789496 
L 186.275643 234.76517 
L 188.22552 236.390619 
L 189.850418 237.471103 
L 191.475315 238.298022 
L 193.100213 238.86828 
L 194.725111 239.1798 
L 196.350008 239.231526 
L 197.974906 239.023433 
L 199.599803 238.556524 
L 201.224701 237.832826 
L 202.849599 236.855384 
L 204.474496 235.628246 
L 206.424373 233.833242 
L 208.374251 231.696521 
L 210.324128 229.230572 
L 212.598984 225.95679 
L 214.873841 222.280406 
L 217.473677 217.623192 
L 220.398493 211.860516 
L 223.648288 204.895979 
L 227.223063 196.681669 
L 231.772776 185.634107 
L 246.396855 149.591726 
L 249.97163 141.581297 
L 253.221425 134.85257 
L 256.146241 129.340199 
L 258.746077 124.933212 
L 261.020934 121.49522 
L 263.29579 118.476139 
L 265.245667 116.240068 
L 267.195545 114.342587 
L 268.820442 113.028136 
L 270.44534 111.962056 
L 272.070238 111.148793 
L 273.695135 110.591794 
L 275.320033 110.293495 
L 276.94493 110.255309 
L 278.569828 110.477622 
L 280.194726 110.959791 
L 281.819623 111.700146 
L 283.444521 112.695998 
L 285.069419 113.943648 
L 286.694316 115.438404 
L 288.644193 117.55024 
L 290.59407 119.998089 
L 292.868927 123.260463 
L 295.143784 126.937114 
L 297.74362 131.610467 
L 300.343456 136.742229 
L 303.268272 142.999866 
L 306.518067 150.461714 
L 310.417821 159.964254 
L 316.267453 174.893281 
L 325.0419 197.313846 
L 329.266634 207.471638 
L 332.841409 215.46671 
L 335.766224 221.486726 
L 338.366061 226.377729 
L 340.965897 230.785161 
L 343.240753 234.210698 
L 345.51561 237.206881 
L 347.465487 239.416204 
L 349.415364 241.281451 
L 351.040262 242.565622 
L 352.66516 243.59899 
L 354.290057 244.377759 
L 355.914955 244.899136 
L 357.539853 245.161351 
L 359.16475 245.163656 
L 360.789648 244.906335 
L 362.414545 244.390699 
L 364.039443 243.619082 
L 365.664341 242.594829 
L 367.289238 241.322289 
L 369.239115 239.475073 
L 371.188993 237.289083 
L 373.13887 234.777283 
L 375.413726 231.454937 
L 377.688583 227.73595 
L 380.288419 223.038165 
L 383.213235 217.241238 
L 386.46303 210.254066 
L 390.037805 202.035053 
L 394.912498 190.210983 
L 398.487273 181.31209 
L 398.487273 181.31209 
" clip-path="url(#p311ff73689)" style="fill: none; stroke: #2ca02c; stroke-width: 1.5; stroke-linecap: square"/>
   </g>
   <g id="line2d_20">
    <path d="M 73.832727 154.818365 
L 84.232072 136.160423 
L 87.806847 130.254381 
L 91.056642 125.324236 
L 93.656478 121.753754 
L 96.256314 118.568441 
L 98.531171 116.132186 
L 100.481048 114.325998 
L 102.430925 112.796048 
L 104.380803 111.555598 
L 106.0057 110.751358 
L 107.630598 110.161792 
L 109.255495 109.791622 
L 110.880393 109.644626 
L 112.505291 109.723631 
L 114.130188 110.030499 
L 115.755086 110.56612 
L 117.379984 111.330411 
L 119.004881 112.322318 
L 120.954758 113.810145 
L 122.904636 115.617463 
L 124.854513 117.737005 
L 126.80439 120.159595 
L 129.079247 123.354151 
L 131.354103 126.925512 
L 133.953939 131.43787 
L 136.878755 137.015193 
L 140.12855 143.758601 
L 143.703325 151.72756 
L 147.928059 161.701131 
L 155.077609 179.271054 
L 161.902179 195.838641 
L 166.126912 205.498162 
L 169.376708 212.423378 
L 172.301523 218.182235 
L 174.90136 222.863324 
L 177.501196 227.083527 
L 179.776052 230.364818 
L 182.050909 233.235591 
L 184.000786 235.352611 
L 185.950663 237.139589 
L 187.900541 238.586258 
L 189.525438 239.525749 
L 191.150336 240.219225 
L 192.775233 240.6638 
L 194.400131 240.857549 
L 196.025029 240.799514 
L 197.649926 240.48971 
L 199.274824 239.929124 
L 200.899722 239.119716 
L 202.524619 238.064407 
L 204.149517 236.767071 
L 206.099394 234.897636 
L 208.049271 232.696725 
L 209.999148 230.176256 
L 212.274005 226.850198 
L 214.548862 223.132599 
L 217.148698 218.44011 
L 220.073514 212.650198 
L 223.323309 205.666867 
L 226.898084 197.440067 
L 231.447797 186.378319 
L 247.046814 147.871343 
L 250.621589 139.892748 
L 253.871384 133.193468 
L 256.7962 127.703093 
L 259.396036 123.308682 
L 261.670893 119.874102 
L 263.945749 116.849576 
L 265.895627 114.600598 
L 267.845504 112.681648 
L 269.795381 111.103101 
L 271.420278 110.053849 
L 273.045176 109.250784 
L 274.670074 108.696827 
L 276.294971 108.393938 
L 277.919869 108.343103 
L 279.544767 108.544338 
L 281.169664 108.996685 
L 282.794562 109.698218 
L 284.419459 110.646053 
L 286.044357 111.836357 
L 287.994234 113.578011 
L 289.944111 115.651959 
L 291.893989 118.046413 
L 294.168845 121.22686 
L 296.443702 124.800652 
L 299.043538 129.331476 
L 301.968354 134.94374 
L 305.218149 141.736296 
L 308.792924 149.763524 
L 313.342637 160.591698 
L 322.117084 182.267299 
L 327.641736 195.575633 
L 331.541491 204.430314 
L 334.791286 211.312069 
L 337.716102 217.030958 
L 340.315938 221.681432 
L 342.915774 225.881169 
L 345.190631 229.157451 
L 347.465487 232.039643 
L 349.415364 234.182878 
L 351.365242 236.0143 
L 353.315119 237.526642 
L 354.940016 238.539293 
L 356.564914 239.324614 
L 358.189812 239.88155 
L 359.814709 240.210019 
L 361.439607 240.310911 
L 363.064505 240.186088 
L 364.689402 239.838376 
L 366.3143 239.271555 
L 367.939197 238.490344 
L 369.889075 237.277907 
L 371.838952 235.776381 
L 373.788829 233.999029 
L 376.063686 231.596936 
L 378.338542 228.866525 
L 380.938378 225.381979 
L 383.863194 221.055586 
L 387.112989 215.831856 
L 391.012744 209.135551 
L 398.162293 196.297962 
L 398.487273 195.713717 
L 398.487273 195.713717 
" clip-path="url(#p311ff73689)" style="fill: none; stroke: #d62728; stroke-width: 1.5; stroke-linecap: square"/>
   </g>
   <g id="line2d_21">
    <path d="M 73.832727 167.916422 
L 76.757543 157.771285 
L 79.357379 149.500496 
L 81.957215 141.934934 
L 84.557052 135.077317 
L 86.831908 129.659935 
L 89.106765 124.788598 
L 91.381622 120.464676 
L 93.331499 117.194727 
L 95.281376 114.327465 
L 97.231253 111.862286 
L 99.18113 109.797931 
L 100.806028 108.382406 
L 102.430925 107.24228 
L 104.055823 106.375552 
L 105.680721 105.779778 
L 107.305618 105.452045 
L 108.930516 105.388956 
L 110.555414 105.586606 
L 112.180311 106.040577 
L 113.805209 106.745916 
L 115.430106 107.697139 
L 117.055004 108.888213 
L 119.004881 110.624809 
L 120.954758 112.684898 
L 122.904636 115.054963 
L 125.179492 118.192253 
L 127.454349 121.70646 
L 130.054185 126.149552 
L 132.979001 131.640488 
L 136.228796 138.275714 
L 139.803571 146.112697 
L 144.028305 155.921586 
L 150.527895 171.652612 
L 158.652383 191.215857 
L 162.877117 200.825989 
L 166.451892 208.433496 
L 169.701687 214.81812 
L 172.626503 220.055853 
L 175.226339 224.257749 
L 177.501196 227.553318 
L 179.776052 230.469763 
L 181.72593 232.652825 
L 183.675807 234.532037 
L 185.625684 236.098133 
L 187.575561 237.343431 
L 189.200459 238.131708 
L 190.825356 238.690351 
L 192.450254 239.017545 
L 194.075152 239.112295 
L 195.700049 238.974428 
L 197.324947 238.604597 
L 198.949844 238.004273 
L 200.574742 237.175751 
L 202.19964 236.122134 
L 204.149517 234.566218 
L 206.099394 232.700066 
L 208.049271 230.533509 
L 210.324128 227.641433 
L 212.598984 224.376612 
L 215.198821 220.218853 
L 217.798657 215.643174 
L 220.723473 210.048863 
L 223.973268 203.355375 
L 227.873022 194.79198 
L 233.072695 182.766421 
L 245.746896 153.157823 
L 249.64665 144.709838 
L 252.896446 138.14074 
L 255.821261 132.678307 
L 258.421097 128.234047 
L 261.020934 124.219439 
L 263.29579 121.088162 
L 265.570647 118.336083 
L 267.520524 116.293686 
L 269.470401 114.554652 
L 271.420278 113.12795 
L 273.045176 112.182978 
L 274.670074 111.463433 
L 276.294971 110.9719 
L 277.919869 110.710155 
L 279.544767 110.679155 
L 281.169664 110.87904 
L 282.794562 111.309132 
L 284.419459 111.96794 
L 286.044357 112.853164 
L 287.669255 113.961709 
L 289.619132 115.581229 
L 291.569009 117.508537 
L 293.518886 119.733919 
L 295.793743 122.691895 
L 298.0686 126.020002 
L 300.668436 130.247452 
L 303.268272 134.89079 
L 306.193088 140.560008 
L 309.442883 147.33716 
L 313.342637 156.005107 
L 318.21733 167.410341 
L 332.516429 201.263311 
L 336.416183 209.753256 
L 339.665979 216.339274 
L 342.590794 221.804452 
L 345.190631 226.24157 
L 347.790467 230.239577 
L 350.065324 233.347608 
L 352.34018 236.06682 
L 354.290057 238.071834 
L 356.239934 239.763178 
L 358.189812 241.129734 
L 359.814709 242.013195 
L 361.439607 242.658989 
L 363.064505 243.062492 
L 364.689402 243.219615 
L 366.3143 243.126796 
L 367.939197 242.780984 
L 369.564095 242.179627 
L 371.188993 241.320647 
L 372.81389 240.202423 
L 374.438788 238.823763 
L 376.063686 237.183877 
L 378.013563 234.870637 
L 379.96344 232.180576 
L 381.913317 229.114237 
L 383.863194 225.672693 
L 386.138051 221.185363 
L 388.412907 216.192326 
L 390.687764 210.696881 
L 393.2876 203.805567 
L 395.887437 196.267387 
L 398.487273 188.086481 
L 398.487273 188.086481 
" clip-path="url(#p311ff73689)" style="fill: none; stroke: #9467bd; stroke-width: 1.5; stroke-linecap: square"/>
   </g>
   <g id="line2d_22">
    <path d="M 73.832727 158.08614 
L 74.807666 162.135984 
L 75.457625 164.034639 
L 76.107584 165.355404 
L 76.757543 166.149102 
L 77.407502 166.463773 
L 78.057461 166.344787 
L 78.70742 165.834949 
L 79.357379 164.974597 
L 80.332318 163.109303 
L 81.307256 160.658962 
L 82.607174 156.666832 
L 84.232072 150.827013 
L 86.831908 140.389642 
L 91.381622 121.959246 
L 93.656478 113.764797 
L 95.606355 107.629039 
L 97.231253 103.237497 
L 98.856151 99.547836 
L 100.156069 97.11607 
L 101.455987 95.149581 
L 102.755905 93.644597 
L 103.730844 92.813467 
L 104.705782 92.231475 
L 105.680721 91.891945 
L 106.655659 91.787161 
L 107.630598 91.908533 
L 108.605536 92.24674 
L 109.580475 92.791868 
L 110.880393 93.82259 
L 112.180311 95.177142 
L 113.480229 96.82931 
L 115.105127 99.272647 
L 117.055004 102.691179 
L 119.004881 106.558178 
L 121.604717 112.268174 
L 124.854513 120.041298 
L 129.729206 132.396735 
L 137.528714 152.170562 
L 141.753448 162.279799 
L 145.653202 171.056346 
L 149.552957 179.259823 
L 153.127731 186.280729 
L 156.702506 192.84757 
L 160.277281 198.98894 
L 164.177035 205.232485 
L 167.75181 210.552211 
L 171.326585 215.483203 
L 174.57638 219.610845 
L 177.826175 223.369964 
L 180.750991 226.403866 
L 183.350827 228.791667 
L 185.625684 230.618101 
L 187.900541 232.17676 
L 190.175397 233.445456 
L 192.125274 234.285177 
L 194.075152 234.881616 
L 196.025029 235.221485 
L 197.649926 235.299692 
L 199.274824 235.184404 
L 200.899722 234.869614 
L 202.524619 234.350053 
L 204.149517 233.621282 
L 205.774414 232.679786 
L 207.724292 231.265725 
L 209.674169 229.539472 
L 211.624046 227.501095 
L 213.573923 225.153153 
L 215.84878 222.029626 
L 218.123636 218.504526 
L 220.398493 214.595447 
L 222.998329 209.686786 
L 225.923145 203.651785 
L 229.17294 196.392383 
L 233.072695 187.066125 
L 238.272367 173.955837 
L 248.021753 149.23442 
L 251.921507 140.033299 
L 255.171302 132.946513 
L 257.771138 127.754414 
L 260.370975 123.054673 
L 262.645831 119.390499 
L 264.920688 116.179252 
L 266.870565 113.808844 
L 268.820442 111.807022 
L 270.44534 110.429251 
L 272.070238 109.32145 
L 273.695135 108.487728 
L 275.320033 107.930781 
L 276.94493 107.651884 
L 278.569828 107.650906 
L 280.194726 107.926326 
L 281.819623 108.475262 
L 283.444521 109.293508 
L 285.069419 110.375583 
L 286.694316 111.714782 
L 288.644193 113.650077 
L 290.59407 115.928609 
L 292.543948 118.532671 
L 294.818804 121.955985 
L 297.41864 126.334672 
L 300.018477 131.158431 
L 302.943292 137.045119 
L 306.518067 144.780511 
L 310.742801 154.483069 
L 317.567371 170.806119 
L 325.0419 188.544264 
L 329.591613 198.781536 
L 333.491368 207.006872 
L 336.741163 213.37862 
L 339.665979 218.680152 
L 342.590794 223.52501 
L 345.190631 227.413153 
L 347.790467 230.876054 
L 350.065324 233.533248 
L 352.34018 235.820523 
L 354.290057 237.470349 
L 356.239934 238.818805 
L 357.864832 239.702227 
L 359.48973 240.358587 
L 361.114627 240.779944 
L 362.739525 240.958648 
L 364.364423 240.887541 
L 365.98932 240.56021 
L 367.614218 239.971294 
L 369.239115 239.116855 
L 370.864013 237.994815 
L 372.488911 236.605468 
L 374.113808 234.952071 
L 376.063686 232.62946 
L 378.013563 229.957256 
L 380.288419 226.441068 
L 382.888256 221.991153 
L 387.112989 214.217442 
L 390.362785 208.395209 
L 392.312662 205.306046 
L 393.937559 203.149763 
L 395.237477 201.804377 
L 396.212416 201.073439 
L 397.187355 200.626 
L 397.837314 200.507043 
L 398.487273 200.547942 
L 398.487273 200.547942 
" clip-path="url(#p311ff73689)" style="fill: none; stroke: #8c564b; stroke-width: 1.5; stroke-linecap: square"/>
   </g>
   <g id="line2d_23">
    <path d="M 73.832727 155.430647 
L 74.157707 155.37115 
L 74.482686 155.763107 
L 75.132645 157.504091 
L 76.107584 161.333917 
L 77.407502 166.444367 
L 78.057461 168.40203 
L 78.70742 169.771171 
L 79.357379 170.490552 
L 79.682359 170.600577 
L 80.007338 170.545674 
L 80.332318 170.329322 
L 80.982277 169.433479 
L 81.632236 167.966476 
L 82.282195 165.994542 
L 83.257133 162.25083 
L 84.557052 156.18656 
L 86.831908 144.14891 
L 89.756724 128.958089 
L 91.706601 120.113774 
L 93.331499 113.714947 
L 94.956396 108.16 
L 96.581294 103.352216 
L 98.206192 99.187234 
L 99.831089 95.584528 
L 101.455987 92.504086 
L 103.080885 89.950636 
L 104.380803 88.316004 
L 105.680721 87.082736 
L 106.655659 86.447003 
L 107.630598 86.080306 
L 108.605536 86.001046 
L 109.580475 86.22586 
L 110.555414 86.76862 
L 111.530352 87.639581 
L 112.505291 88.844696 
L 113.480229 90.3851 
L 114.780147 92.952846 
L 116.080066 96.084804 
L 117.704963 100.729882 
L 119.329861 106.079519 
L 121.604717 114.47372 
L 125.504472 130.044299 
L 128.754267 142.607654 
L 130.704144 149.378682 
L 132.654021 155.313081 
L 134.278919 159.519212 
L 135.578837 162.369474 
L 136.878755 164.757685 
L 138.178673 166.694944 
L 139.478591 168.20585 
L 140.778509 169.32723 
L 142.078428 170.106536 
L 143.378346 170.600006 
L 144.678264 170.870632 
L 146.628141 171.007372 
L 150.527895 171.176063 
L 152.152793 171.543456 
L 153.452711 172.077932 
L 154.752629 172.877154 
L 156.052547 173.978661 
L 157.352465 175.41028 
L 158.652383 177.189654 
L 159.952301 179.324063 
L 161.577199 182.485843 
L 163.202097 186.169547 
L 165.151974 191.207644 
L 167.42683 197.77878 
L 170.676626 207.978808 
L 175.876298 224.331598 
L 178.151155 230.743336 
L 180.101032 235.598203 
L 181.72593 239.096043 
L 183.350827 242.036949 
L 184.650745 243.962638 
L 185.950663 245.495648 
L 187.250581 246.631153 
L 188.22552 247.222744 
L 189.200459 247.594667 
L 190.175397 247.751836 
L 191.150336 247.700879 
L 192.125274 247.449985 
L 193.100213 247.008729 
L 194.400131 246.143058 
L 195.700049 244.986522 
L 197.324947 243.17865 
L 198.949844 241.027197 
L 200.899722 238.082044 
L 203.499558 233.714108 
L 207.724292 226.074102 
L 214.548862 213.743574 
L 227.873022 190.175948 
L 231.122817 183.650001 
L 234.372613 176.591578 
L 237.947387 168.275021 
L 249.321671 141.310958 
L 251.921507 136.012388 
L 254.196364 131.90153 
L 256.146241 128.820581 
L 258.096118 126.172651 
L 259.721016 124.300582 
L 261.345913 122.725459 
L 262.970811 121.431531 
L 264.595708 120.395155 
L 266.545586 119.448147 
L 268.495463 118.765117 
L 270.770319 118.20873 
L 274.670074 117.546447 
L 278.894808 116.766504 
L 282.144603 115.913599 
L 290.59407 113.442911 
L 292.218968 113.283944 
L 293.843866 113.374559 
L 295.143784 113.673461 
L 296.443702 114.211599 
L 297.74362 115.022256 
L 299.043538 116.135878 
L 300.343456 117.578973 
L 301.643374 119.373064 
L 302.943292 121.533728 
L 304.24321 124.069751 
L 305.868108 127.768844 
L 307.493006 132.040716 
L 309.442883 137.871597 
L 311.71774 145.515379 
L 314.317576 155.078632 
L 322.767043 186.843344 
L 324.716921 193.124872 
L 326.666798 198.667696 
L 328.291695 202.660501 
L 329.916593 206.065578 
L 331.541491 208.899241 
L 333.166388 211.210399 
L 334.791286 213.079128 
L 336.416183 214.613156 
L 339.01602 216.700786 
L 341.615856 218.860161 
L 343.240753 220.507154 
L 344.865651 222.529179 
L 346.165569 224.475682 
L 347.790467 227.358557 
L 349.415364 230.736759 
L 351.365242 235.352359 
L 357.539853 250.685424 
L 358.839771 253.110926 
L 359.814709 254.518572 
L 360.789648 255.498938 
L 361.439607 255.884514 
L 362.089566 256.036459 
L 362.739525 255.940487 
L 363.389484 255.584685 
L 364.039443 254.959878 
L 364.689402 254.059994 
L 365.664341 252.189693 
L 366.639279 249.702857 
L 367.614218 246.628106 
L 368.914136 241.706347 
L 370.539034 234.510936 
L 375.413726 211.883087 
L 376.388665 208.46119 
L 377.363604 205.821085 
L 378.013563 204.571834 
L 378.663522 203.776142 
L 379.313481 203.463561 
L 379.63846 203.495019 
L 379.96344 203.653765 
L 380.613399 204.354775 
L 381.263358 205.561187 
L 381.913317 207.252492 
L 382.888256 210.612428 
L 384.188174 216.288942 
L 387.112989 229.845103 
L 387.762948 231.986596 
L 388.412907 233.431504 
L 388.737887 233.835649 
L 389.062867 233.998017 
L 389.387846 233.897538 
L 389.712826 233.514484 
L 390.037805 232.830895 
L 390.687764 230.502011 
L 391.337723 226.82196 
L 391.987682 221.766276 
L 392.962621 211.773961 
L 394.262539 195.304918 
L 395.562457 179.369088 
L 396.212416 174.067428 
L 396.537396 172.721316 
L 396.862375 172.559498 
L 397.187355 173.857071 
L 397.512334 176.923981 
L 397.837314 182.10813 
L 398.162293 189.798713 
L 398.487273 200.42977 
L 398.487273 200.42977 
" clip-path="url(#p311ff73689)" style="fill: none; stroke: #e377c2; stroke-width: 1.5; stroke-linecap: square"/>
   </g>
   <g id="patch_3">
    <path d="M 57.6 307.584 
L 57.6 41.472 
" style="fill: none; stroke: #000000; stroke-width: 0.8; stroke-linejoin: miter; stroke-linecap: square"/>
   </g>
   <g id="patch_4">
    <path d="M 414.72 307.584 
L 414.72 41.472 
" style="fill: none; stroke: #000000; stroke-width: 0.8; stroke-linejoin: miter; stroke-linecap: square"/>
   </g>
   <g id="patch_5">
    <path d="M 57.6 307.584 
L 414.72 307.584 
" style="fill: none; stroke: #000000; stroke-width: 0.8; stroke-linejoin: miter; stroke-linecap: square"/>
   </g>
   <g id="patch_6">
    <path d="M 57.6 41.472 
L 414.72 41.472 
" style="fill: none; stroke: #000000; stroke-width: 0.8; stroke-linejoin: miter; stroke-linecap: square"/>
   </g>
   <g id="legend_1">
    <g id="patch_7">
     <path d="M 355.080938 148.445438 
L 407.72 148.445438 
Q 409.72 148.445438 409.72 146.445438 
L 409.72 48.472 
Q 409.72 46.472 407.72 46.472 
L 355.080938 46.472 
Q 353.080938 46.472 353.080938 48.472 
L 353.080938 146.445438 
Q 353.080938 148.445438 355.080938 148.445438 
z
" style="fill: #ffffff; opacity: 0.8; stroke: #cccccc; stroke-linejoin: miter"/>
    </g>
    <g id="line2d_24">
     <path d="M 357.080938 53.972 
L 367.080938 53.972 
L 377.080938 53.972 
" style="fill: none; stroke: #1f77b4; stroke-width: 1.5; stroke-linecap: square"/>
    </g>
    <g id="text_17">
     <!-- k=0 -->
     <g transform="translate(385.080938 57.472) scale(0.1 -0.1)">
      <defs>
       <path id="TimesNewRomanPSMT-6b" d="M 1047 4444 
L 1047 1597 
L 1775 2259 
Q 2006 2472 2044 2528 
Q 2069 2566 2069 2603 
Q 2069 2666 2017 2711 
Q 1966 2756 1847 2763 
L 1847 2863 
L 3091 2863 
L 3091 2763 
Q 2834 2756 2664 2684 
Q 2494 2613 2291 2428 
L 1556 1750 
L 2291 822 
Q 2597 438 2703 334 
Q 2853 188 2966 144 
Q 3044 113 3238 113 
L 3238 0 
L 1847 0 
L 1847 113 
Q 1966 116 2008 148 
Q 2050 181 2050 241 
Q 2050 313 1925 472 
L 1047 1594 
L 1047 644 
Q 1047 366 1086 278 
Q 1125 191 1197 153 
Q 1269 116 1509 113 
L 1509 0 
L 53 0 
L 53 113 
Q 272 113 381 166 
Q 447 200 481 272 
Q 528 375 528 628 
L 528 3234 
Q 528 3731 506 3842 
Q 484 3953 434 3995 
Q 384 4038 303 4038 
Q 238 4038 106 3984 
L 53 4094 
L 903 4444 
L 1047 4444 
z
" transform="scale(0.015625)"/>
       <path id="TimesNewRomanPSMT-3d" d="M 116 2759 
L 3488 2759 
L 3488 2503 
L 116 2503 
L 116 2759 
z
M 116 1741 
L 3488 1741 
L 3488 1484 
L 116 1484 
L 116 1741 
z
" transform="scale(0.015625)"/>
      </defs>
      <use xlink:href="#TimesNewRomanPSMT-6b"/>
      <use xlink:href="#TimesNewRomanPSMT-3d" transform="translate(50 0)"/>
      <use xlink:href="#TimesNewRomanPSMT-30" transform="translate(106.396484 0)"/>
     </g>
    </g>
    <g id="line2d_25">
     <path d="M 357.080938 68.111063 
L 367.080938 68.111063 
L 377.080938 68.111063 
" style="fill: none; stroke: #ff7f0e; stroke-width: 1.5; stroke-linecap: square"/>
    </g>
    <g id="text_18">
     <!-- k=1 -->
     <g transform="translate(385.080938 71.611063) scale(0.1 -0.1)">
      <use xlink:href="#TimesNewRomanPSMT-6b"/>
      <use xlink:href="#TimesNewRomanPSMT-3d" transform="translate(50 0)"/>
      <use xlink:href="#TimesNewRomanPSMT-31" transform="translate(106.396484 0)"/>
     </g>
    </g>
    <g id="line2d_26">
     <path d="M 357.080938 82.250125 
L 367.080938 82.250125 
L 377.080938 82.250125 
" style="fill: none; stroke: #2ca02c; stroke-width: 1.5; stroke-linecap: square"/>
    </g>
    <g id="text_19">
     <!-- k=2 -->
     <g transform="translate(385.080938 85.750125) scale(0.1 -0.1)">
      <use xlink:href="#TimesNewRomanPSMT-6b"/>
      <use xlink:href="#TimesNewRomanPSMT-3d" transform="translate(50 0)"/>
      <use xlink:href="#TimesNewRomanPSMT-32" transform="translate(106.396484 0)"/>
     </g>
    </g>
    <g id="line2d_27">
     <path d="M 357.080938 96.389188 
L 367.080938 96.389188 
L 377.080938 96.389188 
" style="fill: none; stroke: #d62728; stroke-width: 1.5; stroke-linecap: square"/>
    </g>
    <g id="text_20">
     <!-- k=3 -->
     <g transform="translate(385.080938 99.889188) scale(0.1 -0.1)">
      <defs>
       <path id="TimesNewRomanPSMT-33" d="M 325 3431 
Q 506 3859 782 4092 
Q 1059 4325 1472 4325 
Q 1981 4325 2253 3994 
Q 2459 3747 2459 3466 
Q 2459 3003 1878 2509 
Q 2269 2356 2469 2072 
Q 2669 1788 2669 1403 
Q 2669 853 2319 450 
Q 1863 -75 997 -75 
Q 569 -75 414 31 
Q 259 138 259 259 
Q 259 350 332 419 
Q 406 488 509 488 
Q 588 488 669 463 
Q 722 447 909 348 
Q 1097 250 1169 231 
Q 1284 197 1416 197 
Q 1734 197 1970 444 
Q 2206 691 2206 1028 
Q 2206 1275 2097 1509 
Q 2016 1684 1919 1775 
Q 1784 1900 1550 2001 
Q 1316 2103 1072 2103 
L 972 2103 
L 972 2197 
Q 1219 2228 1467 2375 
Q 1716 2522 1828 2728 
Q 1941 2934 1941 3181 
Q 1941 3503 1739 3701 
Q 1538 3900 1238 3900 
Q 753 3900 428 3381 
L 325 3431 
z
" transform="scale(0.015625)"/>
      </defs>
      <use xlink:href="#TimesNewRomanPSMT-6b"/>
      <use xlink:href="#TimesNewRomanPSMT-3d" transform="translate(50 0)"/>
      <use xlink:href="#TimesNewRomanPSMT-33" transform="translate(106.396484 0)"/>
     </g>
    </g>
    <g id="line2d_28">
     <path d="M 357.080938 110.52825 
L 367.080938 110.52825 
L 377.080938 110.52825 
" style="fill: none; stroke: #9467bd; stroke-width: 1.5; stroke-linecap: square"/>
    </g>
    <g id="text_21">
     <!-- k=5 -->
     <g transform="translate(385.080938 114.02825) scale(0.1 -0.1)">
      <use xlink:href="#TimesNewRomanPSMT-6b"/>
      <use xlink:href="#TimesNewRomanPSMT-3d" transform="translate(50 0)"/>
      <use xlink:href="#TimesNewRomanPSMT-35" transform="translate(106.396484 0)"/>
     </g>
    </g>
    <g id="line2d_29">
     <path d="M 357.080938 124.667313 
L 367.080938 124.667313 
L 377.080938 124.667313 
" style="fill: none; stroke: #8c564b; stroke-width: 1.5; stroke-linecap: square"/>
    </g>
    <g id="text_22">
     <!-- k=10 -->
     <g transform="translate(385.080938 128.167313) scale(0.1 -0.1)">
      <use xlink:href="#TimesNewRomanPSMT-6b"/>
      <use xlink:href="#TimesNewRomanPSMT-3d" transform="translate(50 0)"/>
      <use xlink:href="#TimesNewRomanPSMT-31" transform="translate(106.396484 0)"/>
      <use xlink:href="#TimesNewRomanPSMT-30" transform="translate(156.396484 0)"/>
     </g>
    </g>
    <g id="line2d_30">
     <path d="M 357.080938 138.806375 
L 367.080938 138.806375 
L 377.080938 138.806375 
" style="fill: none; stroke: #e377c2; stroke-width: 1.5; stroke-linecap: square"/>
    </g>
    <g id="text_23">
     <!-- k=20 -->
     <g transform="translate(385.080938 142.306375) scale(0.1 -0.1)">
      <use xlink:href="#TimesNewRomanPSMT-6b"/>
      <use xlink:href="#TimesNewRomanPSMT-3d" transform="translate(50 0)"/>
      <use xlink:href="#TimesNewRomanPSMT-32" transform="translate(106.396484 0)"/>
      <use xlink:href="#TimesNewRomanPSMT-30" transform="translate(156.396484 0)"/>
     </g>
    </g>
   </g>
  </g>
 </g>
 <defs>
  <clipPath id="p311ff73689">
   <rect x="57.6" y="41.472" width="357.12" height="266.112"/>
  </clipPath>
 </defs>
</svg>
