<?xml version="1.0" encoding="utf-8" standalone="no"?>
<!DOCTYPE svg PUBLIC "-//W3C//DTD SVG 1.1//EN"
  "http://www.w3.org/Graphics/SVG/1.1/DTD/svg11.dtd">
<svg xmlns:xlink="http://www.w3.org/1999/xlink" width="460.8pt" height="345.6pt" viewBox="0 0 460.8 345.6" xmlns="http://www.w3.org/2000/svg" version="1.1">
 <metadata>
  <rdf:RDF xmlns:dc="http://purl.org/dc/elements/1.1/" xmlns:cc="http://creativecommons.org/ns#" xmlns:rdf="http://www.w3.org/1999/02/22-rdf-syntax-ns#">
   <cc:Work>
    <dc:type rdf:resource="http://purl.org/dc/dcmitype/StillImage"/>
    <dc:date>2025-10-07T22:38:29.136264</dc:date>
    <dc:format>image/svg+xml</dc:format>
    <dc:creator>
     <cc:Agent>
      <dc:title>Matplotlib v3.10.0, https://matplotlib.org/</dc:title>
     </cc:Agent>
    </dc:creator>
   </cc:Work>
  </rdf:RDF>
 </metadata>
 <defs>
  <style type="text/css">*{stroke-linejoin: round; stroke-linecap: butt}</style>
 </defs>
 <g id="figure_1">
  <g id="patch_1">
   <path d="M 0 345.6 
L 460.8 345.6 
L 460.8 0 
L 0 0 
z
" style="fill: #ffffff"/>
  </g>
  <g id="axes_1">
   <g id="patch_2">
    <path d="M 57.6 307.584 
L 414.72 307.584 
L 414.72 41.472 
L 57.6 41.472 
z
" style="fill: #ffffff"/>
   </g>
   <g id="PathCollection_1">
    <defs>
     <path id="m95ba125e60" d="M 0 3 
C 0.795609 3 1.55874 2.683901 2.12132 2.12132 
C 2.683901 1.55874 3 0.795609 3 0 
C 3 -0.795609 2.683901 -1.55874 2.12132 -2.12132 
C 1.55874 -2.683901 0.795609 -3 0 -3 
C -0.795609 -3 -1.55874 -2.683901 -2.12132 -2.12132 
C -2.683901 -1.55874 -3 -0.795609 -3 0 
C -3 0.795609 -2.683901 1.55874 -2.12132 2.12132 
C -1.55874 2.683901 -0.795609 3 0 3 
z
" style="stroke: #1f77b4"/>
    </defs>
    <g clip-path="url(#p615facc16b)">
     <use xlink:href="#m95ba125e60" x="191.888926" y="262.589101" style="fill: #1f77b4; stroke: #1f77b4"/>
     <use xlink:href="#m95ba125e60" x="385.369917" y="215.897516" style="fill: #1f77b4; stroke: #1f77b4"/>
     <use xlink:href="#m95ba125e60" x="300.107107" y="125.034427" style="fill: #1f77b4; stroke: #1f77b4"/>
     <use xlink:href="#m95ba125e60" x="316.503802" y="153.57152" style="fill: #1f77b4; stroke: #1f77b4"/>
     <use xlink:href="#m95ba125e60" x="352.576529" y="230.133581" style="fill: #1f77b4; stroke: #1f77b4"/>
     <use xlink:href="#m95ba125e60" x="113.184793" y="99.497175" style="fill: #1f77b4; stroke: #1f77b4"/>
     <use xlink:href="#m95ba125e60" x="375.531901" y="215.568677" style="fill: #1f77b4; stroke: #1f77b4"/>
     <use xlink:href="#m95ba125e60" x="93.50876" y="82.989124" style="fill: #1f77b4; stroke: #1f77b4"/>
     <use xlink:href="#m95ba125e60" x="73.832727" y="157.105197" style="fill: #1f77b4; stroke: #1f77b4"/>
     <use xlink:href="#m95ba125e60" x="165.654215" y="210.940592" style="fill: #1f77b4; stroke: #1f77b4"/>
     <use xlink:href="#m95ba125e60" x="398.487273" y="200.023583" style="fill: #1f77b4; stroke: #1f77b4"/>
     <use xlink:href="#m95ba125e60" x="182.050909" y="235.618889" style="fill: #1f77b4; stroke: #1f77b4"/>
     <use xlink:href="#m95ba125e60" x="90.229421" y="133.208395" style="fill: #1f77b4; stroke: #1f77b4"/>
     <use xlink:href="#m95ba125e60" x="96.788099" y="122.390173" style="fill: #1f77b4; stroke: #1f77b4"/>
     <use xlink:href="#m95ba125e60" x="132.860826" y="175.904193" style="fill: #1f77b4; stroke: #1f77b4"/>
     <use xlink:href="#m95ba125e60" x="237.799669" y="157.60209" style="fill: #1f77b4; stroke: #1f77b4"/>
     <use xlink:href="#m95ba125e60" x="139.419504" y="196.270932" style="fill: #1f77b4; stroke: #1f77b4"/>
     <use xlink:href="#m95ba125e60" x="391.928595" y="229.971063" style="fill: #1f77b4; stroke: #1f77b4"/>
     <use xlink:href="#m95ba125e60" x="205.006281" y="221.789781" style="fill: #1f77b4; stroke: #1f77b4"/>
     <use xlink:href="#m95ba125e60" x="244.358347" y="131.69485" style="fill: #1f77b4; stroke: #1f77b4"/>
     <use xlink:href="#m95ba125e60" x="136.140165" y="144.613708" style="fill: #1f77b4; stroke: #1f77b4"/>
     <use xlink:href="#m95ba125e60" x="77.112066" y="160.135979" style="fill: #1f77b4; stroke: #1f77b4"/>
     <use xlink:href="#m95ba125e60" x="260.755041" y="133.514487" style="fill: #1f77b4; stroke: #1f77b4"/>
     <use xlink:href="#m95ba125e60" x="100.067438" y="101.283336" style="fill: #1f77b4; stroke: #1f77b4"/>
     <use xlink:href="#m95ba125e60" x="254.196364" y="137.747725" style="fill: #1f77b4; stroke: #1f77b4"/>
     <use xlink:href="#m95ba125e60" x="149.257521" y="168.760339" style="fill: #1f77b4; stroke: #1f77b4"/>
     <use xlink:href="#m95ba125e60" x="286.989752" y="98.057766" style="fill: #1f77b4; stroke: #1f77b4"/>
     <use xlink:href="#m95ba125e60" x="188.609587" y="256.19162" style="fill: #1f77b4; stroke: #1f77b4"/>
     <use xlink:href="#m95ba125e60" x="362.414545" y="269.896148" style="fill: #1f77b4; stroke: #1f77b4"/>
     <use xlink:href="#m95ba125e60" x="218.123636" y="235.979652" style="fill: #1f77b4; stroke: #1f77b4"/>
     <use xlink:href="#m95ba125e60" x="349.29719" y="247.916243" style="fill: #1f77b4; stroke: #1f77b4"/>
     <use xlink:href="#m95ba125e60" x="293.54843" y="102.801989" style="fill: #1f77b4; stroke: #1f77b4"/>
     <use xlink:href="#m95ba125e60" x="257.475702" y="127.932783" style="fill: #1f77b4; stroke: #1f77b4"/>
     <use xlink:href="#m95ba125e60" x="159.095537" y="181.941926" style="fill: #1f77b4; stroke: #1f77b4"/>
     <use xlink:href="#m95ba125e60" x="162.374876" y="156.210402" style="fill: #1f77b4; stroke: #1f77b4"/>
     <use xlink:href="#m95ba125e60" x="168.933554" y="203.180598" style="fill: #1f77b4; stroke: #1f77b4"/>
     <use xlink:href="#m95ba125e60" x="119.743471" y="107.155004" style="fill: #1f77b4; stroke: #1f77b4"/>
     <use xlink:href="#m95ba125e60" x="83.670744" y="172.061072" style="fill: #1f77b4; stroke: #1f77b4"/>
     <use xlink:href="#m95ba125e60" x="103.346777" y="89.068798" style="fill: #1f77b4; stroke: #1f77b4"/>
     <use xlink:href="#m95ba125e60" x="211.564959" y="212.586785" style="fill: #1f77b4; stroke: #1f77b4"/>
     <use xlink:href="#m95ba125e60" x="198.447603" y="237.85221" style="fill: #1f77b4; stroke: #1f77b4"/>
     <use xlink:href="#m95ba125e60" x="264.03438" y="127.166264" style="fill: #1f77b4; stroke: #1f77b4"/>
     <use xlink:href="#m95ba125e60" x="86.950083" y="137.602482" style="fill: #1f77b4; stroke: #1f77b4"/>
     <use xlink:href="#m95ba125e60" x="267.313719" y="118.37982" style="fill: #1f77b4; stroke: #1f77b4"/>
     <use xlink:href="#m95ba125e60" x="346.017851" y="214.55558" style="fill: #1f77b4; stroke: #1f77b4"/>
     <use xlink:href="#m95ba125e60" x="395.207934" y="182.716494" style="fill: #1f77b4; stroke: #1f77b4"/>
     <use xlink:href="#m95ba125e60" x="290.269091" y="123.17099" style="fill: #1f77b4; stroke: #1f77b4"/>
     <use xlink:href="#m95ba125e60" x="323.062479" y="182.33405" style="fill: #1f77b4; stroke: #1f77b4"/>
     <use xlink:href="#m95ba125e60" x="332.900496" y="193.201291" style="fill: #1f77b4; stroke: #1f77b4"/>
     <use xlink:href="#m95ba125e60" x="277.151736" y="126.057325" style="fill: #1f77b4; stroke: #1f77b4"/>
     <use xlink:href="#m95ba125e60" x="145.978182" y="159.03185" style="fill: #1f77b4; stroke: #1f77b4"/>
     <use xlink:href="#m95ba125e60" x="388.649256" y="223.393899" style="fill: #1f77b4; stroke: #1f77b4"/>
     <use xlink:href="#m95ba125e60" x="273.872397" y="112.447056" style="fill: #1f77b4; stroke: #1f77b4"/>
     <use xlink:href="#m95ba125e60" x="195.168264" y="210.535541" style="fill: #1f77b4; stroke: #1f77b4"/>
     <use xlink:href="#m95ba125e60" x="185.330248" y="260.849148" style="fill: #1f77b4; stroke: #1f77b4"/>
     <use xlink:href="#m95ba125e60" x="382.090579" y="221.218813" style="fill: #1f77b4; stroke: #1f77b4"/>
     <use xlink:href="#m95ba125e60" x="234.520331" y="183.399432" style="fill: #1f77b4; stroke: #1f77b4"/>
     <use xlink:href="#m95ba125e60" x="280.431074" y="99.910825" style="fill: #1f77b4; stroke: #1f77b4"/>
     <use xlink:href="#m95ba125e60" x="319.78314" y="174.974531" style="fill: #1f77b4; stroke: #1f77b4"/>
     <use xlink:href="#m95ba125e60" x="329.621157" y="229.349356" style="fill: #1f77b4; stroke: #1f77b4"/>
     <use xlink:href="#m95ba125e60" x="201.726942" y="234.855895" style="fill: #1f77b4; stroke: #1f77b4"/>
     <use xlink:href="#m95ba125e60" x="309.945124" y="150.224474" style="fill: #1f77b4; stroke: #1f77b4"/>
     <use xlink:href="#m95ba125e60" x="126.302149" y="118.045057" style="fill: #1f77b4; stroke: #1f77b4"/>
     <use xlink:href="#m95ba125e60" x="372.252562" y="217.983333" style="fill: #1f77b4; stroke: #1f77b4"/>
     <use xlink:href="#m95ba125e60" x="109.905455" y="79.923556" style="fill: #1f77b4; stroke: #1f77b4"/>
     <use xlink:href="#m95ba125e60" x="208.28562" y="229.348147" style="fill: #1f77b4; stroke: #1f77b4"/>
     <use xlink:href="#m95ba125e60" x="283.710413" y="128.526735" style="fill: #1f77b4; stroke: #1f77b4"/>
     <use xlink:href="#m95ba125e60" x="116.464132" y="91.80245" style="fill: #1f77b4; stroke: #1f77b4"/>
     <use xlink:href="#m95ba125e60" x="365.693884" y="240.268874" style="fill: #1f77b4; stroke: #1f77b4"/>
     <use xlink:href="#m95ba125e60" x="172.212893" y="214.400929" style="fill: #1f77b4; stroke: #1f77b4"/>
    </g>
   </g>
   <g id="matplotlib.axis_1">
    <g id="xtick_1">
     <g id="line2d_1">
      <defs>
       <path id="m5b46c5e501" d="M 0 0 
L 0 3.5 
" style="stroke: #000000; stroke-width: 0.8"/>
      </defs>
      <g>
       <use xlink:href="#m5b46c5e501" x="81.148873" y="307.584" style="stroke: #000000; stroke-width: 0.8"/>
      </g>
     </g>
     <g id="text_1">
      <!-- −6 -->
      <g transform="translate(75.829342 321.52775) scale(0.1 -0.1)">
       <defs>
        <path id="TimesNewRomanPSMT-2212" d="M 3484 2000 
L 116 2000 
L 116 2256 
L 3484 2256 
L 3484 2000 
z
" transform="scale(0.015625)"/>
        <path id="TimesNewRomanPSMT-36" d="M 2869 4325 
L 2869 4209 
Q 2456 4169 2195 4045 
Q 1934 3922 1679 3669 
Q 1425 3416 1258 3105 
Q 1091 2794 978 2366 
Q 1428 2675 1881 2675 
Q 2316 2675 2634 2325 
Q 2953 1975 2953 1425 
Q 2953 894 2631 456 
Q 2244 -75 1606 -75 
Q 1172 -75 869 213 
Q 275 772 275 1663 
Q 275 2231 503 2743 
Q 731 3256 1154 3653 
Q 1578 4050 1965 4187 
Q 2353 4325 2688 4325 
L 2869 4325 
z
M 925 2138 
Q 869 1716 869 1456 
Q 869 1156 980 804 
Q 1091 453 1309 247 
Q 1469 100 1697 100 
Q 1969 100 2183 356 
Q 2397 613 2397 1088 
Q 2397 1622 2184 2012 
Q 1972 2403 1581 2403 
Q 1463 2403 1327 2353 
Q 1191 2303 925 2138 
z
" transform="scale(0.015625)"/>
       </defs>
       <use xlink:href="#TimesNewRomanPSMT-2212"/>
       <use xlink:href="#TimesNewRomanPSMT-36" transform="translate(56.396484 0)"/>
      </g>
     </g>
    </g>
    <g id="xtick_2">
     <g id="line2d_2">
      <g>
       <use xlink:href="#m5b46c5e501" x="132.819249" y="307.584" style="stroke: #000000; stroke-width: 0.8"/>
      </g>
     </g>
     <g id="text_2">
      <!-- −4 -->
      <g transform="translate(127.499717 321.52775) scale(0.1 -0.1)">
       <defs>
        <path id="TimesNewRomanPSMT-34" d="M 2978 1563 
L 2978 1119 
L 2409 1119 
L 2409 0 
L 1894 0 
L 1894 1119 
L 100 1119 
L 100 1519 
L 2066 4325 
L 2409 4325 
L 2409 1563 
L 2978 1563 
z
M 1894 1563 
L 1894 3666 
L 406 1563 
L 1894 1563 
z
" transform="scale(0.015625)"/>
       </defs>
       <use xlink:href="#TimesNewRomanPSMT-2212"/>
       <use xlink:href="#TimesNewRomanPSMT-34" transform="translate(56.396484 0)"/>
      </g>
     </g>
    </g>
    <g id="xtick_3">
     <g id="line2d_3">
      <g>
       <use xlink:href="#m5b46c5e501" x="184.489624" y="307.584" style="stroke: #000000; stroke-width: 0.8"/>
      </g>
     </g>
     <g id="text_3">
      <!-- −2 -->
      <g transform="translate(179.170093 321.52775) scale(0.1 -0.1)">
       <defs>
        <path id="TimesNewRomanPSMT-32" d="M 2934 816 
L 2638 0 
L 138 0 
L 138 116 
Q 1241 1122 1691 1759 
Q 2141 2397 2141 2925 
Q 2141 3328 1894 3587 
Q 1647 3847 1303 3847 
Q 991 3847 742 3664 
Q 494 3481 375 3128 
L 259 3128 
Q 338 3706 661 4015 
Q 984 4325 1469 4325 
Q 1984 4325 2329 3994 
Q 2675 3663 2675 3213 
Q 2675 2891 2525 2569 
Q 2294 2063 1775 1497 
Q 997 647 803 472 
L 1909 472 
Q 2247 472 2383 497 
Q 2519 522 2628 598 
Q 2738 675 2819 816 
L 2934 816 
z
" transform="scale(0.015625)"/>
       </defs>
       <use xlink:href="#TimesNewRomanPSMT-2212"/>
       <use xlink:href="#TimesNewRomanPSMT-32" transform="translate(56.396484 0)"/>
      </g>
     </g>
    </g>
    <g id="xtick_4">
     <g id="line2d_4">
      <g>
       <use xlink:href="#m5b46c5e501" x="236.16" y="307.584" style="stroke: #000000; stroke-width: 0.8"/>
      </g>
     </g>
     <g id="text_4">
      <!-- 0 -->
      <g transform="translate(233.66 321.52775) scale(0.1 -0.1)">
       <defs>
        <path id="TimesNewRomanPSMT-30" d="M 231 2094 
Q 231 2819 450 3342 
Q 669 3866 1031 4122 
Q 1313 4325 1613 4325 
Q 2100 4325 2488 3828 
Q 2972 3213 2972 2159 
Q 2972 1422 2759 906 
Q 2547 391 2217 158 
Q 1888 -75 1581 -75 
Q 975 -75 572 641 
Q 231 1244 231 2094 
z
M 844 2016 
Q 844 1141 1059 588 
Q 1238 122 1591 122 
Q 1759 122 1940 273 
Q 2122 425 2216 781 
Q 2359 1319 2359 2297 
Q 2359 3022 2209 3506 
Q 2097 3866 1919 4016 
Q 1791 4119 1609 4119 
Q 1397 4119 1231 3928 
Q 1006 3669 925 3112 
Q 844 2556 844 2016 
z
" transform="scale(0.015625)"/>
       </defs>
       <use xlink:href="#TimesNewRomanPSMT-30"/>
      </g>
     </g>
    </g>
    <g id="xtick_5">
     <g id="line2d_5">
      <g>
       <use xlink:href="#m5b46c5e501" x="287.830376" y="307.584" style="stroke: #000000; stroke-width: 0.8"/>
      </g>
     </g>
     <g id="text_5">
      <!-- 2 -->
      <g transform="translate(285.330376 321.52775) scale(0.1 -0.1)">
       <use xlink:href="#TimesNewRomanPSMT-32"/>
      </g>
     </g>
    </g>
    <g id="xtick_6">
     <g id="line2d_6">
      <g>
       <use xlink:href="#m5b46c5e501" x="339.500751" y="307.584" style="stroke: #000000; stroke-width: 0.8"/>
      </g>
     </g>
     <g id="text_6">
      <!-- 4 -->
      <g transform="translate(337.000751 321.52775) scale(0.1 -0.1)">
       <use xlink:href="#TimesNewRomanPSMT-34"/>
      </g>
     </g>
    </g>
    <g id="xtick_7">
     <g id="line2d_7">
      <g>
       <use xlink:href="#m5b46c5e501" x="391.171127" y="307.584" style="stroke: #000000; stroke-width: 0.8"/>
      </g>
     </g>
     <g id="text_7">
      <!-- 6 -->
      <g transform="translate(388.671127 321.52775) scale(0.1 -0.1)">
       <use xlink:href="#TimesNewRomanPSMT-36"/>
      </g>
     </g>
    </g>
   </g>
   <g id="matplotlib.axis_2">
    <g id="ytick_1">
     <g id="line2d_8">
      <defs>
       <path id="me6acc0f3e9" d="M 0 0 
L -3.5 0 
" style="stroke: #000000; stroke-width: 0.8"/>
      </defs>
      <g>
       <use xlink:href="#me6acc0f3e9" x="57.6" y="307.584" style="stroke: #000000; stroke-width: 0.8"/>
      </g>
     </g>
     <g id="text_8">
      <!-- −2.0 -->
      <g transform="translate(32.460938 311.055875) scale(0.1 -0.1)">
       <defs>
        <path id="TimesNewRomanPSMT-2e" d="M 800 606 
Q 947 606 1047 504 
Q 1147 403 1147 259 
Q 1147 116 1045 14 
Q 944 -88 800 -88 
Q 656 -88 554 14 
Q 453 116 453 259 
Q 453 406 554 506 
Q 656 606 800 606 
z
" transform="scale(0.015625)"/>
       </defs>
       <use xlink:href="#TimesNewRomanPSMT-2212"/>
       <use xlink:href="#TimesNewRomanPSMT-32" transform="translate(56.396484 0)"/>
       <use xlink:href="#TimesNewRomanPSMT-2e" transform="translate(106.396484 0)"/>
       <use xlink:href="#TimesNewRomanPSMT-30" transform="translate(131.396484 0)"/>
      </g>
     </g>
    </g>
    <g id="ytick_2">
     <g id="line2d_9">
      <g>
       <use xlink:href="#me6acc0f3e9" x="57.6" y="274.32" style="stroke: #000000; stroke-width: 0.8"/>
      </g>
     </g>
     <g id="text_9">
      <!-- −1.5 -->
      <g transform="translate(32.460938 277.791875) scale(0.1 -0.1)">
       <defs>
        <path id="TimesNewRomanPSMT-31" d="M 750 3822 
L 1781 4325 
L 1884 4325 
L 1884 747 
Q 1884 391 1914 303 
Q 1944 216 2037 169 
Q 2131 122 2419 116 
L 2419 0 
L 825 0 
L 825 116 
Q 1125 122 1212 167 
Q 1300 213 1334 289 
Q 1369 366 1369 747 
L 1369 3034 
Q 1369 3497 1338 3628 
Q 1316 3728 1258 3775 
Q 1200 3822 1119 3822 
Q 1003 3822 797 3725 
L 750 3822 
z
" transform="scale(0.015625)"/>
        <path id="TimesNewRomanPSMT-35" d="M 2778 4238 
L 2534 3706 
L 1259 3706 
L 981 3138 
Q 1809 3016 2294 2522 
Q 2709 2097 2709 1522 
Q 2709 1188 2573 903 
Q 2438 619 2231 419 
Q 2025 219 1772 97 
Q 1413 -75 1034 -75 
Q 653 -75 479 54 
Q 306 184 306 341 
Q 306 428 378 495 
Q 450 563 559 563 
Q 641 563 702 538 
Q 763 513 909 409 
Q 1144 247 1384 247 
Q 1750 247 2026 523 
Q 2303 800 2303 1197 
Q 2303 1581 2056 1914 
Q 1809 2247 1375 2428 
Q 1034 2569 447 2591 
L 1259 4238 
L 2778 4238 
z
" transform="scale(0.015625)"/>
       </defs>
       <use xlink:href="#TimesNewRomanPSMT-2212"/>
       <use xlink:href="#TimesNewRomanPSMT-31" transform="translate(56.396484 0)"/>
       <use xlink:href="#TimesNewRomanPSMT-2e" transform="translate(106.396484 0)"/>
       <use xlink:href="#TimesNewRomanPSMT-35" transform="translate(131.396484 0)"/>
      </g>
     </g>
    </g>
    <g id="ytick_3">
     <g id="line2d_10">
      <g>
       <use xlink:href="#me6acc0f3e9" x="57.6" y="241.056" style="stroke: #000000; stroke-width: 0.8"/>
      </g>
     </g>
     <g id="text_10">
      <!-- −1.0 -->
      <g transform="translate(32.460938 244.527875) scale(0.1 -0.1)">
       <use xlink:href="#TimesNewRomanPSMT-2212"/>
       <use xlink:href="#TimesNewRomanPSMT-31" transform="translate(56.396484 0)"/>
       <use xlink:href="#TimesNewRomanPSMT-2e" transform="translate(106.396484 0)"/>
       <use xlink:href="#TimesNewRomanPSMT-30" transform="translate(131.396484 0)"/>
      </g>
     </g>
    </g>
    <g id="ytick_4">
     <g id="line2d_11">
      <g>
       <use xlink:href="#me6acc0f3e9" x="57.6" y="207.792" style="stroke: #000000; stroke-width: 0.8"/>
      </g>
     </g>
     <g id="text_11">
      <!-- −0.5 -->
      <g transform="translate(32.460938 211.263875) scale(0.1 -0.1)">
       <use xlink:href="#TimesNewRomanPSMT-2212"/>
       <use xlink:href="#TimesNewRomanPSMT-30" transform="translate(56.396484 0)"/>
       <use xlink:href="#TimesNewRomanPSMT-2e" transform="translate(106.396484 0)"/>
       <use xlink:href="#TimesNewRomanPSMT-35" transform="translate(131.396484 0)"/>
      </g>
     </g>
    </g>
    <g id="ytick_5">
     <g id="line2d_12">
      <g>
       <use xlink:href="#me6acc0f3e9" x="57.6" y="174.528" style="stroke: #000000; stroke-width: 0.8"/>
      </g>
     </g>
     <g id="text_12">
      <!-- 0.0 -->
      <g transform="translate(38.1 177.999875) scale(0.1 -0.1)">
       <use xlink:href="#TimesNewRomanPSMT-30"/>
       <use xlink:href="#TimesNewRomanPSMT-2e" transform="translate(50 0)"/>
       <use xlink:href="#TimesNewRomanPSMT-30" transform="translate(75 0)"/>
      </g>
     </g>
    </g>
    <g id="ytick_6">
     <g id="line2d_13">
      <g>
       <use xlink:href="#me6acc0f3e9" x="57.6" y="141.264" style="stroke: #000000; stroke-width: 0.8"/>
      </g>
     </g>
     <g id="text_13">
      <!-- 0.5 -->
      <g transform="translate(38.1 144.735875) scale(0.1 -0.1)">
       <use xlink:href="#TimesNewRomanPSMT-30"/>
       <use xlink:href="#TimesNewRomanPSMT-2e" transform="translate(50 0)"/>
       <use xlink:href="#TimesNewRomanPSMT-35" transform="translate(75 0)"/>
      </g>
     </g>
    </g>
    <g id="ytick_7">
     <g id="line2d_14">
      <g>
       <use xlink:href="#me6acc0f3e9" x="57.6" y="108" style="stroke: #000000; stroke-width: 0.8"/>
      </g>
     </g>
     <g id="text_14">
      <!-- 1.0 -->
      <g transform="translate(38.1 111.471875) scale(0.1 -0.1)">
       <use xlink:href="#TimesNewRomanPSMT-31"/>
       <use xlink:href="#TimesNewRomanPSMT-2e" transform="translate(50 0)"/>
       <use xlink:href="#TimesNewRomanPSMT-30" transform="translate(75 0)"/>
      </g>
     </g>
    </g>
    <g id="ytick_8">
     <g id="line2d_15">
      <g>
       <use xlink:href="#me6acc0f3e9" x="57.6" y="74.736" style="stroke: #000000; stroke-width: 0.8"/>
      </g>
     </g>
     <g id="text_15">
      <!-- 1.5 -->
      <g transform="translate(38.1 78.207875) scale(0.1 -0.1)">
       <use xlink:href="#TimesNewRomanPSMT-31"/>
       <use xlink:href="#TimesNewRomanPSMT-2e" transform="translate(50 0)"/>
       <use xlink:href="#TimesNewRomanPSMT-35" transform="translate(75 0)"/>
      </g>
     </g>
    </g>
    <g id="ytick_9">
     <g id="line2d_16">
      <g>
       <use xlink:href="#me6acc0f3e9" x="57.6" y="41.472" style="stroke: #000000; stroke-width: 0.8"/>
      </g>
     </g>
     <g id="text_16">
      <!-- 2.0 -->
      <g transform="translate(38.1 44.943875) scale(0.1 -0.1)">
       <use xlink:href="#TimesNewRomanPSMT-32"/>
       <use xlink:href="#TimesNewRomanPSMT-2e" transform="translate(50 0)"/>
       <use xlink:href="#TimesNewRomanPSMT-30" transform="translate(75 0)"/>
      </g>
     </g>
    </g>
   </g>
   <g id="line2d_17">
    <path d="M 73.832727 88.811489 
L 78.057461 98.05292 
L 82.282195 106.741497 
L 86.506929 114.891847 
L 90.406683 121.950179 
L 94.306437 128.573869 
L 98.206192 134.774422 
L 102.105946 140.563342 
L 106.0057 145.952133 
L 109.905455 150.952298 
L 113.805209 155.575343 
L 117.704963 159.83277 
L 121.604717 163.736084 
L 125.179492 167.012869 
L 128.754267 170.010629 
L 132.329042 172.738223 
L 135.903817 175.204515 
L 139.478591 177.418363 
L 143.053366 179.388631 
L 146.628141 181.124178 
L 150.527895 182.760217 
L 154.427649 184.138968 
L 158.327404 185.271937 
L 162.227158 186.170626 
L 166.126912 186.846541 
L 170.351646 187.340729 
L 174.57638 187.601593 
L 178.801114 187.643761 
L 183.350827 187.46137 
L 187.900541 187.060574 
L 192.775233 186.409541 
L 197.974906 185.487186 
L 203.499558 184.279274 
L 209.674169 182.690842 
L 216.498739 180.695545 
L 224.623227 178.075023 
L 235.99751 174.147333 
L 253.221425 168.209331 
L 261.345913 165.656914 
L 268.170483 163.742113 
L 274.345094 162.244833 
L 279.869746 161.133232 
L 285.069419 160.314252 
L 289.944111 159.771342 
L 294.493825 159.481249 
L 299.043538 159.419012 
L 303.268272 159.581213 
L 307.493006 159.970259 
L 311.39276 160.54337 
L 315.292514 161.333736 
L 319.192269 162.352861 
L 323.092023 163.61225 
L 326.991777 165.123406 
L 330.566552 166.739629 
L 334.141327 168.585934 
L 337.716102 170.671182 
L 341.290876 173.004235 
L 344.865651 175.593953 
L 348.440426 178.449198 
L 352.015201 181.57883 
L 355.589975 184.991711 
L 359.16475 188.696701 
L 362.739525 192.702663 
L 366.3143 197.018456 
L 370.214054 202.090367 
L 374.113808 207.553054 
L 378.013563 213.41802 
L 381.913317 219.696769 
L 385.813071 226.400805 
L 389.712826 233.541631 
L 393.61258 241.130754 
L 397.512334 249.179675 
L 398.487273 251.265097 
L 398.487273 251.265097 
" clip-path="url(#p615facc16b)" style="fill: none; stroke: #1f77b4; stroke-width: 1.5; stroke-linecap: square"/>
   </g>
   <g id="patch_3">
    <path d="M 57.6 307.584 
L 57.6 41.472 
" style="fill: none; stroke: #000000; stroke-width: 0.8; stroke-linejoin: miter; stroke-linecap: square"/>
   </g>
   <g id="patch_4">
    <path d="M 414.72 307.584 
L 414.72 41.472 
" style="fill: none; stroke: #000000; stroke-width: 0.8; stroke-linejoin: miter; stroke-linecap: square"/>
   </g>
   <g id="patch_5">
    <path d="M 57.6 307.584 
L 414.72 307.584 
" style="fill: none; stroke: #000000; stroke-width: 0.8; stroke-linejoin: miter; stroke-linecap: square"/>
   </g>
   <g id="patch_6">
    <path d="M 57.6 41.472 
L 414.72 41.472 
" style="fill: none; stroke: #000000; stroke-width: 0.8; stroke-linejoin: miter; stroke-linecap: square"/>
   </g>
   <g id="legend_1">
    <g id="patch_7">
     <path d="M 360.080938 63.611063 
L 407.72 63.611063 
Q 409.72 63.611063 409.72 61.611063 
L 409.72 48.472 
Q 409.72 46.472 407.72 46.472 
L 360.080938 46.472 
Q 358.080938 46.472 358.080938 48.472 
L 358.080938 61.611063 
Q 358.080938 63.611063 360.080938 63.611063 
z
" style="fill: #ffffff; opacity: 0.8; stroke: #cccccc; stroke-linejoin: miter"/>
    </g>
    <g id="line2d_18">
     <path d="M 362.080938 53.972 
L 372.080938 53.972 
L 382.080938 53.972 
" style="fill: none; stroke: #1f77b4; stroke-width: 1.5; stroke-linecap: square"/>
    </g>
    <g id="text_17">
     <!-- k=3 -->
     <g transform="translate(390.080938 57.472) scale(0.1 -0.1)">
      <defs>
       <path id="TimesNewRomanPSMT-6b" d="M 1047 4444 
L 1047 1597 
L 1775 2259 
Q 2006 2472 2044 2528 
Q 2069 2566 2069 2603 
Q 2069 2666 2017 2711 
Q 1966 2756 1847 2763 
L 1847 2863 
L 3091 2863 
L 3091 2763 
Q 2834 2756 2664 2684 
Q 2494 2613 2291 2428 
L 1556 1750 
L 2291 822 
Q 2597 438 2703 334 
Q 2853 188 2966 144 
Q 3044 113 3238 113 
L 3238 0 
L 1847 0 
L 1847 113 
Q 1966 116 2008 148 
Q 2050 181 2050 241 
Q 2050 313 1925 472 
L 1047 1594 
L 1047 644 
Q 1047 366 1086 278 
Q 1125 191 1197 153 
Q 1269 116 1509 113 
L 1509 0 
L 53 0 
L 53 113 
Q 272 113 381 166 
Q 447 200 481 272 
Q 528 375 528 628 
L 528 3234 
Q 528 3731 506 3842 
Q 484 3953 434 3995 
Q 384 4038 303 4038 
Q 238 4038 106 3984 
L 53 4094 
L 903 4444 
L 1047 4444 
z
" transform="scale(0.015625)"/>
       <path id="TimesNewRomanPSMT-3d" d="M 116 2759 
L 3488 2759 
L 3488 2503 
L 116 2503 
L 116 2759 
z
M 116 1741 
L 3488 1741 
L 3488 1484 
L 116 1484 
L 116 1741 
z
" transform="scale(0.015625)"/>
       <path id="TimesNewRomanPSMT-33" d="M 325 3431 
Q 506 3859 782 4092 
Q 1059 4325 1472 4325 
Q 1981 4325 2253 3994 
Q 2459 3747 2459 3466 
Q 2459 3003 1878 2509 
Q 2269 2356 2469 2072 
Q 2669 1788 2669 1403 
Q 2669 853 2319 450 
Q 1863 -75 997 -75 
Q 569 -75 414 31 
Q 259 138 259 259 
Q 259 350 332 419 
Q 406 488 509 488 
Q 588 488 669 463 
Q 722 447 909 348 
Q 1097 250 1169 231 
Q 1284 197 1416 197 
Q 1734 197 1970 444 
Q 2206 691 2206 1028 
Q 2206 1275 2097 1509 
Q 2016 1684 1919 1775 
Q 1784 1900 1550 2001 
Q 1316 2103 1072 2103 
L 972 2103 
L 972 2197 
Q 1219 2228 1467 2375 
Q 1716 2522 1828 2728 
Q 1941 2934 1941 3181 
Q 1941 3503 1739 3701 
Q 1538 3900 1238 3900 
Q 753 3900 428 3381 
L 325 3431 
z
" transform="scale(0.015625)"/>
      </defs>
      <use xlink:href="#TimesNewRomanPSMT-6b"/>
      <use xlink:href="#TimesNewRomanPSMT-3d" transform="translate(50 0)"/>
      <use xlink:href="#TimesNewRomanPSMT-33" transform="translate(106.396484 0)"/>
     </g>
    </g>
   </g>
  </g>
 </g>
 <defs>
  <clipPath id="p615facc16b">
   <rect x="57.6" y="41.472" width="357.12" height="266.112"/>
  </clipPath>
 </defs>
</svg>
