<?xml version="1.0" encoding="utf-8" standalone="no"?>
<!DOCTYPE svg PUBLIC "-//W3C//DTD SVG 1.1//EN"
  "http://www.w3.org/Graphics/SVG/1.1/DTD/svg11.dtd">
<svg xmlns:xlink="http://www.w3.org/1999/xlink" width="460.8pt" height="345.6pt" viewBox="0 0 460.8 345.6" xmlns="http://www.w3.org/2000/svg" version="1.1">
 <metadata>
  <rdf:RDF xmlns:dc="http://purl.org/dc/elements/1.1/" xmlns:cc="http://creativecommons.org/ns#" xmlns:rdf="http://www.w3.org/1999/02/22-rdf-syntax-ns#">
   <cc:Work>
    <dc:type rdf:resource="http://purl.org/dc/dcmitype/StillImage"/>
    <dc:date>2025-10-07T19:31:10.329105</dc:date>
    <dc:format>image/svg+xml</dc:format>
    <dc:creator>
     <cc:Agent>
      <dc:title>Matplotlib v3.10.0, https://matplotlib.org/</dc:title>
     </cc:Agent>
    </dc:creator>
   </cc:Work>
  </rdf:RDF>
 </metadata>
 <defs>
  <style type="text/css">*{stroke-linejoin: round; stroke-linecap: butt}</style>
 </defs>
 <g id="figure_1">
  <g id="patch_1">
   <path d="M 0 345.6 
L 460.8 345.6 
L 460.8 0 
L 0 0 
z
" style="fill: #ffffff"/>
  </g>
  <g id="axes_1">
   <g id="patch_2">
    <path d="M 57.6 307.584 
L 414.72 307.584 
L 414.72 41.472 
L 57.6 41.472 
z
" style="fill: #ffffff"/>
   </g>
   <g id="matplotlib.axis_1">
    <g id="xtick_1">
     <g id="line2d_1">
      <defs>
       <path id="mb5a7d0f5ab" d="M 0 0 
L 0 3.5 
" style="stroke: #000000; stroke-width: 0.8"/>
      </defs>
      <g>
       <use xlink:href="#mb5a7d0f5ab" x="111.786881" y="307.584" style="stroke: #000000; stroke-width: 0.8"/>
      </g>
     </g>
     <g id="text_1">
      <!-- −1 -->
      <g transform="translate(106.46735 321.52775) scale(0.1 -0.1)">
       <defs>
        <path id="TimesNewRomanPSMT-2212" d="M 3484 2000 
L 116 2000 
L 116 2256 
L 3484 2256 
L 3484 2000 
z
" transform="scale(0.015625)"/>
        <path id="TimesNewRomanPSMT-31" d="M 750 3822 
L 1781 4325 
L 1884 4325 
L 1884 747 
Q 1884 391 1914 303 
Q 1944 216 2037 169 
Q 2131 122 2419 116 
L 2419 0 
L 825 0 
L 825 116 
Q 1125 122 1212 167 
Q 1300 213 1334 289 
Q 1369 366 1369 747 
L 1369 3034 
Q 1369 3497 1338 3628 
Q 1316 3728 1258 3775 
Q 1200 3822 1119 3822 
Q 1003 3822 797 3725 
L 750 3822 
z
" transform="scale(0.015625)"/>
       </defs>
       <use xlink:href="#TimesNewRomanPSMT-2212"/>
       <use xlink:href="#TimesNewRomanPSMT-31" transform="translate(56.396484 0)"/>
      </g>
     </g>
    </g>
    <g id="xtick_2">
     <g id="line2d_2">
      <g>
       <use xlink:href="#mb5a7d0f5ab" x="166.952786" y="307.584" style="stroke: #000000; stroke-width: 0.8"/>
      </g>
     </g>
     <g id="text_2">
      <!-- 0 -->
      <g transform="translate(164.452786 321.52775) scale(0.1 -0.1)">
       <defs>
        <path id="TimesNewRomanPSMT-30" d="M 231 2094 
Q 231 2819 450 3342 
Q 669 3866 1031 4122 
Q 1313 4325 1613 4325 
Q 2100 4325 2488 3828 
Q 2972 3213 2972 2159 
Q 2972 1422 2759 906 
Q 2547 391 2217 158 
Q 1888 -75 1581 -75 
Q 975 -75 572 641 
Q 231 1244 231 2094 
z
M 844 2016 
Q 844 1141 1059 588 
Q 1238 122 1591 122 
Q 1759 122 1940 273 
Q 2122 425 2216 781 
Q 2359 1319 2359 2297 
Q 2359 3022 2209 3506 
Q 2097 3866 1919 4016 
Q 1791 4119 1609 4119 
Q 1397 4119 1231 3928 
Q 1006 3669 925 3112 
Q 844 2556 844 2016 
z
" transform="scale(0.015625)"/>
       </defs>
       <use xlink:href="#TimesNewRomanPSMT-30"/>
      </g>
     </g>
    </g>
    <g id="xtick_3">
     <g id="line2d_3">
      <g>
       <use xlink:href="#mb5a7d0f5ab" x="222.118691" y="307.584" style="stroke: #000000; stroke-width: 0.8"/>
      </g>
     </g>
     <g id="text_3">
      <!-- 1 -->
      <g transform="translate(219.618691 321.52775) scale(0.1 -0.1)">
       <use xlink:href="#TimesNewRomanPSMT-31"/>
      </g>
     </g>
    </g>
    <g id="xtick_4">
     <g id="line2d_4">
      <g>
       <use xlink:href="#mb5a7d0f5ab" x="277.284596" y="307.584" style="stroke: #000000; stroke-width: 0.8"/>
      </g>
     </g>
     <g id="text_4">
      <!-- 2 -->
      <g transform="translate(274.784596 321.52775) scale(0.1 -0.1)">
       <defs>
        <path id="TimesNewRomanPSMT-32" d="M 2934 816 
L 2638 0 
L 138 0 
L 138 116 
Q 1241 1122 1691 1759 
Q 2141 2397 2141 2925 
Q 2141 3328 1894 3587 
Q 1647 3847 1303 3847 
Q 991 3847 742 3664 
Q 494 3481 375 3128 
L 259 3128 
Q 338 3706 661 4015 
Q 984 4325 1469 4325 
Q 1984 4325 2329 3994 
Q 2675 3663 2675 3213 
Q 2675 2891 2525 2569 
Q 2294 2063 1775 1497 
Q 997 647 803 472 
L 1909 472 
Q 2247 472 2383 497 
Q 2519 522 2628 598 
Q 2738 675 2819 816 
L 2934 816 
z
" transform="scale(0.015625)"/>
       </defs>
       <use xlink:href="#TimesNewRomanPSMT-32"/>
      </g>
     </g>
    </g>
    <g id="xtick_5">
     <g id="line2d_5">
      <g>
       <use xlink:href="#mb5a7d0f5ab" x="332.450501" y="307.584" style="stroke: #000000; stroke-width: 0.8"/>
      </g>
     </g>
     <g id="text_5">
      <!-- 3 -->
      <g transform="translate(329.950501 321.52775) scale(0.1 -0.1)">
       <defs>
        <path id="TimesNewRomanPSMT-33" d="M 325 3431 
Q 506 3859 782 4092 
Q 1059 4325 1472 4325 
Q 1981 4325 2253 3994 
Q 2459 3747 2459 3466 
Q 2459 3003 1878 2509 
Q 2269 2356 2469 2072 
Q 2669 1788 2669 1403 
Q 2669 853 2319 450 
Q 1863 -75 997 -75 
Q 569 -75 414 31 
Q 259 138 259 259 
Q 259 350 332 419 
Q 406 488 509 488 
Q 588 488 669 463 
Q 722 447 909 348 
Q 1097 250 1169 231 
Q 1284 197 1416 197 
Q 1734 197 1970 444 
Q 2206 691 2206 1028 
Q 2206 1275 2097 1509 
Q 2016 1684 1919 1775 
Q 1784 1900 1550 2001 
Q 1316 2103 1072 2103 
L 972 2103 
L 972 2197 
Q 1219 2228 1467 2375 
Q 1716 2522 1828 2728 
Q 1941 2934 1941 3181 
Q 1941 3503 1739 3701 
Q 1538 3900 1238 3900 
Q 753 3900 428 3381 
L 325 3431 
z
" transform="scale(0.015625)"/>
       </defs>
       <use xlink:href="#TimesNewRomanPSMT-33"/>
      </g>
     </g>
    </g>
    <g id="xtick_6">
     <g id="line2d_6">
      <g>
       <use xlink:href="#mb5a7d0f5ab" x="387.616406" y="307.584" style="stroke: #000000; stroke-width: 0.8"/>
      </g>
     </g>
     <g id="text_6">
      <!-- 4 -->
      <g transform="translate(385.116406 321.52775) scale(0.1 -0.1)">
       <defs>
        <path id="TimesNewRomanPSMT-34" d="M 2978 1563 
L 2978 1119 
L 2409 1119 
L 2409 0 
L 1894 0 
L 1894 1119 
L 100 1119 
L 100 1519 
L 2066 4325 
L 2409 4325 
L 2409 1563 
L 2978 1563 
z
M 1894 1563 
L 1894 3666 
L 406 1563 
L 1894 1563 
z
" transform="scale(0.015625)"/>
       </defs>
       <use xlink:href="#TimesNewRomanPSMT-34"/>
      </g>
     </g>
    </g>
    <g id="text_7">
     <!-- x1 -->
     <g transform="translate(231.16 334.610562) scale(0.1 -0.1)">
      <defs>
       <path id="TimesNewRomanPSMT-78" d="M 84 2863 
L 1431 2863 
L 1431 2747 
Q 1303 2747 1251 2703 
Q 1200 2659 1200 2588 
Q 1200 2513 1309 2356 
Q 1344 2306 1413 2200 
L 1616 1875 
L 1850 2200 
Q 2075 2509 2075 2591 
Q 2075 2656 2022 2701 
Q 1969 2747 1850 2747 
L 1850 2863 
L 2819 2863 
L 2819 2747 
Q 2666 2738 2553 2663 
Q 2400 2556 2134 2200 
L 1744 1678 
L 2456 653 
Q 2719 275 2831 198 
Q 2944 122 3122 113 
L 3122 0 
L 1772 0 
L 1772 113 
Q 1913 113 1991 175 
Q 2050 219 2050 291 
Q 2050 363 1850 653 
L 1431 1266 
L 972 653 
Q 759 369 759 316 
Q 759 241 829 180 
Q 900 119 1041 113 
L 1041 0 
L 106 0 
L 106 113 
Q 219 128 303 191 
Q 422 281 703 653 
L 1303 1450 
L 759 2238 
Q 528 2575 401 2661 
Q 275 2747 84 2747 
L 84 2863 
z
" transform="scale(0.015625)"/>
      </defs>
      <use xlink:href="#TimesNewRomanPSMT-78"/>
      <use xlink:href="#TimesNewRomanPSMT-31" transform="translate(50 0)"/>
     </g>
    </g>
   </g>
   <g id="matplotlib.axis_2">
    <g id="ytick_1">
     <g id="line2d_7">
      <defs>
       <path id="md3ccf311d6" d="M 0 0 
L -3.5 0 
" style="stroke: #000000; stroke-width: 0.8"/>
      </defs>
      <g>
       <use xlink:href="#md3ccf311d6" x="57.6" y="285.65462" style="stroke: #000000; stroke-width: 0.8"/>
      </g>
     </g>
     <g id="text_8">
      <!-- −1 -->
      <g transform="translate(39.960938 289.126495) scale(0.1 -0.1)">
       <use xlink:href="#TimesNewRomanPSMT-2212"/>
       <use xlink:href="#TimesNewRomanPSMT-31" transform="translate(56.396484 0)"/>
      </g>
     </g>
    </g>
    <g id="ytick_2">
     <g id="line2d_8">
      <g>
       <use xlink:href="#md3ccf311d6" x="57.6" y="241.900601" style="stroke: #000000; stroke-width: 0.8"/>
      </g>
     </g>
     <g id="text_9">
      <!-- 0 -->
      <g transform="translate(45.6 245.372476) scale(0.1 -0.1)">
       <use xlink:href="#TimesNewRomanPSMT-30"/>
      </g>
     </g>
    </g>
    <g id="ytick_3">
     <g id="line2d_9">
      <g>
       <use xlink:href="#md3ccf311d6" x="57.6" y="198.146581" style="stroke: #000000; stroke-width: 0.8"/>
      </g>
     </g>
     <g id="text_10">
      <!-- 1 -->
      <g transform="translate(45.6 201.618456) scale(0.1 -0.1)">
       <use xlink:href="#TimesNewRomanPSMT-31"/>
      </g>
     </g>
    </g>
    <g id="ytick_4">
     <g id="line2d_10">
      <g>
       <use xlink:href="#md3ccf311d6" x="57.6" y="154.392562" style="stroke: #000000; stroke-width: 0.8"/>
      </g>
     </g>
     <g id="text_11">
      <!-- 2 -->
      <g transform="translate(45.6 157.864437) scale(0.1 -0.1)">
       <use xlink:href="#TimesNewRomanPSMT-32"/>
      </g>
     </g>
    </g>
    <g id="ytick_5">
     <g id="line2d_11">
      <g>
       <use xlink:href="#md3ccf311d6" x="57.6" y="110.638543" style="stroke: #000000; stroke-width: 0.8"/>
      </g>
     </g>
     <g id="text_12">
      <!-- 3 -->
      <g transform="translate(45.6 114.110418) scale(0.1 -0.1)">
       <use xlink:href="#TimesNewRomanPSMT-33"/>
      </g>
     </g>
    </g>
    <g id="ytick_6">
     <g id="line2d_12">
      <g>
       <use xlink:href="#md3ccf311d6" x="57.6" y="66.884524" style="stroke: #000000; stroke-width: 0.8"/>
      </g>
     </g>
     <g id="text_13">
      <!-- 4 -->
      <g transform="translate(45.6 70.356399) scale(0.1 -0.1)">
       <use xlink:href="#TimesNewRomanPSMT-34"/>
      </g>
     </g>
    </g>
    <g id="text_14">
     <!-- x2 -->
     <g transform="translate(33.821875 179.528) rotate(-90) scale(0.1 -0.1)">
      <use xlink:href="#TimesNewRomanPSMT-78"/>
      <use xlink:href="#TimesNewRomanPSMT-32" transform="translate(50 0)"/>
     </g>
    </g>
   </g>
   <g id="line2d_13">
    <defs>
     <path id="mac14c0f122" d="M -3 3 
L 3 -3 
M -3 -3 
L 3 3 
" style="stroke: #0000ff"/>
    </defs>
    <g clip-path="url(#p7a10ff7b6e)">
     <use xlink:href="#mac14c0f122" x="325.550386" y="124.625825" style="fill: #0000ff; stroke: #0000ff"/>
     <use xlink:href="#mac14c0f122" x="275.110606" y="166.743736" style="fill: #0000ff; stroke: #0000ff"/>
     <use xlink:href="#mac14c0f122" x="292.545666" y="167.450507" style="fill: #0000ff; stroke: #0000ff"/>
     <use xlink:href="#mac14c0f122" x="271.192671" y="122.055799" style="fill: #0000ff; stroke: #0000ff"/>
     <use xlink:href="#mac14c0f122" x="227.380724" y="162.78312" style="fill: #0000ff; stroke: #0000ff"/>
     <use xlink:href="#mac14c0f122" x="264.511314" y="122.454025" style="fill: #0000ff; stroke: #0000ff"/>
     <use xlink:href="#mac14c0f122" x="265.937864" y="91.277224" style="fill: #0000ff; stroke: #0000ff"/>
     <use xlink:href="#mac14c0f122" x="233.373798" y="149.416193" style="fill: #0000ff; stroke: #0000ff"/>
     <use xlink:href="#mac14c0f122" x="265.615022" y="180.117942" style="fill: #0000ff; stroke: #0000ff"/>
     <use xlink:href="#mac14c0f122" x="361.885301" y="129.506742" style="fill: #0000ff; stroke: #0000ff"/>
     <use xlink:href="#mac14c0f122" x="288.711565" y="118.289617" style="fill: #0000ff; stroke: #0000ff"/>
     <use xlink:href="#mac14c0f122" x="245.427508" y="212.699773" style="fill: #0000ff; stroke: #0000ff"/>
     <use xlink:href="#mac14c0f122" x="354.292781" y="87.75915" style="fill: #0000ff; stroke: #0000ff"/>
     <use xlink:href="#mac14c0f122" x="246.639472" y="158.568228" style="fill: #0000ff; stroke: #0000ff"/>
     <use xlink:href="#mac14c0f122" x="200.439781" y="156.821236" style="fill: #0000ff; stroke: #0000ff"/>
     <use xlink:href="#mac14c0f122" x="374.769791" y="99.423765" style="fill: #0000ff; stroke: #0000ff"/>
     <use xlink:href="#mac14c0f122" x="325.897017" y="104.692325" style="fill: #0000ff; stroke: #0000ff"/>
     <use xlink:href="#mac14c0f122" x="301.085314" y="164.935638" style="fill: #0000ff; stroke: #0000ff"/>
     <use xlink:href="#mac14c0f122" x="319.939677" y="140.714142" style="fill: #0000ff; stroke: #0000ff"/>
     <use xlink:href="#mac14c0f122" x="195.222631" y="171.264166" style="fill: #0000ff; stroke: #0000ff"/>
     <use xlink:href="#mac14c0f122" x="258.485761" y="180.039067" style="fill: #0000ff; stroke: #0000ff"/>
     <use xlink:href="#mac14c0f122" x="246.758396" y="201.91038" style="fill: #0000ff; stroke: #0000ff"/>
     <use xlink:href="#mac14c0f122" x="250.387396" y="232.825981" style="fill: #0000ff; stroke: #0000ff"/>
     <use xlink:href="#mac14c0f122" x="379.153602" y="86.907659" style="fill: #0000ff; stroke: #0000ff"/>
     <use xlink:href="#mac14c0f122" x="181.408886" y="199.051958" style="fill: #0000ff; stroke: #0000ff"/>
     <use xlink:href="#mac14c0f122" x="273.490687" y="129.287272" style="fill: #0000ff; stroke: #0000ff"/>
     <use xlink:href="#mac14c0f122" x="299.538186" y="159.428495" style="fill: #0000ff; stroke: #0000ff"/>
     <use xlink:href="#mac14c0f122" x="274.114992" y="168.860402" style="fill: #0000ff; stroke: #0000ff"/>
     <use xlink:href="#mac14c0f122" x="151.844372" y="244.851132" style="fill: #0000ff; stroke: #0000ff"/>
     <use xlink:href="#mac14c0f122" x="265.932174" y="151.420855" style="fill: #0000ff; stroke: #0000ff"/>
     <use xlink:href="#mac14c0f122" x="236.716581" y="129.99573" style="fill: #0000ff; stroke: #0000ff"/>
     <use xlink:href="#mac14c0f122" x="302.317705" y="132.831188" style="fill: #0000ff; stroke: #0000ff"/>
     <use xlink:href="#mac14c0f122" x="284.778532" y="116.753771" style="fill: #0000ff; stroke: #0000ff"/>
     <use xlink:href="#mac14c0f122" x="332.067153" y="96.731838" style="fill: #0000ff; stroke: #0000ff"/>
     <use xlink:href="#mac14c0f122" x="299.650064" y="178.410126" style="fill: #0000ff; stroke: #0000ff"/>
     <use xlink:href="#mac14c0f122" x="347.108799" y="119.497651" style="fill: #0000ff; stroke: #0000ff"/>
     <use xlink:href="#mac14c0f122" x="409.203409" y="45.847402" style="fill: #0000ff; stroke: #0000ff"/>
     <use xlink:href="#mac14c0f122" x="233.798238" y="205.905201" style="fill: #0000ff; stroke: #0000ff"/>
     <use xlink:href="#mac14c0f122" x="373.142038" y="94.06661" style="fill: #0000ff; stroke: #0000ff"/>
     <use xlink:href="#mac14c0f122" x="287.671996" y="116.64331" style="fill: #0000ff; stroke: #0000ff"/>
     <use xlink:href="#mac14c0f122" x="262.181304" y="156.166437" style="fill: #0000ff; stroke: #0000ff"/>
     <use xlink:href="#mac14c0f122" x="227.3361" y="183.189933" style="fill: #0000ff; stroke: #0000ff"/>
     <use xlink:href="#mac14c0f122" x="215.020999" y="157.32973" style="fill: #0000ff; stroke: #0000ff"/>
     <use xlink:href="#mac14c0f122" x="323.437266" y="164.649752" style="fill: #0000ff; stroke: #0000ff"/>
     <use xlink:href="#mac14c0f122" x="186.323564" y="214.339578" style="fill: #0000ff; stroke: #0000ff"/>
     <use xlink:href="#mac14c0f122" x="319.902939" y="104.974498" style="fill: #0000ff; stroke: #0000ff"/>
     <use xlink:href="#mac14c0f122" x="309.549906" y="138.436238" style="fill: #0000ff; stroke: #0000ff"/>
     <use xlink:href="#mac14c0f122" x="271.318722" y="179.548079" style="fill: #0000ff; stroke: #0000ff"/>
     <use xlink:href="#mac14c0f122" x="317.67846" y="173.395193" style="fill: #0000ff; stroke: #0000ff"/>
     <use xlink:href="#mac14c0f122" x="355.401209" y="85.065007" style="fill: #0000ff; stroke: #0000ff"/>
    </g>
   </g>
   <g id="line2d_14">
    <defs>
     <path id="mf1ff1d5498" d="M 0 3 
C 0.795609 3 1.55874 2.683901 2.12132 2.12132 
C 2.683901 1.55874 3 0.795609 3 0 
C 3 -0.795609 2.683901 -1.55874 2.12132 -2.12132 
C 1.55874 -2.683901 0.795609 -3 0 -3 
C -0.795609 -3 -1.55874 -2.683901 -2.12132 -2.12132 
C -2.683901 -1.55874 -3 -0.795609 -3 0 
C -3 0.795609 -2.683901 1.55874 -2.12132 2.12132 
C -1.55874 2.683901 -0.795609 3 0 3 
z
" style="stroke: #008000"/>
    </defs>
    <g clip-path="url(#p7a10ff7b6e)">
     <use xlink:href="#mf1ff1d5498" x="166.881151" y="209.388959" style="fill: #008000; stroke: #008000"/>
     <use xlink:href="#mf1ff1d5498" x="191.587423" y="255.769329" style="fill: #008000; stroke: #008000"/>
     <use xlink:href="#mf1ff1d5498" x="173.296413" y="241.234" style="fill: #008000; stroke: #008000"/>
     <use xlink:href="#mf1ff1d5498" x="171.609747" y="238.81874" style="fill: #008000; stroke: #008000"/>
     <use xlink:href="#mf1ff1d5498" x="323.42466" y="110.195938" style="fill: #008000; stroke: #008000"/>
     <use xlink:href="#mf1ff1d5498" x="328.086409" y="138.156866" style="fill: #008000; stroke: #008000"/>
     <use xlink:href="#mf1ff1d5498" x="209.946765" y="209.214368" style="fill: #008000; stroke: #008000"/>
     <use xlink:href="#mf1ff1d5498" x="63.116591" y="291.195014" style="fill: #008000; stroke: #008000"/>
     <use xlink:href="#mf1ff1d5498" x="196.607014" y="220.282749" style="fill: #008000; stroke: #008000"/>
     <use xlink:href="#mf1ff1d5498" x="195.145977" y="231.340874" style="fill: #008000; stroke: #008000"/>
     <use xlink:href="#mf1ff1d5498" x="161.740817" y="210.649219" style="fill: #008000; stroke: #008000"/>
     <use xlink:href="#mf1ff1d5498" x="182.245564" y="248.846908" style="fill: #008000; stroke: #008000"/>
     <use xlink:href="#mf1ff1d5498" x="286.194135" y="147.591875" style="fill: #008000; stroke: #008000"/>
     <use xlink:href="#mf1ff1d5498" x="153.308699" y="240.86605" style="fill: #008000; stroke: #008000"/>
     <use xlink:href="#mf1ff1d5498" x="265.471351" y="120.567694" style="fill: #008000; stroke: #008000"/>
     <use xlink:href="#mf1ff1d5498" x="159.707002" y="293.149025" style="fill: #008000; stroke: #008000"/>
     <use xlink:href="#mf1ff1d5498" x="225.82255" y="226.844334" style="fill: #008000; stroke: #008000"/>
     <use xlink:href="#mf1ff1d5498" x="142.568394" y="202.081807" style="fill: #008000; stroke: #008000"/>
     <use xlink:href="#mf1ff1d5498" x="206.515559" y="216.249083" style="fill: #008000; stroke: #008000"/>
     <use xlink:href="#mf1ff1d5498" x="148.225715" y="258.41375" style="fill: #008000; stroke: #008000"/>
     <use xlink:href="#mf1ff1d5498" x="182.599055" y="237.792958" style="fill: #008000; stroke: #008000"/>
     <use xlink:href="#mf1ff1d5498" x="169.696851" y="199.95733" style="fill: #008000; stroke: #008000"/>
     <use xlink:href="#mf1ff1d5498" x="159.122174" y="229.00636" style="fill: #008000; stroke: #008000"/>
     <use xlink:href="#mf1ff1d5498" x="129.908745" y="262.274439" style="fill: #008000; stroke: #008000"/>
     <use xlink:href="#mf1ff1d5498" x="212.013439" y="234.959495" style="fill: #008000; stroke: #008000"/>
     <use xlink:href="#mf1ff1d5498" x="212.871213" y="235.365313" style="fill: #008000; stroke: #008000"/>
     <use xlink:href="#mf1ff1d5498" x="241.733897" y="219.344156" style="fill: #008000; stroke: #008000"/>
     <use xlink:href="#mf1ff1d5498" x="190.179651" y="267.60317" style="fill: #008000; stroke: #008000"/>
     <use xlink:href="#mf1ff1d5498" x="173.45438" y="253.493976" style="fill: #008000; stroke: #008000"/>
     <use xlink:href="#mf1ff1d5498" x="167.238967" y="239.11984" style="fill: #008000; stroke: #008000"/>
     <use xlink:href="#mf1ff1d5498" x="232.119837" y="203.928487" style="fill: #008000; stroke: #008000"/>
     <use xlink:href="#mf1ff1d5498" x="294.272116" y="218.94043" style="fill: #008000; stroke: #008000"/>
     <use xlink:href="#mf1ff1d5498" x="194.655563" y="290.625802" style="fill: #008000; stroke: #008000"/>
     <use xlink:href="#mf1ff1d5498" x="200.163553" y="237.029464" style="fill: #008000; stroke: #008000"/>
     <use xlink:href="#mf1ff1d5498" x="152.483035" y="252.656096" style="fill: #008000; stroke: #008000"/>
     <use xlink:href="#mf1ff1d5498" x="188.813665" y="196.540441" style="fill: #008000; stroke: #008000"/>
     <use xlink:href="#mf1ff1d5498" x="211.568312" y="197.612887" style="fill: #008000; stroke: #008000"/>
     <use xlink:href="#mf1ff1d5498" x="195.733935" y="204.671324" style="fill: #008000; stroke: #008000"/>
     <use xlink:href="#mf1ff1d5498" x="157.429102" y="237.042911" style="fill: #008000; stroke: #008000"/>
     <use xlink:href="#mf1ff1d5498" x="120.437689" y="303.208598" style="fill: #008000; stroke: #008000"/>
     <use xlink:href="#mf1ff1d5498" x="198.162012" y="221.281199" style="fill: #008000; stroke: #008000"/>
     <use xlink:href="#mf1ff1d5498" x="130.061153" y="238.706713" style="fill: #008000; stroke: #008000"/>
     <use xlink:href="#mf1ff1d5498" x="201.056606" y="231.696068" style="fill: #008000; stroke: #008000"/>
     <use xlink:href="#mf1ff1d5498" x="218.219589" y="214.544872" style="fill: #008000; stroke: #008000"/>
     <use xlink:href="#mf1ff1d5498" x="146.643388" y="237.06123" style="fill: #008000; stroke: #008000"/>
     <use xlink:href="#mf1ff1d5498" x="215.471844" y="237.098368" style="fill: #008000; stroke: #008000"/>
     <use xlink:href="#mf1ff1d5498" x="217.507422" y="229.363471" style="fill: #008000; stroke: #008000"/>
     <use xlink:href="#mf1ff1d5498" x="124.636348" y="268.220599" style="fill: #008000; stroke: #008000"/>
     <use xlink:href="#mf1ff1d5498" x="143.48225" y="207.077151" style="fill: #008000; stroke: #008000"/>
     <use xlink:href="#mf1ff1d5498" x="179.260043" y="230.174359" style="fill: #008000; stroke: #008000"/>
    </g>
   </g>
   <g id="line2d_15">
    <path d="M 63.116591 44.97545 
L 409.006815 331.957227 
L 409.006815 331.957227 
" clip-path="url(#p7a10ff7b6e)" style="fill: none; stroke: #ff0000; stroke-width: 2; stroke-linecap: square"/>
   </g>
   <g id="patch_3">
    <path d="M 57.6 307.584 
L 57.6 41.472 
" style="fill: none; stroke: #000000; stroke-width: 0.8; stroke-linejoin: miter; stroke-linecap: square"/>
   </g>
   <g id="patch_4">
    <path d="M 414.72 307.584 
L 414.72 41.472 
" style="fill: none; stroke: #000000; stroke-width: 0.8; stroke-linejoin: miter; stroke-linecap: square"/>
   </g>
   <g id="patch_5">
    <path d="M 57.6 307.584 
L 414.72 307.584 
" style="fill: none; stroke: #000000; stroke-width: 0.8; stroke-linejoin: miter; stroke-linecap: square"/>
   </g>
   <g id="patch_6">
    <path d="M 57.6 41.472 
L 414.72 41.472 
" style="fill: none; stroke: #000000; stroke-width: 0.8; stroke-linejoin: miter; stroke-linecap: square"/>
   </g>
  </g>
 </g>
 <defs>
  <clipPath id="p7a10ff7b6e">
   <rect x="57.6" y="41.472" width="357.12" height="266.112"/>
  </clipPath>
 </defs>
</svg>
