<?xml version="1.0" encoding="utf-8" standalone="no"?>
<!DOCTYPE svg PUBLIC "-//W3C//DTD SVG 1.1//EN"
  "http://www.w3.org/Graphics/SVG/1.1/DTD/svg11.dtd">
<svg xmlns:xlink="http://www.w3.org/1999/xlink" width="460.8pt" height="345.6pt" viewBox="0 0 460.8 345.6" xmlns="http://www.w3.org/2000/svg" version="1.1">
 <metadata>
  <rdf:RDF xmlns:dc="http://purl.org/dc/elements/1.1/" xmlns:cc="http://creativecommons.org/ns#" xmlns:rdf="http://www.w3.org/1999/02/22-rdf-syntax-ns#">
   <cc:Work>
    <dc:type rdf:resource="http://purl.org/dc/dcmitype/StillImage"/>
    <dc:date>2025-10-07T19:31:10.271082</dc:date>
    <dc:format>image/svg+xml</dc:format>
    <dc:creator>
     <cc:Agent>
      <dc:title>Matplotlib v3.10.0, https://matplotlib.org/</dc:title>
     </cc:Agent>
    </dc:creator>
   </cc:Work>
  </rdf:RDF>
 </metadata>
 <defs>
  <style type="text/css">*{stroke-linejoin: round; stroke-linecap: butt}</style>
 </defs>
 <g id="figure_1">
  <g id="patch_1">
   <path d="M 0 345.6 
L 460.8 345.6 
L 460.8 0 
L 0 0 
z
" style="fill: #ffffff"/>
  </g>
  <g id="axes_1">
   <g id="patch_2">
    <path d="M 57.6 307.584 
L 414.72 307.584 
L 414.72 41.472 
L 57.6 41.472 
z
" style="fill: #ffffff"/>
   </g>
   <g id="matplotlib.axis_1">
    <g id="xtick_1">
     <g id="line2d_1">
      <defs>
       <path id="m745c1865fa" d="M 0 0 
L 0 3.5 
" style="stroke: #000000; stroke-width: 0.8"/>
      </defs>
      <g>
       <use xlink:href="#m745c1865fa" x="68.584908" y="307.584" style="stroke: #000000; stroke-width: 0.8"/>
      </g>
     </g>
     <g id="text_1">
      <!-- −1 -->
      <g transform="translate(63.265377 321.52775) scale(0.1 -0.1)">
       <defs>
        <path id="TimesNewRomanPSMT-2212" d="M 3484 2000 
L 116 2000 
L 116 2256 
L 3484 2256 
L 3484 2000 
z
" transform="scale(0.015625)"/>
        <path id="TimesNewRomanPSMT-31" d="M 750 3822 
L 1781 4325 
L 1884 4325 
L 1884 747 
Q 1884 391 1914 303 
Q 1944 216 2037 169 
Q 2131 122 2419 116 
L 2419 0 
L 825 0 
L 825 116 
Q 1125 122 1212 167 
Q 1300 213 1334 289 
Q 1369 366 1369 747 
L 1369 3034 
Q 1369 3497 1338 3628 
Q 1316 3728 1258 3775 
Q 1200 3822 1119 3822 
Q 1003 3822 797 3725 
L 750 3822 
z
" transform="scale(0.015625)"/>
       </defs>
       <use xlink:href="#TimesNewRomanPSMT-2212"/>
       <use xlink:href="#TimesNewRomanPSMT-31" transform="translate(56.396484 0)"/>
      </g>
     </g>
    </g>
    <g id="xtick_2">
     <g id="line2d_2">
      <g>
       <use xlink:href="#m745c1865fa" x="134.172662" y="307.584" style="stroke: #000000; stroke-width: 0.8"/>
      </g>
     </g>
     <g id="text_2">
      <!-- 0 -->
      <g transform="translate(131.672662 321.52775) scale(0.1 -0.1)">
       <defs>
        <path id="TimesNewRomanPSMT-30" d="M 231 2094 
Q 231 2819 450 3342 
Q 669 3866 1031 4122 
Q 1313 4325 1613 4325 
Q 2100 4325 2488 3828 
Q 2972 3213 2972 2159 
Q 2972 1422 2759 906 
Q 2547 391 2217 158 
Q 1888 -75 1581 -75 
Q 975 -75 572 641 
Q 231 1244 231 2094 
z
M 844 2016 
Q 844 1141 1059 588 
Q 1238 122 1591 122 
Q 1759 122 1940 273 
Q 2122 425 2216 781 
Q 2359 1319 2359 2297 
Q 2359 3022 2209 3506 
Q 2097 3866 1919 4016 
Q 1791 4119 1609 4119 
Q 1397 4119 1231 3928 
Q 1006 3669 925 3112 
Q 844 2556 844 2016 
z
" transform="scale(0.015625)"/>
       </defs>
       <use xlink:href="#TimesNewRomanPSMT-30"/>
      </g>
     </g>
    </g>
    <g id="xtick_3">
     <g id="line2d_3">
      <g>
       <use xlink:href="#m745c1865fa" x="199.760416" y="307.584" style="stroke: #000000; stroke-width: 0.8"/>
      </g>
     </g>
     <g id="text_3">
      <!-- 1 -->
      <g transform="translate(197.260416 321.52775) scale(0.1 -0.1)">
       <use xlink:href="#TimesNewRomanPSMT-31"/>
      </g>
     </g>
    </g>
    <g id="xtick_4">
     <g id="line2d_4">
      <g>
       <use xlink:href="#m745c1865fa" x="265.348169" y="307.584" style="stroke: #000000; stroke-width: 0.8"/>
      </g>
     </g>
     <g id="text_4">
      <!-- 2 -->
      <g transform="translate(262.848169 321.52775) scale(0.1 -0.1)">
       <defs>
        <path id="TimesNewRomanPSMT-32" d="M 2934 816 
L 2638 0 
L 138 0 
L 138 116 
Q 1241 1122 1691 1759 
Q 2141 2397 2141 2925 
Q 2141 3328 1894 3587 
Q 1647 3847 1303 3847 
Q 991 3847 742 3664 
Q 494 3481 375 3128 
L 259 3128 
Q 338 3706 661 4015 
Q 984 4325 1469 4325 
Q 1984 4325 2329 3994 
Q 2675 3663 2675 3213 
Q 2675 2891 2525 2569 
Q 2294 2063 1775 1497 
Q 997 647 803 472 
L 1909 472 
Q 2247 472 2383 497 
Q 2519 522 2628 598 
Q 2738 675 2819 816 
L 2934 816 
z
" transform="scale(0.015625)"/>
       </defs>
       <use xlink:href="#TimesNewRomanPSMT-32"/>
      </g>
     </g>
    </g>
    <g id="xtick_5">
     <g id="line2d_5">
      <g>
       <use xlink:href="#m745c1865fa" x="330.935923" y="307.584" style="stroke: #000000; stroke-width: 0.8"/>
      </g>
     </g>
     <g id="text_5">
      <!-- 3 -->
      <g transform="translate(328.435923 321.52775) scale(0.1 -0.1)">
       <defs>
        <path id="TimesNewRomanPSMT-33" d="M 325 3431 
Q 506 3859 782 4092 
Q 1059 4325 1472 4325 
Q 1981 4325 2253 3994 
Q 2459 3747 2459 3466 
Q 2459 3003 1878 2509 
Q 2269 2356 2469 2072 
Q 2669 1788 2669 1403 
Q 2669 853 2319 450 
Q 1863 -75 997 -75 
Q 569 -75 414 31 
Q 259 138 259 259 
Q 259 350 332 419 
Q 406 488 509 488 
Q 588 488 669 463 
Q 722 447 909 348 
Q 1097 250 1169 231 
Q 1284 197 1416 197 
Q 1734 197 1970 444 
Q 2206 691 2206 1028 
Q 2206 1275 2097 1509 
Q 2016 1684 1919 1775 
Q 1784 1900 1550 2001 
Q 1316 2103 1072 2103 
L 972 2103 
L 972 2197 
Q 1219 2228 1467 2375 
Q 1716 2522 1828 2728 
Q 1941 2934 1941 3181 
Q 1941 3503 1739 3701 
Q 1538 3900 1238 3900 
Q 753 3900 428 3381 
L 325 3431 
z
" transform="scale(0.015625)"/>
       </defs>
       <use xlink:href="#TimesNewRomanPSMT-33"/>
      </g>
     </g>
    </g>
    <g id="xtick_6">
     <g id="line2d_6">
      <g>
       <use xlink:href="#m745c1865fa" x="396.523676" y="307.584" style="stroke: #000000; stroke-width: 0.8"/>
      </g>
     </g>
     <g id="text_6">
      <!-- 4 -->
      <g transform="translate(394.023676 321.52775) scale(0.1 -0.1)">
       <defs>
        <path id="TimesNewRomanPSMT-34" d="M 2978 1563 
L 2978 1119 
L 2409 1119 
L 2409 0 
L 1894 0 
L 1894 1119 
L 100 1119 
L 100 1519 
L 2066 4325 
L 2409 4325 
L 2409 1563 
L 2978 1563 
z
M 1894 1563 
L 1894 3666 
L 406 1563 
L 1894 1563 
z
" transform="scale(0.015625)"/>
       </defs>
       <use xlink:href="#TimesNewRomanPSMT-34"/>
      </g>
     </g>
    </g>
    <g id="text_7">
     <!-- x1 -->
     <g transform="translate(231.16 334.610562) scale(0.1 -0.1)">
      <defs>
       <path id="TimesNewRomanPSMT-78" d="M 84 2863 
L 1431 2863 
L 1431 2747 
Q 1303 2747 1251 2703 
Q 1200 2659 1200 2588 
Q 1200 2513 1309 2356 
Q 1344 2306 1413 2200 
L 1616 1875 
L 1850 2200 
Q 2075 2509 2075 2591 
Q 2075 2656 2022 2701 
Q 1969 2747 1850 2747 
L 1850 2863 
L 2819 2863 
L 2819 2747 
Q 2666 2738 2553 2663 
Q 2400 2556 2134 2200 
L 1744 1678 
L 2456 653 
Q 2719 275 2831 198 
Q 2944 122 3122 113 
L 3122 0 
L 1772 0 
L 1772 113 
Q 1913 113 1991 175 
Q 2050 219 2050 291 
Q 2050 363 1850 653 
L 1431 1266 
L 972 653 
Q 759 369 759 316 
Q 759 241 829 180 
Q 900 119 1041 113 
L 1041 0 
L 106 0 
L 106 113 
Q 219 128 303 191 
Q 422 281 703 653 
L 1303 1450 
L 759 2238 
Q 528 2575 401 2661 
Q 275 2747 84 2747 
L 84 2863 
z
" transform="scale(0.015625)"/>
      </defs>
      <use xlink:href="#TimesNewRomanPSMT-78"/>
      <use xlink:href="#TimesNewRomanPSMT-31" transform="translate(50 0)"/>
     </g>
    </g>
   </g>
   <g id="matplotlib.axis_2">
    <g id="ytick_1">
     <g id="line2d_7">
      <defs>
       <path id="m73f18f1a07" d="M 0 0 
L -3.5 0 
" style="stroke: #000000; stroke-width: 0.8"/>
      </defs>
      <g>
       <use xlink:href="#m73f18f1a07" x="57.6" y="307.430084" style="stroke: #000000; stroke-width: 0.8"/>
      </g>
     </g>
     <g id="text_8">
      <!-- 0 -->
      <g transform="translate(45.6 310.901959) scale(0.1 -0.1)">
       <use xlink:href="#TimesNewRomanPSMT-30"/>
      </g>
     </g>
    </g>
    <g id="ytick_2">
     <g id="line2d_8">
      <g>
       <use xlink:href="#m73f18f1a07" x="57.6" y="270.845989" style="stroke: #000000; stroke-width: 0.8"/>
      </g>
     </g>
     <g id="text_9">
      <!-- 5 -->
      <g transform="translate(45.6 274.317864) scale(0.1 -0.1)">
       <defs>
        <path id="TimesNewRomanPSMT-35" d="M 2778 4238 
L 2534 3706 
L 1259 3706 
L 981 3138 
Q 1809 3016 2294 2522 
Q 2709 2097 2709 1522 
Q 2709 1188 2573 903 
Q 2438 619 2231 419 
Q 2025 219 1772 97 
Q 1413 -75 1034 -75 
Q 653 -75 479 54 
Q 306 184 306 341 
Q 306 428 378 495 
Q 450 563 559 563 
Q 641 563 702 538 
Q 763 513 909 409 
Q 1144 247 1384 247 
Q 1750 247 2026 523 
Q 2303 800 2303 1197 
Q 2303 1581 2056 1914 
Q 1809 2247 1375 2428 
Q 1034 2569 447 2591 
L 1259 4238 
L 2778 4238 
z
" transform="scale(0.015625)"/>
       </defs>
       <use xlink:href="#TimesNewRomanPSMT-35"/>
      </g>
     </g>
    </g>
    <g id="ytick_3">
     <g id="line2d_9">
      <g>
       <use xlink:href="#m73f18f1a07" x="57.6" y="234.261894" style="stroke: #000000; stroke-width: 0.8"/>
      </g>
     </g>
     <g id="text_10">
      <!-- 10 -->
      <g transform="translate(40.6 237.733769) scale(0.1 -0.1)">
       <use xlink:href="#TimesNewRomanPSMT-31"/>
       <use xlink:href="#TimesNewRomanPSMT-30" transform="translate(50 0)"/>
      </g>
     </g>
    </g>
    <g id="ytick_4">
     <g id="line2d_10">
      <g>
       <use xlink:href="#m73f18f1a07" x="57.6" y="197.677799" style="stroke: #000000; stroke-width: 0.8"/>
      </g>
     </g>
     <g id="text_11">
      <!-- 15 -->
      <g transform="translate(40.6 201.149674) scale(0.1 -0.1)">
       <use xlink:href="#TimesNewRomanPSMT-31"/>
       <use xlink:href="#TimesNewRomanPSMT-35" transform="translate(50 0)"/>
      </g>
     </g>
    </g>
    <g id="ytick_5">
     <g id="line2d_11">
      <g>
       <use xlink:href="#m73f18f1a07" x="57.6" y="161.093703" style="stroke: #000000; stroke-width: 0.8"/>
      </g>
     </g>
     <g id="text_12">
      <!-- 20 -->
      <g transform="translate(40.6 164.565578) scale(0.1 -0.1)">
       <use xlink:href="#TimesNewRomanPSMT-32"/>
       <use xlink:href="#TimesNewRomanPSMT-30" transform="translate(50 0)"/>
      </g>
     </g>
    </g>
    <g id="ytick_6">
     <g id="line2d_12">
      <g>
       <use xlink:href="#m73f18f1a07" x="57.6" y="124.509608" style="stroke: #000000; stroke-width: 0.8"/>
      </g>
     </g>
     <g id="text_13">
      <!-- 25 -->
      <g transform="translate(40.6 127.981483) scale(0.1 -0.1)">
       <use xlink:href="#TimesNewRomanPSMT-32"/>
       <use xlink:href="#TimesNewRomanPSMT-35" transform="translate(50 0)"/>
      </g>
     </g>
    </g>
    <g id="ytick_7">
     <g id="line2d_13">
      <g>
       <use xlink:href="#m73f18f1a07" x="57.6" y="87.925513" style="stroke: #000000; stroke-width: 0.8"/>
      </g>
     </g>
     <g id="text_14">
      <!-- 30 -->
      <g transform="translate(40.6 91.397388) scale(0.1 -0.1)">
       <use xlink:href="#TimesNewRomanPSMT-33"/>
       <use xlink:href="#TimesNewRomanPSMT-30" transform="translate(50 0)"/>
      </g>
     </g>
    </g>
    <g id="ytick_8">
     <g id="line2d_14">
      <g>
       <use xlink:href="#m73f18f1a07" x="57.6" y="51.341418" style="stroke: #000000; stroke-width: 0.8"/>
      </g>
     </g>
     <g id="text_15">
      <!-- 35 -->
      <g transform="translate(40.6 54.813293) scale(0.1 -0.1)">
       <use xlink:href="#TimesNewRomanPSMT-33"/>
       <use xlink:href="#TimesNewRomanPSMT-35" transform="translate(50 0)"/>
      </g>
     </g>
    </g>
    <g id="text_16">
     <!-- x2 -->
     <g transform="translate(34.460938 179.528) rotate(-90) scale(0.1 -0.1)">
      <use xlink:href="#TimesNewRomanPSMT-78"/>
      <use xlink:href="#TimesNewRomanPSMT-32" transform="translate(50 0)"/>
     </g>
    </g>
   </g>
   <g id="line2d_15">
    <defs>
     <path id="m18d3351962" d="M -3 3 
L 3 -3 
M -3 -3 
L 3 3 
" style="stroke: #0000ff"/>
    </defs>
    <g clip-path="url(#p463a868f2b)">
     <use xlink:href="#m18d3351962" x="322.969153" y="70.330632" style="fill: #0000ff; stroke: #0000ff"/>
     <use xlink:href="#m18d3351962" x="175.842979" y="297.797711" style="fill: #0000ff; stroke: #0000ff"/>
     <use xlink:href="#m18d3351962" x="294.809286" y="71.322613" style="fill: #0000ff; stroke: #0000ff"/>
     <use xlink:href="#m18d3351962" x="236.358663" y="297.042726" style="fill: #0000ff; stroke: #0000ff"/>
     <use xlink:href="#m18d3351962" x="238.26251" y="232.228565" style="fill: #0000ff; stroke: #0000ff"/>
     <use xlink:href="#m18d3351962" x="325.887405" y="261.181632" style="fill: #0000ff; stroke: #0000ff"/>
     <use xlink:href="#m18d3351962" x="210.371969" y="243.09039" style="fill: #0000ff; stroke: #0000ff"/>
     <use xlink:href="#m18d3351962" x="201.024234" y="254.166828" style="fill: #0000ff; stroke: #0000ff"/>
     <use xlink:href="#m18d3351962" x="241.785756" y="268.607706" style="fill: #0000ff; stroke: #0000ff"/>
     <use xlink:href="#m18d3351962" x="276.011105" y="214.464053" style="fill: #0000ff; stroke: #0000ff"/>
     <use xlink:href="#m18d3351962" x="278.698813" y="256.68454" style="fill: #0000ff; stroke: #0000ff"/>
     <use xlink:href="#m18d3351962" x="252.415256" y="240.921112" style="fill: #0000ff; stroke: #0000ff"/>
     <use xlink:href="#m18d3351962" x="159.217535" y="292.15746" style="fill: #0000ff; stroke: #0000ff"/>
     <use xlink:href="#m18d3351962" x="313.816646" y="260.361114" style="fill: #0000ff; stroke: #0000ff"/>
     <use xlink:href="#m18d3351962" x="287.142821" y="208.888219" style="fill: #0000ff; stroke: #0000ff"/>
     <use xlink:href="#m18d3351962" x="275.289653" y="283.271741" style="fill: #0000ff; stroke: #0000ff"/>
     <use xlink:href="#m18d3351962" x="271.091001" y="252.817415" style="fill: #0000ff; stroke: #0000ff"/>
     <use xlink:href="#m18d3351962" x="293.246929" y="113.91258" style="fill: #0000ff; stroke: #0000ff"/>
     <use xlink:href="#m18d3351962" x="214.814311" y="288.167178" style="fill: #0000ff; stroke: #0000ff"/>
     <use xlink:href="#m18d3351962" x="284.77348" y="219.507157" style="fill: #0000ff; stroke: #0000ff"/>
     <use xlink:href="#m18d3351962" x="350.654698" y="224.862681" style="fill: #0000ff; stroke: #0000ff"/>
     <use xlink:href="#m18d3351962" x="198.846746" y="289.587709" style="fill: #0000ff; stroke: #0000ff"/>
     <use xlink:href="#m18d3351962" x="246.40089" y="272.424963" style="fill: #0000ff; stroke: #0000ff"/>
     <use xlink:href="#m18d3351962" x="228.482188" y="288.78297" style="fill: #0000ff; stroke: #0000ff"/>
     <use xlink:href="#m18d3351962" x="269.641618" y="257.471093" style="fill: #0000ff; stroke: #0000ff"/>
     <use xlink:href="#m18d3351962" x="304.979734" y="174.469095" style="fill: #0000ff; stroke: #0000ff"/>
     <use xlink:href="#m18d3351962" x="302.203996" y="287.852222" style="fill: #0000ff; stroke: #0000ff"/>
     <use xlink:href="#m18d3351962" x="243.904969" y="290.730881" style="fill: #0000ff; stroke: #0000ff"/>
     <use xlink:href="#m18d3351962" x="336.025973" y="211.038271" style="fill: #0000ff; stroke: #0000ff"/>
     <use xlink:href="#m18d3351962" x="186.868201" y="293.13621" style="fill: #0000ff; stroke: #0000ff"/>
     <use xlink:href="#m18d3351962" x="153.461511" y="294.037002" style="fill: #0000ff; stroke: #0000ff"/>
     <use xlink:href="#m18d3351962" x="408.161225" y="99.345869" style="fill: #0000ff; stroke: #0000ff"/>
     <use xlink:href="#m18d3351962" x="278.623364" y="201.46323" style="fill: #0000ff; stroke: #0000ff"/>
     <use xlink:href="#m18d3351962" x="314.957917" y="241.293051" style="fill: #0000ff; stroke: #0000ff"/>
     <use xlink:href="#m18d3351962" x="238.791167" y="283.734443" style="fill: #0000ff; stroke: #0000ff"/>
     <use xlink:href="#m18d3351962" x="285.916579" y="247.979196" style="fill: #0000ff; stroke: #0000ff"/>
     <use xlink:href="#m18d3351962" x="281.869043" y="262.744547" style="fill: #0000ff; stroke: #0000ff"/>
     <use xlink:href="#m18d3351962" x="248.852" y="271.020841" style="fill: #0000ff; stroke: #0000ff"/>
     <use xlink:href="#m18d3351962" x="261.538676" y="262.240135" style="fill: #0000ff; stroke: #0000ff"/>
     <use xlink:href="#m18d3351962" x="346.657398" y="42.203682" style="fill: #0000ff; stroke: #0000ff"/>
     <use xlink:href="#m18d3351962" x="185.104412" y="294.845506" style="fill: #0000ff; stroke: #0000ff"/>
     <use xlink:href="#m18d3351962" x="234.744559" y="255.398274" style="fill: #0000ff; stroke: #0000ff"/>
     <use xlink:href="#m18d3351962" x="229.242185" y="255.59107" style="fill: #0000ff; stroke: #0000ff"/>
     <use xlink:href="#m18d3351962" x="240.73744" y="243.450344" style="fill: #0000ff; stroke: #0000ff"/>
     <use xlink:href="#m18d3351962" x="262.964998" y="247.598866" style="fill: #0000ff; stroke: #0000ff"/>
     <use xlink:href="#m18d3351962" x="251.943242" y="288.315102" style="fill: #0000ff; stroke: #0000ff"/>
     <use xlink:href="#m18d3351962" x="262.297043" y="295.478793" style="fill: #0000ff; stroke: #0000ff"/>
     <use xlink:href="#m18d3351962" x="256.397027" y="264.334756" style="fill: #0000ff; stroke: #0000ff"/>
     <use xlink:href="#m18d3351962" x="325.511419" y="140.776071" style="fill: #0000ff; stroke: #0000ff"/>
     <use xlink:href="#m18d3351962" x="220.730694" y="286.595402" style="fill: #0000ff; stroke: #0000ff"/>
    </g>
   </g>
   <g id="line2d_16">
    <defs>
     <path id="m44ed2ba07d" d="M 0 3 
C 0.795609 3 1.55874 2.683901 2.12132 2.12132 
C 2.683901 1.55874 3 0.795609 3 0 
C 3 -0.795609 2.683901 -1.55874 2.12132 -2.12132 
C 1.55874 -2.683901 0.795609 -3 0 -3 
C -0.795609 -3 -1.55874 -2.683901 -2.12132 -2.12132 
C -2.683901 -1.55874 -3 -0.795609 -3 0 
C -3 0.795609 -2.683901 1.55874 -2.12132 2.12132 
C -1.55874 2.683901 -0.795609 3 0 3 
z
" style="stroke: #008000"/>
    </defs>
    <g clip-path="url(#p463a868f2b)">
     <use xlink:href="#m44ed2ba07d" x="113.013758" y="296.892693" style="fill: #008000; stroke: #008000"/>
     <use xlink:href="#m44ed2ba07d" x="229.414683" y="290.874004" style="fill: #008000; stroke: #008000"/>
     <use xlink:href="#m44ed2ba07d" x="189.999414" y="301.030663" style="fill: #008000; stroke: #008000"/>
     <use xlink:href="#m44ed2ba07d" x="106.293516" y="303.812058" style="fill: #008000; stroke: #008000"/>
     <use xlink:href="#m44ed2ba07d" x="204.992705" y="277.049008" style="fill: #008000; stroke: #008000"/>
     <use xlink:href="#m44ed2ba07d" x="138.658546" y="281.038793" style="fill: #008000; stroke: #008000"/>
     <use xlink:href="#m44ed2ba07d" x="387.491694" y="117.26017" style="fill: #008000; stroke: #008000"/>
     <use xlink:href="#m44ed2ba07d" x="175.544162" y="302.329123" style="fill: #008000; stroke: #008000"/>
     <use xlink:href="#m44ed2ba07d" x="92.117795" y="306.852318" style="fill: #008000; stroke: #008000"/>
     <use xlink:href="#m44ed2ba07d" x="169.022873" y="274.473847" style="fill: #008000; stroke: #008000"/>
     <use xlink:href="#m44ed2ba07d" x="277.83111" y="259.55016" style="fill: #008000; stroke: #008000"/>
     <use xlink:href="#m44ed2ba07d" x="108.943983" y="304.335341" style="fill: #008000; stroke: #008000"/>
     <use xlink:href="#m44ed2ba07d" x="148.391736" y="270.713366" style="fill: #008000; stroke: #008000"/>
     <use xlink:href="#m44ed2ba07d" x="165.96094" y="297.450885" style="fill: #008000; stroke: #008000"/>
     <use xlink:href="#m44ed2ba07d" x="291.326622" y="227.88097" style="fill: #008000; stroke: #008000"/>
     <use xlink:href="#m44ed2ba07d" x="100.593496" y="301.075524" style="fill: #008000; stroke: #008000"/>
     <use xlink:href="#m44ed2ba07d" x="174.367826" y="293.374067" style="fill: #008000; stroke: #008000"/>
     <use xlink:href="#m44ed2ba07d" x="213.039968" y="297.199785" style="fill: #008000; stroke: #008000"/>
     <use xlink:href="#m44ed2ba07d" x="297.300047" y="275.116583" style="fill: #008000; stroke: #008000"/>
     <use xlink:href="#m44ed2ba07d" x="152.006839" y="289.225435" style="fill: #008000; stroke: #008000"/>
     <use xlink:href="#m44ed2ba07d" x="164.769542" y="282.143007" style="fill: #008000; stroke: #008000"/>
     <use xlink:href="#m44ed2ba07d" x="83.568153" y="302.258949" style="fill: #008000; stroke: #008000"/>
     <use xlink:href="#m44ed2ba07d" x="183.067068" y="301.673384" style="fill: #008000; stroke: #008000"/>
     <use xlink:href="#m44ed2ba07d" x="222.445985" y="293.932991" style="fill: #008000; stroke: #008000"/>
     <use xlink:href="#m44ed2ba07d" x="136.681825" y="297.356299" style="fill: #008000; stroke: #008000"/>
     <use xlink:href="#m44ed2ba07d" x="197.887424" y="290.345327" style="fill: #008000; stroke: #008000"/>
     <use xlink:href="#m44ed2ba07d" x="182.431152" y="268.195884" style="fill: #008000; stroke: #008000"/>
     <use xlink:href="#m44ed2ba07d" x="69.703517" y="302.995124" style="fill: #008000; stroke: #008000"/>
     <use xlink:href="#m44ed2ba07d" x="64.158775" y="303.643414" style="fill: #008000; stroke: #008000"/>
     <use xlink:href="#m44ed2ba07d" x="144.958029" y="298.699787" style="fill: #008000; stroke: #008000"/>
     <use xlink:href="#m44ed2ba07d" x="82.365892" y="299.802398" style="fill: #008000; stroke: #008000"/>
     <use xlink:href="#m44ed2ba07d" x="124.773952" y="303.278832" style="fill: #008000; stroke: #008000"/>
     <use xlink:href="#m44ed2ba07d" x="80.374481" y="303.774597" style="fill: #008000; stroke: #008000"/>
     <use xlink:href="#m44ed2ba07d" x="178.07289" y="292.56724" style="fill: #008000; stroke: #008000"/>
     <use xlink:href="#m44ed2ba07d" x="277.534703" y="272.342824" style="fill: #008000; stroke: #008000"/>
     <use xlink:href="#m44ed2ba07d" x="215.845552" y="291.15181" style="fill: #008000; stroke: #008000"/>
     <use xlink:href="#m44ed2ba07d" x="108.850383" y="298.860192" style="fill: #008000; stroke: #008000"/>
     <use xlink:href="#m44ed2ba07d" x="263.554978" y="300.48331" style="fill: #008000; stroke: #008000"/>
     <use xlink:href="#m44ed2ba07d" x="141.739412" y="304.361794" style="fill: #008000; stroke: #008000"/>
     <use xlink:href="#m44ed2ba07d" x="93.183677" y="304.727434" style="fill: #008000; stroke: #008000"/>
     <use xlink:href="#m44ed2ba07d" x="182.419643" y="292.727661" style="fill: #008000; stroke: #008000"/>
     <use xlink:href="#m44ed2ba07d" x="252.132588" y="299.875704" style="fill: #008000; stroke: #008000"/>
     <use xlink:href="#m44ed2ba07d" x="124.443582" y="304.003185" style="fill: #008000; stroke: #008000"/>
     <use xlink:href="#m44ed2ba07d" x="128.005212" y="299.570174" style="fill: #008000; stroke: #008000"/>
     <use xlink:href="#m44ed2ba07d" x="262.15181" y="224.969421" style="fill: #008000; stroke: #008000"/>
     <use xlink:href="#m44ed2ba07d" x="83.888068" y="303.866501" style="fill: #008000; stroke: #008000"/>
     <use xlink:href="#m44ed2ba07d" x="169.548961" y="300.714507" style="fill: #008000; stroke: #008000"/>
     <use xlink:href="#m44ed2ba07d" x="119.285467" y="298.756976" style="fill: #008000; stroke: #008000"/>
     <use xlink:href="#m44ed2ba07d" x="108.555197" y="299.848272" style="fill: #008000; stroke: #008000"/>
     <use xlink:href="#m44ed2ba07d" x="197.285053" y="299.524592" style="fill: #008000; stroke: #008000"/>
    </g>
   </g>
   <g id="line2d_17">
    <path d="M 64.158775 202.439841 
L 369.997425 346.6 
L 369.997425 346.6 
" clip-path="url(#p463a868f2b)" style="fill: none; stroke: #ff0000; stroke-width: 2; stroke-linecap: square"/>
   </g>
   <g id="patch_3">
    <path d="M 57.6 307.584 
L 57.6 41.472 
" style="fill: none; stroke: #000000; stroke-width: 0.8; stroke-linejoin: miter; stroke-linecap: square"/>
   </g>
   <g id="patch_4">
    <path d="M 414.72 307.584 
L 414.72 41.472 
" style="fill: none; stroke: #000000; stroke-width: 0.8; stroke-linejoin: miter; stroke-linecap: square"/>
   </g>
   <g id="patch_5">
    <path d="M 57.6 307.584 
L 414.72 307.584 
" style="fill: none; stroke: #000000; stroke-width: 0.8; stroke-linejoin: miter; stroke-linecap: square"/>
   </g>
   <g id="patch_6">
    <path d="M 57.6 41.472 
L 414.72 41.472 
" style="fill: none; stroke: #000000; stroke-width: 0.8; stroke-linejoin: miter; stroke-linecap: square"/>
   </g>
  </g>
 </g>
 <defs>
  <clipPath id="p463a868f2b">
   <rect x="57.6" y="41.472" width="357.12" height="266.112"/>
  </clipPath>
 </defs>
</svg>
