<?xml version="1.0" encoding="utf-8" standalone="no"?>
<!DOCTYPE svg PUBLIC "-//W3C//DTD SVG 1.1//EN"
  "http://www.w3.org/Graphics/SVG/1.1/DTD/svg11.dtd">
<svg xmlns:xlink="http://www.w3.org/1999/xlink" width="460.8pt" height="345.6pt" viewBox="0 0 460.8 345.6" xmlns="http://www.w3.org/2000/svg" version="1.1">
 <metadata>
  <rdf:RDF xmlns:dc="http://purl.org/dc/elements/1.1/" xmlns:cc="http://creativecommons.org/ns#" xmlns:rdf="http://www.w3.org/1999/02/22-rdf-syntax-ns#">
   <cc:Work>
    <dc:type rdf:resource="http://purl.org/dc/dcmitype/StillImage"/>
    <dc:date>2025-10-07T20:42:27.832223</dc:date>
    <dc:format>image/svg+xml</dc:format>
    <dc:creator>
     <cc:Agent>
      <dc:title>Matplotlib v3.10.0, https://matplotlib.org/</dc:title>
     </cc:Agent>
    </dc:creator>
   </cc:Work>
  </rdf:RDF>
 </metadata>
 <defs>
  <style type="text/css">*{stroke-linejoin: round; stroke-linecap: butt}</style>
 </defs>
 <g id="figure_1">
  <g id="patch_1">
   <path d="M 0 345.6 
L 460.8 345.6 
L 460.8 0 
L 0 0 
z
" style="fill: #ffffff"/>
  </g>
  <g id="axes_1">
   <g id="patch_2">
    <path d="M 57.6 307.584 
L 414.72 307.584 
L 414.72 41.472 
L 57.6 41.472 
z
" style="fill: #ffffff"/>
   </g>
   <g id="PathCollection_1">
    <defs>
     <path id="m2bd5f1c084" d="M 0 3 
C 0.795609 3 1.55874 2.683901 2.12132 2.12132 
C 2.683901 1.55874 3 0.795609 3 0 
C 3 -0.795609 2.683901 -1.55874 2.12132 -2.12132 
C 1.55874 -2.683901 0.795609 -3 0 -3 
C -0.795609 -3 -1.55874 -2.683901 -2.12132 -2.12132 
C -2.683901 -1.55874 -3 -0.795609 -3 0 
C -3 0.795609 -2.683901 1.55874 -2.12132 2.12132 
C -1.55874 2.683901 -0.795609 3 0 3 
z
" style="stroke: #000000"/>
    </defs>
    <g clip-path="url(#pc20ee38659)">
     <use xlink:href="#m2bd5f1c084" x="186.56" y="204.101524" style="fill: #1f77b4; stroke: #000000"/>
     <use xlink:href="#m2bd5f1c084" x="257.417143" y="230.920437" style="fill: #1f77b4; stroke: #000000"/>
     <use xlink:href="#m2bd5f1c084" x="229.074286" y="182.368413" style="fill: #1f77b4; stroke: #000000"/>
     <use xlink:href="#m2bd5f1c084" x="158.217143" y="229.270739" style="fill: #1f77b4; stroke: #000000"/>
     <use xlink:href="#m2bd5f1c084" x="172.388571" y="120.552789" style="fill: #1f77b4; stroke: #000000"/>
     <use xlink:href="#m2bd5f1c084" x="186.56" y="240.605027" style="fill: #1f77b4; stroke: #000000"/>
     <use xlink:href="#m2bd5f1c084" x="257.417143" y="225.772473" style="fill: #1f77b4; stroke: #000000"/>
     <use xlink:href="#m2bd5f1c084" x="186.56" y="220.839165" style="fill: #1f77b4; stroke: #000000"/>
     <use xlink:href="#m2bd5f1c084" x="172.388571" y="214.103134" style="fill: #1f77b4; stroke: #000000"/>
     <use xlink:href="#m2bd5f1c084" x="158.217143" y="239.449215" style="fill: #1f77b4; stroke: #000000"/>
     <use xlink:href="#m2bd5f1c084" x="158.217143" y="249.095463" style="fill: #1f77b4; stroke: #000000"/>
     <use xlink:href="#m2bd5f1c084" x="158.217143" y="235.293399" style="fill: #1f77b4; stroke: #000000"/>
     <use xlink:href="#m2bd5f1c084" x="214.902857" y="219.479267" style="fill: #1f77b4; stroke: #000000"/>
     <use xlink:href="#m2bd5f1c084" x="200.731429" y="206.04756" style="fill: #1f77b4; stroke: #000000"/>
     <use xlink:href="#m2bd5f1c084" x="158.217143" y="210.754832" style="fill: #1f77b4; stroke: #000000"/>
     <use xlink:href="#m2bd5f1c084" x="257.417143" y="205.18629" style="fill: #1f77b4; stroke: #000000"/>
     <use xlink:href="#m2bd5f1c084" x="229.074286" y="214.660225" style="fill: #1f77b4; stroke: #000000"/>
     <use xlink:href="#m2bd5f1c084" x="384.96" y="174.860218" style="fill: #1f77b4; stroke: #000000"/>
     <use xlink:href="#m2bd5f1c084" x="229.074286" y="210.319618" style="fill: #1f77b4; stroke: #000000"/>
     <use xlink:href="#m2bd5f1c084" x="200.731429" y="206.034755" style="fill: #1f77b4; stroke: #000000"/>
     <use xlink:href="#m2bd5f1c084" x="87.36" y="227.644539" style="fill: #1f77b4; stroke: #000000"/>
     <use xlink:href="#m2bd5f1c084" x="214.902857" y="189.015265" style="fill: #1f77b4; stroke: #000000"/>
     <use xlink:href="#m2bd5f1c084" x="229.074286" y="218.006254" style="fill: #1f77b4; stroke: #000000"/>
     <use xlink:href="#m2bd5f1c084" x="129.874286" y="232.728743" style="fill: #1f77b4; stroke: #000000"/>
     <use xlink:href="#m2bd5f1c084" x="186.56" y="242.463842" style="fill: #1f77b4; stroke: #000000"/>
     <use xlink:href="#m2bd5f1c084" x="115.702857" y="244.974918" style="fill: #1f77b4; stroke: #000000"/>
     <use xlink:href="#m2bd5f1c084" x="243.245714" y="150.29645" style="fill: #1f77b4; stroke: #000000"/>
     <use xlink:href="#m2bd5f1c084" x="158.217143" y="241.881883" style="fill: #1f77b4; stroke: #000000"/>
     <use xlink:href="#m2bd5f1c084" x="257.417143" y="157.505914" style="fill: #1f77b4; stroke: #000000"/>
     <use xlink:href="#m2bd5f1c084" x="186.56" y="249.424846" style="fill: #1f77b4; stroke: #000000"/>
     <use xlink:href="#m2bd5f1c084" x="158.217143" y="203.374181" style="fill: #1f77b4; stroke: #000000"/>
     <use xlink:href="#m2bd5f1c084" x="186.56" y="222.455466" style="fill: #1f77b4; stroke: #000000"/>
     <use xlink:href="#m2bd5f1c084" x="129.874286" y="225.874307" style="fill: #1f77b4; stroke: #000000"/>
     <use xlink:href="#m2bd5f1c084" x="214.902857" y="188.675345" style="fill: #1f77b4; stroke: #000000"/>
     <use xlink:href="#m2bd5f1c084" x="186.56" y="196.63301" style="fill: #1f77b4; stroke: #000000"/>
     <use xlink:href="#m2bd5f1c084" x="214.902857" y="173.712722" style="fill: #1f77b4; stroke: #000000"/>
     <use xlink:href="#m2bd5f1c084" x="158.217143" y="217.689698" style="fill: #1f77b4; stroke: #000000"/>
     <use xlink:href="#m2bd5f1c084" x="158.217143" y="234.502137" style="fill: #1f77b4; stroke: #000000"/>
     <use xlink:href="#m2bd5f1c084" x="243.245714" y="198.388137" style="fill: #1f77b4; stroke: #000000"/>
     <use xlink:href="#m2bd5f1c084" x="101.531429" y="245.97183" style="fill: #1f77b4; stroke: #000000"/>
     <use xlink:href="#m2bd5f1c084" x="144.045714" y="257.017264" style="fill: #1f77b4; stroke: #000000"/>
     <use xlink:href="#m2bd5f1c084" x="257.417143" y="174.077668" style="fill: #1f77b4; stroke: #000000"/>
     <use xlink:href="#m2bd5f1c084" x="158.217143" y="236.600339" style="fill: #1f77b4; stroke: #000000"/>
     <use xlink:href="#m2bd5f1c084" x="115.702857" y="214.178603" style="fill: #1f77b4; stroke: #000000"/>
     <use xlink:href="#m2bd5f1c084" x="299.931429" y="147.170927" style="fill: #1f77b4; stroke: #000000"/>
     <use xlink:href="#m2bd5f1c084" x="257.417143" y="197.68737" style="fill: #1f77b4; stroke: #000000"/>
     <use xlink:href="#m2bd5f1c084" x="129.874286" y="200.125507" style="fill: #1f77b4; stroke: #000000"/>
     <use xlink:href="#m2bd5f1c084" x="144.045714" y="227.977186" style="fill: #1f77b4; stroke: #000000"/>
     <use xlink:href="#m2bd5f1c084" x="243.245714" y="220.299348" style="fill: #1f77b4; stroke: #000000"/>
     <use xlink:href="#m2bd5f1c084" x="229.074286" y="180.717228" style="fill: #1f77b4; stroke: #000000"/>
     <use xlink:href="#m2bd5f1c084" x="186.56" y="225.907817" style="fill: #1f77b4; stroke: #000000"/>
     <use xlink:href="#m2bd5f1c084" x="172.388571" y="210.500207" style="fill: #1f77b4; stroke: #000000"/>
     <use xlink:href="#m2bd5f1c084" x="214.902857" y="200.948473" style="fill: #1f77b4; stroke: #000000"/>
     <use xlink:href="#m2bd5f1c084" x="200.731429" y="239.0989" style="fill: #1f77b4; stroke: #000000"/>
     <use xlink:href="#m2bd5f1c084" x="285.76" y="163.735831" style="fill: #1f77b4; stroke: #000000"/>
     <use xlink:href="#m2bd5f1c084" x="129.874286" y="225.578429" style="fill: #1f77b4; stroke: #000000"/>
     <use xlink:href="#m2bd5f1c084" x="158.217143" y="234.118765" style="fill: #1f77b4; stroke: #000000"/>
     <use xlink:href="#m2bd5f1c084" x="214.902857" y="198.594954" style="fill: #1f77b4; stroke: #000000"/>
     <use xlink:href="#m2bd5f1c084" x="257.417143" y="205.403108" style="fill: #1f77b4; stroke: #000000"/>
     <use xlink:href="#m2bd5f1c084" x="285.76" y="201.85837" style="fill: #1f77b4; stroke: #000000"/>
     <use xlink:href="#m2bd5f1c084" x="186.56" y="229.682577" style="fill: #1f77b4; stroke: #000000"/>
     <use xlink:href="#m2bd5f1c084" x="257.417143" y="222.62537" style="fill: #1f77b4; stroke: #000000"/>
     <use xlink:href="#m2bd5f1c084" x="243.245714" y="159.125893" style="fill: #1f77b4; stroke: #000000"/>
     <use xlink:href="#m2bd5f1c084" x="186.56" y="237.035675" style="fill: #1f77b4; stroke: #000000"/>
     <use xlink:href="#m2bd5f1c084" x="229.074286" y="135.051162" style="fill: #1f77b4; stroke: #000000"/>
     <use xlink:href="#m2bd5f1c084" x="172.388571" y="238.116011" style="fill: #1f77b4; stroke: #000000"/>
     <use xlink:href="#m2bd5f1c084" x="172.388571" y="217.455296" style="fill: #1f77b4; stroke: #000000"/>
     <use xlink:href="#m2bd5f1c084" x="115.702857" y="246.547429" style="fill: #1f77b4; stroke: #000000"/>
     <use xlink:href="#m2bd5f1c084" x="342.445714" y="168.333651" style="fill: #1f77b4; stroke: #000000"/>
     <use xlink:href="#m2bd5f1c084" x="200.731429" y="217.88708" style="fill: #1f77b4; stroke: #000000"/>
     <use xlink:href="#m2bd5f1c084" x="129.874286" y="246.033212" style="fill: #1f77b4; stroke: #000000"/>
     <use xlink:href="#m2bd5f1c084" x="271.588571" y="156.845831" style="fill: #1f77b4; stroke: #000000"/>
     <use xlink:href="#m2bd5f1c084" x="200.731429" y="222.87832" style="fill: #1f77b4; stroke: #000000"/>
     <use xlink:href="#m2bd5f1c084" x="243.245714" y="196.408531" style="fill: #1f77b4; stroke: #000000"/>
     <use xlink:href="#m2bd5f1c084" x="243.245714" y="168.291624" style="fill: #1f77b4; stroke: #000000"/>
     <use xlink:href="#m2bd5f1c084" x="144.045714" y="161.721716" style="fill: #1f77b4; stroke: #000000"/>
     <use xlink:href="#m2bd5f1c084" x="186.56" y="244.115521" style="fill: #1f77b4; stroke: #000000"/>
     <use xlink:href="#m2bd5f1c084" x="214.902857" y="177.663042" style="fill: #1f77b4; stroke: #000000"/>
     <use xlink:href="#m2bd5f1c084" x="186.56" y="232.313892" style="fill: #1f77b4; stroke: #000000"/>
     <use xlink:href="#m2bd5f1c084" x="172.388571" y="232.432559" style="fill: #1f77b4; stroke: #000000"/>
     <use xlink:href="#m2bd5f1c084" x="186.56" y="191.495029" style="fill: #1f77b4; stroke: #000000"/>
     <use xlink:href="#m2bd5f1c084" x="285.76" y="189.74779" style="fill: #1f77b4; stroke: #000000"/>
     <use xlink:href="#m2bd5f1c084" x="229.074286" y="148.852353" style="fill: #1f77b4; stroke: #000000"/>
     <use xlink:href="#m2bd5f1c084" x="158.217143" y="254.680631" style="fill: #1f77b4; stroke: #000000"/>
     <use xlink:href="#m2bd5f1c084" x="115.702857" y="254.755361" style="fill: #1f77b4; stroke: #000000"/>
     <use xlink:href="#m2bd5f1c084" x="200.731429" y="223.00914" style="fill: #1f77b4; stroke: #000000"/>
     <use xlink:href="#m2bd5f1c084" x="299.931429" y="96.749653" style="fill: #1f77b4; stroke: #000000"/>
     <use xlink:href="#m2bd5f1c084" x="115.702857" y="263.906205" style="fill: #1f77b4; stroke: #000000"/>
     <use xlink:href="#m2bd5f1c084" x="271.588571" y="140.253563" style="fill: #1f77b4; stroke: #000000"/>
     <use xlink:href="#m2bd5f1c084" x="214.902857" y="209.54945" style="fill: #1f77b4; stroke: #000000"/>
     <use xlink:href="#m2bd5f1c084" x="243.245714" y="242.43186" style="fill: #1f77b4; stroke: #000000"/>
     <use xlink:href="#m2bd5f1c084" x="115.702857" y="232.438149" style="fill: #1f77b4; stroke: #000000"/>
     <use xlink:href="#m2bd5f1c084" x="186.56" y="225.200394" style="fill: #1f77b4; stroke: #000000"/>
     <use xlink:href="#m2bd5f1c084" x="144.045714" y="244.027956" style="fill: #1f77b4; stroke: #000000"/>
     <use xlink:href="#m2bd5f1c084" x="285.76" y="148.101997" style="fill: #1f77b4; stroke: #000000"/>
     <use xlink:href="#m2bd5f1c084" x="144.045714" y="228.840968" style="fill: #1f77b4; stroke: #000000"/>
     <use xlink:href="#m2bd5f1c084" x="200.731429" y="209.786595" style="fill: #1f77b4; stroke: #000000"/>
     <use xlink:href="#m2bd5f1c084" x="172.388571" y="210.822731" style="fill: #1f77b4; stroke: #000000"/>
     <use xlink:href="#m2bd5f1c084" x="158.217143" y="213.309284" style="fill: #1f77b4; stroke: #000000"/>
     <use xlink:href="#m2bd5f1c084" x="314.102857" y="143.951585" style="fill: #1f77b4; stroke: #000000"/>
     <use xlink:href="#m2bd5f1c084" x="172.388571" y="201.56948" style="fill: #1f77b4; stroke: #000000"/>
     <use xlink:href="#m2bd5f1c084" x="356.617143" y="119.455839" style="fill: #1f77b4; stroke: #000000"/>
     <use xlink:href="#m2bd5f1c084" x="271.588571" y="189.783734" style="fill: #1f77b4; stroke: #000000"/>
     <use xlink:href="#m2bd5f1c084" x="129.874286" y="178.180042" style="fill: #1f77b4; stroke: #000000"/>
     <use xlink:href="#m2bd5f1c084" x="144.045714" y="208.896831" style="fill: #1f77b4; stroke: #000000"/>
     <use xlink:href="#m2bd5f1c084" x="59.017143" y="261.035478" style="fill: #1f77b4; stroke: #000000"/>
     <use xlink:href="#m2bd5f1c084" x="271.588571" y="213.18108" style="fill: #1f77b4; stroke: #000000"/>
     <use xlink:href="#m2bd5f1c084" x="129.874286" y="234.241977" style="fill: #1f77b4; stroke: #000000"/>
     <use xlink:href="#m2bd5f1c084" x="172.388571" y="215.773188" style="fill: #1f77b4; stroke: #000000"/>
     <use xlink:href="#m2bd5f1c084" x="229.074286" y="198.069471" style="fill: #1f77b4; stroke: #000000"/>
     <use xlink:href="#m2bd5f1c084" x="257.417143" y="222.065162" style="fill: #1f77b4; stroke: #000000"/>
     <use xlink:href="#m2bd5f1c084" x="144.045714" y="200.119146" style="fill: #1f77b4; stroke: #000000"/>
     <use xlink:href="#m2bd5f1c084" x="172.388571" y="239.976933" style="fill: #1f77b4; stroke: #000000"/>
     <use xlink:href="#m2bd5f1c084" x="229.074286" y="201.855904" style="fill: #1f77b4; stroke: #000000"/>
     <use xlink:href="#m2bd5f1c084" x="271.588571" y="166.065151" style="fill: #1f77b4; stroke: #000000"/>
     <use xlink:href="#m2bd5f1c084" x="413.302857" y="120.576975" style="fill: #1f77b4; stroke: #000000"/>
     <use xlink:href="#m2bd5f1c084" x="299.931429" y="161.593417" style="fill: #1f77b4; stroke: #000000"/>
     <use xlink:href="#m2bd5f1c084" x="243.245714" y="179.298394" style="fill: #1f77b4; stroke: #000000"/>
     <use xlink:href="#m2bd5f1c084" x="172.388571" y="224.577058" style="fill: #1f77b4; stroke: #000000"/>
     <use xlink:href="#m2bd5f1c084" x="172.388571" y="202.430565" style="fill: #1f77b4; stroke: #000000"/>
     <use xlink:href="#m2bd5f1c084" x="214.902857" y="209.875495" style="fill: #1f77b4; stroke: #000000"/>
     <use xlink:href="#m2bd5f1c084" x="243.245714" y="189.724974" style="fill: #1f77b4; stroke: #000000"/>
     <use xlink:href="#m2bd5f1c084" x="129.874286" y="242.981905" style="fill: #1f77b4; stroke: #000000"/>
     <use xlink:href="#m2bd5f1c084" x="229.074286" y="212.499578" style="fill: #1f77b4; stroke: #000000"/>
     <use xlink:href="#m2bd5f1c084" x="186.56" y="241.66025" style="fill: #1f77b4; stroke: #000000"/>
     <use xlink:href="#m2bd5f1c084" x="271.588571" y="170.255704" style="fill: #1f77b4; stroke: #000000"/>
     <use xlink:href="#m2bd5f1c084" x="200.731429" y="175.588437" style="fill: #1f77b4; stroke: #000000"/>
     <use xlink:href="#m2bd5f1c084" x="314.102857" y="162.277873" style="fill: #1f77b4; stroke: #000000"/>
     <use xlink:href="#m2bd5f1c084" x="158.217143" y="210.072233" style="fill: #1f77b4; stroke: #000000"/>
     <use xlink:href="#m2bd5f1c084" x="158.217143" y="227.494266" style="fill: #1f77b4; stroke: #000000"/>
     <use xlink:href="#m2bd5f1c084" x="186.56" y="252.318669" style="fill: #1f77b4; stroke: #000000"/>
     <use xlink:href="#m2bd5f1c084" x="87.36" y="240.707792" style="fill: #1f77b4; stroke: #000000"/>
     <use xlink:href="#m2bd5f1c084" x="172.388571" y="243.050205" style="fill: #1f77b4; stroke: #000000"/>
     <use xlink:href="#m2bd5f1c084" x="257.417143" y="149.868299" style="fill: #1f77b4; stroke: #000000"/>
     <use xlink:href="#m2bd5f1c084" x="285.76" y="206.147044" style="fill: #1f77b4; stroke: #000000"/>
     <use xlink:href="#m2bd5f1c084" x="285.76" y="171.832061" style="fill: #1f77b4; stroke: #000000"/>
     <use xlink:href="#m2bd5f1c084" x="299.931429" y="129.072743" style="fill: #1f77b4; stroke: #000000"/>
     <use xlink:href="#m2bd5f1c084" x="129.874286" y="231.536612" style="fill: #1f77b4; stroke: #000000"/>
     <use xlink:href="#m2bd5f1c084" x="200.731429" y="198.220661" style="fill: #1f77b4; stroke: #000000"/>
     <use xlink:href="#m2bd5f1c084" x="299.931429" y="178.395017" style="fill: #1f77b4; stroke: #000000"/>
     <use xlink:href="#m2bd5f1c084" x="285.76" y="164.16701" style="fill: #1f77b4; stroke: #000000"/>
     <use xlink:href="#m2bd5f1c084" x="144.045714" y="196.759295" style="fill: #1f77b4; stroke: #000000"/>
     <use xlink:href="#m2bd5f1c084" x="257.417143" y="153.078341" style="fill: #1f77b4; stroke: #000000"/>
     <use xlink:href="#m2bd5f1c084" x="158.217143" y="195.379995" style="fill: #1f77b4; stroke: #000000"/>
     <use xlink:href="#m2bd5f1c084" x="285.76" y="119.649801" style="fill: #1f77b4; stroke: #000000"/>
     <use xlink:href="#m2bd5f1c084" x="172.388571" y="207.046352" style="fill: #1f77b4; stroke: #000000"/>
     <use xlink:href="#m2bd5f1c084" x="257.417143" y="144.843338" style="fill: #1f77b4; stroke: #000000"/>
     <use xlink:href="#m2bd5f1c084" x="285.76" y="178.402229" style="fill: #1f77b4; stroke: #000000"/>
     <use xlink:href="#m2bd5f1c084" x="101.531429" y="249.340672" style="fill: #1f77b4; stroke: #000000"/>
     <use xlink:href="#m2bd5f1c084" x="115.702857" y="212.842551" style="fill: #1f77b4; stroke: #000000"/>
     <use xlink:href="#m2bd5f1c084" x="158.217143" y="217.65594" style="fill: #1f77b4; stroke: #000000"/>
     <use xlink:href="#m2bd5f1c084" x="144.045714" y="211.221534" style="fill: #1f77b4; stroke: #000000"/>
     <use xlink:href="#m2bd5f1c084" x="299.931429" y="147.385159" style="fill: #1f77b4; stroke: #000000"/>
     <use xlink:href="#m2bd5f1c084" x="214.902857" y="174.556914" style="fill: #1f77b4; stroke: #000000"/>
     <use xlink:href="#m2bd5f1c084" x="229.074286" y="179.666421" style="fill: #1f77b4; stroke: #000000"/>
     <use xlink:href="#m2bd5f1c084" x="158.217143" y="234.265132" style="fill: #1f77b4; stroke: #000000"/>
     <use xlink:href="#m2bd5f1c084" x="101.531429" y="226.215172" style="fill: #1f77b4; stroke: #000000"/>
     <use xlink:href="#m2bd5f1c084" x="129.874286" y="222.2686" style="fill: #1f77b4; stroke: #000000"/>
     <use xlink:href="#m2bd5f1c084" x="115.702857" y="254.345595" style="fill: #1f77b4; stroke: #000000"/>
     <use xlink:href="#m2bd5f1c084" x="115.702857" y="250.486646" style="fill: #1f77b4; stroke: #000000"/>
     <use xlink:href="#m2bd5f1c084" x="129.874286" y="256.776687" style="fill: #1f77b4; stroke: #000000"/>
     <use xlink:href="#m2bd5f1c084" x="214.902857" y="209.76301" style="fill: #1f77b4; stroke: #000000"/>
     <use xlink:href="#m2bd5f1c084" x="158.217143" y="210.946333" style="fill: #1f77b4; stroke: #000000"/>
     <use xlink:href="#m2bd5f1c084" x="158.217143" y="220.559403" style="fill: #1f77b4; stroke: #000000"/>
     <use xlink:href="#m2bd5f1c084" x="200.731429" y="228.168044" style="fill: #1f77b4; stroke: #000000"/>
     <use xlink:href="#m2bd5f1c084" x="257.417143" y="185.304465" style="fill: #1f77b4; stroke: #000000"/>
     <use xlink:href="#m2bd5f1c084" x="214.902857" y="150.717257" style="fill: #1f77b4; stroke: #000000"/>
     <use xlink:href="#m2bd5f1c084" x="172.388571" y="224.139909" style="fill: #1f77b4; stroke: #000000"/>
     <use xlink:href="#m2bd5f1c084" x="243.245714" y="188.432392" style="fill: #1f77b4; stroke: #000000"/>
     <use xlink:href="#m2bd5f1c084" x="129.874286" y="192.60751" style="fill: #1f77b4; stroke: #000000"/>
     <use xlink:href="#m2bd5f1c084" x="299.931429" y="144.167742" style="fill: #1f77b4; stroke: #000000"/>
     <use xlink:href="#m2bd5f1c084" x="129.874286" y="200.749327" style="fill: #1f77b4; stroke: #000000"/>
     <use xlink:href="#m2bd5f1c084" x="129.874286" y="250.239175" style="fill: #1f77b4; stroke: #000000"/>
     <use xlink:href="#m2bd5f1c084" x="285.76" y="185.106097" style="fill: #1f77b4; stroke: #000000"/>
     <use xlink:href="#m2bd5f1c084" x="271.588571" y="139.099057" style="fill: #1f77b4; stroke: #000000"/>
     <use xlink:href="#m2bd5f1c084" x="115.702857" y="243.721178" style="fill: #1f77b4; stroke: #000000"/>
     <use xlink:href="#m2bd5f1c084" x="342.445714" y="131.24088" style="fill: #1f77b4; stroke: #000000"/>
     <use xlink:href="#m2bd5f1c084" x="158.217143" y="170.976769" style="fill: #1f77b4; stroke: #000000"/>
     <use xlink:href="#m2bd5f1c084" x="115.702857" y="241.63154" style="fill: #1f77b4; stroke: #000000"/>
     <use xlink:href="#m2bd5f1c084" x="144.045714" y="209.132185" style="fill: #1f77b4; stroke: #000000"/>
     <use xlink:href="#m2bd5f1c084" x="271.588571" y="148.980346" style="fill: #1f77b4; stroke: #000000"/>
     <use xlink:href="#m2bd5f1c084" x="342.445714" y="158.887425" style="fill: #1f77b4; stroke: #000000"/>
     <use xlink:href="#m2bd5f1c084" x="172.388571" y="198.121331" style="fill: #1f77b4; stroke: #000000"/>
     <use xlink:href="#m2bd5f1c084" x="73.188571" y="236.257941" style="fill: #1f77b4; stroke: #000000"/>
     <use xlink:href="#m2bd5f1c084" x="186.56" y="201.095932" style="fill: #1f77b4; stroke: #000000"/>
     <use xlink:href="#m2bd5f1c084" x="172.388571" y="213.623346" style="fill: #1f77b4; stroke: #000000"/>
     <use xlink:href="#m2bd5f1c084" x="186.56" y="210.705203" style="fill: #1f77b4; stroke: #000000"/>
     <use xlink:href="#m2bd5f1c084" x="172.388571" y="217.223868" style="fill: #1f77b4; stroke: #000000"/>
     <use xlink:href="#m2bd5f1c084" x="129.874286" y="223.120887" style="fill: #1f77b4; stroke: #000000"/>
     <use xlink:href="#m2bd5f1c084" x="129.874286" y="249.781373" style="fill: #1f77b4; stroke: #000000"/>
     <use xlink:href="#m2bd5f1c084" x="214.902857" y="197.75845" style="fill: #1f77b4; stroke: #000000"/>
     <use xlink:href="#m2bd5f1c084" x="271.588571" y="162.111702" style="fill: #1f77b4; stroke: #000000"/>
     <use xlink:href="#m2bd5f1c084" x="129.874286" y="233.826545" style="fill: #1f77b4; stroke: #000000"/>
     <use xlink:href="#m2bd5f1c084" x="115.702857" y="244.323655" style="fill: #1f77b4; stroke: #000000"/>
     <use xlink:href="#m2bd5f1c084" x="129.874286" y="236.816139" style="fill: #1f77b4; stroke: #000000"/>
     <use xlink:href="#m2bd5f1c084" x="144.045714" y="233.075595" style="fill: #1f77b4; stroke: #000000"/>
     <use xlink:href="#m2bd5f1c084" x="200.731429" y="176.173341" style="fill: #1f77b4; stroke: #000000"/>
     <use xlink:href="#m2bd5f1c084" x="214.902857" y="185.782057" style="fill: #1f77b4; stroke: #000000"/>
     <use xlink:href="#m2bd5f1c084" x="257.417143" y="186.408611" style="fill: #1f77b4; stroke: #000000"/>
     <use xlink:href="#m2bd5f1c084" x="172.388571" y="170.976629" style="fill: #1f77b4; stroke: #000000"/>
     <use xlink:href="#m2bd5f1c084" x="115.702857" y="246.899422" style="fill: #1f77b4; stroke: #000000"/>
     <use xlink:href="#m2bd5f1c084" x="87.36" y="260.762314" style="fill: #1f77b4; stroke: #000000"/>
     <use xlink:href="#m2bd5f1c084" x="243.245714" y="246.157103" style="fill: #1f77b4; stroke: #000000"/>
     <use xlink:href="#m2bd5f1c084" x="129.874286" y="212.820146" style="fill: #1f77b4; stroke: #000000"/>
     <use xlink:href="#m2bd5f1c084" x="214.902857" y="211.195679" style="fill: #1f77b4; stroke: #000000"/>
     <use xlink:href="#m2bd5f1c084" x="186.56" y="234.416089" style="fill: #1f77b4; stroke: #000000"/>
     <use xlink:href="#m2bd5f1c084" x="200.731429" y="201.199596" style="fill: #1f77b4; stroke: #000000"/>
     <use xlink:href="#m2bd5f1c084" x="229.074286" y="232.067211" style="fill: #1f77b4; stroke: #000000"/>
     <use xlink:href="#m2bd5f1c084" x="200.731429" y="226.008553" style="fill: #1f77b4; stroke: #000000"/>
     <use xlink:href="#m2bd5f1c084" x="129.874286" y="234.644466" style="fill: #1f77b4; stroke: #000000"/>
     <use xlink:href="#m2bd5f1c084" x="200.731429" y="197.260836" style="fill: #1f77b4; stroke: #000000"/>
     <use xlink:href="#m2bd5f1c084" x="172.388571" y="244.98212" style="fill: #1f77b4; stroke: #000000"/>
     <use xlink:href="#m2bd5f1c084" x="144.045714" y="234.195564" style="fill: #1f77b4; stroke: #000000"/>
     <use xlink:href="#m2bd5f1c084" x="158.217143" y="224.415739" style="fill: #1f77b4; stroke: #000000"/>
     <use xlink:href="#m2bd5f1c084" x="200.731429" y="253.830923" style="fill: #1f77b4; stroke: #000000"/>
     <use xlink:href="#m2bd5f1c084" x="314.102857" y="211.542549" style="fill: #1f77b4; stroke: #000000"/>
     <use xlink:href="#m2bd5f1c084" x="129.874286" y="254.005842" style="fill: #1f77b4; stroke: #000000"/>
     <use xlink:href="#m2bd5f1c084" x="214.902857" y="217.312037" style="fill: #1f77b4; stroke: #000000"/>
     <use xlink:href="#m2bd5f1c084" x="144.045714" y="251.28764" style="fill: #1f77b4; stroke: #000000"/>
     <use xlink:href="#m2bd5f1c084" x="73.188571" y="236.313683" style="fill: #1f77b4; stroke: #000000"/>
     <use xlink:href="#m2bd5f1c084" x="144.045714" y="208.912438" style="fill: #1f77b4; stroke: #000000"/>
     <use xlink:href="#m2bd5f1c084" x="229.074286" y="156.762028" style="fill: #1f77b4; stroke: #000000"/>
     <use xlink:href="#m2bd5f1c084" x="200.731429" y="177.161025" style="fill: #1f77b4; stroke: #000000"/>
     <use xlink:href="#m2bd5f1c084" x="271.588571" y="217.364043" style="fill: #1f77b4; stroke: #000000"/>
     <use xlink:href="#m2bd5f1c084" x="200.731429" y="226.888854" style="fill: #1f77b4; stroke: #000000"/>
     <use xlink:href="#m2bd5f1c084" x="186.56" y="189.406903" style="fill: #1f77b4; stroke: #000000"/>
     <use xlink:href="#m2bd5f1c084" x="299.931429" y="185.188516" style="fill: #1f77b4; stroke: #000000"/>
     <use xlink:href="#m2bd5f1c084" x="144.045714" y="219.017999" style="fill: #1f77b4; stroke: #000000"/>
     <use xlink:href="#m2bd5f1c084" x="172.388571" y="239.912423" style="fill: #1f77b4; stroke: #000000"/>
     <use xlink:href="#m2bd5f1c084" x="158.217143" y="190.803136" style="fill: #1f77b4; stroke: #000000"/>
     <use xlink:href="#m2bd5f1c084" x="200.731429" y="214.503349" style="fill: #1f77b4; stroke: #000000"/>
     <use xlink:href="#m2bd5f1c084" x="158.217143" y="238.100599" style="fill: #1f77b4; stroke: #000000"/>
     <use xlink:href="#m2bd5f1c084" x="243.245714" y="188.114197" style="fill: #1f77b4; stroke: #000000"/>
     <use xlink:href="#m2bd5f1c084" x="257.417143" y="181.047633" style="fill: #1f77b4; stroke: #000000"/>
     <use xlink:href="#m2bd5f1c084" x="115.702857" y="246.45003" style="fill: #1f77b4; stroke: #000000"/>
     <use xlink:href="#m2bd5f1c084" x="200.731429" y="216.256925" style="fill: #1f77b4; stroke: #000000"/>
     <use xlink:href="#m2bd5f1c084" x="144.045714" y="242.881205" style="fill: #1f77b4; stroke: #000000"/>
     <use xlink:href="#m2bd5f1c084" x="144.045714" y="190.209366" style="fill: #1f77b4; stroke: #000000"/>
     <use xlink:href="#m2bd5f1c084" x="257.417143" y="199.926992" style="fill: #1f77b4; stroke: #000000"/>
     <use xlink:href="#m2bd5f1c084" x="342.445714" y="106.87072" style="fill: #1f77b4; stroke: #000000"/>
     <use xlink:href="#m2bd5f1c084" x="172.388571" y="207.40166" style="fill: #1f77b4; stroke: #000000"/>
     <use xlink:href="#m2bd5f1c084" x="214.902857" y="238.68647" style="fill: #1f77b4; stroke: #000000"/>
     <use xlink:href="#m2bd5f1c084" x="186.56" y="202.854349" style="fill: #1f77b4; stroke: #000000"/>
     <use xlink:href="#m2bd5f1c084" x="200.731429" y="213.024381" style="fill: #1f77b4; stroke: #000000"/>
     <use xlink:href="#m2bd5f1c084" x="285.76" y="191.690134" style="fill: #1f77b4; stroke: #000000"/>
     <use xlink:href="#m2bd5f1c084" x="200.731429" y="189.204792" style="fill: #1f77b4; stroke: #000000"/>
     <use xlink:href="#m2bd5f1c084" x="129.874286" y="211.097536" style="fill: #1f77b4; stroke: #000000"/>
     <use xlink:href="#m2bd5f1c084" x="144.045714" y="235.212145" style="fill: #1f77b4; stroke: #000000"/>
     <use xlink:href="#m2bd5f1c084" x="172.388571" y="180.710264" style="fill: #1f77b4; stroke: #000000"/>
     <use xlink:href="#m2bd5f1c084" x="87.36" y="204.864062" style="fill: #1f77b4; stroke: #000000"/>
    </g>
   </g>
   <g id="matplotlib.axis_1">
    <g id="xtick_1">
     <g id="line2d_1">
      <defs>
       <path id="mae8b12fe40" d="M 0 0 
L 0 3.5 
" style="stroke: #000000; stroke-width: 0.8"/>
      </defs>
      <g>
       <use xlink:href="#mae8b12fe40" x="59.017143" y="307.584" style="stroke: #000000; stroke-width: 0.8"/>
      </g>
     </g>
     <g id="text_1">
      <!-- 0 -->
      <g transform="translate(56.517143 321.52775) scale(0.1 -0.1)">
       <defs>
        <path id="TimesNewRomanPSMT-30" d="M 231 2094 
Q 231 2819 450 3342 
Q 669 3866 1031 4122 
Q 1313 4325 1613 4325 
Q 2100 4325 2488 3828 
Q 2972 3213 2972 2159 
Q 2972 1422 2759 906 
Q 2547 391 2217 158 
Q 1888 -75 1581 -75 
Q 975 -75 572 641 
Q 231 1244 231 2094 
z
M 844 2016 
Q 844 1141 1059 588 
Q 1238 122 1591 122 
Q 1759 122 1940 273 
Q 2122 425 2216 781 
Q 2359 1319 2359 2297 
Q 2359 3022 2209 3506 
Q 2097 3866 1919 4016 
Q 1791 4119 1609 4119 
Q 1397 4119 1231 3928 
Q 1006 3669 925 3112 
Q 844 2556 844 2016 
z
" transform="scale(0.015625)"/>
       </defs>
       <use xlink:href="#TimesNewRomanPSMT-30"/>
      </g>
     </g>
    </g>
    <g id="xtick_2">
     <g id="line2d_2">
      <g>
       <use xlink:href="#mae8b12fe40" x="129.874286" y="307.584" style="stroke: #000000; stroke-width: 0.8"/>
      </g>
     </g>
     <g id="text_2">
      <!-- 5 -->
      <g transform="translate(127.374286 321.52775) scale(0.1 -0.1)">
       <defs>
        <path id="TimesNewRomanPSMT-35" d="M 2778 4238 
L 2534 3706 
L 1259 3706 
L 981 3138 
Q 1809 3016 2294 2522 
Q 2709 2097 2709 1522 
Q 2709 1188 2573 903 
Q 2438 619 2231 419 
Q 2025 219 1772 97 
Q 1413 -75 1034 -75 
Q 653 -75 479 54 
Q 306 184 306 341 
Q 306 428 378 495 
Q 450 563 559 563 
Q 641 563 702 538 
Q 763 513 909 409 
Q 1144 247 1384 247 
Q 1750 247 2026 523 
Q 2303 800 2303 1197 
Q 2303 1581 2056 1914 
Q 1809 2247 1375 2428 
Q 1034 2569 447 2591 
L 1259 4238 
L 2778 4238 
z
" transform="scale(0.015625)"/>
       </defs>
       <use xlink:href="#TimesNewRomanPSMT-35"/>
      </g>
     </g>
    </g>
    <g id="xtick_3">
     <g id="line2d_3">
      <g>
       <use xlink:href="#mae8b12fe40" x="200.731429" y="307.584" style="stroke: #000000; stroke-width: 0.8"/>
      </g>
     </g>
     <g id="text_3">
      <!-- 10 -->
      <g transform="translate(195.731429 321.52775) scale(0.1 -0.1)">
       <defs>
        <path id="TimesNewRomanPSMT-31" d="M 750 3822 
L 1781 4325 
L 1884 4325 
L 1884 747 
Q 1884 391 1914 303 
Q 1944 216 2037 169 
Q 2131 122 2419 116 
L 2419 0 
L 825 0 
L 825 116 
Q 1125 122 1212 167 
Q 1300 213 1334 289 
Q 1369 366 1369 747 
L 1369 3034 
Q 1369 3497 1338 3628 
Q 1316 3728 1258 3775 
Q 1200 3822 1119 3822 
Q 1003 3822 797 3725 
L 750 3822 
z
" transform="scale(0.015625)"/>
       </defs>
       <use xlink:href="#TimesNewRomanPSMT-31"/>
       <use xlink:href="#TimesNewRomanPSMT-30" transform="translate(50 0)"/>
      </g>
     </g>
    </g>
    <g id="xtick_4">
     <g id="line2d_4">
      <g>
       <use xlink:href="#mae8b12fe40" x="271.588571" y="307.584" style="stroke: #000000; stroke-width: 0.8"/>
      </g>
     </g>
     <g id="text_4">
      <!-- 15 -->
      <g transform="translate(266.588571 321.52775) scale(0.1 -0.1)">
       <use xlink:href="#TimesNewRomanPSMT-31"/>
       <use xlink:href="#TimesNewRomanPSMT-35" transform="translate(50 0)"/>
      </g>
     </g>
    </g>
    <g id="xtick_5">
     <g id="line2d_5">
      <g>
       <use xlink:href="#mae8b12fe40" x="342.445714" y="307.584" style="stroke: #000000; stroke-width: 0.8"/>
      </g>
     </g>
     <g id="text_5">
      <!-- 20 -->
      <g transform="translate(337.445714 321.52775) scale(0.1 -0.1)">
       <defs>
        <path id="TimesNewRomanPSMT-32" d="M 2934 816 
L 2638 0 
L 138 0 
L 138 116 
Q 1241 1122 1691 1759 
Q 2141 2397 2141 2925 
Q 2141 3328 1894 3587 
Q 1647 3847 1303 3847 
Q 991 3847 742 3664 
Q 494 3481 375 3128 
L 259 3128 
Q 338 3706 661 4015 
Q 984 4325 1469 4325 
Q 1984 4325 2329 3994 
Q 2675 3663 2675 3213 
Q 2675 2891 2525 2569 
Q 2294 2063 1775 1497 
Q 997 647 803 472 
L 1909 472 
Q 2247 472 2383 497 
Q 2519 522 2628 598 
Q 2738 675 2819 816 
L 2934 816 
z
" transform="scale(0.015625)"/>
       </defs>
       <use xlink:href="#TimesNewRomanPSMT-32"/>
       <use xlink:href="#TimesNewRomanPSMT-30" transform="translate(50 0)"/>
      </g>
     </g>
    </g>
    <g id="xtick_6">
     <g id="line2d_6">
      <g>
       <use xlink:href="#mae8b12fe40" x="413.302857" y="307.584" style="stroke: #000000; stroke-width: 0.8"/>
      </g>
     </g>
     <g id="text_6">
      <!-- 25 -->
      <g transform="translate(408.302857 321.52775) scale(0.1 -0.1)">
       <use xlink:href="#TimesNewRomanPSMT-32"/>
       <use xlink:href="#TimesNewRomanPSMT-35" transform="translate(50 0)"/>
      </g>
     </g>
    </g>
    <g id="text_7">
     <!-- y -->
     <g transform="translate(233.66 334.591813) scale(0.1 -0.1)">
      <defs>
       <path id="TimesNewRomanPSMT-79" d="M 38 2863 
L 1372 2863 
L 1372 2747 
L 1306 2747 
Q 1166 2747 1095 2686 
Q 1025 2625 1025 2534 
Q 1025 2413 1128 2197 
L 1825 753 
L 2466 2334 
Q 2519 2463 2519 2588 
Q 2519 2644 2497 2672 
Q 2472 2706 2419 2726 
Q 2366 2747 2231 2747 
L 2231 2863 
L 3163 2863 
L 3163 2747 
Q 3047 2734 2984 2696 
Q 2922 2659 2847 2556 
Q 2819 2513 2741 2316 
L 1575 -541 
Q 1406 -956 1132 -1168 
Q 859 -1381 606 -1381 
Q 422 -1381 303 -1275 
Q 184 -1169 184 -1031 
Q 184 -900 270 -820 
Q 356 -741 506 -741 
Q 609 -741 788 -809 
Q 913 -856 944 -856 
Q 1038 -856 1148 -759 
Q 1259 -663 1372 -384 
L 1575 113 
L 547 2272 
Q 500 2369 397 2513 
Q 319 2622 269 2659 
Q 197 2709 38 2747 
L 38 2863 
z
" transform="scale(0.015625)"/>
      </defs>
      <use xlink:href="#TimesNewRomanPSMT-79"/>
     </g>
    </g>
   </g>
   <g id="matplotlib.axis_2">
    <g id="ytick_1">
     <g id="line2d_7">
      <defs>
       <path id="m5cc4f6cff8" d="M 0 0 
L -3.5 0 
" style="stroke: #000000; stroke-width: 0.8"/>
      </defs>
      <g>
       <use xlink:href="#m5cc4f6cff8" x="57.6" y="306.528" style="stroke: #000000; stroke-width: 0.8"/>
      </g>
     </g>
     <g id="text_8">
      <!-- 0 -->
      <g transform="translate(45.6 309.999875) scale(0.1 -0.1)">
       <use xlink:href="#TimesNewRomanPSMT-30"/>
      </g>
     </g>
    </g>
    <g id="ytick_2">
     <g id="line2d_8">
      <g>
       <use xlink:href="#m5cc4f6cff8" x="57.6" y="253.728" style="stroke: #000000; stroke-width: 0.8"/>
      </g>
     </g>
     <g id="text_9">
      <!-- 5 -->
      <g transform="translate(45.6 257.199875) scale(0.1 -0.1)">
       <use xlink:href="#TimesNewRomanPSMT-35"/>
      </g>
     </g>
    </g>
    <g id="ytick_3">
     <g id="line2d_9">
      <g>
       <use xlink:href="#m5cc4f6cff8" x="57.6" y="200.928" style="stroke: #000000; stroke-width: 0.8"/>
      </g>
     </g>
     <g id="text_10">
      <!-- 10 -->
      <g transform="translate(40.6 204.399875) scale(0.1 -0.1)">
       <use xlink:href="#TimesNewRomanPSMT-31"/>
       <use xlink:href="#TimesNewRomanPSMT-30" transform="translate(50 0)"/>
      </g>
     </g>
    </g>
    <g id="ytick_4">
     <g id="line2d_10">
      <g>
       <use xlink:href="#m5cc4f6cff8" x="57.6" y="148.128" style="stroke: #000000; stroke-width: 0.8"/>
      </g>
     </g>
     <g id="text_11">
      <!-- 15 -->
      <g transform="translate(40.6 151.599875) scale(0.1 -0.1)">
       <use xlink:href="#TimesNewRomanPSMT-31"/>
       <use xlink:href="#TimesNewRomanPSMT-35" transform="translate(50 0)"/>
      </g>
     </g>
    </g>
    <g id="ytick_5">
     <g id="line2d_11">
      <g>
       <use xlink:href="#m5cc4f6cff8" x="57.6" y="95.328" style="stroke: #000000; stroke-width: 0.8"/>
      </g>
     </g>
     <g id="text_12">
      <!-- 20 -->
      <g transform="translate(40.6 98.799875) scale(0.1 -0.1)">
       <use xlink:href="#TimesNewRomanPSMT-32"/>
       <use xlink:href="#TimesNewRomanPSMT-30" transform="translate(50 0)"/>
      </g>
     </g>
    </g>
    <g id="ytick_6">
     <g id="line2d_12">
      <g>
       <use xlink:href="#m5cc4f6cff8" x="57.6" y="42.528" style="stroke: #000000; stroke-width: 0.8"/>
      </g>
     </g>
     <g id="text_13">
      <!-- 25 -->
      <g transform="translate(40.6 45.999875) scale(0.1 -0.1)">
       <use xlink:href="#TimesNewRomanPSMT-32"/>
       <use xlink:href="#TimesNewRomanPSMT-35" transform="translate(50 0)"/>
      </g>
     </g>
    </g>
    <g id="text_14">
     <!-- y_pred -->
     <g transform="translate(34.442188 188.412375) rotate(-90) scale(0.1 -0.1)">
      <defs>
       <path id="TimesNewRomanPSMT-5f" d="M 3256 -1381 
L -53 -1381 
L -53 -1119 
L 3256 -1119 
L 3256 -1381 
z
" transform="scale(0.015625)"/>
       <path id="TimesNewRomanPSMT-70" d="M -6 2578 
L 875 2934 
L 994 2934 
L 994 2266 
Q 1216 2644 1439 2795 
Q 1663 2947 1909 2947 
Q 2341 2947 2628 2609 
Q 2981 2197 2981 1534 
Q 2981 794 2556 309 
Q 2206 -88 1675 -88 
Q 1444 -88 1275 -22 
Q 1150 25 994 166 
L 994 -706 
Q 994 -1000 1030 -1079 
Q 1066 -1159 1155 -1206 
Q 1244 -1253 1478 -1253 
L 1478 -1369 
L -22 -1369 
L -22 -1253 
L 56 -1253 
Q 228 -1256 350 -1188 
Q 409 -1153 442 -1076 
Q 475 -1000 475 -688 
L 475 2019 
Q 475 2297 450 2372 
Q 425 2447 370 2484 
Q 316 2522 222 2522 
Q 147 2522 31 2478 
L -6 2578 
z
M 994 2081 
L 994 1013 
Q 994 666 1022 556 
Q 1066 375 1236 237 
Q 1406 100 1666 100 
Q 1978 100 2172 344 
Q 2425 663 2425 1241 
Q 2425 1897 2138 2250 
Q 1938 2494 1663 2494 
Q 1513 2494 1366 2419 
Q 1253 2363 994 2081 
z
" transform="scale(0.015625)"/>
       <path id="TimesNewRomanPSMT-72" d="M 1038 2947 
L 1038 2303 
Q 1397 2947 1775 2947 
Q 1947 2947 2059 2842 
Q 2172 2738 2172 2600 
Q 2172 2478 2090 2393 
Q 2009 2309 1897 2309 
Q 1788 2309 1652 2417 
Q 1516 2525 1450 2525 
Q 1394 2525 1328 2463 
Q 1188 2334 1038 2041 
L 1038 669 
Q 1038 431 1097 309 
Q 1138 225 1241 169 
Q 1344 113 1538 113 
L 1538 0 
L 72 0 
L 72 113 
Q 291 113 397 181 
Q 475 231 506 341 
Q 522 394 522 644 
L 522 1753 
Q 522 2253 501 2348 
Q 481 2444 426 2487 
Q 372 2531 291 2531 
Q 194 2531 72 2484 
L 41 2597 
L 906 2947 
L 1038 2947 
z
" transform="scale(0.015625)"/>
       <path id="TimesNewRomanPSMT-65" d="M 681 1784 
Q 678 1147 991 784 
Q 1303 422 1725 422 
Q 2006 422 2214 576 
Q 2422 731 2563 1106 
L 2659 1044 
Q 2594 616 2278 264 
Q 1963 -88 1488 -88 
Q 972 -88 605 314 
Q 238 716 238 1394 
Q 238 2128 614 2539 
Q 991 2950 1559 2950 
Q 2041 2950 2350 2633 
Q 2659 2316 2659 1784 
L 681 1784 
z
M 681 1966 
L 2006 1966 
Q 1991 2241 1941 2353 
Q 1863 2528 1708 2628 
Q 1553 2728 1384 2728 
Q 1125 2728 920 2526 
Q 716 2325 681 1966 
z
" transform="scale(0.015625)"/>
       <path id="TimesNewRomanPSMT-64" d="M 2222 322 
Q 2013 103 1813 7 
Q 1613 -88 1381 -88 
Q 913 -88 563 304 
Q 213 697 213 1313 
Q 213 1928 600 2439 
Q 988 2950 1597 2950 
Q 1975 2950 2222 2709 
L 2222 3238 
Q 2222 3728 2198 3840 
Q 2175 3953 2125 3993 
Q 2075 4034 2000 4034 
Q 1919 4034 1784 3984 
L 1744 4094 
L 2597 4444 
L 2738 4444 
L 2738 1134 
Q 2738 631 2761 520 
Q 2784 409 2836 365 
Q 2888 322 2956 322 
Q 3041 322 3181 375 
L 3216 266 
L 2366 -88 
L 2222 -88 
L 2222 322 
z
M 2222 541 
L 2222 2016 
Q 2203 2228 2109 2403 
Q 2016 2578 1861 2667 
Q 1706 2756 1559 2756 
Q 1284 2756 1069 2509 
Q 784 2184 784 1559 
Q 784 928 1059 592 
Q 1334 256 1672 256 
Q 1956 256 2222 541 
z
" transform="scale(0.015625)"/>
      </defs>
      <use xlink:href="#TimesNewRomanPSMT-79"/>
      <use xlink:href="#TimesNewRomanPSMT-5f" transform="translate(50 0)"/>
      <use xlink:href="#TimesNewRomanPSMT-70" transform="translate(100 0)"/>
      <use xlink:href="#TimesNewRomanPSMT-72" transform="translate(150 0)"/>
      <use xlink:href="#TimesNewRomanPSMT-65" transform="translate(183.300781 0)"/>
      <use xlink:href="#TimesNewRomanPSMT-64" transform="translate(227.685547 0)"/>
     </g>
    </g>
   </g>
   <g id="patch_3">
    <path d="M 57.6 307.584 
L 57.6 41.472 
" style="fill: none; stroke: #000000; stroke-width: 0.8; stroke-linejoin: miter; stroke-linecap: square"/>
   </g>
   <g id="patch_4">
    <path d="M 414.72 307.584 
L 414.72 41.472 
" style="fill: none; stroke: #000000; stroke-width: 0.8; stroke-linejoin: miter; stroke-linecap: square"/>
   </g>
   <g id="patch_5">
    <path d="M 57.6 307.584 
L 414.72 307.584 
" style="fill: none; stroke: #000000; stroke-width: 0.8; stroke-linejoin: miter; stroke-linecap: square"/>
   </g>
   <g id="patch_6">
    <path d="M 57.6 41.472 
L 414.72 41.472 
" style="fill: none; stroke: #000000; stroke-width: 0.8; stroke-linejoin: miter; stroke-linecap: square"/>
   </g>
  </g>
 </g>
 <defs>
  <clipPath id="pc20ee38659">
   <rect x="57.6" y="41.472" width="357.12" height="266.112"/>
  </clipPath>
 </defs>
</svg>
