<?xml version="1.0" encoding="utf-8" standalone="no"?>
<!DOCTYPE svg PUBLIC "-//W3C//DTD SVG 1.1//EN"
  "http://www.w3.org/Graphics/SVG/1.1/DTD/svg11.dtd">
<svg xmlns:xlink="http://www.w3.org/1999/xlink" width="715.632812pt" height="272.668125pt" viewBox="0 0 715.632812 272.668125" xmlns="http://www.w3.org/2000/svg" version="1.1">
 <metadata>
  <rdf:RDF xmlns:dc="http://purl.org/dc/elements/1.1/" xmlns:cc="http://creativecommons.org/ns#" xmlns:rdf="http://www.w3.org/1999/02/22-rdf-syntax-ns#">
   <cc:Work>
    <dc:type rdf:resource="http://purl.org/dc/dcmitype/StillImage"/>
    <dc:date>2025-10-16T23:06:57.079450</dc:date>
    <dc:format>image/svg+xml</dc:format>
    <dc:creator>
     <cc:Agent>
      <dc:title>Matplotlib v3.10.0, https://matplotlib.org/</dc:title>
     </cc:Agent>
    </dc:creator>
   </cc:Work>
  </rdf:RDF>
 </metadata>
 <defs>
  <style type="text/css">*{stroke-linejoin: round; stroke-linecap: butt}</style>
 </defs>
 <g id="figure_1">
  <g id="patch_1">
   <path d="M 0 272.668125 
L 715.632812 272.668125 
L 715.632812 0 
L 0 0 
z
" style="fill: #ffffff"/>
  </g>
  <g id="axes_1">
   <g id="patch_2">
    <path d="M 36.182813 239.9025 
L 340.546449 239.9025 
L 340.546449 18.1425 
L 36.182813 18.1425 
z
" style="fill: #ffffff"/>
   </g>
   <g id="PathCollection_1">
    <defs>
     <path id="m32ec9a0d81" d="M -3 3 
L 3 -3 
M -3 -3 
L 3 3 
" style="stroke: #0000ff"/>
    </defs>
    <g clip-path="url(#p559736ecc7)">
     <use xlink:href="#m32ec9a0d81" x="123.291685" y="134.338904" style="fill: #0000ff; stroke: #0000ff"/>
     <use xlink:href="#m32ec9a0d81" x="166.575238" y="174.102807" style="fill: #0000ff; stroke: #0000ff"/>
     <use xlink:href="#m32ec9a0d81" x="210.154023" y="172.682375" style="fill: #0000ff; stroke: #0000ff"/>
     <use xlink:href="#m32ec9a0d81" x="253.388878" y="122.652152" style="fill: #0000ff; stroke: #0000ff"/>
     <use xlink:href="#m32ec9a0d81" x="296.928096" y="45.61623" style="fill: #0000ff; stroke: #0000ff"/>
     <use xlink:href="#m32ec9a0d81" x="80.029438" y="131.033513" style="fill: #0000ff; stroke: #0000ff"/>
    </g>
   </g>
   <g id="matplotlib.axis_1">
    <g id="xtick_1">
     <g id="line2d_1">
      <defs>
       <path id="m2c03c94eb8" d="M 0 0 
L 0 3.5 
" style="stroke: #000000; stroke-width: 0.8"/>
      </defs>
      <g>
       <use xlink:href="#m2c03c94eb8" x="36.182813" y="239.9025" style="stroke: #000000; stroke-width: 0.8"/>
      </g>
     </g>
     <g id="text_1">
      <!-- 0.0 -->
      <g transform="translate(29.932813 253.84625) scale(0.1 -0.1)">
       <defs>
        <path id="TimesNewRomanPSMT-30" d="M 231 2094 
Q 231 2819 450 3342 
Q 669 3866 1031 4122 
Q 1313 4325 1613 4325 
Q 2100 4325 2488 3828 
Q 2972 3213 2972 2159 
Q 2972 1422 2759 906 
Q 2547 391 2217 158 
Q 1888 -75 1581 -75 
Q 975 -75 572 641 
Q 231 1244 231 2094 
z
M 844 2016 
Q 844 1141 1059 588 
Q 1238 122 1591 122 
Q 1759 122 1940 273 
Q 2122 425 2216 781 
Q 2359 1319 2359 2297 
Q 2359 3022 2209 3506 
Q 2097 3866 1919 4016 
Q 1791 4119 1609 4119 
Q 1397 4119 1231 3928 
Q 1006 3669 925 3112 
Q 844 2556 844 2016 
z
" transform="scale(0.015625)"/>
        <path id="TimesNewRomanPSMT-2e" d="M 800 606 
Q 947 606 1047 504 
Q 1147 403 1147 259 
Q 1147 116 1045 14 
Q 944 -88 800 -88 
Q 656 -88 554 14 
Q 453 116 453 259 
Q 453 406 554 506 
Q 656 606 800 606 
z
" transform="scale(0.015625)"/>
       </defs>
       <use xlink:href="#TimesNewRomanPSMT-30"/>
       <use xlink:href="#TimesNewRomanPSMT-2e" transform="translate(50 0)"/>
       <use xlink:href="#TimesNewRomanPSMT-30" transform="translate(75 0)"/>
      </g>
     </g>
    </g>
    <g id="xtick_2">
     <g id="line2d_2">
      <g>
       <use xlink:href="#m2c03c94eb8" x="97.05554" y="239.9025" style="stroke: #000000; stroke-width: 0.8"/>
      </g>
     </g>
     <g id="text_2">
      <!-- 0.2 -->
      <g transform="translate(90.80554 253.84625) scale(0.1 -0.1)">
       <defs>
        <path id="TimesNewRomanPSMT-32" d="M 2934 816 
L 2638 0 
L 138 0 
L 138 116 
Q 1241 1122 1691 1759 
Q 2141 2397 2141 2925 
Q 2141 3328 1894 3587 
Q 1647 3847 1303 3847 
Q 991 3847 742 3664 
Q 494 3481 375 3128 
L 259 3128 
Q 338 3706 661 4015 
Q 984 4325 1469 4325 
Q 1984 4325 2329 3994 
Q 2675 3663 2675 3213 
Q 2675 2891 2525 2569 
Q 2294 2063 1775 1497 
Q 997 647 803 472 
L 1909 472 
Q 2247 472 2383 497 
Q 2519 522 2628 598 
Q 2738 675 2819 816 
L 2934 816 
z
" transform="scale(0.015625)"/>
       </defs>
       <use xlink:href="#TimesNewRomanPSMT-30"/>
       <use xlink:href="#TimesNewRomanPSMT-2e" transform="translate(50 0)"/>
       <use xlink:href="#TimesNewRomanPSMT-32" transform="translate(75 0)"/>
      </g>
     </g>
    </g>
    <g id="xtick_3">
     <g id="line2d_3">
      <g>
       <use xlink:href="#m2c03c94eb8" x="157.928267" y="239.9025" style="stroke: #000000; stroke-width: 0.8"/>
      </g>
     </g>
     <g id="text_3">
      <!-- 0.4 -->
      <g transform="translate(151.678267 253.84625) scale(0.1 -0.1)">
       <defs>
        <path id="TimesNewRomanPSMT-34" d="M 2978 1563 
L 2978 1119 
L 2409 1119 
L 2409 0 
L 1894 0 
L 1894 1119 
L 100 1119 
L 100 1519 
L 2066 4325 
L 2409 4325 
L 2409 1563 
L 2978 1563 
z
M 1894 1563 
L 1894 3666 
L 406 1563 
L 1894 1563 
z
" transform="scale(0.015625)"/>
       </defs>
       <use xlink:href="#TimesNewRomanPSMT-30"/>
       <use xlink:href="#TimesNewRomanPSMT-2e" transform="translate(50 0)"/>
       <use xlink:href="#TimesNewRomanPSMT-34" transform="translate(75 0)"/>
      </g>
     </g>
    </g>
    <g id="xtick_4">
     <g id="line2d_4">
      <g>
       <use xlink:href="#m2c03c94eb8" x="218.800994" y="239.9025" style="stroke: #000000; stroke-width: 0.8"/>
      </g>
     </g>
     <g id="text_4">
      <!-- 0.6 -->
      <g transform="translate(212.550994 253.84625) scale(0.1 -0.1)">
       <defs>
        <path id="TimesNewRomanPSMT-36" d="M 2869 4325 
L 2869 4209 
Q 2456 4169 2195 4045 
Q 1934 3922 1679 3669 
Q 1425 3416 1258 3105 
Q 1091 2794 978 2366 
Q 1428 2675 1881 2675 
Q 2316 2675 2634 2325 
Q 2953 1975 2953 1425 
Q 2953 894 2631 456 
Q 2244 -75 1606 -75 
Q 1172 -75 869 213 
Q 275 772 275 1663 
Q 275 2231 503 2743 
Q 731 3256 1154 3653 
Q 1578 4050 1965 4187 
Q 2353 4325 2688 4325 
L 2869 4325 
z
M 925 2138 
Q 869 1716 869 1456 
Q 869 1156 980 804 
Q 1091 453 1309 247 
Q 1469 100 1697 100 
Q 1969 100 2183 356 
Q 2397 613 2397 1088 
Q 2397 1622 2184 2012 
Q 1972 2403 1581 2403 
Q 1463 2403 1327 2353 
Q 1191 2303 925 2138 
z
" transform="scale(0.015625)"/>
       </defs>
       <use xlink:href="#TimesNewRomanPSMT-30"/>
       <use xlink:href="#TimesNewRomanPSMT-2e" transform="translate(50 0)"/>
       <use xlink:href="#TimesNewRomanPSMT-36" transform="translate(75 0)"/>
      </g>
     </g>
    </g>
    <g id="xtick_5">
     <g id="line2d_5">
      <g>
       <use xlink:href="#m2c03c94eb8" x="279.673722" y="239.9025" style="stroke: #000000; stroke-width: 0.8"/>
      </g>
     </g>
     <g id="text_5">
      <!-- 0.8 -->
      <g transform="translate(273.423722 253.84625) scale(0.1 -0.1)">
       <defs>
        <path id="TimesNewRomanPSMT-38" d="M 1228 2134 
Q 725 2547 579 2797 
Q 434 3047 434 3316 
Q 434 3728 753 4026 
Q 1072 4325 1600 4325 
Q 2113 4325 2425 4047 
Q 2738 3769 2738 3413 
Q 2738 3175 2569 2928 
Q 2400 2681 1866 2347 
Q 2416 1922 2594 1678 
Q 2831 1359 2831 1006 
Q 2831 559 2490 242 
Q 2150 -75 1597 -75 
Q 994 -75 656 303 
Q 388 606 388 966 
Q 388 1247 577 1523 
Q 766 1800 1228 2134 
z
M 1719 2469 
Q 2094 2806 2194 3001 
Q 2294 3197 2294 3444 
Q 2294 3772 2109 3958 
Q 1925 4144 1606 4144 
Q 1288 4144 1088 3959 
Q 888 3775 888 3528 
Q 888 3366 970 3203 
Q 1053 3041 1206 2894 
L 1719 2469 
z
M 1375 2016 
Q 1116 1797 991 1539 
Q 866 1281 866 981 
Q 866 578 1086 336 
Q 1306 94 1647 94 
Q 1984 94 2187 284 
Q 2391 475 2391 747 
Q 2391 972 2272 1150 
Q 2050 1481 1375 2016 
z
" transform="scale(0.015625)"/>
       </defs>
       <use xlink:href="#TimesNewRomanPSMT-30"/>
       <use xlink:href="#TimesNewRomanPSMT-2e" transform="translate(50 0)"/>
       <use xlink:href="#TimesNewRomanPSMT-38" transform="translate(75 0)"/>
      </g>
     </g>
    </g>
    <g id="xtick_6">
     <g id="line2d_6">
      <g>
       <use xlink:href="#m2c03c94eb8" x="340.546449" y="239.9025" style="stroke: #000000; stroke-width: 0.8"/>
      </g>
     </g>
     <g id="text_6">
      <!-- 1.0 -->
      <g transform="translate(334.296449 253.84625) scale(0.1 -0.1)">
       <defs>
        <path id="TimesNewRomanPSMT-31" d="M 750 3822 
L 1781 4325 
L 1884 4325 
L 1884 747 
Q 1884 391 1914 303 
Q 1944 216 2037 169 
Q 2131 122 2419 116 
L 2419 0 
L 825 0 
L 825 116 
Q 1125 122 1212 167 
Q 1300 213 1334 289 
Q 1369 366 1369 747 
L 1369 3034 
Q 1369 3497 1338 3628 
Q 1316 3728 1258 3775 
Q 1200 3822 1119 3822 
Q 1003 3822 797 3725 
L 750 3822 
z
" transform="scale(0.015625)"/>
       </defs>
       <use xlink:href="#TimesNewRomanPSMT-31"/>
       <use xlink:href="#TimesNewRomanPSMT-2e" transform="translate(50 0)"/>
       <use xlink:href="#TimesNewRomanPSMT-30" transform="translate(75 0)"/>
      </g>
     </g>
    </g>
    <g id="text_7">
     <!-- x -->
     <g transform="translate(185.864631 266.929063) scale(0.1 -0.1)">
      <defs>
       <path id="TimesNewRomanPSMT-78" d="M 84 2863 
L 1431 2863 
L 1431 2747 
Q 1303 2747 1251 2703 
Q 1200 2659 1200 2588 
Q 1200 2513 1309 2356 
Q 1344 2306 1413 2200 
L 1616 1875 
L 1850 2200 
Q 2075 2509 2075 2591 
Q 2075 2656 2022 2701 
Q 1969 2747 1850 2747 
L 1850 2863 
L 2819 2863 
L 2819 2747 
Q 2666 2738 2553 2663 
Q 2400 2556 2134 2200 
L 1744 1678 
L 2456 653 
Q 2719 275 2831 198 
Q 2944 122 3122 113 
L 3122 0 
L 1772 0 
L 1772 113 
Q 1913 113 1991 175 
Q 2050 219 2050 291 
Q 2050 363 1850 653 
L 1431 1266 
L 972 653 
Q 759 369 759 316 
Q 759 241 829 180 
Q 900 119 1041 113 
L 1041 0 
L 106 0 
L 106 113 
Q 219 128 303 191 
Q 422 281 703 653 
L 1303 1450 
L 759 2238 
Q 528 2575 401 2661 
Q 275 2747 84 2747 
L 84 2863 
z
" transform="scale(0.015625)"/>
      </defs>
      <use xlink:href="#TimesNewRomanPSMT-78"/>
     </g>
    </g>
   </g>
   <g id="matplotlib.axis_2">
    <g id="ytick_1">
     <g id="line2d_7">
      <defs>
       <path id="m59745b95ae" d="M 0 0 
L -3.5 0 
" style="stroke: #000000; stroke-width: 0.8"/>
      </defs>
      <g>
       <use xlink:href="#m59745b95ae" x="36.182813" y="193.216184" style="stroke: #000000; stroke-width: 0.8"/>
      </g>
     </g>
     <g id="text_8">
      <!-- 0.0 -->
      <g transform="translate(16.682813 196.688059) scale(0.1 -0.1)">
       <use xlink:href="#TimesNewRomanPSMT-30"/>
       <use xlink:href="#TimesNewRomanPSMT-2e" transform="translate(50 0)"/>
       <use xlink:href="#TimesNewRomanPSMT-30" transform="translate(75 0)"/>
      </g>
     </g>
    </g>
    <g id="ytick_2">
     <g id="line2d_8">
      <g>
       <use xlink:href="#m59745b95ae" x="36.182813" y="134.858289" style="stroke: #000000; stroke-width: 0.8"/>
      </g>
     </g>
     <g id="text_9">
      <!-- 0.5 -->
      <g transform="translate(16.682813 138.330164) scale(0.1 -0.1)">
       <defs>
        <path id="TimesNewRomanPSMT-35" d="M 2778 4238 
L 2534 3706 
L 1259 3706 
L 981 3138 
Q 1809 3016 2294 2522 
Q 2709 2097 2709 1522 
Q 2709 1188 2573 903 
Q 2438 619 2231 419 
Q 2025 219 1772 97 
Q 1413 -75 1034 -75 
Q 653 -75 479 54 
Q 306 184 306 341 
Q 306 428 378 495 
Q 450 563 559 563 
Q 641 563 702 538 
Q 763 513 909 409 
Q 1144 247 1384 247 
Q 1750 247 2026 523 
Q 2303 800 2303 1197 
Q 2303 1581 2056 1914 
Q 1809 2247 1375 2428 
Q 1034 2569 447 2591 
L 1259 4238 
L 2778 4238 
z
" transform="scale(0.015625)"/>
       </defs>
       <use xlink:href="#TimesNewRomanPSMT-30"/>
       <use xlink:href="#TimesNewRomanPSMT-2e" transform="translate(50 0)"/>
       <use xlink:href="#TimesNewRomanPSMT-35" transform="translate(75 0)"/>
      </g>
     </g>
    </g>
    <g id="ytick_3">
     <g id="line2d_9">
      <g>
       <use xlink:href="#m59745b95ae" x="36.182813" y="76.500395" style="stroke: #000000; stroke-width: 0.8"/>
      </g>
     </g>
     <g id="text_10">
      <!-- 1.0 -->
      <g transform="translate(16.682813 79.97227) scale(0.1 -0.1)">
       <use xlink:href="#TimesNewRomanPSMT-31"/>
       <use xlink:href="#TimesNewRomanPSMT-2e" transform="translate(50 0)"/>
       <use xlink:href="#TimesNewRomanPSMT-30" transform="translate(75 0)"/>
      </g>
     </g>
    </g>
    <g id="ytick_4">
     <g id="line2d_10">
      <g>
       <use xlink:href="#m59745b95ae" x="36.182813" y="18.1425" style="stroke: #000000; stroke-width: 0.8"/>
      </g>
     </g>
     <g id="text_11">
      <!-- 1.5 -->
      <g transform="translate(16.682813 21.614375) scale(0.1 -0.1)">
       <use xlink:href="#TimesNewRomanPSMT-31"/>
       <use xlink:href="#TimesNewRomanPSMT-2e" transform="translate(50 0)"/>
       <use xlink:href="#TimesNewRomanPSMT-35" transform="translate(75 0)"/>
      </g>
     </g>
    </g>
    <g id="text_12">
     <!-- y -->
     <g transform="translate(10.525 131.5225) rotate(-90) scale(0.1 -0.1)">
      <defs>
       <path id="TimesNewRomanPSMT-79" d="M 38 2863 
L 1372 2863 
L 1372 2747 
L 1306 2747 
Q 1166 2747 1095 2686 
Q 1025 2625 1025 2534 
Q 1025 2413 1128 2197 
L 1825 753 
L 2466 2334 
Q 2519 2463 2519 2588 
Q 2519 2644 2497 2672 
Q 2472 2706 2419 2726 
Q 2366 2747 2231 2747 
L 2231 2863 
L 3163 2863 
L 3163 2747 
Q 3047 2734 2984 2696 
Q 2922 2659 2847 2556 
Q 2819 2513 2741 2316 
L 1575 -541 
Q 1406 -956 1132 -1168 
Q 859 -1381 606 -1381 
Q 422 -1381 303 -1275 
Q 184 -1169 184 -1031 
Q 184 -900 270 -820 
Q 356 -741 506 -741 
Q 609 -741 788 -809 
Q 913 -856 944 -856 
Q 1038 -856 1148 -759 
Q 1259 -663 1372 -384 
L 1575 113 
L 547 2272 
Q 500 2369 397 2513 
Q 319 2622 269 2659 
Q 197 2709 38 2747 
L 38 2863 
z
" transform="scale(0.015625)"/>
      </defs>
      <use xlink:href="#TimesNewRomanPSMT-79"/>
     </g>
    </g>
   </g>
   <g id="line2d_11">
    <path d="M 36.182813 74.039298 
L 39.257193 78.594376 
L 42.331573 83.041761 
L 45.405953 87.381452 
L 48.480333 91.61345 
L 51.554713 95.737754 
L 54.629093 99.754365 
L 57.703474 103.663282 
L 60.777854 107.464506 
L 63.852234 111.158036 
L 66.926614 114.743873 
L 70.000994 118.222017 
L 73.075374 121.592466 
L 76.149755 124.855223 
L 79.224135 128.010286 
L 82.298515 131.057655 
L 85.372895 133.997331 
L 88.447275 136.829314 
L 91.521655 139.553602 
L 94.596036 142.170198 
L 97.670416 144.6791 
L 100.744796 147.080308 
L 103.819176 149.373823 
L 106.893556 151.559645 
L 109.967936 153.637773 
L 113.042317 155.608208 
L 116.116697 157.470949 
L 119.191077 159.225996 
L 122.265457 160.87335 
L 125.339837 162.413011 
L 128.414217 163.844978 
L 131.488598 165.169252 
L 134.562978 166.385832 
L 137.637358 167.494719 
L 140.711738 168.495912 
L 143.786118 169.389412 
L 146.860498 170.175218 
L 149.934879 170.853331 
L 153.009259 171.42375 
L 156.083639 171.886476 
L 159.158019 172.241508 
L 162.232399 172.488847 
L 165.306779 172.628492 
L 168.38116 172.660444 
L 171.45554 172.584702 
L 174.52992 172.401267 
L 177.6043 172.110139 
L 180.67868 171.711316 
L 183.75306 171.204801 
L 186.827441 170.590592 
L 189.901821 169.868689 
L 192.976201 169.039093 
L 196.050581 168.101804 
L 199.124961 167.056821 
L 202.199341 165.904144 
L 205.273722 164.643774 
L 208.348102 163.275711 
L 211.422482 161.799954 
L 214.496862 160.216503 
L 217.571242 158.525359 
L 220.645622 156.726522 
L 223.720003 154.819991 
L 226.794383 152.805767 
L 229.868763 150.683849 
L 232.943143 148.454238 
L 236.017523 146.116933 
L 239.091903 143.671935 
L 242.166284 141.119243 
L 245.240664 138.458857 
L 248.315044 135.690779 
L 251.389424 132.815006 
L 254.463804 129.831541 
L 257.538184 126.740382 
L 260.612565 123.541529 
L 263.686945 120.234983 
L 266.761325 116.820743 
L 269.835705 113.29881 
L 272.910085 109.669183 
L 275.984465 105.931863 
L 279.058846 102.086849 
L 282.133226 98.134142 
L 285.207606 94.073742 
L 288.281986 89.905648 
L 291.356366 85.62986 
L 294.430746 81.246379 
L 297.505127 76.755205 
L 300.579507 72.156337 
L 303.653887 67.449775 
L 306.728267 62.63552 
L 309.802647 57.713572 
L 312.877027 52.68393 
L 315.951408 47.546594 
L 319.025788 42.301565 
L 322.100168 36.948843 
L 325.174548 31.488427 
L 328.248928 25.920318 
L 331.323308 20.244515 
L 334.397689 14.461019 
L 337.472069 8.569829 
L 340.546449 2.570946 
" clip-path="url(#p559736ecc7)" style="fill: none; stroke: #000000; stroke-linecap: square"/>
   </g>
   <g id="patch_3">
    <path d="M 36.182813 239.9025 
L 36.182813 18.1425 
" style="fill: none; stroke: #000000; stroke-width: 0.8; stroke-linejoin: miter; stroke-linecap: square"/>
   </g>
   <g id="patch_4">
    <path d="M 340.546449 239.9025 
L 340.546449 18.1425 
" style="fill: none; stroke: #000000; stroke-width: 0.8; stroke-linejoin: miter; stroke-linecap: square"/>
   </g>
   <g id="patch_5">
    <path d="M 36.182813 239.9025 
L 340.546449 239.9025 
" style="fill: none; stroke: #000000; stroke-width: 0.8; stroke-linejoin: miter; stroke-linecap: square"/>
   </g>
   <g id="patch_6">
    <path d="M 36.182813 18.1425 
L 340.546449 18.1425 
" style="fill: none; stroke: #000000; stroke-width: 0.8; stroke-linejoin: miter; stroke-linecap: square"/>
   </g>
   <g id="text_13">
    <!-- 训练集 -->
    <g transform="translate(170.364631 12.1425) scale(0.12 -0.12)">
     <defs>
      <path id="SimSun-8bad" d="M 3925 4575 
L 4475 4350 
L 4275 4200 
L 4275 1050 
Q 4275 825 4300 275 
L 3925 75 
Q 3950 1050 3950 2362 
Q 3950 3675 3925 4575 
z
M 5150 5025 
L 5700 4800 
L 5500 4625 
L 5500 725 
Q 5500 225 5525 -350 
L 5150 -550 
Q 5175 -75 5175 500 
L 5175 4125 
Q 5175 4400 5150 5025 
z
M 950 4875 
L 1000 4925 
Q 1500 4675 1662 4525 
Q 1825 4375 1800 4200 
Q 1775 4025 1700 3950 
Q 1625 3875 1575 3875 
Q 1500 3875 1425 4100 
Q 1325 4400 950 4875 
z
M 1625 700 
L 2400 1525 
L 2450 1475 
Q 1750 525 1525 0 
L 1200 400 
Q 1325 525 1300 725 
L 1300 2850 
L 1025 2850 
Q 825 2850 550 2775 
L 325 3000 
L 1275 3000 
L 1450 3250 
L 1825 2925 
L 1625 2775 
L 1625 700 
z
M 2775 5000 
L 3350 4750 
L 3150 4550 
Q 3150 3125 3137 2300 
Q 3125 1475 2812 750 
Q 2500 25 1575 -625 
L 1500 -575 
Q 2300 175 2550 900 
Q 2800 1625 2800 2650 
Q 2800 3675 2775 5000 
z
" transform="scale(0.015625)"/>
      <path id="SimSun-7ec3" d="M 700 3175 
L 1775 3250 
Q 1950 3525 2125 3925 
L 2600 3550 
L 2375 3475 
Q 1575 2500 775 1650 
Q 1425 1725 2350 1900 
L 2375 1800 
Q 875 1400 650 1125 
L 325 1650 
Q 550 1725 800 1987 
Q 1050 2250 1675 3100 
Q 1375 3075 1087 2987 
Q 800 2900 625 2725 
L 325 3225 
Q 550 3275 887 3900 
Q 1225 4525 1425 5225 
L 1975 4900 
L 1700 4750 
Q 1225 3975 700 3175 
z
M 300 375 
Q 1250 625 2425 1000 
L 2450 900 
Q 1550 500 750 75 
L 600 -100 
L 300 375 
z
M 2700 2250 
Q 2900 2550 3100 3075 
Q 2975 3075 2700 3000 
L 2475 3225 
L 3150 3225 
L 3500 4125 
L 3125 4125 
Q 2800 4125 2525 4050 
L 2300 4275 
L 3550 4275 
Q 3775 5000 3800 5250 
L 4325 4950 
L 4100 4825 
Q 4025 4650 3875 4275 
L 5125 4275 
L 5450 4600 
L 5900 4125 
L 3825 4125 
L 3475 3225 
L 4250 3225 
L 4425 3450 
L 4825 3150 
L 4625 3000 
L 4625 2100 
L 5300 2100 
L 5600 2400 
L 6050 1950 
L 4625 1950 
L 4625 150 
Q 4650 -450 4025 -600 
Q 4025 -225 3300 -50 
L 3300 50 
Q 3900 0 4100 0 
Q 4300 0 4300 275 
L 4300 1950 
L 2975 1950 
L 2800 1775 
L 2475 2125 
L 2700 2250 
z
M 3450 1025 
Q 2650 0 1900 -500 
L 1825 -425 
Q 2275 0 2600 450 
Q 2925 900 3175 1475 
L 3675 1100 
L 3450 1025 
z
M 4900 1375 
Q 5775 825 5937 637 
Q 6100 450 6100 275 
Q 6100 125 6025 -37 
Q 5950 -200 5900 -200 
Q 5825 -200 5700 125 
Q 5525 575 4850 1300 
L 4900 1375 
z
M 3425 3075 
Q 3225 2625 2950 2100 
L 4300 2100 
L 4300 3075 
L 3425 3075 
z
" transform="scale(0.015625)"/>
      <path id="SimSun-96c6" d="M 1775 2650 
L 1775 2075 
L 3200 2075 
L 3200 2650 
L 1775 2650 
z
M 1425 1500 
Q 1450 2500 1450 3750 
Q 975 3200 300 2750 
L 250 2825 
Q 800 3300 1250 3962 
Q 1700 4625 1925 5275 
L 2425 4925 
L 2200 4850 
L 1825 4250 
L 4975 4250 
L 5275 4550 
L 5700 4100 
L 3525 4100 
L 3525 3500 
L 4700 3500 
L 4975 3775 
L 5375 3350 
L 3525 3350 
L 3525 2800 
L 4650 2800 
L 4925 3075 
L 5325 2650 
L 3525 2650 
L 3525 2075 
L 4925 2075 
L 5225 2375 
L 5650 1925 
L 1775 1925 
L 1775 1625 
L 1425 1500 
z
M 2975 5200 
Q 3450 5025 3575 4887 
Q 3700 4750 3700 4650 
Q 3700 4550 3612 4425 
Q 3525 4300 3500 4300 
Q 3400 4300 3325 4525 
Q 3200 4850 2925 5125 
L 2975 5200 
z
M 1775 4100 
L 1775 3500 
L 3200 3500 
L 3200 4100 
L 1775 4100 
z
M 1775 3350 
L 1775 2800 
L 3200 2800 
L 3200 3350 
L 1775 3350 
z
M 3075 1300 
Q 3075 1675 3050 1900 
L 3600 1700 
L 3400 1525 
L 3400 1300 
L 5400 1300 
L 5700 1600 
L 6125 1150 
L 3675 1150 
Q 4150 600 4750 300 
Q 5350 0 6150 -75 
L 6150 -150 
Q 5775 -225 5700 -475 
Q 5050 -275 4525 87 
Q 4000 450 3550 1150 
L 3400 1150 
Q 3400 -100 3425 -450 
L 3050 -650 
Q 3075 150 3075 1125 
Q 2550 550 1887 150 
Q 1225 -250 300 -575 
L 275 -475 
Q 1175 -75 1800 387 
Q 2425 850 2650 1150 
L 1100 1150 
Q 775 1150 500 1075 
L 275 1300 
L 3075 1300 
z
" transform="scale(0.015625)"/>
     </defs>
     <use xlink:href="#SimSun-8bad"/>
     <use xlink:href="#SimSun-7ec3" transform="translate(100 0)"/>
     <use xlink:href="#SimSun-96c6" transform="translate(200 0)"/>
    </g>
   </g>
   <g id="legend_1">
    <g id="patch_7">
     <path d="M 44.582813 61.914375 
L 130.982812 61.914375 
Q 133.382812 61.914375 133.382812 59.514375 
L 133.382812 26.5425 
Q 133.382812 24.1425 130.982812 24.1425 
L 44.582813 24.1425 
Q 42.182813 24.1425 42.182813 26.5425 
L 42.182813 59.514375 
Q 42.182813 61.914375 44.582813 61.914375 
z
" style="fill: #ffffff; opacity: 0.8; stroke: #cccccc; stroke-linejoin: miter"/>
    </g>
    <g id="PathCollection_2">
     <g>
      <use xlink:href="#m32ec9a0d81" x="58.982813" y="34.288125" style="fill: #0000ff; stroke: #0000ff"/>
     </g>
    </g>
    <g id="text_14">
     <!-- 训练数据 -->
     <g transform="translate(80.582813 37.438125) scale(0.12 -0.12)">
      <defs>
       <path id="SimSun-6570" d="M 1875 1525 
Q 1675 1200 1500 900 
Q 1825 825 2275 725 
Q 2500 975 2725 1525 
L 1875 1525 
z
M 850 4900 
Q 1325 4600 1425 4450 
Q 1525 4300 1525 4225 
Q 1525 4100 1437 3975 
Q 1350 3850 1300 3850 
Q 1225 3850 1150 4100 
Q 1050 4450 775 4850 
L 850 4900 
z
M 3000 4975 
L 3450 4675 
Q 3250 4625 3100 4425 
Q 2925 4225 2525 3825 
L 2450 3875 
Q 2925 4625 3000 4975 
z
M 1875 5250 
L 2425 5000 
L 2225 4825 
L 2225 3675 
L 2850 3675 
L 3125 3950 
L 3550 3525 
L 2225 3525 
L 2225 3300 
Q 2800 3175 2937 3062 
Q 3075 2950 3075 2775 
Q 3075 2700 3050 2587 
Q 3025 2475 2975 2475 
Q 2925 2475 2800 2650 
Q 2600 2925 2225 3175 
L 2225 2400 
L 1925 2200 
L 2275 2050 
Q 2150 2000 1950 1675 
L 2725 1675 
L 2900 1900 
L 3275 1575 
L 3050 1450 
Q 2800 875 2600 650 
Q 3000 550 3137 437 
Q 3275 325 3275 150 
Q 3275 -25 3200 -25 
Q 3125 -25 3025 75 
Q 2750 275 2400 425 
Q 1525 -275 325 -500 
L 300 -425 
Q 1450 -50 2100 550 
Q 1600 725 1125 800 
Q 1225 950 1525 1525 
L 1200 1525 
Q 875 1525 600 1450 
L 375 1675 
L 1575 1675 
Q 1675 1925 1775 2275 
L 1900 2225 
L 1900 3250 
Q 1225 2475 350 2050 
L 300 2125 
Q 1225 2775 1700 3525 
L 1250 3525 
Q 925 3525 650 3450 
L 425 3675 
L 1900 3675 
Q 1900 4575 1875 5250 
z
M 3925 3525 
Q 4050 2075 4525 1100 
Q 4925 1950 5025 3525 
L 3925 3525 
z
M 4050 5250 
L 4625 4925 
Q 4425 4850 4325 4625 
Q 4225 4400 3950 3675 
L 5375 3675 
L 5675 3975 
L 6125 3525 
L 5400 3525 
Q 5250 1675 4750 775 
Q 5325 75 6100 -100 
L 6100 -200 
Q 5625 -275 5600 -500 
Q 4950 -50 4525 525 
Q 3700 -275 2550 -650 
L 2500 -575 
Q 3650 -50 4325 800 
Q 3850 1975 3825 3375 
Q 3575 2725 3100 2150 
L 3025 2200 
Q 3625 3200 4050 5250 
z
" transform="scale(0.015625)"/>
       <path id="SimSun-636e" d="M 3125 -650 
Q 3150 -100 3150 512 
Q 3150 1125 3125 1600 
L 3475 1400 
L 4175 1400 
L 4175 2400 
L 3000 2400 
Q 2825 625 1675 -525 
L 1600 -450 
Q 2150 275 2437 1187 
Q 2725 2100 2737 3312 
Q 2750 4525 2725 5050 
L 3100 4825 
L 5150 4825 
L 5350 5025 
L 5700 4700 
L 5500 4575 
Q 5500 3825 5525 3475 
L 5175 3325 
L 5175 3625 
L 3075 3625 
Q 3075 3150 3025 2550 
L 4175 2550 
Q 4175 3025 4150 3475 
L 4700 3225 
L 4500 3075 
L 4500 2550 
L 5325 2550 
L 5600 2825 
L 6025 2400 
L 4500 2400 
L 4500 1400 
L 5150 1400 
L 5350 1625 
L 5700 1300 
L 5500 1150 
Q 5500 150 5525 -400 
L 5175 -600 
L 5175 -75 
L 3475 -75 
L 3475 -500 
L 3125 -650 
z
M 3075 4675 
L 3075 3775 
L 5175 3775 
L 5175 4675 
L 3075 4675 
z
M 3475 1250 
L 3475 75 
L 5175 75 
L 5175 1250 
L 3475 1250 
z
M 1675 2450 
L 2500 2925 
L 2550 2825 
L 1675 2175 
L 1675 150 
Q 1650 -300 1125 -500 
Q 1175 -250 500 25 
L 500 125 
Q 1050 25 1187 37 
Q 1325 50 1325 225 
L 1325 2000 
Q 625 1500 600 1350 
L 225 1800 
Q 375 1825 1325 2300 
L 1325 3575 
L 750 3575 
L 450 3525 
L 250 3725 
L 1325 3725 
Q 1325 4750 1300 5175 
L 1875 4875 
L 1675 4700 
L 1675 3725 
L 1950 3725 
L 2275 4000 
L 2650 3575 
L 1675 3575 
L 1675 2450 
z
" transform="scale(0.015625)"/>
      </defs>
      <use xlink:href="#SimSun-8bad"/>
      <use xlink:href="#SimSun-7ec3" transform="translate(100 0)"/>
      <use xlink:href="#SimSun-6570" transform="translate(200 0)"/>
      <use xlink:href="#SimSun-636e" transform="translate(300 0)"/>
     </g>
    </g>
    <g id="line2d_12">
     <path d="M 46.982813 50.3475 
L 58.982813 50.3475 
L 70.982813 50.3475 
" style="fill: none; stroke: #000000; stroke-linecap: square"/>
    </g>
    <g id="text_15">
     <!-- 真实 h* -->
     <g transform="translate(80.582813 54.5475) scale(0.12 -0.12)">
      <defs>
       <path id="SimSun-771f" d="M 2050 3450 
L 2050 2900 
L 4300 2900 
L 4300 3450 
L 2050 3450 
z
M 2050 2750 
L 2050 2225 
L 4300 2225 
L 4300 2750 
L 2050 2750 
z
M 2050 2075 
L 2050 1550 
L 4300 1550 
L 4300 2075 
L 2050 2075 
z
M 2050 1400 
L 2050 875 
L 4300 875 
L 4300 1400 
L 2050 1400 
z
M 2875 3600 
L 2925 4325 
L 1525 4325 
Q 1200 4325 925 4250 
L 700 4475 
L 2950 4475 
Q 2975 4825 2975 5275 
L 3550 5025 
L 3375 4925 
L 3300 4475 
L 5000 4475 
L 5325 4825 
L 5775 4325 
L 3275 4325 
L 3200 3600 
L 4275 3600 
L 4450 3875 
L 4850 3575 
L 4650 3375 
L 4650 875 
L 5300 875 
L 5675 1225 
L 6125 725 
L 1150 725 
Q 825 725 550 650 
L 325 875 
L 1700 875 
Q 1700 3200 1675 3775 
L 2050 3600 
L 2875 3600 
z
M 2425 725 
L 2825 350 
L 2575 300 
Q 1500 -425 800 -650 
L 775 -575 
Q 1950 125 2425 725 
z
M 3800 700 
Q 4575 375 4962 200 
Q 5350 25 5400 -112 
Q 5450 -250 5450 -325 
Q 5450 -400 5400 -525 
Q 5350 -650 5325 -650 
Q 5250 -650 5100 -450 
Q 4875 -150 3750 625 
L 3800 700 
z
" transform="scale(0.015625)"/>
       <path id="SimSun-5b9e" d="M 1950 3625 
Q 2575 3400 2700 3250 
Q 2825 3100 2825 2975 
Q 2825 2850 2750 2700 
Q 2675 2550 2625 2550 
Q 2550 2550 2450 2800 
Q 2275 3175 1900 3550 
L 1950 3625 
z
M 3575 1325 
Q 3500 1100 3425 925 
Q 4650 550 5087 325 
Q 5525 100 5512 -225 
Q 5500 -550 5400 -550 
Q 5300 -550 5075 -300 
Q 4625 175 3375 800 
Q 3025 175 2300 -150 
Q 1575 -475 425 -625 
L 425 -525 
Q 1475 -325 2200 100 
Q 2925 525 3200 1325 
L 1225 1325 
Q 900 1325 625 1250 
L 400 1475 
L 3225 1475 
Q 3325 1950 3375 2575 
Q 3425 3200 3425 3700 
L 4050 3400 
L 3850 3225 
Q 3750 2300 3625 1475 
L 5175 1475 
L 5550 1850 
L 6075 1325 
L 3575 1325 
z
M 1275 2700 
Q 1975 2425 2100 2262 
Q 2225 2100 2225 1975 
Q 2225 1850 2150 1700 
Q 2075 1550 2025 1550 
Q 1950 1550 1850 1800 
Q 1675 2175 1225 2625 
L 1275 2700 
z
M 2750 5225 
L 2825 5275 
Q 3225 5100 3425 4925 
Q 3625 4750 3625 4600 
Q 3625 4450 3512 4300 
Q 3400 4150 3325 4150 
Q 3250 4150 3200 4400 
Q 3100 4775 2750 5225 
z
M 4975 3225 
L 5350 3925 
L 1175 3925 
Q 1225 3525 1125 3300 
Q 1025 3075 787 3100 
Q 550 3125 550 3200 
Q 550 3300 700 3475 
Q 975 3825 1050 4375 
L 1150 4375 
L 1175 4075 
L 5300 4075 
L 5575 4350 
L 6050 3800 
Q 5625 3825 5050 3175 
L 4975 3225 
z
" transform="scale(0.015625)"/>
       <path id="TimesNewRomanPSMT-20" transform="scale(0.015625)"/>
       <path id="TimesNewRomanPSMT-68" d="M 1041 4444 
L 1041 2350 
Q 1388 2731 1591 2839 
Q 1794 2947 1997 2947 
Q 2241 2947 2416 2812 
Q 2591 2678 2675 2391 
Q 2734 2191 2734 1659 
L 2734 647 
Q 2734 375 2778 275 
Q 2809 200 2884 156 
Q 2959 113 3159 113 
L 3159 0 
L 1753 0 
L 1753 113 
L 1819 113 
Q 2019 113 2097 173 
Q 2175 234 2206 353 
Q 2216 403 2216 647 
L 2216 1659 
Q 2216 2128 2167 2275 
Q 2119 2422 2012 2495 
Q 1906 2569 1756 2569 
Q 1603 2569 1437 2487 
Q 1272 2406 1041 2159 
L 1041 647 
Q 1041 353 1073 281 
Q 1106 209 1195 161 
Q 1284 113 1503 113 
L 1503 0 
L 84 0 
L 84 113 
Q 275 113 384 172 
Q 447 203 484 290 
Q 522 378 522 647 
L 522 3238 
Q 522 3728 498 3840 
Q 475 3953 426 3993 
Q 378 4034 297 4034 
Q 231 4034 84 3984 
L 41 4094 
L 897 4444 
L 1041 4444 
z
" transform="scale(0.015625)"/>
       <path id="TimesNewRomanPSMT-2a" d="M 1544 3263 
Q 1531 3478 1456 3691 
Q 1350 3997 1350 4113 
Q 1350 4275 1426 4359 
Q 1503 4444 1616 4444 
Q 1713 4444 1784 4359 
Q 1856 4275 1856 4119 
Q 1856 3978 1773 3726 
Q 1691 3475 1672 3263 
Q 1844 3372 1981 3528 
Q 2194 3775 2297 3834 
Q 2400 3894 2506 3894 
Q 2609 3894 2679 3823 
Q 2750 3753 2750 3656 
Q 2750 3541 2647 3450 
Q 2544 3359 2131 3269 
Q 1891 3216 1731 3147 
Q 1894 3063 2128 3019 
Q 2506 2950 2623 2847 
Q 2741 2744 2741 2622 
Q 2741 2528 2670 2459 
Q 2600 2391 2506 2391 
Q 2413 2391 2298 2456 
Q 2184 2522 1991 2750 
Q 1863 2903 1672 3038 
Q 1678 2859 1744 2650 
Q 1856 2281 1856 2147 
Q 1856 2022 1781 1936 
Q 1706 1850 1622 1850 
Q 1506 1850 1413 1941 
Q 1347 2006 1347 2150 
Q 1347 2300 1419 2511 
Q 1491 2722 1509 2801 
Q 1528 2881 1544 3038 
Q 1359 2916 1222 2766 
Q 994 2509 878 2441 
Q 797 2391 709 2391 
Q 603 2391 528 2462 
Q 453 2534 453 2622 
Q 453 2700 517 2786 
Q 581 2872 709 2928 
Q 794 2966 1094 3028 
Q 1288 3069 1472 3147 
Q 1303 3231 1069 3278 
Q 684 3359 594 3425 
Q 453 3528 453 3675 
Q 453 3759 523 3829 
Q 594 3900 688 3900 
Q 791 3900 906 3834 
Q 1022 3769 1194 3570 
Q 1366 3372 1544 3263 
z
" transform="scale(0.015625)"/>
      </defs>
      <use xlink:href="#SimSun-771f"/>
      <use xlink:href="#SimSun-5b9e" transform="translate(100 0)"/>
      <use xlink:href="#TimesNewRomanPSMT-20" transform="translate(200 0)"/>
      <use xlink:href="#TimesNewRomanPSMT-68" transform="translate(225 0)"/>
      <use xlink:href="#TimesNewRomanPSMT-2a" transform="translate(275 0)"/>
     </g>
    </g>
   </g>
  </g>
  <g id="axes_2">
   <g id="patch_8">
    <path d="M 401.419176 239.9025 
L 705.782812 239.9025 
L 705.782812 18.1425 
L 401.419176 18.1425 
z
" style="fill: #ffffff"/>
   </g>
   <g id="PathCollection_3">
    <defs>
     <path id="m95de157cbf" d="M -3 3 
L 3 -3 
M -3 -3 
L 3 3 
" style="stroke: #ffa500"/>
    </defs>
    <g clip-path="url(#pdd23d7051d)">
     <use xlink:href="#m95de157cbf" x="445.387547" y="132.961658" style="fill: #ffa500; stroke: #ffa500"/>
     <use xlink:href="#m95de157cbf" x="488.171943" y="169.114374" style="fill: #ffa500; stroke: #ffa500"/>
     <use xlink:href="#m95de157cbf" x="531.62594" y="184.177713" style="fill: #ffa500; stroke: #ffa500"/>
     <use xlink:href="#m95de157cbf" x="575.454303" y="165.431991" style="fill: #ffa500; stroke: #ffa500"/>
     <use xlink:href="#m95de157cbf" x="618.704376" y="119.237048" style="fill: #ffa500; stroke: #ffa500"/>
     <use xlink:href="#m95de157cbf" x="662.505347" y="115.554665" style="fill: #ffa500; stroke: #ffa500"/>
    </g>
   </g>
   <g id="matplotlib.axis_3">
    <g id="xtick_7">
     <g id="line2d_13">
      <g>
       <use xlink:href="#m2c03c94eb8" x="401.419176" y="239.9025" style="stroke: #000000; stroke-width: 0.8"/>
      </g>
     </g>
     <g id="text_16">
      <!-- 0.0 -->
      <g transform="translate(395.169176 253.84625) scale(0.1 -0.1)">
       <use xlink:href="#TimesNewRomanPSMT-30"/>
       <use xlink:href="#TimesNewRomanPSMT-2e" transform="translate(50 0)"/>
       <use xlink:href="#TimesNewRomanPSMT-30" transform="translate(75 0)"/>
      </g>
     </g>
    </g>
    <g id="xtick_8">
     <g id="line2d_14">
      <g>
       <use xlink:href="#m2c03c94eb8" x="462.291903" y="239.9025" style="stroke: #000000; stroke-width: 0.8"/>
      </g>
     </g>
     <g id="text_17">
      <!-- 0.2 -->
      <g transform="translate(456.041903 253.84625) scale(0.1 -0.1)">
       <use xlink:href="#TimesNewRomanPSMT-30"/>
       <use xlink:href="#TimesNewRomanPSMT-2e" transform="translate(50 0)"/>
       <use xlink:href="#TimesNewRomanPSMT-32" transform="translate(75 0)"/>
      </g>
     </g>
    </g>
    <g id="xtick_9">
     <g id="line2d_15">
      <g>
       <use xlink:href="#m2c03c94eb8" x="523.164631" y="239.9025" style="stroke: #000000; stroke-width: 0.8"/>
      </g>
     </g>
     <g id="text_18">
      <!-- 0.4 -->
      <g transform="translate(516.914631 253.84625) scale(0.1 -0.1)">
       <use xlink:href="#TimesNewRomanPSMT-30"/>
       <use xlink:href="#TimesNewRomanPSMT-2e" transform="translate(50 0)"/>
       <use xlink:href="#TimesNewRomanPSMT-34" transform="translate(75 0)"/>
      </g>
     </g>
    </g>
    <g id="xtick_10">
     <g id="line2d_16">
      <g>
       <use xlink:href="#m2c03c94eb8" x="584.037358" y="239.9025" style="stroke: #000000; stroke-width: 0.8"/>
      </g>
     </g>
     <g id="text_19">
      <!-- 0.6 -->
      <g transform="translate(577.787358 253.84625) scale(0.1 -0.1)">
       <use xlink:href="#TimesNewRomanPSMT-30"/>
       <use xlink:href="#TimesNewRomanPSMT-2e" transform="translate(50 0)"/>
       <use xlink:href="#TimesNewRomanPSMT-36" transform="translate(75 0)"/>
      </g>
     </g>
    </g>
    <g id="xtick_11">
     <g id="line2d_17">
      <g>
       <use xlink:href="#m2c03c94eb8" x="644.910085" y="239.9025" style="stroke: #000000; stroke-width: 0.8"/>
      </g>
     </g>
     <g id="text_20">
      <!-- 0.8 -->
      <g transform="translate(638.660085 253.84625) scale(0.1 -0.1)">
       <use xlink:href="#TimesNewRomanPSMT-30"/>
       <use xlink:href="#TimesNewRomanPSMT-2e" transform="translate(50 0)"/>
       <use xlink:href="#TimesNewRomanPSMT-38" transform="translate(75 0)"/>
      </g>
     </g>
    </g>
    <g id="xtick_12">
     <g id="line2d_18">
      <g>
       <use xlink:href="#m2c03c94eb8" x="705.782812" y="239.9025" style="stroke: #000000; stroke-width: 0.8"/>
      </g>
     </g>
     <g id="text_21">
      <!-- 1.0 -->
      <g transform="translate(699.532812 253.84625) scale(0.1 -0.1)">
       <use xlink:href="#TimesNewRomanPSMT-31"/>
       <use xlink:href="#TimesNewRomanPSMT-2e" transform="translate(50 0)"/>
       <use xlink:href="#TimesNewRomanPSMT-30" transform="translate(75 0)"/>
      </g>
     </g>
    </g>
    <g id="text_22">
     <!-- x -->
     <g transform="translate(551.100994 266.929063) scale(0.1 -0.1)">
      <use xlink:href="#TimesNewRomanPSMT-78"/>
     </g>
    </g>
   </g>
   <g id="matplotlib.axis_4">
    <g id="ytick_5">
     <g id="line2d_19">
      <g>
       <use xlink:href="#m59745b95ae" x="401.419176" y="193.216184" style="stroke: #000000; stroke-width: 0.8"/>
      </g>
     </g>
     <g id="text_23">
      <!-- 0.0 -->
      <g transform="translate(381.919176 196.688059) scale(0.1 -0.1)">
       <use xlink:href="#TimesNewRomanPSMT-30"/>
       <use xlink:href="#TimesNewRomanPSMT-2e" transform="translate(50 0)"/>
       <use xlink:href="#TimesNewRomanPSMT-30" transform="translate(75 0)"/>
      </g>
     </g>
    </g>
    <g id="ytick_6">
     <g id="line2d_20">
      <g>
       <use xlink:href="#m59745b95ae" x="401.419176" y="134.858289" style="stroke: #000000; stroke-width: 0.8"/>
      </g>
     </g>
     <g id="text_24">
      <!-- 0.5 -->
      <g transform="translate(381.919176 138.330164) scale(0.1 -0.1)">
       <use xlink:href="#TimesNewRomanPSMT-30"/>
       <use xlink:href="#TimesNewRomanPSMT-2e" transform="translate(50 0)"/>
       <use xlink:href="#TimesNewRomanPSMT-35" transform="translate(75 0)"/>
      </g>
     </g>
    </g>
    <g id="ytick_7">
     <g id="line2d_21">
      <g>
       <use xlink:href="#m59745b95ae" x="401.419176" y="76.500395" style="stroke: #000000; stroke-width: 0.8"/>
      </g>
     </g>
     <g id="text_25">
      <!-- 1.0 -->
      <g transform="translate(381.919176 79.97227) scale(0.1 -0.1)">
       <use xlink:href="#TimesNewRomanPSMT-31"/>
       <use xlink:href="#TimesNewRomanPSMT-2e" transform="translate(50 0)"/>
       <use xlink:href="#TimesNewRomanPSMT-30" transform="translate(75 0)"/>
      </g>
     </g>
    </g>
    <g id="ytick_8">
     <g id="line2d_22">
      <g>
       <use xlink:href="#m59745b95ae" x="401.419176" y="18.1425" style="stroke: #000000; stroke-width: 0.8"/>
      </g>
     </g>
     <g id="text_26">
      <!-- 1.5 -->
      <g transform="translate(381.919176 21.614375) scale(0.1 -0.1)">
       <use xlink:href="#TimesNewRomanPSMT-31"/>
       <use xlink:href="#TimesNewRomanPSMT-2e" transform="translate(50 0)"/>
       <use xlink:href="#TimesNewRomanPSMT-35" transform="translate(75 0)"/>
      </g>
     </g>
    </g>
    <g id="text_27">
     <!-- y -->
     <g transform="translate(375.761364 131.5225) rotate(-90) scale(0.1 -0.1)">
      <use xlink:href="#TimesNewRomanPSMT-79"/>
     </g>
    </g>
   </g>
   <g id="line2d_23">
    <path d="M 401.419176 74.039298 
L 404.493556 78.594376 
L 407.567936 83.041761 
L 410.642317 87.381452 
L 413.716697 91.61345 
L 416.791077 95.737754 
L 419.865457 99.754365 
L 422.939837 103.663282 
L 426.014217 107.464506 
L 429.088598 111.158036 
L 432.162978 114.743873 
L 435.237358 118.222017 
L 438.311738 121.592466 
L 441.386118 124.855223 
L 444.460498 128.010286 
L 447.534879 131.057655 
L 450.609259 133.997331 
L 453.683639 136.829314 
L 456.758019 139.553602 
L 459.832399 142.170198 
L 462.906779 144.6791 
L 465.98116 147.080308 
L 469.05554 149.373823 
L 472.12992 151.559645 
L 475.2043 153.637773 
L 478.27868 155.608208 
L 481.35306 157.470949 
L 484.427441 159.225996 
L 487.501821 160.87335 
L 490.576201 162.413011 
L 493.650581 163.844978 
L 496.724961 165.169252 
L 499.799341 166.385832 
L 502.873722 167.494719 
L 505.948102 168.495912 
L 509.022482 169.389412 
L 512.096862 170.175218 
L 515.171242 170.853331 
L 518.245622 171.42375 
L 521.320003 171.886476 
L 524.394383 172.241508 
L 527.468763 172.488847 
L 530.543143 172.628492 
L 533.617523 172.660444 
L 536.691903 172.584702 
L 539.766284 172.401267 
L 542.840664 172.110139 
L 545.915044 171.711316 
L 548.989424 171.204801 
L 552.063804 170.590592 
L 555.138184 169.868689 
L 558.212565 169.039093 
L 561.286945 168.101804 
L 564.361325 167.056821 
L 567.435705 165.904144 
L 570.510085 164.643774 
L 573.584465 163.275711 
L 576.658846 161.799954 
L 579.733226 160.216503 
L 582.807606 158.525359 
L 585.881986 156.726522 
L 588.956366 154.819991 
L 592.030746 152.805767 
L 595.105127 150.683849 
L 598.179507 148.454238 
L 601.253887 146.116933 
L 604.328267 143.671935 
L 607.402647 141.119243 
L 610.477027 138.458857 
L 613.551408 135.690779 
L 616.625788 132.815006 
L 619.700168 129.831541 
L 622.774548 126.740382 
L 625.848928 123.541529 
L 628.923308 120.234983 
L 631.997689 116.820743 
L 635.072069 113.29881 
L 638.146449 109.669183 
L 641.220829 105.931863 
L 644.295209 102.086849 
L 647.369589 98.134142 
L 650.44397 94.073742 
L 653.51835 89.905648 
L 656.59273 85.62986 
L 659.66711 81.246379 
L 662.74149 76.755205 
L 665.81587 72.156337 
L 668.890251 67.449775 
L 671.964631 62.63552 
L 675.039011 57.713572 
L 678.113391 52.68393 
L 681.187771 47.546594 
L 684.262151 42.301565 
L 687.336532 36.948843 
L 690.410912 31.488427 
L 693.485292 25.920318 
L 696.559672 20.244515 
L 699.634052 14.461019 
L 702.708432 8.569829 
L 705.782812 2.570946 
" clip-path="url(#pdd23d7051d)" style="fill: none; stroke: #000000; stroke-linecap: square"/>
   </g>
   <g id="patch_9">
    <path d="M 401.419176 239.9025 
L 401.419176 18.1425 
" style="fill: none; stroke: #000000; stroke-width: 0.8; stroke-linejoin: miter; stroke-linecap: square"/>
   </g>
   <g id="patch_10">
    <path d="M 705.782812 239.9025 
L 705.782812 18.1425 
" style="fill: none; stroke: #000000; stroke-width: 0.8; stroke-linejoin: miter; stroke-linecap: square"/>
   </g>
   <g id="patch_11">
    <path d="M 401.419176 239.9025 
L 705.782812 239.9025 
" style="fill: none; stroke: #000000; stroke-width: 0.8; stroke-linejoin: miter; stroke-linecap: square"/>
   </g>
   <g id="patch_12">
    <path d="M 401.419176 18.1425 
L 705.782812 18.1425 
" style="fill: none; stroke: #000000; stroke-width: 0.8; stroke-linejoin: miter; stroke-linecap: square"/>
   </g>
   <g id="text_28">
    <!-- 测试集 -->
    <g transform="translate(535.600994 12.1425) scale(0.12 -0.12)">
     <defs>
      <path id="SimSun-6d4b" d="M 1975 1000 
Q 2000 1475 2000 2925 
Q 2000 4375 1975 5000 
L 2350 4775 
L 3575 4775 
L 3775 4975 
L 4100 4650 
L 3900 4500 
L 3900 2350 
Q 3900 1850 3925 1350 
L 3600 1200 
L 3600 4625 
L 2325 4625 
L 2325 1150 
L 1975 1000 
z
M 2775 3975 
L 3300 3700 
L 3125 3525 
Q 3150 1825 2875 937 
Q 2600 50 1375 -600 
L 1325 -500 
Q 2200 100 2475 725 
Q 2750 1350 2775 2187 
Q 2800 3025 2775 3975 
z
M 3100 950 
Q 3825 450 3937 262 
Q 4050 75 4050 -25 
Q 4050 -150 3975 -262 
Q 3900 -375 3850 -375 
Q 3750 -375 3650 -75 
Q 3500 375 3050 875 
L 3100 950 
z
M 4475 825 
Q 4500 1200 4500 1700 
L 4500 3400 
Q 4500 3950 4475 4300 
L 5025 4025 
L 4825 3825 
L 4825 1700 
Q 4825 1325 4850 950 
L 4475 825 
z
M 5375 150 
L 5375 4050 
Q 5375 4750 5350 5125 
L 5875 4875 
L 5700 4700 
L 5700 75 
Q 5700 -200 5600 -350 
Q 5500 -500 5200 -600 
Q 5025 -225 4450 -50 
L 4450 50 
Q 5125 -50 5250 -37 
Q 5375 -25 5375 150 
z
M 1850 3500 
Q 1375 1525 1300 1225 
Q 1200 900 1212 450 
Q 1225 0 1250 -175 
Q 1250 -275 1125 -275 
Q 1025 -275 875 -225 
Q 725 -175 725 0 
Q 725 125 800 375 
Q 875 625 875 775 
Q 875 950 762 1050 
Q 650 1150 275 1250 
L 275 1350 
Q 725 1300 837 1312 
Q 950 1325 1087 1537 
Q 1225 1750 1750 3525 
L 1850 3500 
z
M 375 3775 
Q 1075 3350 1112 3100 
Q 1150 2850 1050 2775 
Q 950 2700 900 2700 
Q 800 2700 725 2975 
Q 600 3350 325 3700 
L 375 3775 
z
M 800 5100 
Q 1475 4725 1550 4512 
Q 1625 4300 1525 4187 
Q 1425 4075 1350 4075 
Q 1275 4075 1200 4300 
Q 1075 4650 750 5025 
L 800 5100 
z
" transform="scale(0.015625)"/>
      <path id="SimSun-8bd5" d="M 825 4800 
L 900 4850 
Q 1250 4600 1475 4362 
Q 1700 4125 1650 3925 
Q 1600 3725 1500 3650 
L 1375 3575 
Q 1275 3575 1225 3875 
Q 1150 4225 825 4800 
z
M 1600 300 
L 2475 1275 
L 2550 1200 
Q 2125 550 1925 250 
Q 1725 -50 1550 -400 
L 1150 25 
Q 1275 175 1250 425 
L 1250 2600 
L 950 2600 
Q 750 2600 475 2525 
L 250 2750 
L 1225 2750 
L 1375 3000 
L 1825 2700 
L 1600 2525 
L 1600 300 
z
M 5725 75 
L 5925 1100 
L 6025 1100 
Q 5975 525 5975 200 
Q 5975 -125 6075 -450 
Q 6125 -600 6050 -600 
Q 5950 -600 5487 -250 
Q 5025 100 4650 1050 
Q 4275 2000 4200 3525 
L 2725 3525 
Q 2525 3525 2250 3450 
L 2025 3675 
L 4175 3675 
Q 4125 4450 4125 5175 
L 4725 4850 
L 4500 4675 
Q 4500 4100 4525 3675 
L 5375 3675 
L 5700 4025 
L 6150 3525 
L 4550 3525 
Q 4625 1025 5725 75 
z
M 4875 5000 
Q 5300 4825 5512 4675 
Q 5725 4525 5700 4362 
Q 5675 4200 5600 4100 
Q 5525 4000 5500 4000 
Q 5425 4000 5325 4250 
Q 5175 4575 4825 4925 
L 4875 5000 
z
M 3425 625 
L 4375 900 
L 4400 800 
Q 3525 450 2650 25 
L 2475 -175 
L 2175 275 
Q 2775 425 3075 525 
L 3075 2325 
L 2850 2325 
Q 2650 2325 2375 2250 
L 2150 2475 
L 3575 2475 
L 3875 2775 
L 4250 2325 
L 3425 2325 
L 3425 625 
z
" transform="scale(0.015625)"/>
     </defs>
     <use xlink:href="#SimSun-6d4b"/>
     <use xlink:href="#SimSun-8bd5" transform="translate(100 0)"/>
     <use xlink:href="#SimSun-96c6" transform="translate(200 0)"/>
    </g>
   </g>
   <g id="legend_2">
    <g id="patch_13">
     <path d="M 409.819176 61.914375 
L 496.219176 61.914375 
Q 498.619176 61.914375 498.619176 59.514375 
L 498.619176 26.5425 
Q 498.619176 24.1425 496.219176 24.1425 
L 409.819176 24.1425 
Q 407.419176 24.1425 407.419176 26.5425 
L 407.419176 59.514375 
Q 407.419176 61.914375 409.819176 61.914375 
z
" style="fill: #ffffff; opacity: 0.8; stroke: #cccccc; stroke-linejoin: miter"/>
    </g>
    <g id="PathCollection_4">
     <g>
      <use xlink:href="#m95de157cbf" x="424.219176" y="34.288125" style="fill: #ffa500; stroke: #ffa500"/>
     </g>
    </g>
    <g id="text_29">
     <!-- 测试数据 -->
     <g transform="translate(445.819176 37.438125) scale(0.12 -0.12)">
      <use xlink:href="#SimSun-6d4b"/>
      <use xlink:href="#SimSun-8bd5" transform="translate(100 0)"/>
      <use xlink:href="#SimSun-6570" transform="translate(200 0)"/>
      <use xlink:href="#SimSun-636e" transform="translate(300 0)"/>
     </g>
    </g>
    <g id="line2d_24">
     <path d="M 412.219176 50.3475 
L 424.219176 50.3475 
L 436.219176 50.3475 
" style="fill: none; stroke: #000000; stroke-linecap: square"/>
    </g>
    <g id="text_30">
     <!-- 真实 h* -->
     <g transform="translate(445.819176 54.5475) scale(0.12 -0.12)">
      <use xlink:href="#SimSun-771f"/>
      <use xlink:href="#SimSun-5b9e" transform="translate(100 0)"/>
      <use xlink:href="#TimesNewRomanPSMT-20" transform="translate(200 0)"/>
      <use xlink:href="#TimesNewRomanPSMT-68" transform="translate(225 0)"/>
      <use xlink:href="#TimesNewRomanPSMT-2a" transform="translate(275 0)"/>
     </g>
    </g>
   </g>
  </g>
 </g>
 <defs>
  <clipPath id="p559736ecc7">
   <rect x="36.182813" y="18.1425" width="304.363636" height="221.76"/>
  </clipPath>
  <clipPath id="pdd23d7051d">
   <rect x="401.419176" y="18.1425" width="304.363636" height="221.76"/>
  </clipPath>
 </defs>
</svg>
