<?xml version="1.0" encoding="utf-8" standalone="no"?>
<!DOCTYPE svg PUBLIC "-//W3C//DTD SVG 1.1//EN"
  "http://www.w3.org/Graphics/SVG/1.1/DTD/svg11.dtd">
<svg xmlns:xlink="http://www.w3.org/1999/xlink" width="380.832813pt" height="272.715pt" viewBox="0 0 380.832813 272.715" xmlns="http://www.w3.org/2000/svg" version="1.1">
 <metadata>
  <rdf:RDF xmlns:dc="http://purl.org/dc/elements/1.1/" xmlns:cc="http://creativecommons.org/ns#" xmlns:rdf="http://www.w3.org/1999/02/22-rdf-syntax-ns#">
   <cc:Work>
    <dc:type rdf:resource="http://purl.org/dc/dcmitype/StillImage"/>
    <dc:date>2025-10-16T23:21:07.727604</dc:date>
    <dc:format>image/svg+xml</dc:format>
    <dc:creator>
     <cc:Agent>
      <dc:title>Matplotlib v3.10.0, https://matplotlib.org/</dc:title>
     </cc:Agent>
    </dc:creator>
   </cc:Work>
  </rdf:RDF>
 </metadata>
 <defs>
  <style type="text/css">*{stroke-linejoin: round; stroke-linecap: butt}</style>
 </defs>
 <g id="figure_1">
  <g id="patch_1">
   <path d="M 0 272.715 
L 380.832813 272.715 
L 380.832813 0 
L 0 0 
z
" style="fill: #ffffff"/>
  </g>
  <g id="axes_1">
   <g id="patch_2">
    <path d="M 36.182812 239.949375 
L 370.982813 239.949375 
L 370.982813 18.189375 
L 36.182812 18.189375 
z
" style="fill: #ffffff"/>
   </g>
   <g id="PathCollection_1">
    <defs>
     <path id="m268ca13ff7" d="M -3 3 
L 3 -3 
M -3 -3 
L 3 3 
" style="stroke: #0000ff"/>
    </defs>
    <g clip-path="url(#p6898fee226)">
     <use xlink:href="#m268ca13ff7" x="132.002572" y="134.385779" style="fill: #0000ff; stroke: #0000ff"/>
     <use xlink:href="#m268ca13ff7" x="179.614481" y="174.149682" style="fill: #0000ff; stroke: #0000ff"/>
     <use xlink:href="#m268ca13ff7" x="227.551145" y="172.72925" style="fill: #0000ff; stroke: #0000ff"/>
     <use xlink:href="#m268ca13ff7" x="275.109485" y="122.699027" style="fill: #0000ff; stroke: #0000ff"/>
     <use xlink:href="#m268ca13ff7" x="323.002625" y="45.663105" style="fill: #0000ff; stroke: #0000ff"/>
     <use xlink:href="#m268ca13ff7" x="84.4141" y="131.080388" style="fill: #0000ff; stroke: #0000ff"/>
     <use xlink:href="#m268ca13ff7" x="36.182812" y="81.407748" style="fill: #0000ff; stroke: #0000ff"/>
     <use xlink:href="#m268ca13ff7" x="39.564631" y="52.338513" style="fill: #0000ff; stroke: #0000ff"/>
     <use xlink:href="#m268ca13ff7" x="42.946449" y="69.549958" style="fill: #0000ff; stroke: #0000ff"/>
     <use xlink:href="#m268ca13ff7" x="46.328267" y="81.670826" style="fill: #0000ff; stroke: #0000ff"/>
     <use xlink:href="#m268ca13ff7" x="49.710085" y="111.734353" style="fill: #0000ff; stroke: #0000ff"/>
     <use xlink:href="#m268ca13ff7" x="53.091903" y="115.860065" style="fill: #0000ff; stroke: #0000ff"/>
     <use xlink:href="#m268ca13ff7" x="56.473722" y="125.59055" style="fill: #0000ff; stroke: #0000ff"/>
     <use xlink:href="#m268ca13ff7" x="59.85554" y="82.340888" style="fill: #0000ff; stroke: #0000ff"/>
     <use xlink:href="#m268ca13ff7" x="63.237358" y="101.610522" style="fill: #0000ff; stroke: #0000ff"/>
     <use xlink:href="#m268ca13ff7" x="66.619176" y="99.062234" style="fill: #0000ff; stroke: #0000ff"/>
     <use xlink:href="#m268ca13ff7" x="70.000994" y="142.768428" style="fill: #0000ff; stroke: #0000ff"/>
     <use xlink:href="#m268ca13ff7" x="73.382812" y="90.845942" style="fill: #0000ff; stroke: #0000ff"/>
     <use xlink:href="#m268ca13ff7" x="76.764631" y="102.238689" style="fill: #0000ff; stroke: #0000ff"/>
     <use xlink:href="#m268ca13ff7" x="80.146449" y="141.689382" style="fill: #0000ff; stroke: #0000ff"/>
     <use xlink:href="#m268ca13ff7" x="83.528267" y="146.625186" style="fill: #0000ff; stroke: #0000ff"/>
     <use xlink:href="#m268ca13ff7" x="86.910085" y="149.580376" style="fill: #0000ff; stroke: #0000ff"/>
     <use xlink:href="#m268ca13ff7" x="90.291903" y="145.468217" style="fill: #0000ff; stroke: #0000ff"/>
     <use xlink:href="#m268ca13ff7" x="93.673722" y="135.431455" style="fill: #0000ff; stroke: #0000ff"/>
     <use xlink:href="#m268ca13ff7" x="97.05554" y="143.572023" style="fill: #0000ff; stroke: #0000ff"/>
     <use xlink:href="#m268ca13ff7" x="100.437358" y="154.400501" style="fill: #0000ff; stroke: #0000ff"/>
     <use xlink:href="#m268ca13ff7" x="103.819176" y="138.198475" style="fill: #0000ff; stroke: #0000ff"/>
     <use xlink:href="#m268ca13ff7" x="107.200994" y="168.165563" style="fill: #0000ff; stroke: #0000ff"/>
     <use xlink:href="#m268ca13ff7" x="110.582813" y="161.550699" style="fill: #0000ff; stroke: #0000ff"/>
     <use xlink:href="#m268ca13ff7" x="113.964631" y="159.405361" style="fill: #0000ff; stroke: #0000ff"/>
     <use xlink:href="#m268ca13ff7" x="117.346449" y="156.248311" style="fill: #0000ff; stroke: #0000ff"/>
     <use xlink:href="#m268ca13ff7" x="120.728267" y="139.012814" style="fill: #0000ff; stroke: #0000ff"/>
     <use xlink:href="#m268ca13ff7" x="124.110085" y="175.044229" style="fill: #0000ff; stroke: #0000ff"/>
     <use xlink:href="#m268ca13ff7" x="127.491903" y="158.442179" style="fill: #0000ff; stroke: #0000ff"/>
     <use xlink:href="#m268ca13ff7" x="130.873722" y="155.527106" style="fill: #0000ff; stroke: #0000ff"/>
     <use xlink:href="#m268ca13ff7" x="134.25554" y="188.928085" style="fill: #0000ff; stroke: #0000ff"/>
     <use xlink:href="#m268ca13ff7" x="137.637358" y="157.615762" style="fill: #0000ff; stroke: #0000ff"/>
     <use xlink:href="#m268ca13ff7" x="141.019176" y="184.443645" style="fill: #0000ff; stroke: #0000ff"/>
     <use xlink:href="#m268ca13ff7" x="144.400994" y="191.81538" style="fill: #0000ff; stroke: #0000ff"/>
     <use xlink:href="#m268ca13ff7" x="147.782813" y="141.345579" style="fill: #0000ff; stroke: #0000ff"/>
     <use xlink:href="#m268ca13ff7" x="151.164631" y="141.369482" style="fill: #0000ff; stroke: #0000ff"/>
     <use xlink:href="#m268ca13ff7" x="154.546449" y="151.438867" style="fill: #0000ff; stroke: #0000ff"/>
     <use xlink:href="#m268ca13ff7" x="157.928267" y="181.624422" style="fill: #0000ff; stroke: #0000ff"/>
     <use xlink:href="#m268ca13ff7" x="161.310085" y="194.379214" style="fill: #0000ff; stroke: #0000ff"/>
     <use xlink:href="#m268ca13ff7" x="164.691903" y="160.719173" style="fill: #0000ff; stroke: #0000ff"/>
     <use xlink:href="#m268ca13ff7" x="168.073722" y="175.425925" style="fill: #0000ff; stroke: #0000ff"/>
     <use xlink:href="#m268ca13ff7" x="171.45554" y="194.345436" style="fill: #0000ff; stroke: #0000ff"/>
     <use xlink:href="#m268ca13ff7" x="174.837358" y="172.817187" style="fill: #0000ff; stroke: #0000ff"/>
     <use xlink:href="#m268ca13ff7" x="178.219176" y="199.847473" style="fill: #0000ff; stroke: #0000ff"/>
     <use xlink:href="#m268ca13ff7" x="181.600994" y="148.820242" style="fill: #0000ff; stroke: #0000ff"/>
     <use xlink:href="#m268ca13ff7" x="184.982813" y="186.70867" style="fill: #0000ff; stroke: #0000ff"/>
     <use xlink:href="#m268ca13ff7" x="188.364631" y="162.963684" style="fill: #0000ff; stroke: #0000ff"/>
     <use xlink:href="#m268ca13ff7" x="191.746449" y="183.145159" style="fill: #0000ff; stroke: #0000ff"/>
     <use xlink:href="#m268ca13ff7" x="195.128267" y="170.587064" style="fill: #0000ff; stroke: #0000ff"/>
     <use xlink:href="#m268ca13ff7" x="198.510085" y="168.525762" style="fill: #0000ff; stroke: #0000ff"/>
     <use xlink:href="#m268ca13ff7" x="201.891903" y="189.028697" style="fill: #0000ff; stroke: #0000ff"/>
     <use xlink:href="#m268ca13ff7" x="205.273722" y="142.511594" style="fill: #0000ff; stroke: #0000ff"/>
     <use xlink:href="#m268ca13ff7" x="208.65554" y="153.029796" style="fill: #0000ff; stroke: #0000ff"/>
     <use xlink:href="#m268ca13ff7" x="212.037358" y="142.500446" style="fill: #0000ff; stroke: #0000ff"/>
     <use xlink:href="#m268ca13ff7" x="215.419176" y="144.062403" style="fill: #0000ff; stroke: #0000ff"/>
     <use xlink:href="#m268ca13ff7" x="218.800994" y="160.237783" style="fill: #0000ff; stroke: #0000ff"/>
     <use xlink:href="#m268ca13ff7" x="222.182813" y="140.070957" style="fill: #0000ff; stroke: #0000ff"/>
     <use xlink:href="#m268ca13ff7" x="225.564631" y="187.337297" style="fill: #0000ff; stroke: #0000ff"/>
     <use xlink:href="#m268ca13ff7" x="228.946449" y="179.588629" style="fill: #0000ff; stroke: #0000ff"/>
     <use xlink:href="#m268ca13ff7" x="232.328267" y="186.802956" style="fill: #0000ff; stroke: #0000ff"/>
     <use xlink:href="#m268ca13ff7" x="235.710085" y="168.765589" style="fill: #0000ff; stroke: #0000ff"/>
     <use xlink:href="#m268ca13ff7" x="239.091903" y="163.269956" style="fill: #0000ff; stroke: #0000ff"/>
     <use xlink:href="#m268ca13ff7" x="242.473722" y="168.210455" style="fill: #0000ff; stroke: #0000ff"/>
     <use xlink:href="#m268ca13ff7" x="245.85554" y="133.668213" style="fill: #0000ff; stroke: #0000ff"/>
     <use xlink:href="#m268ca13ff7" x="249.237358" y="159.090298" style="fill: #0000ff; stroke: #0000ff"/>
     <use xlink:href="#m268ca13ff7" x="252.619176" y="161.285313" style="fill: #0000ff; stroke: #0000ff"/>
     <use xlink:href="#m268ca13ff7" x="256.000994" y="143.672154" style="fill: #0000ff; stroke: #0000ff"/>
     <use xlink:href="#m268ca13ff7" x="259.382813" y="164.673716" style="fill: #0000ff; stroke: #0000ff"/>
     <use xlink:href="#m268ca13ff7" x="262.764631" y="123.530538" style="fill: #0000ff; stroke: #0000ff"/>
     <use xlink:href="#m268ca13ff7" x="266.146449" y="163.334061" style="fill: #0000ff; stroke: #0000ff"/>
     <use xlink:href="#m268ca13ff7" x="269.528267" y="107.323957" style="fill: #0000ff; stroke: #0000ff"/>
     <use xlink:href="#m268ca13ff7" x="272.910085" y="116.97425" style="fill: #0000ff; stroke: #0000ff"/>
     <use xlink:href="#m268ca13ff7" x="276.291903" y="147.460734" style="fill: #0000ff; stroke: #0000ff"/>
     <use xlink:href="#m268ca13ff7" x="279.673722" y="155.643945" style="fill: #0000ff; stroke: #0000ff"/>
     <use xlink:href="#m268ca13ff7" x="283.05554" y="105.178739" style="fill: #0000ff; stroke: #0000ff"/>
     <use xlink:href="#m268ca13ff7" x="286.437358" y="108.210099" style="fill: #0000ff; stroke: #0000ff"/>
     <use xlink:href="#m268ca13ff7" x="289.819176" y="103.503242" style="fill: #0000ff; stroke: #0000ff"/>
     <use xlink:href="#m268ca13ff7" x="293.200994" y="97.514918" style="fill: #0000ff; stroke: #0000ff"/>
     <use xlink:href="#m268ca13ff7" x="296.582813" y="134.573916" style="fill: #0000ff; stroke: #0000ff"/>
     <use xlink:href="#m268ca13ff7" x="299.964631" y="114.23838" style="fill: #0000ff; stroke: #0000ff"/>
     <use xlink:href="#m268ca13ff7" x="303.346449" y="124.550797" style="fill: #0000ff; stroke: #0000ff"/>
     <use xlink:href="#m268ca13ff7" x="306.728267" y="76.991066" style="fill: #0000ff; stroke: #0000ff"/>
     <use xlink:href="#m268ca13ff7" x="310.110085" y="86.925198" style="fill: #0000ff; stroke: #0000ff"/>
     <use xlink:href="#m268ca13ff7" x="313.491903" y="99.820958" style="fill: #0000ff; stroke: #0000ff"/>
     <use xlink:href="#m268ca13ff7" x="316.873722" y="111.146551" style="fill: #0000ff; stroke: #0000ff"/>
     <use xlink:href="#m268ca13ff7" x="320.25554" y="92.323928" style="fill: #0000ff; stroke: #0000ff"/>
     <use xlink:href="#m268ca13ff7" x="323.637358" y="87.004013" style="fill: #0000ff; stroke: #0000ff"/>
     <use xlink:href="#m268ca13ff7" x="327.019176" y="58.803878" style="fill: #0000ff; stroke: #0000ff"/>
     <use xlink:href="#m268ca13ff7" x="330.400994" y="59.469086" style="fill: #0000ff; stroke: #0000ff"/>
     <use xlink:href="#m268ca13ff7" x="333.782813" y="40.085475" style="fill: #0000ff; stroke: #0000ff"/>
     <use xlink:href="#m268ca13ff7" x="337.164631" y="59.381925" style="fill: #0000ff; stroke: #0000ff"/>
     <use xlink:href="#m268ca13ff7" x="340.546449" y="74.930484" style="fill: #0000ff; stroke: #0000ff"/>
     <use xlink:href="#m268ca13ff7" x="343.928267" y="35.148953" style="fill: #0000ff; stroke: #0000ff"/>
     <use xlink:href="#m268ca13ff7" x="347.310085" y="27.129574" style="fill: #0000ff; stroke: #0000ff"/>
     <use xlink:href="#m268ca13ff7" x="350.691903" y="33.41971" style="fill: #0000ff; stroke: #0000ff"/>
     <use xlink:href="#m268ca13ff7" x="354.073722" y="15.722228" style="fill: #0000ff; stroke: #0000ff"/>
     <use xlink:href="#m268ca13ff7" x="357.45554" y="26.329269" style="fill: #0000ff; stroke: #0000ff"/>
     <use xlink:href="#m268ca13ff7" x="360.837358" y="18.96475" style="fill: #0000ff; stroke: #0000ff"/>
     <use xlink:href="#m268ca13ff7" x="364.219176" y="18.736447" style="fill: #0000ff; stroke: #0000ff"/>
     <use xlink:href="#m268ca13ff7" x="367.600994" y="36.312245" style="fill: #0000ff; stroke: #0000ff"/>
     <use xlink:href="#m268ca13ff7" x="370.982813" y="25.500451" style="fill: #0000ff; stroke: #0000ff"/>
    </g>
   </g>
   <g id="matplotlib.axis_1">
    <g id="xtick_1">
     <g id="line2d_1">
      <defs>
       <path id="ma9e8f0e2ef" d="M 0 0 
L 0 3.5 
" style="stroke: #000000; stroke-width: 0.8"/>
      </defs>
      <g>
       <use xlink:href="#ma9e8f0e2ef" x="36.182812" y="239.949375" style="stroke: #000000; stroke-width: 0.8"/>
      </g>
     </g>
     <g id="text_1">
      <!-- 0.0 -->
      <g transform="translate(29.932812 253.893125) scale(0.1 -0.1)">
       <defs>
        <path id="TimesNewRomanPSMT-30" d="M 231 2094 
Q 231 2819 450 3342 
Q 669 3866 1031 4122 
Q 1313 4325 1613 4325 
Q 2100 4325 2488 3828 
Q 2972 3213 2972 2159 
Q 2972 1422 2759 906 
Q 2547 391 2217 158 
Q 1888 -75 1581 -75 
Q 975 -75 572 641 
Q 231 1244 231 2094 
z
M 844 2016 
Q 844 1141 1059 588 
Q 1238 122 1591 122 
Q 1759 122 1940 273 
Q 2122 425 2216 781 
Q 2359 1319 2359 2297 
Q 2359 3022 2209 3506 
Q 2097 3866 1919 4016 
Q 1791 4119 1609 4119 
Q 1397 4119 1231 3928 
Q 1006 3669 925 3112 
Q 844 2556 844 2016 
z
" transform="scale(0.015625)"/>
        <path id="TimesNewRomanPSMT-2e" d="M 800 606 
Q 947 606 1047 504 
Q 1147 403 1147 259 
Q 1147 116 1045 14 
Q 944 -88 800 -88 
Q 656 -88 554 14 
Q 453 116 453 259 
Q 453 406 554 506 
Q 656 606 800 606 
z
" transform="scale(0.015625)"/>
       </defs>
       <use xlink:href="#TimesNewRomanPSMT-30"/>
       <use xlink:href="#TimesNewRomanPSMT-2e" transform="translate(50 0)"/>
       <use xlink:href="#TimesNewRomanPSMT-30" transform="translate(75 0)"/>
      </g>
     </g>
    </g>
    <g id="xtick_2">
     <g id="line2d_2">
      <g>
       <use xlink:href="#ma9e8f0e2ef" x="103.142813" y="239.949375" style="stroke: #000000; stroke-width: 0.8"/>
      </g>
     </g>
     <g id="text_2">
      <!-- 0.2 -->
      <g transform="translate(96.892813 253.893125) scale(0.1 -0.1)">
       <defs>
        <path id="TimesNewRomanPSMT-32" d="M 2934 816 
L 2638 0 
L 138 0 
L 138 116 
Q 1241 1122 1691 1759 
Q 2141 2397 2141 2925 
Q 2141 3328 1894 3587 
Q 1647 3847 1303 3847 
Q 991 3847 742 3664 
Q 494 3481 375 3128 
L 259 3128 
Q 338 3706 661 4015 
Q 984 4325 1469 4325 
Q 1984 4325 2329 3994 
Q 2675 3663 2675 3213 
Q 2675 2891 2525 2569 
Q 2294 2063 1775 1497 
Q 997 647 803 472 
L 1909 472 
Q 2247 472 2383 497 
Q 2519 522 2628 598 
Q 2738 675 2819 816 
L 2934 816 
z
" transform="scale(0.015625)"/>
       </defs>
       <use xlink:href="#TimesNewRomanPSMT-30"/>
       <use xlink:href="#TimesNewRomanPSMT-2e" transform="translate(50 0)"/>
       <use xlink:href="#TimesNewRomanPSMT-32" transform="translate(75 0)"/>
      </g>
     </g>
    </g>
    <g id="xtick_3">
     <g id="line2d_3">
      <g>
       <use xlink:href="#ma9e8f0e2ef" x="170.102813" y="239.949375" style="stroke: #000000; stroke-width: 0.8"/>
      </g>
     </g>
     <g id="text_3">
      <!-- 0.4 -->
      <g transform="translate(163.852813 253.893125) scale(0.1 -0.1)">
       <defs>
        <path id="TimesNewRomanPSMT-34" d="M 2978 1563 
L 2978 1119 
L 2409 1119 
L 2409 0 
L 1894 0 
L 1894 1119 
L 100 1119 
L 100 1519 
L 2066 4325 
L 2409 4325 
L 2409 1563 
L 2978 1563 
z
M 1894 1563 
L 1894 3666 
L 406 1563 
L 1894 1563 
z
" transform="scale(0.015625)"/>
       </defs>
       <use xlink:href="#TimesNewRomanPSMT-30"/>
       <use xlink:href="#TimesNewRomanPSMT-2e" transform="translate(50 0)"/>
       <use xlink:href="#TimesNewRomanPSMT-34" transform="translate(75 0)"/>
      </g>
     </g>
    </g>
    <g id="xtick_4">
     <g id="line2d_4">
      <g>
       <use xlink:href="#ma9e8f0e2ef" x="237.062813" y="239.949375" style="stroke: #000000; stroke-width: 0.8"/>
      </g>
     </g>
     <g id="text_4">
      <!-- 0.6 -->
      <g transform="translate(230.812813 253.893125) scale(0.1 -0.1)">
       <defs>
        <path id="TimesNewRomanPSMT-36" d="M 2869 4325 
L 2869 4209 
Q 2456 4169 2195 4045 
Q 1934 3922 1679 3669 
Q 1425 3416 1258 3105 
Q 1091 2794 978 2366 
Q 1428 2675 1881 2675 
Q 2316 2675 2634 2325 
Q 2953 1975 2953 1425 
Q 2953 894 2631 456 
Q 2244 -75 1606 -75 
Q 1172 -75 869 213 
Q 275 772 275 1663 
Q 275 2231 503 2743 
Q 731 3256 1154 3653 
Q 1578 4050 1965 4187 
Q 2353 4325 2688 4325 
L 2869 4325 
z
M 925 2138 
Q 869 1716 869 1456 
Q 869 1156 980 804 
Q 1091 453 1309 247 
Q 1469 100 1697 100 
Q 1969 100 2183 356 
Q 2397 613 2397 1088 
Q 2397 1622 2184 2012 
Q 1972 2403 1581 2403 
Q 1463 2403 1327 2353 
Q 1191 2303 925 2138 
z
" transform="scale(0.015625)"/>
       </defs>
       <use xlink:href="#TimesNewRomanPSMT-30"/>
       <use xlink:href="#TimesNewRomanPSMT-2e" transform="translate(50 0)"/>
       <use xlink:href="#TimesNewRomanPSMT-36" transform="translate(75 0)"/>
      </g>
     </g>
    </g>
    <g id="xtick_5">
     <g id="line2d_5">
      <g>
       <use xlink:href="#ma9e8f0e2ef" x="304.022813" y="239.949375" style="stroke: #000000; stroke-width: 0.8"/>
      </g>
     </g>
     <g id="text_5">
      <!-- 0.8 -->
      <g transform="translate(297.772813 253.893125) scale(0.1 -0.1)">
       <defs>
        <path id="TimesNewRomanPSMT-38" d="M 1228 2134 
Q 725 2547 579 2797 
Q 434 3047 434 3316 
Q 434 3728 753 4026 
Q 1072 4325 1600 4325 
Q 2113 4325 2425 4047 
Q 2738 3769 2738 3413 
Q 2738 3175 2569 2928 
Q 2400 2681 1866 2347 
Q 2416 1922 2594 1678 
Q 2831 1359 2831 1006 
Q 2831 559 2490 242 
Q 2150 -75 1597 -75 
Q 994 -75 656 303 
Q 388 606 388 966 
Q 388 1247 577 1523 
Q 766 1800 1228 2134 
z
M 1719 2469 
Q 2094 2806 2194 3001 
Q 2294 3197 2294 3444 
Q 2294 3772 2109 3958 
Q 1925 4144 1606 4144 
Q 1288 4144 1088 3959 
Q 888 3775 888 3528 
Q 888 3366 970 3203 
Q 1053 3041 1206 2894 
L 1719 2469 
z
M 1375 2016 
Q 1116 1797 991 1539 
Q 866 1281 866 981 
Q 866 578 1086 336 
Q 1306 94 1647 94 
Q 1984 94 2187 284 
Q 2391 475 2391 747 
Q 2391 972 2272 1150 
Q 2050 1481 1375 2016 
z
" transform="scale(0.015625)"/>
       </defs>
       <use xlink:href="#TimesNewRomanPSMT-30"/>
       <use xlink:href="#TimesNewRomanPSMT-2e" transform="translate(50 0)"/>
       <use xlink:href="#TimesNewRomanPSMT-38" transform="translate(75 0)"/>
      </g>
     </g>
    </g>
    <g id="xtick_6">
     <g id="line2d_6">
      <g>
       <use xlink:href="#ma9e8f0e2ef" x="370.982813" y="239.949375" style="stroke: #000000; stroke-width: 0.8"/>
      </g>
     </g>
     <g id="text_6">
      <!-- 1.0 -->
      <g transform="translate(364.732813 253.893125) scale(0.1 -0.1)">
       <defs>
        <path id="TimesNewRomanPSMT-31" d="M 750 3822 
L 1781 4325 
L 1884 4325 
L 1884 747 
Q 1884 391 1914 303 
Q 1944 216 2037 169 
Q 2131 122 2419 116 
L 2419 0 
L 825 0 
L 825 116 
Q 1125 122 1212 167 
Q 1300 213 1334 289 
Q 1369 366 1369 747 
L 1369 3034 
Q 1369 3497 1338 3628 
Q 1316 3728 1258 3775 
Q 1200 3822 1119 3822 
Q 1003 3822 797 3725 
L 750 3822 
z
" transform="scale(0.015625)"/>
       </defs>
       <use xlink:href="#TimesNewRomanPSMT-31"/>
       <use xlink:href="#TimesNewRomanPSMT-2e" transform="translate(50 0)"/>
       <use xlink:href="#TimesNewRomanPSMT-30" transform="translate(75 0)"/>
      </g>
     </g>
    </g>
    <g id="text_7">
     <!-- x -->
     <g transform="translate(201.082812 266.975937) scale(0.1 -0.1)">
      <defs>
       <path id="TimesNewRomanPSMT-78" d="M 84 2863 
L 1431 2863 
L 1431 2747 
Q 1303 2747 1251 2703 
Q 1200 2659 1200 2588 
Q 1200 2513 1309 2356 
Q 1344 2306 1413 2200 
L 1616 1875 
L 1850 2200 
Q 2075 2509 2075 2591 
Q 2075 2656 2022 2701 
Q 1969 2747 1850 2747 
L 1850 2863 
L 2819 2863 
L 2819 2747 
Q 2666 2738 2553 2663 
Q 2400 2556 2134 2200 
L 1744 1678 
L 2456 653 
Q 2719 275 2831 198 
Q 2944 122 3122 113 
L 3122 0 
L 1772 0 
L 1772 113 
Q 1913 113 1991 175 
Q 2050 219 2050 291 
Q 2050 363 1850 653 
L 1431 1266 
L 972 653 
Q 759 369 759 316 
Q 759 241 829 180 
Q 900 119 1041 113 
L 1041 0 
L 106 0 
L 106 113 
Q 219 128 303 191 
Q 422 281 703 653 
L 1303 1450 
L 759 2238 
Q 528 2575 401 2661 
Q 275 2747 84 2747 
L 84 2863 
z
" transform="scale(0.015625)"/>
      </defs>
      <use xlink:href="#TimesNewRomanPSMT-78"/>
     </g>
    </g>
   </g>
   <g id="matplotlib.axis_2">
    <g id="ytick_1">
     <g id="line2d_7">
      <defs>
       <path id="m594cabf57f" d="M 0 0 
L -3.5 0 
" style="stroke: #000000; stroke-width: 0.8"/>
      </defs>
      <g>
       <use xlink:href="#m594cabf57f" x="36.182812" y="193.263059" style="stroke: #000000; stroke-width: 0.8"/>
      </g>
     </g>
     <g id="text_8">
      <!-- 0.0 -->
      <g transform="translate(16.682812 196.734934) scale(0.1 -0.1)">
       <use xlink:href="#TimesNewRomanPSMT-30"/>
       <use xlink:href="#TimesNewRomanPSMT-2e" transform="translate(50 0)"/>
       <use xlink:href="#TimesNewRomanPSMT-30" transform="translate(75 0)"/>
      </g>
     </g>
    </g>
    <g id="ytick_2">
     <g id="line2d_8">
      <g>
       <use xlink:href="#m594cabf57f" x="36.182812" y="134.905164" style="stroke: #000000; stroke-width: 0.8"/>
      </g>
     </g>
     <g id="text_9">
      <!-- 0.5 -->
      <g transform="translate(16.682812 138.377039) scale(0.1 -0.1)">
       <defs>
        <path id="TimesNewRomanPSMT-35" d="M 2778 4238 
L 2534 3706 
L 1259 3706 
L 981 3138 
Q 1809 3016 2294 2522 
Q 2709 2097 2709 1522 
Q 2709 1188 2573 903 
Q 2438 619 2231 419 
Q 2025 219 1772 97 
Q 1413 -75 1034 -75 
Q 653 -75 479 54 
Q 306 184 306 341 
Q 306 428 378 495 
Q 450 563 559 563 
Q 641 563 702 538 
Q 763 513 909 409 
Q 1144 247 1384 247 
Q 1750 247 2026 523 
Q 2303 800 2303 1197 
Q 2303 1581 2056 1914 
Q 1809 2247 1375 2428 
Q 1034 2569 447 2591 
L 1259 4238 
L 2778 4238 
z
" transform="scale(0.015625)"/>
       </defs>
       <use xlink:href="#TimesNewRomanPSMT-30"/>
       <use xlink:href="#TimesNewRomanPSMT-2e" transform="translate(50 0)"/>
       <use xlink:href="#TimesNewRomanPSMT-35" transform="translate(75 0)"/>
      </g>
     </g>
    </g>
    <g id="ytick_3">
     <g id="line2d_9">
      <g>
       <use xlink:href="#m594cabf57f" x="36.182812" y="76.54727" style="stroke: #000000; stroke-width: 0.8"/>
      </g>
     </g>
     <g id="text_10">
      <!-- 1.0 -->
      <g transform="translate(16.682812 80.019145) scale(0.1 -0.1)">
       <use xlink:href="#TimesNewRomanPSMT-31"/>
       <use xlink:href="#TimesNewRomanPSMT-2e" transform="translate(50 0)"/>
       <use xlink:href="#TimesNewRomanPSMT-30" transform="translate(75 0)"/>
      </g>
     </g>
    </g>
    <g id="ytick_4">
     <g id="line2d_10">
      <g>
       <use xlink:href="#m594cabf57f" x="36.182812" y="18.189375" style="stroke: #000000; stroke-width: 0.8"/>
      </g>
     </g>
     <g id="text_11">
      <!-- 1.5 -->
      <g transform="translate(16.682812 21.66125) scale(0.1 -0.1)">
       <use xlink:href="#TimesNewRomanPSMT-31"/>
       <use xlink:href="#TimesNewRomanPSMT-2e" transform="translate(50 0)"/>
       <use xlink:href="#TimesNewRomanPSMT-35" transform="translate(75 0)"/>
      </g>
     </g>
    </g>
    <g id="text_12">
     <!-- y -->
     <g transform="translate(10.525 131.569375) rotate(-90) scale(0.1 -0.1)">
      <defs>
       <path id="TimesNewRomanPSMT-79" d="M 38 2863 
L 1372 2863 
L 1372 2747 
L 1306 2747 
Q 1166 2747 1095 2686 
Q 1025 2625 1025 2534 
Q 1025 2413 1128 2197 
L 1825 753 
L 2466 2334 
Q 2519 2463 2519 2588 
Q 2519 2644 2497 2672 
Q 2472 2706 2419 2726 
Q 2366 2747 2231 2747 
L 2231 2863 
L 3163 2863 
L 3163 2747 
Q 3047 2734 2984 2696 
Q 2922 2659 2847 2556 
Q 2819 2513 2741 2316 
L 1575 -541 
Q 1406 -956 1132 -1168 
Q 859 -1381 606 -1381 
Q 422 -1381 303 -1275 
Q 184 -1169 184 -1031 
Q 184 -900 270 -820 
Q 356 -741 506 -741 
Q 609 -741 788 -809 
Q 913 -856 944 -856 
Q 1038 -856 1148 -759 
Q 1259 -663 1372 -384 
L 1575 113 
L 547 2272 
Q 500 2369 397 2513 
Q 319 2622 269 2659 
Q 197 2709 38 2747 
L 38 2863 
z
" transform="scale(0.015625)"/>
      </defs>
      <use xlink:href="#TimesNewRomanPSMT-79"/>
     </g>
    </g>
   </g>
   <g id="line2d_11">
    <path d="M 36.182812 74.086173 
L 39.564631 78.641251 
L 42.946449 83.088636 
L 46.328267 87.428327 
L 49.710085 91.660325 
L 53.091903 95.784629 
L 56.473722 99.80124 
L 59.85554 103.710157 
L 63.237358 107.511381 
L 66.619176 111.204911 
L 70.000994 114.790748 
L 73.382812 118.268892 
L 76.764631 121.639341 
L 80.146449 124.902098 
L 83.528267 128.057161 
L 86.910085 131.10453 
L 90.291903 134.044206 
L 93.673722 136.876189 
L 97.05554 139.600477 
L 100.437358 142.217073 
L 103.819176 144.725975 
L 107.200994 147.127183 
L 110.582813 149.420698 
L 113.964631 151.60652 
L 117.346449 153.684648 
L 120.728267 155.655083 
L 124.110085 157.517824 
L 127.491903 159.272871 
L 130.873722 160.920225 
L 134.25554 162.459886 
L 137.637358 163.891853 
L 141.019176 165.216127 
L 144.400994 166.432707 
L 147.782813 167.541594 
L 151.164631 168.542787 
L 154.546449 169.436287 
L 157.928267 170.222093 
L 161.310085 170.900206 
L 164.691903 171.470625 
L 168.073722 171.933351 
L 171.45554 172.288383 
L 174.837358 172.535722 
L 178.219176 172.675367 
L 181.600994 172.707319 
L 184.982813 172.631577 
L 188.364631 172.448142 
L 191.746449 172.157014 
L 195.128267 171.758191 
L 198.510085 171.251676 
L 201.891903 170.637467 
L 205.273722 169.915564 
L 208.65554 169.085968 
L 212.037358 168.148679 
L 215.419176 167.103696 
L 218.800994 165.951019 
L 222.182813 164.690649 
L 225.564631 163.322586 
L 228.946449 161.846829 
L 232.328267 160.263378 
L 235.710085 158.572234 
L 239.091903 156.773397 
L 242.473722 154.866866 
L 245.85554 152.852642 
L 249.237358 150.730724 
L 252.619176 148.501113 
L 256.000994 146.163808 
L 259.382813 143.71881 
L 262.764631 141.166118 
L 266.146449 138.505732 
L 269.528267 135.737654 
L 272.910085 132.861881 
L 276.291903 129.878416 
L 279.673722 126.787257 
L 283.05554 123.588404 
L 286.437358 120.281858 
L 289.819176 116.867618 
L 293.200994 113.345685 
L 296.582813 109.716058 
L 299.964631 105.978738 
L 303.346449 102.133724 
L 306.728267 98.181017 
L 310.110085 94.120617 
L 313.491903 89.952523 
L 316.873722 85.676735 
L 320.25554 81.293254 
L 323.637358 76.80208 
L 327.019176 72.203212 
L 330.400994 67.49665 
L 333.782813 62.682395 
L 337.164631 57.760447 
L 340.546449 52.730805 
L 343.928267 47.593469 
L 347.310085 42.34844 
L 350.691903 36.995718 
L 354.073722 31.535302 
L 357.45554 25.967193 
L 360.837358 20.29139 
L 364.219176 14.507894 
L 367.600994 8.616704 
L 370.982813 2.617821 
" clip-path="url(#p6898fee226)" style="fill: none; stroke: #000000; stroke-linecap: square"/>
   </g>
   <g id="line2d_12">
    <path d="M 36.182812 64.718173 
L 39.564631 72.105311 
L 42.946449 79.016432 
L 46.328267 85.480578 
L 49.710085 91.525449 
L 53.091903 97.177429 
L 56.473722 102.461617 
L 59.85554 107.401854 
L 63.237358 112.020753 
L 66.619176 116.339724 
L 70.000994 120.379006 
L 73.382812 124.157692 
L 76.764631 127.693761 
L 80.146449 131.004104 
L 83.528267 134.104551 
L 86.910085 137.009904 
L 90.291903 139.733961 
L 93.673722 142.289546 
L 97.05554 144.688537 
L 100.437358 146.941896 
L 103.819176 149.059693 
L 107.200994 151.05114 
L 110.582813 152.924617 
L 113.964631 154.687697 
L 117.346449 156.34718 
L 120.728267 157.909119 
L 124.110085 159.378846 
L 127.491903 160.761003 
L 130.873722 162.059572 
L 134.25554 163.277897 
L 137.637358 164.418722 
L 141.019176 165.484208 
L 144.400994 166.475972 
L 147.782813 167.395107 
L 151.164631 168.242217 
L 154.546449 169.017441 
L 157.928267 169.720481 
L 161.310085 170.350634 
L 164.691903 170.906818 
L 168.073722 171.387601 
L 171.45554 171.791228 
L 174.837358 172.115651 
L 178.219176 172.358557 
L 181.600994 172.517396 
L 184.982813 172.589409 
L 188.364631 172.571658 
L 191.746449 172.461052 
L 195.128267 172.254376 
L 198.510085 171.948323 
L 201.891903 171.539516 
L 205.273722 171.02454 
L 208.65554 170.399972 
L 212.037358 169.662406 
L 215.419176 168.808482 
L 218.800994 167.834916 
L 222.182813 166.738528 
L 225.564631 165.516268 
L 228.946449 164.165247 
L 232.328267 162.682765 
L 235.710085 161.066339 
L 239.091903 159.313729 
L 242.473722 157.422972 
L 245.85554 155.392403 
L 249.237358 153.220689 
L 252.619176 150.906858 
L 256.000994 148.450321 
L 259.382813 145.850906 
L 262.764631 143.108885 
L 266.146449 140.225002 
L 269.528267 137.200501 
L 272.910085 134.037155 
L 276.291903 130.737293 
L 279.673722 127.30383 
L 283.05554 123.740297 
L 286.437358 120.050863 
L 289.819176 116.240372 
L 293.200994 112.314363 
L 296.582813 108.279104 
L 299.964631 104.141619 
L 303.346449 99.909715 
L 306.728267 95.592012 
L 310.110085 91.197969 
L 313.491903 86.737917 
L 316.873722 82.223082 
L 320.25554 77.665615 
L 323.637358 73.078624 
L 327.019176 68.476197 
L 330.400994 63.873434 
L 333.782813 59.286473 
L 337.164631 54.732521 
L 340.546449 50.229879 
L 343.928267 45.797974 
L 347.310085 41.457384 
L 350.691903 37.22987 
L 354.073722 33.138399 
L 357.45554 29.207178 
L 360.837358 25.461681 
L 364.219176 21.928673 
L 367.600994 18.636244 
L 370.982813 15.613835 
" clip-path="url(#p6898fee226)" style="fill: none; stroke: #ff0000; stroke-linecap: square"/>
   </g>
   <g id="patch_3">
    <path d="M 36.182812 239.949375 
L 36.182812 18.189375 
" style="fill: none; stroke: #000000; stroke-width: 0.8; stroke-linejoin: miter; stroke-linecap: square"/>
   </g>
   <g id="patch_4">
    <path d="M 370.982813 239.949375 
L 370.982813 18.189375 
" style="fill: none; stroke: #000000; stroke-width: 0.8; stroke-linejoin: miter; stroke-linecap: square"/>
   </g>
   <g id="patch_5">
    <path d="M 36.182812 239.949375 
L 370.982813 239.949375 
" style="fill: none; stroke: #000000; stroke-width: 0.8; stroke-linejoin: miter; stroke-linecap: square"/>
   </g>
   <g id="patch_6">
    <path d="M 36.182812 18.189375 
L 370.982813 18.189375 
" style="fill: none; stroke: #000000; stroke-width: 0.8; stroke-linejoin: miter; stroke-linecap: square"/>
   </g>
   <g id="text_13">
    <!-- 在大规模数据集上拟合五次模型 -->
    <g transform="translate(119.582812 12.189375) scale(0.12 -0.12)">
     <defs>
      <path id="SimSun-5728" d="M 1325 2400 
Q 1325 2475 1300 2775 
L 1550 2675 
Q 1975 3200 2375 3975 
L 1275 3975 
Q 950 3975 675 3900 
L 450 4125 
L 2425 4125 
Q 2700 4800 2775 5250 
L 3350 4950 
L 3100 4800 
Q 3025 4575 2800 4125 
L 5000 4125 
L 5375 4500 
L 5900 3975 
L 2750 3975 
Q 2225 2950 1700 2400 
L 1700 -375 
L 1325 -575 
Q 1350 -175 1350 150 
L 1350 2050 
Q 775 1525 275 1225 
L 225 1300 
Q 975 1950 1325 2400 
z
M 3600 3150 
Q 3600 3325 3575 3775 
L 4150 3525 
L 3950 3350 
L 3950 2325 
L 4900 2325 
L 5225 2650 
L 5700 2175 
L 3950 2175 
L 3950 175 
L 5200 175 
L 5550 525 
L 6050 25 
L 2650 25 
Q 2325 25 2050 -50 
L 1825 175 
L 3600 175 
L 3600 2175 
L 2975 2175 
Q 2650 2175 2375 2100 
L 2150 2325 
L 3600 2325 
L 3600 3150 
z
" transform="scale(0.015625)"/>
      <path id="SimSun-5927" d="M 2925 3475 
Q 2925 4800 2900 5250 
L 3500 4975 
L 3300 4775 
L 3300 3475 
L 5150 3475 
L 5550 3875 
L 6100 3325 
L 3300 3325 
L 3300 3125 
Q 3550 2200 4212 1262 
Q 4875 325 6075 0 
L 6075 -100 
Q 5700 -125 5525 -425 
Q 4700 75 4100 950 
Q 3500 1825 3250 2775 
Q 3025 1250 2300 512 
Q 1575 -225 350 -625 
L 325 -525 
Q 1200 -150 1800 425 
Q 2400 1000 2637 1750 
Q 2875 2500 2925 3325 
L 950 3325 
L 600 3275 
L 400 3475 
L 2925 3475 
z
" transform="scale(0.015625)"/>
      <path id="SimSun-89c4" d="M 1450 5200 
L 2000 4950 
L 1800 4775 
L 1800 3700 
L 2225 3700 
L 2500 3975 
L 2900 3550 
L 1800 3550 
L 1800 2425 
L 2300 2425 
L 2575 2700 
L 2975 2275 
L 1800 2275 
Q 1800 2075 1750 1700 
Q 2575 1225 2675 1050 
Q 2775 875 2775 750 
Q 2775 600 2725 500 
Q 2675 400 2625 400 
Q 2550 400 2425 700 
Q 2225 1100 1725 1600 
Q 1675 1000 1350 475 
Q 1025 -50 350 -575 
L 275 -500 
Q 900 75 1175 725 
Q 1450 1375 1475 2275 
L 1125 2275 
Q 800 2275 525 2200 
L 300 2425 
L 1475 2425 
L 1475 3550 
L 1275 3550 
Q 950 3550 675 3475 
L 450 3700 
L 1475 3700 
Q 1475 4600 1450 5200 
z
M 5600 4375 
Q 5600 2350 5625 1800 
L 5275 1600 
L 5275 4500 
L 3500 4500 
L 3500 1675 
L 3150 1475 
Q 3175 2225 3175 3125 
Q 3175 4025 3150 4850 
L 3525 4650 
L 5225 4650 
L 5450 4900 
L 5850 4550 
L 5600 4375 
z
M 4125 4050 
L 4675 3775 
L 4500 3600 
Q 4475 2600 4375 1937 
Q 4275 1275 4012 800 
Q 3750 325 3262 -12 
Q 2775 -350 2050 -575 
L 2025 -475 
Q 2575 -250 3050 100 
Q 3525 450 3762 950 
Q 4000 1450 4075 2175 
Q 4150 2900 4125 4050 
z
M 4475 150 
L 4475 1475 
Q 4475 2075 4450 2450 
L 5000 2125 
L 4800 1975 
L 4800 200 
Q 4800 -25 5100 -25 
L 5400 -25 
Q 5625 -25 5662 362 
Q 5700 750 5700 1075 
L 5825 1075 
Q 5825 725 5862 425 
Q 5900 125 6125 0 
Q 5925 -325 5625 -325 
L 4900 -325 
Q 4475 -325 4475 150 
z
" transform="scale(0.015625)"/>
      <path id="SimSun-6a21" d="M 1275 -625 
Q 1300 225 1300 2575 
Q 950 1675 275 925 
L 225 975 
Q 1000 2200 1250 3625 
L 675 3625 
L 450 3575 
L 250 3775 
L 1300 3775 
Q 1300 4900 1275 5250 
L 1875 5000 
L 1625 4825 
L 1625 3775 
L 1900 3775 
L 2200 4075 
L 2650 3625 
L 1625 3625 
L 1625 3000 
Q 2200 2725 2337 2562 
Q 2475 2400 2475 2250 
Q 2475 2150 2412 2012 
Q 2350 1875 2300 1875 
Q 2225 1875 2125 2150 
Q 1950 2550 1625 2850 
Q 1625 250 1650 -475 
L 1275 -625 
z
M 4475 4400 
Q 4475 4825 4450 5275 
L 5025 5000 
L 4800 4825 
L 4800 4400 
L 5300 4400 
L 5600 4700 
L 6050 4250 
L 4800 4250 
Q 4800 3975 4825 3775 
L 4475 3650 
L 4475 4250 
L 3625 4250 
L 3625 3775 
L 3275 3600 
Q 3300 3900 3300 4250 
L 2675 4250 
L 2450 4200 
L 2250 4400 
L 3300 4400 
Q 3300 4750 3275 5250 
L 3825 5000 
L 3625 4850 
L 3625 4400 
L 4475 4400 
z
M 2825 1500 
Q 2850 2175 2850 2625 
Q 2850 3075 2825 3675 
L 3175 3475 
L 5000 3475 
L 5200 3700 
L 5550 3400 
L 5350 3250 
Q 5350 1975 5375 1700 
L 5025 1550 
L 5025 1850 
L 4150 1850 
Q 4125 1525 4075 1125 
L 5325 1125 
L 5650 1450 
L 6125 975 
L 4275 975 
Q 4550 550 4987 237 
Q 5425 -75 6100 -125 
L 6100 -225 
Q 5775 -275 5625 -550 
Q 4650 -175 4150 975 
L 4050 975 
Q 3650 -425 1875 -650 
L 1850 -575 
Q 2675 -375 3100 37 
Q 3525 450 3700 975 
L 2850 975 
Q 2525 975 2250 900 
L 2025 1125 
L 3725 1125 
Q 3775 1375 3800 1850 
L 3175 1850 
L 3175 1650 
L 2825 1500 
z
M 3175 3325 
L 3175 2750 
L 5025 2750 
L 5025 3325 
L 3175 3325 
z
M 3175 2600 
L 3175 2000 
L 5025 2000 
L 5025 2600 
L 3175 2600 
z
" transform="scale(0.015625)"/>
      <path id="SimSun-6570" d="M 1875 1525 
Q 1675 1200 1500 900 
Q 1825 825 2275 725 
Q 2500 975 2725 1525 
L 1875 1525 
z
M 850 4900 
Q 1325 4600 1425 4450 
Q 1525 4300 1525 4225 
Q 1525 4100 1437 3975 
Q 1350 3850 1300 3850 
Q 1225 3850 1150 4100 
Q 1050 4450 775 4850 
L 850 4900 
z
M 3000 4975 
L 3450 4675 
Q 3250 4625 3100 4425 
Q 2925 4225 2525 3825 
L 2450 3875 
Q 2925 4625 3000 4975 
z
M 1875 5250 
L 2425 5000 
L 2225 4825 
L 2225 3675 
L 2850 3675 
L 3125 3950 
L 3550 3525 
L 2225 3525 
L 2225 3300 
Q 2800 3175 2937 3062 
Q 3075 2950 3075 2775 
Q 3075 2700 3050 2587 
Q 3025 2475 2975 2475 
Q 2925 2475 2800 2650 
Q 2600 2925 2225 3175 
L 2225 2400 
L 1925 2200 
L 2275 2050 
Q 2150 2000 1950 1675 
L 2725 1675 
L 2900 1900 
L 3275 1575 
L 3050 1450 
Q 2800 875 2600 650 
Q 3000 550 3137 437 
Q 3275 325 3275 150 
Q 3275 -25 3200 -25 
Q 3125 -25 3025 75 
Q 2750 275 2400 425 
Q 1525 -275 325 -500 
L 300 -425 
Q 1450 -50 2100 550 
Q 1600 725 1125 800 
Q 1225 950 1525 1525 
L 1200 1525 
Q 875 1525 600 1450 
L 375 1675 
L 1575 1675 
Q 1675 1925 1775 2275 
L 1900 2225 
L 1900 3250 
Q 1225 2475 350 2050 
L 300 2125 
Q 1225 2775 1700 3525 
L 1250 3525 
Q 925 3525 650 3450 
L 425 3675 
L 1900 3675 
Q 1900 4575 1875 5250 
z
M 3925 3525 
Q 4050 2075 4525 1100 
Q 4925 1950 5025 3525 
L 3925 3525 
z
M 4050 5250 
L 4625 4925 
Q 4425 4850 4325 4625 
Q 4225 4400 3950 3675 
L 5375 3675 
L 5675 3975 
L 6125 3525 
L 5400 3525 
Q 5250 1675 4750 775 
Q 5325 75 6100 -100 
L 6100 -200 
Q 5625 -275 5600 -500 
Q 4950 -50 4525 525 
Q 3700 -275 2550 -650 
L 2500 -575 
Q 3650 -50 4325 800 
Q 3850 1975 3825 3375 
Q 3575 2725 3100 2150 
L 3025 2200 
Q 3625 3200 4050 5250 
z
" transform="scale(0.015625)"/>
      <path id="SimSun-636e" d="M 3125 -650 
Q 3150 -100 3150 512 
Q 3150 1125 3125 1600 
L 3475 1400 
L 4175 1400 
L 4175 2400 
L 3000 2400 
Q 2825 625 1675 -525 
L 1600 -450 
Q 2150 275 2437 1187 
Q 2725 2100 2737 3312 
Q 2750 4525 2725 5050 
L 3100 4825 
L 5150 4825 
L 5350 5025 
L 5700 4700 
L 5500 4575 
Q 5500 3825 5525 3475 
L 5175 3325 
L 5175 3625 
L 3075 3625 
Q 3075 3150 3025 2550 
L 4175 2550 
Q 4175 3025 4150 3475 
L 4700 3225 
L 4500 3075 
L 4500 2550 
L 5325 2550 
L 5600 2825 
L 6025 2400 
L 4500 2400 
L 4500 1400 
L 5150 1400 
L 5350 1625 
L 5700 1300 
L 5500 1150 
Q 5500 150 5525 -400 
L 5175 -600 
L 5175 -75 
L 3475 -75 
L 3475 -500 
L 3125 -650 
z
M 3075 4675 
L 3075 3775 
L 5175 3775 
L 5175 4675 
L 3075 4675 
z
M 3475 1250 
L 3475 75 
L 5175 75 
L 5175 1250 
L 3475 1250 
z
M 1675 2450 
L 2500 2925 
L 2550 2825 
L 1675 2175 
L 1675 150 
Q 1650 -300 1125 -500 
Q 1175 -250 500 25 
L 500 125 
Q 1050 25 1187 37 
Q 1325 50 1325 225 
L 1325 2000 
Q 625 1500 600 1350 
L 225 1800 
Q 375 1825 1325 2300 
L 1325 3575 
L 750 3575 
L 450 3525 
L 250 3725 
L 1325 3725 
Q 1325 4750 1300 5175 
L 1875 4875 
L 1675 4700 
L 1675 3725 
L 1950 3725 
L 2275 4000 
L 2650 3575 
L 1675 3575 
L 1675 2450 
z
" transform="scale(0.015625)"/>
      <path id="SimSun-96c6" d="M 1775 2650 
L 1775 2075 
L 3200 2075 
L 3200 2650 
L 1775 2650 
z
M 1425 1500 
Q 1450 2500 1450 3750 
Q 975 3200 300 2750 
L 250 2825 
Q 800 3300 1250 3962 
Q 1700 4625 1925 5275 
L 2425 4925 
L 2200 4850 
L 1825 4250 
L 4975 4250 
L 5275 4550 
L 5700 4100 
L 3525 4100 
L 3525 3500 
L 4700 3500 
L 4975 3775 
L 5375 3350 
L 3525 3350 
L 3525 2800 
L 4650 2800 
L 4925 3075 
L 5325 2650 
L 3525 2650 
L 3525 2075 
L 4925 2075 
L 5225 2375 
L 5650 1925 
L 1775 1925 
L 1775 1625 
L 1425 1500 
z
M 2975 5200 
Q 3450 5025 3575 4887 
Q 3700 4750 3700 4650 
Q 3700 4550 3612 4425 
Q 3525 4300 3500 4300 
Q 3400 4300 3325 4525 
Q 3200 4850 2925 5125 
L 2975 5200 
z
M 1775 4100 
L 1775 3500 
L 3200 3500 
L 3200 4100 
L 1775 4100 
z
M 1775 3350 
L 1775 2800 
L 3200 2800 
L 3200 3350 
L 1775 3350 
z
M 3075 1300 
Q 3075 1675 3050 1900 
L 3600 1700 
L 3400 1525 
L 3400 1300 
L 5400 1300 
L 5700 1600 
L 6125 1150 
L 3675 1150 
Q 4150 600 4750 300 
Q 5350 0 6150 -75 
L 6150 -150 
Q 5775 -225 5700 -475 
Q 5050 -275 4525 87 
Q 4000 450 3550 1150 
L 3400 1150 
Q 3400 -100 3425 -450 
L 3050 -650 
Q 3075 150 3075 1125 
Q 2550 550 1887 150 
Q 1225 -250 300 -575 
L 275 -475 
Q 1175 -75 1800 387 
Q 2425 850 2650 1150 
L 1100 1150 
Q 775 1150 500 1075 
L 275 1300 
L 3075 1300 
z
" transform="scale(0.015625)"/>
      <path id="SimSun-4e0a" d="M 2725 5175 
L 3400 4875 
L 3125 4675 
L 3125 3000 
L 4600 3000 
L 4975 3375 
L 5500 2850 
L 3125 2850 
L 3125 25 
L 5175 25 
L 5575 425 
L 6125 -125 
L 1125 -125 
Q 800 -125 525 -200 
L 300 25 
L 2750 25 
L 2750 4225 
Q 2750 4675 2725 5175 
z
" transform="scale(0.015625)"/>
      <path id="SimSun-62df" d="M 3150 1050 
L 4250 1900 
L 4325 1825 
Q 4000 1500 3625 1087 
Q 3250 675 3050 300 
L 2675 675 
Q 2800 800 2800 1125 
L 2800 3125 
Q 2800 3850 2775 4650 
L 3375 4350 
L 3150 4175 
L 3150 1050 
z
M 5050 1175 
Q 5725 700 5887 450 
Q 6050 200 6000 -12 
Q 5950 -225 5850 -325 
Q 5750 -425 5625 25 
Q 5475 475 5000 1025 
Q 4375 -225 2625 -675 
L 2600 -575 
Q 3250 -300 3712 37 
Q 4175 375 4500 912 
Q 4825 1450 4850 2400 
Q 4875 3350 4875 3750 
Q 4875 4525 4825 5000 
L 5500 4675 
L 5250 4475 
Q 5250 3650 5237 2775 
Q 5225 1900 5050 1175 
z
M 1375 3850 
Q 1375 4875 1350 5225 
L 1925 4950 
L 1725 4750 
L 1725 3850 
L 2050 3850 
L 2325 4125 
L 2750 3700 
L 1725 3700 
L 1725 2525 
L 2575 2975 
L 2625 2875 
L 1725 2275 
L 1725 100 
Q 1700 -350 1175 -550 
Q 1200 -275 450 0 
L 450 100 
Q 1000 0 1200 12 
Q 1400 25 1375 350 
L 1375 2050 
Q 675 1600 600 1425 
L 250 1875 
Q 550 1950 1375 2375 
L 1375 3700 
L 775 3700 
L 450 3650 
L 250 3850 
L 1375 3850 
z
M 3575 4775 
Q 4050 4375 4200 4150 
Q 4350 3925 4350 3775 
Q 4350 3700 4312 3587 
Q 4275 3475 4200 3412 
Q 4125 3350 4100 3350 
Q 4000 3350 3950 3700 
Q 3850 4125 3500 4725 
L 3575 4775 
z
" transform="scale(0.015625)"/>
      <path id="SimSun-5408" d="M 3575 4875 
L 3350 4750 
Q 3650 4225 4312 3662 
Q 4975 3100 6125 2825 
L 6125 2750 
Q 5750 2675 5600 2400 
Q 4500 3000 3962 3612 
Q 3425 4225 3250 4625 
Q 2575 3600 1887 3075 
Q 1200 2550 300 2225 
L 275 2325 
Q 1250 2825 1937 3500 
Q 2625 4175 3050 5225 
L 3575 4875 
z
M 1525 2700 
L 4025 2700 
L 4350 3025 
L 4825 2550 
L 2300 2550 
Q 2025 2550 1750 2475 
L 1525 2700 
z
M 1975 1500 
L 1975 100 
L 4375 100 
L 4375 1500 
L 1975 1500 
z
M 4725 1375 
Q 4725 250 4750 -325 
L 4375 -475 
L 4375 -50 
L 1975 -50 
L 1975 -375 
L 1600 -525 
Q 1625 100 1625 675 
Q 1625 1250 1600 1850 
L 1975 1650 
L 4325 1650 
L 4575 1900 
L 4925 1550 
L 4725 1375 
z
" transform="scale(0.015625)"/>
      <path id="SimSun-4e94" d="M 4800 2450 
L 4700 -75 
L 5175 -75 
L 5575 325 
L 6125 -225 
L 1175 -225 
Q 850 -225 575 -300 
L 350 -75 
L 2125 -75 
L 2525 2525 
L 1775 2525 
Q 1450 2525 1175 2450 
L 950 2675 
L 2550 2675 
L 2800 4475 
L 1500 4475 
Q 1175 4475 900 4400 
L 675 4625 
L 4875 4625 
L 5225 4975 
L 5725 4475 
L 3175 4475 
L 2900 2675 
L 4400 2675 
L 4625 2950 
L 5025 2625 
L 4800 2450 
z
M 4350 -75 
L 4450 2525 
L 2875 2525 
L 2475 -75 
L 4350 -75 
z
" transform="scale(0.015625)"/>
      <path id="SimSun-6b21" d="M 4875 2725 
L 5275 3600 
L 3225 3600 
Q 3025 3250 2800 2887 
Q 2575 2525 2075 2025 
L 2000 2100 
Q 2575 2825 2925 3750 
Q 3275 4675 3350 5225 
L 3950 4925 
Q 3750 4825 3650 4600 
Q 3550 4375 3275 3750 
L 5250 3750 
L 5525 4025 
L 5975 3550 
Q 5725 3500 5550 3350 
Q 5375 3200 4950 2675 
L 4875 2725 
z
M 4050 2900 
Q 3900 1225 3175 437 
Q 2450 -350 1450 -650 
L 1400 -575 
Q 2675 0 3175 912 
Q 3675 1825 3700 3400 
L 4275 3100 
L 4125 2975 
Q 4300 1700 4812 912 
Q 5325 125 6150 -175 
L 6125 -250 
Q 5750 -225 5575 -500 
Q 4950 -25 4537 825 
Q 4125 1675 4050 2900 
z
M 750 4950 
Q 1275 4675 1487 4450 
Q 1700 4225 1700 4075 
Q 1700 3925 1587 3775 
Q 1475 3625 1450 3625 
Q 1350 3625 1275 3950 
Q 1150 4400 700 4875 
L 750 4950 
z
M 425 1650 
Q 600 1625 750 1625 
Q 975 1625 1100 1725 
Q 1225 1825 2275 4300 
L 2375 4250 
Q 1400 1700 1350 1600 
Q 1300 1500 1300 1187 
Q 1300 875 1375 350 
Q 1450 -200 1212 -175 
Q 975 -150 925 -25 
Q 875 100 875 200 
Q 875 300 925 575 
Q 1000 975 975 1187 
Q 950 1400 425 1550 
L 425 1650 
z
" transform="scale(0.015625)"/>
      <path id="SimSun-578b" d="M 2575 1675 
Q 2600 2250 2600 2600 
L 2600 3400 
L 1875 3400 
Q 1825 2075 500 1350 
L 450 1425 
Q 1475 2200 1550 3400 
L 1300 3400 
Q 975 3400 700 3325 
L 475 3550 
L 1550 3550 
L 1550 4600 
L 1225 4600 
L 925 4550 
L 725 4750 
L 3000 4750 
L 3300 5050 
L 3750 4600 
L 2925 4600 
L 2925 3550 
L 3200 3550 
L 3525 3875 
L 4000 3400 
L 2925 3400 
L 2925 2600 
Q 2925 2100 2950 1875 
L 2575 1675 
z
M 1875 4600 
L 1875 3550 
L 2600 3550 
L 2600 4600 
L 1875 4600 
z
M 4175 2525 
Q 4200 3100 4200 3650 
Q 4200 4200 4175 4600 
L 4700 4400 
L 4525 4225 
L 4525 2650 
L 4175 2525 
z
M 5200 5225 
L 5725 4975 
L 5550 4800 
L 5550 2225 
Q 5600 1750 5025 1525 
Q 5000 1825 4250 2000 
L 4250 2125 
Q 4900 2050 5062 2062 
Q 5225 2075 5225 2375 
L 5225 4450 
Q 5225 4775 5200 5225 
z
M 3025 1025 
Q 3025 1400 3000 1850 
L 3600 1600 
L 3375 1425 
L 3375 1025 
L 4550 1025 
L 4900 1375 
L 5400 875 
L 3375 875 
L 3375 -150 
L 5025 -150 
L 5425 250 
L 5975 -300 
L 1275 -300 
Q 950 -300 675 -375 
L 450 -150 
L 3025 -150 
L 3025 875 
L 2000 875 
Q 1675 875 1400 800 
L 1175 1025 
L 3025 1025 
z
" transform="scale(0.015625)"/>
     </defs>
     <use xlink:href="#SimSun-5728"/>
     <use xlink:href="#SimSun-5927" transform="translate(100 0)"/>
     <use xlink:href="#SimSun-89c4" transform="translate(200 0)"/>
     <use xlink:href="#SimSun-6a21" transform="translate(300 0)"/>
     <use xlink:href="#SimSun-6570" transform="translate(400 0)"/>
     <use xlink:href="#SimSun-636e" transform="translate(500 0)"/>
     <use xlink:href="#SimSun-96c6" transform="translate(600 0)"/>
     <use xlink:href="#SimSun-4e0a" transform="translate(700 0)"/>
     <use xlink:href="#SimSun-62df" transform="translate(800 0)"/>
     <use xlink:href="#SimSun-5408" transform="translate(900 0)"/>
     <use xlink:href="#SimSun-4e94" transform="translate(1000 0)"/>
     <use xlink:href="#SimSun-6b21" transform="translate(1100 0)"/>
     <use xlink:href="#SimSun-6a21" transform="translate(1200 0)"/>
     <use xlink:href="#SimSun-578b" transform="translate(1300 0)"/>
    </g>
   </g>
   <g id="legend_1">
    <g id="patch_7">
     <path d="M 44.582812 79.1175 
L 178.982812 79.1175 
Q 181.382812 79.1175 181.382812 76.7175 
L 181.382812 26.589375 
Q 181.382812 24.189375 178.982812 24.189375 
L 44.582812 24.189375 
Q 42.182812 24.189375 42.182812 26.589375 
L 42.182812 76.7175 
Q 42.182812 79.1175 44.582812 79.1175 
z
" style="fill: #ffffff; opacity: 0.8; stroke: #cccccc; stroke-linejoin: miter"/>
    </g>
    <g id="PathCollection_2">
     <g>
      <use xlink:href="#m268ca13ff7" x="58.982812" y="34.335" style="fill: #0000ff; stroke: #0000ff"/>
     </g>
    </g>
    <g id="text_14">
     <!-- 训练数据 -->
     <g transform="translate(80.582812 37.485) scale(0.12 -0.12)">
      <defs>
       <path id="SimSun-8bad" d="M 3925 4575 
L 4475 4350 
L 4275 4200 
L 4275 1050 
Q 4275 825 4300 275 
L 3925 75 
Q 3950 1050 3950 2362 
Q 3950 3675 3925 4575 
z
M 5150 5025 
L 5700 4800 
L 5500 4625 
L 5500 725 
Q 5500 225 5525 -350 
L 5150 -550 
Q 5175 -75 5175 500 
L 5175 4125 
Q 5175 4400 5150 5025 
z
M 950 4875 
L 1000 4925 
Q 1500 4675 1662 4525 
Q 1825 4375 1800 4200 
Q 1775 4025 1700 3950 
Q 1625 3875 1575 3875 
Q 1500 3875 1425 4100 
Q 1325 4400 950 4875 
z
M 1625 700 
L 2400 1525 
L 2450 1475 
Q 1750 525 1525 0 
L 1200 400 
Q 1325 525 1300 725 
L 1300 2850 
L 1025 2850 
Q 825 2850 550 2775 
L 325 3000 
L 1275 3000 
L 1450 3250 
L 1825 2925 
L 1625 2775 
L 1625 700 
z
M 2775 5000 
L 3350 4750 
L 3150 4550 
Q 3150 3125 3137 2300 
Q 3125 1475 2812 750 
Q 2500 25 1575 -625 
L 1500 -575 
Q 2300 175 2550 900 
Q 2800 1625 2800 2650 
Q 2800 3675 2775 5000 
z
" transform="scale(0.015625)"/>
       <path id="SimSun-7ec3" d="M 700 3175 
L 1775 3250 
Q 1950 3525 2125 3925 
L 2600 3550 
L 2375 3475 
Q 1575 2500 775 1650 
Q 1425 1725 2350 1900 
L 2375 1800 
Q 875 1400 650 1125 
L 325 1650 
Q 550 1725 800 1987 
Q 1050 2250 1675 3100 
Q 1375 3075 1087 2987 
Q 800 2900 625 2725 
L 325 3225 
Q 550 3275 887 3900 
Q 1225 4525 1425 5225 
L 1975 4900 
L 1700 4750 
Q 1225 3975 700 3175 
z
M 300 375 
Q 1250 625 2425 1000 
L 2450 900 
Q 1550 500 750 75 
L 600 -100 
L 300 375 
z
M 2700 2250 
Q 2900 2550 3100 3075 
Q 2975 3075 2700 3000 
L 2475 3225 
L 3150 3225 
L 3500 4125 
L 3125 4125 
Q 2800 4125 2525 4050 
L 2300 4275 
L 3550 4275 
Q 3775 5000 3800 5250 
L 4325 4950 
L 4100 4825 
Q 4025 4650 3875 4275 
L 5125 4275 
L 5450 4600 
L 5900 4125 
L 3825 4125 
L 3475 3225 
L 4250 3225 
L 4425 3450 
L 4825 3150 
L 4625 3000 
L 4625 2100 
L 5300 2100 
L 5600 2400 
L 6050 1950 
L 4625 1950 
L 4625 150 
Q 4650 -450 4025 -600 
Q 4025 -225 3300 -50 
L 3300 50 
Q 3900 0 4100 0 
Q 4300 0 4300 275 
L 4300 1950 
L 2975 1950 
L 2800 1775 
L 2475 2125 
L 2700 2250 
z
M 3450 1025 
Q 2650 0 1900 -500 
L 1825 -425 
Q 2275 0 2600 450 
Q 2925 900 3175 1475 
L 3675 1100 
L 3450 1025 
z
M 4900 1375 
Q 5775 825 5937 637 
Q 6100 450 6100 275 
Q 6100 125 6025 -37 
Q 5950 -200 5900 -200 
Q 5825 -200 5700 125 
Q 5525 575 4850 1300 
L 4900 1375 
z
M 3425 3075 
Q 3225 2625 2950 2100 
L 4300 2100 
L 4300 3075 
L 3425 3075 
z
" transform="scale(0.015625)"/>
      </defs>
      <use xlink:href="#SimSun-8bad"/>
      <use xlink:href="#SimSun-7ec3" transform="translate(100 0)"/>
      <use xlink:href="#SimSun-6570" transform="translate(200 0)"/>
      <use xlink:href="#SimSun-636e" transform="translate(300 0)"/>
     </g>
    </g>
    <g id="line2d_13">
     <path d="M 46.982812 50.394375 
L 58.982812 50.394375 
L 70.982812 50.394375 
" style="fill: none; stroke: #000000; stroke-linecap: square"/>
    </g>
    <g id="text_15">
     <!-- 真实 h* -->
     <g transform="translate(80.582812 54.594375) scale(0.12 -0.12)">
      <defs>
       <path id="SimSun-771f" d="M 2050 3450 
L 2050 2900 
L 4300 2900 
L 4300 3450 
L 2050 3450 
z
M 2050 2750 
L 2050 2225 
L 4300 2225 
L 4300 2750 
L 2050 2750 
z
M 2050 2075 
L 2050 1550 
L 4300 1550 
L 4300 2075 
L 2050 2075 
z
M 2050 1400 
L 2050 875 
L 4300 875 
L 4300 1400 
L 2050 1400 
z
M 2875 3600 
L 2925 4325 
L 1525 4325 
Q 1200 4325 925 4250 
L 700 4475 
L 2950 4475 
Q 2975 4825 2975 5275 
L 3550 5025 
L 3375 4925 
L 3300 4475 
L 5000 4475 
L 5325 4825 
L 5775 4325 
L 3275 4325 
L 3200 3600 
L 4275 3600 
L 4450 3875 
L 4850 3575 
L 4650 3375 
L 4650 875 
L 5300 875 
L 5675 1225 
L 6125 725 
L 1150 725 
Q 825 725 550 650 
L 325 875 
L 1700 875 
Q 1700 3200 1675 3775 
L 2050 3600 
L 2875 3600 
z
M 2425 725 
L 2825 350 
L 2575 300 
Q 1500 -425 800 -650 
L 775 -575 
Q 1950 125 2425 725 
z
M 3800 700 
Q 4575 375 4962 200 
Q 5350 25 5400 -112 
Q 5450 -250 5450 -325 
Q 5450 -400 5400 -525 
Q 5350 -650 5325 -650 
Q 5250 -650 5100 -450 
Q 4875 -150 3750 625 
L 3800 700 
z
" transform="scale(0.015625)"/>
       <path id="SimSun-5b9e" d="M 1950 3625 
Q 2575 3400 2700 3250 
Q 2825 3100 2825 2975 
Q 2825 2850 2750 2700 
Q 2675 2550 2625 2550 
Q 2550 2550 2450 2800 
Q 2275 3175 1900 3550 
L 1950 3625 
z
M 3575 1325 
Q 3500 1100 3425 925 
Q 4650 550 5087 325 
Q 5525 100 5512 -225 
Q 5500 -550 5400 -550 
Q 5300 -550 5075 -300 
Q 4625 175 3375 800 
Q 3025 175 2300 -150 
Q 1575 -475 425 -625 
L 425 -525 
Q 1475 -325 2200 100 
Q 2925 525 3200 1325 
L 1225 1325 
Q 900 1325 625 1250 
L 400 1475 
L 3225 1475 
Q 3325 1950 3375 2575 
Q 3425 3200 3425 3700 
L 4050 3400 
L 3850 3225 
Q 3750 2300 3625 1475 
L 5175 1475 
L 5550 1850 
L 6075 1325 
L 3575 1325 
z
M 1275 2700 
Q 1975 2425 2100 2262 
Q 2225 2100 2225 1975 
Q 2225 1850 2150 1700 
Q 2075 1550 2025 1550 
Q 1950 1550 1850 1800 
Q 1675 2175 1225 2625 
L 1275 2700 
z
M 2750 5225 
L 2825 5275 
Q 3225 5100 3425 4925 
Q 3625 4750 3625 4600 
Q 3625 4450 3512 4300 
Q 3400 4150 3325 4150 
Q 3250 4150 3200 4400 
Q 3100 4775 2750 5225 
z
M 4975 3225 
L 5350 3925 
L 1175 3925 
Q 1225 3525 1125 3300 
Q 1025 3075 787 3100 
Q 550 3125 550 3200 
Q 550 3300 700 3475 
Q 975 3825 1050 4375 
L 1150 4375 
L 1175 4075 
L 5300 4075 
L 5575 4350 
L 6050 3800 
Q 5625 3825 5050 3175 
L 4975 3225 
z
" transform="scale(0.015625)"/>
       <path id="TimesNewRomanPSMT-20" transform="scale(0.015625)"/>
       <path id="TimesNewRomanPSMT-68" d="M 1041 4444 
L 1041 2350 
Q 1388 2731 1591 2839 
Q 1794 2947 1997 2947 
Q 2241 2947 2416 2812 
Q 2591 2678 2675 2391 
Q 2734 2191 2734 1659 
L 2734 647 
Q 2734 375 2778 275 
Q 2809 200 2884 156 
Q 2959 113 3159 113 
L 3159 0 
L 1753 0 
L 1753 113 
L 1819 113 
Q 2019 113 2097 173 
Q 2175 234 2206 353 
Q 2216 403 2216 647 
L 2216 1659 
Q 2216 2128 2167 2275 
Q 2119 2422 2012 2495 
Q 1906 2569 1756 2569 
Q 1603 2569 1437 2487 
Q 1272 2406 1041 2159 
L 1041 647 
Q 1041 353 1073 281 
Q 1106 209 1195 161 
Q 1284 113 1503 113 
L 1503 0 
L 84 0 
L 84 113 
Q 275 113 384 172 
Q 447 203 484 290 
Q 522 378 522 647 
L 522 3238 
Q 522 3728 498 3840 
Q 475 3953 426 3993 
Q 378 4034 297 4034 
Q 231 4034 84 3984 
L 41 4094 
L 897 4444 
L 1041 4444 
z
" transform="scale(0.015625)"/>
       <path id="TimesNewRomanPSMT-2a" d="M 1544 3263 
Q 1531 3478 1456 3691 
Q 1350 3997 1350 4113 
Q 1350 4275 1426 4359 
Q 1503 4444 1616 4444 
Q 1713 4444 1784 4359 
Q 1856 4275 1856 4119 
Q 1856 3978 1773 3726 
Q 1691 3475 1672 3263 
Q 1844 3372 1981 3528 
Q 2194 3775 2297 3834 
Q 2400 3894 2506 3894 
Q 2609 3894 2679 3823 
Q 2750 3753 2750 3656 
Q 2750 3541 2647 3450 
Q 2544 3359 2131 3269 
Q 1891 3216 1731 3147 
Q 1894 3063 2128 3019 
Q 2506 2950 2623 2847 
Q 2741 2744 2741 2622 
Q 2741 2528 2670 2459 
Q 2600 2391 2506 2391 
Q 2413 2391 2298 2456 
Q 2184 2522 1991 2750 
Q 1863 2903 1672 3038 
Q 1678 2859 1744 2650 
Q 1856 2281 1856 2147 
Q 1856 2022 1781 1936 
Q 1706 1850 1622 1850 
Q 1506 1850 1413 1941 
Q 1347 2006 1347 2150 
Q 1347 2300 1419 2511 
Q 1491 2722 1509 2801 
Q 1528 2881 1544 3038 
Q 1359 2916 1222 2766 
Q 994 2509 878 2441 
Q 797 2391 709 2391 
Q 603 2391 528 2462 
Q 453 2534 453 2622 
Q 453 2700 517 2786 
Q 581 2872 709 2928 
Q 794 2966 1094 3028 
Q 1288 3069 1472 3147 
Q 1303 3231 1069 3278 
Q 684 3359 594 3425 
Q 453 3528 453 3675 
Q 453 3759 523 3829 
Q 594 3900 688 3900 
Q 791 3900 906 3834 
Q 1022 3769 1194 3570 
Q 1366 3372 1544 3263 
z
" transform="scale(0.015625)"/>
      </defs>
      <use xlink:href="#SimSun-771f"/>
      <use xlink:href="#SimSun-5b9e" transform="translate(100 0)"/>
      <use xlink:href="#TimesNewRomanPSMT-20" transform="translate(200 0)"/>
      <use xlink:href="#TimesNewRomanPSMT-68" transform="translate(225 0)"/>
      <use xlink:href="#TimesNewRomanPSMT-2a" transform="translate(275 0)"/>
     </g>
    </g>
    <g id="line2d_14">
     <path d="M 46.982812 67.550625 
L 58.982812 67.550625 
L 70.982812 67.550625 
" style="fill: none; stroke: #ff0000; stroke-linecap: square"/>
    </g>
    <g id="text_16">
     <!-- 最佳五次拟合模型 -->
     <g transform="translate(80.582812 71.750625) scale(0.12 -0.12)">
      <defs>
       <path id="SimSun-6700" d="M 1550 2725 
L 1550 2200 
L 2725 2200 
L 2725 2725 
L 1550 2725 
z
M 1550 2050 
L 1550 1475 
L 2725 1475 
L 2725 2050 
L 1550 2050 
z
M 1550 1325 
L 1550 525 
L 2725 725 
L 2725 1325 
L 1550 1325 
z
M 3800 2125 
Q 3900 1775 4075 1425 
Q 4250 1075 4450 850 
Q 4650 1150 4812 1475 
Q 4975 1800 5100 2125 
L 3800 2125 
z
M 325 2875 
L 5100 2875 
L 5500 3275 
L 6050 2725 
L 3050 2725 
L 3050 800 
L 3775 950 
L 3800 850 
L 3050 625 
L 3050 -450 
L 2725 -650 
L 2725 525 
Q 1325 175 1025 62 
Q 725 -50 675 -150 
L 375 325 
Q 725 375 1200 450 
L 1200 2725 
L 850 2725 
L 525 2675 
L 325 2875 
z
M 3150 2275 
L 5075 2275 
L 5275 2525 
L 5675 2175 
L 5450 2050 
Q 5075 1200 4650 625 
Q 5050 250 5350 100 
Q 5650 -50 6075 -75 
L 6075 -175 
Q 5675 -225 5575 -475 
Q 5300 -350 5025 -137 
Q 4750 75 4450 400 
Q 3950 -100 3125 -575 
L 3050 -500 
Q 3775 0 4275 600 
Q 4050 950 3912 1312 
Q 3775 1675 3675 2125 
L 3350 2075 
L 3150 2275 
z
M 1900 4800 
L 1900 4250 
L 4600 4250 
L 4600 4800 
L 1900 4800 
z
M 1900 4100 
L 1900 3550 
L 4600 3550 
L 4600 4100 
L 1900 4100 
z
M 1525 5150 
L 1900 4950 
L 4550 4950 
L 4725 5225 
L 5150 4925 
L 4950 4750 
Q 4950 3525 4975 3275 
L 4600 3100 
L 4600 3400 
L 1900 3400 
L 1900 3200 
L 1525 3075 
Q 1550 3550 1550 4112 
Q 1550 4675 1525 5150 
z
" transform="scale(0.015625)"/>
       <path id="SimSun-4f73" d="M 3825 3925 
Q 3825 4800 3800 5200 
L 4400 4925 
L 4175 4750 
L 4175 3925 
L 4950 3925 
L 5275 4250 
L 5750 3775 
L 4175 3775 
L 4175 2675 
L 5300 2675 
L 5625 3000 
L 6100 2525 
L 2750 2525 
Q 2425 2525 2150 2450 
L 1925 2675 
L 3825 2675 
L 3825 3775 
L 3150 3775 
Q 2825 3775 2550 3700 
L 2325 3925 
L 3825 3925 
z
M 3825 1350 
Q 3825 2050 3800 2450 
L 4400 2175 
L 4175 2000 
L 4175 1350 
L 5025 1350 
L 5300 1625 
L 5725 1200 
L 4175 1200 
L 4175 -150 
L 5350 -150 
L 5675 175 
L 6150 -300 
L 2725 -300 
Q 2400 -300 2125 -375 
L 1900 -150 
L 3825 -150 
L 3825 1200 
L 3200 1200 
Q 2875 1200 2600 1125 
L 2375 1350 
L 3825 1350 
z
M 1700 825 
Q 1700 525 1725 -450 
L 1325 -675 
Q 1350 400 1350 750 
L 1350 3150 
Q 850 2425 350 1950 
L 275 2025 
Q 825 2675 1225 3512 
Q 1625 4350 1800 5125 
L 2350 4825 
L 2100 4675 
Q 1800 3975 1500 3425 
L 1875 3250 
L 1700 3100 
L 1700 825 
z
" transform="scale(0.015625)"/>
      </defs>
      <use xlink:href="#SimSun-6700"/>
      <use xlink:href="#SimSun-4f73" transform="translate(100 0)"/>
      <use xlink:href="#SimSun-4e94" transform="translate(200 0)"/>
      <use xlink:href="#SimSun-6b21" transform="translate(300 0)"/>
      <use xlink:href="#SimSun-62df" transform="translate(400 0)"/>
      <use xlink:href="#SimSun-5408" transform="translate(500 0)"/>
      <use xlink:href="#SimSun-6a21" transform="translate(600 0)"/>
      <use xlink:href="#SimSun-578b" transform="translate(700 0)"/>
     </g>
    </g>
   </g>
  </g>
 </g>
 <defs>
  <clipPath id="p6898fee226">
   <rect x="36.182812" y="18.189375" width="334.8" height="221.76"/>
  </clipPath>
 </defs>
</svg>
