<?xml version="1.0" encoding="utf-8" standalone="no"?>
<!DOCTYPE svg PUBLIC "-//W3C//DTD SVG 1.1//EN"
  "http://www.w3.org/Graphics/SVG/1.1/DTD/svg11.dtd">
<svg xmlns:xlink="http://www.w3.org/1999/xlink" width="1425.581063pt" height="417.626687pt" viewBox="0 0 1425.581063 417.626687" xmlns="http://www.w3.org/2000/svg" version="1.1">
 <metadata>
  <rdf:RDF xmlns:dc="http://purl.org/dc/elements/1.1/" xmlns:cc="http://creativecommons.org/ns#" xmlns:rdf="http://www.w3.org/1999/02/22-rdf-syntax-ns#">
   <cc:Work>
    <dc:type rdf:resource="http://purl.org/dc/dcmitype/StillImage"/>
    <dc:date>2025-09-30T01:23:32.493584</dc:date>
    <dc:format>image/svg+xml</dc:format>
    <dc:creator>
     <cc:Agent>
      <dc:title>Matplotlib v3.10.0, https://matplotlib.org/</dc:title>
     </cc:Agent>
    </dc:creator>
   </cc:Work>
  </rdf:RDF>
 </metadata>
 <defs>
  <style type="text/css">*{stroke-linejoin: round; stroke-linecap: butt}</style>
 </defs>
 <g id="figure_1">
  <g id="patch_1">
   <path d="M 0 417.626687 
L 1425.581063 417.626687 
L 1425.581063 0 
L 0 0 
z
" style="fill: #ffffff"/>
  </g>
  <g id="axes_1">
   <g id="patch_2">
    <path d="M 21.239063 397.943875 
L 466.681062 397.943875 
L 466.681062 7.071875 
L 21.239063 7.071875 
z
" style="fill: #ffffff"/>
   </g>
   <g id="matplotlib.axis_1">
    <g id="xtick_1">
     <g id="line2d_1">
      <defs>
       <path id="m457ad8da6c" d="M 0 0 
L 0 3.5 
" style="stroke: #000000; stroke-width: 0.8"/>
      </defs>
      <g>
       <use xlink:href="#m457ad8da6c" x="21.239063" y="397.943875" style="stroke: #000000; stroke-width: 0.8"/>
      </g>
     </g>
     <g id="text_1">
      <!-- −3 -->
      <g transform="translate(15.919531 411.887625) scale(0.1 -0.1)">
       <defs>
        <path id="TimesNewRomanPSMT-2212" d="M 3484 2000 
L 116 2000 
L 116 2256 
L 3484 2256 
L 3484 2000 
z
" transform="scale(0.015625)"/>
        <path id="TimesNewRomanPSMT-33" d="M 325 3431 
Q 506 3859 782 4092 
Q 1059 4325 1472 4325 
Q 1981 4325 2253 3994 
Q 2459 3747 2459 3466 
Q 2459 3003 1878 2509 
Q 2269 2356 2469 2072 
Q 2669 1788 2669 1403 
Q 2669 853 2319 450 
Q 1863 -75 997 -75 
Q 569 -75 414 31 
Q 259 138 259 259 
Q 259 350 332 419 
Q 406 488 509 488 
Q 588 488 669 463 
Q 722 447 909 348 
Q 1097 250 1169 231 
Q 1284 197 1416 197 
Q 1734 197 1970 444 
Q 2206 691 2206 1028 
Q 2206 1275 2097 1509 
Q 2016 1684 1919 1775 
Q 1784 1900 1550 2001 
Q 1316 2103 1072 2103 
L 972 2103 
L 972 2197 
Q 1219 2228 1467 2375 
Q 1716 2522 1828 2728 
Q 1941 2934 1941 3181 
Q 1941 3503 1739 3701 
Q 1538 3900 1238 3900 
Q 753 3900 428 3381 
L 325 3431 
z
" transform="scale(0.015625)"/>
       </defs>
       <use xlink:href="#TimesNewRomanPSMT-2212"/>
       <use xlink:href="#TimesNewRomanPSMT-33" transform="translate(56.396484 0)"/>
      </g>
     </g>
    </g>
    <g id="xtick_2">
     <g id="line2d_2">
      <g>
       <use xlink:href="#m457ad8da6c" x="95.479396" y="397.943875" style="stroke: #000000; stroke-width: 0.8"/>
      </g>
     </g>
     <g id="text_2">
      <!-- −2 -->
      <g transform="translate(90.159865 411.887625) scale(0.1 -0.1)">
       <defs>
        <path id="TimesNewRomanPSMT-32" d="M 2934 816 
L 2638 0 
L 138 0 
L 138 116 
Q 1241 1122 1691 1759 
Q 2141 2397 2141 2925 
Q 2141 3328 1894 3587 
Q 1647 3847 1303 3847 
Q 991 3847 742 3664 
Q 494 3481 375 3128 
L 259 3128 
Q 338 3706 661 4015 
Q 984 4325 1469 4325 
Q 1984 4325 2329 3994 
Q 2675 3663 2675 3213 
Q 2675 2891 2525 2569 
Q 2294 2063 1775 1497 
Q 997 647 803 472 
L 1909 472 
Q 2247 472 2383 497 
Q 2519 522 2628 598 
Q 2738 675 2819 816 
L 2934 816 
z
" transform="scale(0.015625)"/>
       </defs>
       <use xlink:href="#TimesNewRomanPSMT-2212"/>
       <use xlink:href="#TimesNewRomanPSMT-32" transform="translate(56.396484 0)"/>
      </g>
     </g>
    </g>
    <g id="xtick_3">
     <g id="line2d_3">
      <g>
       <use xlink:href="#m457ad8da6c" x="169.719729" y="397.943875" style="stroke: #000000; stroke-width: 0.8"/>
      </g>
     </g>
     <g id="text_3">
      <!-- −1 -->
      <g transform="translate(164.400198 411.887625) scale(0.1 -0.1)">
       <defs>
        <path id="TimesNewRomanPSMT-31" d="M 750 3822 
L 1781 4325 
L 1884 4325 
L 1884 747 
Q 1884 391 1914 303 
Q 1944 216 2037 169 
Q 2131 122 2419 116 
L 2419 0 
L 825 0 
L 825 116 
Q 1125 122 1212 167 
Q 1300 213 1334 289 
Q 1369 366 1369 747 
L 1369 3034 
Q 1369 3497 1338 3628 
Q 1316 3728 1258 3775 
Q 1200 3822 1119 3822 
Q 1003 3822 797 3725 
L 750 3822 
z
" transform="scale(0.015625)"/>
       </defs>
       <use xlink:href="#TimesNewRomanPSMT-2212"/>
       <use xlink:href="#TimesNewRomanPSMT-31" transform="translate(56.396484 0)"/>
      </g>
     </g>
    </g>
    <g id="xtick_4">
     <g id="line2d_4">
      <g>
       <use xlink:href="#m457ad8da6c" x="243.960062" y="397.943875" style="stroke: #000000; stroke-width: 0.8"/>
      </g>
     </g>
     <g id="text_4">
      <!-- 0 -->
      <g transform="translate(241.460062 411.887625) scale(0.1 -0.1)">
       <defs>
        <path id="TimesNewRomanPSMT-30" d="M 231 2094 
Q 231 2819 450 3342 
Q 669 3866 1031 4122 
Q 1313 4325 1613 4325 
Q 2100 4325 2488 3828 
Q 2972 3213 2972 2159 
Q 2972 1422 2759 906 
Q 2547 391 2217 158 
Q 1888 -75 1581 -75 
Q 975 -75 572 641 
Q 231 1244 231 2094 
z
M 844 2016 
Q 844 1141 1059 588 
Q 1238 122 1591 122 
Q 1759 122 1940 273 
Q 2122 425 2216 781 
Q 2359 1319 2359 2297 
Q 2359 3022 2209 3506 
Q 2097 3866 1919 4016 
Q 1791 4119 1609 4119 
Q 1397 4119 1231 3928 
Q 1006 3669 925 3112 
Q 844 2556 844 2016 
z
" transform="scale(0.015625)"/>
       </defs>
       <use xlink:href="#TimesNewRomanPSMT-30"/>
      </g>
     </g>
    </g>
    <g id="xtick_5">
     <g id="line2d_5">
      <g>
       <use xlink:href="#m457ad8da6c" x="318.200396" y="397.943875" style="stroke: #000000; stroke-width: 0.8"/>
      </g>
     </g>
     <g id="text_5">
      <!-- 1 -->
      <g transform="translate(315.700396 411.887625) scale(0.1 -0.1)">
       <use xlink:href="#TimesNewRomanPSMT-31"/>
      </g>
     </g>
    </g>
    <g id="xtick_6">
     <g id="line2d_6">
      <g>
       <use xlink:href="#m457ad8da6c" x="392.440729" y="397.943875" style="stroke: #000000; stroke-width: 0.8"/>
      </g>
     </g>
     <g id="text_6">
      <!-- 2 -->
      <g transform="translate(389.940729 411.887625) scale(0.1 -0.1)">
       <use xlink:href="#TimesNewRomanPSMT-32"/>
      </g>
     </g>
    </g>
    <g id="xtick_7">
     <g id="line2d_7">
      <g>
       <use xlink:href="#m457ad8da6c" x="466.681062" y="397.943875" style="stroke: #000000; stroke-width: 0.8"/>
      </g>
     </g>
     <g id="text_7">
      <!-- 3 -->
      <g transform="translate(464.181062 411.887625) scale(0.1 -0.1)">
       <use xlink:href="#TimesNewRomanPSMT-33"/>
      </g>
     </g>
    </g>
   </g>
   <g id="matplotlib.axis_2">
    <g id="ytick_1">
     <g id="line2d_8">
      <defs>
       <path id="m37bd2ba7da" d="M 0 0 
L -3.5 0 
" style="stroke: #000000; stroke-width: 0.8"/>
      </defs>
      <g>
       <use xlink:href="#m37bd2ba7da" x="21.239063" y="397.943875" style="stroke: #000000; stroke-width: 0.8"/>
      </g>
     </g>
     <g id="text_8">
      <!-- −3 -->
      <g transform="translate(3.6 401.41575) scale(0.1 -0.1)">
       <use xlink:href="#TimesNewRomanPSMT-2212"/>
       <use xlink:href="#TimesNewRomanPSMT-33" transform="translate(56.396484 0)"/>
      </g>
     </g>
    </g>
    <g id="ytick_2">
     <g id="line2d_9">
      <g>
       <use xlink:href="#m37bd2ba7da" x="21.239063" y="332.798542" style="stroke: #000000; stroke-width: 0.8"/>
      </g>
     </g>
     <g id="text_9">
      <!-- −2 -->
      <g transform="translate(3.6 336.270417) scale(0.1 -0.1)">
       <use xlink:href="#TimesNewRomanPSMT-2212"/>
       <use xlink:href="#TimesNewRomanPSMT-32" transform="translate(56.396484 0)"/>
      </g>
     </g>
    </g>
    <g id="ytick_3">
     <g id="line2d_10">
      <g>
       <use xlink:href="#m37bd2ba7da" x="21.239063" y="267.653208" style="stroke: #000000; stroke-width: 0.8"/>
      </g>
     </g>
     <g id="text_10">
      <!-- −1 -->
      <g transform="translate(3.6 271.125083) scale(0.1 -0.1)">
       <use xlink:href="#TimesNewRomanPSMT-2212"/>
       <use xlink:href="#TimesNewRomanPSMT-31" transform="translate(56.396484 0)"/>
      </g>
     </g>
    </g>
    <g id="ytick_4">
     <g id="line2d_11">
      <g>
       <use xlink:href="#m37bd2ba7da" x="21.239063" y="202.507875" style="stroke: #000000; stroke-width: 0.8"/>
      </g>
     </g>
     <g id="text_11">
      <!-- 0 -->
      <g transform="translate(9.239063 205.97975) scale(0.1 -0.1)">
       <use xlink:href="#TimesNewRomanPSMT-30"/>
      </g>
     </g>
    </g>
    <g id="ytick_5">
     <g id="line2d_12">
      <g>
       <use xlink:href="#m37bd2ba7da" x="21.239063" y="137.362542" style="stroke: #000000; stroke-width: 0.8"/>
      </g>
     </g>
     <g id="text_12">
      <!-- 1 -->
      <g transform="translate(9.239063 140.834417) scale(0.1 -0.1)">
       <use xlink:href="#TimesNewRomanPSMT-31"/>
      </g>
     </g>
    </g>
    <g id="ytick_6">
     <g id="line2d_13">
      <g>
       <use xlink:href="#m37bd2ba7da" x="21.239063" y="72.217208" style="stroke: #000000; stroke-width: 0.8"/>
      </g>
     </g>
     <g id="text_13">
      <!-- 2 -->
      <g transform="translate(9.239063 75.689083) scale(0.1 -0.1)">
       <use xlink:href="#TimesNewRomanPSMT-32"/>
      </g>
     </g>
    </g>
    <g id="ytick_7">
     <g id="line2d_14">
      <g>
       <use xlink:href="#m37bd2ba7da" x="21.239063" y="7.071875" style="stroke: #000000; stroke-width: 0.8"/>
      </g>
     </g>
     <g id="text_14">
      <!-- 3 -->
      <g transform="translate(9.239063 10.54375) scale(0.1 -0.1)">
       <use xlink:href="#TimesNewRomanPSMT-33"/>
      </g>
     </g>
    </g>
   </g>
   <g id="QuadContourSet_1">
    <path clip-path="url(#p6b74f3fd5b)" style="fill: none; stroke: #000080; stroke-opacity: 0.85"/>
    <path d="M 270.384588 292.860413 
L 277.934452 294.562443 
L 285.484317 295.703019 
L 293.034181 296.303321 
L 300.584046 296.333001 
L 308.13391 295.703704 
L 315.683774 294.253317 
L 322.633757 291.944689 
L 323.233639 291.736549 
L 330.783503 287.960901 
L 334.508572 285.319739 
L 338.333368 281.96351 
L 341.343264 278.69479 
L 345.646034 272.069841 
L 345.883232 271.543449 
L 348.51417 265.444892 
L 350.167047 258.819943 
L 350.884201 252.194994 
L 350.850378 245.570044 
L 350.166267 238.945095 
L 348.866453 232.320146 
L 346.926802 225.695197 
L 345.883232 223.001548 
L 344.596569 219.070248 
L 341.848272 212.445299 
L 338.333368 205.841968 
L 338.323267 205.82035 
L 334.764906 199.1954 
L 330.783503 193.268245 
L 330.356005 192.570451 
L 325.788312 185.945502 
L 323.233639 182.775589 
L 320.594922 179.320553 
L 315.683774 173.741684 
L 314.786912 172.695604 
L 308.489959 166.070655 
L 308.13391 165.718982 
L 301.706677 159.445706 
L 300.584046 158.421041 
L 294.2019 152.820756 
L 293.034181 151.835656 
L 285.885086 146.195807 
L 285.484317 145.883377 
L 277.934452 140.357848 
L 276.742327 139.570858 
L 270.384588 135.261363 
L 266.447192 132.945909 
L 262.834724 130.704203 
L 255.284859 126.696086 
L 254.489646 126.32096 
L 247.734995 122.827309 
L 240.18513 119.704874 
L 240.160494 119.696011 
L 232.635266 116.611708 
L 225.085401 114.200098 
L 220.605249 113.071061 
L 217.535537 112.155337 
L 209.985673 110.453307 
L 202.435808 109.312731 
L 194.885944 108.712429 
L 187.336079 108.682749 
L 179.786215 109.312046 
L 172.236351 110.762433 
L 165.286368 113.071061 
L 164.686486 113.279201 
L 157.136622 117.054849 
L 153.411553 119.696011 
L 149.586757 123.05224 
L 146.576861 126.32096 
L 142.274091 132.945909 
L 142.036893 133.472301 
L 139.405955 139.570858 
L 137.753078 146.195807 
L 137.035924 152.820756 
L 137.069747 159.445706 
L 137.753858 166.070655 
L 139.053672 172.695604 
L 140.993323 179.320553 
L 142.036893 182.014202 
L 143.323556 185.945502 
L 146.071853 192.570451 
L 149.586757 199.173782 
L 149.596858 199.1954 
L 153.155219 205.82035 
L 157.136622 211.747505 
L 157.56412 212.445299 
L 162.131813 219.070248 
L 164.686486 222.240161 
L 167.325203 225.695197 
L 172.236351 231.274066 
L 173.133213 232.320146 
L 179.430166 238.945095 
L 179.786215 239.296768 
L 186.213448 245.570044 
L 187.336079 246.594709 
L 193.718225 252.194994 
L 194.885944 253.180094 
L 202.035039 258.819943 
L 202.435808 259.132373 
L 209.985673 264.657902 
L 211.177798 265.444892 
L 217.535537 269.754387 
L 221.472933 272.069841 
L 225.085401 274.311547 
L 232.635266 278.319664 
L 233.430479 278.69479 
L 240.18513 282.188441 
L 247.734995 285.310876 
L 247.759631 285.319739 
L 255.284859 288.404042 
L 262.834724 290.815652 
L 267.314876 291.944689 
L 270.384588 292.860413 
z
" clip-path="url(#p6b74f3fd5b)" style="fill: none; stroke: #0010ff; stroke-opacity: 0.85"/>
    <path d="M 262.834724 274.170556 
L 270.384588 275.905988 
L 277.934452 277.013165 
L 285.484317 277.469376 
L 293.034181 277.179391 
L 300.584046 275.954753 
L 308.13391 273.474465 
L 310.909313 272.069841 
L 315.683774 269.135145 
L 319.889227 265.444892 
L 323.233639 261.255338 
L 324.834364 258.819943 
L 327.660927 252.194994 
L 329.056538 245.570044 
L 329.387007 238.945095 
L 328.867105 232.320146 
L 327.605354 225.695197 
L 325.627637 219.070248 
L 323.233639 213.25668 
L 322.933329 212.445299 
L 319.856785 205.82035 
L 315.964823 199.1954 
L 315.683774 198.779511 
L 311.725236 192.570451 
L 308.13391 187.862024 
L 306.715422 185.945502 
L 301.093825 179.320553 
L 300.584046 178.771453 
L 294.896754 172.695604 
L 293.034181 170.88549 
L 287.894795 166.070655 
L 285.484317 163.955478 
L 279.997278 159.445706 
L 277.934452 157.811312 
L 271.010348 152.820756 
L 270.384588 152.373429 
L 262.834724 147.44052 
L 260.650634 146.195807 
L 255.284859 143.044445 
L 248.208947 139.570858 
L 247.734995 139.32424 
L 240.18513 135.909073 
L 232.635266 133.209428 
L 231.710607 132.945909 
L 225.085401 130.845194 
L 217.535537 129.109762 
L 209.985673 128.002585 
L 202.435808 127.546374 
L 194.885944 127.836359 
L 187.336079 129.060997 
L 179.786215 131.541285 
L 177.010812 132.945909 
L 172.236351 135.880605 
L 168.030898 139.570858 
L 164.686486 143.760412 
L 163.085761 146.195807 
L 160.259198 152.820756 
L 158.863587 159.445706 
L 158.533118 166.070655 
L 159.05302 172.695604 
L 160.314771 179.320553 
L 162.292488 185.945502 
L 164.686486 191.75907 
L 164.986796 192.570451 
L 168.06334 199.1954 
L 171.955302 205.82035 
L 172.236351 206.236239 
L 176.194889 212.445299 
L 179.786215 217.153726 
L 181.204703 219.070248 
L 186.8263 225.695197 
L 187.336079 226.244297 
L 193.023371 232.320146 
L 194.885944 234.13026 
L 200.02533 238.945095 
L 202.435808 241.060272 
L 207.922847 245.570044 
L 209.985673 247.204438 
L 216.909777 252.194994 
L 217.535537 252.642321 
L 225.085401 257.57523 
L 227.269491 258.819943 
L 232.635266 261.971305 
L 239.711178 265.444892 
L 240.18513 265.69151 
L 247.734995 269.106677 
L 255.284859 271.806322 
L 256.209518 272.069841 
L 262.834724 274.170556 
z
" clip-path="url(#p6b74f3fd5b)" style="fill: none; stroke: #00a4ff; stroke-opacity: 0.85"/>
    <path d="M 255.284859 259.87989 
L 262.834724 261.938936 
L 270.384588 263.260867 
L 277.934452 263.796478 
L 285.484317 263.396215 
L 293.034181 261.772114 
L 299.809024 258.819943 
L 300.584046 258.388365 
L 307.642079 252.194994 
L 308.13391 251.514918 
L 311.498236 245.570044 
L 313.349079 238.945095 
L 313.805223 232.320146 
L 313.194836 225.695197 
L 311.688348 219.070248 
L 309.341838 212.445299 
L 308.13391 209.917117 
L 306.28786 205.82035 
L 302.523001 199.1954 
L 300.584046 196.365958 
L 298.035214 192.570451 
L 293.034181 186.290354 
L 292.756961 185.945502 
L 286.76227 179.320553 
L 285.484317 178.04886 
L 279.841638 172.695604 
L 277.934452 171.022063 
L 271.833824 166.070655 
L 270.384588 164.94926 
L 262.834724 159.688964 
L 262.441727 159.445706 
L 255.284859 155.057337 
L 250.959458 152.820756 
L 247.734995 151.119338 
L 240.18513 147.815702 
L 235.51641 146.195807 
L 232.635266 145.13586 
L 225.085401 143.076814 
L 217.535537 141.754883 
L 209.985673 141.219272 
L 202.435808 141.619535 
L 194.885944 143.243636 
L 188.111101 146.195807 
L 187.336079 146.627385 
L 180.278046 152.820756 
L 179.786215 153.500832 
L 176.421889 159.445706 
L 174.571046 166.070655 
L 174.114902 172.695604 
L 174.725289 179.320553 
L 176.231777 185.945502 
L 178.578287 192.570451 
L 179.786215 195.098633 
L 181.632265 199.1954 
L 185.397124 205.82035 
L 187.336079 208.649792 
L 189.884911 212.445299 
L 194.885944 218.725396 
L 195.163164 219.070248 
L 201.157855 225.695197 
L 202.435808 226.96689 
L 208.078487 232.320146 
L 209.985673 233.993687 
L 216.086301 238.945095 
L 217.535537 240.06649 
L 225.085401 245.326786 
L 225.478398 245.570044 
L 232.635266 249.958413 
L 236.960667 252.194994 
L 240.18513 253.896412 
L 247.734995 257.200048 
L 252.403715 258.819943 
L 255.284859 259.87989 
z
" clip-path="url(#p6b74f3fd5b)" style="fill: none; stroke: #40ffb7; stroke-opacity: 0.85"/>
    <path d="M 247.734995 246.825169 
L 255.284859 249.349604 
L 262.834724 251.048595 
L 270.384588 251.831143 
L 277.934452 251.458608 
L 285.484317 249.465283 
L 292.21646 245.570044 
L 293.034181 244.8525 
L 297.473238 238.945095 
L 299.744853 232.320146 
L 300.169397 225.695197 
L 299.277598 219.070248 
L 297.341409 212.445299 
L 294.464535 205.82035 
L 293.034181 203.325107 
L 290.680714 199.1954 
L 286.020281 192.570451 
L 285.484317 191.918566 
L 280.411428 185.945502 
L 277.934452 183.389998 
L 273.72771 179.320553 
L 270.384588 176.386988 
L 265.747004 172.695604 
L 262.834724 170.522076 
L 256.027754 166.070655 
L 255.284859 165.60035 
L 247.734995 161.510855 
L 243.028736 159.445706 
L 240.18513 158.190581 
L 232.635266 155.666146 
L 225.085401 153.967155 
L 217.535537 153.184607 
L 209.985673 153.557142 
L 202.435808 155.550467 
L 195.703665 159.445706 
L 194.885944 160.16325 
L 190.446887 166.070655 
L 188.175272 172.695604 
L 187.750728 179.320553 
L 188.642527 185.945502 
L 190.578716 192.570451 
L 193.45559 199.1954 
L 194.885944 201.690643 
L 197.239411 205.82035 
L 201.899844 212.445299 
L 202.435808 213.097184 
L 207.508697 219.070248 
L 209.985673 221.625752 
L 214.192415 225.695197 
L 217.535537 228.628762 
L 222.173121 232.320146 
L 225.085401 234.493674 
L 231.892371 238.945095 
L 232.635266 239.4154 
L 240.18513 243.504895 
L 244.891389 245.570044 
L 247.734995 246.825169 
z
" clip-path="url(#p6b74f3fd5b)" style="fill: none; stroke: #b7ff40; stroke-opacity: 0.85"/>
    <path d="M 262.834724 239.978522 
L 270.384588 239.687695 
L 273.155038 238.945095 
L 277.934452 237.075244 
L 283.353413 232.320146 
L 285.484317 228.126246 
L 286.330592 225.695197 
L 286.662021 219.070248 
L 285.484317 212.847365 
L 285.407029 212.445299 
L 282.736888 205.82035 
L 279.006672 199.1954 
L 277.934452 197.713176 
L 274.001844 192.570451 
L 270.384588 188.599995 
L 267.732665 185.945502 
L 262.834724 181.647595 
L 259.809634 179.320553 
L 255.284859 176.146438 
L 249.424154 172.695604 
L 247.734995 171.754739 
L 240.18513 168.481502 
L 232.635266 166.138474 
L 232.177067 166.070655 
L 225.085401 165.037228 
L 217.535537 165.328055 
L 214.765087 166.070655 
L 209.985673 167.940506 
L 204.566712 172.695604 
L 202.435808 176.889504 
L 201.589533 179.320553 
L 201.258104 185.945502 
L 202.435808 192.168385 
L 202.513096 192.570451 
L 205.183237 199.1954 
L 208.913453 205.82035 
L 209.985673 207.302574 
L 213.918281 212.445299 
L 217.535537 216.415755 
L 220.18746 219.070248 
L 225.085401 223.368155 
L 228.110491 225.695197 
L 232.635266 228.869312 
L 238.495971 232.320146 
L 240.18513 233.261011 
L 247.734995 236.534248 
L 255.284859 238.877276 
L 255.743058 238.945095 
L 262.834724 239.978522 
z
" clip-path="url(#p6b74f3fd5b)" style="fill: none; stroke: #ffb900; stroke-opacity: 0.85"/>
    <path d="M 255.284859 226.359805 
L 262.834724 225.85505 
L 263.22796 225.695197 
L 270.384588 219.41531 
L 270.566758 219.070248 
L 271.141983 212.445299 
L 270.384588 209.655047 
L 269.223022 205.82035 
L 265.376048 199.1954 
L 262.834724 196.014689 
L 259.643939 192.570451 
L 255.284859 188.745392 
L 251.359769 185.945502 
L 247.734995 183.715509 
L 240.18513 180.339818 
L 235.815067 179.320553 
L 232.635266 178.655945 
L 225.085401 179.1607 
L 224.692165 179.320553 
L 217.535537 185.60044 
L 217.353367 185.945502 
L 216.778142 192.570451 
L 217.535537 195.360703 
L 218.697103 199.1954 
L 222.544077 205.82035 
L 225.085401 209.001061 
L 228.276186 212.445299 
L 232.635266 216.270358 
L 236.560356 219.070248 
L 240.18513 221.300241 
L 247.734995 224.675932 
L 252.105058 225.695197 
L 255.284859 226.359805 
z
" clip-path="url(#p6b74f3fd5b)" style="fill: none; stroke: #ff3000; stroke-opacity: 0.85"/>
    <path clip-path="url(#p6b74f3fd5b)" style="fill: none; stroke: #800000; stroke-opacity: 0.85"/>
   </g>
   <g id="patch_3">
    <path d="M 21.239063 397.943875 
L 21.239063 7.071875 
" style="fill: none; stroke: #000000; stroke-width: 0.8; stroke-linejoin: miter; stroke-linecap: square"/>
   </g>
   <g id="patch_4">
    <path d="M 466.681062 397.943875 
L 466.681062 7.071875 
" style="fill: none; stroke: #000000; stroke-width: 0.8; stroke-linejoin: miter; stroke-linecap: square"/>
   </g>
   <g id="patch_5">
    <path d="M 21.239063 397.943875 
L 466.681062 397.943875 
" style="fill: none; stroke: #000000; stroke-width: 0.8; stroke-linejoin: miter; stroke-linecap: square"/>
   </g>
   <g id="patch_6">
    <path d="M 21.239063 7.071875 
L 466.681062 7.071875 
" style="fill: none; stroke: #000000; stroke-width: 0.8; stroke-linejoin: miter; stroke-linecap: square"/>
   </g>
  </g>
  <g id="axes_2">
   <g id="patch_7">
    <path d="M 497.639063 397.943875 
L 943.081063 397.943875 
L 943.081063 7.071875 
L 497.639063 7.071875 
z
" style="fill: #ffffff"/>
   </g>
   <g id="matplotlib.axis_3">
    <g id="xtick_8">
     <g id="line2d_15">
      <g>
       <use xlink:href="#m457ad8da6c" x="497.639063" y="397.943875" style="stroke: #000000; stroke-width: 0.8"/>
      </g>
     </g>
     <g id="text_15">
      <!-- −3 -->
      <g transform="translate(492.319531 411.887625) scale(0.1 -0.1)">
       <use xlink:href="#TimesNewRomanPSMT-2212"/>
       <use xlink:href="#TimesNewRomanPSMT-33" transform="translate(56.396484 0)"/>
      </g>
     </g>
    </g>
    <g id="xtick_9">
     <g id="line2d_16">
      <g>
       <use xlink:href="#m457ad8da6c" x="571.879396" y="397.943875" style="stroke: #000000; stroke-width: 0.8"/>
      </g>
     </g>
     <g id="text_16">
      <!-- −2 -->
      <g transform="translate(566.559865 411.887625) scale(0.1 -0.1)">
       <use xlink:href="#TimesNewRomanPSMT-2212"/>
       <use xlink:href="#TimesNewRomanPSMT-32" transform="translate(56.396484 0)"/>
      </g>
     </g>
    </g>
    <g id="xtick_10">
     <g id="line2d_17">
      <g>
       <use xlink:href="#m457ad8da6c" x="646.119729" y="397.943875" style="stroke: #000000; stroke-width: 0.8"/>
      </g>
     </g>
     <g id="text_17">
      <!-- −1 -->
      <g transform="translate(640.800198 411.887625) scale(0.1 -0.1)">
       <use xlink:href="#TimesNewRomanPSMT-2212"/>
       <use xlink:href="#TimesNewRomanPSMT-31" transform="translate(56.396484 0)"/>
      </g>
     </g>
    </g>
    <g id="xtick_11">
     <g id="line2d_18">
      <g>
       <use xlink:href="#m457ad8da6c" x="720.360063" y="397.943875" style="stroke: #000000; stroke-width: 0.8"/>
      </g>
     </g>
     <g id="text_18">
      <!-- 0 -->
      <g transform="translate(717.860063 411.887625) scale(0.1 -0.1)">
       <use xlink:href="#TimesNewRomanPSMT-30"/>
      </g>
     </g>
    </g>
    <g id="xtick_12">
     <g id="line2d_19">
      <g>
       <use xlink:href="#m457ad8da6c" x="794.600396" y="397.943875" style="stroke: #000000; stroke-width: 0.8"/>
      </g>
     </g>
     <g id="text_19">
      <!-- 1 -->
      <g transform="translate(792.100396 411.887625) scale(0.1 -0.1)">
       <use xlink:href="#TimesNewRomanPSMT-31"/>
      </g>
     </g>
    </g>
    <g id="xtick_13">
     <g id="line2d_20">
      <g>
       <use xlink:href="#m457ad8da6c" x="868.840729" y="397.943875" style="stroke: #000000; stroke-width: 0.8"/>
      </g>
     </g>
     <g id="text_20">
      <!-- 2 -->
      <g transform="translate(866.340729 411.887625) scale(0.1 -0.1)">
       <use xlink:href="#TimesNewRomanPSMT-32"/>
      </g>
     </g>
    </g>
    <g id="xtick_14">
     <g id="line2d_21">
      <g>
       <use xlink:href="#m457ad8da6c" x="943.081063" y="397.943875" style="stroke: #000000; stroke-width: 0.8"/>
      </g>
     </g>
     <g id="text_21">
      <!-- 3 -->
      <g transform="translate(940.581063 411.887625) scale(0.1 -0.1)">
       <use xlink:href="#TimesNewRomanPSMT-33"/>
      </g>
     </g>
    </g>
   </g>
   <g id="matplotlib.axis_4">
    <g id="ytick_8">
     <g id="line2d_22">
      <g>
       <use xlink:href="#m37bd2ba7da" x="497.639063" y="397.943875" style="stroke: #000000; stroke-width: 0.8"/>
      </g>
     </g>
     <g id="text_22">
      <!-- −3 -->
      <g transform="translate(480 401.41575) scale(0.1 -0.1)">
       <use xlink:href="#TimesNewRomanPSMT-2212"/>
       <use xlink:href="#TimesNewRomanPSMT-33" transform="translate(56.396484 0)"/>
      </g>
     </g>
    </g>
    <g id="ytick_9">
     <g id="line2d_23">
      <g>
       <use xlink:href="#m37bd2ba7da" x="497.639063" y="332.798542" style="stroke: #000000; stroke-width: 0.8"/>
      </g>
     </g>
     <g id="text_23">
      <!-- −2 -->
      <g transform="translate(480 336.270417) scale(0.1 -0.1)">
       <use xlink:href="#TimesNewRomanPSMT-2212"/>
       <use xlink:href="#TimesNewRomanPSMT-32" transform="translate(56.396484 0)"/>
      </g>
     </g>
    </g>
    <g id="ytick_10">
     <g id="line2d_24">
      <g>
       <use xlink:href="#m37bd2ba7da" x="497.639063" y="267.653208" style="stroke: #000000; stroke-width: 0.8"/>
      </g>
     </g>
     <g id="text_24">
      <!-- −1 -->
      <g transform="translate(480 271.125083) scale(0.1 -0.1)">
       <use xlink:href="#TimesNewRomanPSMT-2212"/>
       <use xlink:href="#TimesNewRomanPSMT-31" transform="translate(56.396484 0)"/>
      </g>
     </g>
    </g>
    <g id="ytick_11">
     <g id="line2d_25">
      <g>
       <use xlink:href="#m37bd2ba7da" x="497.639063" y="202.507875" style="stroke: #000000; stroke-width: 0.8"/>
      </g>
     </g>
     <g id="text_25">
      <!-- 0 -->
      <g transform="translate(485.639063 205.97975) scale(0.1 -0.1)">
       <use xlink:href="#TimesNewRomanPSMT-30"/>
      </g>
     </g>
    </g>
    <g id="ytick_12">
     <g id="line2d_26">
      <g>
       <use xlink:href="#m37bd2ba7da" x="497.639063" y="137.362542" style="stroke: #000000; stroke-width: 0.8"/>
      </g>
     </g>
     <g id="text_26">
      <!-- 1 -->
      <g transform="translate(485.639063 140.834417) scale(0.1 -0.1)">
       <use xlink:href="#TimesNewRomanPSMT-31"/>
      </g>
     </g>
    </g>
    <g id="ytick_13">
     <g id="line2d_27">
      <g>
       <use xlink:href="#m37bd2ba7da" x="497.639063" y="72.217208" style="stroke: #000000; stroke-width: 0.8"/>
      </g>
     </g>
     <g id="text_27">
      <!-- 2 -->
      <g transform="translate(485.639063 75.689083) scale(0.1 -0.1)">
       <use xlink:href="#TimesNewRomanPSMT-32"/>
      </g>
     </g>
    </g>
    <g id="ytick_14">
     <g id="line2d_28">
      <g>
       <use xlink:href="#m37bd2ba7da" x="497.639063" y="7.071875" style="stroke: #000000; stroke-width: 0.8"/>
      </g>
     </g>
     <g id="text_28">
      <!-- 3 -->
      <g transform="translate(485.639063 10.54375) scale(0.1 -0.1)">
       <use xlink:href="#TimesNewRomanPSMT-33"/>
      </g>
     </g>
    </g>
   </g>
   <g id="QuadContourSet_2">
    <path clip-path="url(#pc94bef1d91)" style="fill: none; stroke: #000080; stroke-opacity: 0.85"/>
    <path d="M 792.083774 292.505306 
L 799.633639 293.617875 
L 807.183503 293.563522 
L 813.906103 291.944689 
L 814.733368 291.668143 
L 821.968077 285.319739 
L 822.283232 284.593821 
L 824.128073 278.69479 
L 824.190014 272.069841 
L 822.922117 265.444892 
L 822.283232 263.673297 
L 820.86074 258.819943 
L 818.165836 252.194994 
L 814.733368 245.84659 
L 814.608246 245.570044 
L 811.004917 238.945095 
L 807.183503 233.375726 
L 806.559192 232.320146 
L 802.057609 225.695197 
L 799.633639 222.683641 
L 797.050426 219.070248 
L 792.083774 213.206812 
L 791.498167 212.445299 
L 785.871954 205.82035 
L 784.53391 204.400229 
L 779.945445 199.1954 
L 776.984046 196.183435 
L 773.58691 192.570451 
L 769.434181 188.521964 
L 766.850969 185.945502 
L 761.884317 181.303492 
L 759.76463 179.320553 
L 754.334452 174.454405 
L 752.330103 172.695604 
L 746.784588 167.930664 
L 744.524809 166.070655 
L 739.234724 161.712455 
L 736.29856 159.445706 
L 731.684859 155.801717 
L 727.567463 152.820756 
L 724.134995 150.22215 
L 718.203516 146.195807 
L 716.58513 145.021684 
L 709.035266 140.084724 
L 708.167437 139.570858 
L 701.485401 135.212658 
L 697.367539 132.945909 
L 693.935537 130.818894 
L 686.385673 126.868788 
L 685.182723 126.32096 
L 678.835808 122.967698 
L 671.285944 119.805804 
L 670.970789 119.696011 
L 663.736079 116.684045 
L 656.186215 114.319287 
L 650.65528 113.071061 
L 648.636351 112.510444 
L 641.086486 111.397875 
L 633.536622 111.452228 
L 626.814022 113.071061 
L 625.986757 113.347607 
L 618.752048 119.696011 
L 618.436893 120.421929 
L 616.592052 126.32096 
L 616.530111 132.945909 
L 617.798008 139.570858 
L 618.436893 141.342453 
L 619.859385 146.195807 
L 622.554289 152.820756 
L 625.986757 159.16916 
L 626.111879 159.445706 
L 629.715208 166.070655 
L 633.536622 171.640024 
L 634.160933 172.695604 
L 638.662516 179.320553 
L 641.086486 182.332109 
L 643.669699 185.945502 
L 648.636351 191.808938 
L 649.221958 192.570451 
L 654.848171 199.1954 
L 656.186215 200.615521 
L 660.77468 205.82035 
L 663.736079 208.832315 
L 667.133215 212.445299 
L 671.285944 216.493786 
L 673.869156 219.070248 
L 678.835808 223.712258 
L 680.955495 225.695197 
L 686.385673 230.561345 
L 688.390022 232.320146 
L 693.935537 237.085086 
L 696.195316 238.945095 
L 701.485401 243.303295 
L 704.421565 245.570044 
L 709.035266 249.214033 
L 713.152662 252.194994 
L 716.58513 254.7936 
L 722.516609 258.819943 
L 724.134995 259.994066 
L 731.684859 264.931026 
L 732.552688 265.444892 
L 739.234724 269.803092 
L 743.352586 272.069841 
L 746.784588 274.196856 
L 754.334452 278.146962 
L 755.537402 278.69479 
L 761.884317 282.048052 
L 769.434181 285.209946 
L 769.749336 285.319739 
L 776.984046 288.331705 
L 784.53391 290.696463 
L 790.064845 291.944689 
L 792.083774 292.505306 
z
" clip-path="url(#pc94bef1d91)" style="fill: none; stroke: #0010ff; stroke-opacity: 0.85"/>
    <path d="M 776.984046 273.302792 
L 784.53391 274.174323 
L 792.083774 273.400543 
L 795.158905 272.069841 
L 799.633639 268.143296 
L 801.150122 265.444892 
L 802.031929 258.819943 
L 801.038723 252.194994 
L 799.633639 248.182819 
L 798.84225 245.570044 
L 795.917203 238.945095 
L 792.132927 232.320146 
L 792.083774 232.248737 
L 788.049133 225.695197 
L 784.53391 220.960336 
L 783.250534 219.070248 
L 778.065159 212.445299 
L 776.984046 211.212348 
L 772.532608 205.82035 
L 769.434181 202.489177 
L 766.48501 199.1954 
L 761.884317 194.529836 
L 759.982528 192.570451 
L 754.334452 187.165667 
L 753.051077 185.945502 
L 746.784588 180.285701 
L 745.684695 179.320553 
L 739.234724 173.821756 
L 737.84421 172.695604 
L 731.684859 167.73946 
L 729.451923 166.070655 
L 724.134995 162.033581 
L 720.381371 159.445706 
L 716.58513 156.726859 
L 710.44035 152.820756 
L 709.035266 151.872088 
L 701.485401 147.32196 
L 699.331436 146.195807 
L 693.935537 143.111225 
L 686.467051 139.570858 
L 686.385673 139.527727 
L 678.835808 136.207053 
L 671.285944 133.640346 
L 668.308398 132.945909 
L 663.736079 131.712958 
L 656.186215 130.841427 
L 648.636351 131.615207 
L 645.56122 132.945909 
L 641.086486 136.872454 
L 639.570003 139.570858 
L 638.688196 146.195807 
L 639.681402 152.820756 
L 641.086486 156.832931 
L 641.877875 159.445706 
L 644.802922 166.070655 
L 648.587198 172.695604 
L 648.636351 172.767013 
L 652.670992 179.320553 
L 656.186215 184.055414 
L 657.469591 185.945502 
L 662.654966 192.570451 
L 663.736079 193.803402 
L 668.187517 199.1954 
L 671.285944 202.526573 
L 674.235115 205.82035 
L 678.835808 210.485914 
L 680.737597 212.445299 
L 686.385673 217.850083 
L 687.669048 219.070248 
L 693.935537 224.730049 
L 695.03543 225.695197 
L 701.485401 231.193994 
L 702.875915 232.320146 
L 709.035266 237.27629 
L 711.268202 238.945095 
L 716.58513 242.982169 
L 720.338754 245.570044 
L 724.134995 248.288891 
L 730.279775 252.194994 
L 731.684859 253.143662 
L 739.234724 257.69379 
L 741.388689 258.819943 
L 746.784588 261.904525 
L 754.253074 265.444892 
L 754.334452 265.488023 
L 761.884317 268.808697 
L 769.434181 271.375404 
L 772.411727 272.069841 
L 776.984046 273.302792 
z
" clip-path="url(#pc94bef1d91)" style="fill: none; stroke: #00a4ff; stroke-opacity: 0.85"/>
    <path d="M 769.434181 259.607765 
L 776.984046 259.327528 
L 778.363791 258.819943 
L 784.53391 253.40571 
L 785.112359 252.194994 
L 785.431721 245.570044 
L 784.53391 242.109276 
L 783.791183 238.945095 
L 781.003003 232.320146 
L 777.337127 225.695197 
L 776.984046 225.187612 
L 773.025374 219.070248 
L 769.434181 214.368451 
L 768.036073 212.445299 
L 762.522152 205.82035 
L 761.884317 205.129412 
L 756.524985 199.1954 
L 754.334452 196.98436 
L 749.958199 192.570451 
L 746.784588 189.584085 
L 742.825916 185.945502 
L 739.234724 182.794257 
L 735.088154 179.320553 
L 731.684859 176.535733 
L 726.654721 172.695604 
L 724.134995 170.773428 
L 717.37253 166.070655 
L 716.58513 165.510959 
L 709.035266 160.672535 
L 706.84362 159.445706 
L 701.485401 156.294461 
L 694.513987 152.820756 
L 693.935537 152.51093 
L 686.385673 149.294152 
L 678.835808 146.847544 
L 675.229873 146.195807 
L 671.285944 145.407985 
L 663.736079 145.688222 
L 662.356334 146.195807 
L 656.186215 151.61004 
L 655.607766 152.820756 
L 655.288404 159.445706 
L 656.186215 162.906474 
L 656.928942 166.070655 
L 659.717122 172.695604 
L 663.382998 179.320553 
L 663.736079 179.828138 
L 667.694751 185.945502 
L 671.285944 190.647299 
L 672.684052 192.570451 
L 678.197973 199.1954 
L 678.835808 199.886338 
L 684.19514 205.82035 
L 686.385673 208.03139 
L 690.761926 212.445299 
L 693.935537 215.431665 
L 697.894209 219.070248 
L 701.485401 222.221493 
L 705.631971 225.695197 
L 709.035266 228.480017 
L 714.065404 232.320146 
L 716.58513 234.242322 
L 723.347595 238.945095 
L 724.134995 239.504791 
L 731.684859 244.343215 
L 733.876505 245.570044 
L 739.234724 248.721289 
L 746.206138 252.194994 
L 746.784588 252.50482 
L 754.334452 255.721598 
L 761.884317 258.168206 
L 765.490252 258.819943 
L 769.434181 259.607765 
z
" clip-path="url(#pc94bef1d91)" style="fill: none; stroke: #40ffb7; stroke-opacity: 0.85"/>
    <path d="M 754.334452 246.006401 
L 761.884317 246.665826 
L 765.755858 245.570044 
L 769.434181 242.342343 
L 770.682946 238.945095 
L 769.931458 232.320146 
L 769.434181 231.152683 
L 767.225027 225.695197 
L 763.537482 219.070248 
L 761.884317 216.750454 
L 758.901985 212.445299 
L 754.334452 206.766375 
L 753.576815 205.82035 
L 747.557536 199.1954 
L 746.784588 198.422038 
L 740.817259 192.570451 
L 739.234724 191.119811 
L 733.338024 185.945502 
L 731.684859 184.556839 
L 725.016327 179.320553 
L 724.134995 178.642297 
L 716.58513 173.360424 
L 715.507029 172.695604 
L 709.035266 168.687629 
L 704.129063 166.070655 
L 701.485401 164.620015 
L 693.935537 161.384222 
L 687.716126 159.445706 
L 686.385673 159.009349 
L 678.835808 158.349924 
L 674.964267 159.445706 
L 671.285944 162.673407 
L 670.037179 166.070655 
L 670.788667 172.695604 
L 671.285944 173.863067 
L 673.495098 179.320553 
L 677.182643 185.945502 
L 678.835808 188.265296 
L 681.81814 192.570451 
L 686.385673 198.249375 
L 687.14331 199.1954 
L 693.162589 205.82035 
L 693.935537 206.593712 
L 699.902866 212.445299 
L 701.485401 213.895939 
L 707.382101 219.070248 
L 709.035266 220.458911 
L 715.703798 225.695197 
L 716.58513 226.373453 
L 724.134995 231.655326 
L 725.213096 232.320146 
L 731.684859 236.328121 
L 736.591062 238.945095 
L 739.234724 240.395735 
L 746.784588 243.631528 
L 753.003999 245.570044 
L 754.334452 246.006401 
z
" clip-path="url(#pc94bef1d91)" style="fill: none; stroke: #b7ff40; stroke-opacity: 0.85"/>
    <path d="M 746.784588 232.991146 
L 750.79591 232.320146 
L 754.334452 229.215102 
L 755.099131 225.695197 
L 754.334452 223.336132 
L 752.929933 219.070248 
L 749.089499 212.445299 
L 746.784588 209.380044 
L 744.036399 205.82035 
L 739.234724 200.427856 
L 738.076918 199.1954 
L 731.684859 193.108314 
L 731.071904 192.570451 
L 724.134995 186.961468 
L 722.730475 185.945502 
L 716.58513 181.732068 
L 712.528464 179.320553 
L 709.035266 177.298011 
L 701.485401 173.928059 
L 696.623953 172.695604 
L 693.935537 172.024604 
L 689.924215 172.695604 
L 686.385673 175.800648 
L 685.620994 179.320553 
L 686.385673 181.679618 
L 687.790192 185.945502 
L 691.630626 192.570451 
L 693.935537 195.635706 
L 696.683726 199.1954 
L 701.485401 204.587894 
L 702.643207 205.82035 
L 709.035266 211.907436 
L 709.648221 212.445299 
L 716.58513 218.054282 
L 717.98965 219.070248 
L 724.134995 223.283682 
L 728.191661 225.695197 
L 731.684859 227.717739 
L 739.234724 231.087691 
L 744.096172 232.320146 
L 746.784588 232.991146 
z
" clip-path="url(#pc94bef1d91)" style="fill: none; stroke: #ffb900; stroke-opacity: 0.85"/>
    <path d="M 724.134995 210.087858 
L 728.998294 205.82035 
L 724.134995 199.4529 
L 723.841546 199.1954 
L 716.58513 194.927892 
L 711.721831 199.1954 
L 716.58513 205.56285 
L 716.878579 205.82035 
L 724.134995 210.087858 
z
" clip-path="url(#pc94bef1d91)" style="fill: none; stroke: #ff3000; stroke-opacity: 0.85"/>
    <path clip-path="url(#pc94bef1d91)" style="fill: none; stroke: #800000; stroke-opacity: 0.85"/>
   </g>
   <g id="patch_8">
    <path d="M 497.639063 397.943875 
L 497.639063 7.071875 
" style="fill: none; stroke: #000000; stroke-width: 0.8; stroke-linejoin: miter; stroke-linecap: square"/>
   </g>
   <g id="patch_9">
    <path d="M 943.081063 397.943875 
L 943.081063 7.071875 
" style="fill: none; stroke: #000000; stroke-width: 0.8; stroke-linejoin: miter; stroke-linecap: square"/>
   </g>
   <g id="patch_10">
    <path d="M 497.639063 397.943875 
L 943.081063 397.943875 
" style="fill: none; stroke: #000000; stroke-width: 0.8; stroke-linejoin: miter; stroke-linecap: square"/>
   </g>
   <g id="patch_11">
    <path d="M 497.639063 7.071875 
L 943.081063 7.071875 
" style="fill: none; stroke: #000000; stroke-width: 0.8; stroke-linejoin: miter; stroke-linecap: square"/>
   </g>
  </g>
  <g id="axes_3">
   <g id="patch_12">
    <path d="M 974.039062 397.943875 
L 1419.481063 397.943875 
L 1419.481063 7.071875 
L 974.039062 7.071875 
z
" style="fill: #ffffff"/>
   </g>
   <g id="matplotlib.axis_5">
    <g id="xtick_15">
     <g id="line2d_29">
      <g>
       <use xlink:href="#m457ad8da6c" x="974.039062" y="397.943875" style="stroke: #000000; stroke-width: 0.8"/>
      </g>
     </g>
     <g id="text_29">
      <!-- −3 -->
      <g transform="translate(968.719531 411.887625) scale(0.1 -0.1)">
       <use xlink:href="#TimesNewRomanPSMT-2212"/>
       <use xlink:href="#TimesNewRomanPSMT-33" transform="translate(56.396484 0)"/>
      </g>
     </g>
    </g>
    <g id="xtick_16">
     <g id="line2d_30">
      <g>
       <use xlink:href="#m457ad8da6c" x="1048.279396" y="397.943875" style="stroke: #000000; stroke-width: 0.8"/>
      </g>
     </g>
     <g id="text_30">
      <!-- −2 -->
      <g transform="translate(1042.959865 411.887625) scale(0.1 -0.1)">
       <use xlink:href="#TimesNewRomanPSMT-2212"/>
       <use xlink:href="#TimesNewRomanPSMT-32" transform="translate(56.396484 0)"/>
      </g>
     </g>
    </g>
    <g id="xtick_17">
     <g id="line2d_31">
      <g>
       <use xlink:href="#m457ad8da6c" x="1122.519729" y="397.943875" style="stroke: #000000; stroke-width: 0.8"/>
      </g>
     </g>
     <g id="text_31">
      <!-- −1 -->
      <g transform="translate(1117.200198 411.887625) scale(0.1 -0.1)">
       <use xlink:href="#TimesNewRomanPSMT-2212"/>
       <use xlink:href="#TimesNewRomanPSMT-31" transform="translate(56.396484 0)"/>
      </g>
     </g>
    </g>
    <g id="xtick_18">
     <g id="line2d_32">
      <g>
       <use xlink:href="#m457ad8da6c" x="1196.760063" y="397.943875" style="stroke: #000000; stroke-width: 0.8"/>
      </g>
     </g>
     <g id="text_32">
      <!-- 0 -->
      <g transform="translate(1194.260063 411.887625) scale(0.1 -0.1)">
       <use xlink:href="#TimesNewRomanPSMT-30"/>
      </g>
     </g>
    </g>
    <g id="xtick_19">
     <g id="line2d_33">
      <g>
       <use xlink:href="#m457ad8da6c" x="1271.000396" y="397.943875" style="stroke: #000000; stroke-width: 0.8"/>
      </g>
     </g>
     <g id="text_33">
      <!-- 1 -->
      <g transform="translate(1268.500396 411.887625) scale(0.1 -0.1)">
       <use xlink:href="#TimesNewRomanPSMT-31"/>
      </g>
     </g>
    </g>
    <g id="xtick_20">
     <g id="line2d_34">
      <g>
       <use xlink:href="#m457ad8da6c" x="1345.240729" y="397.943875" style="stroke: #000000; stroke-width: 0.8"/>
      </g>
     </g>
     <g id="text_34">
      <!-- 2 -->
      <g transform="translate(1342.740729 411.887625) scale(0.1 -0.1)">
       <use xlink:href="#TimesNewRomanPSMT-32"/>
      </g>
     </g>
    </g>
    <g id="xtick_21">
     <g id="line2d_35">
      <g>
       <use xlink:href="#m457ad8da6c" x="1419.481063" y="397.943875" style="stroke: #000000; stroke-width: 0.8"/>
      </g>
     </g>
     <g id="text_35">
      <!-- 3 -->
      <g transform="translate(1416.981063 411.887625) scale(0.1 -0.1)">
       <use xlink:href="#TimesNewRomanPSMT-33"/>
      </g>
     </g>
    </g>
   </g>
   <g id="matplotlib.axis_6">
    <g id="ytick_15">
     <g id="line2d_36">
      <g>
       <use xlink:href="#m37bd2ba7da" x="974.039062" y="397.943875" style="stroke: #000000; stroke-width: 0.8"/>
      </g>
     </g>
     <g id="text_36">
      <!-- −3 -->
      <g transform="translate(956.4 401.41575) scale(0.1 -0.1)">
       <use xlink:href="#TimesNewRomanPSMT-2212"/>
       <use xlink:href="#TimesNewRomanPSMT-33" transform="translate(56.396484 0)"/>
      </g>
     </g>
    </g>
    <g id="ytick_16">
     <g id="line2d_37">
      <g>
       <use xlink:href="#m37bd2ba7da" x="974.039062" y="332.798542" style="stroke: #000000; stroke-width: 0.8"/>
      </g>
     </g>
     <g id="text_37">
      <!-- −2 -->
      <g transform="translate(956.4 336.270417) scale(0.1 -0.1)">
       <use xlink:href="#TimesNewRomanPSMT-2212"/>
       <use xlink:href="#TimesNewRomanPSMT-32" transform="translate(56.396484 0)"/>
      </g>
     </g>
    </g>
    <g id="ytick_17">
     <g id="line2d_38">
      <g>
       <use xlink:href="#m37bd2ba7da" x="974.039062" y="267.653208" style="stroke: #000000; stroke-width: 0.8"/>
      </g>
     </g>
     <g id="text_38">
      <!-- −1 -->
      <g transform="translate(956.4 271.125083) scale(0.1 -0.1)">
       <use xlink:href="#TimesNewRomanPSMT-2212"/>
       <use xlink:href="#TimesNewRomanPSMT-31" transform="translate(56.396484 0)"/>
      </g>
     </g>
    </g>
    <g id="ytick_18">
     <g id="line2d_39">
      <g>
       <use xlink:href="#m37bd2ba7da" x="974.039062" y="202.507875" style="stroke: #000000; stroke-width: 0.8"/>
      </g>
     </g>
     <g id="text_39">
      <!-- 0 -->
      <g transform="translate(962.039062 205.97975) scale(0.1 -0.1)">
       <use xlink:href="#TimesNewRomanPSMT-30"/>
      </g>
     </g>
    </g>
    <g id="ytick_19">
     <g id="line2d_40">
      <g>
       <use xlink:href="#m37bd2ba7da" x="974.039062" y="137.362542" style="stroke: #000000; stroke-width: 0.8"/>
      </g>
     </g>
     <g id="text_40">
      <!-- 1 -->
      <g transform="translate(962.039062 140.834417) scale(0.1 -0.1)">
       <use xlink:href="#TimesNewRomanPSMT-31"/>
      </g>
     </g>
    </g>
    <g id="ytick_20">
     <g id="line2d_41">
      <g>
       <use xlink:href="#m37bd2ba7da" x="974.039062" y="72.217208" style="stroke: #000000; stroke-width: 0.8"/>
      </g>
     </g>
     <g id="text_41">
      <!-- 2 -->
      <g transform="translate(962.039062 75.689083) scale(0.1 -0.1)">
       <use xlink:href="#TimesNewRomanPSMT-32"/>
      </g>
     </g>
    </g>
    <g id="ytick_21">
     <g id="line2d_42">
      <g>
       <use xlink:href="#m37bd2ba7da" x="974.039062" y="7.071875" style="stroke: #000000; stroke-width: 0.8"/>
      </g>
     </g>
     <g id="text_42">
      <!-- 3 -->
      <g transform="translate(962.039062 10.54375) scale(0.1 -0.1)">
       <use xlink:href="#TimesNewRomanPSMT-33"/>
      </g>
     </g>
    </g>
   </g>
   <g id="QuadContourSet_3">
    <path clip-path="url(#p0ed8ce8522)" style="fill: none; stroke: #000080; stroke-opacity: 0.85"/>
    <path d="M 1125.036351 365.556661 
L 1132.586215 368.297443 
L 1140.136079 369.670614 
L 1147.685944 369.940777 
L 1155.235808 369.259573 
L 1162.785673 367.689567 
L 1170.335537 365.214989 
L 1171.237851 364.819129 
L 1177.885401 362.138376 
L 1185.334389 358.19418 
L 1185.435266 358.144113 
L 1192.98513 353.63713 
L 1195.890748 351.569231 
L 1200.534995 348.353957 
L 1204.806699 344.944282 
L 1208.084859 342.348629 
L 1212.639274 338.319333 
L 1215.634724 335.63858 
L 1219.695789 331.694383 
L 1223.184588 328.199065 
L 1226.143233 325.069434 
L 1230.734452 319.960675 
L 1232.059282 318.444485 
L 1237.565627 311.819536 
L 1238.284317 310.918795 
L 1242.836768 305.194587 
L 1245.834181 301.063152 
L 1247.682486 298.569638 
L 1252.239652 291.944689 
L 1253.384046 290.171224 
L 1256.660407 285.319739 
L 1260.618806 278.69479 
L 1260.93391 278.144631 
L 1264.663009 272.069841 
L 1268.183211 265.444892 
L 1268.483774 264.852016 
L 1271.839566 258.819943 
L 1275.040614 252.194994 
L 1276.033639 249.974003 
L 1278.245611 245.570044 
L 1281.218409 238.945095 
L 1283.583503 232.919738 
L 1283.854109 232.320146 
L 1286.67015 225.695197 
L 1289.111152 219.070248 
L 1291.133368 212.803569 
L 1291.269469 212.445299 
L 1293.615994 205.82035 
L 1295.650993 199.1954 
L 1297.421463 192.570451 
L 1298.683232 187.20082 
L 1299.038945 185.945502 
L 1300.722402 179.320553 
L 1302.160987 172.695604 
L 1303.381262 166.070655 
L 1304.403013 159.445706 
L 1305.240072 152.820756 
L 1305.900838 146.195807 
L 1306.233096 141.67514 
L 1306.424358 139.570858 
L 1306.804443 132.945909 
L 1306.95803 126.32096 
L 1306.875437 119.696011 
L 1306.539974 113.071061 
L 1306.233096 109.687509 
L 1305.973444 106.446112 
L 1305.180132 99.821163 
L 1304.065344 93.196214 
L 1302.569946 86.571265 
L 1300.618249 79.946316 
L 1298.683232 74.722314 
L 1298.157918 73.321367 
L 1295.187842 66.696417 
L 1291.367018 60.071468 
L 1291.133368 59.713198 
L 1286.489121 53.446519 
L 1283.583503 50.175875 
L 1279.874718 46.82157 
L 1276.033639 43.73641 
L 1269.851345 40.196621 
L 1268.483774 39.459089 
L 1260.93391 36.718307 
L 1253.384046 35.345136 
L 1245.834181 35.074973 
L 1238.284317 35.756177 
L 1230.734452 37.326183 
L 1223.184588 39.800761 
L 1222.282274 40.196621 
L 1215.634724 42.877374 
L 1208.185736 46.82157 
L 1208.084859 46.871637 
L 1200.534995 51.37862 
L 1197.629377 53.446519 
L 1192.98513 56.661793 
L 1188.713426 60.071468 
L 1185.435266 62.667121 
L 1180.880851 66.696417 
L 1177.885401 69.37717 
L 1173.824336 73.321367 
L 1170.335537 76.816685 
L 1167.376892 79.946316 
L 1162.785673 85.055075 
L 1161.460843 86.571265 
L 1155.954498 93.196214 
L 1155.235808 94.096955 
L 1150.683357 99.821163 
L 1147.685944 103.952598 
L 1145.837639 106.446112 
L 1141.280473 113.071061 
L 1140.136079 114.844526 
L 1136.859718 119.696011 
L 1132.901319 126.32096 
L 1132.586215 126.871119 
L 1128.857116 132.945909 
L 1125.336914 139.570858 
L 1125.036351 140.163734 
L 1121.680559 146.195807 
L 1118.479511 152.820756 
L 1117.486486 155.041747 
L 1115.274514 159.445706 
L 1112.301716 166.070655 
L 1109.936622 172.096012 
L 1109.666016 172.695604 
L 1106.849975 179.320553 
L 1104.408973 185.945502 
L 1102.386757 192.212181 
L 1102.250656 192.570451 
L 1099.904131 199.1954 
L 1097.869132 205.82035 
L 1096.098662 212.445299 
L 1094.836893 217.81493 
L 1094.48118 219.070248 
L 1092.797723 225.695197 
L 1091.359138 232.320146 
L 1090.138863 238.945095 
L 1089.117112 245.570044 
L 1088.280053 252.194994 
L 1087.619287 258.819943 
L 1087.287029 263.34061 
L 1087.095767 265.444892 
L 1086.715682 272.069841 
L 1086.562095 278.69479 
L 1086.644688 285.319739 
L 1086.980151 291.944689 
L 1087.287029 295.328241 
L 1087.546681 298.569638 
L 1088.339993 305.194587 
L 1089.454781 311.819536 
L 1090.950179 318.444485 
L 1092.901876 325.069434 
L 1094.836893 330.293436 
L 1095.362207 331.694383 
L 1098.332283 338.319333 
L 1102.153107 344.944282 
L 1102.386757 345.302552 
L 1107.031004 351.569231 
L 1109.936622 354.839875 
L 1113.645407 358.19418 
L 1117.486486 361.27934 
L 1123.66878 364.819129 
L 1125.036351 365.556661 
z
" clip-path="url(#p0ed8ce8522)" style="fill: none; stroke: #0000ff; stroke-opacity: 0.85"/>
    <path d="M 1155.235808 338.491891 
L 1157.429691 338.319333 
L 1162.785673 337.942094 
L 1170.335537 336.340039 
L 1177.885401 333.710608 
L 1182.051896 331.694383 
L 1185.435266 330.146541 
L 1192.98513 325.681408 
L 1193.848498 325.069434 
L 1200.534995 320.420004 
L 1202.958247 318.444485 
L 1208.084859 314.263424 
L 1210.735347 311.819536 
L 1215.634724 307.210812 
L 1217.593505 305.194587 
L 1223.184588 299.207094 
L 1223.745184 298.569638 
L 1229.385751 291.944689 
L 1230.734452 290.276664 
L 1234.611695 285.319739 
L 1238.284317 280.227669 
L 1239.383347 278.69479 
L 1243.879809 272.069841 
L 1245.834181 268.94878 
L 1248.071348 265.444892 
L 1251.947641 258.819943 
L 1253.384046 256.168747 
L 1255.634761 252.194994 
L 1259.041312 245.570044 
L 1260.93391 241.513143 
L 1262.217532 238.945095 
L 1265.262394 232.320146 
L 1267.942208 225.695197 
L 1268.483774 224.247882 
L 1270.61029 219.070248 
L 1273.024792 212.445299 
L 1275.144539 205.82035 
L 1276.033639 202.725978 
L 1277.174222 199.1954 
L 1279.065998 192.570451 
L 1280.695608 185.945502 
L 1282.088975 179.320553 
L 1283.264546 172.695604 
L 1283.583503 170.520457 
L 1284.334736 166.070655 
L 1285.207258 159.445706 
L 1285.834218 152.820756 
L 1286.213136 146.195807 
L 1286.333899 139.570858 
L 1286.178119 132.945909 
L 1285.718064 126.32096 
L 1284.9151 119.696011 
L 1283.71751 113.071061 
L 1283.583503 112.501802 
L 1282.138138 106.446112 
L 1280.004732 99.821163 
L 1277.178427 93.196214 
L 1276.033639 90.98425 
L 1273.411772 86.571265 
L 1268.483774 80.065348 
L 1268.368993 79.946316 
L 1260.93391 73.422087 
L 1260.764576 73.321367 
L 1253.384046 69.347613 
L 1245.834181 67.202228 
L 1240.20552 66.696417 
L 1238.284317 66.523859 
L 1236.090434 66.696417 
L 1230.734452 67.073656 
L 1223.184588 68.675711 
L 1215.634724 71.305142 
L 1211.468229 73.321367 
L 1208.084859 74.869209 
L 1200.534995 79.334342 
L 1199.671627 79.946316 
L 1192.98513 84.595746 
L 1190.561878 86.571265 
L 1185.435266 90.752326 
L 1182.784778 93.196214 
L 1177.885401 97.804938 
L 1175.92662 99.821163 
L 1170.335537 105.808656 
L 1169.774941 106.446112 
L 1164.134374 113.071061 
L 1162.785673 114.739086 
L 1158.90843 119.696011 
L 1155.235808 124.788081 
L 1154.136778 126.32096 
L 1149.640316 132.945909 
L 1147.685944 136.06697 
L 1145.448777 139.570858 
L 1141.572484 146.195807 
L 1140.136079 148.847003 
L 1137.885364 152.820756 
L 1134.478813 159.445706 
L 1132.586215 163.502607 
L 1131.302593 166.070655 
L 1128.257731 172.695604 
L 1125.577917 179.320553 
L 1125.036351 180.767868 
L 1122.909835 185.945502 
L 1120.495333 192.570451 
L 1118.375586 199.1954 
L 1117.486486 202.289772 
L 1116.345903 205.82035 
L 1114.454127 212.445299 
L 1112.824517 219.070248 
L 1111.43115 225.695197 
L 1110.255579 232.320146 
L 1109.936622 234.495293 
L 1109.185389 238.945095 
L 1108.312867 245.570044 
L 1107.685907 252.194994 
L 1107.306989 258.819943 
L 1107.186226 265.444892 
L 1107.342006 272.069841 
L 1107.802061 278.69479 
L 1108.605025 285.319739 
L 1109.802615 291.944689 
L 1109.936622 292.513948 
L 1111.381987 298.569638 
L 1113.515393 305.194587 
L 1116.341698 311.819536 
L 1117.486486 314.0315 
L 1120.108353 318.444485 
L 1125.036351 324.950402 
L 1125.151132 325.069434 
L 1132.586215 331.593663 
L 1132.755549 331.694383 
L 1140.136079 335.668137 
L 1147.685944 337.813522 
L 1153.314605 338.319333 
L 1155.235808 338.491891 
z
" clip-path="url(#p0ed8ce8522)" style="fill: none; stroke: #0080ff; stroke-opacity: 0.85"/>
    <path d="M 1147.685944 313.011139 
L 1155.235808 315.500253 
L 1162.785673 316.173571 
L 1170.335537 315.38609 
L 1177.885401 313.319932 
L 1181.338291 311.819536 
L 1185.435266 310.124473 
L 1192.98513 305.842202 
L 1193.901866 305.194587 
L 1200.534995 300.565696 
L 1202.926749 298.569638 
L 1208.084859 294.232885 
L 1210.459198 291.944689 
L 1215.634724 286.820136 
L 1217.006195 285.319739 
L 1222.813895 278.69479 
L 1223.184588 278.257901 
L 1228.08149 272.069841 
L 1230.734452 268.477944 
L 1232.889904 265.444892 
L 1237.271196 258.819943 
L 1238.284317 257.194818 
L 1241.366511 252.194994 
L 1245.06937 245.570044 
L 1245.834181 244.108859 
L 1248.578983 238.945095 
L 1251.749164 232.320146 
L 1253.384046 228.570466 
L 1254.690723 225.695197 
L 1257.427631 219.070248 
L 1259.847531 212.445299 
L 1260.93391 209.134929 
L 1262.096016 205.82035 
L 1264.150869 199.1954 
L 1265.92578 192.570451 
L 1267.443997 185.945502 
L 1268.483774 180.549981 
L 1268.742964 179.320553 
L 1269.869518 172.695604 
L 1270.718902 166.070655 
L 1271.288378 159.445706 
L 1271.565968 152.820756 
L 1271.529541 146.195807 
L 1271.145345 139.570858 
L 1270.36585 132.945909 
L 1269.126719 126.32096 
L 1268.483774 123.822798 
L 1267.328067 119.696011 
L 1264.805275 113.071061 
L 1261.370899 106.446112 
L 1260.93391 105.746374 
L 1256.226905 99.821163 
L 1253.384046 96.945894 
L 1247.855898 93.196214 
L 1245.834181 92.004611 
L 1238.284317 89.515497 
L 1230.734452 88.842179 
L 1223.184588 89.62966 
L 1215.634724 91.695818 
L 1212.181834 93.196214 
L 1208.084859 94.891277 
L 1200.534995 99.173548 
L 1199.618259 99.821163 
L 1192.98513 104.450054 
L 1190.593376 106.446112 
L 1185.435266 110.782865 
L 1183.060927 113.071061 
L 1177.885401 118.195614 
L 1176.51393 119.696011 
L 1170.70623 126.32096 
L 1170.335537 126.757849 
L 1165.438635 132.945909 
L 1162.785673 136.537806 
L 1160.630221 139.570858 
L 1156.248929 146.195807 
L 1155.235808 147.820932 
L 1152.153614 152.820756 
L 1148.450755 159.445706 
L 1147.685944 160.906891 
L 1144.941142 166.070655 
L 1141.770961 172.695604 
L 1140.136079 176.445284 
L 1138.829402 179.320553 
L 1136.092494 185.945502 
L 1133.672594 192.570451 
L 1132.586215 195.880821 
L 1131.424109 199.1954 
L 1129.369256 205.82035 
L 1127.594345 212.445299 
L 1126.076128 219.070248 
L 1125.036351 224.465769 
L 1124.777161 225.695197 
L 1123.650607 232.320146 
L 1122.801223 238.945095 
L 1122.231747 245.570044 
L 1121.954157 252.194994 
L 1121.990584 258.819943 
L 1122.37478 265.444892 
L 1123.154275 272.069841 
L 1124.393406 278.69479 
L 1125.036351 281.192952 
L 1126.192058 285.319739 
L 1128.71485 291.944689 
L 1132.149226 298.569638 
L 1132.586215 299.269376 
L 1137.29322 305.194587 
L 1140.136079 308.069856 
L 1145.664227 311.819536 
L 1147.685944 313.011139 
z
" clip-path="url(#p0ed8ce8522)" style="fill: none; stroke: #16ffe1; stroke-opacity: 0.85"/>
    <path d="M 1155.235808 294.203923 
L 1162.785673 296.709658 
L 1170.335537 297.07942 
L 1177.885401 295.772617 
L 1185.435266 293.020617 
L 1187.40754 291.944689 
L 1192.98513 288.974124 
L 1198.178267 285.319739 
L 1200.534995 283.668394 
L 1206.29129 278.69479 
L 1208.084859 277.120947 
L 1213.00466 272.069841 
L 1215.634724 269.272821 
L 1218.846482 265.444892 
L 1223.184588 259.982404 
L 1224.039535 258.819943 
L 1228.661575 252.194994 
L 1230.734452 249.010241 
L 1232.87172 245.570044 
L 1236.67111 238.945095 
L 1238.284317 235.900203 
L 1240.147984 232.320146 
L 1243.289573 225.695197 
L 1245.834181 219.728247 
L 1246.11771 219.070248 
L 1248.709502 212.445299 
L 1250.985525 205.82035 
L 1252.974766 199.1954 
L 1253.384046 197.617332 
L 1254.737962 192.570451 
L 1256.212927 185.945502 
L 1257.388928 179.320553 
L 1258.262739 172.695604 
L 1258.819903 166.070655 
L 1259.033326 159.445706 
L 1258.861033 152.820756 
L 1258.242874 146.195807 
L 1257.09582 139.570858 
L 1255.307331 132.945909 
L 1253.384046 127.899028 
L 1252.642989 126.32096 
L 1248.512212 119.696011 
L 1245.834181 116.424188 
L 1241.684291 113.071061 
L 1238.284317 110.811827 
L 1230.734452 108.306092 
L 1223.184588 107.93633 
L 1215.634724 109.243133 
L 1208.084859 111.995133 
L 1206.112585 113.071061 
L 1200.534995 116.041626 
L 1195.341858 119.696011 
L 1192.98513 121.347356 
L 1187.228835 126.32096 
L 1185.435266 127.894803 
L 1180.515465 132.945909 
L 1177.885401 135.742929 
L 1174.673643 139.570858 
L 1170.335537 145.033346 
L 1169.48059 146.195807 
L 1164.85855 152.820756 
L 1162.785673 156.005509 
L 1160.648405 159.445706 
L 1156.849015 166.070655 
L 1155.235808 169.115547 
L 1153.372141 172.695604 
L 1150.230552 179.320553 
L 1147.685944 185.287503 
L 1147.402415 185.945502 
L 1144.810623 192.570451 
L 1142.5346 199.1954 
L 1140.545359 205.82035 
L 1140.136079 207.398418 
L 1138.782163 212.445299 
L 1137.307198 219.070248 
L 1136.131197 225.695197 
L 1135.257386 232.320146 
L 1134.700222 238.945095 
L 1134.486799 245.570044 
L 1134.659092 252.194994 
L 1135.277251 258.819943 
L 1136.424305 265.444892 
L 1138.212794 272.069841 
L 1140.136079 277.116722 
L 1140.877136 278.69479 
L 1145.007913 285.319739 
L 1147.685944 288.591562 
L 1151.835834 291.944689 
L 1155.235808 294.203923 
z
" clip-path="url(#p0ed8ce8522)" style="fill: none; stroke: #7dff7a; stroke-opacity: 0.85"/>
    <path d="M 1170.335537 279.062526 
L 1177.885401 278.896684 
L 1178.585009 278.69479 
L 1185.435266 276.784314 
L 1192.98513 273.03783 
L 1194.364963 272.069841 
L 1200.534995 267.73266 
L 1203.095015 265.444892 
L 1208.084859 260.887138 
L 1209.981734 258.819943 
L 1215.634724 252.396888 
L 1215.791201 252.194994 
L 1220.673429 245.570044 
L 1223.184588 241.934354 
L 1225.068771 238.945095 
L 1228.93237 232.320146 
L 1230.734452 228.965495 
L 1232.391759 225.695197 
L 1235.42945 219.070248 
L 1238.1503 212.445299 
L 1238.284317 212.076462 
L 1240.488139 205.82035 
L 1242.490195 199.1954 
L 1244.169125 192.570451 
L 1245.520889 185.945502 
L 1245.834181 183.829544 
L 1246.496387 179.320553 
L 1247.073548 172.695604 
L 1247.22421 166.070655 
L 1246.890817 159.445706 
L 1245.990658 152.820756 
L 1245.834181 152.12029 
L 1244.203366 146.195807 
L 1241.331922 139.570858 
L 1238.284317 134.699158 
L 1236.595947 132.945909 
L 1230.734452 128.343763 
L 1224.526537 126.32096 
L 1223.184588 125.953224 
L 1215.634724 126.119066 
L 1214.935116 126.32096 
L 1208.084859 128.231436 
L 1200.534995 131.97792 
L 1199.155162 132.945909 
L 1192.98513 137.28309 
L 1190.42511 139.570858 
L 1185.435266 144.128612 
L 1183.538391 146.195807 
L 1177.885401 152.618862 
L 1177.728924 152.820756 
L 1172.846696 159.445706 
L 1170.335537 163.081396 
L 1168.451354 166.070655 
L 1164.587755 172.695604 
L 1162.785673 176.050255 
L 1161.128366 179.320553 
L 1158.090675 185.945502 
L 1155.369825 192.570451 
L 1155.235808 192.939288 
L 1153.031986 199.1954 
L 1151.02993 205.82035 
L 1149.351 212.445299 
L 1147.999236 219.070248 
L 1147.685944 221.186206 
L 1147.023738 225.695197 
L 1146.446577 232.320146 
L 1146.295915 238.945095 
L 1146.629308 245.570044 
L 1147.529467 252.194994 
L 1147.685944 252.89546 
L 1149.316759 258.819943 
L 1152.188203 265.444892 
L 1155.235808 270.316592 
L 1156.924178 272.069841 
L 1162.785673 276.671987 
L 1168.993588 278.69479 
L 1170.335537 279.062526 
z
" clip-path="url(#p0ed8ce8522)" style="fill: none; stroke: #e4ff13; stroke-opacity: 0.85"/>
    <path d="M 1177.885401 260.584596 
L 1185.435266 259.715557 
L 1187.496822 258.819943 
L 1192.98513 256.449093 
L 1199.08658 252.194994 
L 1200.534995 251.170365 
L 1206.313057 245.570044 
L 1208.084859 243.792091 
L 1211.958329 238.945095 
L 1215.634724 234.0848 
L 1216.777289 232.320146 
L 1220.722282 225.695197 
L 1223.184588 221.189747 
L 1224.218649 219.070248 
L 1227.075477 212.445299 
L 1229.582848 205.82035 
L 1230.734452 202.211734 
L 1231.620243 199.1954 
L 1233.136932 192.570451 
L 1234.216627 185.945502 
L 1234.804221 179.320553 
L 1234.812244 172.695604 
L 1234.109361 166.070655 
L 1232.502465 159.445706 
L 1230.734452 155.087589 
L 1229.286038 152.820756 
L 1223.184588 146.662961 
L 1221.910763 146.195807 
L 1215.634724 144.431154 
L 1208.084859 145.300193 
L 1206.023303 146.195807 
L 1200.534995 148.566657 
L 1194.433545 152.820756 
L 1192.98513 153.845385 
L 1187.207068 159.445706 
L 1185.435266 161.223659 
L 1181.561796 166.070655 
L 1177.885401 170.93095 
L 1176.742836 172.695604 
L 1172.797843 179.320553 
L 1170.335537 183.826003 
L 1169.301476 185.945502 
L 1166.444648 192.570451 
L 1163.937277 199.1954 
L 1162.785673 202.804016 
L 1161.899882 205.82035 
L 1160.383193 212.445299 
L 1159.303498 219.070248 
L 1158.715904 225.695197 
L 1158.707881 232.320146 
L 1159.410764 238.945095 
L 1161.01766 245.570044 
L 1162.785673 249.928161 
L 1164.234087 252.194994 
L 1170.335537 258.352789 
L 1171.609362 258.819943 
L 1177.885401 260.584596 
z
" clip-path="url(#p0ed8ce8522)" style="fill: none; stroke: #ff9400; stroke-opacity: 0.85"/>
    <path d="M 1177.885401 234.170237 
L 1185.435266 237.965123 
L 1192.98513 236.138798 
L 1198.523343 232.320146 
L 1200.534995 230.88059 
L 1205.043296 225.695197 
L 1208.084859 221.985338 
L 1209.85582 219.070248 
L 1213.406013 212.445299 
L 1215.634724 207.670441 
L 1216.325164 205.82035 
L 1218.177956 199.1954 
L 1219.402069 192.570451 
L 1219.819154 185.945502 
L 1219.128587 179.320553 
L 1216.817445 172.695604 
L 1215.634724 170.845513 
L 1208.084859 167.050627 
L 1200.534995 168.876952 
L 1194.996782 172.695604 
L 1192.98513 174.13516 
L 1188.476829 179.320553 
L 1185.435266 183.030412 
L 1183.664305 185.945502 
L 1180.114112 192.570451 
L 1177.885401 197.345309 
L 1177.194961 199.1954 
L 1175.342169 205.82035 
L 1174.118056 212.445299 
L 1173.700971 219.070248 
L 1174.391538 225.695197 
L 1176.70268 232.320146 
L 1177.885401 234.170237 
z
" clip-path="url(#p0ed8ce8522)" style="fill: none; stroke: #ff1e00; stroke-opacity: 0.85"/>
    <path clip-path="url(#p0ed8ce8522)" style="fill: none; stroke: #800000; stroke-opacity: 0.85"/>
   </g>
   <g id="patch_13">
    <path d="M 974.039062 397.943875 
L 974.039062 7.071875 
" style="fill: none; stroke: #000000; stroke-width: 0.8; stroke-linejoin: miter; stroke-linecap: square"/>
   </g>
   <g id="patch_14">
    <path d="M 1419.481063 397.943875 
L 1419.481063 7.071875 
" style="fill: none; stroke: #000000; stroke-width: 0.8; stroke-linejoin: miter; stroke-linecap: square"/>
   </g>
   <g id="patch_15">
    <path d="M 974.039062 397.943875 
L 1419.481063 397.943875 
" style="fill: none; stroke: #000000; stroke-width: 0.8; stroke-linejoin: miter; stroke-linecap: square"/>
   </g>
   <g id="patch_16">
    <path d="M 974.039062 7.071875 
L 1419.481063 7.071875 
" style="fill: none; stroke: #000000; stroke-width: 0.8; stroke-linejoin: miter; stroke-linecap: square"/>
   </g>
  </g>
 </g>
 <defs>
  <clipPath id="p6b74f3fd5b">
   <rect x="21.239063" y="7.071875" width="445.442" height="390.872"/>
  </clipPath>
  <clipPath id="pc94bef1d91">
   <rect x="497.639063" y="7.071875" width="445.442" height="390.872"/>
  </clipPath>
  <clipPath id="p0ed8ce8522">
   <rect x="974.039062" y="7.071875" width="445.442" height="390.872"/>
  </clipPath>
 </defs>
</svg>
