<?xml version="1.0" encoding="utf-8" standalone="no"?>
<!DOCTYPE svg PUBLIC "-//W3C//DTD SVG 1.1//EN"
  "http://www.w3.org/Graphics/SVG/1.1/DTD/svg11.dtd">
<svg xmlns:xlink="http://www.w3.org/1999/xlink" width="1143.339062pt" height="359.394688pt" viewBox="0 0 1143.339062 359.394688" xmlns="http://www.w3.org/2000/svg" version="1.1">
 <metadata>
  <rdf:RDF xmlns:dc="http://purl.org/dc/elements/1.1/" xmlns:cc="http://creativecommons.org/ns#" xmlns:rdf="http://www.w3.org/1999/02/22-rdf-syntax-ns#">
   <cc:Work>
    <dc:type rdf:resource="http://purl.org/dc/dcmitype/StillImage"/>
    <dc:date>2026-03-20T00:34:23.795257</dc:date>
    <dc:format>image/svg+xml</dc:format>
    <dc:creator>
     <cc:Agent>
      <dc:title>Matplotlib v3.10.7, https://matplotlib.org/</dc:title>
     </cc:Agent>
    </dc:creator>
   </cc:Work>
  </rdf:RDF>
 </metadata>
 <defs>
  <style type="text/css">*{stroke-linejoin: round; stroke-linecap: butt}</style>
 </defs>
 <g id="figure_1">
  <g id="patch_1">
   <path d="M 0 359.394688 
L 1143.339062 359.394688 
L 1143.339062 0 
L 0 0 
L 0 359.394688 
z
" style="fill: none"/>
  </g>
  <g id="axes_1">
   <g id="patch_2">
    <path d="M 21.239062 339.711875 
L 349.474357 339.711875 
L 349.474357 7.071875 
L 21.239062 7.071875 
L 21.239062 339.711875 
z
" style="fill: none"/>
   </g>
   <g id="matplotlib.axis_1">
    <g id="xtick_1">
     <g id="line2d_1">
      <defs>
       <path id="m8aa3ae9f3e" d="M 0 0 
L 0 3.5 
" style="stroke: #7f7f7f; stroke-width: 0.8"/>
      </defs>
      <g>
       <use xlink:href="#m8aa3ae9f3e" x="21.239062" y="339.711875" style="fill: #7f7f7f; stroke: #7f7f7f; stroke-width: 0.8"/>
      </g>
     </g>
     <g id="text_1">
      <!-- −3 -->
      <g style="fill: #7f7f7f" transform="translate(15.919531 353.655625) scale(0.1 -0.1)">
       <defs>
        <path id="TimesNewRomanPSMT-2212" d="M 3484 2000 
L 116 2000 
L 116 2256 
L 3484 2256 
L 3484 2000 
z
" transform="scale(0.015625)"/>
        <path id="TimesNewRomanPSMT-33" d="M 325 3431 
Q 506 3859 782 4092 
Q 1059 4325 1472 4325 
Q 1981 4325 2253 3994 
Q 2459 3747 2459 3466 
Q 2459 3003 1878 2509 
Q 2269 2356 2469 2072 
Q 2669 1788 2669 1403 
Q 2669 853 2319 450 
Q 1863 -75 997 -75 
Q 569 -75 414 31 
Q 259 138 259 259 
Q 259 350 332 419 
Q 406 488 509 488 
Q 588 488 669 463 
Q 722 447 909 348 
Q 1097 250 1169 231 
Q 1284 197 1416 197 
Q 1734 197 1970 444 
Q 2206 691 2206 1028 
Q 2206 1275 2097 1509 
Q 2016 1684 1919 1775 
Q 1784 1900 1550 2001 
Q 1316 2103 1072 2103 
L 972 2103 
L 972 2197 
Q 1219 2228 1467 2375 
Q 1716 2522 1828 2728 
Q 1941 2934 1941 3181 
Q 1941 3503 1739 3701 
Q 1538 3900 1238 3900 
Q 753 3900 428 3381 
L 325 3431 
z
" transform="scale(0.015625)"/>
       </defs>
       <use xlink:href="#TimesNewRomanPSMT-2212"/>
       <use xlink:href="#TimesNewRomanPSMT-33" transform="translate(56.396484 0)"/>
      </g>
     </g>
    </g>
    <g id="xtick_2">
     <g id="line2d_2">
      <g>
       <use xlink:href="#m8aa3ae9f3e" x="75.944945" y="339.711875" style="fill: #7f7f7f; stroke: #7f7f7f; stroke-width: 0.8"/>
      </g>
     </g>
     <g id="text_2">
      <!-- −2 -->
      <g style="fill: #7f7f7f" transform="translate(70.625414 353.655625) scale(0.1 -0.1)">
       <defs>
        <path id="TimesNewRomanPSMT-32" d="M 2934 816 
L 2638 0 
L 138 0 
L 138 116 
Q 1241 1122 1691 1759 
Q 2141 2397 2141 2925 
Q 2141 3328 1894 3587 
Q 1647 3847 1303 3847 
Q 991 3847 742 3664 
Q 494 3481 375 3128 
L 259 3128 
Q 338 3706 661 4015 
Q 984 4325 1469 4325 
Q 1984 4325 2329 3994 
Q 2675 3663 2675 3213 
Q 2675 2891 2525 2569 
Q 2294 2063 1775 1497 
Q 997 647 803 472 
L 1909 472 
Q 2247 472 2383 497 
Q 2519 522 2628 598 
Q 2738 675 2819 816 
L 2934 816 
z
" transform="scale(0.015625)"/>
       </defs>
       <use xlink:href="#TimesNewRomanPSMT-2212"/>
       <use xlink:href="#TimesNewRomanPSMT-32" transform="translate(56.396484 0)"/>
      </g>
     </g>
    </g>
    <g id="xtick_3">
     <g id="line2d_3">
      <g>
       <use xlink:href="#m8aa3ae9f3e" x="130.650827" y="339.711875" style="fill: #7f7f7f; stroke: #7f7f7f; stroke-width: 0.8"/>
      </g>
     </g>
     <g id="text_3">
      <!-- −1 -->
      <g style="fill: #7f7f7f" transform="translate(125.331296 353.655625) scale(0.1 -0.1)">
       <defs>
        <path id="TimesNewRomanPSMT-31" d="M 750 3822 
L 1781 4325 
L 1884 4325 
L 1884 747 
Q 1884 391 1914 303 
Q 1944 216 2037 169 
Q 2131 122 2419 116 
L 2419 0 
L 825 0 
L 825 116 
Q 1125 122 1212 167 
Q 1300 213 1334 289 
Q 1369 366 1369 747 
L 1369 3034 
Q 1369 3497 1338 3628 
Q 1316 3728 1258 3775 
Q 1200 3822 1119 3822 
Q 1003 3822 797 3725 
L 750 3822 
z
" transform="scale(0.015625)"/>
       </defs>
       <use xlink:href="#TimesNewRomanPSMT-2212"/>
       <use xlink:href="#TimesNewRomanPSMT-31" transform="translate(56.396484 0)"/>
      </g>
     </g>
    </g>
    <g id="xtick_4">
     <g id="line2d_4">
      <g>
       <use xlink:href="#m8aa3ae9f3e" x="185.35671" y="339.711875" style="fill: #7f7f7f; stroke: #7f7f7f; stroke-width: 0.8"/>
      </g>
     </g>
     <g id="text_4">
      <!-- 0 -->
      <g style="fill: #7f7f7f" transform="translate(182.85671 353.655625) scale(0.1 -0.1)">
       <defs>
        <path id="TimesNewRomanPSMT-30" d="M 231 2094 
Q 231 2819 450 3342 
Q 669 3866 1031 4122 
Q 1313 4325 1613 4325 
Q 2100 4325 2488 3828 
Q 2972 3213 2972 2159 
Q 2972 1422 2759 906 
Q 2547 391 2217 158 
Q 1888 -75 1581 -75 
Q 975 -75 572 641 
Q 231 1244 231 2094 
z
M 844 2016 
Q 844 1141 1059 588 
Q 1238 122 1591 122 
Q 1759 122 1940 273 
Q 2122 425 2216 781 
Q 2359 1319 2359 2297 
Q 2359 3022 2209 3506 
Q 2097 3866 1919 4016 
Q 1791 4119 1609 4119 
Q 1397 4119 1231 3928 
Q 1006 3669 925 3112 
Q 844 2556 844 2016 
z
" transform="scale(0.015625)"/>
       </defs>
       <use xlink:href="#TimesNewRomanPSMT-30"/>
      </g>
     </g>
    </g>
    <g id="xtick_5">
     <g id="line2d_5">
      <g>
       <use xlink:href="#m8aa3ae9f3e" x="240.062592" y="339.711875" style="fill: #7f7f7f; stroke: #7f7f7f; stroke-width: 0.8"/>
      </g>
     </g>
     <g id="text_5">
      <!-- 1 -->
      <g style="fill: #7f7f7f" transform="translate(237.562592 353.655625) scale(0.1 -0.1)">
       <use xlink:href="#TimesNewRomanPSMT-31"/>
      </g>
     </g>
    </g>
    <g id="xtick_6">
     <g id="line2d_6">
      <g>
       <use xlink:href="#m8aa3ae9f3e" x="294.768474" y="339.711875" style="fill: #7f7f7f; stroke: #7f7f7f; stroke-width: 0.8"/>
      </g>
     </g>
     <g id="text_6">
      <!-- 2 -->
      <g style="fill: #7f7f7f" transform="translate(292.268474 353.655625) scale(0.1 -0.1)">
       <use xlink:href="#TimesNewRomanPSMT-32"/>
      </g>
     </g>
    </g>
    <g id="xtick_7">
     <g id="line2d_7">
      <g>
       <use xlink:href="#m8aa3ae9f3e" x="349.474357" y="339.711875" style="fill: #7f7f7f; stroke: #7f7f7f; stroke-width: 0.8"/>
      </g>
     </g>
     <g id="text_7">
      <!-- 3 -->
      <g style="fill: #7f7f7f" transform="translate(346.974357 353.655625) scale(0.1 -0.1)">
       <use xlink:href="#TimesNewRomanPSMT-33"/>
      </g>
     </g>
    </g>
   </g>
   <g id="matplotlib.axis_2">
    <g id="ytick_1">
     <g id="line2d_8">
      <defs>
       <path id="m1c2f91418f" d="M 0 0 
L -3.5 0 
" style="stroke: #7f7f7f; stroke-width: 0.8"/>
      </defs>
      <g>
       <use xlink:href="#m1c2f91418f" x="21.239062" y="339.711875" style="fill: #7f7f7f; stroke: #7f7f7f; stroke-width: 0.8"/>
      </g>
     </g>
     <g id="text_8">
      <!-- −3 -->
      <g style="fill: #7f7f7f" transform="translate(3.6 343.18375) scale(0.1 -0.1)">
       <use xlink:href="#TimesNewRomanPSMT-2212"/>
       <use xlink:href="#TimesNewRomanPSMT-33" transform="translate(56.396484 0)"/>
      </g>
     </g>
    </g>
    <g id="ytick_2">
     <g id="line2d_9">
      <g>
       <use xlink:href="#m1c2f91418f" x="21.239062" y="284.271875" style="fill: #7f7f7f; stroke: #7f7f7f; stroke-width: 0.8"/>
      </g>
     </g>
     <g id="text_9">
      <!-- −2 -->
      <g style="fill: #7f7f7f" transform="translate(3.6 287.74375) scale(0.1 -0.1)">
       <use xlink:href="#TimesNewRomanPSMT-2212"/>
       <use xlink:href="#TimesNewRomanPSMT-32" transform="translate(56.396484 0)"/>
      </g>
     </g>
    </g>
    <g id="ytick_3">
     <g id="line2d_10">
      <g>
       <use xlink:href="#m1c2f91418f" x="21.239062" y="228.831875" style="fill: #7f7f7f; stroke: #7f7f7f; stroke-width: 0.8"/>
      </g>
     </g>
     <g id="text_10">
      <!-- −1 -->
      <g style="fill: #7f7f7f" transform="translate(3.6 232.30375) scale(0.1 -0.1)">
       <use xlink:href="#TimesNewRomanPSMT-2212"/>
       <use xlink:href="#TimesNewRomanPSMT-31" transform="translate(56.396484 0)"/>
      </g>
     </g>
    </g>
    <g id="ytick_4">
     <g id="line2d_11">
      <g>
       <use xlink:href="#m1c2f91418f" x="21.239062" y="173.391875" style="fill: #7f7f7f; stroke: #7f7f7f; stroke-width: 0.8"/>
      </g>
     </g>
     <g id="text_11">
      <!-- 0 -->
      <g style="fill: #7f7f7f" transform="translate(9.239062 176.86375) scale(0.1 -0.1)">
       <use xlink:href="#TimesNewRomanPSMT-30"/>
      </g>
     </g>
    </g>
    <g id="ytick_5">
     <g id="line2d_12">
      <g>
       <use xlink:href="#m1c2f91418f" x="21.239062" y="117.951875" style="fill: #7f7f7f; stroke: #7f7f7f; stroke-width: 0.8"/>
      </g>
     </g>
     <g id="text_12">
      <!-- 1 -->
      <g style="fill: #7f7f7f" transform="translate(9.239062 121.42375) scale(0.1 -0.1)">
       <use xlink:href="#TimesNewRomanPSMT-31"/>
      </g>
     </g>
    </g>
    <g id="ytick_6">
     <g id="line2d_13">
      <g>
       <use xlink:href="#m1c2f91418f" x="21.239062" y="62.511875" style="fill: #7f7f7f; stroke: #7f7f7f; stroke-width: 0.8"/>
      </g>
     </g>
     <g id="text_13">
      <!-- 2 -->
      <g style="fill: #7f7f7f" transform="translate(9.239062 65.98375) scale(0.1 -0.1)">
       <use xlink:href="#TimesNewRomanPSMT-32"/>
      </g>
     </g>
    </g>
    <g id="ytick_7">
     <g id="line2d_14">
      <g>
       <use xlink:href="#m1c2f91418f" x="21.239062" y="7.071875" style="fill: #7f7f7f; stroke: #7f7f7f; stroke-width: 0.8"/>
      </g>
     </g>
     <g id="text_14">
      <!-- 3 -->
      <g style="fill: #7f7f7f" transform="translate(9.239062 10.54375) scale(0.1 -0.1)">
       <use xlink:href="#TimesNewRomanPSMT-33"/>
      </g>
     </g>
    </g>
   </g>
   <g id="QuadContourSet_1">
    <path clip-path="url(#p6c9cdac866)" style="fill: none; stroke: #0d0887; stroke-opacity: 0.85"/>
    <path d="M 204.828295 250.283718 
L 210.391605 251.732179 
L 215.954915 252.702833 
L 221.518225 253.213702 
L 227.081535 253.23896 
L 232.644845 252.703416 
L 238.208155 251.469107 
L 243.329427 249.504417 
L 243.771465 249.327286 
L 249.334775 246.114133 
L 252.079687 243.866451 
L 254.898085 241.010232 
L 257.116004 238.228485 
L 260.28661 232.590519 
L 260.461396 232.142549 
L 262.400069 226.952553 
L 263.618034 221.314587 
L 264.146487 215.676621 
L 264.121563 210.038655 
L 263.617459 204.400689 
L 262.659658 198.762722 
L 261.230377 193.124756 
L 260.461396 190.832407 
L 259.513285 187.48679 
L 257.488132 181.848824 
L 254.898085 176.229255 
L 254.890643 176.210858 
L 252.268573 170.572892 
L 249.334775 165.528763 
L 249.019762 164.934926 
L 245.653941 159.29696 
L 243.771465 156.599299 
L 241.827059 153.658994 
L 238.208155 148.911263 
L 237.54728 148.021028 
L 232.907209 142.383061 
L 232.644845 142.083781 
L 227.908774 136.745095 
L 227.081535 135.873085 
L 222.378688 131.107129 
L 221.518225 130.268789 
L 216.250232 125.469163 
L 215.954915 125.203279 
L 210.391605 120.500941 
L 209.513157 119.831197 
L 204.828295 116.16373 
L 201.926924 114.193231 
L 199.264985 112.285494 
L 193.701675 108.874505 
L 193.115701 108.555265 
L 188.138365 105.582097 
L 182.575055 102.924842 
L 182.556901 102.917299 
L 177.011744 100.292495 
L 171.448434 98.240166 
L 168.147119 97.279333 
L 165.885124 96.500032 
L 160.321814 95.051571 
L 154.758504 94.080917 
L 149.195194 93.570048 
L 143.631884 93.54479 
L 138.068574 94.080334 
L 132.505264 95.314643 
L 127.383992 97.279333 
L 126.941954 97.456464 
L 121.378644 100.669617 
L 118.633732 102.917299 
L 115.815334 105.773518 
L 113.597415 108.555265 
L 110.426809 114.193231 
L 110.252024 114.641201 
L 108.31335 119.831197 
L 107.095385 125.469163 
L 106.566932 131.107129 
L 106.591856 136.745095 
L 107.09596 142.383061 
L 108.053761 148.021028 
L 109.483043 153.658994 
L 110.252024 155.951343 
L 111.200134 159.29696 
L 113.225287 164.934926 
L 115.815334 170.554495 
L 115.822777 170.572892 
L 118.444846 176.210858 
L 121.378644 181.254987 
L 121.693657 181.848824 
L 125.059478 187.48679 
L 126.941954 190.184451 
L 128.88636 193.124756 
L 132.505264 197.872487 
L 133.166139 198.762722 
L 137.80621 204.400689 
L 138.068574 204.699969 
L 142.804645 210.038655 
L 143.631884 210.910665 
L 148.334731 215.676621 
L 149.195194 216.514961 
L 154.463187 221.314587 
L 154.758504 221.580471 
L 160.321814 226.282809 
L 161.200262 226.952553 
L 165.885124 230.62002 
L 168.786495 232.590519 
L 171.448434 234.498256 
L 177.011744 237.909245 
L 177.597718 238.228485 
L 182.575055 241.201653 
L 188.138365 243.858908 
L 188.156518 243.866451 
L 193.701675 246.491255 
L 199.264985 248.543584 
L 202.5663 249.504417 
L 204.828295 250.283718 
z
" clip-path="url(#p6c9cdac866)" style="fill: none; stroke: #5302a3; stroke-opacity: 0.85"/>
    <path d="M 199.264985 234.37827 
L 204.828295 235.855158 
L 210.391605 236.797388 
L 215.954915 237.185633 
L 221.518225 236.93885 
L 227.081535 235.896658 
L 232.644845 233.785883 
L 234.689971 232.590519 
L 238.208155 230.093033 
L 241.30705 226.952553 
L 243.771465 223.387157 
L 244.951 221.314587 
L 247.033825 215.676621 
L 248.062217 210.038655 
L 248.305732 204.400689 
L 247.922628 198.762722 
L 246.992875 193.124756 
L 245.535544 187.48679 
L 243.771465 182.539326 
L 243.550175 181.848824 
L 241.283144 176.210858 
L 238.415253 170.572892 
L 238.208155 170.218962 
L 235.291206 164.934926 
L 232.644845 160.927959 
L 231.599596 159.29696 
L 227.457179 153.658994 
L 227.081535 153.191698 
L 222.89071 148.021028 
L 221.518225 146.480584 
L 217.731137 142.383061 
L 215.954915 140.583003 
L 211.91165 136.745095 
L 210.391605 135.354193 
L 205.289402 131.107129 
L 204.828295 130.726444 
L 199.264985 126.528439 
L 197.655583 125.469163 
L 193.701675 122.78729 
L 188.487608 119.831197 
L 188.138365 119.62132 
L 182.575055 116.714943 
L 177.011744 114.417491 
L 176.330386 114.193231 
L 171.448434 112.40548 
L 165.885124 110.928592 
L 160.321814 109.986362 
L 154.758504 109.598117 
L 149.195194 109.8449 
L 143.631884 110.887092 
L 138.068574 112.997867 
L 136.023448 114.193231 
L 132.505264 116.690717 
L 129.406369 119.831197 
L 126.941954 123.396593 
L 125.762419 125.469163 
L 123.679594 131.107129 
L 122.651202 136.745095 
L 122.407687 142.383061 
L 122.790791 148.021028 
L 123.720544 153.658994 
L 125.177875 159.29696 
L 126.941954 164.244424 
L 127.163244 164.934926 
L 129.430275 170.572892 
L 132.298166 176.210858 
L 132.505264 176.564788 
L 135.422213 181.848824 
L 138.068574 185.855791 
L 139.113823 187.48679 
L 143.25624 193.124756 
L 143.631884 193.592052 
L 147.82271 198.762722 
L 149.195194 200.303166 
L 152.982282 204.400689 
L 154.758504 206.200747 
L 158.801769 210.038655 
L 160.321814 211.429557 
L 165.424017 215.676621 
L 165.885124 216.057306 
L 171.448434 220.255311 
L 173.057837 221.314587 
L 177.011744 223.99646 
L 182.225811 226.952553 
L 182.575055 227.16243 
L 188.138365 230.068807 
L 193.701675 232.366259 
L 194.383033 232.590519 
L 199.264985 234.37827 
z
" clip-path="url(#p6c9cdac866)" style="fill: none; stroke: #8b0aa5; stroke-opacity: 0.85"/>
    <path d="M 193.701675 222.216624 
L 199.264985 223.968913 
L 204.828295 225.093904 
L 210.391605 225.549719 
L 215.954915 225.209087 
L 221.518225 223.826944 
L 226.510441 221.314587 
L 227.081535 220.947305 
L 232.282427 215.676621 
L 232.644845 215.097863 
L 235.123935 210.038655 
L 236.487776 204.400689 
L 236.823897 198.762722 
L 236.374117 193.124756 
L 235.264024 187.48679 
L 233.534937 181.848824 
L 232.644845 179.69729 
L 231.284536 176.210858 
L 228.510304 170.572892 
L 227.081535 168.164979 
L 225.203363 164.934926 
L 221.518225 159.590435 
L 221.313948 159.29696 
L 216.896608 153.658994 
L 215.954915 152.576757 
L 211.796963 148.021028 
L 210.391605 146.59681 
L 205.896201 142.383061 
L 204.828295 141.428732 
L 199.264985 136.952114 
L 198.975395 136.745095 
L 193.701675 133.010505 
L 190.514392 131.107129 
L 188.138365 129.659187 
L 182.575055 126.847726 
L 179.134789 125.469163 
L 177.011744 124.567126 
L 171.448434 122.814837 
L 165.885124 121.689846 
L 160.321814 121.234031 
L 154.758504 121.574663 
L 149.195194 122.956806 
L 144.202978 125.469163 
L 143.631884 125.836445 
L 138.430992 131.107129 
L 138.068574 131.685887 
L 135.589484 136.745095 
L 134.225643 142.383061 
L 133.889522 148.021028 
L 134.339302 153.658994 
L 135.449395 159.29696 
L 137.178482 164.934926 
L 138.068574 167.08646 
L 139.428883 170.572892 
L 142.203115 176.210858 
L 143.631884 178.618771 
L 145.510056 181.848824 
L 149.195194 187.193315 
L 149.399471 187.48679 
L 153.816812 193.124756 
L 154.758504 194.206993 
L 158.916456 198.762722 
L 160.321814 200.18694 
L 164.817218 204.400689 
L 165.885124 205.355018 
L 171.448434 209.831636 
L 171.738024 210.038655 
L 177.011744 213.773245 
L 180.199027 215.676621 
L 182.575055 217.124563 
L 188.138365 219.936024 
L 191.57863 221.314587 
L 193.701675 222.216624 
z
" clip-path="url(#p6c9cdac866)" style="fill: none; stroke: #b83289; stroke-opacity: 0.85"/>
    <path d="M 188.138365 211.106791 
L 193.701675 213.255137 
L 199.264985 214.701013 
L 204.828295 215.366976 
L 210.391605 215.049942 
L 215.954915 213.353582 
L 220.915666 210.038655 
L 221.518225 209.42801 
L 224.789257 204.400689 
L 226.463154 198.762722 
L 226.775991 193.124756 
L 226.118846 187.48679 
L 224.692115 181.848824 
L 222.572218 176.210858 
L 221.518225 174.087356 
L 219.784013 170.572892 
L 216.349854 164.934926 
L 215.954915 164.380159 
L 212.216828 159.29696 
L 210.391605 157.122174 
L 207.29176 153.658994 
L 204.828295 151.162471 
L 201.410973 148.021028 
L 199.264985 146.171311 
L 194.249096 142.383061 
L 193.701675 141.982823 
L 188.138365 138.502579 
L 184.670438 136.745095 
L 182.575055 135.676959 
L 177.011744 133.528613 
L 171.448434 132.082737 
L 165.885124 131.416774 
L 160.321814 131.733808 
L 154.758504 133.430168 
L 149.797753 136.745095 
L 149.195194 137.35574 
L 145.924162 142.383061 
L 144.250265 148.021028 
L 143.937428 153.658994 
L 144.594574 159.29696 
L 146.021304 164.934926 
L 148.141202 170.572892 
L 149.195194 172.696394 
L 150.929406 176.210858 
L 154.363565 181.848824 
L 154.758504 182.403591 
L 158.496591 187.48679 
L 160.321814 189.661576 
L 163.42166 193.124756 
L 165.885124 195.621279 
L 169.302446 198.762722 
L 171.448434 200.612439 
L 176.464323 204.400689 
L 177.011744 204.800927 
L 182.575055 208.281171 
L 186.042981 210.038655 
L 188.138365 211.106791 
z
" clip-path="url(#p6c9cdac866)" style="fill: none; stroke: #db5c68; stroke-opacity: 0.85"/>
    <path d="M 199.264985 205.280155 
L 204.828295 205.032656 
L 206.869771 204.400689 
L 210.391605 202.809407 
L 214.384704 198.762722 
L 215.954915 195.193628 
L 216.578514 193.124756 
L 216.822736 187.48679 
L 215.954915 182.190991 
L 215.897963 181.848824 
L 213.930402 176.210858 
L 211.181698 170.572892 
L 210.391605 169.311489 
L 207.493762 164.934926 
L 204.828295 161.555987 
L 202.874158 159.29696 
L 199.264985 155.639354 
L 197.03587 153.658994 
L 193.701675 150.957757 
L 189.383064 148.021028 
L 188.138365 147.220332 
L 182.575055 144.434742 
L 177.011744 142.440777 
L 176.674109 142.383061 
L 171.448434 141.503595 
L 165.885124 141.751094 
L 163.843648 142.383061 
L 160.321814 143.974343 
L 156.328715 148.021028 
L 154.758504 151.590122 
L 154.134905 153.658994 
L 153.890683 159.29696 
L 154.758504 164.592759 
L 154.815456 164.934926 
L 156.783017 170.572892 
L 159.531722 176.210858 
L 160.321814 177.472261 
L 163.219657 181.848824 
L 165.885124 185.227763 
L 167.839261 187.48679 
L 171.448434 191.144396 
L 173.677549 193.124756 
L 177.011744 195.825993 
L 181.330355 198.762722 
L 182.575055 199.563418 
L 188.138365 202.349008 
L 193.701675 204.342973 
L 194.03931 204.400689 
L 199.264985 205.280155 
z
" clip-path="url(#p6c9cdac866)" style="fill: none; stroke: #f48849; stroke-opacity: 0.85"/>
    <path d="M 193.701675 193.690351 
L 199.264985 193.260795 
L 199.554751 193.124756 
L 204.828295 187.780445 
L 204.962532 187.48679 
L 205.3864 181.848824 
L 204.828295 179.474263 
L 203.972366 176.210858 
L 201.137625 170.572892 
L 199.264985 167.866042 
L 196.913774 164.934926 
L 193.701675 161.679723 
L 190.809372 159.29696 
L 188.138365 157.39919 
L 182.575055 154.526409 
L 179.354862 153.658994 
L 177.011744 153.093399 
L 171.448434 153.522955 
L 171.158668 153.658994 
L 165.885124 159.003305 
L 165.750887 159.29696 
L 165.327019 164.934926 
L 165.885124 167.309487 
L 166.741054 170.572892 
L 169.575795 176.210858 
L 171.448434 178.917708 
L 173.799646 181.848824 
L 177.011744 185.104027 
L 179.904047 187.48679 
L 182.575055 189.38456 
L 188.138365 192.257341 
L 191.358557 193.124756 
L 193.701675 193.690351 
z
" clip-path="url(#p6c9cdac866)" style="fill: none; stroke: #febd2a; stroke-opacity: 0.85"/>
    <path clip-path="url(#p6c9cdac866)" style="fill: none; stroke: #f0f921; stroke-opacity: 0.85"/>
   </g>
   <g id="patch_3">
    <path d="M 21.239062 339.711875 
L 21.239062 7.071875 
" style="fill: none; stroke: #7f7f7f; stroke-width: 0.8; stroke-linejoin: miter; stroke-linecap: square"/>
   </g>
   <g id="patch_4">
    <path d="M 349.474357 339.711875 
L 349.474357 7.071875 
" style="fill: none; stroke: #7f7f7f; stroke-width: 0.8; stroke-linejoin: miter; stroke-linecap: square"/>
   </g>
   <g id="patch_5">
    <path d="M 21.239062 339.711875 
L 349.474357 339.711875 
" style="fill: none; stroke: #7f7f7f; stroke-width: 0.8; stroke-linejoin: miter; stroke-linecap: square"/>
   </g>
   <g id="patch_6">
    <path d="M 21.239062 7.071875 
L 349.474357 7.071875 
" style="fill: none; stroke: #7f7f7f; stroke-width: 0.8; stroke-linejoin: miter; stroke-linecap: square"/>
   </g>
  </g>
  <g id="axes_2">
   <g id="patch_7">
    <path d="M 415.121415 339.711875 
L 743.35671 339.711875 
L 743.35671 7.071875 
L 415.121415 7.071875 
L 415.121415 339.711875 
z
" style="fill: none"/>
   </g>
   <g id="matplotlib.axis_3">
    <g id="xtick_8">
     <g id="line2d_15">
      <g>
       <use xlink:href="#m8aa3ae9f3e" x="415.121415" y="339.711875" style="fill: #7f7f7f; stroke: #7f7f7f; stroke-width: 0.8"/>
      </g>
     </g>
     <g id="text_15">
      <!-- −3 -->
      <g style="fill: #7f7f7f" transform="translate(409.801884 353.655625) scale(0.1 -0.1)">
       <use xlink:href="#TimesNewRomanPSMT-2212"/>
       <use xlink:href="#TimesNewRomanPSMT-33" transform="translate(56.396484 0)"/>
      </g>
     </g>
    </g>
    <g id="xtick_9">
     <g id="line2d_16">
      <g>
       <use xlink:href="#m8aa3ae9f3e" x="469.827298" y="339.711875" style="fill: #7f7f7f; stroke: #7f7f7f; stroke-width: 0.8"/>
      </g>
     </g>
     <g id="text_16">
      <!-- −2 -->
      <g style="fill: #7f7f7f" transform="translate(464.507767 353.655625) scale(0.1 -0.1)">
       <use xlink:href="#TimesNewRomanPSMT-2212"/>
       <use xlink:href="#TimesNewRomanPSMT-32" transform="translate(56.396484 0)"/>
      </g>
     </g>
    </g>
    <g id="xtick_10">
     <g id="line2d_17">
      <g>
       <use xlink:href="#m8aa3ae9f3e" x="524.53318" y="339.711875" style="fill: #7f7f7f; stroke: #7f7f7f; stroke-width: 0.8"/>
      </g>
     </g>
     <g id="text_17">
      <!-- −1 -->
      <g style="fill: #7f7f7f" transform="translate(519.213649 353.655625) scale(0.1 -0.1)">
       <use xlink:href="#TimesNewRomanPSMT-2212"/>
       <use xlink:href="#TimesNewRomanPSMT-31" transform="translate(56.396484 0)"/>
      </g>
     </g>
    </g>
    <g id="xtick_11">
     <g id="line2d_18">
      <g>
       <use xlink:href="#m8aa3ae9f3e" x="579.239062" y="339.711875" style="fill: #7f7f7f; stroke: #7f7f7f; stroke-width: 0.8"/>
      </g>
     </g>
     <g id="text_18">
      <!-- 0 -->
      <g style="fill: #7f7f7f" transform="translate(576.739062 353.655625) scale(0.1 -0.1)">
       <use xlink:href="#TimesNewRomanPSMT-30"/>
      </g>
     </g>
    </g>
    <g id="xtick_12">
     <g id="line2d_19">
      <g>
       <use xlink:href="#m8aa3ae9f3e" x="633.944945" y="339.711875" style="fill: #7f7f7f; stroke: #7f7f7f; stroke-width: 0.8"/>
      </g>
     </g>
     <g id="text_19">
      <!-- 1 -->
      <g style="fill: #7f7f7f" transform="translate(631.444945 353.655625) scale(0.1 -0.1)">
       <use xlink:href="#TimesNewRomanPSMT-31"/>
      </g>
     </g>
    </g>
    <g id="xtick_13">
     <g id="line2d_20">
      <g>
       <use xlink:href="#m8aa3ae9f3e" x="688.650827" y="339.711875" style="fill: #7f7f7f; stroke: #7f7f7f; stroke-width: 0.8"/>
      </g>
     </g>
     <g id="text_20">
      <!-- 2 -->
      <g style="fill: #7f7f7f" transform="translate(686.150827 353.655625) scale(0.1 -0.1)">
       <use xlink:href="#TimesNewRomanPSMT-32"/>
      </g>
     </g>
    </g>
    <g id="xtick_14">
     <g id="line2d_21">
      <g>
       <use xlink:href="#m8aa3ae9f3e" x="743.35671" y="339.711875" style="fill: #7f7f7f; stroke: #7f7f7f; stroke-width: 0.8"/>
      </g>
     </g>
     <g id="text_21">
      <!-- 3 -->
      <g style="fill: #7f7f7f" transform="translate(740.85671 353.655625) scale(0.1 -0.1)">
       <use xlink:href="#TimesNewRomanPSMT-33"/>
      </g>
     </g>
    </g>
   </g>
   <g id="matplotlib.axis_4">
    <g id="ytick_8">
     <g id="line2d_22">
      <g>
       <use xlink:href="#m1c2f91418f" x="415.121415" y="339.711875" style="fill: #7f7f7f; stroke: #7f7f7f; stroke-width: 0.8"/>
      </g>
     </g>
     <g id="text_22">
      <!-- −3 -->
      <g style="fill: #7f7f7f" transform="translate(397.482353 343.18375) scale(0.1 -0.1)">
       <use xlink:href="#TimesNewRomanPSMT-2212"/>
       <use xlink:href="#TimesNewRomanPSMT-33" transform="translate(56.396484 0)"/>
      </g>
     </g>
    </g>
    <g id="ytick_9">
     <g id="line2d_23">
      <g>
       <use xlink:href="#m1c2f91418f" x="415.121415" y="284.271875" style="fill: #7f7f7f; stroke: #7f7f7f; stroke-width: 0.8"/>
      </g>
     </g>
     <g id="text_23">
      <!-- −2 -->
      <g style="fill: #7f7f7f" transform="translate(397.482353 287.74375) scale(0.1 -0.1)">
       <use xlink:href="#TimesNewRomanPSMT-2212"/>
       <use xlink:href="#TimesNewRomanPSMT-32" transform="translate(56.396484 0)"/>
      </g>
     </g>
    </g>
    <g id="ytick_10">
     <g id="line2d_24">
      <g>
       <use xlink:href="#m1c2f91418f" x="415.121415" y="228.831875" style="fill: #7f7f7f; stroke: #7f7f7f; stroke-width: 0.8"/>
      </g>
     </g>
     <g id="text_24">
      <!-- −1 -->
      <g style="fill: #7f7f7f" transform="translate(397.482353 232.30375) scale(0.1 -0.1)">
       <use xlink:href="#TimesNewRomanPSMT-2212"/>
       <use xlink:href="#TimesNewRomanPSMT-31" transform="translate(56.396484 0)"/>
      </g>
     </g>
    </g>
    <g id="ytick_11">
     <g id="line2d_25">
      <g>
       <use xlink:href="#m1c2f91418f" x="415.121415" y="173.391875" style="fill: #7f7f7f; stroke: #7f7f7f; stroke-width: 0.8"/>
      </g>
     </g>
     <g id="text_25">
      <!-- 0 -->
      <g style="fill: #7f7f7f" transform="translate(403.121415 176.86375) scale(0.1 -0.1)">
       <use xlink:href="#TimesNewRomanPSMT-30"/>
      </g>
     </g>
    </g>
    <g id="ytick_12">
     <g id="line2d_26">
      <g>
       <use xlink:href="#m1c2f91418f" x="415.121415" y="117.951875" style="fill: #7f7f7f; stroke: #7f7f7f; stroke-width: 0.8"/>
      </g>
     </g>
     <g id="text_26">
      <!-- 1 -->
      <g style="fill: #7f7f7f" transform="translate(403.121415 121.42375) scale(0.1 -0.1)">
       <use xlink:href="#TimesNewRomanPSMT-31"/>
      </g>
     </g>
    </g>
    <g id="ytick_13">
     <g id="line2d_27">
      <g>
       <use xlink:href="#m1c2f91418f" x="415.121415" y="62.511875" style="fill: #7f7f7f; stroke: #7f7f7f; stroke-width: 0.8"/>
      </g>
     </g>
     <g id="text_27">
      <!-- 2 -->
      <g style="fill: #7f7f7f" transform="translate(403.121415 65.98375) scale(0.1 -0.1)">
       <use xlink:href="#TimesNewRomanPSMT-32"/>
      </g>
     </g>
    </g>
    <g id="ytick_14">
     <g id="line2d_28">
      <g>
       <use xlink:href="#m1c2f91418f" x="415.121415" y="7.071875" style="fill: #7f7f7f; stroke: #7f7f7f; stroke-width: 0.8"/>
      </g>
     </g>
     <g id="text_28">
      <!-- 3 -->
      <g style="fill: #7f7f7f" transform="translate(403.121415 10.54375) scale(0.1 -0.1)">
       <use xlink:href="#TimesNewRomanPSMT-33"/>
      </g>
     </g>
    </g>
   </g>
   <g id="QuadContourSet_2">
    <path clip-path="url(#p543735c467)" style="fill: none; stroke: #0d0887; stroke-opacity: 0.85"/>
    <path d="M 632.090508 249.981514 
L 637.653818 250.928333 
L 643.217128 250.882078 
L 648.170848 249.504417 
L 648.780438 249.269071 
L 654.111519 243.866451 
L 654.343748 243.24868 
L 655.703166 238.228485 
L 655.748809 232.590519 
L 654.814527 226.952553 
L 654.343748 225.44489 
L 653.295549 221.314587 
L 651.30974 215.676621 
L 648.780438 210.274001 
L 648.688239 210.038655 
L 646.033034 204.400689 
L 643.217128 199.661042 
L 642.757089 198.762722 
L 639.439982 193.124756 
L 637.653818 190.561861 
L 635.750312 187.48679 
L 632.090508 182.496888 
L 631.658988 181.848824 
L 627.51317 176.210858 
L 626.527198 175.002306 
L 623.146071 170.572892 
L 620.963888 168.009648 
L 618.460622 164.934926 
L 615.400578 161.489581 
L 613.497072 159.29696 
L 609.837268 155.346515 
L 608.275322 153.658994 
L 604.273958 149.517803 
L 602.797002 148.021028 
L 598.710648 143.965967 
L 597.045472 142.383061 
L 593.147338 138.674145 
L 590.983751 136.745095 
L 587.584028 133.643987 
L 584.550019 131.107129 
L 582.020718 128.895663 
L 577.649956 125.469163 
L 576.457407 124.46996 
L 570.894097 120.268508 
L 570.254615 119.831197 
L 565.330787 116.122281 
L 562.296435 114.193231 
L 559.767477 112.383098 
L 554.204167 109.021478 
L 553.317743 108.555265 
L 548.640857 105.701571 
L 543.077547 103.010735 
L 542.845317 102.917299 
L 537.514237 100.354055 
L 531.950927 98.341598 
L 527.875316 97.279333 
L 526.387617 96.802236 
L 520.824307 95.855417 
L 515.260997 95.901672 
L 510.307277 97.279333 
L 509.697687 97.514679 
L 504.366606 102.917299 
L 504.134377 103.53507 
L 502.774959 108.555265 
L 502.729316 114.193231 
L 503.663598 119.831197 
L 504.134377 121.33886 
L 505.182576 125.469163 
L 507.168385 131.107129 
L 509.697687 136.509749 
L 509.789886 136.745095 
L 512.445091 142.383061 
L 515.260997 147.122708 
L 515.721036 148.021028 
L 519.038143 153.658994 
L 520.824307 156.221889 
L 522.727813 159.29696 
L 526.387617 164.286862 
L 526.819137 164.934926 
L 530.964955 170.572892 
L 531.950927 171.781444 
L 535.332054 176.210858 
L 537.514237 178.774102 
L 540.017503 181.848824 
L 543.077547 185.294169 
L 544.981053 187.48679 
L 548.640857 191.437235 
L 550.202803 193.124756 
L 554.204167 197.265947 
L 555.681123 198.762722 
L 559.767477 202.817783 
L 561.432653 204.400689 
L 565.330787 208.109605 
L 567.494374 210.038655 
L 570.894097 213.139763 
L 573.928106 215.676621 
L 576.457407 217.888087 
L 580.828169 221.314587 
L 582.020718 222.31379 
L 587.584028 226.515242 
L 588.22351 226.952553 
L 593.147338 230.661469 
L 596.18169 232.590519 
L 598.710648 234.400652 
L 604.273958 237.762272 
L 605.160382 238.228485 
L 609.837268 241.082179 
L 615.400578 243.773015 
L 615.632808 243.866451 
L 620.963888 246.429695 
L 626.527198 248.442152 
L 630.602809 249.504417 
L 632.090508 249.981514 
z
" clip-path="url(#p543735c467)" style="fill: none; stroke: #5302a3; stroke-opacity: 0.85"/>
    <path d="M 620.963888 233.639785 
L 626.527198 234.381475 
L 632.090508 233.722974 
L 634.356497 232.590519 
L 637.653818 229.24895 
L 638.771277 226.952553 
L 639.421059 221.314587 
L 638.689191 215.676621 
L 637.653818 212.262179 
L 637.070664 210.038655 
L 634.915268 204.400689 
L 632.126727 198.762722 
L 632.090508 198.701952 
L 629.11748 193.124756 
L 626.527198 189.095294 
L 625.58151 187.48679 
L 621.760534 181.848824 
L 620.963888 180.799558 
L 617.683733 176.210858 
L 615.400578 173.375963 
L 613.227406 170.572892 
L 609.837268 166.602402 
L 608.435886 164.934926 
L 604.273958 160.335345 
L 603.32827 159.29696 
L 598.710648 154.480354 
L 597.900163 153.658994 
L 593.147338 148.979406 
L 592.122703 148.021028 
L 587.584028 143.803249 
L 585.938632 142.383061 
L 582.020718 138.94743 
L 579.254764 136.745095 
L 576.457407 134.431302 
L 571.92947 131.107129 
L 570.894097 130.299793 
L 565.330787 126.427542 
L 563.743583 125.469163 
L 559.767477 122.844121 
L 554.264133 119.831197 
L 554.204167 119.794492 
L 548.640857 116.968531 
L 543.077547 114.784211 
L 540.883466 114.193231 
L 537.514237 113.143965 
L 531.950927 112.402275 
L 526.387617 113.060776 
L 524.121628 114.193231 
L 520.824307 117.5348 
L 519.706848 119.831197 
L 519.057066 125.469163 
L 519.788934 131.107129 
L 520.824307 134.521571 
L 521.407461 136.745095 
L 523.562857 142.383061 
L 526.351398 148.021028 
L 526.387617 148.081798 
L 529.360645 153.658994 
L 531.950927 157.688456 
L 532.896615 159.29696 
L 536.717591 164.934926 
L 537.514237 165.984192 
L 540.794392 170.572892 
L 543.077547 173.407787 
L 545.250719 176.210858 
L 548.640857 180.181348 
L 550.042239 181.848824 
L 554.204167 186.448405 
L 555.149855 187.48679 
L 559.767477 192.303396 
L 560.577962 193.124756 
L 565.330787 197.804344 
L 566.355422 198.762722 
L 570.894097 202.980501 
L 572.539493 204.400689 
L 576.457407 207.83632 
L 579.223361 210.038655 
L 582.020718 212.352448 
L 586.548655 215.676621 
L 587.584028 216.483957 
L 593.147338 220.356208 
L 594.734542 221.314587 
L 598.710648 223.939629 
L 604.213992 226.952553 
L 604.273958 226.989258 
L 609.837268 229.815219 
L 615.400578 231.999539 
L 617.594659 232.590519 
L 620.963888 233.639785 
z
" clip-path="url(#p543735c467)" style="fill: none; stroke: #8b0aa5; stroke-opacity: 0.85"/>
    <path d="M 615.400578 221.98504 
L 620.963888 221.746552 
L 621.980589 221.314587 
L 626.527198 216.706965 
L 626.953443 215.676621 
L 627.188773 210.038655 
L 626.527198 207.093471 
L 625.979901 204.400689 
L 623.925359 198.762722 
L 621.224065 193.124756 
L 620.963888 192.692791 
L 618.04684 187.48679 
L 615.400578 183.485466 
L 614.370346 181.848824 
L 610.307273 176.210858 
L 609.837268 175.622856 
L 605.888108 170.572892 
L 604.273958 168.691252 
L 601.049204 164.934926 
L 598.710648 162.393468 
L 595.7936 159.29696 
L 593.147338 156.615187 
L 590.091833 153.658994 
L 587.584028 151.289055 
L 583.877442 148.021028 
L 582.020718 146.385217 
L 577.037623 142.383061 
L 576.457407 141.906749 
L 570.894097 137.789152 
L 569.279128 136.745095 
L 565.330787 134.063322 
L 560.193722 131.107129 
L 559.767477 130.843461 
L 554.204167 128.105917 
L 548.640857 126.023805 
L 545.983732 125.469163 
L 543.077547 124.79871 
L 537.514237 125.037198 
L 536.497536 125.469163 
L 531.950927 130.076785 
L 531.524682 131.107129 
L 531.289352 136.745095 
L 531.950927 139.690279 
L 532.498224 142.383061 
L 534.552766 148.021028 
L 537.25406 153.658994 
L 537.514237 154.090959 
L 540.431285 159.29696 
L 543.077547 163.298284 
L 544.107779 164.934926 
L 548.170852 170.572892 
L 548.640857 171.160894 
L 552.590017 176.210858 
L 554.204167 178.092498 
L 557.428921 181.848824 
L 559.767477 184.390282 
L 562.684525 187.48679 
L 565.330787 190.168563 
L 568.386292 193.124756 
L 570.894097 195.494695 
L 574.600683 198.762722 
L 576.457407 200.398533 
L 581.440502 204.400689 
L 582.020718 204.877001 
L 587.584028 208.994598 
L 589.198997 210.038655 
L 593.147338 212.720428 
L 598.284403 215.676621 
L 598.710648 215.940289 
L 604.273958 218.677833 
L 609.837268 220.759945 
L 612.494393 221.314587 
L 615.400578 221.98504 
z
" clip-path="url(#p543735c467)" style="fill: none; stroke: #b83289; stroke-opacity: 0.85"/>
    <path d="M 604.273958 210.410003 
L 609.837268 210.971187 
L 612.690112 210.038655 
L 615.400578 207.291816 
L 616.320762 204.400689 
L 615.767009 198.762722 
L 615.400578 197.769188 
L 613.772706 193.124756 
L 611.055445 187.48679 
L 609.837268 185.512599 
L 607.63966 181.848824 
L 604.273958 177.015945 
L 603.715674 176.210858 
L 599.280214 170.572892 
L 598.710648 169.914745 
L 594.313469 164.934926 
L 593.147338 163.700402 
L 588.802204 159.29696 
L 587.584028 158.11518 
L 582.67015 153.658994 
L 582.020718 153.081784 
L 576.457407 148.586803 
L 575.662981 148.021028 
L 570.894097 144.610159 
L 567.278837 142.383061 
L 565.330787 141.148538 
L 559.767477 138.394812 
L 555.184546 136.745095 
L 554.204167 136.373747 
L 548.640857 135.812563 
L 545.788013 136.745095 
L 543.077547 139.491934 
L 542.157363 142.383061 
L 542.711116 148.021028 
L 543.077547 149.014562 
L 544.705419 153.658994 
L 547.42268 159.29696 
L 548.640857 161.271151 
L 550.838465 164.934926 
L 554.204167 169.767805 
L 554.762451 170.572892 
L 559.197911 176.210858 
L 559.767477 176.869005 
L 564.164656 181.848824 
L 565.330787 183.083348 
L 569.675921 187.48679 
L 570.894097 188.66857 
L 575.807975 193.124756 
L 576.457407 193.701966 
L 582.020718 198.196947 
L 582.815144 198.762722 
L 587.584028 202.173591 
L 591.199288 204.400689 
L 593.147338 205.635212 
L 598.710648 208.388938 
L 603.293579 210.038655 
L 604.273958 210.410003 
z
" clip-path="url(#p543735c467)" style="fill: none; stroke: #db5c68; stroke-opacity: 0.85"/>
    <path d="M 598.710648 199.333757 
L 601.666493 198.762722 
L 604.273958 196.120267 
L 604.837431 193.124756 
L 604.273958 191.117144 
L 603.239002 187.48679 
L 600.40908 181.848824 
L 598.710648 179.24023 
L 596.685575 176.210858 
L 593.147338 171.621736 
L 592.294179 170.572892 
L 587.584028 165.392658 
L 587.132356 164.934926 
L 582.020718 160.161567 
L 580.985762 159.29696 
L 576.457407 155.711242 
L 573.46815 153.658994 
L 570.894097 151.937769 
L 565.330787 149.069872 
L 561.748505 148.021028 
L 559.767477 147.449993 
L 556.811632 148.021028 
L 554.204167 150.663483 
L 553.640694 153.658994 
L 554.204167 155.666606 
L 555.239123 159.29696 
L 558.069045 164.934926 
L 559.767477 167.54352 
L 561.79255 170.572892 
L 565.330787 175.162014 
L 566.183946 176.210858 
L 570.894097 181.391092 
L 571.345769 181.848824 
L 576.457407 186.622183 
L 577.492363 187.48679 
L 582.020718 191.072508 
L 585.009975 193.124756 
L 587.584028 194.845981 
L 593.147338 197.713878 
L 596.72962 198.762722 
L 598.710648 199.333757 
z
" clip-path="url(#p543735c467)" style="fill: none; stroke: #f48849; stroke-opacity: 0.85"/>
    <path d="M 582.020718 179.842595 
L 585.604364 176.210858 
L 582.020718 170.792029 
L 581.804482 170.572892 
L 576.457407 166.941155 
L 572.873761 170.572892 
L 576.457407 175.991721 
L 576.673643 176.210858 
L 582.020718 179.842595 
z
" clip-path="url(#p543735c467)" style="fill: none; stroke: #febd2a; stroke-opacity: 0.85"/>
    <path clip-path="url(#p543735c467)" style="fill: none; stroke: #f0f921; stroke-opacity: 0.85"/>
   </g>
   <g id="patch_8">
    <path d="M 415.121415 339.711875 
L 415.121415 7.071875 
" style="fill: none; stroke: #7f7f7f; stroke-width: 0.8; stroke-linejoin: miter; stroke-linecap: square"/>
   </g>
   <g id="patch_9">
    <path d="M 743.35671 339.711875 
L 743.35671 7.071875 
" style="fill: none; stroke: #7f7f7f; stroke-width: 0.8; stroke-linejoin: miter; stroke-linecap: square"/>
   </g>
   <g id="patch_10">
    <path d="M 415.121415 339.711875 
L 743.35671 339.711875 
" style="fill: none; stroke: #7f7f7f; stroke-width: 0.8; stroke-linejoin: miter; stroke-linecap: square"/>
   </g>
   <g id="patch_11">
    <path d="M 415.121415 7.071875 
L 743.35671 7.071875 
" style="fill: none; stroke: #7f7f7f; stroke-width: 0.8; stroke-linejoin: miter; stroke-linecap: square"/>
   </g>
  </g>
  <g id="axes_3">
   <g id="patch_12">
    <path d="M 809.003768 339.711875 
L 1137.239063 339.711875 
L 1137.239063 7.071875 
L 809.003768 7.071875 
L 809.003768 339.711875 
z
" style="fill: none"/>
   </g>
   <g id="matplotlib.axis_5">
    <g id="xtick_15">
     <g id="line2d_29">
      <g>
       <use xlink:href="#m8aa3ae9f3e" x="809.003768" y="339.711875" style="fill: #7f7f7f; stroke: #7f7f7f; stroke-width: 0.8"/>
      </g>
     </g>
     <g id="text_29">
      <!-- −3 -->
      <g style="fill: #7f7f7f" transform="translate(803.684237 353.655625) scale(0.1 -0.1)">
       <use xlink:href="#TimesNewRomanPSMT-2212"/>
       <use xlink:href="#TimesNewRomanPSMT-33" transform="translate(56.396484 0)"/>
      </g>
     </g>
    </g>
    <g id="xtick_16">
     <g id="line2d_30">
      <g>
       <use xlink:href="#m8aa3ae9f3e" x="863.709651" y="339.711875" style="fill: #7f7f7f; stroke: #7f7f7f; stroke-width: 0.8"/>
      </g>
     </g>
     <g id="text_30">
      <!-- −2 -->
      <g style="fill: #7f7f7f" transform="translate(858.390119 353.655625) scale(0.1 -0.1)">
       <use xlink:href="#TimesNewRomanPSMT-2212"/>
       <use xlink:href="#TimesNewRomanPSMT-32" transform="translate(56.396484 0)"/>
      </g>
     </g>
    </g>
    <g id="xtick_17">
     <g id="line2d_31">
      <g>
       <use xlink:href="#m8aa3ae9f3e" x="918.415533" y="339.711875" style="fill: #7f7f7f; stroke: #7f7f7f; stroke-width: 0.8"/>
      </g>
     </g>
     <g id="text_31">
      <!-- −1 -->
      <g style="fill: #7f7f7f" transform="translate(913.096002 353.655625) scale(0.1 -0.1)">
       <use xlink:href="#TimesNewRomanPSMT-2212"/>
       <use xlink:href="#TimesNewRomanPSMT-31" transform="translate(56.396484 0)"/>
      </g>
     </g>
    </g>
    <g id="xtick_18">
     <g id="line2d_32">
      <g>
       <use xlink:href="#m8aa3ae9f3e" x="973.121415" y="339.711875" style="fill: #7f7f7f; stroke: #7f7f7f; stroke-width: 0.8"/>
      </g>
     </g>
     <g id="text_32">
      <!-- 0 -->
      <g style="fill: #7f7f7f" transform="translate(970.621415 353.655625) scale(0.1 -0.1)">
       <use xlink:href="#TimesNewRomanPSMT-30"/>
      </g>
     </g>
    </g>
    <g id="xtick_19">
     <g id="line2d_33">
      <g>
       <use xlink:href="#m8aa3ae9f3e" x="1027.827298" y="339.711875" style="fill: #7f7f7f; stroke: #7f7f7f; stroke-width: 0.8"/>
      </g>
     </g>
     <g id="text_33">
      <!-- 1 -->
      <g style="fill: #7f7f7f" transform="translate(1025.327298 353.655625) scale(0.1 -0.1)">
       <use xlink:href="#TimesNewRomanPSMT-31"/>
      </g>
     </g>
    </g>
    <g id="xtick_20">
     <g id="line2d_34">
      <g>
       <use xlink:href="#m8aa3ae9f3e" x="1082.53318" y="339.711875" style="fill: #7f7f7f; stroke: #7f7f7f; stroke-width: 0.8"/>
      </g>
     </g>
     <g id="text_34">
      <!-- 2 -->
      <g style="fill: #7f7f7f" transform="translate(1080.03318 353.655625) scale(0.1 -0.1)">
       <use xlink:href="#TimesNewRomanPSMT-32"/>
      </g>
     </g>
    </g>
    <g id="xtick_21">
     <g id="line2d_35">
      <g>
       <use xlink:href="#m8aa3ae9f3e" x="1137.239063" y="339.711875" style="fill: #7f7f7f; stroke: #7f7f7f; stroke-width: 0.8"/>
      </g>
     </g>
     <g id="text_35">
      <!-- 3 -->
      <g style="fill: #7f7f7f" transform="translate(1134.739063 353.655625) scale(0.1 -0.1)">
       <use xlink:href="#TimesNewRomanPSMT-33"/>
      </g>
     </g>
    </g>
   </g>
   <g id="matplotlib.axis_6">
    <g id="ytick_15">
     <g id="line2d_36">
      <g>
       <use xlink:href="#m1c2f91418f" x="809.003768" y="339.711875" style="fill: #7f7f7f; stroke: #7f7f7f; stroke-width: 0.8"/>
      </g>
     </g>
     <g id="text_36">
      <!-- −3 -->
      <g style="fill: #7f7f7f" transform="translate(791.364706 343.18375) scale(0.1 -0.1)">
       <use xlink:href="#TimesNewRomanPSMT-2212"/>
       <use xlink:href="#TimesNewRomanPSMT-33" transform="translate(56.396484 0)"/>
      </g>
     </g>
    </g>
    <g id="ytick_16">
     <g id="line2d_37">
      <g>
       <use xlink:href="#m1c2f91418f" x="809.003768" y="284.271875" style="fill: #7f7f7f; stroke: #7f7f7f; stroke-width: 0.8"/>
      </g>
     </g>
     <g id="text_37">
      <!-- −2 -->
      <g style="fill: #7f7f7f" transform="translate(791.364706 287.74375) scale(0.1 -0.1)">
       <use xlink:href="#TimesNewRomanPSMT-2212"/>
       <use xlink:href="#TimesNewRomanPSMT-32" transform="translate(56.396484 0)"/>
      </g>
     </g>
    </g>
    <g id="ytick_17">
     <g id="line2d_38">
      <g>
       <use xlink:href="#m1c2f91418f" x="809.003768" y="228.831875" style="fill: #7f7f7f; stroke: #7f7f7f; stroke-width: 0.8"/>
      </g>
     </g>
     <g id="text_38">
      <!-- −1 -->
      <g style="fill: #7f7f7f" transform="translate(791.364706 232.30375) scale(0.1 -0.1)">
       <use xlink:href="#TimesNewRomanPSMT-2212"/>
       <use xlink:href="#TimesNewRomanPSMT-31" transform="translate(56.396484 0)"/>
      </g>
     </g>
    </g>
    <g id="ytick_18">
     <g id="line2d_39">
      <g>
       <use xlink:href="#m1c2f91418f" x="809.003768" y="173.391875" style="fill: #7f7f7f; stroke: #7f7f7f; stroke-width: 0.8"/>
      </g>
     </g>
     <g id="text_39">
      <!-- 0 -->
      <g style="fill: #7f7f7f" transform="translate(797.003768 176.86375) scale(0.1 -0.1)">
       <use xlink:href="#TimesNewRomanPSMT-30"/>
      </g>
     </g>
    </g>
    <g id="ytick_19">
     <g id="line2d_40">
      <g>
       <use xlink:href="#m1c2f91418f" x="809.003768" y="117.951875" style="fill: #7f7f7f; stroke: #7f7f7f; stroke-width: 0.8"/>
      </g>
     </g>
     <g id="text_40">
      <!-- 1 -->
      <g style="fill: #7f7f7f" transform="translate(797.003768 121.42375) scale(0.1 -0.1)">
       <use xlink:href="#TimesNewRomanPSMT-31"/>
      </g>
     </g>
    </g>
    <g id="ytick_20">
     <g id="line2d_41">
      <g>
       <use xlink:href="#m1c2f91418f" x="809.003768" y="62.511875" style="fill: #7f7f7f; stroke: #7f7f7f; stroke-width: 0.8"/>
      </g>
     </g>
     <g id="text_41">
      <!-- 2 -->
      <g style="fill: #7f7f7f" transform="translate(797.003768 65.98375) scale(0.1 -0.1)">
       <use xlink:href="#TimesNewRomanPSMT-32"/>
      </g>
     </g>
    </g>
    <g id="ytick_21">
     <g id="line2d_42">
      <g>
       <use xlink:href="#m1c2f91418f" x="809.003768" y="7.071875" style="fill: #7f7f7f; stroke: #7f7f7f; stroke-width: 0.8"/>
      </g>
     </g>
     <g id="text_42">
      <!-- 3 -->
      <g style="fill: #7f7f7f" transform="translate(797.003768 10.54375) scale(0.1 -0.1)">
       <use xlink:href="#TimesNewRomanPSMT-33"/>
      </g>
     </g>
    </g>
   </g>
   <g id="QuadContourSet_3">
    <path clip-path="url(#p954498ef9b)" style="fill: none; stroke: #0d0887; stroke-opacity: 0.85"/>
    <path d="M 920.26997 312.149699 
L 925.83328 314.48216 
L 931.39659 315.650756 
L 936.9599 315.88067 
L 942.52321 315.300952 
L 948.08652 313.964845 
L 953.64983 311.858929 
L 954.314723 311.522044 
L 959.21314 309.240669 
L 964.702117 305.884078 
L 964.77645 305.84147 
L 970.33976 302.005937 
L 972.480839 300.246112 
L 975.90307 297.509849 
L 979.050785 294.608146 
L 981.466381 292.399193 
L 984.822417 288.97018 
L 987.029691 286.688805 
L 990.02219 283.332214 
L 992.593001 280.357627 
L 994.773154 277.694248 
L 998.156311 273.34659 
L 999.132545 272.056282 
L 1003.190036 266.418316 
L 1003.719621 265.651767 
L 1007.074211 260.78035 
L 1009.282931 257.264415 
L 1010.644901 255.142383 
L 1014.002965 249.504417 
L 1014.846241 247.995163 
L 1017.260512 243.866451 
L 1020.177359 238.228485 
L 1020.409551 237.760289 
L 1023.157433 232.590519 
L 1025.751383 226.952553 
L 1025.972861 226.448003 
L 1028.445662 221.314587 
L 1030.804435 215.676621 
L 1031.536171 213.786513 
L 1033.166119 210.038655 
L 1035.356701 204.400689 
L 1037.099481 199.272988 
L 1037.298884 198.762722 
L 1039.373956 193.124756 
L 1041.17267 187.48679 
L 1042.662791 182.15372 
L 1042.763081 181.848824 
L 1044.492178 176.210858 
L 1045.991719 170.572892 
L 1047.296334 164.934926 
L 1048.226101 160.365261 
L 1048.488218 159.29696 
L 1049.728715 153.658994 
L 1050.788774 148.021028 
L 1051.687964 142.383061 
L 1052.440868 136.745095 
L 1053.057676 131.107129 
L 1053.544579 125.469163 
L 1053.789411 121.621984 
L 1053.930348 119.831197 
L 1054.210423 114.193231 
L 1054.323598 108.555265 
L 1054.262737 102.917299 
L 1054.015542 97.279333 
L 1053.789411 94.399861 
L 1053.59808 91.641367 
L 1053.013508 86.0034 
L 1052.192048 80.365434 
L 1051.090126 74.727468 
L 1049.651968 69.089502 
L 1048.226101 64.643771 
L 1047.83901 63.451536 
L 1045.650434 57.81357 
L 1042.834963 52.175604 
L 1042.662791 51.870708 
L 1039.240559 46.537638 
L 1037.099481 43.754254 
L 1034.366568 40.899672 
L 1031.536171 38.274138 
L 1026.980591 35.261706 
L 1025.972861 34.634051 
L 1020.409551 32.30159 
L 1014.846241 31.132994 
L 1009.282931 30.90308 
L 1003.719621 31.482798 
L 998.156311 32.818905 
L 992.593001 34.924821 
L 991.928108 35.261706 
L 987.029691 37.543081 
L 981.540714 40.899672 
L 981.466381 40.94228 
L 975.90307 44.777813 
L 973.761992 46.537638 
L 970.33976 49.273901 
L 967.192046 52.175604 
L 964.77645 54.384557 
L 961.420414 57.81357 
L 959.21314 60.094945 
L 956.22064 63.451536 
L 953.64983 66.426123 
L 951.469677 69.089502 
L 948.08652 73.43716 
L 947.110286 74.727468 
L 943.052795 80.365434 
L 942.52321 81.131983 
L 939.16862 86.0034 
L 936.9599 89.519335 
L 935.59793 91.641367 
L 932.239866 97.279333 
L 931.39659 98.788587 
L 928.982319 102.917299 
L 926.065472 108.555265 
L 925.83328 109.023461 
L 923.085398 114.193231 
L 920.491448 119.831197 
L 920.26997 120.335747 
L 917.797169 125.469163 
L 915.438395 131.107129 
L 914.70666 132.997237 
L 913.076712 136.745095 
L 910.88613 142.383061 
L 909.14335 147.510762 
L 908.943947 148.021028 
L 906.868875 153.658994 
L 905.070161 159.29696 
L 903.58004 164.63003 
L 903.47975 164.934926 
L 901.750653 170.572892 
L 900.251112 176.210858 
L 898.946497 181.848824 
L 898.016729 186.418489 
L 897.754613 187.48679 
L 896.514115 193.124756 
L 895.454057 198.762722 
L 894.554867 204.400689 
L 893.801963 210.038655 
L 893.185155 215.676621 
L 892.698252 221.314587 
L 892.453419 225.161766 
L 892.312483 226.952553 
L 892.032408 232.590519 
L 891.919233 238.228485 
L 891.980094 243.866451 
L 892.227289 249.504417 
L 892.453419 252.383889 
L 892.644751 255.142383 
L 893.229323 260.78035 
L 894.050783 266.418316 
L 895.152705 272.056282 
L 896.590863 277.694248 
L 898.016729 282.139979 
L 898.403821 283.332214 
L 900.592397 288.97018 
L 903.407868 294.608146 
L 903.58004 294.913042 
L 907.002271 300.246112 
L 909.14335 303.029496 
L 911.876263 305.884078 
L 914.70666 308.509612 
L 919.26224 311.522044 
L 920.26997 312.149699 
z
" clip-path="url(#p954498ef9b)" style="fill: none; stroke: #4c02a1; stroke-opacity: 0.85"/>
    <path d="M 942.52321 289.117031 
L 944.139829 288.97018 
L 948.08652 288.649142 
L 953.64983 287.285761 
L 959.21314 285.048062 
L 962.283328 283.332214 
L 964.77645 282.014969 
L 970.33976 278.21505 
L 970.975955 277.694248 
L 975.90307 273.737488 
L 977.688706 272.056282 
L 981.466381 268.498114 
L 983.41946 266.418316 
L 987.029691 262.496198 
L 988.473069 260.78035 
L 992.593001 255.684872 
L 993.00609 255.142383 
L 997.162486 249.504417 
L 998.156311 248.084895 
L 1001.013356 243.866451 
L 1003.719621 239.532996 
L 1004.52947 238.228485 
L 1007.842802 232.590519 
L 1009.282931 229.934433 
L 1010.931445 226.952553 
L 1013.78779 221.314587 
L 1014.846241 219.058366 
L 1016.504738 215.676621 
L 1019.014942 210.038655 
L 1020.409551 206.586149 
L 1021.355421 204.400689 
L 1023.599105 198.762722 
L 1025.573794 193.124756 
L 1025.972861 191.893062 
L 1027.539838 187.48679 
L 1029.319026 181.848824 
L 1030.881016 176.210858 
L 1031.536171 173.577485 
L 1032.376639 170.572892 
L 1033.770642 164.934926 
L 1034.971462 159.29696 
L 1035.9982 153.658994 
L 1036.86445 148.021028 
L 1037.099481 146.169934 
L 1037.653046 142.383061 
L 1038.295986 136.745095 
L 1038.757978 131.107129 
L 1039.037193 125.469163 
L 1039.126181 119.831197 
L 1039.01139 114.193231 
L 1038.672387 108.555265 
L 1038.080702 102.917299 
L 1037.198227 97.279333 
L 1037.099481 96.794882 
L 1036.034427 91.641367 
L 1034.462372 86.0034 
L 1032.379738 80.365434 
L 1031.536171 78.483008 
L 1029.604182 74.727468 
L 1025.972861 69.190801 
L 1025.888281 69.089502 
L 1020.409551 63.537251 
L 1020.284773 63.451536 
L 1014.846241 60.069791 
L 1009.282931 58.244025 
L 1005.135308 57.81357 
L 1003.719621 57.666719 
L 1002.103002 57.81357 
L 998.156311 58.134608 
L 992.593001 59.497989 
L 987.029691 61.735688 
L 983.959503 63.451536 
L 981.466381 64.768781 
L 975.90307 68.5687 
L 975.266876 69.089502 
L 970.33976 73.046262 
L 968.554125 74.727468 
L 964.77645 78.285636 
L 962.823371 80.365434 
L 959.21314 84.287552 
L 957.769762 86.0034 
L 953.64983 91.098878 
L 953.236741 91.641367 
L 949.080345 97.279333 
L 948.08652 98.698855 
L 945.229475 102.917299 
L 942.52321 107.250754 
L 941.713361 108.555265 
L 938.400029 114.193231 
L 936.9599 116.849317 
L 935.311386 119.831197 
L 932.455041 125.469163 
L 931.39659 127.725384 
L 929.738093 131.107129 
L 927.227889 136.745095 
L 925.83328 140.197601 
L 924.88741 142.383061 
L 922.643726 148.021028 
L 920.669037 153.658994 
L 920.26997 154.890688 
L 918.702993 159.29696 
L 916.923805 164.934926 
L 915.361815 170.572892 
L 914.70666 173.206265 
L 913.866192 176.210858 
L 912.472189 181.848824 
L 911.271369 187.48679 
L 910.244631 193.124756 
L 909.378381 198.762722 
L 909.14335 200.613816 
L 908.589784 204.400689 
L 907.946845 210.038655 
L 907.484853 215.676621 
L 907.205638 221.314587 
L 907.11665 226.952553 
L 907.231441 232.590519 
L 907.570444 238.228485 
L 908.162129 243.866451 
L 909.044603 249.504417 
L 909.14335 249.988868 
L 910.208404 255.142383 
L 911.780459 260.78035 
L 913.863093 266.418316 
L 914.70666 268.300742 
L 916.638649 272.056282 
L 920.26997 277.592949 
L 920.35455 277.694248 
L 925.83328 283.246499 
L 925.958058 283.332214 
L 931.39659 286.713959 
L 936.9599 288.539725 
L 941.107523 288.97018 
L 942.52321 289.117031 
z
" clip-path="url(#p954498ef9b)" style="fill: none; stroke: #7e03a8; stroke-opacity: 0.85"/>
    <path d="M 936.9599 267.432394 
L 942.52321 269.550681 
L 948.08652 270.123687 
L 953.64983 269.453526 
L 959.21314 267.695183 
L 961.75749 266.418316 
L 964.77645 264.975783 
L 970.33976 261.331483 
L 971.01528 260.78035 
L 975.90307 256.84107 
L 977.665496 255.142383 
L 981.466381 251.451719 
L 983.215972 249.504417 
L 987.029691 245.143319 
L 988.040294 243.866451 
L 992.319846 238.228485 
L 992.593001 237.856683 
L 996.201408 232.590519 
L 998.156311 229.533741 
L 999.74461 226.952553 
L 1002.973077 221.314587 
L 1003.719621 219.931573 
L 1005.990814 215.676621 
L 1008.71936 210.038655 
L 1009.282931 208.795156 
L 1011.305508 204.400689 
L 1013.641537 198.762722 
L 1014.846241 195.571669 
L 1015.809099 193.124756 
L 1017.82586 187.48679 
L 1019.609025 181.848824 
L 1020.409551 179.031632 
L 1021.265878 176.210858 
L 1022.780049 170.572892 
L 1024.087938 164.934926 
L 1025.206675 159.29696 
L 1025.972861 154.705262 
L 1026.163852 153.658994 
L 1026.993981 148.021028 
L 1027.619872 142.383061 
L 1028.039505 136.745095 
L 1028.244054 131.107129 
L 1028.217212 125.469163 
L 1027.934107 119.831197 
L 1027.359716 114.193231 
L 1026.446631 108.555265 
L 1025.972861 106.429279 
L 1025.121249 102.917299 
L 1023.262265 97.279333 
L 1020.731558 91.641367 
L 1020.409551 91.045875 
L 1016.941074 86.0034 
L 1014.846241 83.556488 
L 1010.772684 80.365434 
L 1009.282931 79.351356 
L 1003.719621 77.233069 
L 998.156311 76.660063 
L 992.593001 77.330224 
L 987.029691 79.088567 
L 984.485341 80.365434 
L 981.466381 81.807967 
L 975.90307 85.452267 
L 975.227551 86.0034 
L 970.33976 89.94268 
L 968.577335 91.641367 
L 964.77645 95.332031 
L 963.026858 97.279333 
L 959.21314 101.640431 
L 958.202536 102.917299 
L 953.922985 108.555265 
L 953.64983 108.927067 
L 950.041423 114.193231 
L 948.08652 117.250009 
L 946.498221 119.831197 
L 943.269754 125.469163 
L 942.52321 126.852177 
L 940.252017 131.107129 
L 937.523471 136.745095 
L 936.9599 137.988594 
L 934.937323 142.383061 
L 932.601294 148.021028 
L 931.39659 151.212081 
L 930.433732 153.658994 
L 928.416971 159.29696 
L 926.633806 164.934926 
L 925.83328 167.752118 
L 924.976952 170.572892 
L 923.462781 176.210858 
L 922.154893 181.848824 
L 921.036156 187.48679 
L 920.26997 192.078488 
L 920.078979 193.124756 
L 919.248849 198.762722 
L 918.622959 204.400689 
L 918.203326 210.038655 
L 917.998777 215.676621 
L 918.025619 221.314587 
L 918.308724 226.952553 
L 918.883115 232.590519 
L 919.7962 238.228485 
L 920.26997 240.354471 
L 921.121582 243.866451 
L 922.980566 249.504417 
L 925.511273 255.142383 
L 925.83328 255.737875 
L 929.301756 260.78035 
L 931.39659 263.227262 
L 935.470147 266.418316 
L 936.9599 267.432394 
z
" clip-path="url(#p954498ef9b)" style="fill: none; stroke: #aa2395; stroke-opacity: 0.85"/>
    <path d="M 942.52321 251.427072 
L 948.08652 253.559503 
L 953.64983 253.874178 
L 959.21314 252.762062 
L 964.77645 250.420054 
L 966.229771 249.504417 
L 970.33976 246.976407 
L 974.166456 243.866451 
L 975.90307 242.461123 
L 980.144744 238.228485 
L 981.466381 236.889113 
L 985.091661 232.590519 
L 987.029691 230.210198 
L 989.396356 226.952553 
L 992.593001 222.303865 
L 993.22299 221.314587 
L 996.628858 215.676621 
L 998.156311 212.966331 
L 999.731211 210.038655 
L 1002.530889 204.400689 
L 1003.719621 201.809423 
L 1005.092912 198.762722 
L 1007.407871 193.124756 
L 1009.282931 188.046761 
L 1009.491857 187.48679 
L 1011.401685 181.848824 
L 1013.07883 176.210858 
L 1014.544653 170.572892 
L 1014.846241 169.229923 
L 1015.843909 164.934926 
L 1016.930774 159.29696 
L 1017.797341 153.658994 
L 1018.44123 148.021028 
L 1018.851791 142.383061 
L 1019.009057 136.745095 
L 1018.882099 131.107129 
L 1018.426592 125.469163 
L 1017.581357 119.831197 
L 1016.263463 114.193231 
L 1014.846241 109.898233 
L 1014.300174 108.555265 
L 1011.256306 102.917299 
L 1009.282931 100.132911 
L 1006.224978 97.279333 
L 1003.719621 95.356678 
L 998.156311 93.224247 
L 992.593001 92.909572 
L 987.029691 94.021688 
L 981.466381 96.363696 
L 980.01306 97.279333 
L 975.90307 99.807343 
L 972.076375 102.917299 
L 970.33976 104.322627 
L 966.098087 108.555265 
L 964.77645 109.894637 
L 961.15117 114.193231 
L 959.21314 116.573552 
L 956.846474 119.831197 
L 953.64983 124.479885 
L 953.019841 125.469163 
L 949.613972 131.107129 
L 948.08652 133.817419 
L 946.51162 136.745095 
L 943.711942 142.383061 
L 942.52321 144.974327 
L 941.149919 148.021028 
L 938.834959 153.658994 
L 936.9599 158.736989 
L 936.750974 159.29696 
L 934.841146 164.934926 
L 933.164001 170.572892 
L 931.698178 176.210858 
L 931.39659 177.553827 
L 930.398922 181.848824 
L 929.312056 187.48679 
L 928.44549 193.124756 
L 927.801601 198.762722 
L 927.39104 204.400689 
L 927.233773 210.038655 
L 927.360732 215.676621 
L 927.816239 221.314587 
L 928.661474 226.952553 
L 929.979368 232.590519 
L 931.39659 236.885517 
L 931.942657 238.228485 
L 934.986525 243.866451 
L 936.9599 246.650839 
L 940.017853 249.504417 
L 942.52321 251.427072 
z
" clip-path="url(#p954498ef9b)" style="fill: none; stroke: #cc4778; stroke-opacity: 0.85"/>
    <path d="M 953.64983 238.541436 
L 959.21314 238.400301 
L 959.728664 238.228485 
L 964.77645 236.602631 
L 970.33976 233.414297 
L 971.356525 232.590519 
L 975.90307 228.89949 
L 977.789487 226.952553 
L 981.466381 223.073812 
L 982.864141 221.314587 
L 987.029691 215.848437 
L 987.144995 215.676621 
L 990.742589 210.038655 
L 992.593001 206.944608 
L 993.981409 204.400689 
L 996.828401 198.762722 
L 998.156311 195.907846 
L 999.377539 193.124756 
L 1001.615939 187.48679 
L 1003.620867 181.848824 
L 1003.719621 181.534936 
L 1005.343564 176.210858 
L 1006.81883 170.572892 
L 1008.055992 164.934926 
L 1009.052074 159.29696 
L 1009.282931 157.496237 
L 1009.770894 153.658994 
L 1010.19619 148.021028 
L 1010.307209 142.383061 
L 1010.06154 136.745095 
L 1009.398235 131.107129 
L 1009.282931 130.511018 
L 1008.081223 125.469163 
L 1005.965327 119.831197 
L 1003.719621 115.685281 
L 1002.475503 114.193231 
L 998.156311 110.276711 
L 993.58185 108.555265 
L 992.593001 108.242314 
L 987.029691 108.383449 
L 986.514167 108.555265 
L 981.466381 110.181119 
L 975.90307 113.369453 
L 974.886305 114.193231 
L 970.33976 117.88426 
L 968.453344 119.831197 
L 964.77645 123.709938 
L 963.378689 125.469163 
L 959.21314 130.935313 
L 959.097836 131.107129 
L 955.500242 136.745095 
L 953.64983 139.839142 
L 952.261422 142.383061 
L 949.41443 148.021028 
L 948.08652 150.875904 
L 946.865291 153.658994 
L 944.626892 159.29696 
L 942.621964 164.934926 
L 942.52321 165.248814 
L 940.899267 170.572892 
L 939.424001 176.210858 
L 938.186839 181.848824 
L 937.190757 187.48679 
L 936.9599 189.287513 
L 936.471937 193.124756 
L 936.046641 198.762722 
L 935.935622 204.400689 
L 936.181291 210.038655 
L 936.844596 215.676621 
L 936.9599 216.272732 
L 938.161608 221.314587 
L 940.277504 226.952553 
L 942.52321 231.098469 
L 943.767328 232.590519 
L 948.08652 236.507039 
L 952.660981 238.228485 
L 953.64983 238.541436 
z
" clip-path="url(#p954498ef9b)" style="fill: none; stroke: #e66c5c; stroke-opacity: 0.85"/>
    <path d="M 959.21314 222.816343 
L 964.77645 222.076773 
L 966.29556 221.314587 
L 970.33976 219.296946 
L 974.835769 215.676621 
L 975.90307 214.804641 
L 980.160783 210.038655 
L 981.466381 208.52558 
L 984.320646 204.400689 
L 987.029691 200.264479 
L 987.871619 198.762722 
L 990.778588 193.124756 
L 992.593001 189.290527 
L 993.354975 187.48679 
L 995.460102 181.848824 
L 997.307722 176.210858 
L 998.156311 173.139853 
L 998.809028 170.572892 
L 999.926639 164.934926 
L 1000.72224 159.29696 
L 1001.155224 153.658994 
L 1001.161136 148.021028 
L 1000.643199 142.383061 
L 999.459116 136.745095 
L 998.156311 133.03625 
L 997.089009 131.107129 
L 992.593001 125.86672 
L 991.65435 125.469163 
L 987.029691 123.967407 
L 981.466381 124.706977 
L 979.94727 125.469163 
L 975.90307 127.486804 
L 971.407062 131.107129 
L 970.33976 131.979109 
L 966.082048 136.745095 
L 964.77645 138.25817 
L 961.922185 142.383061 
L 959.21314 146.519271 
L 958.371212 148.021028 
L 955.464243 153.658994 
L 953.64983 157.493223 
L 952.887856 159.29696 
L 950.782729 164.934926 
L 948.935109 170.572892 
L 948.08652 173.643897 
L 947.433803 176.210858 
L 946.316192 181.848824 
L 945.520591 187.48679 
L 945.087607 193.124756 
L 945.081695 198.762722 
L 945.599632 204.400689 
L 946.783715 210.038655 
L 948.08652 213.7475 
L 949.153821 215.676621 
L 953.64983 220.91703 
L 954.588481 221.314587 
L 959.21314 222.816343 
z
" clip-path="url(#p954498ef9b)" style="fill: none; stroke: #f89540; stroke-opacity: 0.85"/>
    <path d="M 959.21314 200.337187 
L 964.77645 203.566712 
L 970.33976 202.012473 
L 974.420733 198.762722 
L 975.90307 197.537631 
L 979.225127 193.124756 
L 981.466381 189.967591 
L 982.771358 187.48679 
L 985.387408 181.848824 
L 987.029691 177.785323 
L 987.538459 176.210858 
L 988.903736 170.572892 
L 989.805755 164.934926 
L 990.113095 159.29696 
L 989.604233 153.658994 
L 987.901209 148.021028 
L 987.029691 146.446563 
L 981.466381 143.217038 
L 975.90307 144.771277 
L 971.822097 148.021028 
L 970.33976 149.246119 
L 967.017703 153.658994 
L 964.77645 156.816159 
L 963.471473 159.29696 
L 960.855422 164.934926 
L 959.21314 168.998427 
L 958.704371 170.572892 
L 957.339095 176.210858 
L 956.437076 181.848824 
L 956.129736 187.48679 
L 956.638598 193.124756 
L 958.341622 198.762722 
L 959.21314 200.337187 
z
" clip-path="url(#p954498ef9b)" style="fill: none; stroke: #fdc527; stroke-opacity: 0.85"/>
    <path clip-path="url(#p954498ef9b)" style="fill: none; stroke: #f0f921; stroke-opacity: 0.85"/>
   </g>
   <g id="patch_13">
    <path d="M 809.003768 339.711875 
L 809.003768 7.071875 
" style="fill: none; stroke: #7f7f7f; stroke-width: 0.8; stroke-linejoin: miter; stroke-linecap: square"/>
   </g>
   <g id="patch_14">
    <path d="M 1137.239063 339.711875 
L 1137.239063 7.071875 
" style="fill: none; stroke: #7f7f7f; stroke-width: 0.8; stroke-linejoin: miter; stroke-linecap: square"/>
   </g>
   <g id="patch_15">
    <path d="M 809.003768 339.711875 
L 1137.239063 339.711875 
" style="fill: none; stroke: #7f7f7f; stroke-width: 0.8; stroke-linejoin: miter; stroke-linecap: square"/>
   </g>
   <g id="patch_16">
    <path d="M 809.003768 7.071875 
L 1137.239063 7.071875 
" style="fill: none; stroke: #7f7f7f; stroke-width: 0.8; stroke-linejoin: miter; stroke-linecap: square"/>
   </g>
  </g>
 </g>
 <defs>
  <clipPath id="p6c9cdac866">
   <rect x="21.239062" y="7.071875" width="328.235294" height="332.64"/>
  </clipPath>
  <clipPath id="p543735c467">
   <rect x="415.121415" y="7.071875" width="328.235294" height="332.64"/>
  </clipPath>
  <clipPath id="p954498ef9b">
   <rect x="809.003768" y="7.071875" width="328.235294" height="332.64"/>
  </clipPath>
 </defs>
</svg>
