<?xml version="1.0" encoding="utf-8" standalone="no"?>
<!DOCTYPE svg PUBLIC "-//W3C//DTD SVG 1.1//EN"
  "http://www.w3.org/Graphics/SVG/1.1/DTD/svg11.dtd">
<svg xmlns:xlink="http://www.w3.org/1999/xlink" width="1425.581063pt" height="417.626687pt" viewBox="0 0 1425.581063 417.626687" xmlns="http://www.w3.org/2000/svg" version="1.1">
 <metadata>
  <rdf:RDF xmlns:dc="http://purl.org/dc/elements/1.1/" xmlns:cc="http://creativecommons.org/ns#" xmlns:rdf="http://www.w3.org/1999/02/22-rdf-syntax-ns#">
   <cc:Work>
    <dc:type rdf:resource="http://purl.org/dc/dcmitype/StillImage"/>
    <dc:date>2025-09-30T01:23:26.493978</dc:date>
    <dc:format>image/svg+xml</dc:format>
    <dc:creator>
     <cc:Agent>
      <dc:title>Matplotlib v3.10.0, https://matplotlib.org/</dc:title>
     </cc:Agent>
    </dc:creator>
   </cc:Work>
  </rdf:RDF>
 </metadata>
 <defs>
  <style type="text/css">*{stroke-linejoin: round; stroke-linecap: butt}</style>
 </defs>
 <g id="figure_1">
  <g id="patch_1">
   <path d="M 0 417.626687 
L 1425.581063 417.626687 
L 1425.581063 0 
L 0 0 
z
" style="fill: #ffffff"/>
  </g>
  <g id="axes_1">
   <g id="patch_2">
    <path d="M 21.239063 397.943875 
L 466.681062 397.943875 
L 466.681062 7.071875 
L 21.239063 7.071875 
z
" style="fill: #ffffff"/>
   </g>
   <g id="matplotlib.axis_1">
    <g id="xtick_1">
     <g id="line2d_1">
      <defs>
       <path id="m81746336fd" d="M 0 0 
L 0 3.5 
" style="stroke: #000000; stroke-width: 0.8"/>
      </defs>
      <g>
       <use xlink:href="#m81746336fd" x="21.239063" y="397.943875" style="stroke: #000000; stroke-width: 0.8"/>
      </g>
     </g>
     <g id="text_1">
      <!-- −3 -->
      <g transform="translate(15.919531 411.887625) scale(0.1 -0.1)">
       <defs>
        <path id="TimesNewRomanPSMT-2212" d="M 3484 2000 
L 116 2000 
L 116 2256 
L 3484 2256 
L 3484 2000 
z
" transform="scale(0.015625)"/>
        <path id="TimesNewRomanPSMT-33" d="M 325 3431 
Q 506 3859 782 4092 
Q 1059 4325 1472 4325 
Q 1981 4325 2253 3994 
Q 2459 3747 2459 3466 
Q 2459 3003 1878 2509 
Q 2269 2356 2469 2072 
Q 2669 1788 2669 1403 
Q 2669 853 2319 450 
Q 1863 -75 997 -75 
Q 569 -75 414 31 
Q 259 138 259 259 
Q 259 350 332 419 
Q 406 488 509 488 
Q 588 488 669 463 
Q 722 447 909 348 
Q 1097 250 1169 231 
Q 1284 197 1416 197 
Q 1734 197 1970 444 
Q 2206 691 2206 1028 
Q 2206 1275 2097 1509 
Q 2016 1684 1919 1775 
Q 1784 1900 1550 2001 
Q 1316 2103 1072 2103 
L 972 2103 
L 972 2197 
Q 1219 2228 1467 2375 
Q 1716 2522 1828 2728 
Q 1941 2934 1941 3181 
Q 1941 3503 1739 3701 
Q 1538 3900 1238 3900 
Q 753 3900 428 3381 
L 325 3431 
z
" transform="scale(0.015625)"/>
       </defs>
       <use xlink:href="#TimesNewRomanPSMT-2212"/>
       <use xlink:href="#TimesNewRomanPSMT-33" transform="translate(56.396484 0)"/>
      </g>
     </g>
    </g>
    <g id="xtick_2">
     <g id="line2d_2">
      <g>
       <use xlink:href="#m81746336fd" x="95.479396" y="397.943875" style="stroke: #000000; stroke-width: 0.8"/>
      </g>
     </g>
     <g id="text_2">
      <!-- −2 -->
      <g transform="translate(90.159865 411.887625) scale(0.1 -0.1)">
       <defs>
        <path id="TimesNewRomanPSMT-32" d="M 2934 816 
L 2638 0 
L 138 0 
L 138 116 
Q 1241 1122 1691 1759 
Q 2141 2397 2141 2925 
Q 2141 3328 1894 3587 
Q 1647 3847 1303 3847 
Q 991 3847 742 3664 
Q 494 3481 375 3128 
L 259 3128 
Q 338 3706 661 4015 
Q 984 4325 1469 4325 
Q 1984 4325 2329 3994 
Q 2675 3663 2675 3213 
Q 2675 2891 2525 2569 
Q 2294 2063 1775 1497 
Q 997 647 803 472 
L 1909 472 
Q 2247 472 2383 497 
Q 2519 522 2628 598 
Q 2738 675 2819 816 
L 2934 816 
z
" transform="scale(0.015625)"/>
       </defs>
       <use xlink:href="#TimesNewRomanPSMT-2212"/>
       <use xlink:href="#TimesNewRomanPSMT-32" transform="translate(56.396484 0)"/>
      </g>
     </g>
    </g>
    <g id="xtick_3">
     <g id="line2d_3">
      <g>
       <use xlink:href="#m81746336fd" x="169.719729" y="397.943875" style="stroke: #000000; stroke-width: 0.8"/>
      </g>
     </g>
     <g id="text_3">
      <!-- −1 -->
      <g transform="translate(164.400198 411.887625) scale(0.1 -0.1)">
       <defs>
        <path id="TimesNewRomanPSMT-31" d="M 750 3822 
L 1781 4325 
L 1884 4325 
L 1884 747 
Q 1884 391 1914 303 
Q 1944 216 2037 169 
Q 2131 122 2419 116 
L 2419 0 
L 825 0 
L 825 116 
Q 1125 122 1212 167 
Q 1300 213 1334 289 
Q 1369 366 1369 747 
L 1369 3034 
Q 1369 3497 1338 3628 
Q 1316 3728 1258 3775 
Q 1200 3822 1119 3822 
Q 1003 3822 797 3725 
L 750 3822 
z
" transform="scale(0.015625)"/>
       </defs>
       <use xlink:href="#TimesNewRomanPSMT-2212"/>
       <use xlink:href="#TimesNewRomanPSMT-31" transform="translate(56.396484 0)"/>
      </g>
     </g>
    </g>
    <g id="xtick_4">
     <g id="line2d_4">
      <g>
       <use xlink:href="#m81746336fd" x="243.960062" y="397.943875" style="stroke: #000000; stroke-width: 0.8"/>
      </g>
     </g>
     <g id="text_4">
      <!-- 0 -->
      <g transform="translate(241.460062 411.887625) scale(0.1 -0.1)">
       <defs>
        <path id="TimesNewRomanPSMT-30" d="M 231 2094 
Q 231 2819 450 3342 
Q 669 3866 1031 4122 
Q 1313 4325 1613 4325 
Q 2100 4325 2488 3828 
Q 2972 3213 2972 2159 
Q 2972 1422 2759 906 
Q 2547 391 2217 158 
Q 1888 -75 1581 -75 
Q 975 -75 572 641 
Q 231 1244 231 2094 
z
M 844 2016 
Q 844 1141 1059 588 
Q 1238 122 1591 122 
Q 1759 122 1940 273 
Q 2122 425 2216 781 
Q 2359 1319 2359 2297 
Q 2359 3022 2209 3506 
Q 2097 3866 1919 4016 
Q 1791 4119 1609 4119 
Q 1397 4119 1231 3928 
Q 1006 3669 925 3112 
Q 844 2556 844 2016 
z
" transform="scale(0.015625)"/>
       </defs>
       <use xlink:href="#TimesNewRomanPSMT-30"/>
      </g>
     </g>
    </g>
    <g id="xtick_5">
     <g id="line2d_5">
      <g>
       <use xlink:href="#m81746336fd" x="318.200396" y="397.943875" style="stroke: #000000; stroke-width: 0.8"/>
      </g>
     </g>
     <g id="text_5">
      <!-- 1 -->
      <g transform="translate(315.700396 411.887625) scale(0.1 -0.1)">
       <use xlink:href="#TimesNewRomanPSMT-31"/>
      </g>
     </g>
    </g>
    <g id="xtick_6">
     <g id="line2d_6">
      <g>
       <use xlink:href="#m81746336fd" x="392.440729" y="397.943875" style="stroke: #000000; stroke-width: 0.8"/>
      </g>
     </g>
     <g id="text_6">
      <!-- 2 -->
      <g transform="translate(389.940729 411.887625) scale(0.1 -0.1)">
       <use xlink:href="#TimesNewRomanPSMT-32"/>
      </g>
     </g>
    </g>
    <g id="xtick_7">
     <g id="line2d_7">
      <g>
       <use xlink:href="#m81746336fd" x="466.681062" y="397.943875" style="stroke: #000000; stroke-width: 0.8"/>
      </g>
     </g>
     <g id="text_7">
      <!-- 3 -->
      <g transform="translate(464.181062 411.887625) scale(0.1 -0.1)">
       <use xlink:href="#TimesNewRomanPSMT-33"/>
      </g>
     </g>
    </g>
   </g>
   <g id="matplotlib.axis_2">
    <g id="ytick_1">
     <g id="line2d_8">
      <defs>
       <path id="m655afa8b19" d="M 0 0 
L -3.5 0 
" style="stroke: #000000; stroke-width: 0.8"/>
      </defs>
      <g>
       <use xlink:href="#m655afa8b19" x="21.239063" y="397.943875" style="stroke: #000000; stroke-width: 0.8"/>
      </g>
     </g>
     <g id="text_8">
      <!-- −3 -->
      <g transform="translate(3.6 401.41575) scale(0.1 -0.1)">
       <use xlink:href="#TimesNewRomanPSMT-2212"/>
       <use xlink:href="#TimesNewRomanPSMT-33" transform="translate(56.396484 0)"/>
      </g>
     </g>
    </g>
    <g id="ytick_2">
     <g id="line2d_9">
      <g>
       <use xlink:href="#m655afa8b19" x="21.239063" y="332.798542" style="stroke: #000000; stroke-width: 0.8"/>
      </g>
     </g>
     <g id="text_9">
      <!-- −2 -->
      <g transform="translate(3.6 336.270417) scale(0.1 -0.1)">
       <use xlink:href="#TimesNewRomanPSMT-2212"/>
       <use xlink:href="#TimesNewRomanPSMT-32" transform="translate(56.396484 0)"/>
      </g>
     </g>
    </g>
    <g id="ytick_3">
     <g id="line2d_10">
      <g>
       <use xlink:href="#m655afa8b19" x="21.239063" y="267.653208" style="stroke: #000000; stroke-width: 0.8"/>
      </g>
     </g>
     <g id="text_10">
      <!-- −1 -->
      <g transform="translate(3.6 271.125083) scale(0.1 -0.1)">
       <use xlink:href="#TimesNewRomanPSMT-2212"/>
       <use xlink:href="#TimesNewRomanPSMT-31" transform="translate(56.396484 0)"/>
      </g>
     </g>
    </g>
    <g id="ytick_4">
     <g id="line2d_11">
      <g>
       <use xlink:href="#m655afa8b19" x="21.239063" y="202.507875" style="stroke: #000000; stroke-width: 0.8"/>
      </g>
     </g>
     <g id="text_11">
      <!-- 0 -->
      <g transform="translate(9.239063 205.97975) scale(0.1 -0.1)">
       <use xlink:href="#TimesNewRomanPSMT-30"/>
      </g>
     </g>
    </g>
    <g id="ytick_5">
     <g id="line2d_12">
      <g>
       <use xlink:href="#m655afa8b19" x="21.239063" y="137.362542" style="stroke: #000000; stroke-width: 0.8"/>
      </g>
     </g>
     <g id="text_12">
      <!-- 1 -->
      <g transform="translate(9.239063 140.834417) scale(0.1 -0.1)">
       <use xlink:href="#TimesNewRomanPSMT-31"/>
      </g>
     </g>
    </g>
    <g id="ytick_6">
     <g id="line2d_13">
      <g>
       <use xlink:href="#m655afa8b19" x="21.239063" y="72.217208" style="stroke: #000000; stroke-width: 0.8"/>
      </g>
     </g>
     <g id="text_13">
      <!-- 2 -->
      <g transform="translate(9.239063 75.689083) scale(0.1 -0.1)">
       <use xlink:href="#TimesNewRomanPSMT-32"/>
      </g>
     </g>
    </g>
    <g id="ytick_7">
     <g id="line2d_14">
      <g>
       <use xlink:href="#m655afa8b19" x="21.239063" y="7.071875" style="stroke: #000000; stroke-width: 0.8"/>
      </g>
     </g>
     <g id="text_14">
      <!-- 3 -->
      <g transform="translate(9.239063 10.54375) scale(0.1 -0.1)">
       <use xlink:href="#TimesNewRomanPSMT-33"/>
      </g>
     </g>
    </g>
   </g>
   <g id="QuadContourSet_1">
    <path clip-path="url(#p2739d8b509)" style="fill: none; stroke: #000080; stroke-opacity: 0.85"/>
    <path d="M 209.985673 293.534325 
L 217.535537 295.494437 
L 225.085401 296.869063 
L 232.635266 297.742571 
L 240.18513 298.166937 
L 247.734995 298.166937 
L 255.284859 297.742571 
L 262.834724 296.869063 
L 270.384588 295.494437 
L 277.934452 293.534325 
L 282.600167 291.944689 
L 285.484317 291.045061 
L 293.034181 288.081884 
L 298.563759 285.319739 
L 300.584046 284.335389 
L 308.13391 279.926938 
L 309.954867 278.69479 
L 315.683774 274.662217 
L 318.903566 272.069841 
L 323.233639 268.270235 
L 326.187939 265.444892 
L 330.783503 260.417819 
L 332.187672 258.819943 
L 337.211592 252.194994 
L 338.333368 250.422207 
L 341.481138 245.570044 
L 344.858006 238.945095 
L 345.883232 236.414276 
L 347.694799 232.320146 
L 349.928564 225.695197 
L 351.495103 219.070248 
L 352.490562 212.445299 
L 352.974174 205.82035 
L 352.974174 199.1954 
L 352.490562 192.570451 
L 351.495103 185.945502 
L 349.928564 179.320553 
L 347.694799 172.695604 
L 345.883232 168.601474 
L 344.858006 166.070655 
L 341.481138 159.445706 
L 338.333368 154.593543 
L 337.211592 152.820756 
L 332.187672 146.195807 
L 330.783503 144.597931 
L 326.187939 139.570858 
L 323.233639 136.745515 
L 318.903566 132.945909 
L 315.683774 130.353533 
L 309.954867 126.32096 
L 308.13391 125.088812 
L 300.584046 120.680361 
L 298.563759 119.696011 
L 293.034181 116.933866 
L 285.484317 113.970689 
L 282.600167 113.071061 
L 277.934452 111.481425 
L 270.384588 109.521313 
L 262.834724 108.146687 
L 255.284859 107.273179 
L 247.734995 106.848813 
L 240.18513 106.848813 
L 232.635266 107.273179 
L 225.085401 108.146687 
L 217.535537 109.521313 
L 209.985673 111.481425 
L 205.319958 113.071061 
L 202.435808 113.970689 
L 194.885944 116.933866 
L 189.356366 119.696011 
L 187.336079 120.680361 
L 179.786215 125.088812 
L 177.965258 126.32096 
L 172.236351 130.353533 
L 169.016559 132.945909 
L 164.686486 136.745515 
L 161.732186 139.570858 
L 157.136622 144.597931 
L 155.732453 146.195807 
L 150.708533 152.820756 
L 149.586757 154.593543 
L 146.438987 159.445706 
L 143.062119 166.070655 
L 142.036893 168.601474 
L 140.225326 172.695604 
L 137.991561 179.320553 
L 136.425022 185.945502 
L 135.429563 192.570451 
L 134.945951 199.1954 
L 134.945951 205.82035 
L 135.429563 212.445299 
L 136.425022 219.070248 
L 137.991561 225.695197 
L 140.225326 232.320146 
L 142.036893 236.414276 
L 143.062119 238.945095 
L 146.438987 245.570044 
L 149.586757 250.422207 
L 150.708533 252.194994 
L 155.732453 258.819943 
L 157.136622 260.417819 
L 161.732186 265.444892 
L 164.686486 268.270235 
L 169.016559 272.069841 
L 172.236351 274.662217 
L 177.965258 278.69479 
L 179.786215 279.926938 
L 187.336079 284.335389 
L 189.356366 285.319739 
L 194.885944 288.081884 
L 202.435808 291.045061 
L 205.319958 291.944689 
L 209.985673 293.534325 
z
" clip-path="url(#p2739d8b509)" style="fill: none; stroke: #0000ff; stroke-opacity: 0.85"/>
    <path d="M 232.635266 279.209912 
L 240.18513 279.812207 
L 247.734995 279.812207 
L 255.284859 279.209912 
L 258.492307 278.69479 
L 262.834724 278.060325 
L 270.384588 276.352105 
L 277.934452 273.916314 
L 282.311759 272.069841 
L 285.484317 270.744487 
L 293.034181 266.76124 
L 295.118152 265.444892 
L 300.584046 261.787004 
L 304.352729 258.819943 
L 308.13391 255.501985 
L 311.515205 252.194994 
L 315.683774 247.398713 
L 317.183899 245.570044 
L 321.723251 238.945095 
L 323.233639 236.161199 
L 325.3379 232.320146 
L 328.113754 225.695197 
L 330.06046 219.070248 
L 330.783503 215.25981 
L 331.370542 212.445299 
L 332.056924 205.82035 
L 332.056924 199.1954 
L 331.370542 192.570451 
L 330.783503 189.75594 
L 330.06046 185.945502 
L 328.113754 179.320553 
L 325.3379 172.695604 
L 323.233639 168.854551 
L 321.723251 166.070655 
L 317.183899 159.445706 
L 315.683774 157.617037 
L 311.515205 152.820756 
L 308.13391 149.513765 
L 304.352729 146.195807 
L 300.584046 143.228746 
L 295.118152 139.570858 
L 293.034181 138.25451 
L 285.484317 134.271263 
L 282.311759 132.945909 
L 277.934452 131.099436 
L 270.384588 128.663645 
L 262.834724 126.955425 
L 258.492307 126.32096 
L 255.284859 125.805838 
L 247.734995 125.203543 
L 240.18513 125.203543 
L 232.635266 125.805838 
L 229.427818 126.32096 
L 225.085401 126.955425 
L 217.535537 128.663645 
L 209.985673 131.099436 
L 205.608366 132.945909 
L 202.435808 134.271263 
L 194.885944 138.25451 
L 192.801973 139.570858 
L 187.336079 143.228746 
L 183.567396 146.195807 
L 179.786215 149.513765 
L 176.40492 152.820756 
L 172.236351 157.617037 
L 170.736226 159.445706 
L 166.196874 166.070655 
L 164.686486 168.854551 
L 162.582225 172.695604 
L 159.806371 179.320553 
L 157.859665 185.945502 
L 157.136622 189.75594 
L 156.549583 192.570451 
L 155.863201 199.1954 
L 155.863201 205.82035 
L 156.549583 212.445299 
L 157.136622 215.25981 
L 157.859665 219.070248 
L 159.806371 225.695197 
L 162.582225 232.320146 
L 164.686486 236.161199 
L 166.196874 238.945095 
L 170.736226 245.570044 
L 172.236351 247.398713 
L 176.40492 252.194994 
L 179.786215 255.501985 
L 183.567396 258.819943 
L 187.336079 261.787004 
L 192.801973 265.444892 
L 194.885944 266.76124 
L 202.435808 270.744487 
L 205.608366 272.069841 
L 209.985673 273.916314 
L 217.535537 276.352105 
L 225.085401 278.060325 
L 229.427818 278.69479 
L 232.635266 279.209912 
z
" clip-path="url(#p2739d8b509)" style="fill: none; stroke: #0080ff; stroke-opacity: 0.85"/>
    <path d="M 232.635266 265.928767 
L 240.18513 266.640619 
L 247.734995 266.640619 
L 255.284859 265.928767 
L 257.842425 265.444892 
L 262.834724 264.535587 
L 270.384588 262.399091 
L 277.934452 259.352612 
L 278.986956 258.819943 
L 285.484317 255.359549 
L 290.203604 252.194994 
L 293.034181 250.086722 
L 298.181436 245.570044 
L 300.584046 243.086235 
L 304.190408 238.945095 
L 308.13391 233.24371 
L 308.740946 232.320146 
L 312.212747 225.695197 
L 314.647521 219.070248 
L 315.683774 214.689543 
L 316.235203 212.445299 
L 317.046438 205.82035 
L 317.046438 199.1954 
L 316.235203 192.570451 
L 315.683774 190.326207 
L 314.647521 185.945502 
L 312.212747 179.320553 
L 308.740946 172.695604 
L 308.13391 171.77204 
L 304.190408 166.070655 
L 300.584046 161.929515 
L 298.181436 159.445706 
L 293.034181 154.929028 
L 290.203604 152.820756 
L 285.484317 149.656201 
L 278.986956 146.195807 
L 277.934452 145.663138 
L 270.384588 142.616659 
L 262.834724 140.480163 
L 257.842425 139.570858 
L 255.284859 139.086983 
L 247.734995 138.375131 
L 240.18513 138.375131 
L 232.635266 139.086983 
L 230.0777 139.570858 
L 225.085401 140.480163 
L 217.535537 142.616659 
L 209.985673 145.663138 
L 208.933169 146.195807 
L 202.435808 149.656201 
L 197.716521 152.820756 
L 194.885944 154.929028 
L 189.738689 159.445706 
L 187.336079 161.929515 
L 183.729717 166.070655 
L 179.786215 171.77204 
L 179.179179 172.695604 
L 175.707378 179.320553 
L 173.272604 185.945502 
L 172.236351 190.326207 
L 171.684922 192.570451 
L 170.873687 199.1954 
L 170.873687 205.82035 
L 171.684922 212.445299 
L 172.236351 214.689543 
L 173.272604 219.070248 
L 175.707378 225.695197 
L 179.179179 232.320146 
L 179.786215 233.24371 
L 183.729717 238.945095 
L 187.336079 243.086235 
L 189.738689 245.570044 
L 194.885944 250.086722 
L 197.716521 252.194994 
L 202.435808 255.359549 
L 208.933169 258.819943 
L 209.985673 259.352612 
L 217.535537 262.399091 
L 225.085401 264.535587 
L 230.0777 265.444892 
L 232.635266 265.928767 
z
" clip-path="url(#p2739d8b509)" style="fill: none; stroke: #16ffe1; stroke-opacity: 0.85"/>
    <path d="M 225.085401 252.769887 
L 232.635266 254.500858 
L 240.18513 255.341796 
L 247.734995 255.341796 
L 255.284859 254.500858 
L 262.834724 252.769887 
L 264.501524 252.194994 
L 270.384588 250.067002 
L 277.934452 246.220953 
L 278.953621 245.570044 
L 285.484317 240.840821 
L 287.644706 238.945095 
L 293.034181 233.214459 
L 293.775963 232.320146 
L 298.158963 225.695197 
L 300.584046 220.532853 
L 301.2392 219.070248 
L 303.211834 212.445299 
L 304.170176 205.82035 
L 304.170176 199.1954 
L 303.211834 192.570451 
L 301.2392 185.945502 
L 300.584046 184.482897 
L 298.158963 179.320553 
L 293.775963 172.695604 
L 293.034181 171.801291 
L 287.644706 166.070655 
L 285.484317 164.174929 
L 278.953621 159.445706 
L 277.934452 158.794797 
L 270.384588 154.948748 
L 264.501524 152.820756 
L 262.834724 152.245863 
L 255.284859 150.514892 
L 247.734995 149.673954 
L 240.18513 149.673954 
L 232.635266 150.514892 
L 225.085401 152.245863 
L 223.418601 152.820756 
L 217.535537 154.948748 
L 209.985673 158.794797 
L 208.966504 159.445706 
L 202.435808 164.174929 
L 200.275419 166.070655 
L 194.885944 171.801291 
L 194.144162 172.695604 
L 189.761162 179.320553 
L 187.336079 184.482897 
L 186.680925 185.945502 
L 184.708291 192.570451 
L 183.749949 199.1954 
L 183.749949 205.82035 
L 184.708291 212.445299 
L 186.680925 219.070248 
L 187.336079 220.532853 
L 189.761162 225.695197 
L 194.144162 232.320146 
L 194.885944 233.214459 
L 200.275419 238.945095 
L 202.435808 240.840821 
L 208.966504 245.570044 
L 209.985673 246.220953 
L 217.535537 250.067002 
L 223.418601 252.194994 
L 225.085401 252.769887 
z
" clip-path="url(#p2739d8b509)" style="fill: none; stroke: #7dff7a; stroke-opacity: 0.85"/>
    <path d="M 225.085401 241.234252 
L 232.635266 243.441649 
L 240.18513 244.514043 
L 247.734995 244.514043 
L 255.284859 243.441649 
L 262.834724 241.234252 
L 267.906558 238.945095 
L 270.384588 237.665485 
L 277.927567 232.320146 
L 277.934452 232.314104 
L 284.026059 225.695197 
L 285.484317 223.520744 
L 288.093064 219.070248 
L 290.608638 212.445299 
L 291.83075 205.82035 
L 291.83075 199.1954 
L 290.608638 192.570451 
L 288.093064 185.945502 
L 285.484317 181.495006 
L 284.026059 179.320553 
L 277.934452 172.701646 
L 277.927567 172.695604 
L 270.384588 167.350265 
L 267.906558 166.070655 
L 262.834724 163.781498 
L 255.284859 161.574101 
L 247.734995 160.501707 
L 240.18513 160.501707 
L 232.635266 161.574101 
L 225.085401 163.781498 
L 220.013567 166.070655 
L 217.535537 167.350265 
L 209.992558 172.695604 
L 209.985673 172.701646 
L 203.894066 179.320553 
L 202.435808 181.495006 
L 199.827061 185.945502 
L 197.311487 192.570451 
L 196.089375 199.1954 
L 196.089375 205.82035 
L 197.311487 212.445299 
L 199.827061 219.070248 
L 202.435808 223.520744 
L 203.894066 225.695197 
L 209.985673 232.314104 
L 209.992558 232.320146 
L 217.535537 237.665485 
L 220.013567 238.945095 
L 225.085401 241.234252 
z
" clip-path="url(#p2739d8b509)" style="fill: none; stroke: #e4ff13; stroke-opacity: 0.85"/>
    <path d="M 240.18513 232.978912 
L 247.734995 232.978912 
L 251.348946 232.320146 
L 255.284859 231.481356 
L 262.834724 228.199562 
L 266.604196 225.695197 
L 270.384588 222.377932 
L 273.238589 219.070248 
L 276.978558 212.445299 
L 277.934452 208.991565 
L 278.685189 205.82035 
L 278.685189 199.1954 
L 277.934452 196.024185 
L 276.978558 192.570451 
L 273.238589 185.945502 
L 270.384588 182.637818 
L 266.604196 179.320553 
L 262.834724 176.816188 
L 255.284859 173.534394 
L 251.348946 172.695604 
L 247.734995 172.036838 
L 240.18513 172.036838 
L 236.571179 172.695604 
L 232.635266 173.534394 
L 225.085401 176.816188 
L 221.315929 179.320553 
L 217.535537 182.637818 
L 214.681536 185.945502 
L 210.941567 192.570451 
L 209.985673 196.024185 
L 209.234936 199.1954 
L 209.234936 205.82035 
L 209.985673 208.991565 
L 210.941567 212.445299 
L 214.681536 219.070248 
L 217.535537 222.377932 
L 221.315929 225.695197 
L 225.085401 228.199562 
L 232.635266 231.481356 
L 236.571179 232.320146 
L 240.18513 232.978912 
z
" clip-path="url(#p2739d8b509)" style="fill: none; stroke: #ff9400; stroke-opacity: 0.85"/>
    <path d="M 232.635266 213.882149 
L 240.18513 217.199087 
L 247.734995 217.199087 
L 255.284859 213.882149 
L 256.92231 212.445299 
L 260.702328 205.82035 
L 260.702328 199.1954 
L 256.92231 192.570451 
L 255.284859 191.133601 
L 247.734995 187.816663 
L 240.18513 187.816663 
L 232.635266 191.133601 
L 230.997815 192.570451 
L 227.217797 199.1954 
L 227.217797 205.82035 
L 230.997815 212.445299 
L 232.635266 213.882149 
z
" clip-path="url(#p2739d8b509)" style="fill: none; stroke: #ff1e00; stroke-opacity: 0.85"/>
    <path clip-path="url(#p2739d8b509)" style="fill: none; stroke: #800000; stroke-opacity: 0.85"/>
   </g>
   <g id="patch_3">
    <path d="M 21.239063 397.943875 
L 21.239063 7.071875 
" style="fill: none; stroke: #000000; stroke-width: 0.8; stroke-linejoin: miter; stroke-linecap: square"/>
   </g>
   <g id="patch_4">
    <path d="M 466.681062 397.943875 
L 466.681062 7.071875 
" style="fill: none; stroke: #000000; stroke-width: 0.8; stroke-linejoin: miter; stroke-linecap: square"/>
   </g>
   <g id="patch_5">
    <path d="M 21.239063 397.943875 
L 466.681062 397.943875 
" style="fill: none; stroke: #000000; stroke-width: 0.8; stroke-linejoin: miter; stroke-linecap: square"/>
   </g>
   <g id="patch_6">
    <path d="M 21.239063 7.071875 
L 466.681062 7.071875 
" style="fill: none; stroke: #000000; stroke-width: 0.8; stroke-linejoin: miter; stroke-linecap: square"/>
   </g>
  </g>
  <g id="axes_2">
   <g id="patch_7">
    <path d="M 497.639063 397.943875 
L 943.081063 397.943875 
L 943.081063 7.071875 
L 497.639063 7.071875 
z
" style="fill: #ffffff"/>
   </g>
   <g id="matplotlib.axis_3">
    <g id="xtick_8">
     <g id="line2d_15">
      <g>
       <use xlink:href="#m81746336fd" x="497.639063" y="397.943875" style="stroke: #000000; stroke-width: 0.8"/>
      </g>
     </g>
     <g id="text_15">
      <!-- −3 -->
      <g transform="translate(492.319531 411.887625) scale(0.1 -0.1)">
       <use xlink:href="#TimesNewRomanPSMT-2212"/>
       <use xlink:href="#TimesNewRomanPSMT-33" transform="translate(56.396484 0)"/>
      </g>
     </g>
    </g>
    <g id="xtick_9">
     <g id="line2d_16">
      <g>
       <use xlink:href="#m81746336fd" x="571.879396" y="397.943875" style="stroke: #000000; stroke-width: 0.8"/>
      </g>
     </g>
     <g id="text_16">
      <!-- −2 -->
      <g transform="translate(566.559865 411.887625) scale(0.1 -0.1)">
       <use xlink:href="#TimesNewRomanPSMT-2212"/>
       <use xlink:href="#TimesNewRomanPSMT-32" transform="translate(56.396484 0)"/>
      </g>
     </g>
    </g>
    <g id="xtick_10">
     <g id="line2d_17">
      <g>
       <use xlink:href="#m81746336fd" x="646.119729" y="397.943875" style="stroke: #000000; stroke-width: 0.8"/>
      </g>
     </g>
     <g id="text_17">
      <!-- −1 -->
      <g transform="translate(640.800198 411.887625) scale(0.1 -0.1)">
       <use xlink:href="#TimesNewRomanPSMT-2212"/>
       <use xlink:href="#TimesNewRomanPSMT-31" transform="translate(56.396484 0)"/>
      </g>
     </g>
    </g>
    <g id="xtick_11">
     <g id="line2d_18">
      <g>
       <use xlink:href="#m81746336fd" x="720.360063" y="397.943875" style="stroke: #000000; stroke-width: 0.8"/>
      </g>
     </g>
     <g id="text_18">
      <!-- 0 -->
      <g transform="translate(717.860063 411.887625) scale(0.1 -0.1)">
       <use xlink:href="#TimesNewRomanPSMT-30"/>
      </g>
     </g>
    </g>
    <g id="xtick_12">
     <g id="line2d_19">
      <g>
       <use xlink:href="#m81746336fd" x="794.600396" y="397.943875" style="stroke: #000000; stroke-width: 0.8"/>
      </g>
     </g>
     <g id="text_19">
      <!-- 1 -->
      <g transform="translate(792.100396 411.887625) scale(0.1 -0.1)">
       <use xlink:href="#TimesNewRomanPSMT-31"/>
      </g>
     </g>
    </g>
    <g id="xtick_13">
     <g id="line2d_20">
      <g>
       <use xlink:href="#m81746336fd" x="868.840729" y="397.943875" style="stroke: #000000; stroke-width: 0.8"/>
      </g>
     </g>
     <g id="text_20">
      <!-- 2 -->
      <g transform="translate(866.340729 411.887625) scale(0.1 -0.1)">
       <use xlink:href="#TimesNewRomanPSMT-32"/>
      </g>
     </g>
    </g>
    <g id="xtick_14">
     <g id="line2d_21">
      <g>
       <use xlink:href="#m81746336fd" x="943.081063" y="397.943875" style="stroke: #000000; stroke-width: 0.8"/>
      </g>
     </g>
     <g id="text_21">
      <!-- 3 -->
      <g transform="translate(940.581063 411.887625) scale(0.1 -0.1)">
       <use xlink:href="#TimesNewRomanPSMT-33"/>
      </g>
     </g>
    </g>
   </g>
   <g id="matplotlib.axis_4">
    <g id="ytick_8">
     <g id="line2d_22">
      <g>
       <use xlink:href="#m655afa8b19" x="497.639063" y="397.943875" style="stroke: #000000; stroke-width: 0.8"/>
      </g>
     </g>
     <g id="text_22">
      <!-- −3 -->
      <g transform="translate(480 401.41575) scale(0.1 -0.1)">
       <use xlink:href="#TimesNewRomanPSMT-2212"/>
       <use xlink:href="#TimesNewRomanPSMT-33" transform="translate(56.396484 0)"/>
      </g>
     </g>
    </g>
    <g id="ytick_9">
     <g id="line2d_23">
      <g>
       <use xlink:href="#m655afa8b19" x="497.639063" y="332.798542" style="stroke: #000000; stroke-width: 0.8"/>
      </g>
     </g>
     <g id="text_23">
      <!-- −2 -->
      <g transform="translate(480 336.270417) scale(0.1 -0.1)">
       <use xlink:href="#TimesNewRomanPSMT-2212"/>
       <use xlink:href="#TimesNewRomanPSMT-32" transform="translate(56.396484 0)"/>
      </g>
     </g>
    </g>
    <g id="ytick_10">
     <g id="line2d_24">
      <g>
       <use xlink:href="#m655afa8b19" x="497.639063" y="267.653208" style="stroke: #000000; stroke-width: 0.8"/>
      </g>
     </g>
     <g id="text_24">
      <!-- −1 -->
      <g transform="translate(480 271.125083) scale(0.1 -0.1)">
       <use xlink:href="#TimesNewRomanPSMT-2212"/>
       <use xlink:href="#TimesNewRomanPSMT-31" transform="translate(56.396484 0)"/>
      </g>
     </g>
    </g>
    <g id="ytick_11">
     <g id="line2d_25">
      <g>
       <use xlink:href="#m655afa8b19" x="497.639063" y="202.507875" style="stroke: #000000; stroke-width: 0.8"/>
      </g>
     </g>
     <g id="text_25">
      <!-- 0 -->
      <g transform="translate(485.639063 205.97975) scale(0.1 -0.1)">
       <use xlink:href="#TimesNewRomanPSMT-30"/>
      </g>
     </g>
    </g>
    <g id="ytick_12">
     <g id="line2d_26">
      <g>
       <use xlink:href="#m655afa8b19" x="497.639063" y="137.362542" style="stroke: #000000; stroke-width: 0.8"/>
      </g>
     </g>
     <g id="text_26">
      <!-- 1 -->
      <g transform="translate(485.639063 140.834417) scale(0.1 -0.1)">
       <use xlink:href="#TimesNewRomanPSMT-31"/>
      </g>
     </g>
    </g>
    <g id="ytick_13">
     <g id="line2d_27">
      <g>
       <use xlink:href="#m655afa8b19" x="497.639063" y="72.217208" style="stroke: #000000; stroke-width: 0.8"/>
      </g>
     </g>
     <g id="text_27">
      <!-- 2 -->
      <g transform="translate(485.639063 75.689083) scale(0.1 -0.1)">
       <use xlink:href="#TimesNewRomanPSMT-32"/>
      </g>
     </g>
    </g>
    <g id="ytick_14">
     <g id="line2d_28">
      <g>
       <use xlink:href="#m655afa8b19" x="497.639063" y="7.071875" style="stroke: #000000; stroke-width: 0.8"/>
      </g>
     </g>
     <g id="text_28">
      <!-- 3 -->
      <g transform="translate(485.639063 10.54375) scale(0.1 -0.1)">
       <use xlink:href="#TimesNewRomanPSMT-33"/>
      </g>
     </g>
    </g>
   </g>
   <g id="QuadContourSet_2">
    <path clip-path="url(#p0ca6efaa00)" style="fill: none; stroke: #000080; stroke-opacity: 0.85"/>
    <path d="M 648.636351 294.253317 
L 656.186215 295.703704 
L 663.736079 296.333001 
L 671.285944 296.303321 
L 678.835808 295.703019 
L 686.385673 294.562443 
L 693.935537 292.860413 
L 697.005249 291.944689 
L 701.485401 290.815652 
L 709.035266 288.404042 
L 716.560494 285.319739 
L 716.58513 285.310876 
L 724.134995 282.188441 
L 730.889646 278.69479 
L 731.684859 278.319664 
L 739.234724 274.311547 
L 742.847192 272.069841 
L 746.784588 269.754387 
L 753.142327 265.444892 
L 754.334452 264.657902 
L 761.884317 259.132373 
L 762.285086 258.819943 
L 769.434181 253.180094 
L 770.6019 252.194994 
L 776.984046 246.594709 
L 778.106677 245.570044 
L 784.53391 239.296768 
L 784.889959 238.945095 
L 791.186912 232.320146 
L 792.083774 231.274066 
L 796.994922 225.695197 
L 799.633639 222.240161 
L 802.188312 219.070248 
L 806.756005 212.445299 
L 807.183503 211.747505 
L 811.164906 205.82035 
L 814.723267 199.1954 
L 814.733368 199.173782 
L 818.248272 192.570451 
L 820.996569 185.945502 
L 822.283232 182.014202 
L 823.326802 179.320553 
L 825.266453 172.695604 
L 826.566267 166.070655 
L 827.250378 159.445706 
L 827.284201 152.820756 
L 826.567047 146.195807 
L 824.91417 139.570858 
L 822.283232 133.472301 
L 822.046034 132.945909 
L 817.743264 126.32096 
L 814.733368 123.05224 
L 810.908572 119.696011 
L 807.183503 117.054849 
L 799.633639 113.279201 
L 799.033757 113.071061 
L 792.083774 110.762433 
L 784.53391 109.312046 
L 776.984046 108.682749 
L 769.434181 108.712429 
L 761.884317 109.312731 
L 754.334452 110.453307 
L 746.784588 112.155337 
L 743.714876 113.071061 
L 739.234724 114.200098 
L 731.684859 116.611708 
L 724.159631 119.696011 
L 724.134995 119.704874 
L 716.58513 122.827309 
L 709.830479 126.32096 
L 709.035266 126.696086 
L 701.485401 130.704203 
L 697.872933 132.945909 
L 693.935537 135.261363 
L 687.577798 139.570858 
L 686.385673 140.357848 
L 678.835808 145.883377 
L 678.435039 146.195807 
L 671.285944 151.835656 
L 670.118225 152.820756 
L 663.736079 158.421041 
L 662.613448 159.445706 
L 656.186215 165.718982 
L 655.830166 166.070655 
L 649.533213 172.695604 
L 648.636351 173.741684 
L 643.725203 179.320553 
L 641.086486 182.775589 
L 638.531813 185.945502 
L 633.96412 192.570451 
L 633.536622 193.268245 
L 629.555219 199.1954 
L 625.996858 205.82035 
L 625.986757 205.841968 
L 622.471853 212.445299 
L 619.723556 219.070248 
L 618.436893 223.001548 
L 617.393323 225.695197 
L 615.453672 232.320146 
L 614.153858 238.945095 
L 613.469747 245.570044 
L 613.435924 252.194994 
L 614.153078 258.819943 
L 615.805955 265.444892 
L 618.436893 271.543449 
L 618.674091 272.069841 
L 622.976861 278.69479 
L 625.986757 281.96351 
L 629.811553 285.319739 
L 633.536622 287.960901 
L 641.086486 291.736549 
L 641.686368 291.944689 
L 648.636351 294.253317 
z
" clip-path="url(#p0ca6efaa00)" style="fill: none; stroke: #0010ff; stroke-opacity: 0.85"/>
    <path d="M 656.186215 273.474465 
L 663.736079 275.954753 
L 671.285944 277.179391 
L 678.835808 277.469376 
L 686.385673 277.013165 
L 693.935537 275.905988 
L 701.485401 274.170556 
L 708.110607 272.069841 
L 709.035266 271.806322 
L 716.58513 269.106677 
L 724.134995 265.69151 
L 724.608947 265.444892 
L 731.684859 261.971305 
L 737.050634 258.819943 
L 739.234724 257.57523 
L 746.784588 252.642321 
L 747.410348 252.194994 
L 754.334452 247.204438 
L 756.397278 245.570044 
L 761.884317 241.060272 
L 764.294795 238.945095 
L 769.434181 234.13026 
L 771.296754 232.320146 
L 776.984046 226.244297 
L 777.493825 225.695197 
L 783.115422 219.070248 
L 784.53391 217.153726 
L 788.125236 212.445299 
L 792.083774 206.236239 
L 792.364823 205.82035 
L 796.256785 199.1954 
L 799.333329 192.570451 
L 799.633639 191.75907 
L 802.027637 185.945502 
L 804.005354 179.320553 
L 805.267105 172.695604 
L 805.787007 166.070655 
L 805.456538 159.445706 
L 804.060927 152.820756 
L 801.234364 146.195807 
L 799.633639 143.760412 
L 796.289227 139.570858 
L 792.083774 135.880605 
L 787.309313 132.945909 
L 784.53391 131.541285 
L 776.984046 129.060997 
L 769.434181 127.836359 
L 761.884317 127.546374 
L 754.334452 128.002585 
L 746.784588 129.109762 
L 739.234724 130.845194 
L 732.609518 132.945909 
L 731.684859 133.209428 
L 724.134995 135.909073 
L 716.58513 139.32424 
L 716.111178 139.570858 
L 709.035266 143.044445 
L 703.669491 146.195807 
L 701.485401 147.44052 
L 693.935537 152.373429 
L 693.309777 152.820756 
L 686.385673 157.811312 
L 684.322847 159.445706 
L 678.835808 163.955478 
L 676.42533 166.070655 
L 671.285944 170.88549 
L 669.423371 172.695604 
L 663.736079 178.771453 
L 663.2263 179.320553 
L 657.604703 185.945502 
L 656.186215 187.862024 
L 652.594889 192.570451 
L 648.636351 198.779511 
L 648.355302 199.1954 
L 644.46334 205.82035 
L 641.386796 212.445299 
L 641.086486 213.25668 
L 638.692488 219.070248 
L 636.714771 225.695197 
L 635.45302 232.320146 
L 634.933118 238.945095 
L 635.263587 245.570044 
L 636.659198 252.194994 
L 639.485761 258.819943 
L 641.086486 261.255338 
L 644.430898 265.444892 
L 648.636351 269.135145 
L 653.410812 272.069841 
L 656.186215 273.474465 
z
" clip-path="url(#p0ca6efaa00)" style="fill: none; stroke: #00a4ff; stroke-opacity: 0.85"/>
    <path d="M 671.285944 261.772114 
L 678.835808 263.396215 
L 686.385673 263.796478 
L 693.935537 263.260867 
L 701.485401 261.938936 
L 709.035266 259.87989 
L 711.91641 258.819943 
L 716.58513 257.200048 
L 724.134995 253.896412 
L 727.359458 252.194994 
L 731.684859 249.958413 
L 738.841727 245.570044 
L 739.234724 245.326786 
L 746.784588 240.06649 
L 748.233824 238.945095 
L 754.334452 233.993687 
L 756.241638 232.320146 
L 761.884317 226.96689 
L 763.16227 225.695197 
L 769.156961 219.070248 
L 769.434181 218.725396 
L 774.435214 212.445299 
L 776.984046 208.649792 
L 778.923001 205.82035 
L 782.68786 199.1954 
L 784.53391 195.098633 
L 785.741838 192.570451 
L 788.088348 185.945502 
L 789.594836 179.320553 
L 790.205223 172.695604 
L 789.749079 166.070655 
L 787.898236 159.445706 
L 784.53391 153.500832 
L 784.042079 152.820756 
L 776.984046 146.627385 
L 776.209024 146.195807 
L 769.434181 143.243636 
L 761.884317 141.619535 
L 754.334452 141.219272 
L 746.784588 141.754883 
L 739.234724 143.076814 
L 731.684859 145.13586 
L 728.803715 146.195807 
L 724.134995 147.815702 
L 716.58513 151.119338 
L 713.360667 152.820756 
L 709.035266 155.057337 
L 701.878398 159.445706 
L 701.485401 159.688964 
L 693.935537 164.94926 
L 692.486301 166.070655 
L 686.385673 171.022063 
L 684.478487 172.695604 
L 678.835808 178.04886 
L 677.557855 179.320553 
L 671.563164 185.945502 
L 671.285944 186.290354 
L 666.284911 192.570451 
L 663.736079 196.365958 
L 661.797124 199.1954 
L 658.032265 205.82035 
L 656.186215 209.917117 
L 654.978287 212.445299 
L 652.631777 219.070248 
L 651.125289 225.695197 
L 650.514902 232.320146 
L 650.971046 238.945095 
L 652.821889 245.570044 
L 656.186215 251.514918 
L 656.678046 252.194994 
L 663.736079 258.388365 
L 664.511101 258.819943 
L 671.285944 261.772114 
z
" clip-path="url(#p0ca6efaa00)" style="fill: none; stroke: #40ffb7; stroke-opacity: 0.85"/>
    <path d="M 678.835808 249.465283 
L 686.385673 251.458608 
L 693.935537 251.831143 
L 701.485401 251.048595 
L 709.035266 249.349604 
L 716.58513 246.825169 
L 719.428736 245.570044 
L 724.134995 243.504895 
L 731.684859 239.4154 
L 732.427754 238.945095 
L 739.234724 234.493674 
L 742.147004 232.320146 
L 746.784588 228.628762 
L 750.12771 225.695197 
L 754.334452 221.625752 
L 756.811428 219.070248 
L 761.884317 213.097184 
L 762.420281 212.445299 
L 767.080714 205.82035 
L 769.434181 201.690643 
L 770.864535 199.1954 
L 773.741409 192.570451 
L 775.677598 185.945502 
L 776.569397 179.320553 
L 776.144853 172.695604 
L 773.873238 166.070655 
L 769.434181 160.16325 
L 768.61646 159.445706 
L 761.884317 155.550467 
L 754.334452 153.557142 
L 746.784588 153.184607 
L 739.234724 153.967155 
L 731.684859 155.666146 
L 724.134995 158.190581 
L 721.291389 159.445706 
L 716.58513 161.510855 
L 709.035266 165.60035 
L 708.292371 166.070655 
L 701.485401 170.522076 
L 698.573121 172.695604 
L 693.935537 176.386988 
L 690.592415 179.320553 
L 686.385673 183.389998 
L 683.908697 185.945502 
L 678.835808 191.918566 
L 678.299844 192.570451 
L 673.639411 199.1954 
L 671.285944 203.325107 
L 669.85559 205.82035 
L 666.978716 212.445299 
L 665.042527 219.070248 
L 664.150728 225.695197 
L 664.575272 232.320146 
L 666.846887 238.945095 
L 671.285944 244.8525 
L 672.103665 245.570044 
L 678.835808 249.465283 
z
" clip-path="url(#p0ca6efaa00)" style="fill: none; stroke: #b7ff40; stroke-opacity: 0.85"/>
    <path d="M 693.935537 239.687695 
L 701.485401 239.978522 
L 708.577067 238.945095 
L 709.035266 238.877276 
L 716.58513 236.534248 
L 724.134995 233.261011 
L 725.824154 232.320146 
L 731.684859 228.869312 
L 736.209634 225.695197 
L 739.234724 223.368155 
L 744.132665 219.070248 
L 746.784588 216.415755 
L 750.401844 212.445299 
L 754.334452 207.302574 
L 755.406672 205.82035 
L 759.136888 199.1954 
L 761.807029 192.570451 
L 761.884317 192.168385 
L 763.062021 185.945502 
L 762.730592 179.320553 
L 761.884317 176.889504 
L 759.753413 172.695604 
L 754.334452 167.940506 
L 749.555038 166.070655 
L 746.784588 165.328055 
L 739.234724 165.037228 
L 732.143058 166.070655 
L 731.684859 166.138474 
L 724.134995 168.481502 
L 716.58513 171.754739 
L 714.895971 172.695604 
L 709.035266 176.146438 
L 704.510491 179.320553 
L 701.485401 181.647595 
L 696.58746 185.945502 
L 693.935537 188.599995 
L 690.318281 192.570451 
L 686.385673 197.713176 
L 685.313453 199.1954 
L 681.583237 205.82035 
L 678.913096 212.445299 
L 678.835808 212.847365 
L 677.658104 219.070248 
L 677.989533 225.695197 
L 678.835808 228.126246 
L 680.966712 232.320146 
L 686.385673 237.075244 
L 691.165087 238.945095 
L 693.935537 239.687695 
z
" clip-path="url(#p0ca6efaa00)" style="fill: none; stroke: #ffb900; stroke-opacity: 0.85"/>
    <path d="M 701.485401 225.85505 
L 709.035266 226.359805 
L 712.215067 225.695197 
L 716.58513 224.675932 
L 724.134995 221.300241 
L 727.759769 219.070248 
L 731.684859 216.270358 
L 736.043939 212.445299 
L 739.234724 209.001061 
L 741.776048 205.82035 
L 745.623022 199.1954 
L 746.784588 195.360703 
L 747.541983 192.570451 
L 746.966758 185.945502 
L 746.784588 185.60044 
L 739.62796 179.320553 
L 739.234724 179.1607 
L 731.684859 178.655945 
L 728.505058 179.320553 
L 724.134995 180.339818 
L 716.58513 183.715509 
L 712.960356 185.945502 
L 709.035266 188.745392 
L 704.676186 192.570451 
L 701.485401 196.014689 
L 698.944077 199.1954 
L 695.097103 205.82035 
L 693.935537 209.655047 
L 693.178142 212.445299 
L 693.753367 219.070248 
L 693.935537 219.41531 
L 701.092165 225.695197 
L 701.485401 225.85505 
z
" clip-path="url(#p0ca6efaa00)" style="fill: none; stroke: #ff3000; stroke-opacity: 0.85"/>
    <path clip-path="url(#p0ca6efaa00)" style="fill: none; stroke: #800000; stroke-opacity: 0.85"/>
   </g>
   <g id="patch_8">
    <path d="M 497.639063 397.943875 
L 497.639063 7.071875 
" style="fill: none; stroke: #000000; stroke-width: 0.8; stroke-linejoin: miter; stroke-linecap: square"/>
   </g>
   <g id="patch_9">
    <path d="M 943.081063 397.943875 
L 943.081063 7.071875 
" style="fill: none; stroke: #000000; stroke-width: 0.8; stroke-linejoin: miter; stroke-linecap: square"/>
   </g>
   <g id="patch_10">
    <path d="M 497.639063 397.943875 
L 943.081063 397.943875 
" style="fill: none; stroke: #000000; stroke-width: 0.8; stroke-linejoin: miter; stroke-linecap: square"/>
   </g>
   <g id="patch_11">
    <path d="M 497.639063 7.071875 
L 943.081063 7.071875 
" style="fill: none; stroke: #000000; stroke-width: 0.8; stroke-linejoin: miter; stroke-linecap: square"/>
   </g>
  </g>
  <g id="axes_3">
   <g id="patch_12">
    <path d="M 974.039062 397.943875 
L 1419.481063 397.943875 
L 1419.481063 7.071875 
L 974.039062 7.071875 
z
" style="fill: #ffffff"/>
   </g>
   <g id="matplotlib.axis_5">
    <g id="xtick_15">
     <g id="line2d_29">
      <g>
       <use xlink:href="#m81746336fd" x="974.039062" y="397.943875" style="stroke: #000000; stroke-width: 0.8"/>
      </g>
     </g>
     <g id="text_29">
      <!-- −3 -->
      <g transform="translate(968.719531 411.887625) scale(0.1 -0.1)">
       <use xlink:href="#TimesNewRomanPSMT-2212"/>
       <use xlink:href="#TimesNewRomanPSMT-33" transform="translate(56.396484 0)"/>
      </g>
     </g>
    </g>
    <g id="xtick_16">
     <g id="line2d_30">
      <g>
       <use xlink:href="#m81746336fd" x="1048.279396" y="397.943875" style="stroke: #000000; stroke-width: 0.8"/>
      </g>
     </g>
     <g id="text_30">
      <!-- −2 -->
      <g transform="translate(1042.959865 411.887625) scale(0.1 -0.1)">
       <use xlink:href="#TimesNewRomanPSMT-2212"/>
       <use xlink:href="#TimesNewRomanPSMT-32" transform="translate(56.396484 0)"/>
      </g>
     </g>
    </g>
    <g id="xtick_17">
     <g id="line2d_31">
      <g>
       <use xlink:href="#m81746336fd" x="1122.519729" y="397.943875" style="stroke: #000000; stroke-width: 0.8"/>
      </g>
     </g>
     <g id="text_31">
      <!-- −1 -->
      <g transform="translate(1117.200198 411.887625) scale(0.1 -0.1)">
       <use xlink:href="#TimesNewRomanPSMT-2212"/>
       <use xlink:href="#TimesNewRomanPSMT-31" transform="translate(56.396484 0)"/>
      </g>
     </g>
    </g>
    <g id="xtick_18">
     <g id="line2d_32">
      <g>
       <use xlink:href="#m81746336fd" x="1196.760063" y="397.943875" style="stroke: #000000; stroke-width: 0.8"/>
      </g>
     </g>
     <g id="text_32">
      <!-- 0 -->
      <g transform="translate(1194.260063 411.887625) scale(0.1 -0.1)">
       <use xlink:href="#TimesNewRomanPSMT-30"/>
      </g>
     </g>
    </g>
    <g id="xtick_19">
     <g id="line2d_33">
      <g>
       <use xlink:href="#m81746336fd" x="1271.000396" y="397.943875" style="stroke: #000000; stroke-width: 0.8"/>
      </g>
     </g>
     <g id="text_33">
      <!-- 1 -->
      <g transform="translate(1268.500396 411.887625) scale(0.1 -0.1)">
       <use xlink:href="#TimesNewRomanPSMT-31"/>
      </g>
     </g>
    </g>
    <g id="xtick_20">
     <g id="line2d_34">
      <g>
       <use xlink:href="#m81746336fd" x="1345.240729" y="397.943875" style="stroke: #000000; stroke-width: 0.8"/>
      </g>
     </g>
     <g id="text_34">
      <!-- 2 -->
      <g transform="translate(1342.740729 411.887625) scale(0.1 -0.1)">
       <use xlink:href="#TimesNewRomanPSMT-32"/>
      </g>
     </g>
    </g>
    <g id="xtick_21">
     <g id="line2d_35">
      <g>
       <use xlink:href="#m81746336fd" x="1419.481063" y="397.943875" style="stroke: #000000; stroke-width: 0.8"/>
      </g>
     </g>
     <g id="text_35">
      <!-- 3 -->
      <g transform="translate(1416.981063 411.887625) scale(0.1 -0.1)">
       <use xlink:href="#TimesNewRomanPSMT-33"/>
      </g>
     </g>
    </g>
   </g>
   <g id="matplotlib.axis_6">
    <g id="ytick_15">
     <g id="line2d_36">
      <g>
       <use xlink:href="#m655afa8b19" x="974.039062" y="397.943875" style="stroke: #000000; stroke-width: 0.8"/>
      </g>
     </g>
     <g id="text_36">
      <!-- −3 -->
      <g transform="translate(956.4 401.41575) scale(0.1 -0.1)">
       <use xlink:href="#TimesNewRomanPSMT-2212"/>
       <use xlink:href="#TimesNewRomanPSMT-33" transform="translate(56.396484 0)"/>
      </g>
     </g>
    </g>
    <g id="ytick_16">
     <g id="line2d_37">
      <g>
       <use xlink:href="#m655afa8b19" x="974.039062" y="332.798542" style="stroke: #000000; stroke-width: 0.8"/>
      </g>
     </g>
     <g id="text_37">
      <!-- −2 -->
      <g transform="translate(956.4 336.270417) scale(0.1 -0.1)">
       <use xlink:href="#TimesNewRomanPSMT-2212"/>
       <use xlink:href="#TimesNewRomanPSMT-32" transform="translate(56.396484 0)"/>
      </g>
     </g>
    </g>
    <g id="ytick_17">
     <g id="line2d_38">
      <g>
       <use xlink:href="#m655afa8b19" x="974.039062" y="267.653208" style="stroke: #000000; stroke-width: 0.8"/>
      </g>
     </g>
     <g id="text_38">
      <!-- −1 -->
      <g transform="translate(956.4 271.125083) scale(0.1 -0.1)">
       <use xlink:href="#TimesNewRomanPSMT-2212"/>
       <use xlink:href="#TimesNewRomanPSMT-31" transform="translate(56.396484 0)"/>
      </g>
     </g>
    </g>
    <g id="ytick_18">
     <g id="line2d_39">
      <g>
       <use xlink:href="#m655afa8b19" x="974.039062" y="202.507875" style="stroke: #000000; stroke-width: 0.8"/>
      </g>
     </g>
     <g id="text_39">
      <!-- 0 -->
      <g transform="translate(962.039062 205.97975) scale(0.1 -0.1)">
       <use xlink:href="#TimesNewRomanPSMT-30"/>
      </g>
     </g>
    </g>
    <g id="ytick_19">
     <g id="line2d_40">
      <g>
       <use xlink:href="#m655afa8b19" x="974.039062" y="137.362542" style="stroke: #000000; stroke-width: 0.8"/>
      </g>
     </g>
     <g id="text_40">
      <!-- 1 -->
      <g transform="translate(962.039062 140.834417) scale(0.1 -0.1)">
       <use xlink:href="#TimesNewRomanPSMT-31"/>
      </g>
     </g>
    </g>
    <g id="ytick_20">
     <g id="line2d_41">
      <g>
       <use xlink:href="#m655afa8b19" x="974.039062" y="72.217208" style="stroke: #000000; stroke-width: 0.8"/>
      </g>
     </g>
     <g id="text_41">
      <!-- 2 -->
      <g transform="translate(962.039062 75.689083) scale(0.1 -0.1)">
       <use xlink:href="#TimesNewRomanPSMT-32"/>
      </g>
     </g>
    </g>
    <g id="ytick_21">
     <g id="line2d_42">
      <g>
       <use xlink:href="#m655afa8b19" x="974.039062" y="7.071875" style="stroke: #000000; stroke-width: 0.8"/>
      </g>
     </g>
     <g id="text_42">
      <!-- 3 -->
      <g transform="translate(962.039062 10.54375) scale(0.1 -0.1)">
       <use xlink:href="#TimesNewRomanPSMT-33"/>
      </g>
     </g>
    </g>
   </g>
   <g id="QuadContourSet_3">
    <path clip-path="url(#p2c896588b6)" style="fill: none; stroke: #000080; stroke-opacity: 0.85"/>
    <path d="M 1109.936622 293.563522 
L 1117.486486 293.617875 
L 1125.036351 292.505306 
L 1127.05528 291.944689 
L 1132.586215 290.696463 
L 1140.136079 288.331705 
L 1147.370789 285.319739 
L 1147.685944 285.209946 
L 1155.235808 282.048052 
L 1161.582723 278.69479 
L 1162.785673 278.146962 
L 1170.335537 274.196856 
L 1173.767539 272.069841 
L 1177.885401 269.803092 
L 1184.567437 265.444892 
L 1185.435266 264.931026 
L 1192.98513 259.994066 
L 1194.603516 258.819943 
L 1200.534995 254.7936 
L 1203.967463 252.194994 
L 1208.084859 249.214033 
L 1212.69856 245.570044 
L 1215.634724 243.303295 
L 1220.924809 238.945095 
L 1223.184588 237.085086 
L 1228.730103 232.320146 
L 1230.734452 230.561345 
L 1236.16463 225.695197 
L 1238.284317 223.712258 
L 1243.250969 219.070248 
L 1245.834181 216.493786 
L 1249.98691 212.445299 
L 1253.384046 208.832315 
L 1256.345445 205.82035 
L 1260.93391 200.615521 
L 1262.271954 199.1954 
L 1267.898167 192.570451 
L 1268.483774 191.808938 
L 1273.450426 185.945502 
L 1276.033639 182.332109 
L 1278.457609 179.320553 
L 1282.959192 172.695604 
L 1283.583503 171.640024 
L 1287.404917 166.070655 
L 1291.008246 159.445706 
L 1291.133368 159.16916 
L 1294.565836 152.820756 
L 1297.26074 146.195807 
L 1298.683232 141.342453 
L 1299.322117 139.570858 
L 1300.590014 132.945909 
L 1300.528073 126.32096 
L 1298.683232 120.421929 
L 1298.368077 119.696011 
L 1291.133368 113.347607 
L 1290.306103 113.071061 
L 1283.583503 111.452228 
L 1276.033639 111.397875 
L 1268.483774 112.510444 
L 1266.464845 113.071061 
L 1260.93391 114.319287 
L 1253.384046 116.684045 
L 1246.149336 119.696011 
L 1245.834181 119.805804 
L 1238.284317 122.967698 
L 1231.937402 126.32096 
L 1230.734452 126.868788 
L 1223.184588 130.818894 
L 1219.752586 132.945909 
L 1215.634724 135.212658 
L 1208.952688 139.570858 
L 1208.084859 140.084724 
L 1200.534995 145.021684 
L 1198.916609 146.195807 
L 1192.98513 150.22215 
L 1189.552662 152.820756 
L 1185.435266 155.801717 
L 1180.821565 159.445706 
L 1177.885401 161.712455 
L 1172.595316 166.070655 
L 1170.335537 167.930664 
L 1164.790022 172.695604 
L 1162.785673 174.454405 
L 1157.355495 179.320553 
L 1155.235808 181.303492 
L 1150.269156 185.945502 
L 1147.685944 188.521964 
L 1143.533215 192.570451 
L 1140.136079 196.183435 
L 1137.17468 199.1954 
L 1132.586215 204.400229 
L 1131.248171 205.82035 
L 1125.621958 212.445299 
L 1125.036351 213.206812 
L 1120.069699 219.070248 
L 1117.486486 222.683641 
L 1115.062516 225.695197 
L 1110.560933 232.320146 
L 1109.936622 233.375726 
L 1106.115208 238.945095 
L 1102.511879 245.570044 
L 1102.386757 245.84659 
L 1098.954289 252.194994 
L 1096.259385 258.819943 
L 1094.836893 263.673297 
L 1094.198008 265.444892 
L 1092.930111 272.069841 
L 1092.992052 278.69479 
L 1094.836893 284.593821 
L 1095.152048 285.319739 
L 1102.386757 291.668143 
L 1103.214022 291.944689 
L 1109.936622 293.563522 
z
" clip-path="url(#p2c896588b6)" style="fill: none; stroke: #0010ff; stroke-opacity: 0.85"/>
    <path d="M 1125.036351 273.400543 
L 1132.586215 274.174323 
L 1140.136079 273.302792 
L 1144.708398 272.069841 
L 1147.685944 271.375404 
L 1155.235808 268.808697 
L 1162.785673 265.488023 
L 1162.867051 265.444892 
L 1170.335537 261.904525 
L 1175.731436 258.819943 
L 1177.885401 257.69379 
L 1185.435266 253.143662 
L 1186.84035 252.194994 
L 1192.98513 248.288891 
L 1196.781371 245.570044 
L 1200.534995 242.982169 
L 1205.851923 238.945095 
L 1208.084859 237.27629 
L 1214.24421 232.320146 
L 1215.634724 231.193994 
L 1222.084695 225.695197 
L 1223.184588 224.730049 
L 1229.451077 219.070248 
L 1230.734452 217.850083 
L 1236.382528 212.445299 
L 1238.284317 210.485914 
L 1242.88501 205.82035 
L 1245.834181 202.526573 
L 1248.932608 199.1954 
L 1253.384046 193.803402 
L 1254.465159 192.570451 
L 1259.650534 185.945502 
L 1260.93391 184.055414 
L 1264.449133 179.320553 
L 1268.483774 172.767013 
L 1268.532927 172.695604 
L 1272.317203 166.070655 
L 1275.24225 159.445706 
L 1276.033639 156.832931 
L 1277.438723 152.820756 
L 1278.431929 146.195807 
L 1277.550122 139.570858 
L 1276.033639 136.872454 
L 1271.558905 132.945909 
L 1268.483774 131.615207 
L 1260.93391 130.841427 
L 1253.384046 131.712958 
L 1248.811727 132.945909 
L 1245.834181 133.640346 
L 1238.284317 136.207053 
L 1230.734452 139.527727 
L 1230.653074 139.570858 
L 1223.184588 143.111225 
L 1217.788689 146.195807 
L 1215.634724 147.32196 
L 1208.084859 151.872088 
L 1206.679775 152.820756 
L 1200.534995 156.726859 
L 1196.738754 159.445706 
L 1192.98513 162.033581 
L 1187.668202 166.070655 
L 1185.435266 167.73946 
L 1179.275915 172.695604 
L 1177.885401 173.821756 
L 1171.43543 179.320553 
L 1170.335537 180.285701 
L 1164.069048 185.945502 
L 1162.785673 187.165667 
L 1157.137597 192.570451 
L 1155.235808 194.529836 
L 1150.635115 199.1954 
L 1147.685944 202.489177 
L 1144.587517 205.82035 
L 1140.136079 211.212348 
L 1139.054966 212.445299 
L 1133.869591 219.070248 
L 1132.586215 220.960336 
L 1129.070992 225.695197 
L 1125.036351 232.248737 
L 1124.987198 232.320146 
L 1121.202922 238.945095 
L 1118.277875 245.570044 
L 1117.486486 248.182819 
L 1116.081402 252.194994 
L 1115.088196 258.819943 
L 1115.970003 265.444892 
L 1117.486486 268.143296 
L 1121.96122 272.069841 
L 1125.036351 273.400543 
z
" clip-path="url(#p2c896588b6)" style="fill: none; stroke: #00a4ff; stroke-opacity: 0.85"/>
    <path d="M 1140.136079 259.327528 
L 1147.685944 259.607765 
L 1151.629873 258.819943 
L 1155.235808 258.168206 
L 1162.785673 255.721598 
L 1170.335537 252.50482 
L 1170.913987 252.194994 
L 1177.885401 248.721289 
L 1183.24362 245.570044 
L 1185.435266 244.343215 
L 1192.98513 239.504791 
L 1193.77253 238.945095 
L 1200.534995 234.242322 
L 1203.054721 232.320146 
L 1208.084859 228.480017 
L 1211.488154 225.695197 
L 1215.634724 222.221493 
L 1219.225916 219.070248 
L 1223.184588 215.431665 
L 1226.358199 212.445299 
L 1230.734452 208.03139 
L 1232.924985 205.82035 
L 1238.284317 199.886338 
L 1238.922152 199.1954 
L 1244.436073 192.570451 
L 1245.834181 190.647299 
L 1249.425374 185.945502 
L 1253.384046 179.828138 
L 1253.737127 179.320553 
L 1257.403003 172.695604 
L 1260.191183 166.070655 
L 1260.93391 162.906474 
L 1261.831721 159.445706 
L 1261.512359 152.820756 
L 1260.93391 151.61004 
L 1254.763791 146.195807 
L 1253.384046 145.688222 
L 1245.834181 145.407985 
L 1241.890252 146.195807 
L 1238.284317 146.847544 
L 1230.734452 149.294152 
L 1223.184588 152.51093 
L 1222.606138 152.820756 
L 1215.634724 156.294461 
L 1210.276505 159.445706 
L 1208.084859 160.672535 
L 1200.534995 165.510959 
L 1199.747595 166.070655 
L 1192.98513 170.773428 
L 1190.465404 172.695604 
L 1185.435266 176.535733 
L 1182.031971 179.320553 
L 1177.885401 182.794257 
L 1174.294209 185.945502 
L 1170.335537 189.584085 
L 1167.161926 192.570451 
L 1162.785673 196.98436 
L 1160.59514 199.1954 
L 1155.235808 205.129412 
L 1154.597973 205.82035 
L 1149.084052 212.445299 
L 1147.685944 214.368451 
L 1144.094751 219.070248 
L 1140.136079 225.187612 
L 1139.782998 225.695197 
L 1136.117122 232.320146 
L 1133.328942 238.945095 
L 1132.586215 242.109276 
L 1131.688404 245.570044 
L 1132.007766 252.194994 
L 1132.586215 253.40571 
L 1138.756334 258.819943 
L 1140.136079 259.327528 
z
" clip-path="url(#p2c896588b6)" style="fill: none; stroke: #40ffb7; stroke-opacity: 0.85"/>
    <path d="M 1155.235808 246.665826 
L 1162.785673 246.006401 
L 1164.116126 245.570044 
L 1170.335537 243.631528 
L 1177.885401 240.395735 
L 1180.529063 238.945095 
L 1185.435266 236.328121 
L 1191.907029 232.320146 
L 1192.98513 231.655326 
L 1200.534995 226.373453 
L 1201.416327 225.695197 
L 1208.084859 220.458911 
L 1209.738024 219.070248 
L 1215.634724 213.895939 
L 1217.217259 212.445299 
L 1223.184588 206.593712 
L 1223.957536 205.82035 
L 1229.976815 199.1954 
L 1230.734452 198.249375 
L 1235.301985 192.570451 
L 1238.284317 188.265296 
L 1239.937482 185.945502 
L 1243.625027 179.320553 
L 1245.834181 173.863067 
L 1246.331458 172.695604 
L 1247.082946 166.070655 
L 1245.834181 162.673407 
L 1242.155858 159.445706 
L 1238.284317 158.349924 
L 1230.734452 159.009349 
L 1229.403999 159.445706 
L 1223.184588 161.384222 
L 1215.634724 164.620015 
L 1212.991062 166.070655 
L 1208.084859 168.687629 
L 1201.613096 172.695604 
L 1200.534995 173.360424 
L 1192.98513 178.642297 
L 1192.103798 179.320553 
L 1185.435266 184.556839 
L 1183.782101 185.945502 
L 1177.885401 191.119811 
L 1176.302866 192.570451 
L 1170.335537 198.422038 
L 1169.562589 199.1954 
L 1163.54331 205.82035 
L 1162.785673 206.766375 
L 1158.21814 212.445299 
L 1155.235808 216.750454 
L 1153.582643 219.070248 
L 1149.895098 225.695197 
L 1147.685944 231.152683 
L 1147.188667 232.320146 
L 1146.437179 238.945095 
L 1147.685944 242.342343 
L 1151.364267 245.570044 
L 1155.235808 246.665826 
z
" clip-path="url(#p2c896588b6)" style="fill: none; stroke: #b7ff40; stroke-opacity: 0.85"/>
    <path d="M 1170.335537 232.991146 
L 1173.023953 232.320146 
L 1177.885401 231.087691 
L 1185.435266 227.717739 
L 1188.928464 225.695197 
L 1192.98513 223.283682 
L 1199.130475 219.070248 
L 1200.534995 218.054282 
L 1207.471904 212.445299 
L 1208.084859 211.907436 
L 1214.476918 205.82035 
L 1215.634724 204.587894 
L 1220.436399 199.1954 
L 1223.184588 195.635706 
L 1225.489499 192.570451 
L 1229.329933 185.945502 
L 1230.734452 181.679618 
L 1231.499131 179.320553 
L 1230.734452 175.800648 
L 1227.19591 172.695604 
L 1223.184588 172.024604 
L 1220.496172 172.695604 
L 1215.634724 173.928059 
L 1208.084859 177.298011 
L 1204.591661 179.320553 
L 1200.534995 181.732068 
L 1194.38965 185.945502 
L 1192.98513 186.961468 
L 1186.048221 192.570451 
L 1185.435266 193.108314 
L 1179.043207 199.1954 
L 1177.885401 200.427856 
L 1173.083726 205.82035 
L 1170.335537 209.380044 
L 1168.030626 212.445299 
L 1164.190192 219.070248 
L 1162.785673 223.336132 
L 1162.020994 225.695197 
L 1162.785673 229.215102 
L 1166.324215 232.320146 
L 1170.335537 232.991146 
z
" clip-path="url(#p2c896588b6)" style="fill: none; stroke: #ffb900; stroke-opacity: 0.85"/>
    <path d="M 1192.98513 210.087858 
L 1200.241546 205.82035 
L 1200.534995 205.56285 
L 1205.398294 199.1954 
L 1200.534995 194.927892 
L 1193.278579 199.1954 
L 1192.98513 199.4529 
L 1188.121831 205.82035 
L 1192.98513 210.087858 
z
" clip-path="url(#p2c896588b6)" style="fill: none; stroke: #ff3000; stroke-opacity: 0.85"/>
    <path clip-path="url(#p2c896588b6)" style="fill: none; stroke: #800000; stroke-opacity: 0.85"/>
   </g>
   <g id="patch_13">
    <path d="M 974.039062 397.943875 
L 974.039062 7.071875 
" style="fill: none; stroke: #000000; stroke-width: 0.8; stroke-linejoin: miter; stroke-linecap: square"/>
   </g>
   <g id="patch_14">
    <path d="M 1419.481063 397.943875 
L 1419.481063 7.071875 
" style="fill: none; stroke: #000000; stroke-width: 0.8; stroke-linejoin: miter; stroke-linecap: square"/>
   </g>
   <g id="patch_15">
    <path d="M 974.039062 397.943875 
L 1419.481063 397.943875 
" style="fill: none; stroke: #000000; stroke-width: 0.8; stroke-linejoin: miter; stroke-linecap: square"/>
   </g>
   <g id="patch_16">
    <path d="M 974.039062 7.071875 
L 1419.481063 7.071875 
" style="fill: none; stroke: #000000; stroke-width: 0.8; stroke-linejoin: miter; stroke-linecap: square"/>
   </g>
  </g>
 </g>
 <defs>
  <clipPath id="p2739d8b509">
   <rect x="21.239063" y="7.071875" width="445.442" height="390.872"/>
  </clipPath>
  <clipPath id="p0ca6efaa00">
   <rect x="497.639063" y="7.071875" width="445.442" height="390.872"/>
  </clipPath>
  <clipPath id="p2c896588b6">
   <rect x="974.039062" y="7.071875" width="445.442" height="390.872"/>
  </clipPath>
 </defs>
</svg>
