<?xml version="1.0" encoding="utf-8" standalone="no"?>
<!DOCTYPE svg PUBLIC "-//W3C//DTD SVG 1.1//EN"
  "http://www.w3.org/Graphics/SVG/1.1/DTD/svg11.dtd">
<svg xmlns:xlink="http://www.w3.org/1999/xlink" width="558.088pt" height="450.126687pt" viewBox="0 0 558.088 450.126687" xmlns="http://www.w3.org/2000/svg" version="1.1">
 <metadata>
  <rdf:RDF xmlns:dc="http://purl.org/dc/elements/1.1/" xmlns:cc="http://creativecommons.org/ns#" xmlns:rdf="http://www.w3.org/1999/02/22-rdf-syntax-ns#">
   <cc:Work>
    <dc:type rdf:resource="http://purl.org/dc/dcmitype/StillImage"/>
    <dc:date>2025-10-16T01:20:52.868943</dc:date>
    <dc:format>image/svg+xml</dc:format>
    <dc:creator>
     <cc:Agent>
      <dc:title>Matplotlib v3.10.0, https://matplotlib.org/</dc:title>
     </cc:Agent>
    </dc:creator>
   </cc:Work>
  </rdf:RDF>
 </metadata>
 <defs>
  <style type="text/css">*{stroke-linejoin: round; stroke-linecap: butt}</style>
 </defs>
 <g id="figure_1">
  <g id="patch_1">
   <path d="M 0 450.126687 
L 558.088 450.126687 
L 558.088 0 
L 0 0 
z
" style="fill: #ffffff"/>
  </g>
  <g id="axes_1">
   <g id="patch_2">
    <path d="M 17.1 433.943875 
L 549.488 433.943875 
L 549.488 7.071875 
L 17.1 7.071875 
z
" style="fill: #ffffff"/>
   </g>
   <g id="matplotlib.axis_1">
    <g id="xtick_1">
     <g id="line2d_1">
      <defs>
       <path id="mcd3d3fa88b" d="M 0 0 
L 0 -3.5 
" style="stroke: #000000; stroke-width: 0.8"/>
      </defs>
      <g>
       <use xlink:href="#mcd3d3fa88b" x="60.560245" y="433.943875" style="stroke: #000000; stroke-width: 0.8"/>
      </g>
     </g>
     <g id="line2d_2">
      <defs>
       <path id="mac18f26d4b" d="M 0 0 
L 0 3.5 
" style="stroke: #000000; stroke-width: 0.8"/>
      </defs>
      <g>
       <use xlink:href="#mac18f26d4b" x="60.560245" y="7.071875" style="stroke: #000000; stroke-width: 0.8"/>
      </g>
     </g>
     <g id="text_1">
      <!-- 5 -->
      <g transform="translate(58.060245 444.387625) scale(0.1 -0.1)">
       <defs>
        <path id="TimesNewRomanPSMT-35" d="M 2778 4238 
L 2534 3706 
L 1259 3706 
L 981 3138 
Q 1809 3016 2294 2522 
Q 2709 2097 2709 1522 
Q 2709 1188 2573 903 
Q 2438 619 2231 419 
Q 2025 219 1772 97 
Q 1413 -75 1034 -75 
Q 653 -75 479 54 
Q 306 184 306 341 
Q 306 428 378 495 
Q 450 563 559 563 
Q 641 563 702 538 
Q 763 513 909 409 
Q 1144 247 1384 247 
Q 1750 247 2026 523 
Q 2303 800 2303 1197 
Q 2303 1581 2056 1914 
Q 1809 2247 1375 2428 
Q 1034 2569 447 2591 
L 1259 4238 
L 2778 4238 
z
" transform="scale(0.015625)"/>
       </defs>
       <use xlink:href="#TimesNewRomanPSMT-35"/>
      </g>
     </g>
    </g>
    <g id="xtick_2">
     <g id="line2d_3">
      <g>
       <use xlink:href="#mcd3d3fa88b" x="114.885551" y="433.943875" style="stroke: #000000; stroke-width: 0.8"/>
      </g>
     </g>
     <g id="line2d_4">
      <g>
       <use xlink:href="#mac18f26d4b" x="114.885551" y="7.071875" style="stroke: #000000; stroke-width: 0.8"/>
      </g>
     </g>
     <g id="text_2">
      <!-- 10 -->
      <g transform="translate(109.885551 444.387625) scale(0.1 -0.1)">
       <defs>
        <path id="TimesNewRomanPSMT-31" d="M 750 3822 
L 1781 4325 
L 1884 4325 
L 1884 747 
Q 1884 391 1914 303 
Q 1944 216 2037 169 
Q 2131 122 2419 116 
L 2419 0 
L 825 0 
L 825 116 
Q 1125 122 1212 167 
Q 1300 213 1334 289 
Q 1369 366 1369 747 
L 1369 3034 
Q 1369 3497 1338 3628 
Q 1316 3728 1258 3775 
Q 1200 3822 1119 3822 
Q 1003 3822 797 3725 
L 750 3822 
z
" transform="scale(0.015625)"/>
        <path id="TimesNewRomanPSMT-30" d="M 231 2094 
Q 231 2819 450 3342 
Q 669 3866 1031 4122 
Q 1313 4325 1613 4325 
Q 2100 4325 2488 3828 
Q 2972 3213 2972 2159 
Q 2972 1422 2759 906 
Q 2547 391 2217 158 
Q 1888 -75 1581 -75 
Q 975 -75 572 641 
Q 231 1244 231 2094 
z
M 844 2016 
Q 844 1141 1059 588 
Q 1238 122 1591 122 
Q 1759 122 1940 273 
Q 2122 425 2216 781 
Q 2359 1319 2359 2297 
Q 2359 3022 2209 3506 
Q 2097 3866 1919 4016 
Q 1791 4119 1609 4119 
Q 1397 4119 1231 3928 
Q 1006 3669 925 3112 
Q 844 2556 844 2016 
z
" transform="scale(0.015625)"/>
       </defs>
       <use xlink:href="#TimesNewRomanPSMT-31"/>
       <use xlink:href="#TimesNewRomanPSMT-30" transform="translate(50 0)"/>
      </g>
     </g>
    </g>
    <g id="xtick_3">
     <g id="line2d_5">
      <g>
       <use xlink:href="#mcd3d3fa88b" x="169.210857" y="433.943875" style="stroke: #000000; stroke-width: 0.8"/>
      </g>
     </g>
     <g id="line2d_6">
      <g>
       <use xlink:href="#mac18f26d4b" x="169.210857" y="7.071875" style="stroke: #000000; stroke-width: 0.8"/>
      </g>
     </g>
     <g id="text_3">
      <!-- 15 -->
      <g transform="translate(164.210857 444.387625) scale(0.1 -0.1)">
       <use xlink:href="#TimesNewRomanPSMT-31"/>
       <use xlink:href="#TimesNewRomanPSMT-35" transform="translate(50 0)"/>
      </g>
     </g>
    </g>
    <g id="xtick_4">
     <g id="line2d_7">
      <g>
       <use xlink:href="#mcd3d3fa88b" x="223.536163" y="433.943875" style="stroke: #000000; stroke-width: 0.8"/>
      </g>
     </g>
     <g id="line2d_8">
      <g>
       <use xlink:href="#mac18f26d4b" x="223.536163" y="7.071875" style="stroke: #000000; stroke-width: 0.8"/>
      </g>
     </g>
     <g id="text_4">
      <!-- 20 -->
      <g transform="translate(218.536163 444.387625) scale(0.1 -0.1)">
       <defs>
        <path id="TimesNewRomanPSMT-32" d="M 2934 816 
L 2638 0 
L 138 0 
L 138 116 
Q 1241 1122 1691 1759 
Q 2141 2397 2141 2925 
Q 2141 3328 1894 3587 
Q 1647 3847 1303 3847 
Q 991 3847 742 3664 
Q 494 3481 375 3128 
L 259 3128 
Q 338 3706 661 4015 
Q 984 4325 1469 4325 
Q 1984 4325 2329 3994 
Q 2675 3663 2675 3213 
Q 2675 2891 2525 2569 
Q 2294 2063 1775 1497 
Q 997 647 803 472 
L 1909 472 
Q 2247 472 2383 497 
Q 2519 522 2628 598 
Q 2738 675 2819 816 
L 2934 816 
z
" transform="scale(0.015625)"/>
       </defs>
       <use xlink:href="#TimesNewRomanPSMT-32"/>
       <use xlink:href="#TimesNewRomanPSMT-30" transform="translate(50 0)"/>
      </g>
     </g>
    </g>
    <g id="xtick_5">
     <g id="line2d_9">
      <g>
       <use xlink:href="#mcd3d3fa88b" x="277.861469" y="433.943875" style="stroke: #000000; stroke-width: 0.8"/>
      </g>
     </g>
     <g id="line2d_10">
      <g>
       <use xlink:href="#mac18f26d4b" x="277.861469" y="7.071875" style="stroke: #000000; stroke-width: 0.8"/>
      </g>
     </g>
     <g id="text_5">
      <!-- 25 -->
      <g transform="translate(272.861469 444.387625) scale(0.1 -0.1)">
       <use xlink:href="#TimesNewRomanPSMT-32"/>
       <use xlink:href="#TimesNewRomanPSMT-35" transform="translate(50 0)"/>
      </g>
     </g>
    </g>
    <g id="xtick_6">
     <g id="line2d_11">
      <g>
       <use xlink:href="#mcd3d3fa88b" x="332.186776" y="433.943875" style="stroke: #000000; stroke-width: 0.8"/>
      </g>
     </g>
     <g id="line2d_12">
      <g>
       <use xlink:href="#mac18f26d4b" x="332.186776" y="7.071875" style="stroke: #000000; stroke-width: 0.8"/>
      </g>
     </g>
     <g id="text_6">
      <!-- 30 -->
      <g transform="translate(327.186776 444.387625) scale(0.1 -0.1)">
       <defs>
        <path id="TimesNewRomanPSMT-33" d="M 325 3431 
Q 506 3859 782 4092 
Q 1059 4325 1472 4325 
Q 1981 4325 2253 3994 
Q 2459 3747 2459 3466 
Q 2459 3003 1878 2509 
Q 2269 2356 2469 2072 
Q 2669 1788 2669 1403 
Q 2669 853 2319 450 
Q 1863 -75 997 -75 
Q 569 -75 414 31 
Q 259 138 259 259 
Q 259 350 332 419 
Q 406 488 509 488 
Q 588 488 669 463 
Q 722 447 909 348 
Q 1097 250 1169 231 
Q 1284 197 1416 197 
Q 1734 197 1970 444 
Q 2206 691 2206 1028 
Q 2206 1275 2097 1509 
Q 2016 1684 1919 1775 
Q 1784 1900 1550 2001 
Q 1316 2103 1072 2103 
L 972 2103 
L 972 2197 
Q 1219 2228 1467 2375 
Q 1716 2522 1828 2728 
Q 1941 2934 1941 3181 
Q 1941 3503 1739 3701 
Q 1538 3900 1238 3900 
Q 753 3900 428 3381 
L 325 3431 
z
" transform="scale(0.015625)"/>
       </defs>
       <use xlink:href="#TimesNewRomanPSMT-33"/>
       <use xlink:href="#TimesNewRomanPSMT-30" transform="translate(50 0)"/>
      </g>
     </g>
    </g>
    <g id="xtick_7">
     <g id="line2d_13">
      <g>
       <use xlink:href="#mcd3d3fa88b" x="386.512082" y="433.943875" style="stroke: #000000; stroke-width: 0.8"/>
      </g>
     </g>
     <g id="line2d_14">
      <g>
       <use xlink:href="#mac18f26d4b" x="386.512082" y="7.071875" style="stroke: #000000; stroke-width: 0.8"/>
      </g>
     </g>
     <g id="text_7">
      <!-- 35 -->
      <g transform="translate(381.512082 444.387625) scale(0.1 -0.1)">
       <use xlink:href="#TimesNewRomanPSMT-33"/>
       <use xlink:href="#TimesNewRomanPSMT-35" transform="translate(50 0)"/>
      </g>
     </g>
    </g>
    <g id="xtick_8">
     <g id="line2d_15">
      <g>
       <use xlink:href="#mcd3d3fa88b" x="440.837388" y="433.943875" style="stroke: #000000; stroke-width: 0.8"/>
      </g>
     </g>
     <g id="line2d_16">
      <g>
       <use xlink:href="#mac18f26d4b" x="440.837388" y="7.071875" style="stroke: #000000; stroke-width: 0.8"/>
      </g>
     </g>
     <g id="text_8">
      <!-- 40 -->
      <g transform="translate(435.837388 444.387625) scale(0.1 -0.1)">
       <defs>
        <path id="TimesNewRomanPSMT-34" d="M 2978 1563 
L 2978 1119 
L 2409 1119 
L 2409 0 
L 1894 0 
L 1894 1119 
L 100 1119 
L 100 1519 
L 2066 4325 
L 2409 4325 
L 2409 1563 
L 2978 1563 
z
M 1894 1563 
L 1894 3666 
L 406 1563 
L 1894 1563 
z
" transform="scale(0.015625)"/>
       </defs>
       <use xlink:href="#TimesNewRomanPSMT-34"/>
       <use xlink:href="#TimesNewRomanPSMT-30" transform="translate(50 0)"/>
      </g>
     </g>
    </g>
    <g id="xtick_9">
     <g id="line2d_17">
      <g>
       <use xlink:href="#mcd3d3fa88b" x="495.162694" y="433.943875" style="stroke: #000000; stroke-width: 0.8"/>
      </g>
     </g>
     <g id="line2d_18">
      <g>
       <use xlink:href="#mac18f26d4b" x="495.162694" y="7.071875" style="stroke: #000000; stroke-width: 0.8"/>
      </g>
     </g>
     <g id="text_9">
      <!-- 45 -->
      <g transform="translate(490.162694 444.387625) scale(0.1 -0.1)">
       <use xlink:href="#TimesNewRomanPSMT-34"/>
       <use xlink:href="#TimesNewRomanPSMT-35" transform="translate(50 0)"/>
      </g>
     </g>
    </g>
    <g id="xtick_10">
     <g id="line2d_19">
      <g>
       <use xlink:href="#mcd3d3fa88b" x="549.488" y="433.943875" style="stroke: #000000; stroke-width: 0.8"/>
      </g>
     </g>
     <g id="line2d_20">
      <g>
       <use xlink:href="#mac18f26d4b" x="549.488" y="7.071875" style="stroke: #000000; stroke-width: 0.8"/>
      </g>
     </g>
     <g id="text_10">
      <!-- 50 -->
      <g transform="translate(544.488 444.387625) scale(0.1 -0.1)">
       <use xlink:href="#TimesNewRomanPSMT-35"/>
       <use xlink:href="#TimesNewRomanPSMT-30" transform="translate(50 0)"/>
      </g>
     </g>
    </g>
   </g>
   <g id="matplotlib.axis_2">
    <g id="ytick_1">
     <g id="line2d_21">
      <defs>
       <path id="m4a09d6a85a" d="M 0 0 
L 3.5 0 
" style="stroke: #000000; stroke-width: 0.8"/>
      </defs>
      <g>
       <use xlink:href="#m4a09d6a85a" x="17.1" y="399.097181" style="stroke: #000000; stroke-width: 0.8"/>
      </g>
     </g>
     <g id="line2d_22">
      <defs>
       <path id="md1271f9f8c" d="M 0 0 
L -3.5 0 
" style="stroke: #000000; stroke-width: 0.8"/>
      </defs>
      <g>
       <use xlink:href="#md1271f9f8c" x="549.488" y="399.097181" style="stroke: #000000; stroke-width: 0.8"/>
      </g>
     </g>
     <g id="text_11">
      <!-- 5 -->
      <g transform="translate(8.6 402.569056) scale(0.1 -0.1)">
       <use xlink:href="#TimesNewRomanPSMT-35"/>
      </g>
     </g>
    </g>
    <g id="ytick_2">
     <g id="line2d_23">
      <g>
       <use xlink:href="#m4a09d6a85a" x="17.1" y="355.538814" style="stroke: #000000; stroke-width: 0.8"/>
      </g>
     </g>
     <g id="line2d_24">
      <g>
       <use xlink:href="#md1271f9f8c" x="549.488" y="355.538814" style="stroke: #000000; stroke-width: 0.8"/>
      </g>
     </g>
     <g id="text_12">
      <!-- 10 -->
      <g transform="translate(3.6 359.010689) scale(0.1 -0.1)">
       <use xlink:href="#TimesNewRomanPSMT-31"/>
       <use xlink:href="#TimesNewRomanPSMT-30" transform="translate(50 0)"/>
      </g>
     </g>
    </g>
    <g id="ytick_3">
     <g id="line2d_25">
      <g>
       <use xlink:href="#m4a09d6a85a" x="17.1" y="311.980446" style="stroke: #000000; stroke-width: 0.8"/>
      </g>
     </g>
     <g id="line2d_26">
      <g>
       <use xlink:href="#md1271f9f8c" x="549.488" y="311.980446" style="stroke: #000000; stroke-width: 0.8"/>
      </g>
     </g>
     <g id="text_13">
      <!-- 15 -->
      <g transform="translate(3.6 315.452321) scale(0.1 -0.1)">
       <use xlink:href="#TimesNewRomanPSMT-31"/>
       <use xlink:href="#TimesNewRomanPSMT-35" transform="translate(50 0)"/>
      </g>
     </g>
    </g>
    <g id="ytick_4">
     <g id="line2d_27">
      <g>
       <use xlink:href="#m4a09d6a85a" x="17.1" y="268.422079" style="stroke: #000000; stroke-width: 0.8"/>
      </g>
     </g>
     <g id="line2d_28">
      <g>
       <use xlink:href="#md1271f9f8c" x="549.488" y="268.422079" style="stroke: #000000; stroke-width: 0.8"/>
      </g>
     </g>
     <g id="text_14">
      <!-- 20 -->
      <g transform="translate(3.6 271.893954) scale(0.1 -0.1)">
       <use xlink:href="#TimesNewRomanPSMT-32"/>
       <use xlink:href="#TimesNewRomanPSMT-30" transform="translate(50 0)"/>
      </g>
     </g>
    </g>
    <g id="ytick_5">
     <g id="line2d_29">
      <g>
       <use xlink:href="#m4a09d6a85a" x="17.1" y="224.863712" style="stroke: #000000; stroke-width: 0.8"/>
      </g>
     </g>
     <g id="line2d_30">
      <g>
       <use xlink:href="#md1271f9f8c" x="549.488" y="224.863712" style="stroke: #000000; stroke-width: 0.8"/>
      </g>
     </g>
     <g id="text_15">
      <!-- 25 -->
      <g transform="translate(3.6 228.335587) scale(0.1 -0.1)">
       <use xlink:href="#TimesNewRomanPSMT-32"/>
       <use xlink:href="#TimesNewRomanPSMT-35" transform="translate(50 0)"/>
      </g>
     </g>
    </g>
    <g id="ytick_6">
     <g id="line2d_31">
      <g>
       <use xlink:href="#m4a09d6a85a" x="17.1" y="181.305344" style="stroke: #000000; stroke-width: 0.8"/>
      </g>
     </g>
     <g id="line2d_32">
      <g>
       <use xlink:href="#md1271f9f8c" x="549.488" y="181.305344" style="stroke: #000000; stroke-width: 0.8"/>
      </g>
     </g>
     <g id="text_16">
      <!-- 30 -->
      <g transform="translate(3.6 184.777219) scale(0.1 -0.1)">
       <use xlink:href="#TimesNewRomanPSMT-33"/>
       <use xlink:href="#TimesNewRomanPSMT-30" transform="translate(50 0)"/>
      </g>
     </g>
    </g>
    <g id="ytick_7">
     <g id="line2d_33">
      <g>
       <use xlink:href="#m4a09d6a85a" x="17.1" y="137.746977" style="stroke: #000000; stroke-width: 0.8"/>
      </g>
     </g>
     <g id="line2d_34">
      <g>
       <use xlink:href="#md1271f9f8c" x="549.488" y="137.746977" style="stroke: #000000; stroke-width: 0.8"/>
      </g>
     </g>
     <g id="text_17">
      <!-- 35 -->
      <g transform="translate(3.6 141.218852) scale(0.1 -0.1)">
       <use xlink:href="#TimesNewRomanPSMT-33"/>
       <use xlink:href="#TimesNewRomanPSMT-35" transform="translate(50 0)"/>
      </g>
     </g>
    </g>
    <g id="ytick_8">
     <g id="line2d_35">
      <g>
       <use xlink:href="#m4a09d6a85a" x="17.1" y="94.18861" style="stroke: #000000; stroke-width: 0.8"/>
      </g>
     </g>
     <g id="line2d_36">
      <g>
       <use xlink:href="#md1271f9f8c" x="549.488" y="94.18861" style="stroke: #000000; stroke-width: 0.8"/>
      </g>
     </g>
     <g id="text_18">
      <!-- 40 -->
      <g transform="translate(3.6 97.660485) scale(0.1 -0.1)">
       <use xlink:href="#TimesNewRomanPSMT-34"/>
       <use xlink:href="#TimesNewRomanPSMT-30" transform="translate(50 0)"/>
      </g>
     </g>
    </g>
    <g id="ytick_9">
     <g id="line2d_37">
      <g>
       <use xlink:href="#m4a09d6a85a" x="17.1" y="50.630242" style="stroke: #000000; stroke-width: 0.8"/>
      </g>
     </g>
     <g id="line2d_38">
      <g>
       <use xlink:href="#md1271f9f8c" x="549.488" y="50.630242" style="stroke: #000000; stroke-width: 0.8"/>
      </g>
     </g>
     <g id="text_19">
      <!-- 45 -->
      <g transform="translate(3.6 54.102117) scale(0.1 -0.1)">
       <use xlink:href="#TimesNewRomanPSMT-34"/>
       <use xlink:href="#TimesNewRomanPSMT-35" transform="translate(50 0)"/>
      </g>
     </g>
    </g>
    <g id="ytick_10">
     <g id="line2d_39">
      <g>
       <use xlink:href="#m4a09d6a85a" x="17.1" y="7.071875" style="stroke: #000000; stroke-width: 0.8"/>
      </g>
     </g>
     <g id="line2d_40">
      <g>
       <use xlink:href="#md1271f9f8c" x="549.488" y="7.071875" style="stroke: #000000; stroke-width: 0.8"/>
      </g>
     </g>
     <g id="text_20">
      <!-- 50 -->
      <g transform="translate(3.6 10.54375) scale(0.1 -0.1)">
       <use xlink:href="#TimesNewRomanPSMT-35"/>
       <use xlink:href="#TimesNewRomanPSMT-30" transform="translate(50 0)"/>
      </g>
     </g>
    </g>
   </g>
   <g id="QuadContourSet_1">
    <path clip-path="url(#p1ee8794448)" style="fill: none; stroke: #800000; stroke-opacity: 0.85"/>
    <path d="M 457.167452 433.943875 
L 463.877869 429.563424 
L 473.214131 423.218448 
L 479.929769 418.461603 
L 488.034743 412.493021 
L 496.408927 406.057764 
L 504.422338 399.622508 
L 512.097302 393.187252 
L 520.059518 386.215799 
L 528.085467 378.854137 
L 533.436101 373.744675 
L 539.804973 367.446227 
L 546.812683 360.203879 
L 549.488 357.350167 
M 112.62646 7.071875 
L 105.385447 11.478184 
L 95.441681 17.797302 
L 88.967733 22.087473 
L 79.637623 28.522729 
L 73.281648 33.08872 
L 65.027353 39.248156 
L 56.768784 45.683413 
L 48.863439 52.118669 
L 41.177849 58.650377 
L 33.151899 65.777653 
L 27.049965 71.424438 
L 19.775317 78.436968 
L 17.1 81.095063 
L 17.1 81.095063 
" clip-path="url(#p1ee8794448)" style="fill: none; stroke: #ff2200; stroke-opacity: 0.85"/>
    <path d="M 342.353406 433.943875 
L 348.839256 431.451094 
L 358.488055 427.508619 
L 364.891156 424.745367 
L 372.968862 421.073362 
L 381.890406 416.783192 
L 390.32011 412.493021 
L 398.316124 408.20285 
L 405.925458 403.912679 
L 413.185936 399.622508 
L 421.072804 394.737513 
L 430.010652 388.897081 
L 437.124704 384.009374 
L 445.214989 378.171654 
L 453.672428 371.736398 
L 461.681097 365.301141 
L 469.275192 358.865885 
L 477.254452 351.726595 
L 483.34115 345.995372 
L 490.631035 338.769301 
L 496.046217 333.12486 
L 501.937813 326.689604 
L 507.537073 320.254347 
L 512.856776 313.819091 
L 517.907187 307.383835 
L 522.734834 300.895548 
L 527.241108 294.513322 
L 531.537463 288.078066 
L 536.111417 280.789029 
L 539.420728 275.207553 
L 543.018991 268.772297 
L 546.812683 261.489467 
L 549.488 256.007171 
M 17.1 381.113956 
L 19.838842 384.60691 
L 23.42236 388.897081 
L 27.801266 393.76073 
L 31.385938 397.477423 
L 35.827216 401.783451 
L 41.177849 406.587713 
L 46.528482 411.022433 
L 51.879116 415.129286 
L 57.229749 418.941897 
L 63.731661 423.218448 
L 67.931015 425.793319 
L 74.700219 429.653704 
L 78.731164 431.79879 
L 82.988638 433.943875 
M 549.488 84.826739 
L 546.812683 80.413322 
L 544.137367 76.303214 
L 541.46205 72.452869 
L 538.786734 68.8279 
L 535.778578 64.989182 
L 532.18698 60.699011 
L 528.085467 56.141472 
L 524.2063 52.118669 
L 519.772422 47.828498 
L 514.708884 43.280933 
L 509.358251 38.835668 
L 504.007618 34.719409 
L 498.321167 30.667815 
L 491.782486 26.377644 
L 487.955719 24.032141 
L 480.782067 19.942388 
L 474.579136 16.696187 
L 467.945859 13.507131 
L 461.202553 10.529421 
L 453.176603 7.319663 
L 452.513365 7.071875 
M 239.01984 7.071875 
L 231.125327 9.556316 
L 223.099377 12.258766 
L 212.398111 16.145841 
L 202.728412 19.942388 
L 196.346211 22.591999 
L 187.71436 26.377644 
L 178.50123 30.667815 
L 172.268362 33.719015 
L 164.242412 37.840368 
L 156.216462 42.179254 
L 146.347991 47.828498 
L 139.23914 52.118669 
L 132.138613 56.599035 
L 122.742724 62.844096 
L 116.086714 67.498085 
L 107.810771 73.569523 
L 99.497915 80.00478 
L 91.622295 86.440036 
L 83.982915 93.023797 
L 77.051673 99.310548 
L 70.309334 105.745805 
L 63.895332 112.181061 
L 57.229749 119.237093 
L 51.879116 125.195288 
L 46.495074 131.48683 
L 41.177849 138.026704 
L 35.827216 144.976883 
L 31.574584 150.792599 
L 27.11182 157.227855 
L 22.450633 164.36255 
L 18.905015 170.098367 
L 17.1 173.153677 
L 17.1 173.153677 
" clip-path="url(#p1ee8794448)" style="fill: none; stroke: #ff9800; stroke-opacity: 0.85"/>
    <path d="M 196.346211 419.065013 
L 199.021528 419.254683 
L 201.696844 419.417197 
L 204.372161 419.552908 
L 207.047477 419.662148 
L 209.722794 419.745225 
L 212.398111 419.802428 
L 215.073427 419.834023 
L 217.748744 419.840257 
L 220.42406 419.821357 
L 223.099377 419.777527 
L 225.774693 419.708956 
L 228.45001 419.61581 
L 231.125327 419.498236 
L 233.800643 419.356364 
L 236.47596 419.190303 
L 239.151276 419.000144 
L 240.04846 418.928277 
L 241.826593 418.787185 
L 244.50191 418.551114 
L 247.177226 418.29136 
L 249.852543 418.007949 
L 252.527859 417.700885 
L 255.203176 417.370155 
L 257.878492 417.01573 
L 259.524035 416.783192 
L 260.553809 416.638852 
L 263.229126 416.240485 
L 265.904442 415.818509 
L 268.579759 415.372828 
L 271.255075 414.903328 
L 272.694242 414.638106 
L 273.930392 414.411919 
L 276.605709 413.899066 
L 279.281025 413.362252 
L 281.956342 412.801299 
L 283.367265 412.493021 
L 284.631658 412.218487 
L 287.306975 411.614176 
L 289.982291 410.985404 
L 292.592267 410.347935 
L 292.657608 410.332065 
L 295.332925 409.659683 
L 298.008241 408.962385 
L 300.683558 408.23987 
L 300.816487 408.20285 
L 303.358874 407.498125 
L 306.034191 406.731195 
L 308.30829 406.057764 
L 308.709508 405.93944 
L 311.384824 405.127615 
L 314.060141 404.289545 
L 315.229548 403.912679 
L 316.735457 403.429018 
L 319.410774 402.54501 
L 321.695333 401.767594 
L 322.08609 401.634999 
L 324.761407 400.704271 
L 327.436724 399.745875 
L 327.773097 399.622508 
L 330.11204 398.766502 
L 332.787357 397.759876 
L 333.520677 397.477423 
L 335.462673 396.730579 
L 338.13799 395.67462 
L 338.985658 395.332337 
L 340.813307 394.595067 
L 343.488623 393.488535 
L 344.201508 393.187252 
L 346.16394 392.358215 
L 348.839256 391.199732 
L 349.196005 391.042166 
L 351.514573 390.017951 
L 353.990286 388.897081 
L 354.189889 388.806658 
L 356.865206 387.571864 
L 358.601313 386.751996 
L 359.540523 386.30794 
L 362.215839 385.017195 
L 363.049801 384.60691 
L 364.891156 383.699438 
L 367.348057 382.461825 
L 367.566472 382.351563 
L 370.241789 380.977822 
L 371.503551 380.316739 
L 372.917106 379.574089 
L 375.53278 378.171654 
L 375.592422 378.139574 
L 378.267739 376.678018 
L 379.437571 376.026568 
L 380.943055 375.185045 
L 383.231616 373.881483 
L 383.618372 373.660261 
L 386.293688 372.105415 
L 386.918261 371.736398 
L 388.969005 370.518953 
L 390.504639 369.591312 
L 391.644322 368.899258 
L 393.997122 367.446227 
L 394.319638 367.24592 
L 396.994955 365.55966 
L 397.399111 365.301141 
L 399.670271 363.839306 
L 400.715457 363.156056 
L 402.345588 362.083281 
L 403.950727 361.01097 
L 405.020905 360.29093 
L 407.108363 358.865885 
L 407.696221 358.461523 
L 410.191579 356.7208 
L 410.371538 356.594253 
L 413.046854 354.688594 
L 413.203366 354.575714 
L 415.722171 352.743394 
L 416.146673 352.430629 
L 418.397487 350.757179 
L 419.024111 350.285543 
L 421.072804 348.728831 
L 421.838047 348.140458 
L 423.748121 346.657139 
L 424.59068 345.995372 
L 426.423437 344.540787 
L 427.284056 343.850287 
L 429.098754 342.378357 
L 429.920077 341.705202 
L 431.77407 340.168318 
L 432.500504 339.560116 
L 434.449387 337.909021 
L 435.026967 337.415031 
L 437.124704 335.598696 
L 437.500972 335.269945 
L 439.80002 333.235436 
L 439.923907 333.12486 
L 442.297673 330.979774 
L 442.475337 330.817128 
L 444.62358 328.834689 
L 445.150653 328.341403 
L 446.90233 326.689604 
L 447.82597 325.805856 
L 449.134924 324.544518 
L 450.501286 323.207898 
L 451.322264 322.399433 
L 453.176603 320.544757 
L 453.465163 320.254347 
L 455.565767 318.109262 
L 455.85192 317.812649 
L 457.6252 315.964177 
L 458.527236 315.007848 
L 459.642707 313.819091 
L 461.202553 312.12754 
L 461.618794 311.674006 
L 463.555745 309.52892 
L 463.877869 309.166358 
L 465.454995 307.383835 
L 466.553186 306.11898 
L 467.314587 305.238749 
L 469.13534 303.093664 
L 469.228503 302.982152 
L 470.922091 300.948579 
L 471.903819 299.745526 
L 472.670457 298.803493 
L 474.381824 296.658408 
L 474.579136 296.406763 
L 476.060574 294.513322 
L 477.254452 292.953611 
L 477.701757 292.368237 
L 479.30973 290.223151 
L 479.929769 289.378773 
L 480.883807 288.078066 
L 482.42206 285.932981 
L 482.605085 285.672842 
L 483.930522 283.787895 
L 485.280402 281.820303 
L 485.402155 281.64281 
L 486.845328 279.497724 
L 487.955719 277.805245 
L 488.252789 277.352639 
L 489.631216 275.207553 
L 490.631035 273.611561 
L 490.975363 273.062468 
L 492.290759 270.917383 
L 493.306352 269.21679 
L 493.572221 268.772297 
L 494.826125 266.627212 
L 495.981668 264.593866 
L 496.045306 264.482126 
L 497.23909 262.337041 
L 498.398373 260.191955 
L 498.656985 259.701106 
L 499.531043 258.04687 
L 500.632084 255.901785 
L 501.332302 254.49756 
L 501.703002 253.756699 
L 502.746769 251.611614 
L 503.757805 249.466528 
L 504.007618 248.920875 
L 504.742922 247.321443 
L 505.697978 245.176357 
L 506.621217 243.031272 
L 506.682935 242.883359 
L 507.520339 240.886187 
L 508.388557 238.741101 
L 509.225695 236.596016 
L 509.358251 236.244364 
L 510.038079 234.45093 
L 510.820826 232.305845 
L 511.57306 230.160759 
L 512.033568 228.793882 
L 512.297407 228.015674 
L 512.99556 225.870589 
L 513.663595 223.725503 
L 514.301738 221.580418 
L 514.708884 220.145865 
L 514.911994 219.435332 
L 515.496052 217.290247 
L 516.050389 215.145161 
L 516.575148 213.000076 
L 517.070447 210.854991 
L 517.384201 209.410836 
L 517.537735 208.709905 
L 517.978203 206.56482 
L 518.389101 204.419734 
L 518.770466 202.274649 
L 519.122312 200.129563 
L 519.444631 197.984478 
L 519.737393 195.839393 
L 520.000544 193.694307 
L 520.059518 193.151987 
L 520.235495 191.549222 
L 520.440873 189.404136 
L 520.616058 187.259051 
L 520.760912 185.113965 
L 520.875273 182.96888 
L 520.958956 180.823795 
L 521.01175 178.678709 
L 521.033423 176.533624 
L 521.023717 174.388538 
L 520.982347 172.243453 
L 520.909007 170.098367 
L 520.80336 167.953282 
L 520.665047 165.808197 
L 520.493682 163.663111 
L 520.288849 161.518026 
L 520.059518 159.45712 
L 520.050173 159.37294 
L 519.778953 157.227855 
L 519.473043 155.082769 
L 519.131908 152.937684 
L 518.754982 150.792599 
L 518.34167 148.647513 
L 517.891344 146.502428 
L 517.403341 144.357342 
L 517.384201 144.278836 
L 516.879972 142.212257 
L 516.317745 140.067171 
L 515.715774 137.922086 
L 515.07325 135.777001 
L 514.708884 134.63005 
L 514.39097 133.631915 
L 513.668395 131.48683 
L 512.902681 129.341744 
L 512.092854 127.196659 
L 512.033568 127.046685 
L 511.241352 125.051573 
L 510.343944 122.906488 
L 509.399248 120.761403 
L 509.358251 120.672033 
L 508.409555 118.616317 
L 507.370317 116.471232 
L 506.682935 115.113646 
L 506.281314 114.326146 
L 505.142065 112.181061 
L 504.007618 110.140238 
L 503.949169 110.035976 
L 502.703713 107.89089 
L 501.401347 105.745805 
L 501.332302 105.635761 
L 500.042563 103.600719 
L 498.656985 101.505627 
L 498.623558 101.455634 
L 497.1438 99.310548 
L 495.981668 97.690955 
L 495.599966 97.165463 
L 493.990241 95.020378 
L 493.306352 94.139381 
L 492.311722 92.875292 
L 490.631035 90.813673 
L 490.561999 90.730207 
L 488.737256 88.585121 
L 487.955719 87.695763 
L 486.834648 86.440036 
L 485.280402 84.753363 
L 484.850827 84.29495 
L 482.781386 82.149865 
L 482.605085 81.971872 
L 480.620969 80.00478 
L 479.929769 79.338576 
L 478.365662 77.859694 
L 477.254452 76.837013 
L 476.009954 75.714609 
L 474.579136 74.457032 
L 473.547624 73.569523 
L 471.903819 72.189617 
L 470.971665 71.424438 
L 469.228503 70.02676 
L 468.274183 69.279352 
L 466.553186 67.961339 
L 465.4463 67.134267 
L 463.877869 65.987028 
L 462.478025 64.989182 
L 461.202553 64.098207 
L 459.358115 62.844096 
L 458.527236 62.289887 
L 456.07391 60.699011 
L 455.85192 60.557652 
L 453.176603 58.898361 
L 452.604878 58.553925 
L 450.501286 57.307721 
L 448.935164 56.40884 
L 447.82597 55.782199 
L 445.150653 54.319108 
L 445.046555 54.263754 
L 442.475337 52.916169 
L 440.898785 52.118669 
L 439.80002 51.570322 
L 437.124704 50.279635 
L 436.469318 49.973584 
L 434.449387 49.041779 
L 431.77407 47.8553 
L 431.71172 47.828498 
L 429.098754 46.717533 
L 426.560682 45.683413 
L 426.423437 45.628052 
L 423.748121 44.583807 
L 421.072804 43.585192 
L 420.942769 43.538327 
L 418.397487 42.62872 
L 415.722171 41.715264 
L 414.740014 41.393242 
L 413.046854 40.842094 
L 410.371538 40.008827 
L 407.807682 39.248156 
L 407.696221 39.215285 
L 405.020905 38.457822 
L 402.345588 37.738274 
L 399.857316 37.103071 
L 399.670271 37.055535 
L 396.994955 36.40621 
L 394.319638 35.792256 
L 391.644322 35.212891 
L 390.399463 34.957986 
L 388.969005 34.665835 
L 386.293688 34.150655 
L 383.618372 33.667991 
L 380.943055 33.217194 
L 378.36565 32.8129 
L 378.267739 32.797553 
L 375.592422 32.40627 
L 372.917106 32.045195 
L 370.241789 31.713799 
L 367.566472 31.411578 
L 364.891156 31.138054 
L 362.215839 30.892773 
L 359.540523 30.675307 
L 359.435535 30.667815 
L 356.865206 30.483936 
L 354.189889 30.319699 
L 351.514573 30.182297 
L 348.839256 30.071397 
L 346.16394 29.986689 
L 343.488623 29.927884 
L 340.813307 29.894714 
L 338.13799 29.886931 
L 335.462673 29.904309 
L 332.787357 29.94664 
L 330.11204 30.013737 
L 327.436724 30.105432 
L 324.761407 30.221577 
L 322.08609 30.362041 
L 319.410774 30.526715 
L 317.411831 30.667815 
L 316.735457 30.7151 
L 314.060141 30.926096 
L 311.384824 31.160835 
L 308.709508 31.419272 
L 306.034191 31.701384 
L 303.358874 32.007165 
L 300.683558 32.336625 
L 298.008241 32.689796 
L 297.134052 32.8129 
L 295.332925 33.06447 
L 292.657608 33.461604 
L 289.982291 33.882359 
L 287.306975 34.32683 
L 284.631658 34.795131 
L 283.745493 34.957986 
L 281.956342 35.284438 
L 279.281025 35.796105 
L 276.605709 36.33174 
L 273.930392 36.891523 
L 272.959823 37.103071 
L 271.255075 37.472309 
L 268.579759 38.075455 
L 265.904442 38.703067 
L 263.6677 39.248156 
L 263.229126 39.354441 
L 260.553809 40.025663 
L 257.878492 40.721806 
L 255.387651 41.393242 
L 255.203176 41.442728 
L 252.527859 42.182986 
L 249.852543 42.948756 
L 247.857756 43.538327 
L 247.177226 43.738629 
L 244.50191 44.549284 
L 241.826593 45.386183 
L 240.902603 45.683413 
L 239.151276 46.244852 
L 236.47596 47.127673 
L 234.412822 47.828498 
L 233.800643 48.035854 
L 231.125327 48.965375 
L 228.45001 49.922559 
L 228.31065 49.973584 
L 225.774693 50.900105 
L 223.099377 51.905494 
L 222.545012 52.118669 
L 220.42406 52.932978 
L 217.748744 53.98767 
L 217.063923 54.263754 
L 215.073427 55.065416 
L 212.398111 56.170647 
L 211.833628 56.40884 
L 209.722794 57.299158 
L 207.047477 58.456303 
L 206.82611 58.553925 
L 204.372161 59.636268 
L 202.021285 60.699011 
L 201.696844 60.845762 
L 199.021528 62.079143 
L 197.399306 62.844096 
L 196.346211 63.341247 
L 193.670894 64.63053 
L 192.940825 64.989182 
L 190.995578 65.94644 
L 188.634109 67.134267 
L 188.320261 67.292473 
L 185.644945 68.664657 
L 184.470056 69.279352 
L 182.969628 70.066508 
L 180.433388 71.424438 
L 180.294312 71.499136 
L 177.618995 72.959027 
L 176.521185 73.569523 
L 174.943678 74.45006 
L 172.720543 75.714609 
L 172.268362 75.97289 
L 169.593045 77.525949 
L 169.027405 77.859694 
L 166.917729 79.110388 
L 165.43513 80.00478 
L 164.242412 80.728038 
L 161.937027 82.149865 
L 161.567095 82.379304 
L 158.891779 84.063581 
L 158.529584 84.29495 
L 156.216462 85.781771 
L 155.208157 86.440036 
L 153.541146 87.535594 
L 151.968025 88.585121 
L 150.865829 89.325701 
L 148.805731 90.730207 
L 148.190513 91.152817 
L 145.718046 92.875292 
L 145.515196 93.017744 
L 142.839879 94.921044 
L 142.70197 95.020378 
L 140.164563 96.863768 
L 139.754551 97.165463 
L 137.489246 98.847441 
L 136.873149 99.310548 
L 134.81393 100.873175 
L 134.055391 101.455634 
L 132.138613 102.942177 
L 131.299065 103.600719 
L 129.463296 105.055755 
L 128.602116 105.745805 
L 126.78798 107.215321 
L 125.962636 107.89089 
L 124.112663 109.422399 
L 123.378853 110.035976 
L 121.437347 111.67863 
L 120.849131 112.181061 
L 118.76203 113.985778 
L 118.371955 114.326146 
L 116.086714 116.345739 
L 115.945932 116.471232 
L 113.569224 118.616317 
L 113.411397 118.760609 
L 111.240395 120.761403 
L 110.73608 121.232751 
L 108.958787 122.906488 
L 108.060764 123.764563 
L 106.723395 125.051573 
L 105.385447 126.358623 
L 104.533309 127.196659 
L 102.710131 129.01769 
L 102.38771 129.341744 
L 100.284634 131.48683 
L 100.034814 131.745426 
L 98.222616 133.631915 
L 97.359497 134.54572 
L 96.202558 135.777001 
L 94.684181 137.4213 
L 94.223948 137.922086 
L 92.284769 140.067171 
L 92.008864 140.377275 
L 90.383082 142.212257 
L 89.333548 143.419364 
L 88.52107 144.357342 
L 86.698241 146.502428 
L 86.658231 146.55025 
L 84.909136 148.647513 
L 83.982915 149.78091 
L 83.158422 150.792599 
L 81.445114 152.937684 
L 81.307598 153.112811 
L 79.764066 155.082769 
L 78.632281 156.559179 
L 78.120581 157.227855 
L 76.510784 159.37294 
L 75.956965 160.126004 
L 74.934438 161.518026 
L 73.394423 163.663111 
L 73.281648 163.823154 
L 71.883717 165.808197 
L 70.606332 167.667239 
L 70.409819 167.953282 
L 68.964976 170.098367 
L 67.931015 171.671857 
L 67.55526 172.243453 
L 66.175211 174.388538 
L 65.255698 175.853958 
L 64.82881 176.533624 
L 63.511833 178.678709 
L 62.580382 180.235814 
L 62.22811 180.823795 
L 60.972662 182.96888 
L 59.905065 184.844259 
L 59.751204 185.113965 
L 58.555908 187.259051 
L 57.395119 189.404136 
L 57.229749 189.717448 
L 56.260167 191.549222 
L 55.157646 193.694307 
L 54.554432 194.901755 
L 54.084411 195.839393 
L 53.039183 197.984478 
L 52.026687 200.129563 
L 51.879116 200.451262 
L 51.039224 202.274649 
L 50.082721 204.419734 
L 49.203799 206.458236 
L 49.157628 206.56482 
L 48.256519 208.709905 
L 47.38686 210.854991 
L 46.548276 213.000076 
L 46.528482 213.052467 
L 45.733441 215.145161 
L 44.949247 217.290247 
L 44.19556 219.435332 
L 43.853166 220.449131 
L 43.468686 221.580418 
L 42.769074 223.725503 
L 42.099569 225.870589 
L 41.459946 228.015674 
L 41.177849 229.006827 
L 40.847069 230.160759 
L 40.261516 232.305845 
L 39.70567 234.45093 
L 39.179388 236.596016 
L 38.682551 238.741101 
L 38.502533 239.56678 
L 38.212514 240.886187 
L 37.770481 243.031272 
L 37.358 245.176357 
L 36.975035 247.321443 
L 36.621569 249.466528 
L 36.297608 251.611614 
L 36.003184 253.756699 
L 35.827216 255.182418 
L 35.737584 255.901785 
L 35.500422 258.04687 
L 35.293313 260.191955 
L 35.116372 262.337041 
L 34.969736 264.482126 
L 34.853565 266.627212 
L 34.768044 268.772297 
L 34.713381 270.917383 
L 34.689809 273.062468 
L 34.697584 275.207553 
L 34.736989 277.352639 
L 34.808332 279.497724 
L 34.911944 281.64281 
L 35.048186 283.787895 
L 35.217443 285.932981 
L 35.420128 288.078066 
L 35.656681 290.223151 
L 35.827216 291.576008 
L 35.926875 292.368237 
L 36.230514 294.513322 
L 36.569335 296.658408 
L 36.9439 298.803493 
L 37.354804 300.948579 
L 37.802674 303.093664 
L 38.28817 305.238749 
L 38.502533 306.120061 
L 38.810156 307.383835 
L 39.369777 309.52892 
L 39.969086 311.674006 
L 40.608891 313.819091 
L 41.177849 315.613153 
L 41.289461 315.964177 
L 42.009206 318.109262 
L 42.772026 320.254347 
L 43.578896 322.399433 
L 43.853166 323.094146 
L 44.428332 324.544518 
L 45.322656 326.689604 
L 46.264199 328.834689 
L 46.528482 329.411424 
L 47.251501 330.979774 
L 48.287446 333.12486 
L 49.203799 334.936337 
L 49.373782 335.269945 
L 50.50959 337.415031 
L 51.699103 339.560116 
L 51.879116 339.873298 
L 52.941384 341.705202 
L 54.240065 343.850287 
L 54.554432 344.351651 
L 55.595498 345.995372 
L 57.010681 348.140458 
L 57.229749 348.461903 
L 58.486721 350.285543 
L 59.905065 352.263208 
L 60.026615 352.430629 
L 61.632201 354.575714 
L 62.580382 355.797696 
L 63.306412 356.7208 
L 65.05173 358.865885 
L 65.255698 359.10946 
L 66.871837 361.01097 
L 67.931015 362.216644 
L 68.769445 363.156056 
L 70.606332 365.149978 
L 70.74795 365.301141 
L 72.812595 367.446227 
L 73.281648 367.919877 
L 74.967241 369.591312 
L 75.956965 370.545394 
L 77.216426 371.736398 
L 78.632281 373.039608 
L 79.565641 373.881483 
L 81.307598 375.412647 
L 82.021088 376.026568 
L 83.982915 377.673505 
L 84.589756 378.171654 
L 86.658231 379.83017 
L 87.279515 380.316739 
L 89.333548 381.889744 
L 90.09922 382.461825 
L 92.008864 383.858537 
L 93.058837 384.60691 
L 94.684181 385.742152 
L 96.169581 386.751996 
L 97.359497 387.545562 
L 99.444085 388.897081 
L 100.034814 389.273171 
L 102.710131 390.928616 
L 102.898659 391.042166 
L 105.385447 392.514994 
L 106.557067 393.187252 
L 108.060764 394.036507 
L 110.432297 395.332337 
L 110.73608 395.49588 
L 113.411397 396.895287 
L 114.562677 397.477423 
L 116.086714 398.23768 
L 118.76203 399.525049 
L 118.970835 399.622508 
L 121.437347 400.759746 
L 123.711762 401.767594 
L 124.112663 401.943244 
L 126.78798 403.077946 
L 128.838004 403.912679 
L 129.463296 404.16474 
L 132.138613 405.206031 
L 134.423334 406.057764 
L 134.81393 406.2021 
L 137.489246 407.155859 
L 140.164563 408.066556 
L 140.580634 408.20285 
L 142.839879 408.937587 
L 145.515196 409.768215 
L 147.471218 410.347935 
L 148.190513 410.55984 
L 150.865829 411.314774 
L 153.541146 412.031849 
L 155.350026 412.493021 
L 156.216462 412.712932 
L 158.891779 413.359885 
L 161.567095 413.971519 
L 164.242412 414.548615 
L 164.680203 414.638106 
L 166.917729 415.0943 
L 169.593045 415.6073 
L 172.268362 416.08783 
L 174.943678 416.536537 
L 176.519837 416.783192 
L 177.618995 416.955069 
L 180.294312 417.344342 
L 182.969628 417.703447 
L 185.644945 418.032913 
L 188.320261 418.333241 
L 190.995578 418.60491 
L 193.670894 418.84837 
L 194.658949 418.928277 
L 196.346211 419.065013 
z
" clip-path="url(#p1ee8794448)" style="fill: none; stroke: #e1ff16; stroke-opacity: 0.85"/>
    <path d="M 209.722794 384.736791 
L 212.398111 384.935463 
L 215.073427 385.101245 
L 217.748744 385.234605 
L 220.42406 385.335984 
L 223.099377 385.405795 
L 225.774693 385.444421 
L 228.45001 385.452222 
L 231.125327 385.42953 
L 233.800643 385.376651 
L 236.47596 385.293867 
L 239.151276 385.181434 
L 241.826593 385.039584 
L 244.50191 384.868525 
L 247.177226 384.66844 
L 247.89533 384.60691 
L 249.852543 384.439937 
L 252.527859 384.182992 
L 255.203176 383.89757 
L 257.878492 383.583769 
L 260.553809 383.241666 
L 263.229126 382.871315 
L 265.904442 382.472747 
L 265.972905 382.461825 
L 268.579759 382.047214 
L 271.255075 381.593667 
L 273.930392 381.112048 
L 276.605709 380.602306 
L 278.026444 380.316739 
L 279.281025 380.065124 
L 281.956342 379.500676 
L 284.631658 378.90803 
L 287.306975 378.287056 
L 287.783 378.171654 
L 289.982291 377.639195 
L 292.657608 376.963234 
L 295.332925 376.258648 
L 296.180805 376.026568 
L 298.008241 375.52667 
L 300.683558 374.766504 
L 303.358874 373.977253 
L 303.672666 373.881483 
L 306.034191 373.160652 
L 308.709508 372.314908 
L 310.479351 371.736398 
L 311.384824 371.440213 
L 314.060141 370.537157 
L 316.735457 369.603964 
L 316.770717 369.591312 
L 319.410774 368.642597 
L 322.08609 367.650626 
L 322.622452 367.446227 
L 324.761407 366.62944 
L 327.436724 365.577487 
L 328.12136 365.301141 
L 330.11204 364.495506 
L 332.787357 363.382202 
L 333.31759 363.156056 
L 335.462673 362.238208 
L 338.13799 361.062016 
L 338.251504 361.01097 
L 340.813307 359.85454 
L 342.947381 358.865885 
L 343.488623 358.614064 
L 346.16394 357.341058 
L 347.437229 356.7208 
L 348.839256 356.034477 
L 351.514573 354.693864 
L 351.745635 354.575714 
L 354.189889 353.319 
L 355.878989 352.430629 
L 356.865206 351.90883 
L 359.540523 350.462961 
L 359.862589 350.285543 
L 362.215839 348.980653 
L 363.699749 348.140458 
L 364.891156 347.461108 
L 367.410104 345.995372 
L 367.566472 345.903697 
L 370.241789 344.307341 
L 370.993528 343.850287 
L 372.917106 342.671207 
L 374.464042 341.705202 
L 375.592422 340.994469 
L 377.828985 339.560116 
L 378.267739 339.27616 
L 380.943055 337.515034 
L 381.092601 337.415031 
L 383.618372 335.709503 
L 384.258715 335.269945 
L 386.293688 333.858712 
L 387.335211 333.12486 
L 388.969005 331.961294 
L 390.326195 330.979774 
L 391.644322 330.015754 
L 393.235479 328.834689 
L 394.319638 328.020464 
L 396.06659 326.689604 
L 396.994955 325.973655 
L 398.822797 324.544518 
L 399.670271 323.873405 
L 401.507125 322.399433 
L 402.345588 321.717632 
L 404.122371 320.254347 
L 405.020905 319.504082 
L 406.671118 318.109262 
L 407.696221 317.23032 
L 409.155751 315.964177 
L 410.371538 314.893711 
L 411.578466 313.819091 
L 413.046854 312.491413 
L 413.941284 311.674006 
L 415.722171 310.020358 
L 416.246058 309.52892 
L 418.397487 307.477236 
L 418.494484 307.383835 
L 420.687584 305.238749 
L 421.072804 304.855451 
L 422.827421 303.093664 
L 423.748121 302.152364 
L 424.915488 300.948579 
L 426.423437 299.364354 
L 426.952984 298.803493 
L 428.940917 296.658408 
L 429.098754 296.485035 
L 430.880379 294.513322 
L 431.77407 293.503991 
L 432.772667 292.368237 
L 434.449387 290.420915 
L 434.618558 290.223151 
L 436.419082 288.078066 
L 437.124704 287.219172 
L 438.175114 285.932981 
L 439.80002 283.897621 
L 439.887141 283.787895 
L 441.556559 281.64281 
L 442.475337 280.433997 
L 443.183511 279.497724 
L 444.768697 277.352639 
L 445.150653 276.823885 
L 446.313275 275.207553 
L 447.816718 273.062468 
L 447.82597 273.048966 
L 449.281276 270.917383 
L 450.501286 269.080824 
L 450.705582 268.772297 
L 452.091789 266.627212 
L 453.176603 264.900535 
L 453.438791 264.482126 
L 454.748542 262.337041 
L 455.85192 260.475652 
L 456.019749 260.191955 
L 457.254744 258.04687 
L 458.451542 255.901785 
L 458.527236 255.762165 
L 459.613096 253.756699 
L 460.737249 251.611614 
L 461.202553 250.69506 
L 461.825808 249.466528 
L 462.878522 247.321443 
L 463.877869 245.211718 
L 463.894618 245.176357 
L 464.876904 243.031272 
L 465.822918 240.886187 
L 466.553186 239.165612 
L 466.733476 238.741101 
L 467.610194 236.596016 
L 468.45121 234.45093 
L 469.228503 232.381203 
L 469.256842 232.305845 
L 470.029293 230.160759 
L 470.766408 228.015674 
L 471.468348 225.870589 
L 471.903819 224.470225 
L 472.135922 223.725503 
L 472.769637 221.580418 
L 473.368269 219.435332 
L 473.931878 217.290247 
L 474.460497 215.145161 
L 474.579136 214.629453 
L 474.955186 213.000076 
L 475.415013 210.854991 
L 475.839595 208.709905 
L 476.228863 206.56482 
L 476.58272 204.419734 
L 476.901041 202.274649 
L 477.183673 200.129563 
L 477.254452 199.513392 
L 477.430871 197.984478 
L 477.642031 195.839393 
L 477.816738 193.694307 
L 477.954732 191.549222 
L 478.055722 189.404136 
L 478.119388 187.259051 
L 478.145378 185.113965 
L 478.133309 182.96888 
L 478.082763 180.823795 
L 477.993294 178.678709 
L 477.86442 176.533624 
L 477.695624 174.388538 
L 477.486357 172.243453 
L 477.254452 170.255465 
L 477.236053 170.098367 
L 476.944326 167.953282 
L 476.610231 165.808197 
L 476.233057 163.663111 
L 475.812053 161.518026 
L 475.346427 159.37294 
L 474.835347 157.227855 
L 474.579136 156.238191 
L 474.277881 155.082769 
L 473.673004 152.937684 
L 473.01975 150.792599 
L 472.317091 148.647513 
L 471.903819 147.466191 
L 471.563562 146.502428 
L 470.757755 144.357342 
L 469.898887 142.212257 
L 469.228503 140.633811 
L 468.985218 140.067171 
L 468.014325 137.922086 
L 466.986061 135.777001 
L 466.553186 134.91783 
L 465.897091 133.631915 
L 464.746125 131.48683 
L 463.877869 129.947379 
L 463.531474 129.341744 
L 462.249096 127.196659 
L 461.202553 125.528245 
L 460.898904 125.051573 
L 459.475182 122.906488 
L 458.527236 121.540316 
L 457.977569 120.761403 
L 456.401195 118.616317 
L 455.85192 117.897448 
L 454.741962 116.471232 
L 453.176603 114.54108 
L 452.998859 114.326146 
L 451.162335 112.181061 
L 450.501286 111.436843 
L 449.230486 110.035976 
L 447.82597 108.542972 
L 447.198736 107.89089 
L 445.150653 105.834282 
L 445.06045 105.745805 
L 442.804676 103.600719 
L 442.475337 103.297244 
L 440.425882 101.455634 
L 439.80002 100.910182 
L 437.915392 99.310548 
L 437.124704 98.658713 
L 435.262345 97.165463 
L 434.449387 96.531484 
L 432.454349 95.020378 
L 431.77407 94.518557 
L 429.477243 92.875292 
L 429.098754 92.611226 
L 426.423437 90.802532 
L 426.313089 90.730207 
L 423.748121 89.088041 
L 422.934855 88.585121 
L 421.072804 87.458972 
L 419.325664 86.440036 
L 418.397487 85.910003 
L 415.722171 84.437467 
L 415.454109 84.29495 
L 413.046854 83.039836 
L 411.2681 82.149865 
L 410.371538 81.709452 
L 407.696221 80.445506 
L 406.724773 80.00478 
L 405.020905 79.244711 
L 402.345588 78.103162 
L 401.751091 77.859694 
L 399.670271 77.020569 
L 396.994955 75.992351 
L 396.239617 75.714609 
L 394.319638 75.018436 
L 391.644322 74.095584 
L 390.040549 73.569523 
L 388.969005 73.222441 
L 386.293688 72.397972 
L 383.618372 71.619505 
L 382.911668 71.424438 
L 380.943055 70.886919 
L 378.267739 70.198274 
L 375.592422 69.552173 
L 374.390431 69.279352 
L 372.917106 68.947989 
L 370.241789 68.384592 
L 367.566472 67.860809 
L 364.891156 67.375815 
L 363.450132 67.134267 
L 362.215839 66.928835 
L 359.540523 66.519048 
L 356.865206 66.145706 
L 354.189889 65.808143 
L 351.514573 65.505722 
L 348.839256 65.237843 
L 346.16394 65.003935 
L 345.96801 64.989182 
L 343.488623 64.803239 
L 340.813307 64.635447 
L 338.13799 64.500106 
L 335.462673 64.396774 
L 332.787357 64.325037 
L 330.11204 64.284509 
L 327.436724 64.274831 
L 324.761407 64.29567 
L 322.08609 64.346718 
L 319.410774 64.427693 
L 316.735457 64.538338 
L 314.060141 64.678419 
L 311.384824 64.847728 
L 309.477987 64.989182 
L 308.709508 65.045933 
L 306.034191 65.272549 
L 303.358874 65.527781 
L 300.683558 65.811506 
L 298.008241 66.123623 
L 295.332925 66.464055 
L 292.657608 66.832748 
L 290.625475 67.134267 
L 289.982291 67.229392 
L 287.306975 67.653242 
L 284.631658 68.105147 
L 281.956342 68.585134 
L 279.281025 69.093251 
L 278.35222 69.279352 
L 276.605709 69.628516 
L 273.930392 70.191336 
L 271.255075 70.782359 
L 268.579759 71.401715 
L 268.485773 71.424438 
L 265.904442 72.047676 
L 263.229126 72.722007 
L 260.553809 73.424965 
L 260.024365 73.569523 
L 257.878492 74.155056 
L 255.203176 74.913576 
L 252.527859 75.70118 
L 252.483758 75.714609 
L 249.852543 76.515892 
L 247.177226 77.359964 
L 245.64502 77.859694 
L 244.50191 78.232777 
L 241.826593 79.134131 
L 239.325407 80.00478 
L 239.151276 80.065471 
L 236.47596 81.025072 
L 233.800643 82.015298 
L 233.446821 82.149865 
L 231.125327 83.03456 
L 228.45001 84.084726 
L 227.928177 84.29495 
L 225.774693 85.164761 
L 223.099377 86.27623 
L 222.714587 86.440036 
L 220.42406 87.418247 
L 217.765583 88.585121 
L 217.748744 88.59254 
L 215.073427 89.798009 
L 213.057564 90.730207 
L 212.398111 91.036462 
L 209.722794 92.307473 
L 208.55509 92.875292 
L 207.047477 93.611974 
L 204.372161 94.950524 
L 204.235312 95.020378 
L 201.696844 96.323237 
L 200.092726 97.165463 
L 199.021528 97.731235 
L 196.346211 99.174906 
L 196.099564 99.310548 
L 193.670894 100.654953 
L 192.2544 101.455634 
L 190.995578 102.172201 
L 188.536489 103.600719 
L 188.320261 103.727274 
L 185.644945 105.321211 
L 184.945447 105.745805 
L 182.969628 106.954888 
L 181.468286 107.89089 
L 180.294312 108.629113 
L 178.097038 110.035976 
L 177.618995 110.344847 
L 174.943678 112.103288 
L 174.82719 112.181061 
L 172.268362 113.906091 
L 171.655448 114.326146 
L 169.593045 115.754072 
L 168.573587 116.471232 
L 166.917729 117.648594 
L 165.57748 118.616317 
L 164.242412 119.591142 
L 162.663298 120.761403 
L 161.567095 121.583337 
L 159.827497 122.906488 
L 158.891779 123.626938 
L 157.066794 125.051573 
L 156.216462 125.723858 
L 154.378148 127.196659 
L 153.541146 127.876169 
L 151.758749 129.341744 
L 150.865829 130.086113 
L 149.206001 131.48683 
L 148.190513 132.356115 
L 146.717507 133.631915 
L 145.515196 134.688797 
L 144.291061 135.777001 
L 142.839879 137.086987 
L 141.924631 137.922086 
L 140.164563 139.55374 
L 139.616354 140.067171 
L 137.489246 142.09235 
L 137.364524 142.212257 
L 135.168075 144.357342 
L 134.81393 144.709138 
L 133.025028 146.502428 
L 132.138613 147.40717 
L 130.933827 148.647513 
L 129.463296 150.189849 
L 128.893267 150.792599 
L 126.902316 152.937684 
L 126.78798 153.063061 
L 124.959938 155.082769 
L 124.112663 156.038047 
L 123.064786 157.227855 
L 121.437347 159.114705 
L 121.216074 159.37294 
L 119.41281 161.518026 
L 118.76203 162.30878 
L 117.654067 163.663111 
L 116.086714 165.62293 
L 115.939359 165.808197 
L 114.267367 167.953282 
L 113.411397 169.077437 
L 112.63782 170.098367 
L 111.050147 172.243453 
L 110.73608 172.677424 
L 109.503046 174.388538 
L 108.060764 176.442608 
L 107.9971 176.533624 
L 106.530173 178.678709 
L 105.385447 180.39865 
L 105.103401 180.823795 
L 103.714906 182.96888 
L 102.710131 184.56502 
L 102.365477 185.113965 
L 101.053497 187.259051 
L 100.034814 188.974078 
L 99.779891 189.404136 
L 98.54272 191.549222 
L 97.359497 193.666036 
L 97.343718 193.694307 
L 96.179854 195.839393 
L 95.053578 197.984478 
L 94.684181 198.710492 
L 93.962672 200.129563 
L 92.907873 202.274649 
L 92.008864 204.168134 
L 91.889422 204.419734 
L 90.90508 206.56482 
L 89.957013 208.709905 
L 89.333548 210.175155 
L 89.044102 210.854991 
L 88.165353 213.000076 
L 87.322305 215.145161 
L 86.658231 216.908567 
L 86.514304 217.290247 
L 85.739834 219.435332 
L 85.000696 221.580418 
L 84.296726 223.725503 
L 83.982915 224.731434 
L 83.62676 225.870589 
L 82.991018 228.015674 
L 82.39035 230.160759 
L 81.824694 232.305845 
L 81.307598 234.396037 
L 81.293976 234.45093 
L 80.796888 236.596016 
L 80.334992 238.741101 
L 79.908327 240.886187 
L 79.516959 243.031272 
L 79.160985 245.176357 
L 78.840528 247.321443 
L 78.632281 248.890748 
L 78.555543 249.466528 
L 78.306 251.611614 
L 78.092658 253.756699 
L 77.915744 255.901785 
L 77.77552 258.04687 
L 77.672273 260.191955 
L 77.606323 262.337041 
L 77.578022 264.482126 
L 77.587751 266.627212 
L 77.635925 268.772297 
L 77.722992 270.917383 
L 77.84943 273.062468 
L 78.015755 275.207553 
L 78.222516 277.352639 
L 78.470296 279.497724 
L 78.632281 280.701116 
L 78.759598 281.64281 
L 79.091058 283.787895 
L 79.465557 285.932981 
L 79.883843 288.078066 
L 80.346705 290.223151 
L 80.854976 292.368237 
L 81.307598 294.121257 
L 81.40955 294.513322 
L 82.01151 296.658408 
L 82.661795 298.803493 
L 83.361433 300.948579 
L 83.982915 302.728355 
L 84.11165 303.093664 
L 84.914313 305.238749 
L 85.76998 307.383835 
L 86.658231 309.478266 
L 86.679948 309.52892 
L 87.647505 311.674006 
L 88.67237 313.819091 
L 89.333548 315.132877 
L 89.75722 315.964177 
L 90.904638 318.109262 
L 92.008864 320.068953 
L 92.114803 320.254347 
L 93.393477 322.399433 
L 94.684181 324.458724 
L 94.738791 324.544518 
L 96.158642 326.689604 
L 97.359497 328.421405 
L 97.65096 328.834689 
L 99.223286 330.979774 
L 100.034814 332.042438 
L 100.876779 333.12486 
L 102.614435 335.269945 
L 102.710131 335.38416 
L 104.445954 337.415031 
L 105.385447 338.473105 
L 106.371198 339.560116 
L 108.060764 341.356663 
L 108.39593 341.705202 
L 110.528707 343.850287 
L 110.73608 344.052411 
L 112.777739 345.995372 
L 113.411397 346.579352 
L 115.148484 348.140458 
L 116.086714 348.958215 
L 117.65043 350.285543 
L 118.76203 351.201961 
L 120.294405 352.430629 
L 121.437347 353.321916 
L 123.09277 354.575714 
L 124.112663 355.327993 
L 126.05965 356.7208 
L 126.78798 357.228871 
L 129.211211 358.865885 
L 129.463296 359.032158 
L 132.138613 360.742232 
L 132.573306 361.01097 
L 134.81393 362.365675 
L 136.169632 363.156056 
L 137.489246 363.909347 
L 140.022116 365.301141 
L 140.164563 365.377871 
L 142.839879 366.771134 
L 144.189859 367.446227 
L 145.515196 368.096915 
L 148.190513 369.357616 
L 148.705954 369.591312 
L 150.865829 370.554165 
L 153.541146 371.692611 
L 153.648147 371.736398 
L 156.216462 372.771292 
L 158.891779 373.796541 
L 159.123 373.881483 
L 161.567095 374.766858 
L 164.242412 375.686866 
L 165.279196 376.026568 
L 166.917729 376.556705 
L 169.593045 377.378448 
L 172.268362 378.154241 
L 172.331537 378.171654 
L 174.943678 378.88386 
L 177.618995 379.569938 
L 180.294312 380.213518 
L 180.749919 380.316739 
L 182.969628 380.815047 
L 185.644945 381.376021 
L 188.320261 381.897424 
L 190.995578 382.380079 
L 191.484556 382.461825 
L 193.670894 382.82474 
L 196.346211 383.232275 
L 199.021528 383.603401 
L 201.696844 383.938785 
L 204.372161 384.23906 
L 207.047477 384.504827 
L 208.221942 384.60691 
L 209.722794 384.736791 
z
" clip-path="url(#p1ee8794448)" style="fill: none; stroke: #7aff7d; stroke-opacity: 0.85"/>
    <path d="M 233.800643 352.506358 
L 236.47596 352.548409 
L 239.151276 352.551797 
L 241.826593 352.517033 
L 244.50191 352.444594 
L 244.841489 352.430629 
L 247.177226 352.334482 
L 249.852543 352.187343 
L 252.527859 352.003636 
L 255.203176 351.783717 
L 257.878492 351.527914 
L 260.553809 351.236518 
L 263.229126 350.909792 
L 265.904442 350.547967 
L 267.673011 350.285543 
L 268.579759 350.150697 
L 271.255075 349.717566 
L 273.930392 349.249828 
L 276.605709 348.747608 
L 279.281025 348.210999 
L 279.611367 348.140458 
L 281.956342 347.638098 
L 284.631658 347.030642 
L 287.306975 346.388936 
L 288.864547 345.995372 
L 289.982291 345.711821 
L 292.657608 344.998798 
L 295.332925 344.251462 
L 296.706209 343.850287 
L 298.008241 343.468129 
L 300.683558 342.648612 
L 303.358874 341.794515 
L 303.627975 341.705202 
L 306.034191 340.902212 
L 308.709508 339.974667 
L 309.862643 339.560116 
L 311.384824 339.009545 
L 314.060141 338.007267 
L 315.588185 337.415031 
L 316.735457 336.967366 
L 319.410774 335.888868 
L 320.898042 335.269945 
L 322.08609 334.771879 
L 324.761407 333.615464 
L 325.863343 333.12486 
L 327.436724 332.418717 
L 330.11204 331.182468 
L 330.538935 330.979774 
L 332.787357 329.90291 
L 334.956557 328.834689 
L 335.462673 328.583147 
L 338.13799 327.218859 
L 339.149664 326.689604 
L 340.813307 325.81065 
L 343.149858 324.544518 
L 343.488623 324.359028 
L 346.16394 322.859453 
L 346.9657 322.399433 
L 348.839256 321.312498 
L 350.621634 320.254347 
L 351.514573 319.718038 
L 354.134017 318.109262 
L 354.189889 318.074526 
L 356.865206 316.376711 
L 357.501831 315.964177 
L 359.540523 314.626009 
L 360.745198 313.819091 
L 362.215839 312.820707 
L 363.872186 311.674006 
L 364.891156 310.958613 
L 366.889358 309.52892 
L 367.566472 309.037328 
L 369.802732 307.383835 
L 370.241789 307.054224 
L 372.617822 305.238749 
L 372.917106 305.006431 
L 375.339685 303.093664 
L 375.592422 302.89081 
L 377.972955 300.948579 
L 378.267739 300.703937 
L 380.521882 298.803493 
L 380.943055 298.442076 
L 382.990357 296.658408 
L 383.618372 296.10115 
L 385.381943 294.513322 
L 386.293688 293.676715 
L 387.699897 292.368237 
L 388.969005 291.163919 
L 389.947197 290.223151 
L 391.644322 288.557473 
L 392.126558 288.078066 
L 394.239814 285.932981 
L 394.319638 285.85026 
L 396.285771 283.787895 
L 396.994955 283.027178 
L 398.270675 281.64281 
L 399.670271 280.088529 
L 400.196444 279.497724 
L 402.062878 277.352639 
L 402.345588 277.019976 
L 403.869964 275.207553 
L 405.020905 273.803965 
L 405.622987 273.062468 
L 407.320941 270.917383 
L 407.696221 270.430847 
L 408.963831 268.772297 
L 410.371538 266.878397 
L 410.556635 266.627212 
L 412.095117 264.482126 
L 413.046854 263.115599 
L 413.584777 262.337041 
L 415.023797 260.191955 
L 415.722171 259.118383 
L 416.414102 258.04687 
L 417.75604 255.901785 
L 418.397487 254.842257 
L 419.050301 253.756699 
L 420.297264 251.611614 
L 421.072804 250.229507 
L 421.498342 249.466528 
L 422.652177 247.321443 
L 423.748121 245.20429 
L 423.762501 245.176357 
L 424.824801 243.031272 
L 425.843979 240.886187 
L 426.423437 239.613122 
L 426.818499 238.741101 
L 427.747711 236.596016 
L 428.63413 234.45093 
L 429.098754 233.269507 
L 429.47625 232.305845 
L 430.27377 230.160759 
L 431.028571 228.015674 
L 431.74063 225.870589 
L 431.77407 225.763294 
L 432.407242 223.725503 
L 433.030824 221.580418 
L 433.611393 219.435332 
L 434.148793 217.290247 
L 434.449387 215.984079 
L 434.642026 215.145161 
L 435.090514 213.000076 
L 435.495213 210.854991 
L 435.855836 208.709905 
L 436.172053 206.56482 
L 436.443499 204.419734 
L 436.669766 202.274649 
L 436.850405 200.129563 
L 436.984928 197.984478 
L 437.072805 195.839393 
L 437.11346 193.694307 
L 437.106276 191.549222 
L 437.05059 189.404136 
L 436.945694 187.259051 
L 436.790832 185.113965 
L 436.5852 182.96888 
L 436.327946 180.823795 
L 436.018165 178.678709 
L 435.654902 176.533624 
L 435.237147 174.388538 
L 434.763836 172.243453 
L 434.449387 170.967069 
L 434.232304 170.098367 
L 433.640129 167.953282 
L 432.988237 165.808197 
L 432.275285 163.663111 
L 431.77407 162.272517 
L 431.497566 161.518026 
L 430.650984 159.37294 
L 429.738075 157.227855 
L 429.098754 155.825284 
L 428.753916 155.082769 
L 427.693027 152.937684 
L 426.559513 150.792599 
L 426.423437 150.548802 
L 425.339912 148.647513 
L 424.040963 146.502428 
L 423.748121 146.043026 
L 422.649074 144.357342 
L 421.16984 142.212257 
L 421.072804 142.077864 
L 419.585191 140.067171 
L 418.397487 138.542401 
L 417.901676 137.922086 
L 416.106243 135.777001 
L 415.722171 135.337619 
L 414.189256 133.631915 
L 413.046854 132.416002 
L 412.147931 131.48683 
L 410.371538 129.726491 
L 409.971112 129.341744 
L 407.696221 127.24171 
L 407.645806 127.196659 
L 405.154217 125.051573 
L 405.020905 124.940897 
L 402.483622 122.906488 
L 402.345588 122.799597 
L 399.670271 120.801826 
L 399.614085 120.761403 
L 396.994955 118.937381 
L 396.515105 118.616317 
L 394.319638 117.191994 
L 393.160789 116.471232 
L 391.644322 115.555247 
L 389.516995 114.326146 
L 388.969005 114.018195 
L 386.293688 112.578605 
L 385.520041 112.181061 
L 383.618372 111.228753 
L 381.110667 110.035976 
L 380.943055 109.958171 
L 378.267739 108.772112 
L 376.16538 107.89089 
L 375.592422 107.656087 
L 372.917106 106.614582 
L 370.545848 105.745805 
L 370.241789 105.636698 
L 367.566472 104.72784 
L 364.891156 103.877213 
L 363.965104 103.600719 
L 362.215839 103.088108 
L 359.540523 102.356132 
L 356.865206 101.677337 
L 355.924217 101.455634 
L 354.189889 101.053757 
L 351.514573 100.482108 
L 348.839256 99.959416 
L 346.16394 99.484606 
L 345.080509 99.310548 
L 343.488623 99.058421 
L 340.813307 98.678918 
L 338.13799 98.343959 
L 335.462673 98.052693 
L 332.787357 97.804308 
L 330.11204 97.59804 
L 327.436724 97.433163 
L 324.761407 97.308994 
L 322.08609 97.224887 
L 319.410774 97.180238 
L 316.735457 97.174478 
L 314.060141 97.207076 
L 311.384824 97.277535 
L 308.709508 97.385397 
L 306.034191 97.530235 
L 303.358874 97.711657 
L 300.683558 97.929304 
L 298.008241 98.182849 
L 295.332925 98.471998 
L 292.657608 98.796489 
L 289.982291 99.156089 
L 288.936007 99.310548 
L 287.306975 99.551567 
L 284.631658 99.982457 
L 281.956342 100.447961 
L 279.281025 100.947953 
L 276.739525 101.455634 
L 276.605709 101.482447 
L 273.930392 102.05338 
L 271.255075 102.658584 
L 268.579759 103.29804 
L 267.377894 103.600719 
L 265.904442 103.973258 
L 263.229126 104.683994 
L 260.553809 105.429042 
L 259.466238 105.745805 
L 257.878492 106.210418 
L 255.203176 107.027601 
L 252.527859 107.87936 
L 252.493023 107.89089 
L 249.852543 108.769624 
L 247.177226 109.694776 
L 246.225651 110.035976 
L 244.50191 110.657808 
L 241.826593 111.657631 
L 240.472702 112.181061 
L 239.151276 112.695378 
L 236.47596 113.771352 
L 235.139585 114.326146 
L 233.800643 114.886107 
L 231.125327 116.039922 
L 230.154321 116.471232 
L 228.45001 117.234341 
L 225.774693 118.467905 
L 225.461419 118.616317 
L 223.099377 119.745025 
L 221.030859 120.761403 
L 220.42406 121.062304 
L 217.748744 122.423734 
L 216.82396 122.906488 
L 215.073427 123.82932 
L 212.813002 125.051573 
L 212.398111 125.278252 
L 209.722794 126.774771 
L 208.985951 127.196659 
L 207.047477 128.318864 
L 205.320916 129.341744 
L 204.372161 129.910373 
L 201.800011 131.48683 
L 201.696844 131.550833 
L 199.021528 133.245255 
L 198.423619 133.631915 
L 196.346211 134.99268 
L 195.1729 135.777001 
L 193.670894 136.794579 
L 192.038981 137.922086 
L 190.995578 138.65313 
L 189.015264 140.067171 
L 188.320261 140.570717 
L 186.095698 142.212257 
L 185.644945 142.549956 
L 183.274741 144.357342 
L 182.969628 144.593701 
L 180.547308 146.502428 
L 180.294312 146.705074 
L 177.908739 148.647513 
L 177.618995 148.887481 
L 175.354763 150.792599 
L 174.943678 151.144637 
L 172.881468 152.937684 
L 172.268362 153.480598 
L 170.485272 155.082769 
L 169.593045 155.899786 
L 168.162898 157.227855 
L 166.917729 158.407024 
L 165.911353 159.37294 
L 164.242412 161.007576 
L 163.727905 161.518026 
L 161.610417 163.663111 
L 161.567095 163.70791 
L 159.560656 165.808197 
L 158.891779 166.52416 
L 157.572071 167.953282 
L 156.216462 169.455511 
L 155.642733 170.098367 
L 153.772486 172.243453 
L 153.541146 172.515077 
L 151.962046 174.388538 
L 150.865829 175.722457 
L 150.20575 176.533624 
L 148.504232 178.678709 
L 148.190513 179.084517 
L 146.858244 180.823795 
L 145.515196 182.626593 
L 145.2624 182.96888 
L 143.720569 185.113965 
L 142.839879 186.375512 
L 142.228006 187.259051 
L 140.785743 189.404136 
L 140.164563 190.356721 
L 139.392652 191.549222 
L 138.047567 193.694307 
L 137.489246 194.614197 
L 136.750618 195.839393 
L 135.500594 197.984478 
L 134.81393 199.204972 
L 134.296909 200.129563 
L 133.14009 202.274649 
L 132.138613 204.203967 
L 132.027223 204.419734 
L 130.962007 206.56482 
L 129.939918 208.709905 
L 129.463296 209.753882 
L 128.962957 210.854991 
L 128.030892 213.000076 
L 127.141621 215.145161 
L 126.78798 216.041376 
L 126.297133 217.290247 
L 125.496808 219.435332 
L 124.739198 221.580418 
L 124.112663 223.460633 
L 124.024685 223.725503 
L 123.355435 225.870589 
L 122.729074 228.015674 
L 122.145719 230.160759 
L 121.605524 232.305845 
L 121.437347 233.032881 
L 121.110056 234.45093 
L 120.658794 236.596016 
L 120.251306 238.741101 
L 119.887882 240.886187 
L 119.568848 243.031272 
L 119.294569 245.176357 
L 119.065452 247.321443 
L 118.881943 249.466528 
L 118.76203 251.339337 
L 118.744612 251.611614 
L 118.654268 253.756699 
L 118.610911 255.901785 
L 118.615136 258.04687 
L 118.667581 260.191955 
L 118.76203 262.191684 
L 118.768967 262.337041 
L 118.920791 264.482126 
L 119.123355 266.627212 
L 119.37751 268.772297 
L 119.68416 270.917383 
L 120.044259 273.062468 
L 120.458814 275.207553 
L 120.928888 277.352639 
L 121.437347 279.423884 
L 121.455734 279.497724 
L 122.044557 281.64281 
L 122.693057 283.787895 
L 123.402574 285.932981 
L 124.112663 287.9075 
L 124.175034 288.078066 
L 125.018052 290.223151 
L 125.927351 292.368237 
L 126.78798 294.259412 
L 126.905711 294.513322 
L 127.96285 296.658408 
L 129.092564 298.803493 
L 129.463296 299.468506 
L 130.305782 300.948579 
L 131.60078 303.093664 
L 132.138613 303.93821 
L 132.985757 305.238749 
L 134.460884 307.383835 
L 134.81393 307.873163 
L 136.038053 309.52892 
L 137.489246 311.393158 
L 137.713587 311.674006 
L 139.504644 313.819091 
L 140.164563 314.574401 
L 141.413004 315.964177 
L 142.839879 317.483437 
L 143.445127 318.109262 
L 145.515196 320.161194 
L 145.612122 320.254347 
L 147.931742 322.399433 
L 148.190513 322.629801 
L 150.413647 324.544518 
L 150.865829 324.919938 
L 153.072928 326.689604 
L 153.541146 327.052166 
L 155.92915 328.834689 
L 156.216462 329.042173 
L 158.891779 330.902058 
L 159.007958 330.979774 
L 161.567095 332.639569 
L 162.347615 333.12486 
L 164.242412 334.268937 
L 165.975718 335.269945 
L 166.917729 335.799073 
L 169.593045 337.235153 
L 169.943314 337.415031 
L 172.268362 338.578606 
L 174.333396 339.560116 
L 174.943678 339.84319 
L 177.618995 341.025957 
L 179.241007 341.705202 
L 180.294312 342.136439 
L 182.969628 343.174777 
L 184.815551 343.850287 
L 185.644945 344.147543 
L 188.320261 345.053354 
L 190.995578 345.900975 
L 191.312251 345.995372 
L 193.670894 346.68543 
L 196.346211 347.414512 
L 199.021528 348.090449 
L 199.234255 348.140458 
L 201.696844 348.709812 
L 204.372161 349.278707 
L 207.047477 349.798678 
L 209.722794 350.270801 
L 209.814886 350.285543 
L 212.398111 350.693228 
L 215.073427 351.070137 
L 217.748744 351.40253 
L 220.42406 351.691259 
L 223.099377 351.937133 
L 225.774693 352.140917 
L 228.45001 352.303334 
L 231.125327 352.425067 
L 231.306613 352.430629 
L 233.800643 352.506358 
z
" clip-path="url(#p1ee8794448)" style="fill: none; stroke: #13fce4; stroke-opacity: 0.85"/>
    <path d="M 231.125327 316.116004 
L 233.800643 316.466835 
L 236.47596 316.75777 
L 239.151276 316.990149 
L 241.826593 317.165241 
L 244.50191 317.284243 
L 247.177226 317.348287 
L 249.852543 317.358441 
L 252.527859 317.315707 
L 255.203176 317.221028 
L 257.878492 317.07529 
L 260.553809 316.879316 
L 263.229126 316.63388 
L 265.904442 316.339695 
L 268.579759 315.997428 
L 268.807147 315.964177 
L 271.255075 315.60258 
L 273.930392 315.159833 
L 276.605709 314.670218 
L 279.281025 314.134231 
L 280.727702 313.819091 
L 281.956342 313.548496 
L 284.631658 312.912249 
L 287.306975 312.230454 
L 289.353375 311.674006 
L 289.982291 311.500968 
L 292.657608 310.718012 
L 295.332925 309.890059 
L 296.438651 309.52892 
L 298.008241 309.009793 
L 300.683558 308.07925 
L 302.590255 307.383835 
L 303.358874 307.099744 
L 306.034191 306.064689 
L 308.079825 305.238749 
L 308.709508 304.980909 
L 311.384824 303.839136 
L 313.06477 303.093664 
L 314.060141 302.645376 
L 316.735457 301.394381 
L 317.655151 300.948579 
L 319.410774 300.084215 
L 321.924434 298.803493 
L 322.08609 298.719775 
L 324.761407 297.287407 
L 325.899559 296.658408 
L 327.436724 295.794264 
L 329.646816 294.513322 
L 330.11204 294.238836 
L 332.787357 292.613202 
L 333.179238 292.368237 
L 335.462673 290.914043 
L 336.518369 290.223151 
L 338.13799 289.142455 
L 339.69181 288.078066 
L 340.813307 287.294168 
L 342.712029 285.932981 
L 343.488623 285.364436 
L 345.590189 283.787895 
L 346.16394 283.347989 
L 348.336299 281.64281 
L 348.839256 281.238965 
L 350.959346 279.497724 
L 351.514573 279.03085 
L 353.467404 277.352639 
L 354.189889 276.716389 
L 355.867733 275.207553 
L 356.865206 274.287505 
L 358.166868 273.062468 
L 359.540523 271.735185 
L 360.370687 270.917383 
L 362.215839 269.049364 
L 362.48448 268.772297 
L 364.506102 266.627212 
L 364.891156 266.206404 
L 366.441138 264.482126 
L 367.566472 263.191366 
L 368.298729 262.337041 
L 370.079768 260.191955 
L 370.241789 259.990203 
L 371.777248 258.04687 
L 372.917106 256.553811 
L 373.407214 255.901785 
L 374.962444 253.756699 
L 375.592422 252.854496 
L 376.447554 251.611614 
L 377.866751 249.466528 
L 378.267739 248.834808 
L 379.214979 247.321443 
L 380.501249 245.176357 
L 380.943055 244.405109 
L 381.719673 243.031272 
L 382.875754 240.886187 
L 383.618372 239.43711 
L 383.970618 238.741101 
L 384.998891 236.596016 
L 385.971051 234.45093 
L 386.293688 233.693735 
L 386.878165 232.305845 
L 387.724285 230.160759 
L 388.5136 228.015674 
L 388.969005 226.679445 
L 389.241678 225.870589 
L 389.906063 223.725503 
L 390.512611 221.580418 
L 391.060702 219.435332 
L 391.549654 217.290247 
L 391.644322 216.815269 
L 391.973877 215.145161 
L 392.336772 213.000076 
L 392.638863 210.854991 
L 392.879255 208.709905 
L 393.056987 206.56482 
L 393.171026 204.419734 
L 393.220269 202.274649 
L 393.203539 200.129563 
L 393.119584 197.984478 
L 392.967073 195.839393 
L 392.744592 193.694307 
L 392.450647 191.549222 
L 392.083656 189.404136 
L 391.644322 187.270496 
L 391.641905 187.259051 
L 391.114493 185.113965 
L 390.507079 182.96888 
L 389.817609 180.823795 
L 389.043916 178.678709 
L 388.969005 178.490274 
L 388.168207 176.533624 
L 387.199919 174.388538 
L 386.293688 172.555413 
L 386.13454 172.243453 
L 384.950842 170.098367 
L 383.664855 167.953282 
L 383.618372 167.880829 
L 382.241927 165.808197 
L 380.943055 163.991299 
L 380.699686 163.663111 
L 379.005509 161.518026 
L 378.267739 160.640997 
L 377.158079 159.37294 
L 375.592422 157.689089 
L 375.145229 157.227855 
L 372.944251 155.082769 
L 372.917106 155.057635 
L 370.521874 152.937684 
L 370.241789 152.702091 
L 367.8603 150.792599 
L 367.566472 150.568024 
L 364.922503 148.647513 
L 364.891156 148.625748 
L 362.215839 146.86099 
L 361.640595 146.502428 
L 359.540523 145.247074 
L 357.959023 144.357342 
L 356.865206 143.765794 
L 354.189889 142.407392 
L 353.780578 142.212257 
L 351.514573 141.170814 
L 348.929618 140.067171 
L 348.839256 140.029901 
L 346.16394 138.998788 
L 343.488623 138.049692 
L 343.099552 137.922086 
L 340.813307 137.195465 
L 338.13799 136.419086 
L 335.697687 135.777001 
L 335.462673 135.716936 
L 332.787357 135.096585 
L 330.11204 134.543763 
L 327.436724 134.056735 
L 324.761407 133.633853 
L 324.747133 133.631915 
L 322.08609 133.279654 
L 319.410774 132.985398 
L 316.735457 132.749711 
L 314.060141 132.571325 
L 311.384824 132.44904 
L 308.709508 132.381725 
L 306.034191 132.368311 
L 303.358874 132.407794 
L 300.683558 132.499232 
L 298.008241 132.641738 
L 295.332925 132.834486 
L 292.657608 133.076704 
L 289.982291 133.367675 
L 287.89936 133.631915 
L 287.306975 133.70782 
L 284.631658 134.099865 
L 281.956342 134.539328 
L 279.281025 135.025662 
L 276.605709 135.55837 
L 275.596916 135.777001 
L 273.930392 136.142148 
L 271.255075 136.775025 
L 268.579759 137.453449 
L 266.848805 137.922086 
L 265.904442 138.180779 
L 263.229126 138.960263 
L 260.553809 139.784738 
L 259.685758 140.067171 
L 257.878492 140.662607 
L 255.203176 141.58956 
L 253.489749 142.212257 
L 252.527859 142.5665 
L 249.852543 143.597839 
L 247.965097 144.357342 
L 247.177226 144.678857 
L 244.50191 145.816777 
L 242.951807 146.502428 
L 241.826593 147.007548 
L 239.151276 148.254541 
L 238.338079 148.647513 
L 236.47596 149.561458 
L 234.052266 150.792599 
L 233.800643 150.922508 
L 231.125327 152.350556 
L 230.059825 152.937684 
L 228.45001 153.839984 
L 226.299518 155.082769 
L 225.774693 155.391508 
L 223.099377 157.012457 
L 222.753823 157.227855 
L 220.42406 158.70731 
L 219.40411 159.37294 
L 217.748744 160.474345 
L 216.220897 161.518026 
L 215.073427 162.317806 
L 213.191631 163.663111 
L 212.398111 164.242405 
L 210.305073 165.808197 
L 209.722794 166.253381 
L 207.551146 167.953282 
L 207.047477 168.356556 
L 204.920805 170.098367 
L 204.372161 170.558405 
L 202.405924 172.243453 
L 201.696844 172.866131 
L 199.999193 174.388538 
L 199.021528 175.287761 
L 197.694038 176.533624 
L 196.346211 177.832246 
L 195.484542 178.678709 
L 193.670894 180.509582 
L 193.365378 180.823795 
L 191.337912 182.96888 
L 190.995578 183.3419 
L 189.398008 185.113965 
L 188.320261 186.346474 
L 187.535783 187.259051 
L 185.749356 189.404136 
L 185.644945 189.533753 
L 184.047649 191.549222 
L 182.969628 192.956891 
L 182.41363 193.694307 
L 180.853409 195.839393 
L 180.294312 196.637487 
L 179.364571 197.984478 
L 177.940569 200.129563 
L 177.618995 200.634447 
L 176.588896 202.274649 
L 175.297992 204.419734 
L 174.943678 205.036018 
L 174.076368 206.56482 
L 172.915809 208.709905 
L 172.268362 209.968413 
L 171.817955 210.854991 
L 170.785345 213.000076 
L 169.808855 215.145161 
L 169.593045 215.649431 
L 168.899051 217.290247 
L 168.048728 219.435332 
L 167.255211 221.580418 
L 166.917729 222.565549 
L 166.524691 223.725503 
L 165.856216 225.870589 
L 165.245576 228.015674 
L 164.69339 230.160759 
L 164.242412 232.123523 
L 164.200942 232.305845 
L 163.774071 234.45093 
L 163.407169 236.596016 
L 163.101064 238.741101 
L 162.85665 240.886187 
L 162.674886 243.031272 
L 162.556805 245.176357 
L 162.503508 247.321443 
L 162.516171 249.466528 
L 162.596046 251.611614 
L 162.744464 253.756699 
L 162.962835 255.901785 
L 163.252655 258.04687 
L 163.615504 260.191955 
L 164.053055 262.337041 
L 164.242412 263.131347 
L 164.57286 264.482126 
L 165.175981 266.627212 
L 165.861141 268.772297 
L 166.630505 270.917383 
L 166.917729 271.641831 
L 167.497613 273.062468 
L 168.461437 275.207553 
L 169.519008 277.352639 
L 169.593045 277.491621 
L 170.696522 279.497724 
L 171.977897 281.64281 
L 172.268362 282.096149 
L 173.390453 283.787895 
L 174.922043 285.932981 
L 174.943678 285.961492 
L 176.610832 288.078066 
L 177.618995 289.277398 
L 178.446063 290.223151 
L 180.294312 292.211993 
L 180.445728 292.368237 
L 182.641675 294.513322 
L 182.969628 294.817058 
L 185.049709 296.658408 
L 185.644945 297.159131 
L 187.695767 298.803493 
L 188.320261 299.280757 
L 190.616763 300.948579 
L 190.995578 301.211533 
L 193.670894 302.972257 
L 193.865759 303.093664 
L 196.346211 304.575601 
L 197.52574 305.238749 
L 199.021528 306.047101 
L 201.661285 307.383835 
L 201.696844 307.401183 
L 204.372161 308.629221 
L 206.48208 309.52892 
L 207.047477 309.761817 
L 209.722794 310.789231 
L 212.224774 311.674006 
L 212.398111 311.733369 
L 215.073427 312.581336 
L 217.748744 313.354136 
L 219.52054 313.819091 
L 220.42406 314.049389 
L 223.099377 314.666269 
L 225.774693 315.215635 
L 228.45001 315.699222 
L 230.13468 315.964177 
L 231.125327 316.116004 
z
" clip-path="url(#p1ee8794448)" style="fill: none; stroke: #007dff; stroke-opacity: 0.85"/>
    <path d="M 255.203176 269.02656 
L 257.878492 269.343949 
L 260.553809 269.542044 
L 263.229126 269.625542 
L 265.904442 269.598825 
L 268.579759 269.465987 
L 271.255075 269.230844 
L 273.930392 268.896956 
L 274.701129 268.772297 
L 276.605709 268.453797 
L 279.281025 267.909003 
L 281.956342 267.271494 
L 284.32346 266.627212 
L 284.631658 266.540379 
L 287.306975 265.689093 
L 289.982291 264.75061 
L 290.679125 264.482126 
L 292.657608 263.692133 
L 295.332925 262.536291 
L 295.759889 262.337041 
L 298.008241 261.24804 
L 300.050676 260.191955 
L 300.683558 259.85165 
L 303.358874 258.319394 
L 303.80746 258.04687 
L 306.034191 256.637778 
L 307.136853 255.901785 
L 308.709508 254.806021 
L 310.14155 253.756699 
L 311.384824 252.803501 
L 312.867108 251.611614 
L 314.060141 250.605347 
L 315.350749 249.466528 
L 316.735457 248.181349 
L 317.623131 247.321443 
L 319.410774 245.494515 
L 319.709687 245.176357 
L 321.608665 243.031272 
L 322.08609 242.456828 
L 323.341519 240.886187 
L 324.761407 238.989292 
L 324.940422 238.741101 
L 326.371509 236.596016 
L 327.436724 234.868625 
L 327.685294 234.45093 
L 328.84598 232.305845 
L 329.89792 230.160759 
L 330.11204 229.667736 
L 330.805257 228.015674 
L 331.591228 225.870589 
L 332.261592 223.725503 
L 332.787357 221.67688 
L 332.811303 221.580418 
L 333.219243 219.435332 
L 333.504076 217.290247 
L 333.661368 215.145161 
L 333.686368 213.000076 
L 333.573983 210.854991 
L 333.318755 208.709905 
L 332.914843 206.56482 
L 332.787357 206.070103 
L 332.333452 204.419734 
L 331.574314 202.274649 
L 330.635949 200.129563 
L 330.11204 199.122971 
L 329.474273 197.984478 
L 328.071002 195.839393 
L 327.436724 194.993218 
L 326.379927 193.694307 
L 324.761407 191.94029 
L 324.366527 191.549222 
L 322.08609 189.528946 
L 321.930429 189.404136 
L 319.410774 187.575668 
L 318.92304 187.259051 
L 316.735457 185.961312 
L 315.115476 185.113965 
L 314.060141 184.605397 
L 311.384824 183.480246 
L 309.964914 182.96888 
L 308.709508 182.548807 
L 306.034191 181.79642 
L 303.358874 181.187738 
L 301.300561 180.823795 
L 300.683558 180.721576 
L 298.008241 180.397716 
L 295.332925 180.193073 
L 292.657608 180.102962 
L 289.982291 180.123007 
L 287.306975 180.249125 
L 284.631658 180.477505 
L 281.956342 180.804594 
L 281.836035 180.823795 
L 279.281025 181.245356 
L 276.605709 181.782858 
L 273.930392 182.413054 
L 271.869966 182.96888 
L 271.255075 183.140563 
L 268.579759 183.984015 
L 265.904442 184.91466 
L 265.383501 185.113965 
L 263.229126 185.968061 
L 260.553809 187.115516 
L 260.244269 187.259051 
L 257.878492 188.397526 
L 255.919614 189.404136 
L 255.203176 189.786939 
L 252.527859 191.309551 
L 252.131058 191.549222 
L 249.852543 192.982565 
L 248.780081 193.694307 
L 247.177226 194.804575 
L 245.75691 195.839393 
L 244.50191 196.795974 
L 243.015407 197.984478 
L 241.826593 198.981343 
L 240.517895 200.129563 
L 239.151276 201.390528 
L 238.233357 202.274649 
L 236.47596 204.060056 
L 236.136072 204.419734 
L 234.225067 206.56482 
L 233.800643 207.072269 
L 232.483512 208.709905 
L 231.125327 210.512648 
L 230.876825 210.854991 
L 229.435277 213.000076 
L 228.45001 214.586436 
L 228.115161 215.145161 
L 226.9447 217.290247 
L 225.882989 219.435332 
L 225.774693 219.682448 
L 224.971154 221.580418 
L 224.176063 223.725503 
L 223.496605 225.870589 
L 223.099377 227.397692 
L 222.943904 228.015674 
L 222.527485 230.160759 
L 222.234218 232.305845 
L 222.068544 234.45093 
L 222.035224 236.596016 
L 222.139361 238.741101 
L 222.386422 240.886187 
L 222.782264 243.031272 
L 223.099377 244.273491 
L 223.345409 245.176357 
L 224.096243 247.321443 
L 225.026473 249.466528 
L 225.774693 250.909515 
L 226.166605 251.611614 
L 227.561714 253.756699 
L 228.45001 254.944077 
L 229.227877 255.901785 
L 231.125327 257.960403 
L 231.212565 258.04687 
L 233.629267 260.191955 
L 233.800643 260.329366 
L 236.47596 262.267093 
L 236.5838 262.337041 
L 239.151276 263.858428 
L 240.345714 264.482126 
L 241.826593 265.194368 
L 244.50191 266.312975 
L 245.377556 266.627212 
L 247.177226 267.227139 
L 249.852543 267.973004 
L 252.527859 268.575027 
L 253.653899 268.772297 
L 255.203176 269.02656 
z
" clip-path="url(#p1ee8794448)" style="fill: none; stroke: #0000ff; stroke-opacity: 0.85"/>
    <path clip-path="url(#p1ee8794448)" style="fill: none; stroke: #000080; stroke-opacity: 0.85"/>
   </g>
   <g id="line2d_41">
    <path d="M 527.757878 181.305344 
L 474.388339 179.829757 
L 415.277144 181.656629 
L 361.447725 188.458666 
L 324.022668 198.639343 
L 302.790744 208.125649 
L 291.476359 214.865317 
L 285.397673 219.074691 
L 282.06959 221.559122 
L 280.222621 222.989535 
L 279.189625 223.803983 
L 278.609505 224.265351 
L 278.283037 224.526084 
L 278.099124 224.673265 
L 277.995465 224.756302 
L 277.937025 224.803139 
L 277.904074 224.829553 
L 277.885494 224.844449 
L 277.875017 224.85285 
L 277.869109 224.857586 
L 277.865777 224.860258 
L 277.863899 224.861764 
L 277.862839 224.862613 
L 277.862242 224.863092 
L 277.861905 224.863362 
L 277.861715 224.863515 
L 277.861608 224.863601 
L 277.861547 224.863649 
L 277.861513 224.863676 
L 277.861494 224.863692 
L 277.861483 224.863701 
" clip-path="url(#p1ee8794448)" style="fill: none; stroke: #0000ff; stroke-linecap: square"/>
    <defs>
     <path id="m4905b28a24" d="M -2.5 2.5 
L 2.5 -2.5 
M -2.5 -2.5 
L 2.5 2.5 
" style="stroke: #0000ff"/>
    </defs>
    <g clip-path="url(#p1ee8794448)">
     <use xlink:href="#m4905b28a24" x="527.757878" y="181.305344" style="fill: #0000ff; stroke: #0000ff"/>
     <use xlink:href="#m4905b28a24" x="474.388339" y="179.829757" style="fill: #0000ff; stroke: #0000ff"/>
     <use xlink:href="#m4905b28a24" x="415.277144" y="181.656629" style="fill: #0000ff; stroke: #0000ff"/>
     <use xlink:href="#m4905b28a24" x="361.447725" y="188.458666" style="fill: #0000ff; stroke: #0000ff"/>
     <use xlink:href="#m4905b28a24" x="324.022668" y="198.639343" style="fill: #0000ff; stroke: #0000ff"/>
     <use xlink:href="#m4905b28a24" x="302.790744" y="208.125649" style="fill: #0000ff; stroke: #0000ff"/>
     <use xlink:href="#m4905b28a24" x="291.476359" y="214.865317" style="fill: #0000ff; stroke: #0000ff"/>
     <use xlink:href="#m4905b28a24" x="285.397673" y="219.074691" style="fill: #0000ff; stroke: #0000ff"/>
     <use xlink:href="#m4905b28a24" x="282.06959" y="221.559122" style="fill: #0000ff; stroke: #0000ff"/>
     <use xlink:href="#m4905b28a24" x="280.222621" y="222.989535" style="fill: #0000ff; stroke: #0000ff"/>
     <use xlink:href="#m4905b28a24" x="279.189625" y="223.803983" style="fill: #0000ff; stroke: #0000ff"/>
     <use xlink:href="#m4905b28a24" x="278.609505" y="224.265351" style="fill: #0000ff; stroke: #0000ff"/>
     <use xlink:href="#m4905b28a24" x="278.283037" y="224.526084" style="fill: #0000ff; stroke: #0000ff"/>
     <use xlink:href="#m4905b28a24" x="278.099124" y="224.673265" style="fill: #0000ff; stroke: #0000ff"/>
     <use xlink:href="#m4905b28a24" x="277.995465" y="224.756302" style="fill: #0000ff; stroke: #0000ff"/>
     <use xlink:href="#m4905b28a24" x="277.937025" y="224.803139" style="fill: #0000ff; stroke: #0000ff"/>
     <use xlink:href="#m4905b28a24" x="277.904074" y="224.829553" style="fill: #0000ff; stroke: #0000ff"/>
     <use xlink:href="#m4905b28a24" x="277.885494" y="224.844449" style="fill: #0000ff; stroke: #0000ff"/>
     <use xlink:href="#m4905b28a24" x="277.875017" y="224.85285" style="fill: #0000ff; stroke: #0000ff"/>
     <use xlink:href="#m4905b28a24" x="277.869109" y="224.857586" style="fill: #0000ff; stroke: #0000ff"/>
     <use xlink:href="#m4905b28a24" x="277.865777" y="224.860258" style="fill: #0000ff; stroke: #0000ff"/>
     <use xlink:href="#m4905b28a24" x="277.863899" y="224.861764" style="fill: #0000ff; stroke: #0000ff"/>
     <use xlink:href="#m4905b28a24" x="277.862839" y="224.862613" style="fill: #0000ff; stroke: #0000ff"/>
     <use xlink:href="#m4905b28a24" x="277.862242" y="224.863092" style="fill: #0000ff; stroke: #0000ff"/>
     <use xlink:href="#m4905b28a24" x="277.861905" y="224.863362" style="fill: #0000ff; stroke: #0000ff"/>
     <use xlink:href="#m4905b28a24" x="277.861715" y="224.863515" style="fill: #0000ff; stroke: #0000ff"/>
     <use xlink:href="#m4905b28a24" x="277.861608" y="224.863601" style="fill: #0000ff; stroke: #0000ff"/>
     <use xlink:href="#m4905b28a24" x="277.861547" y="224.863649" style="fill: #0000ff; stroke: #0000ff"/>
     <use xlink:href="#m4905b28a24" x="277.861513" y="224.863676" style="fill: #0000ff; stroke: #0000ff"/>
     <use xlink:href="#m4905b28a24" x="277.861494" y="224.863692" style="fill: #0000ff; stroke: #0000ff"/>
     <use xlink:href="#m4905b28a24" x="277.861483" y="224.863701" style="fill: #0000ff; stroke: #0000ff"/>
    </g>
   </g>
   <g id="patch_3">
    <path d="M 17.1 433.943875 
L 17.1 7.071875 
" style="fill: none; stroke: #000000; stroke-width: 0.8; stroke-linejoin: miter; stroke-linecap: square"/>
   </g>
   <g id="patch_4">
    <path d="M 549.488 433.943875 
L 549.488 7.071875 
" style="fill: none; stroke: #000000; stroke-width: 0.8; stroke-linejoin: miter; stroke-linecap: square"/>
   </g>
   <g id="patch_5">
    <path d="M 17.1 433.943875 
L 549.488 433.943875 
" style="fill: none; stroke: #000000; stroke-width: 0.8; stroke-linejoin: miter; stroke-linecap: square"/>
   </g>
   <g id="patch_6">
    <path d="M 17.1 7.071875 
L 549.488 7.071875 
" style="fill: none; stroke: #000000; stroke-width: 0.8; stroke-linejoin: miter; stroke-linecap: square"/>
   </g>
  </g>
 </g>
 <defs>
  <clipPath id="p1ee8794448">
   <rect x="17.1" y="7.071875" width="532.388" height="426.872"/>
  </clipPath>
 </defs>
</svg>
