<?xml version="1.0" encoding="utf-8" standalone="no"?>
<!DOCTYPE svg PUBLIC "-//W3C//DTD SVG 1.1//EN"
  "http://www.w3.org/Graphics/SVG/1.1/DTD/svg11.dtd">
<svg xmlns:xlink="http://www.w3.org/1999/xlink" width="500.435937pt" height="380.152813pt" viewBox="0 0 500.435937 380.152813" xmlns="http://www.w3.org/2000/svg" version="1.1">
 <metadata>
  <rdf:RDF xmlns:dc="http://purl.org/dc/elements/1.1/" xmlns:cc="http://creativecommons.org/ns#" xmlns:rdf="http://www.w3.org/1999/02/22-rdf-syntax-ns#">
   <cc:Work>
    <dc:type rdf:resource="http://purl.org/dc/dcmitype/StillImage"/>
    <dc:date>2025-09-19T22:45:52.133495</dc:date>
    <dc:format>image/svg+xml</dc:format>
    <dc:creator>
     <cc:Agent>
      <dc:title>Matplotlib v3.10.0, https://matplotlib.org/</dc:title>
     </cc:Agent>
    </dc:creator>
   </cc:Work>
  </rdf:RDF>
 </metadata>
 <defs>
  <style type="text/css">*{stroke-linejoin: round; stroke-linecap: butt}</style>
 </defs>
 <g id="figure_1">
  <g id="patch_1">
   <path d="M 0 380.152813 
L 500.435937 380.152813 
L 500.435937 0 
L 0 0 
z
" style="fill: #ffffff"/>
  </g>
  <g id="axes_1">
   <g id="patch_2">
    <path d="M 40.435938 350.829375 
L 486.835938 350.829375 
L 486.835938 18.189375 
L 40.435938 18.189375 
z
" style="fill: #ffffff"/>
   </g>
   <g id="matplotlib.axis_1">
    <g id="xtick_1">
     <g id="line2d_1">
      <defs>
       <path id="mc171b905a4" d="M 0 0 
L 0 -3.5 
" style="stroke: #000000; stroke-width: 0.8"/>
      </defs>
      <g>
       <use xlink:href="#mc171b905a4" x="40.435938" y="350.829375" style="stroke: #000000; stroke-width: 0.8"/>
      </g>
     </g>
     <g id="line2d_2">
      <defs>
       <path id="m47a25cda49" d="M 0 0 
L 0 3.5 
" style="stroke: #000000; stroke-width: 0.8"/>
      </defs>
      <g>
       <use xlink:href="#m47a25cda49" x="40.435938" y="18.189375" style="stroke: #000000; stroke-width: 0.8"/>
      </g>
     </g>
     <g id="text_1">
      <!-- 500 -->
      <g transform="translate(32.935938 361.273125) scale(0.1 -0.1)">
       <defs>
        <path id="TimesNewRomanPSMT-35" d="M 2778 4238 
L 2534 3706 
L 1259 3706 
L 981 3138 
Q 1809 3016 2294 2522 
Q 2709 2097 2709 1522 
Q 2709 1188 2573 903 
Q 2438 619 2231 419 
Q 2025 219 1772 97 
Q 1413 -75 1034 -75 
Q 653 -75 479 54 
Q 306 184 306 341 
Q 306 428 378 495 
Q 450 563 559 563 
Q 641 563 702 538 
Q 763 513 909 409 
Q 1144 247 1384 247 
Q 1750 247 2026 523 
Q 2303 800 2303 1197 
Q 2303 1581 2056 1914 
Q 1809 2247 1375 2428 
Q 1034 2569 447 2591 
L 1259 4238 
L 2778 4238 
z
" transform="scale(0.015625)"/>
        <path id="TimesNewRomanPSMT-30" d="M 231 2094 
Q 231 2819 450 3342 
Q 669 3866 1031 4122 
Q 1313 4325 1613 4325 
Q 2100 4325 2488 3828 
Q 2972 3213 2972 2159 
Q 2972 1422 2759 906 
Q 2547 391 2217 158 
Q 1888 -75 1581 -75 
Q 975 -75 572 641 
Q 231 1244 231 2094 
z
M 844 2016 
Q 844 1141 1059 588 
Q 1238 122 1591 122 
Q 1759 122 1940 273 
Q 2122 425 2216 781 
Q 2359 1319 2359 2297 
Q 2359 3022 2209 3506 
Q 2097 3866 1919 4016 
Q 1791 4119 1609 4119 
Q 1397 4119 1231 3928 
Q 1006 3669 925 3112 
Q 844 2556 844 2016 
z
" transform="scale(0.015625)"/>
       </defs>
       <use xlink:href="#TimesNewRomanPSMT-35"/>
       <use xlink:href="#TimesNewRomanPSMT-30" transform="translate(50 0)"/>
       <use xlink:href="#TimesNewRomanPSMT-30" transform="translate(100 0)"/>
      </g>
     </g>
    </g>
    <g id="xtick_2">
     <g id="line2d_3">
      <g>
       <use xlink:href="#mc171b905a4" x="90.035938" y="350.829375" style="stroke: #000000; stroke-width: 0.8"/>
      </g>
     </g>
     <g id="line2d_4">
      <g>
       <use xlink:href="#m47a25cda49" x="90.035938" y="18.189375" style="stroke: #000000; stroke-width: 0.8"/>
      </g>
     </g>
     <g id="text_2">
      <!-- 1000 -->
      <g transform="translate(80.035938 361.273125) scale(0.1 -0.1)">
       <defs>
        <path id="TimesNewRomanPSMT-31" d="M 750 3822 
L 1781 4325 
L 1884 4325 
L 1884 747 
Q 1884 391 1914 303 
Q 1944 216 2037 169 
Q 2131 122 2419 116 
L 2419 0 
L 825 0 
L 825 116 
Q 1125 122 1212 167 
Q 1300 213 1334 289 
Q 1369 366 1369 747 
L 1369 3034 
Q 1369 3497 1338 3628 
Q 1316 3728 1258 3775 
Q 1200 3822 1119 3822 
Q 1003 3822 797 3725 
L 750 3822 
z
" transform="scale(0.015625)"/>
       </defs>
       <use xlink:href="#TimesNewRomanPSMT-31"/>
       <use xlink:href="#TimesNewRomanPSMT-30" transform="translate(50 0)"/>
       <use xlink:href="#TimesNewRomanPSMT-30" transform="translate(100 0)"/>
       <use xlink:href="#TimesNewRomanPSMT-30" transform="translate(150 0)"/>
      </g>
     </g>
    </g>
    <g id="xtick_3">
     <g id="line2d_5">
      <g>
       <use xlink:href="#mc171b905a4" x="139.635937" y="350.829375" style="stroke: #000000; stroke-width: 0.8"/>
      </g>
     </g>
     <g id="line2d_6">
      <g>
       <use xlink:href="#m47a25cda49" x="139.635937" y="18.189375" style="stroke: #000000; stroke-width: 0.8"/>
      </g>
     </g>
     <g id="text_3">
      <!-- 1500 -->
      <g transform="translate(129.635937 361.273125) scale(0.1 -0.1)">
       <use xlink:href="#TimesNewRomanPSMT-31"/>
       <use xlink:href="#TimesNewRomanPSMT-35" transform="translate(50 0)"/>
       <use xlink:href="#TimesNewRomanPSMT-30" transform="translate(100 0)"/>
       <use xlink:href="#TimesNewRomanPSMT-30" transform="translate(150 0)"/>
      </g>
     </g>
    </g>
    <g id="xtick_4">
     <g id="line2d_7">
      <g>
       <use xlink:href="#mc171b905a4" x="189.235938" y="350.829375" style="stroke: #000000; stroke-width: 0.8"/>
      </g>
     </g>
     <g id="line2d_8">
      <g>
       <use xlink:href="#m47a25cda49" x="189.235938" y="18.189375" style="stroke: #000000; stroke-width: 0.8"/>
      </g>
     </g>
     <g id="text_4">
      <!-- 2000 -->
      <g transform="translate(179.235938 361.273125) scale(0.1 -0.1)">
       <defs>
        <path id="TimesNewRomanPSMT-32" d="M 2934 816 
L 2638 0 
L 138 0 
L 138 116 
Q 1241 1122 1691 1759 
Q 2141 2397 2141 2925 
Q 2141 3328 1894 3587 
Q 1647 3847 1303 3847 
Q 991 3847 742 3664 
Q 494 3481 375 3128 
L 259 3128 
Q 338 3706 661 4015 
Q 984 4325 1469 4325 
Q 1984 4325 2329 3994 
Q 2675 3663 2675 3213 
Q 2675 2891 2525 2569 
Q 2294 2063 1775 1497 
Q 997 647 803 472 
L 1909 472 
Q 2247 472 2383 497 
Q 2519 522 2628 598 
Q 2738 675 2819 816 
L 2934 816 
z
" transform="scale(0.015625)"/>
       </defs>
       <use xlink:href="#TimesNewRomanPSMT-32"/>
       <use xlink:href="#TimesNewRomanPSMT-30" transform="translate(50 0)"/>
       <use xlink:href="#TimesNewRomanPSMT-30" transform="translate(100 0)"/>
       <use xlink:href="#TimesNewRomanPSMT-30" transform="translate(150 0)"/>
      </g>
     </g>
    </g>
    <g id="xtick_5">
     <g id="line2d_9">
      <g>
       <use xlink:href="#mc171b905a4" x="238.835938" y="350.829375" style="stroke: #000000; stroke-width: 0.8"/>
      </g>
     </g>
     <g id="line2d_10">
      <g>
       <use xlink:href="#m47a25cda49" x="238.835938" y="18.189375" style="stroke: #000000; stroke-width: 0.8"/>
      </g>
     </g>
     <g id="text_5">
      <!-- 2500 -->
      <g transform="translate(228.835938 361.273125) scale(0.1 -0.1)">
       <use xlink:href="#TimesNewRomanPSMT-32"/>
       <use xlink:href="#TimesNewRomanPSMT-35" transform="translate(50 0)"/>
       <use xlink:href="#TimesNewRomanPSMT-30" transform="translate(100 0)"/>
       <use xlink:href="#TimesNewRomanPSMT-30" transform="translate(150 0)"/>
      </g>
     </g>
    </g>
    <g id="xtick_6">
     <g id="line2d_11">
      <g>
       <use xlink:href="#mc171b905a4" x="288.435937" y="350.829375" style="stroke: #000000; stroke-width: 0.8"/>
      </g>
     </g>
     <g id="line2d_12">
      <g>
       <use xlink:href="#m47a25cda49" x="288.435937" y="18.189375" style="stroke: #000000; stroke-width: 0.8"/>
      </g>
     </g>
     <g id="text_6">
      <!-- 3000 -->
      <g transform="translate(278.435937 361.273125) scale(0.1 -0.1)">
       <defs>
        <path id="TimesNewRomanPSMT-33" d="M 325 3431 
Q 506 3859 782 4092 
Q 1059 4325 1472 4325 
Q 1981 4325 2253 3994 
Q 2459 3747 2459 3466 
Q 2459 3003 1878 2509 
Q 2269 2356 2469 2072 
Q 2669 1788 2669 1403 
Q 2669 853 2319 450 
Q 1863 -75 997 -75 
Q 569 -75 414 31 
Q 259 138 259 259 
Q 259 350 332 419 
Q 406 488 509 488 
Q 588 488 669 463 
Q 722 447 909 348 
Q 1097 250 1169 231 
Q 1284 197 1416 197 
Q 1734 197 1970 444 
Q 2206 691 2206 1028 
Q 2206 1275 2097 1509 
Q 2016 1684 1919 1775 
Q 1784 1900 1550 2001 
Q 1316 2103 1072 2103 
L 972 2103 
L 972 2197 
Q 1219 2228 1467 2375 
Q 1716 2522 1828 2728 
Q 1941 2934 1941 3181 
Q 1941 3503 1739 3701 
Q 1538 3900 1238 3900 
Q 753 3900 428 3381 
L 325 3431 
z
" transform="scale(0.015625)"/>
       </defs>
       <use xlink:href="#TimesNewRomanPSMT-33"/>
       <use xlink:href="#TimesNewRomanPSMT-30" transform="translate(50 0)"/>
       <use xlink:href="#TimesNewRomanPSMT-30" transform="translate(100 0)"/>
       <use xlink:href="#TimesNewRomanPSMT-30" transform="translate(150 0)"/>
      </g>
     </g>
    </g>
    <g id="xtick_7">
     <g id="line2d_13">
      <g>
       <use xlink:href="#mc171b905a4" x="338.035937" y="350.829375" style="stroke: #000000; stroke-width: 0.8"/>
      </g>
     </g>
     <g id="line2d_14">
      <g>
       <use xlink:href="#m47a25cda49" x="338.035937" y="18.189375" style="stroke: #000000; stroke-width: 0.8"/>
      </g>
     </g>
     <g id="text_7">
      <!-- 3500 -->
      <g transform="translate(328.035937 361.273125) scale(0.1 -0.1)">
       <use xlink:href="#TimesNewRomanPSMT-33"/>
       <use xlink:href="#TimesNewRomanPSMT-35" transform="translate(50 0)"/>
       <use xlink:href="#TimesNewRomanPSMT-30" transform="translate(100 0)"/>
       <use xlink:href="#TimesNewRomanPSMT-30" transform="translate(150 0)"/>
      </g>
     </g>
    </g>
    <g id="xtick_8">
     <g id="line2d_15">
      <g>
       <use xlink:href="#mc171b905a4" x="387.635938" y="350.829375" style="stroke: #000000; stroke-width: 0.8"/>
      </g>
     </g>
     <g id="line2d_16">
      <g>
       <use xlink:href="#m47a25cda49" x="387.635938" y="18.189375" style="stroke: #000000; stroke-width: 0.8"/>
      </g>
     </g>
     <g id="text_8">
      <!-- 4000 -->
      <g transform="translate(377.635938 361.273125) scale(0.1 -0.1)">
       <defs>
        <path id="TimesNewRomanPSMT-34" d="M 2978 1563 
L 2978 1119 
L 2409 1119 
L 2409 0 
L 1894 0 
L 1894 1119 
L 100 1119 
L 100 1519 
L 2066 4325 
L 2409 4325 
L 2409 1563 
L 2978 1563 
z
M 1894 1563 
L 1894 3666 
L 406 1563 
L 1894 1563 
z
" transform="scale(0.015625)"/>
       </defs>
       <use xlink:href="#TimesNewRomanPSMT-34"/>
       <use xlink:href="#TimesNewRomanPSMT-30" transform="translate(50 0)"/>
       <use xlink:href="#TimesNewRomanPSMT-30" transform="translate(100 0)"/>
       <use xlink:href="#TimesNewRomanPSMT-30" transform="translate(150 0)"/>
      </g>
     </g>
    </g>
    <g id="xtick_9">
     <g id="line2d_17">
      <g>
       <use xlink:href="#mc171b905a4" x="437.235937" y="350.829375" style="stroke: #000000; stroke-width: 0.8"/>
      </g>
     </g>
     <g id="line2d_18">
      <g>
       <use xlink:href="#m47a25cda49" x="437.235937" y="18.189375" style="stroke: #000000; stroke-width: 0.8"/>
      </g>
     </g>
     <g id="text_9">
      <!-- 4500 -->
      <g transform="translate(427.235937 361.273125) scale(0.1 -0.1)">
       <use xlink:href="#TimesNewRomanPSMT-34"/>
       <use xlink:href="#TimesNewRomanPSMT-35" transform="translate(50 0)"/>
       <use xlink:href="#TimesNewRomanPSMT-30" transform="translate(100 0)"/>
       <use xlink:href="#TimesNewRomanPSMT-30" transform="translate(150 0)"/>
      </g>
     </g>
    </g>
    <g id="xtick_10">
     <g id="line2d_19">
      <g>
       <use xlink:href="#mc171b905a4" x="486.835938" y="350.829375" style="stroke: #000000; stroke-width: 0.8"/>
      </g>
     </g>
     <g id="line2d_20">
      <g>
       <use xlink:href="#m47a25cda49" x="486.835938" y="18.189375" style="stroke: #000000; stroke-width: 0.8"/>
      </g>
     </g>
     <g id="text_10">
      <!-- 5000 -->
      <g transform="translate(476.835938 361.273125) scale(0.1 -0.1)">
       <use xlink:href="#TimesNewRomanPSMT-35"/>
       <use xlink:href="#TimesNewRomanPSMT-30" transform="translate(50 0)"/>
       <use xlink:href="#TimesNewRomanPSMT-30" transform="translate(100 0)"/>
       <use xlink:href="#TimesNewRomanPSMT-30" transform="translate(150 0)"/>
      </g>
     </g>
    </g>
    <g id="text_11">
     <!-- 平方英尺 -->
     <g transform="translate(243.635938 374.41375) scale(0.1 -0.1)">
      <defs>
       <path id="SimSun-5e73" d="M 3375 750 
Q 3375 200 3400 -350 
L 2975 -525 
Q 3000 250 3000 875 
L 3000 2325 
L 1050 2325 
Q 725 2325 450 2250 
L 225 2475 
L 3000 2475 
L 3000 4575 
L 1600 4575 
Q 1275 4575 1000 4500 
L 775 4725 
L 4850 4725 
L 5200 5075 
L 5700 4575 
L 3375 4575 
L 3375 2475 
L 5200 2475 
L 5575 2850 
L 6100 2325 
L 3375 2325 
L 3375 750 
z
M 4750 4325 
L 5275 3925 
Q 5075 3925 4725 3475 
Q 4350 3025 3925 2625 
L 3850 2675 
Q 4500 3550 4750 4325 
z
M 1300 4200 
Q 2025 3675 2150 3487 
Q 2275 3300 2275 3150 
Q 2275 3075 2237 2962 
Q 2200 2850 2062 2750 
Q 1925 2650 1800 3100 
Q 1675 3525 1225 4150 
L 1300 4200 
z
" transform="scale(0.015625)"/>
       <path id="SimSun-65b9" d="M 275 3925 
L 5250 3925 
L 5625 4300 
L 6150 3775 
L 3075 3775 
Q 3050 3300 2950 2675 
L 4575 2675 
L 4825 2925 
L 5225 2550 
L 4975 2400 
Q 4725 475 4625 125 
Q 4525 -225 4312 -362 
Q 4100 -500 3725 -600 
Q 3625 -200 2900 100 
L 2925 200 
Q 3600 0 3812 -12 
Q 4025 -25 4137 75 
Q 4250 175 4350 712 
Q 4450 1250 4600 2525 
L 2925 2525 
Q 2500 350 475 -575 
L 425 -475 
Q 2675 800 2675 3775 
L 1100 3775 
Q 775 3775 500 3700 
L 275 3925 
z
M 2675 5150 
Q 3325 4900 3437 4725 
Q 3550 4550 3550 4450 
Q 3550 4350 3450 4212 
Q 3350 4075 3325 4075 
Q 3225 4075 3125 4350 
Q 2975 4725 2625 5075 
L 2675 5150 
z
" transform="scale(0.015625)"/>
       <path id="SimSun-82f1" d="M 1375 1525 
Q 1375 2850 1350 3225 
L 1700 3000 
L 2975 3000 
Q 2975 3325 2950 3950 
L 3525 3700 
L 3325 3525 
L 3325 3000 
L 4525 3000 
L 4725 3275 
L 5150 2975 
L 4925 2800 
L 4925 1525 
L 5225 1525 
L 5600 1875 
L 6075 1375 
L 3525 1375 
Q 3975 675 4712 300 
Q 5450 -75 6025 -100 
L 6025 -200 
Q 5650 -275 5575 -550 
Q 5100 -400 4450 62 
Q 3800 525 3400 1375 
L 3200 1375 
Q 2875 425 2137 0 
Q 1400 -425 475 -625 
L 450 -550 
Q 1450 -200 2000 250 
Q 2550 700 2825 1375 
L 1100 1375 
Q 775 1375 500 1300 
L 275 1525 
L 1375 1525 
z
M 2975 2850 
L 1700 2850 
L 1700 1525 
L 2850 1525 
Q 2950 2100 2975 2850 
z
M 3325 2850 
Q 3325 2200 3225 1525 
L 4600 1525 
L 4600 2850 
L 3325 2850 
z
M 2125 3475 
L 2125 4250 
L 1175 4250 
Q 850 4250 575 4175 
L 350 4400 
L 2125 4400 
Q 2125 4775 2100 5175 
L 2700 4925 
L 2450 4775 
L 2450 4400 
L 3975 4400 
Q 3975 4750 3950 5150 
L 4550 4900 
L 4300 4750 
L 4300 4400 
L 5200 4400 
L 5575 4775 
L 6100 4250 
L 4300 4250 
L 4300 3650 
L 3975 3525 
L 3975 4250 
L 2450 4250 
L 2450 3600 
L 2125 3475 
z
" transform="scale(0.015625)"/>
       <path id="SimSun-5c3a" d="M 5250 4375 
Q 5250 3975 5250 3600 
Q 5250 3225 5275 2650 
L 4900 2500 
L 4900 2900 
L 3325 2900 
Q 3675 1550 4387 850 
Q 5100 150 6100 -125 
L 6100 -225 
Q 5650 -275 5500 -550 
Q 4350 125 3825 1037 
Q 3300 1950 3175 2900 
L 1825 2900 
Q 1800 1500 1487 762 
Q 1175 25 275 -675 
L 225 -575 
Q 775 -25 1050 525 
Q 1325 1075 1400 1862 
Q 1475 2650 1425 4850 
L 1825 4625 
L 4850 4625 
L 5050 4875 
L 5450 4550 
L 5250 4375 
z
M 1825 4475 
L 1825 3050 
L 4900 3050 
L 4900 4475 
L 1825 4475 
z
" transform="scale(0.015625)"/>
      </defs>
      <use xlink:href="#SimSun-5e73"/>
      <use xlink:href="#SimSun-65b9" transform="translate(100 0)"/>
      <use xlink:href="#SimSun-82f1" transform="translate(200 0)"/>
      <use xlink:href="#SimSun-5c3a" transform="translate(300 0)"/>
     </g>
    </g>
   </g>
   <g id="matplotlib.axis_2">
    <g id="ytick_1">
     <g id="line2d_21">
      <defs>
       <path id="m881033c0fe" d="M 0 0 
L 3.5 0 
" style="stroke: #000000; stroke-width: 0.8"/>
      </defs>
      <g>
       <use xlink:href="#m881033c0fe" x="40.435938" y="341.415035" style="stroke: #000000; stroke-width: 0.8"/>
      </g>
     </g>
     <g id="line2d_22">
      <defs>
       <path id="mdf2a248ea2" d="M 0 0 
L -3.5 0 
" style="stroke: #000000; stroke-width: 0.8"/>
      </defs>
      <g>
       <use xlink:href="#mdf2a248ea2" x="486.835938" y="341.415035" style="stroke: #000000; stroke-width: 0.8"/>
      </g>
     </g>
     <g id="text_12">
      <!-- 0 -->
      <g transform="translate(31.935938 344.88691) scale(0.1 -0.1)">
       <use xlink:href="#TimesNewRomanPSMT-30"/>
      </g>
     </g>
    </g>
    <g id="ytick_2">
     <g id="line2d_23">
      <g>
       <use xlink:href="#m881033c0fe" x="40.435938" y="310.033903" style="stroke: #000000; stroke-width: 0.8"/>
      </g>
     </g>
     <g id="line2d_24">
      <g>
       <use xlink:href="#mdf2a248ea2" x="486.835938" y="310.033903" style="stroke: #000000; stroke-width: 0.8"/>
      </g>
     </g>
     <g id="text_13">
      <!-- 100 -->
      <g transform="translate(21.935938 313.505778) scale(0.1 -0.1)">
       <use xlink:href="#TimesNewRomanPSMT-31"/>
       <use xlink:href="#TimesNewRomanPSMT-30" transform="translate(50 0)"/>
       <use xlink:href="#TimesNewRomanPSMT-30" transform="translate(100 0)"/>
      </g>
     </g>
    </g>
    <g id="ytick_3">
     <g id="line2d_25">
      <g>
       <use xlink:href="#m881033c0fe" x="40.435938" y="278.652771" style="stroke: #000000; stroke-width: 0.8"/>
      </g>
     </g>
     <g id="line2d_26">
      <g>
       <use xlink:href="#mdf2a248ea2" x="486.835938" y="278.652771" style="stroke: #000000; stroke-width: 0.8"/>
      </g>
     </g>
     <g id="text_14">
      <!-- 200 -->
      <g transform="translate(21.935938 282.124646) scale(0.1 -0.1)">
       <use xlink:href="#TimesNewRomanPSMT-32"/>
       <use xlink:href="#TimesNewRomanPSMT-30" transform="translate(50 0)"/>
       <use xlink:href="#TimesNewRomanPSMT-30" transform="translate(100 0)"/>
      </g>
     </g>
    </g>
    <g id="ytick_4">
     <g id="line2d_27">
      <g>
       <use xlink:href="#m881033c0fe" x="40.435938" y="247.271639" style="stroke: #000000; stroke-width: 0.8"/>
      </g>
     </g>
     <g id="line2d_28">
      <g>
       <use xlink:href="#mdf2a248ea2" x="486.835938" y="247.271639" style="stroke: #000000; stroke-width: 0.8"/>
      </g>
     </g>
     <g id="text_15">
      <!-- 300 -->
      <g transform="translate(21.935938 250.743514) scale(0.1 -0.1)">
       <use xlink:href="#TimesNewRomanPSMT-33"/>
       <use xlink:href="#TimesNewRomanPSMT-30" transform="translate(50 0)"/>
       <use xlink:href="#TimesNewRomanPSMT-30" transform="translate(100 0)"/>
      </g>
     </g>
    </g>
    <g id="ytick_5">
     <g id="line2d_29">
      <g>
       <use xlink:href="#m881033c0fe" x="40.435938" y="215.890507" style="stroke: #000000; stroke-width: 0.8"/>
      </g>
     </g>
     <g id="line2d_30">
      <g>
       <use xlink:href="#mdf2a248ea2" x="486.835938" y="215.890507" style="stroke: #000000; stroke-width: 0.8"/>
      </g>
     </g>
     <g id="text_16">
      <!-- 400 -->
      <g transform="translate(21.935938 219.362382) scale(0.1 -0.1)">
       <use xlink:href="#TimesNewRomanPSMT-34"/>
       <use xlink:href="#TimesNewRomanPSMT-30" transform="translate(50 0)"/>
       <use xlink:href="#TimesNewRomanPSMT-30" transform="translate(100 0)"/>
      </g>
     </g>
    </g>
    <g id="ytick_6">
     <g id="line2d_31">
      <g>
       <use xlink:href="#m881033c0fe" x="40.435938" y="184.509375" style="stroke: #000000; stroke-width: 0.8"/>
      </g>
     </g>
     <g id="line2d_32">
      <g>
       <use xlink:href="#mdf2a248ea2" x="486.835938" y="184.509375" style="stroke: #000000; stroke-width: 0.8"/>
      </g>
     </g>
     <g id="text_17">
      <!-- 500 -->
      <g transform="translate(21.935938 187.98125) scale(0.1 -0.1)">
       <use xlink:href="#TimesNewRomanPSMT-35"/>
       <use xlink:href="#TimesNewRomanPSMT-30" transform="translate(50 0)"/>
       <use xlink:href="#TimesNewRomanPSMT-30" transform="translate(100 0)"/>
      </g>
     </g>
    </g>
    <g id="ytick_7">
     <g id="line2d_33">
      <g>
       <use xlink:href="#m881033c0fe" x="40.435938" y="153.128243" style="stroke: #000000; stroke-width: 0.8"/>
      </g>
     </g>
     <g id="line2d_34">
      <g>
       <use xlink:href="#mdf2a248ea2" x="486.835938" y="153.128243" style="stroke: #000000; stroke-width: 0.8"/>
      </g>
     </g>
     <g id="text_18">
      <!-- 600 -->
      <g transform="translate(21.935938 156.600118) scale(0.1 -0.1)">
       <defs>
        <path id="TimesNewRomanPSMT-36" d="M 2869 4325 
L 2869 4209 
Q 2456 4169 2195 4045 
Q 1934 3922 1679 3669 
Q 1425 3416 1258 3105 
Q 1091 2794 978 2366 
Q 1428 2675 1881 2675 
Q 2316 2675 2634 2325 
Q 2953 1975 2953 1425 
Q 2953 894 2631 456 
Q 2244 -75 1606 -75 
Q 1172 -75 869 213 
Q 275 772 275 1663 
Q 275 2231 503 2743 
Q 731 3256 1154 3653 
Q 1578 4050 1965 4187 
Q 2353 4325 2688 4325 
L 2869 4325 
z
M 925 2138 
Q 869 1716 869 1456 
Q 869 1156 980 804 
Q 1091 453 1309 247 
Q 1469 100 1697 100 
Q 1969 100 2183 356 
Q 2397 613 2397 1088 
Q 2397 1622 2184 2012 
Q 1972 2403 1581 2403 
Q 1463 2403 1327 2353 
Q 1191 2303 925 2138 
z
" transform="scale(0.015625)"/>
       </defs>
       <use xlink:href="#TimesNewRomanPSMT-36"/>
       <use xlink:href="#TimesNewRomanPSMT-30" transform="translate(50 0)"/>
       <use xlink:href="#TimesNewRomanPSMT-30" transform="translate(100 0)"/>
      </g>
     </g>
    </g>
    <g id="ytick_8">
     <g id="line2d_35">
      <g>
       <use xlink:href="#m881033c0fe" x="40.435938" y="121.747111" style="stroke: #000000; stroke-width: 0.8"/>
      </g>
     </g>
     <g id="line2d_36">
      <g>
       <use xlink:href="#mdf2a248ea2" x="486.835938" y="121.747111" style="stroke: #000000; stroke-width: 0.8"/>
      </g>
     </g>
     <g id="text_19">
      <!-- 700 -->
      <g transform="translate(21.935938 125.218986) scale(0.1 -0.1)">
       <defs>
        <path id="TimesNewRomanPSMT-37" d="M 644 4238 
L 2916 4238 
L 2916 4119 
L 1503 -88 
L 1153 -88 
L 2419 3728 
L 1253 3728 
Q 900 3728 750 3644 
Q 488 3500 328 3200 
L 238 3234 
L 644 4238 
z
" transform="scale(0.015625)"/>
       </defs>
       <use xlink:href="#TimesNewRomanPSMT-37"/>
       <use xlink:href="#TimesNewRomanPSMT-30" transform="translate(50 0)"/>
       <use xlink:href="#TimesNewRomanPSMT-30" transform="translate(100 0)"/>
      </g>
     </g>
    </g>
    <g id="ytick_9">
     <g id="line2d_37">
      <g>
       <use xlink:href="#m881033c0fe" x="40.435938" y="90.365979" style="stroke: #000000; stroke-width: 0.8"/>
      </g>
     </g>
     <g id="line2d_38">
      <g>
       <use xlink:href="#mdf2a248ea2" x="486.835938" y="90.365979" style="stroke: #000000; stroke-width: 0.8"/>
      </g>
     </g>
     <g id="text_20">
      <!-- 800 -->
      <g transform="translate(21.935938 93.837854) scale(0.1 -0.1)">
       <defs>
        <path id="TimesNewRomanPSMT-38" d="M 1228 2134 
Q 725 2547 579 2797 
Q 434 3047 434 3316 
Q 434 3728 753 4026 
Q 1072 4325 1600 4325 
Q 2113 4325 2425 4047 
Q 2738 3769 2738 3413 
Q 2738 3175 2569 2928 
Q 2400 2681 1866 2347 
Q 2416 1922 2594 1678 
Q 2831 1359 2831 1006 
Q 2831 559 2490 242 
Q 2150 -75 1597 -75 
Q 994 -75 656 303 
Q 388 606 388 966 
Q 388 1247 577 1523 
Q 766 1800 1228 2134 
z
M 1719 2469 
Q 2094 2806 2194 3001 
Q 2294 3197 2294 3444 
Q 2294 3772 2109 3958 
Q 1925 4144 1606 4144 
Q 1288 4144 1088 3959 
Q 888 3775 888 3528 
Q 888 3366 970 3203 
Q 1053 3041 1206 2894 
L 1719 2469 
z
M 1375 2016 
Q 1116 1797 991 1539 
Q 866 1281 866 981 
Q 866 578 1086 336 
Q 1306 94 1647 94 
Q 1984 94 2187 284 
Q 2391 475 2391 747 
Q 2391 972 2272 1150 
Q 2050 1481 1375 2016 
z
" transform="scale(0.015625)"/>
       </defs>
       <use xlink:href="#TimesNewRomanPSMT-38"/>
       <use xlink:href="#TimesNewRomanPSMT-30" transform="translate(50 0)"/>
       <use xlink:href="#TimesNewRomanPSMT-30" transform="translate(100 0)"/>
      </g>
     </g>
    </g>
    <g id="ytick_10">
     <g id="line2d_39">
      <g>
       <use xlink:href="#m881033c0fe" x="40.435938" y="58.984847" style="stroke: #000000; stroke-width: 0.8"/>
      </g>
     </g>
     <g id="line2d_40">
      <g>
       <use xlink:href="#mdf2a248ea2" x="486.835938" y="58.984847" style="stroke: #000000; stroke-width: 0.8"/>
      </g>
     </g>
     <g id="text_21">
      <!-- 900 -->
      <g transform="translate(21.935938 62.456722) scale(0.1 -0.1)">
       <defs>
        <path id="TimesNewRomanPSMT-39" d="M 338 -88 
L 338 28 
Q 744 34 1094 217 
Q 1444 400 1770 856 
Q 2097 1313 2225 1859 
Q 1734 1544 1338 1544 
Q 891 1544 572 1889 
Q 253 2234 253 2806 
Q 253 3363 572 3797 
Q 956 4325 1575 4325 
Q 2097 4325 2469 3894 
Q 2925 3359 2925 2575 
Q 2925 1869 2578 1258 
Q 2231 647 1613 244 
Q 1109 -88 516 -88 
L 338 -88 
z
M 2275 2091 
Q 2331 2497 2331 2741 
Q 2331 3044 2228 3395 
Q 2125 3747 1936 3934 
Q 1747 4122 1506 4122 
Q 1228 4122 1018 3872 
Q 809 3622 809 3128 
Q 809 2469 1088 2097 
Q 1291 1828 1588 1828 
Q 1731 1828 1928 1897 
Q 2125 1966 2275 2091 
z
" transform="scale(0.015625)"/>
       </defs>
       <use xlink:href="#TimesNewRomanPSMT-39"/>
       <use xlink:href="#TimesNewRomanPSMT-30" transform="translate(50 0)"/>
       <use xlink:href="#TimesNewRomanPSMT-30" transform="translate(100 0)"/>
      </g>
     </g>
    </g>
    <g id="ytick_11">
     <g id="line2d_41">
      <g>
       <use xlink:href="#m881033c0fe" x="40.435938" y="27.603715" style="stroke: #000000; stroke-width: 0.8"/>
      </g>
     </g>
     <g id="line2d_42">
      <g>
       <use xlink:href="#mdf2a248ea2" x="486.835938" y="27.603715" style="stroke: #000000; stroke-width: 0.8"/>
      </g>
     </g>
     <g id="text_22">
      <!-- 1000 -->
      <g transform="translate(16.935938 31.07559) scale(0.1 -0.1)">
       <use xlink:href="#TimesNewRomanPSMT-31"/>
       <use xlink:href="#TimesNewRomanPSMT-30" transform="translate(50 0)"/>
       <use xlink:href="#TimesNewRomanPSMT-30" transform="translate(100 0)"/>
       <use xlink:href="#TimesNewRomanPSMT-30" transform="translate(150 0)"/>
      </g>
     </g>
    </g>
    <g id="text_23">
     <!-- 价格（千美元） -->
     <g transform="translate(10.796875 219.509375) rotate(-90) scale(0.1 -0.1)">
      <defs>
       <path id="SimSun-4ef7" d="M 4175 4875 
L 3950 4725 
Q 4350 4025 4900 3562 
Q 5450 3100 6125 2950 
L 6125 2875 
Q 5750 2825 5650 2575 
Q 4475 3275 3875 4600 
Q 3450 3800 2962 3287 
Q 2475 2775 1900 2400 
L 1850 2475 
Q 2400 2900 2900 3637 
Q 3400 4375 3650 5200 
L 4175 4875 
z
M 3375 2550 
Q 3375 1600 3275 1087 
Q 3175 575 2875 200 
Q 2575 -175 1875 -550 
L 1825 -475 
Q 2350 -100 2575 225 
Q 2800 550 2912 975 
Q 3025 1400 3025 3000 
L 3600 2725 
L 3375 2550 
z
M 4400 -700 
Q 4425 -100 4425 400 
L 4425 1950 
Q 4425 2525 4400 3025 
L 4975 2750 
L 4750 2550 
L 4750 525 
Q 4750 50 4775 -500 
L 4400 -700 
z
M 1325 3250 
Q 750 2375 350 2025 
L 275 2100 
Q 500 2375 750 2775 
Q 1000 3175 1250 3762 
Q 1500 4350 1725 5200 
L 2275 4875 
L 2050 4725 
Q 1900 4425 1475 3500 
L 1825 3300 
L 1675 3150 
L 1675 800 
Q 1675 125 1700 -425 
L 1275 -625 
Q 1325 150 1325 775 
L 1325 3250 
z
" transform="scale(0.015625)"/>
       <path id="SimSun-683c" d="M 3250 1400 
L 3250 25 
L 4775 25 
L 4775 1400 
L 3250 1400 
z
M 5100 1300 
Q 5100 300 5150 -450 
L 4775 -600 
L 4775 -125 
L 3250 -125 
L 3250 -500 
L 2875 -650 
Q 2925 175 2900 1725 
Q 2450 1500 1875 1300 
L 1850 1400 
Q 2950 1850 3875 2800 
Q 3500 3375 3325 4075 
Q 2925 3425 2375 2925 
L 2300 2975 
Q 3075 3900 3425 5275 
L 3950 4975 
L 3750 4850 
Q 3625 4625 3450 4300 
L 4750 4300 
L 4975 4550 
L 5350 4200 
L 5125 4075 
Q 4700 3275 4250 2775 
Q 4900 2100 6125 1950 
L 6125 1850 
Q 5750 1850 5625 1575 
Q 4750 1825 4050 2550 
Q 3575 2125 2950 1750 
L 3250 1550 
L 4750 1550 
L 4975 1775 
L 5325 1450 
L 5100 1300 
z
M 3425 4150 
Q 3650 3525 4050 3025 
Q 4450 3525 4750 4150 
L 3425 4150 
z
M 1625 750 
Q 1625 400 1650 -500 
L 1275 -650 
Q 1300 825 1300 2475 
Q 900 1450 325 800 
L 250 850 
Q 950 1950 1275 3550 
L 725 3550 
L 500 3500 
L 300 3700 
L 1300 3700 
Q 1300 4375 1275 5250 
L 1850 4975 
L 1625 4800 
L 1625 3700 
L 1975 3700 
L 2250 3975 
L 2675 3550 
L 1625 3550 
L 1625 2950 
Q 2150 2700 2287 2537 
Q 2425 2375 2425 2225 
Q 2425 2125 2362 2012 
Q 2300 1900 2275 1900 
Q 2200 1900 2075 2175 
Q 1900 2575 1625 2825 
L 1625 750 
z
" transform="scale(0.015625)"/>
       <path id="SimSun-ff08" d="M 5087 200 
Q 5475 -100 5425 -150 
Q 5375 -200 4950 87 
Q 4525 375 4137 850 
Q 3750 1325 3687 2100 
Q 3625 2875 4000 3487 
Q 4375 4100 4887 4462 
Q 5400 4825 5412 4762 
Q 5425 4700 5075 4425 
Q 4725 4125 4387 3600 
Q 4050 3075 4050 2250 
Q 4050 1425 4375 962 
Q 4700 500 5087 200 
z
" transform="scale(0.015625)"/>
       <path id="SimSun-5343" d="M 4675 5150 
L 5175 4625 
Q 4800 4625 3375 4400 
L 3375 2725 
L 5200 2725 
L 5575 3100 
L 6100 2575 
L 3375 2575 
L 3375 325 
Q 3375 -200 3400 -425 
L 2975 -600 
Q 3000 -125 3000 50 
L 3000 2575 
L 1075 2575 
Q 750 2575 475 2500 
L 250 2725 
L 3000 2725 
L 3000 4350 
Q 1975 4250 1025 4200 
L 1025 4300 
Q 1975 4400 3162 4650 
Q 4350 4900 4675 5150 
z
" transform="scale(0.015625)"/>
       <path id="SimSun-7f8e" d="M 3300 1800 
Q 3250 1650 3200 1500 
L 4800 1500 
L 5150 1825 
L 5600 1350 
L 3375 1350 
Q 3750 825 4362 412 
Q 4975 0 6075 -75 
L 6075 -175 
Q 5725 -200 5575 -575 
Q 4650 -275 4100 225 
Q 3550 725 3250 1350 
L 3150 1350 
Q 2725 250 2037 -112 
Q 1350 -475 350 -625 
L 325 -550 
Q 1100 -350 1737 0 
Q 2375 350 2775 1350 
L 1375 1350 
Q 1050 1350 775 1275 
L 550 1500 
L 2825 1500 
Q 2900 1875 2950 2250 
L 3525 1975 
L 3300 1800 
z
M 4250 4825 
Q 3950 4500 3650 4175 
L 4750 4175 
L 5150 4500 
L 5600 4025 
L 3300 4025 
L 3300 3275 
L 4500 3275 
L 4850 3600 
L 5300 3125 
L 3300 3125 
L 3300 2425 
L 5150 2425 
L 5525 2775 
L 6000 2275 
L 1125 2275 
Q 800 2275 525 2200 
L 300 2425 
L 2950 2425 
L 2950 3125 
L 1825 3125 
Q 1500 3125 1225 3050 
L 1000 3275 
L 2950 3275 
L 2950 4025 
L 1500 4025 
Q 1175 4025 900 3950 
L 675 4175 
L 2325 4175 
Q 2250 4550 1825 5075 
L 1900 5150 
Q 2550 4850 2600 4737 
Q 2650 4625 2650 4550 
Q 2650 4375 2500 4175 
L 3525 4175 
Q 3750 4650 3975 5250 
L 4500 4900 
L 4250 4825 
z
" transform="scale(0.015625)"/>
       <path id="SimSun-5143" d="M 525 3025 
L 5000 3025 
L 5375 3400 
L 5900 2875 
L 4000 2875 
L 4000 450 
Q 4000 -25 4550 25 
L 5125 25 
Q 5500 25 5562 400 
Q 5625 775 5675 1400 
L 5800 1400 
Q 5800 700 5850 425 
Q 5900 150 6125 75 
Q 5875 -300 5400 -300 
L 4325 -300 
Q 3625 -325 3625 250 
L 3625 2875 
L 2725 2875 
Q 2600 1250 2087 562 
Q 1575 -125 350 -625 
L 300 -550 
Q 1575 200 1925 1000 
Q 2275 1800 2325 2875 
L 1350 2875 
Q 1025 2875 750 2800 
L 525 3025 
z
M 1250 4625 
L 4500 4625 
L 4850 4975 
L 5350 4475 
L 2025 4475 
Q 1700 4475 1475 4400 
L 1250 4625 
z
" transform="scale(0.015625)"/>
       <path id="SimSun-ff09" d="M 2337 875 
Q 1925 350 1437 62 
Q 950 -225 937 -162 
Q 925 -100 1300 175 
Q 1650 425 2037 1012 
Q 2425 1600 2375 2375 
Q 2325 3150 1987 3662 
Q 1650 4175 1300 4475 
Q 925 4775 937 4837 
Q 950 4900 1412 4587 
Q 1875 4275 2325 3662 
Q 2775 3050 2762 2225 
Q 2750 1400 2337 875 
z
" transform="scale(0.015625)"/>
      </defs>
      <use xlink:href="#SimSun-4ef7"/>
      <use xlink:href="#SimSun-683c" transform="translate(100 0)"/>
      <use xlink:href="#SimSun-ff08" transform="translate(200 0)"/>
      <use xlink:href="#SimSun-5343" transform="translate(300 0)"/>
      <use xlink:href="#SimSun-7f8e" transform="translate(400 0)"/>
      <use xlink:href="#SimSun-5143" transform="translate(500 0)"/>
      <use xlink:href="#SimSun-ff09" transform="translate(600 0)"/>
     </g>
    </g>
   </g>
   <g id="line2d_43">
    <defs>
     <path id="me782d3819e" d="M -1.5 1.5 
L 1.5 -1.5 
M -1.5 -1.5 
L 1.5 1.5 
" style="stroke: #0000ff; stroke-width: 0.4"/>
    </defs>
    <g clip-path="url(#pd08b4bfd61)">
     <use xlink:href="#me782d3819e" x="199.552738" y="215.921888" style="fill: #0000ff; stroke: #0000ff; stroke-width: 0.4"/>
     <use xlink:href="#me782d3819e" x="149.555937" y="237.888681" style="fill: #0000ff; stroke: #0000ff; stroke-width: 0.4"/>
     <use xlink:href="#me782d3819e" x="228.915937" y="225.618658" style="fill: #0000ff; stroke: #0000ff; stroke-width: 0.4"/>
     <use xlink:href="#me782d3819e" x="131.303137" y="268.610809" style="fill: #0000ff; stroke: #0000ff; stroke-width: 0.4"/>
     <use xlink:href="#me782d3819e" x="288.435937" y="171.988303" style="fill: #0000ff; stroke: #0000ff; stroke-width: 0.4"/>
     <use xlink:href="#me782d3819e" x="187.747938" y="247.30302" style="fill: #0000ff; stroke: #0000ff; stroke-width: 0.4"/>
     <use xlink:href="#me782d3819e" x="143.008737" y="242.59585" style="fill: #0000ff; stroke: #0000ff; stroke-width: 0.4"/>
     <use xlink:href="#me782d3819e" x="132.394338" y="278.966896" style="fill: #0000ff; stroke: #0000ff; stroke-width: 0.4"/>
     <use xlink:href="#me782d3819e" x="127.731937" y="274.887035" style="fill: #0000ff; stroke: #0000ff; stroke-width: 0.4"/>
     <use xlink:href="#me782d3819e" x="139.040738" y="265.31579" style="fill: #0000ff; stroke: #0000ff; stroke-width: 0.4"/>
     <use xlink:href="#me782d3819e" x="183.283937" y="266.100632" style="fill: #0000ff; stroke: #0000ff; stroke-width: 0.4"/>
     <use xlink:href="#me782d3819e" x="189.235938" y="232.522507" style="fill: #0000ff; stroke: #0000ff; stroke-width: 0.4"/>
     <use xlink:href="#me782d3819e" x="178.323937" y="237.857613" style="fill: #0000ff; stroke: #0000ff; stroke-width: 0.4"/>
     <use xlink:href="#me782d3819e" x="435.053538" y="121.778492" style="fill: #0000ff; stroke: #0000ff; stroke-width: 0.4"/>
     <use xlink:href="#me782d3819e" x="116.621538" y="259.855473" style="fill: #0000ff; stroke: #0000ff; stroke-width: 0.4"/>
     <use xlink:href="#me782d3819e" x="218.995937" y="200.231322" style="fill: #0000ff; stroke: #0000ff; stroke-width: 0.4"/>
     <use xlink:href="#me782d3819e" x="121.779937" y="247.30302" style="fill: #0000ff; stroke: #0000ff; stroke-width: 0.4"/>
     <use xlink:href="#me782d3819e" x="113.447137" y="278.684152" style="fill: #0000ff; stroke: #0000ff; stroke-width: 0.4"/>
     <use xlink:href="#me782d3819e" x="249.648737" y="184.510003" style="fill: #0000ff; stroke: #0000ff; stroke-width: 0.4"/>
     <use xlink:href="#me782d3819e" x="291.511137" y="153.442054" style="fill: #0000ff; stroke: #0000ff; stroke-width: 0.4"/>
     <use xlink:href="#me782d3819e" x="166.122337" y="262.052152" style="fill: #0000ff; stroke: #0000ff; stroke-width: 0.4"/>
     <use xlink:href="#me782d3819e" x="178.125538" y="261.393149" style="fill: #0000ff; stroke: #0000ff; stroke-width: 0.4"/>
     <use xlink:href="#me782d3819e" x="149.952737" y="265.190266" style="fill: #0000ff; stroke: #0000ff; stroke-width: 0.4"/>
     <use xlink:href="#me782d3819e" x="185.466337" y="259.855473" style="fill: #0000ff; stroke: #0000ff; stroke-width: 0.4"/>
     <use xlink:href="#me782d3819e" x="376.723937" y="161.318718" style="fill: #0000ff; stroke: #0000ff; stroke-width: 0.4"/>
     <use xlink:href="#me782d3819e" x="99.955937" y="262.993586" style="fill: #0000ff; stroke: #0000ff; stroke-width: 0.4"/>
     <use xlink:href="#me782d3819e" x="135.469538" y="195.649677" style="fill: #0000ff; stroke: #0000ff; stroke-width: 0.4"/>
     <use xlink:href="#me782d3819e" x="241.415137" y="194.237526" style="fill: #0000ff; stroke: #0000ff; stroke-width: 0.4"/>
     <use xlink:href="#me782d3819e" x="209.075937" y="192.354658" style="fill: #0000ff; stroke: #0000ff; stroke-width: 0.4"/>
     <use xlink:href="#me782d3819e" x="252.426337" y="247.30302" style="fill: #0000ff; stroke: #0000ff; stroke-width: 0.4"/>
     <use xlink:href="#me782d3819e" x="173.264737" y="231.612454" style="fill: #0000ff; stroke: #0000ff; stroke-width: 0.4"/>
     <use xlink:href="#me782d3819e" x="90.035938" y="288.098492" style="fill: #0000ff; stroke: #0000ff; stroke-width: 0.4"/>
     <use xlink:href="#me782d3819e" x="193.203937" y="242.59585" style="fill: #0000ff; stroke: #0000ff; stroke-width: 0.4"/>
     <use xlink:href="#me782d3819e" x="302.026338" y="159.43585" style="fill: #0000ff; stroke: #0000ff; stroke-width: 0.4"/>
     <use xlink:href="#me782d3819e" x="170.487137" y="251.696379" style="fill: #0000ff; stroke: #0000ff; stroke-width: 0.4"/>
     <use xlink:href="#me782d3819e" x="133.386337" y="262.993586" style="fill: #0000ff; stroke: #0000ff; stroke-width: 0.4"/>
     <use xlink:href="#me782d3819e" x="113.744737" y="269.269813" style="fill: #0000ff; stroke: #0000ff; stroke-width: 0.4"/>
     <use xlink:href="#me782d3819e" x="202.330337" y="233.15013" style="fill: #0000ff; stroke: #0000ff; stroke-width: 0.4"/>
     <use xlink:href="#me782d3819e" x="408.963937" y="169.13262" style="fill: #0000ff; stroke: #0000ff; stroke-width: 0.4"/>
     <use xlink:href="#me782d3819e" x="205.306337" y="251.351186" style="fill: #0000ff; stroke: #0000ff; stroke-width: 0.4"/>
     <use xlink:href="#me782d3819e" x="155.904737" y="225.775564" style="fill: #0000ff; stroke: #0000ff; stroke-width: 0.4"/>
     <use xlink:href="#me782d3819e" x="212.845538" y="237.888681" style="fill: #0000ff; stroke: #0000ff; stroke-width: 0.4"/>
     <use xlink:href="#me782d3819e" x="245.482337" y="242.878281" style="fill: #0000ff; stroke: #0000ff; stroke-width: 0.4"/>
     <use xlink:href="#me782d3819e" x="109.875937" y="247.58545" style="fill: #0000ff; stroke: #0000ff; stroke-width: 0.4"/>
     <use xlink:href="#me782d3819e" x="75.354337" y="284.960379" style="fill: #0000ff; stroke: #0000ff; stroke-width: 0.4"/>
     <use xlink:href="#me782d3819e" x="174.554338" y="247.30302" style="fill: #0000ff; stroke: #0000ff; stroke-width: 0.4"/>
     <use xlink:href="#me782d3819e" x="110.173537" y="266.257224" style="fill: #0000ff; stroke: #0000ff; stroke-width: 0.4"/>
    </g>
   </g>
   <g id="line2d_44">
    <path d="M 40.435938 297.945891 
L 44.945028 296.027363 
L 49.454119 294.108835 
L 53.96321 292.190306 
L 58.472301 290.271778 
L 62.981392 288.35325 
L 67.490483 286.434721 
L 71.999574 284.516193 
L 76.508665 282.597665 
L 81.017756 280.679137 
L 85.526847 278.760608 
L 90.035938 276.84208 
L 94.545028 274.923552 
L 99.054119 273.005023 
L 103.56321 271.086495 
L 108.072301 269.167967 
L 112.581392 267.249438 
L 117.090483 265.33091 
L 121.599574 263.412382 
L 126.108665 261.493853 
L 130.617756 259.575325 
L 135.126847 257.656797 
L 139.635937 255.738269 
L 144.145028 253.81974 
L 148.654119 251.901212 
L 153.16321 249.982684 
L 157.672301 248.064155 
L 162.181392 246.145627 
L 166.690483 244.227099 
L 171.199574 242.30857 
L 175.708665 240.390042 
L 180.217756 238.471514 
L 184.726847 236.552986 
L 189.235938 234.634457 
L 193.745028 232.715929 
L 198.254119 230.797401 
L 202.76321 228.878872 
L 207.272301 226.960344 
L 211.781392 225.041816 
L 216.290483 223.123287 
L 220.799574 221.204759 
L 225.308665 219.286231 
L 229.817756 217.367703 
L 234.326847 215.449174 
L 238.835938 213.530646 
L 243.345028 211.612118 
L 247.854119 209.693589 
L 252.36321 207.775061 
L 256.872301 205.856533 
L 261.381392 203.938004 
L 265.890483 202.019476 
L 270.399574 200.100948 
L 274.908665 198.18242 
L 279.417756 196.263891 
L 283.926847 194.345363 
L 288.435937 192.426835 
L 292.945028 190.508306 
L 297.454119 188.589778 
L 301.96321 186.67125 
L 306.472301 184.752721 
L 310.981392 182.834193 
L 315.490483 180.915665 
L 319.999574 178.997137 
L 324.508665 177.078608 
L 329.017756 175.16008 
L 333.526847 173.241552 
L 338.035937 171.323023 
L 342.545028 169.404495 
L 347.054119 167.485967 
L 351.56321 165.567438 
L 356.072301 163.64891 
L 360.581392 161.730382 
L 365.090483 159.811853 
L 369.599574 157.893325 
L 374.108665 155.974797 
L 378.617756 154.056269 
L 383.126847 152.13774 
L 387.635938 150.219212 
L 392.145028 148.300684 
L 396.654119 146.382155 
L 401.16321 144.463627 
L 405.672301 142.545099 
L 410.181392 140.62657 
L 414.690483 138.708042 
L 419.199574 136.789514 
L 423.708665 134.870986 
L 428.217756 132.952457 
L 432.726847 131.033929 
L 437.235937 129.115401 
L 441.745028 127.196872 
L 446.254119 125.278344 
L 450.76321 123.359816 
L 455.272301 121.441287 
L 459.781392 119.522759 
L 464.290483 117.604231 
L 468.799574 115.685703 
L 473.308665 113.767174 
L 477.817756 111.848646 
L 482.326847 109.930118 
L 486.835938 108.011589 
" clip-path="url(#pd08b4bfd61)" style="fill: none; stroke: #0000ff; stroke-linecap: square"/>
   </g>
   <g id="patch_3">
    <path d="M 40.435938 350.829375 
L 40.435938 18.189375 
" style="fill: none; stroke: #000000; stroke-width: 0.8; stroke-linejoin: miter; stroke-linecap: square"/>
   </g>
   <g id="patch_4">
    <path d="M 486.835938 350.829375 
L 486.835938 18.189375 
" style="fill: none; stroke: #000000; stroke-width: 0.8; stroke-linejoin: miter; stroke-linecap: square"/>
   </g>
   <g id="patch_5">
    <path d="M 40.435938 350.829375 
L 486.835938 350.829375 
" style="fill: none; stroke: #000000; stroke-width: 0.8; stroke-linejoin: miter; stroke-linecap: square"/>
   </g>
   <g id="patch_6">
    <path d="M 40.435938 18.189375 
L 486.835938 18.189375 
" style="fill: none; stroke: #000000; stroke-width: 0.8; stroke-linejoin: miter; stroke-linecap: square"/>
   </g>
   <g id="text_24">
    <!-- 房价 -->
    <g transform="translate(251.635938 12.189375) scale(0.12 -0.12)">
     <defs>
      <path id="SimSun-623f" d="M 3225 3175 
L 3300 3225 
Q 3750 2975 3862 2850 
Q 3975 2725 3975 2650 
Q 3975 2550 3862 2425 
Q 3750 2300 3725 2300 
Q 3650 2300 3600 2475 
Q 3525 2750 3225 3175 
z
M 1750 2275 
L 5200 2275 
L 5500 2575 
L 5950 2125 
L 3425 2125 
Q 3425 1875 3325 1425 
L 4900 1425 
L 5150 1675 
L 5525 1300 
L 5300 1175 
Q 5225 100 5100 -200 
Q 4975 -500 4475 -625 
Q 4500 -300 3875 -125 
L 3900 -25 
Q 4300 -125 4475 -125 
Q 4575 -125 4687 -62 
Q 4800 0 4850 387 
Q 4900 775 4925 1275 
L 3300 1275 
Q 2875 -150 1275 -625 
L 1250 -525 
Q 2900 225 3050 2125 
L 2225 2125 
L 1950 2075 
L 1750 2275 
z
M 2875 5250 
Q 3425 5025 3512 4925 
Q 3600 4825 3600 4750 
Q 3600 4675 3550 4575 
Q 3500 4475 3400 4450 
Q 3300 4425 3225 4650 
Q 3125 4875 2825 5175 
L 2875 5250 
z
M 1625 4275 
L 1625 3475 
L 4975 3475 
L 4975 4275 
L 1625 4275 
z
M 5325 4175 
Q 5325 3525 5350 3200 
L 4975 3050 
L 4975 3325 
L 1625 3325 
Q 1675 975 350 -475 
L 275 -400 
Q 750 225 1012 1200 
Q 1275 2175 1275 3125 
Q 1275 4075 1250 4650 
L 1625 4425 
L 4950 4425 
L 5175 4650 
L 5550 4300 
L 5325 4175 
z
" transform="scale(0.015625)"/>
     </defs>
     <use xlink:href="#SimSun-623f"/>
     <use xlink:href="#SimSun-4ef7" transform="translate(100 0)"/>
    </g>
   </g>
  </g>
 </g>
 <defs>
  <clipPath id="pd08b4bfd61">
   <rect x="40.435938" y="18.189375" width="446.4" height="332.64"/>
  </clipPath>
 </defs>
</svg>
