<?xml version="1.0" encoding="utf-8" standalone="no"?>
<!DOCTYPE svg PUBLIC "-//W3C//DTD SVG 1.1//EN"
  "http://www.w3.org/Graphics/SVG/1.1/DTD/svg11.dtd">
<svg xmlns:xlink="http://www.w3.org/1999/xlink" width="572.831062pt" height="453.626687pt" viewBox="0 0 572.831062 453.626687" xmlns="http://www.w3.org/2000/svg" version="1.1">
 <metadata>
  <rdf:RDF xmlns:dc="http://purl.org/dc/elements/1.1/" xmlns:cc="http://creativecommons.org/ns#" xmlns:rdf="http://www.w3.org/1999/02/22-rdf-syntax-ns#">
   <cc:Work>
    <dc:type rdf:resource="http://purl.org/dc/dcmitype/StillImage"/>
    <dc:date>2025-10-16T00:47:29.832906</dc:date>
    <dc:format>image/svg+xml</dc:format>
    <dc:creator>
     <cc:Agent>
      <dc:title>Matplotlib v3.10.0, https://matplotlib.org/</dc:title>
     </cc:Agent>
    </dc:creator>
   </cc:Work>
  </rdf:RDF>
 </metadata>
 <defs>
  <style type="text/css">*{stroke-linejoin: round; stroke-linecap: butt}</style>
 </defs>
 <g id="figure_1">
  <g id="patch_1">
   <path d="M 0 453.626687 
L 572.831062 453.626687 
L 572.831062 0 
L 0 0 
z
" style="fill: #ffffff"/>
  </g>
  <g id="axes_1">
   <g id="patch_2">
    <path d="M 28.739063 433.943875 
L 562.981063 433.943875 
L 562.981063 7.071875 
L 28.739063 7.071875 
z
" style="fill: #ffffff"/>
   </g>
   <g id="matplotlib.axis_1">
    <g id="xtick_1">
     <g id="line2d_1">
      <defs>
       <path id="m0c90c962f7" d="M 0 0 
L 0 3.5 
" style="stroke: #000000; stroke-width: 0.8"/>
      </defs>
      <g>
       <use xlink:href="#m0c90c962f7" x="72.350654" y="433.943875" style="stroke: #000000; stroke-width: 0.8"/>
      </g>
     </g>
     <g id="text_1">
      <!-- −2.0 -->
      <g transform="translate(63.281123 447.887625) scale(0.1 -0.1)">
       <defs>
        <path id="TimesNewRomanPSMT-2212" d="M 3484 2000 
L 116 2000 
L 116 2256 
L 3484 2256 
L 3484 2000 
z
" transform="scale(0.015625)"/>
        <path id="TimesNewRomanPSMT-32" d="M 2934 816 
L 2638 0 
L 138 0 
L 138 116 
Q 1241 1122 1691 1759 
Q 2141 2397 2141 2925 
Q 2141 3328 1894 3587 
Q 1647 3847 1303 3847 
Q 991 3847 742 3664 
Q 494 3481 375 3128 
L 259 3128 
Q 338 3706 661 4015 
Q 984 4325 1469 4325 
Q 1984 4325 2329 3994 
Q 2675 3663 2675 3213 
Q 2675 2891 2525 2569 
Q 2294 2063 1775 1497 
Q 997 647 803 472 
L 1909 472 
Q 2247 472 2383 497 
Q 2519 522 2628 598 
Q 2738 675 2819 816 
L 2934 816 
z
" transform="scale(0.015625)"/>
        <path id="TimesNewRomanPSMT-2e" d="M 800 606 
Q 947 606 1047 504 
Q 1147 403 1147 259 
Q 1147 116 1045 14 
Q 944 -88 800 -88 
Q 656 -88 554 14 
Q 453 116 453 259 
Q 453 406 554 506 
Q 656 606 800 606 
z
" transform="scale(0.015625)"/>
        <path id="TimesNewRomanPSMT-30" d="M 231 2094 
Q 231 2819 450 3342 
Q 669 3866 1031 4122 
Q 1313 4325 1613 4325 
Q 2100 4325 2488 3828 
Q 2972 3213 2972 2159 
Q 2972 1422 2759 906 
Q 2547 391 2217 158 
Q 1888 -75 1581 -75 
Q 975 -75 572 641 
Q 231 1244 231 2094 
z
M 844 2016 
Q 844 1141 1059 588 
Q 1238 122 1591 122 
Q 1759 122 1940 273 
Q 2122 425 2216 781 
Q 2359 1319 2359 2297 
Q 2359 3022 2209 3506 
Q 2097 3866 1919 4016 
Q 1791 4119 1609 4119 
Q 1397 4119 1231 3928 
Q 1006 3669 925 3112 
Q 844 2556 844 2016 
z
" transform="scale(0.015625)"/>
       </defs>
       <use xlink:href="#TimesNewRomanPSMT-2212"/>
       <use xlink:href="#TimesNewRomanPSMT-32" transform="translate(56.396484 0)"/>
       <use xlink:href="#TimesNewRomanPSMT-2e" transform="translate(106.396484 0)"/>
       <use xlink:href="#TimesNewRomanPSMT-30" transform="translate(131.396484 0)"/>
      </g>
     </g>
    </g>
    <g id="xtick_2">
     <g id="line2d_2">
      <g>
       <use xlink:href="#m0c90c962f7" x="126.865144" y="433.943875" style="stroke: #000000; stroke-width: 0.8"/>
      </g>
     </g>
     <g id="text_2">
      <!-- −1.5 -->
      <g transform="translate(117.795613 447.887625) scale(0.1 -0.1)">
       <defs>
        <path id="TimesNewRomanPSMT-31" d="M 750 3822 
L 1781 4325 
L 1884 4325 
L 1884 747 
Q 1884 391 1914 303 
Q 1944 216 2037 169 
Q 2131 122 2419 116 
L 2419 0 
L 825 0 
L 825 116 
Q 1125 122 1212 167 
Q 1300 213 1334 289 
Q 1369 366 1369 747 
L 1369 3034 
Q 1369 3497 1338 3628 
Q 1316 3728 1258 3775 
Q 1200 3822 1119 3822 
Q 1003 3822 797 3725 
L 750 3822 
z
" transform="scale(0.015625)"/>
        <path id="TimesNewRomanPSMT-35" d="M 2778 4238 
L 2534 3706 
L 1259 3706 
L 981 3138 
Q 1809 3016 2294 2522 
Q 2709 2097 2709 1522 
Q 2709 1188 2573 903 
Q 2438 619 2231 419 
Q 2025 219 1772 97 
Q 1413 -75 1034 -75 
Q 653 -75 479 54 
Q 306 184 306 341 
Q 306 428 378 495 
Q 450 563 559 563 
Q 641 563 702 538 
Q 763 513 909 409 
Q 1144 247 1384 247 
Q 1750 247 2026 523 
Q 2303 800 2303 1197 
Q 2303 1581 2056 1914 
Q 1809 2247 1375 2428 
Q 1034 2569 447 2591 
L 1259 4238 
L 2778 4238 
z
" transform="scale(0.015625)"/>
       </defs>
       <use xlink:href="#TimesNewRomanPSMT-2212"/>
       <use xlink:href="#TimesNewRomanPSMT-31" transform="translate(56.396484 0)"/>
       <use xlink:href="#TimesNewRomanPSMT-2e" transform="translate(106.396484 0)"/>
       <use xlink:href="#TimesNewRomanPSMT-35" transform="translate(131.396484 0)"/>
      </g>
     </g>
    </g>
    <g id="xtick_3">
     <g id="line2d_3">
      <g>
       <use xlink:href="#m0c90c962f7" x="181.379634" y="433.943875" style="stroke: #000000; stroke-width: 0.8"/>
      </g>
     </g>
     <g id="text_3">
      <!-- −1.0 -->
      <g transform="translate(172.310103 447.887625) scale(0.1 -0.1)">
       <use xlink:href="#TimesNewRomanPSMT-2212"/>
       <use xlink:href="#TimesNewRomanPSMT-31" transform="translate(56.396484 0)"/>
       <use xlink:href="#TimesNewRomanPSMT-2e" transform="translate(106.396484 0)"/>
       <use xlink:href="#TimesNewRomanPSMT-30" transform="translate(131.396484 0)"/>
      </g>
     </g>
    </g>
    <g id="xtick_4">
     <g id="line2d_4">
      <g>
       <use xlink:href="#m0c90c962f7" x="235.894124" y="433.943875" style="stroke: #000000; stroke-width: 0.8"/>
      </g>
     </g>
     <g id="text_4">
      <!-- −0.5 -->
      <g transform="translate(226.824592 447.887625) scale(0.1 -0.1)">
       <use xlink:href="#TimesNewRomanPSMT-2212"/>
       <use xlink:href="#TimesNewRomanPSMT-30" transform="translate(56.396484 0)"/>
       <use xlink:href="#TimesNewRomanPSMT-2e" transform="translate(106.396484 0)"/>
       <use xlink:href="#TimesNewRomanPSMT-35" transform="translate(131.396484 0)"/>
      </g>
     </g>
    </g>
    <g id="xtick_5">
     <g id="line2d_5">
      <g>
       <use xlink:href="#m0c90c962f7" x="290.408614" y="433.943875" style="stroke: #000000; stroke-width: 0.8"/>
      </g>
     </g>
     <g id="text_5">
      <!-- 0.0 -->
      <g transform="translate(284.158614 447.887625) scale(0.1 -0.1)">
       <use xlink:href="#TimesNewRomanPSMT-30"/>
       <use xlink:href="#TimesNewRomanPSMT-2e" transform="translate(50 0)"/>
       <use xlink:href="#TimesNewRomanPSMT-30" transform="translate(75 0)"/>
      </g>
     </g>
    </g>
    <g id="xtick_6">
     <g id="line2d_6">
      <g>
       <use xlink:href="#m0c90c962f7" x="344.923103" y="433.943875" style="stroke: #000000; stroke-width: 0.8"/>
      </g>
     </g>
     <g id="text_6">
      <!-- 0.5 -->
      <g transform="translate(338.673103 447.887625) scale(0.1 -0.1)">
       <use xlink:href="#TimesNewRomanPSMT-30"/>
       <use xlink:href="#TimesNewRomanPSMT-2e" transform="translate(50 0)"/>
       <use xlink:href="#TimesNewRomanPSMT-35" transform="translate(75 0)"/>
      </g>
     </g>
    </g>
    <g id="xtick_7">
     <g id="line2d_7">
      <g>
       <use xlink:href="#m0c90c962f7" x="399.437593" y="433.943875" style="stroke: #000000; stroke-width: 0.8"/>
      </g>
     </g>
     <g id="text_7">
      <!-- 1.0 -->
      <g transform="translate(393.187593 447.887625) scale(0.1 -0.1)">
       <use xlink:href="#TimesNewRomanPSMT-31"/>
       <use xlink:href="#TimesNewRomanPSMT-2e" transform="translate(50 0)"/>
       <use xlink:href="#TimesNewRomanPSMT-30" transform="translate(75 0)"/>
      </g>
     </g>
    </g>
    <g id="xtick_8">
     <g id="line2d_8">
      <g>
       <use xlink:href="#m0c90c962f7" x="453.952083" y="433.943875" style="stroke: #000000; stroke-width: 0.8"/>
      </g>
     </g>
     <g id="text_8">
      <!-- 1.5 -->
      <g transform="translate(447.702083 447.887625) scale(0.1 -0.1)">
       <use xlink:href="#TimesNewRomanPSMT-31"/>
       <use xlink:href="#TimesNewRomanPSMT-2e" transform="translate(50 0)"/>
       <use xlink:href="#TimesNewRomanPSMT-35" transform="translate(75 0)"/>
      </g>
     </g>
    </g>
    <g id="xtick_9">
     <g id="line2d_9">
      <g>
       <use xlink:href="#m0c90c962f7" x="508.466573" y="433.943875" style="stroke: #000000; stroke-width: 0.8"/>
      </g>
     </g>
     <g id="text_9">
      <!-- 2.0 -->
      <g transform="translate(502.216573 447.887625) scale(0.1 -0.1)">
       <use xlink:href="#TimesNewRomanPSMT-32"/>
       <use xlink:href="#TimesNewRomanPSMT-2e" transform="translate(50 0)"/>
       <use xlink:href="#TimesNewRomanPSMT-30" transform="translate(75 0)"/>
      </g>
     </g>
    </g>
    <g id="xtick_10">
     <g id="line2d_10">
      <g>
       <use xlink:href="#m0c90c962f7" x="562.981062" y="433.943875" style="stroke: #000000; stroke-width: 0.8"/>
      </g>
     </g>
     <g id="text_10">
      <!-- 2.5 -->
      <g transform="translate(556.731062 447.887625) scale(0.1 -0.1)">
       <use xlink:href="#TimesNewRomanPSMT-32"/>
       <use xlink:href="#TimesNewRomanPSMT-2e" transform="translate(50 0)"/>
       <use xlink:href="#TimesNewRomanPSMT-35" transform="translate(75 0)"/>
      </g>
     </g>
    </g>
   </g>
   <g id="matplotlib.axis_2">
    <g id="ytick_1">
     <g id="line2d_11">
      <defs>
       <path id="m15da22a6f2" d="M 0 0 
L -3.5 0 
" style="stroke: #000000; stroke-width: 0.8"/>
      </defs>
      <g>
       <use xlink:href="#m15da22a6f2" x="28.739063" y="399.097181" style="stroke: #000000; stroke-width: 0.8"/>
      </g>
     </g>
     <g id="text_11">
      <!-- −2.0 -->
      <g transform="translate(3.6 402.569056) scale(0.1 -0.1)">
       <use xlink:href="#TimesNewRomanPSMT-2212"/>
       <use xlink:href="#TimesNewRomanPSMT-32" transform="translate(56.396484 0)"/>
       <use xlink:href="#TimesNewRomanPSMT-2e" transform="translate(106.396484 0)"/>
       <use xlink:href="#TimesNewRomanPSMT-30" transform="translate(131.396484 0)"/>
      </g>
     </g>
    </g>
    <g id="ytick_2">
     <g id="line2d_12">
      <g>
       <use xlink:href="#m15da22a6f2" x="28.739063" y="355.538814" style="stroke: #000000; stroke-width: 0.8"/>
      </g>
     </g>
     <g id="text_12">
      <!-- −1.5 -->
      <g transform="translate(3.6 359.010689) scale(0.1 -0.1)">
       <use xlink:href="#TimesNewRomanPSMT-2212"/>
       <use xlink:href="#TimesNewRomanPSMT-31" transform="translate(56.396484 0)"/>
       <use xlink:href="#TimesNewRomanPSMT-2e" transform="translate(106.396484 0)"/>
       <use xlink:href="#TimesNewRomanPSMT-35" transform="translate(131.396484 0)"/>
      </g>
     </g>
    </g>
    <g id="ytick_3">
     <g id="line2d_13">
      <g>
       <use xlink:href="#m15da22a6f2" x="28.739063" y="311.980446" style="stroke: #000000; stroke-width: 0.8"/>
      </g>
     </g>
     <g id="text_13">
      <!-- −1.0 -->
      <g transform="translate(3.6 315.452321) scale(0.1 -0.1)">
       <use xlink:href="#TimesNewRomanPSMT-2212"/>
       <use xlink:href="#TimesNewRomanPSMT-31" transform="translate(56.396484 0)"/>
       <use xlink:href="#TimesNewRomanPSMT-2e" transform="translate(106.396484 0)"/>
       <use xlink:href="#TimesNewRomanPSMT-30" transform="translate(131.396484 0)"/>
      </g>
     </g>
    </g>
    <g id="ytick_4">
     <g id="line2d_14">
      <g>
       <use xlink:href="#m15da22a6f2" x="28.739063" y="268.422079" style="stroke: #000000; stroke-width: 0.8"/>
      </g>
     </g>
     <g id="text_14">
      <!-- −0.5 -->
      <g transform="translate(3.6 271.893954) scale(0.1 -0.1)">
       <use xlink:href="#TimesNewRomanPSMT-2212"/>
       <use xlink:href="#TimesNewRomanPSMT-30" transform="translate(56.396484 0)"/>
       <use xlink:href="#TimesNewRomanPSMT-2e" transform="translate(106.396484 0)"/>
       <use xlink:href="#TimesNewRomanPSMT-35" transform="translate(131.396484 0)"/>
      </g>
     </g>
    </g>
    <g id="ytick_5">
     <g id="line2d_15">
      <g>
       <use xlink:href="#m15da22a6f2" x="28.739063" y="224.863712" style="stroke: #000000; stroke-width: 0.8"/>
      </g>
     </g>
     <g id="text_15">
      <!-- 0.0 -->
      <g transform="translate(9.239063 228.335587) scale(0.1 -0.1)">
       <use xlink:href="#TimesNewRomanPSMT-30"/>
       <use xlink:href="#TimesNewRomanPSMT-2e" transform="translate(50 0)"/>
       <use xlink:href="#TimesNewRomanPSMT-30" transform="translate(75 0)"/>
      </g>
     </g>
    </g>
    <g id="ytick_6">
     <g id="line2d_16">
      <g>
       <use xlink:href="#m15da22a6f2" x="28.739063" y="181.305344" style="stroke: #000000; stroke-width: 0.8"/>
      </g>
     </g>
     <g id="text_16">
      <!-- 0.5 -->
      <g transform="translate(9.239063 184.777219) scale(0.1 -0.1)">
       <use xlink:href="#TimesNewRomanPSMT-30"/>
       <use xlink:href="#TimesNewRomanPSMT-2e" transform="translate(50 0)"/>
       <use xlink:href="#TimesNewRomanPSMT-35" transform="translate(75 0)"/>
      </g>
     </g>
    </g>
    <g id="ytick_7">
     <g id="line2d_17">
      <g>
       <use xlink:href="#m15da22a6f2" x="28.739063" y="137.746977" style="stroke: #000000; stroke-width: 0.8"/>
      </g>
     </g>
     <g id="text_17">
      <!-- 1.0 -->
      <g transform="translate(9.239063 141.218852) scale(0.1 -0.1)">
       <use xlink:href="#TimesNewRomanPSMT-31"/>
       <use xlink:href="#TimesNewRomanPSMT-2e" transform="translate(50 0)"/>
       <use xlink:href="#TimesNewRomanPSMT-30" transform="translate(75 0)"/>
      </g>
     </g>
    </g>
    <g id="ytick_8">
     <g id="line2d_18">
      <g>
       <use xlink:href="#m15da22a6f2" x="28.739063" y="94.18861" style="stroke: #000000; stroke-width: 0.8"/>
      </g>
     </g>
     <g id="text_18">
      <!-- 1.5 -->
      <g transform="translate(9.239063 97.660485) scale(0.1 -0.1)">
       <use xlink:href="#TimesNewRomanPSMT-31"/>
       <use xlink:href="#TimesNewRomanPSMT-2e" transform="translate(50 0)"/>
       <use xlink:href="#TimesNewRomanPSMT-35" transform="translate(75 0)"/>
      </g>
     </g>
    </g>
    <g id="ytick_9">
     <g id="line2d_19">
      <g>
       <use xlink:href="#m15da22a6f2" x="28.739063" y="50.630242" style="stroke: #000000; stroke-width: 0.8"/>
      </g>
     </g>
     <g id="text_19">
      <!-- 2.0 -->
      <g transform="translate(9.239063 54.102117) scale(0.1 -0.1)">
       <use xlink:href="#TimesNewRomanPSMT-32"/>
       <use xlink:href="#TimesNewRomanPSMT-2e" transform="translate(50 0)"/>
       <use xlink:href="#TimesNewRomanPSMT-30" transform="translate(75 0)"/>
      </g>
     </g>
    </g>
    <g id="ytick_10">
     <g id="line2d_20">
      <g>
       <use xlink:href="#m15da22a6f2" x="28.739063" y="7.071875" style="stroke: #000000; stroke-width: 0.8"/>
      </g>
     </g>
     <g id="text_20">
      <!-- 2.5 -->
      <g transform="translate(9.239063 10.54375) scale(0.1 -0.1)">
       <use xlink:href="#TimesNewRomanPSMT-32"/>
       <use xlink:href="#TimesNewRomanPSMT-2e" transform="translate(50 0)"/>
       <use xlink:href="#TimesNewRomanPSMT-35" transform="translate(75 0)"/>
      </g>
     </g>
    </g>
   </g>
   <g id="QuadContourSet_1">
    <path clip-path="url(#p32c20a256d)" style="fill: none; stroke: #800000; stroke-opacity: 0.85"/>
    <path d="M 435.037495 454.626687 
L 440.092467 451.385862 
L 441.016563 450.7766 
L 451.18016 444.105242 
L 454.393571 441.917271 
L 462.267853 436.559702 
L 467.248255 433.057942 
L 473.355545 428.751121 
L 479.626235 424.198613 
L 484.443238 420.678094 
L 491.565542 415.339284 
L 495.530931 412.335865 
L 503.09749 406.479955 
L 506.618624 403.716195 
L 514.247395 397.620626 
L 517.706317 394.807157 
L 525.035148 388.761297 
L 528.79401 385.592858 
L 535.475676 379.901968 
L 539.881702 376.053069 
L 545.579291 371.042639 
L 550.969395 366.16277 
L 555.351944 362.18331 
L 562.057088 355.891573 
L 564.795394 353.323982 
L 573.144781 345.203027 
L 573.831062 344.538466 
M 139.725745 -1 
L 129.637067 5.622181 
L 126.423657 7.810152 
L 118.549375 13.167721 
L 113.568972 16.669481 
L 107.461682 20.976302 
L 101.190992 25.52881 
L 96.373989 29.04933 
L 89.251685 34.388139 
L 85.286296 37.391559 
L 77.719737 43.247468 
L 74.198603 46.011229 
L 66.569832 52.106797 
L 63.11091 54.920266 
L 55.782079 60.966126 
L 52.023217 64.134566 
L 45.341551 69.825455 
L 40.935525 73.674354 
L 35.237936 78.684784 
L 29.847832 83.564654 
L 25.465283 87.544113 
L 18.760139 93.835851 
L 16.021833 96.403442 
L 7.672446 104.524396 
L 6.909938 105.262771 
L -1 113.139672 
" clip-path="url(#p32c20a256d)" style="fill: none; stroke: #ff2200; stroke-opacity: 0.85"/>
    <path d="M 330.410482 454.626687 
L 340.303231 449.784227 
L 355.614485 441.917271 
L 362.478617 438.301371 
L 373.56631 432.126011 
L 387.222735 424.198613 
L 395.741695 419.103943 
L 406.829388 412.16428 
L 417.917081 404.926766 
L 429.004774 397.39105 
L 441.237795 388.761297 
L 453.263719 379.901968 
L 464.77894 371.042639 
L 475.817995 362.18331 
L 486.408023 353.323982 
L 496.569465 344.464653 
L 506.618624 335.337169 
L 517.706317 324.849041 
L 524.820404 317.886666 
L 533.505583 309.027337 
L 541.81343 300.168008 
L 550.969395 289.96042 
L 557.53169 282.44935 
L 564.879992 273.590021 
L 573.831062 262.194751 
M 242.469927 -1 
L 240.513996 -0.056803 
L 225.202742 7.810152 
L 218.33861 11.426053 
L 207.250917 17.601412 
L 193.594492 25.52881 
L 185.075532 30.623481 
L 173.987839 37.563144 
L 162.900146 44.800657 
L 151.812453 52.336374 
L 139.579432 60.966126 
L 127.553508 69.825455 
L 116.038287 78.684784 
L 104.999232 87.544113 
L 94.409204 96.403442 
L 84.247762 105.262771 
L 74.198603 114.390254 
L 63.11091 124.878382 
L 55.996823 131.840758 
L 47.311644 140.700087 
L 39.003797 149.559416 
L 29.847832 159.767003 
L 23.285537 167.278074 
L 15.937235 176.137402 
L 7.672446 186.64105 
L 2.119057 193.85606 
L -1 198.198261 
L -1 198.198261 
" clip-path="url(#p32c20a256d)" style="fill: none; stroke: #ff9800; stroke-opacity: 0.85"/>
    <path d="M 216.089807 454.626687 
L 218.33861 454.147986 
L 229.426303 451.448121 
L 231.881699 450.7766 
L 240.513996 448.487423 
L 251.601689 445.218961 
L 261.742571 441.917271 
L 262.689381 441.616813 
L 273.777074 437.794607 
L 284.864767 433.619284 
L 286.256009 433.057942 
L 295.95246 429.220054 
L 307.040153 424.469654 
L 307.63739 424.198613 
L 318.127846 419.504185 
L 326.800048 415.339284 
L 329.215538 414.190923 
L 340.303231 408.620234 
L 344.331713 406.479955 
L 351.390924 402.748066 
L 360.550171 397.620626 
L 362.478617 396.542179 
L 373.56631 390.049226 
L 375.672291 388.761297 
L 384.654003 383.245701 
L 389.859637 379.901968 
L 395.741695 376.093066 
L 403.229852 371.042639 
L 406.829388 368.585448 
L 415.871568 362.18331 
L 417.917081 360.711571 
L 427.857862 353.323982 
L 429.004774 352.454344 
L 439.248509 344.464653 
L 440.092467 343.79031 
L 450.091785 335.605324 
L 451.18016 334.688914 
L 460.42593 326.745995 
L 462.267853 325.111581 
L 470.280304 317.886666 
L 473.355545 315.010551 
L 479.676293 309.027337 
L 484.443238 304.327433 
L 488.628011 300.168008 
L 495.530931 292.991408 
L 497.142809 291.308679 
L 505.268918 282.44935 
L 506.618624 280.908476 
L 513.035756 273.590021 
L 517.706317 267.949544 
L 520.384934 264.730692 
L 527.356804 255.871363 
L 528.79401 253.941329 
L 534.006496 247.012034 
L 539.881702 238.629912 
L 540.220918 238.152705 
L 546.166174 229.293376 
L 550.969395 221.545682 
L 551.67193 220.434047 
L 556.897462 211.574718 
L 561.681056 202.715389 
L 562.057088 201.958866 
L 566.189244 193.85606 
L 570.279813 184.996731 
L 573.144781 178.099322 
L 573.831062 176.497244 
M 573.831062 46.942216 
L 573.144781 45.731937 
L 571.636195 43.247468 
L 565.184096 34.388139 
L 562.057088 30.764428 
L 557.072348 25.52881 
L 550.969395 20.016391 
L 546.780646 16.669481 
L 539.881702 11.793078 
L 533.329183 7.810152 
L 528.79401 5.311599 
L 517.706317 0.156219 
L 514.72379 -1 
M 348.750088 -1 
L 340.303231 1.240001 
L 329.215538 4.508462 
L 319.074656 7.810152 
L 318.127846 8.110611 
L 307.040153 11.932816 
L 295.95246 16.108139 
L 294.561218 16.669481 
L 284.864767 20.507369 
L 273.777074 25.257769 
L 273.179837 25.52881 
L 262.689381 30.223239 
L 254.017179 34.388139 
L 251.601689 35.5365 
L 240.513996 41.10719 
L 236.485514 43.247468 
L 229.426303 46.979357 
L 220.267056 52.106797 
L 218.33861 53.185244 
L 207.250917 59.678198 
L 205.144936 60.966126 
L 196.163224 66.481723 
L 190.95759 69.825455 
L 185.075532 73.634357 
L 177.587375 78.684784 
L 173.987839 81.141975 
L 164.945659 87.544113 
L 162.900146 89.015853 
L 152.959365 96.403442 
L 151.812453 97.273079 
L 141.568718 105.262771 
L 140.72476 105.937114 
L 130.725442 114.1221 
L 129.637067 115.038509 
L 120.391297 122.981429 
L 118.549375 124.615842 
L 110.536924 131.840758 
L 107.461682 134.716872 
L 101.140934 140.700087 
L 96.373989 145.399991 
L 92.189216 149.559416 
L 85.286296 156.736016 
L 83.674418 158.418745 
L 75.548309 167.278074 
L 74.198603 168.818948 
L 67.781471 176.137402 
L 63.11091 181.777879 
L 60.432293 184.996731 
L 53.460423 193.85606 
L 52.023217 195.786094 
L 46.810731 202.715389 
L 40.935525 211.097512 
L 40.596309 211.574718 
L 34.651054 220.434047 
L 29.847832 228.181741 
L 29.145297 229.293376 
L 23.919765 238.152705 
L 19.136171 247.012034 
L 18.760139 247.768558 
L 14.627983 255.871363 
L 10.537414 264.730692 
L 7.672446 271.628102 
L 6.83202 273.590021 
L 3.453064 282.44935 
L 0.499171 291.308679 
L -1 296.553205 
M -1 385.827916 
L 0.025092 388.761297 
L 4.057621 397.620626 
L 7.672446 403.995487 
L 9.181032 406.479955 
L 15.633131 415.339284 
L 18.760139 418.962995 
L 23.744879 424.198613 
L 29.847832 429.711032 
L 34.036581 433.057942 
L 40.935525 437.934346 
L 47.488044 441.917271 
L 52.023217 444.415825 
L 63.11091 449.571204 
L 66.220291 450.7766 
L 74.198603 453.664931 
L 77.508155 454.626687 
" clip-path="url(#p32c20a256d)" style="fill: none; stroke: #e1ff16; stroke-opacity: 0.85"/>
    <path d="M 118.549375 417.710981 
L 129.637067 420.198241 
L 140.72476 421.917844 
L 151.812453 422.960445 
L 162.900146 423.399714 
L 173.987839 423.295065 
L 185.075532 422.693806 
L 196.163224 421.63285 
L 207.250917 420.140051 
L 218.33861 418.235242 
L 229.426303 415.931032 
L 231.849043 415.339284 
L 240.513996 413.263451 
L 251.601689 410.231758 
L 262.689381 406.826001 
L 263.705976 406.479955 
L 273.777074 403.0965 
L 284.864767 399.003999 
L 288.312389 397.620626 
L 295.95246 394.579319 
L 307.040153 389.799788 
L 309.288955 388.761297 
L 318.127846 384.690887 
L 327.821922 379.901968 
L 329.215538 379.212596 
L 340.303231 373.399047 
L 344.544113 371.042639 
L 351.390924 367.213443 
L 359.90251 362.18331 
L 362.478617 360.644575 
L 373.56631 353.687862 
L 374.122901 353.323982 
L 384.654003 346.329217 
L 387.346448 344.464653 
L 395.741695 338.533163 
L 399.733972 335.605324 
L 406.829388 330.273866 
L 411.372535 326.745995 
L 417.917081 321.516747 
L 422.332308 317.886666 
L 429.004774 312.217261 
L 432.669045 309.027337 
L 440.092467 302.319335 
L 442.42602 300.168008 
L 451.18016 291.753409 
L 451.635566 291.308679 
L 460.342083 282.44935 
L 462.267853 280.390979 
L 468.563201 273.590021 
L 473.355545 268.119257 
L 476.304654 264.730692 
L 483.58047 255.871363 
L 484.443238 254.75783 
L 490.436701 247.012034 
L 495.530931 239.949551 
L 496.83063 238.152705 
L 502.812345 229.293376 
L 506.618624 223.188779 
L 508.349952 220.434047 
L 513.47183 211.574718 
L 517.706317 203.527672 
L 518.139402 202.715389 
L 522.4018 193.85606 
L 526.196047 184.996731 
L 528.79401 178.073229 
L 529.534598 176.137402 
L 532.41838 167.278074 
L 534.8023 158.418745 
L 536.67058 149.559416 
L 537.998396 140.700087 
L 538.750887 131.840758 
L 538.881858 122.981429 
L 538.3321 114.1221 
L 537.027257 105.262771 
L 534.875127 96.403442 
L 531.762252 87.544113 
L 528.79401 81.205193 
L 527.511923 78.684784 
L 521.83087 69.825455 
L 517.706317 64.656273 
L 514.394093 60.966126 
L 506.618624 53.7644 
L 504.544088 52.106797 
L 495.530931 45.894013 
L 490.912611 43.247468 
L 484.443238 39.951852 
L 473.355545 35.412556 
L 470.201184 34.388139 
L 462.267853 32.016443 
L 451.18016 29.529183 
L 440.092467 27.80958 
L 429.004774 26.766979 
L 417.917081 26.327709 
L 406.829388 26.432359 
L 395.741695 27.033617 
L 384.654003 28.094573 
L 373.56631 29.587373 
L 362.478617 31.492181 
L 351.390924 33.796391 
L 348.968184 34.388139 
L 340.303231 36.463973 
L 329.215538 39.495666 
L 318.127846 42.901422 
L 317.111251 43.247468 
L 307.040153 46.630923 
L 295.95246 50.723425 
L 292.504838 52.106797 
L 284.864767 55.148104 
L 273.777074 59.927636 
L 271.528272 60.966126 
L 262.689381 65.036536 
L 252.995305 69.825455 
L 251.601689 70.514827 
L 240.513996 76.328376 
L 236.273114 78.684784 
L 229.426303 82.51398 
L 220.914717 87.544113 
L 218.33861 89.082848 
L 207.250917 96.039561 
L 206.694326 96.403442 
L 196.163224 103.398206 
L 193.470779 105.262771 
L 185.075532 111.194261 
L 181.083255 114.1221 
L 173.987839 119.453558 
L 169.444692 122.981429 
L 162.900146 128.210676 
L 158.484919 131.840758 
L 151.812453 137.510163 
L 148.148182 140.700087 
L 140.72476 147.408088 
L 138.391207 149.559416 
L 129.637067 157.974015 
L 129.181661 158.418745 
L 120.475144 167.278074 
L 118.549375 169.336444 
L 112.254026 176.137402 
L 107.461682 181.608167 
L 104.512573 184.996731 
L 97.236757 193.85606 
L 96.373989 194.969593 
L 90.380526 202.715389 
L 85.286296 209.777872 
L 83.986597 211.574718 
L 78.004882 220.434047 
L 74.198603 226.538645 
L 72.467275 229.293376 
L 67.345397 238.152705 
L 63.11091 246.199751 
L 62.677825 247.012034 
L 58.415427 255.871363 
L 54.62118 264.730692 
L 52.023217 271.654194 
L 51.282629 273.590021 
L 48.398847 282.44935 
L 46.014927 291.308679 
L 44.146647 300.168008 
L 42.818831 309.027337 
L 42.06634 317.886666 
L 41.935369 326.745995 
L 42.485127 335.605324 
L 43.78997 344.464653 
L 45.9421 353.323982 
L 49.054975 362.18331 
L 52.023217 368.52223 
L 53.305304 371.042639 
L 58.986357 379.901968 
L 63.11091 385.07115 
L 66.423134 388.761297 
L 74.198603 395.963023 
L 76.273139 397.620626 
L 85.286296 403.83341 
L 89.904616 406.479955 
L 96.373989 409.775571 
L 107.461682 414.314867 
L 110.616043 415.339284 
L 118.549375 417.710981 
z
" clip-path="url(#p32c20a256d)" style="fill: none; stroke: #7aff7d; stroke-opacity: 0.85"/>
    <path d="M 151.812453 381.256908 
L 162.900146 383.57524 
L 173.987839 384.99876 
L 185.075532 385.642698 
L 196.163224 385.598762 
L 207.250917 384.939374 
L 218.33861 383.720934 
L 229.426303 381.986349 
L 239.827766 379.901968 
L 240.513996 379.765199 
L 251.601689 377.057927 
L 262.689381 373.916777 
L 271.60768 371.042639 
L 273.777074 370.343233 
L 284.864767 366.330499 
L 295.269355 362.18331 
L 295.95246 361.909514 
L 307.040153 357.047916 
L 314.888 353.323982 
L 318.127846 351.770046 
L 329.215538 346.055826 
L 332.108321 344.464653 
L 340.303231 339.884829 
L 347.51397 335.605324 
L 351.390924 333.256928 
L 361.567675 326.745995 
L 362.478617 326.148426 
L 373.56631 318.511764 
L 374.434972 317.886666 
L 384.654003 310.307597 
L 386.313129 309.027337 
L 395.741695 301.493689 
L 397.343976 300.168008 
L 406.829388 292.002761 
L 407.611716 291.308679 
L 417.169208 282.44935 
L 417.917081 281.721486 
L 426.065693 273.590021 
L 429.004774 270.492243 
L 434.360692 264.730692 
L 440.092467 258.182764 
L 442.083864 255.871363 
L 449.235367 247.012034 
L 451.18016 244.42332 
L 455.840766 238.152705 
L 461.925189 229.293376 
L 462.267853 228.747559 
L 467.458173 220.434047 
L 472.480219 211.574718 
L 473.355545 209.841321 
L 476.952607 202.715389 
L 480.883842 193.85606 
L 484.272067 184.996731 
L 484.443238 184.448418 
L 487.051898 176.137402 
L 489.222778 167.278074 
L 490.747689 158.418745 
L 491.572932 149.559416 
L 491.627918 140.700087 
L 490.822012 131.840758 
L 489.040439 122.981429 
L 486.138982 114.1221 
L 484.443238 110.423985 
L 481.79262 105.262771 
L 475.67937 96.403442 
L 473.355545 93.735178 
L 467.032477 87.544113 
L 462.267853 83.737065 
L 454.519565 78.684784 
L 451.18016 76.827993 
L 440.092467 71.943362 
L 433.633065 69.825455 
L 429.004774 68.470516 
L 417.917081 66.152183 
L 406.829388 64.728664 
L 395.741695 64.084726 
L 384.654003 64.128661 
L 373.56631 64.78805 
L 362.478617 66.00649 
L 351.390924 67.741074 
L 340.989461 69.825455 
L 340.303231 69.962225 
L 329.215538 72.669497 
L 318.127846 75.810646 
L 309.209547 78.684784 
L 307.040153 79.384191 
L 295.95246 83.396924 
L 285.547872 87.544113 
L 284.864767 87.817909 
L 273.777074 92.679507 
L 265.929228 96.403442 
L 262.689381 97.957377 
L 251.601689 103.671597 
L 248.708907 105.262771 
L 240.513996 109.842595 
L 233.303257 114.1221 
L 229.426303 116.470495 
L 219.249552 122.981429 
L 218.33861 123.578998 
L 207.250917 131.21566 
L 206.382255 131.840758 
L 196.163224 139.419827 
L 194.504098 140.700087 
L 185.075532 148.233735 
L 183.473251 149.559416 
L 173.987839 157.724663 
L 173.205511 158.418745 
L 163.64802 167.278074 
L 162.900146 168.005938 
L 154.751534 176.137402 
L 151.812453 179.235181 
L 146.456535 184.996731 
L 140.72476 191.544659 
L 138.733363 193.85606 
L 131.58186 202.715389 
L 129.637067 205.304103 
L 124.976461 211.574718 
L 118.892038 220.434047 
L 118.549375 220.979864 
L 113.359054 229.293376 
L 108.337008 238.152705 
L 107.461682 239.886103 
L 103.86462 247.012034 
L 99.933385 255.871363 
L 96.54516 264.730692 
L 96.373989 265.279006 
L 93.765329 273.590021 
L 91.594449 282.44935 
L 90.069538 291.308679 
L 89.244295 300.168008 
L 89.189309 309.027337 
L 89.995215 317.886666 
L 91.776788 326.745995 
L 94.678245 335.605324 
L 96.373989 339.303438 
L 99.024607 344.464653 
L 105.137857 353.323982 
L 107.461682 355.992245 
L 113.78475 362.18331 
L 118.549375 365.990358 
L 126.297662 371.042639 
L 129.637067 372.89943 
L 140.72476 377.784062 
L 147.184162 379.901968 
L 151.812453 381.256908 
z
" clip-path="url(#p32c20a256d)" style="fill: none; stroke: #13fce4; stroke-opacity: 0.85"/>
    <path d="M 196.163224 345.274749 
L 207.250917 346.329817 
L 218.33861 346.452838 
L 229.426303 345.768096 
L 239.743513 344.464653 
L 240.513996 344.365981 
L 251.601689 342.23556 
L 262.689381 339.515967 
L 273.777074 336.252861 
L 275.645468 335.605324 
L 284.864767 332.350784 
L 295.95246 327.945086 
L 298.650387 326.745995 
L 307.040153 322.928199 
L 317.187505 317.886666 
L 318.127846 317.405804 
L 329.215538 311.230643 
L 332.899478 309.027337 
L 340.303231 304.446077 
L 346.792722 300.168008 
L 351.390924 297.014807 
L 359.251268 291.308679 
L 362.478617 288.857867 
L 370.499052 282.44935 
L 373.56631 279.870621 
L 380.707685 273.590021 
L 384.654003 269.915948 
L 390.008123 264.730692 
L 395.741695 258.814918 
L 398.499193 255.871363 
L 406.227577 247.012034 
L 406.829388 246.260679 
L 413.139006 238.152705 
L 417.917081 231.449084 
L 419.417777 229.293376 
L 424.931629 220.434047 
L 429.004774 213.067609 
L 429.815185 211.574718 
L 433.899051 202.715389 
L 437.302697 193.85606 
L 439.968977 184.996731 
L 440.092467 184.381098 
L 441.723762 176.137402 
L 442.580735 167.278074 
L 442.426771 158.418745 
L 441.106325 149.559416 
L 440.092467 146.093931 
L 438.270408 140.700087 
L 433.515665 131.840758 
L 429.004774 125.990266 
L 426.150299 122.981429 
L 417.917081 116.402893 
L 414.15144 114.1221 
L 406.829388 110.517791 
L 395.741695 106.718639 
L 388.991152 105.262771 
L 384.654003 104.452674 
L 373.56631 103.397606 
L 362.478617 103.274586 
L 351.390924 103.959327 
L 341.073714 105.262771 
L 340.303231 105.361442 
L 329.215538 107.491863 
L 318.127846 110.211456 
L 307.040153 113.474562 
L 305.171759 114.1221 
L 295.95246 117.376639 
L 284.864767 121.782338 
L 282.16684 122.981429 
L 273.777074 126.799224 
L 263.629722 131.840758 
L 262.689381 132.32162 
L 251.601689 138.496781 
L 247.917749 140.700087 
L 240.513996 145.281347 
L 234.024505 149.559416 
L 229.426303 152.712617 
L 221.565959 158.418745 
L 218.33861 160.869556 
L 210.318175 167.278074 
L 207.250917 169.856802 
L 200.109542 176.137402 
L 196.163224 179.811475 
L 190.809104 184.996731 
L 185.075532 190.912506 
L 182.318034 193.85606 
L 174.58965 202.715389 
L 173.987839 203.466744 
L 167.678221 211.574718 
L 162.900146 218.278339 
L 161.39945 220.434047 
L 155.885598 229.293376 
L 151.812453 236.659814 
L 151.002042 238.152705 
L 146.918176 247.012034 
L 143.51453 255.871363 
L 140.84825 264.730692 
L 140.72476 265.346326 
L 139.093465 273.590021 
L 138.236492 282.44935 
L 138.390456 291.308679 
L 139.710902 300.168008 
L 140.72476 303.633493 
L 142.546819 309.027337 
L 147.301562 317.886666 
L 151.812453 323.737158 
L 154.666928 326.745995 
L 162.900146 333.324531 
L 166.665787 335.605324 
L 173.987839 339.209632 
L 185.075532 343.008785 
L 191.826075 344.464653 
L 196.163224 345.274749 
z
" clip-path="url(#p32c20a256d)" style="fill: none; stroke: #007dff; stroke-opacity: 0.85"/>
    <path d="M 218.33861 293.48845 
L 229.426303 297.083795 
L 240.513996 298.504358 
L 251.601689 298.286734 
L 262.689381 296.794976 
L 273.777074 294.280094 
L 283.50567 291.308679 
L 284.864767 290.869303 
L 295.95246 286.339877 
L 304.215875 282.44935 
L 307.040153 281.034616 
L 318.127846 274.716069 
L 319.900192 273.590021 
L 329.215538 267.260491 
L 332.632006 264.730692 
L 340.303231 258.601201 
L 343.469344 255.871363 
L 351.390924 248.428181 
L 352.800204 247.012034 
L 360.708038 238.152705 
L 362.478617 235.896041 
L 367.347718 229.293376 
L 373.016418 220.434047 
L 373.56631 219.348097 
L 377.285118 211.574718 
L 380.432561 202.715389 
L 382.299537 193.85606 
L 382.571899 184.996731 
L 380.794025 176.137402 
L 376.294354 167.278074 
L 373.56631 164.100461 
L 366.455486 158.418745 
L 362.478617 156.238973 
L 351.390924 152.643629 
L 340.303231 151.223066 
L 329.215538 151.44069 
L 318.127846 152.932447 
L 307.040153 155.447329 
L 297.311557 158.418745 
L 295.95246 158.858121 
L 284.864767 163.387547 
L 276.601352 167.278074 
L 273.777074 168.692808 
L 262.689381 175.011355 
L 260.917035 176.137402 
L 251.601689 182.466932 
L 248.185221 184.996731 
L 240.513996 191.126222 
L 237.347883 193.85606 
L 229.426303 201.299242 
L 228.017023 202.715389 
L 220.109189 211.574718 
L 218.33861 213.831383 
L 213.469509 220.434047 
L 207.800809 229.293376 
L 207.250917 230.379327 
L 203.532109 238.152705 
L 200.384666 247.012034 
L 198.51769 255.871363 
L 198.245328 264.730692 
L 200.023202 273.590021 
L 204.522873 282.44935 
L 207.250917 285.626963 
L 214.361741 291.308679 
L 218.33861 293.48845 
z
" clip-path="url(#p32c20a256d)" style="fill: none; stroke: #0000ff; stroke-opacity: 0.85"/>
    <path clip-path="url(#p32c20a256d)" style="fill: none; stroke: #000080; stroke-opacity: 0.85"/>
   </g>
   <g id="line2d_21">
    <path d="M 508.466573 399.097181 
L 508.466573 137.746977 
L 345.08681 137.746977 
L 345.08681 203.149931 
L 303.832602 203.149931 
L 303.832602 219.369864 
L 294.010171 219.369864 
L 294.010171 223.555653 
L 291.390857 223.555653 
L 291.390857 224.6021 
L 290.736028 224.6021 
" clip-path="url(#p32c20a256d)" style="fill: none; stroke: #0000ff; stroke-linecap: square"/>
    <defs>
     <path id="m955e24f9d3" d="M -2.5 2.5 
L 2.5 -2.5 
M -2.5 -2.5 
L 2.5 2.5 
" style="stroke: #0000ff"/>
    </defs>
    <g clip-path="url(#p32c20a256d)">
     <use xlink:href="#m955e24f9d3" x="508.466573" y="399.097181" style="fill: #0000ff; stroke: #0000ff"/>
     <use xlink:href="#m955e24f9d3" x="508.466573" y="137.746977" style="fill: #0000ff; stroke: #0000ff"/>
     <use xlink:href="#m955e24f9d3" x="345.08681" y="137.746977" style="fill: #0000ff; stroke: #0000ff"/>
     <use xlink:href="#m955e24f9d3" x="345.08681" y="203.149931" style="fill: #0000ff; stroke: #0000ff"/>
     <use xlink:href="#m955e24f9d3" x="303.832602" y="203.149931" style="fill: #0000ff; stroke: #0000ff"/>
     <use xlink:href="#m955e24f9d3" x="303.832602" y="219.369864" style="fill: #0000ff; stroke: #0000ff"/>
     <use xlink:href="#m955e24f9d3" x="294.010171" y="219.369864" style="fill: #0000ff; stroke: #0000ff"/>
     <use xlink:href="#m955e24f9d3" x="294.010171" y="223.555653" style="fill: #0000ff; stroke: #0000ff"/>
     <use xlink:href="#m955e24f9d3" x="291.390857" y="223.555653" style="fill: #0000ff; stroke: #0000ff"/>
     <use xlink:href="#m955e24f9d3" x="291.390857" y="224.6021" style="fill: #0000ff; stroke: #0000ff"/>
     <use xlink:href="#m955e24f9d3" x="290.736028" y="224.6021" style="fill: #0000ff; stroke: #0000ff"/>
    </g>
   </g>
   <g id="patch_3">
    <path d="M 28.739063 433.943875 
L 28.739063 7.071875 
" style="fill: none; stroke: #000000; stroke-width: 0.8; stroke-linejoin: miter; stroke-linecap: square"/>
   </g>
   <g id="patch_4">
    <path d="M 562.981063 433.943875 
L 562.981063 7.071875 
" style="fill: none; stroke: #000000; stroke-width: 0.8; stroke-linejoin: miter; stroke-linecap: square"/>
   </g>
   <g id="patch_5">
    <path d="M 28.739062 433.943875 
L 562.981062 433.943875 
" style="fill: none; stroke: #000000; stroke-width: 0.8; stroke-linejoin: miter; stroke-linecap: square"/>
   </g>
   <g id="patch_6">
    <path d="M 28.739062 7.071875 
L 562.981062 7.071875 
" style="fill: none; stroke: #000000; stroke-width: 0.8; stroke-linejoin: miter; stroke-linecap: square"/>
   </g>
  </g>
 </g>
 <defs>
  <clipPath id="p32c20a256d">
   <rect x="28.739063" y="7.071875" width="534.242" height="426.872"/>
  </clipPath>
 </defs>
</svg>
